<?xml version="1.0" standalone="no"?>
<!DOCTYPE svg PUBLIC "-//W3C//DTD SVG 20010904//EN"
 "http://www.w3.org/TR/2001/REC-SVG-20010904/DTD/svg10.dtd">
<svg version="1.0" xmlns="http://www.w3.org/2000/svg"
 width="3500.000000pt" height="4500.000000pt" viewBox="0 0 3500.000000 4500.000000"
 preserveAspectRatio="xMidYMid meet">

<g transform="translate(0.000000,4500.000000) scale(0.100000,-0.100000)"
fill="#000000" stroke="none">
<path d="M13654 41986 c-17 -8 -40 -27 -51 -42 -11 -16 -61 -164 -111 -329
-82 -274 -91 -311 -101 -428 -6 -70 -11 -132 -11 -137 0 -4 -37 -11 -82 -15
-357 -29 -615 -211 -788 -555 -104 -208 -122 -297 -140 -705 -23 -528 -30
-643 -45 -750 -31 -232 -37 -360 -42 -999 l-5 -659 -50 -61 c-114 -141 -202
-335 -244 -536 -25 -122 -29 -466 -9 -840 18 -345 17 -371 -20 -631 -55 -382
-76 -737 -65 -1094 l7 -190 -66 -75 c-37 -41 -103 -120 -148 -175 -118 -146
-170 -190 -263 -225 -57 -22 -109 -64 -155 -127 -23 -33 -67 -84 -98 -114 -36
-36 -59 -70 -66 -95 -23 -84 -8 -201 42 -314 l23 -52 -38 -95 c-21 -52 -45
-119 -53 -148 l-16 -53 -57 -11 c-149 -29 -226 -97 -309 -270 -30 -64 -79
-147 -108 -186 -83 -109 -158 -234 -239 -399 -91 -184 -139 -308 -176 -446
-47 -177 -87 -263 -248 -529 -137 -227 -166 -292 -203 -442 -23 -97 -47 -160
-109 -289 -127 -267 -164 -412 -165 -640 0 -188 14 -240 81 -305 l43 -42 -25
-48 c-30 -60 -31 -137 -4 -215 23 -65 23 -70 9 -70 -21 0 -197 -110 -273 -170
-268 -213 -301 -283 -271 -576 l16 -153 -24 -68 c-40 -111 -50 -200 -43 -368
3 -82 2 -197 -4 -254 l-10 -104 -68 -71 c-157 -163 -234 -330 -282 -611 -33
-191 -67 -296 -198 -625 -160 -402 -191 -509 -218 -749 -22 -199 -29 -689 -15
-1006 l12 -270 -27 -165 c-34 -208 -38 -371 -10 -445 10 -27 38 -80 62 -116
67 -101 68 -107 66 -282 -3 -179 7 -259 45 -369 l26 -76 -28 -89 c-15 -48 -52
-155 -82 -238 -92 -247 -107 -312 -172 -722 -60 -376 -71 -412 -197 -634 -90
-159 -102 -246 -59 -442 37 -173 40 -236 20 -391 -21 -152 -15 -223 26 -300
17 -32 23 -68 30 -168 16 -239 51 -348 156 -478 193 -242 405 -416 645 -530
130 -62 251 -97 398 -116 130 -17 176 -35 320 -124 157 -97 221 -123 316 -128
107 -6 174 15 267 82 131 94 183 201 181 373 0 68 3 103 10 103 6 0 47 -7 91
-15 107 -19 297 -19 361 0 104 31 189 113 216 209 55 200 -83 504 -291 641
-33 22 -61 43 -61 46 0 4 11 10 24 13 13 3 49 28 79 56 65 59 120 158 143 256
22 96 14 257 -20 388 -37 145 -39 174 -27 382 19 302 -5 470 -104 719 -56 141
-65 220 -45 378 l13 100 52 48 c82 77 125 174 140 317 l7 63 72 36 c39 19 89
50 111 67 22 18 61 44 86 59 99 57 185 182 247 359 42 117 59 210 68 353 10
177 25 211 202 474 46 69 103 165 127 214 l44 90 3 -119 3 -119 -48 -133 c-69
-192 -152 -387 -347 -817 -208 -459 -281 -632 -314 -747 -106 -368 -90 -1065
39 -1678 58 -274 144 -419 310 -526 l57 -36 -8 -47 c-5 -25 -9 -246 -9 -491
-1 -444 -1 -445 -29 -585 -51 -258 -67 -369 -70 -496 -3 -114 -6 -130 -29
-170 -79 -135 -107 -290 -76 -426 11 -47 10 -49 -32 -118 -91 -150 -136 -288
-124 -380 3 -27 29 -104 56 -169 28 -65 58 -148 67 -183 17 -63 16 -64 -6
-106 -12 -24 -50 -81 -83 -127 -135 -189 -187 -374 -145 -515 31 -100 123
-208 251 -295 l71 -48 -8 -79 c-16 -144 18 -311 86 -427 27 -47 140 -168 204
-219 l32 -26 4 -198 c3 -164 7 -212 25 -278 25 -95 69 -190 115 -255 31 -43
34 -54 40 -151 27 -388 137 -660 314 -773 37 -24 92 -54 123 -68 l55 -25 -4
-146 c-7 -241 30 -350 148 -429 l56 -37 48 -153 c51 -163 97 -271 256 -608
212 -448 338 -656 516 -850 166 -180 283 -372 368 -605 126 -343 234 -545 403
-755 111 -138 312 -317 474 -424 l55 -36 -48 -223 c-26 -122 -54 -240 -63
-262 -8 -22 -51 -87 -96 -144 -172 -220 -238 -341 -324 -592 -56 -164 -130
-324 -290 -624 -94 -177 -162 -332 -225 -511 -23 -66 -80 -202 -127 -304 -102
-221 -155 -358 -185 -477 -32 -126 -32 -381 0 -496 49 -176 160 -360 322 -531
65 -69 106 -122 128 -166 87 -180 254 -307 467 -356 105 -25 369 -24 535 0
482 72 841 271 1445 802 550 483 768 728 1020 1144 120 198 171 272 286 416
160 199 364 419 675 729 338 337 394 411 454 600 31 98 39 276 16 377 -18 80
-63 184 -102 235 -13 18 -40 78 -60 134 -64 185 -171 370 -301 521 -63 73 -68
82 -171 298 -82 171 -160 285 -297 429 l-100 106 18 70 c25 96 33 262 18 366
-19 124 -54 224 -146 414 -185 381 -300 723 -389 1160 -40 193 -60 257 -111
353 -54 103 -121 184 -270 331 -141 139 -186 200 -205 282 -11 43 -9 55 16
126 27 74 29 87 29 243 0 122 -5 187 -18 248 -27 123 -73 256 -125 357 -38 76
-62 106 -147 190 -68 67 -114 122 -138 165 -52 95 -127 284 -127 321 0 17 22
83 50 146 66 151 83 218 82 328 -1 178 -55 257 -247 360 -38 20 -71 38 -72 39
-2 2 13 34 32 73 19 39 41 99 50 134 22 95 20 259 -6 355 -21 83 -21 117 4
254 9 51 19 74 44 100 87 93 125 236 148 555 17 237 37 379 66 463 11 31 48
109 83 172 191 345 375 764 489 1115 62 190 71 251 63 412 l-6 133 69 75 c142
152 173 217 176 361 1 55 7 109 13 121 29 54 373 79 527 39 39 -10 98 -31 133
-47 53 -24 62 -32 62 -54 0 -100 69 -318 131 -410 57 -85 62 -105 89 -314 25
-204 38 -253 95 -373 109 -230 185 -571 185 -828 0 -91 25 -228 55 -302 35
-87 94 -160 169 -209 59 -39 65 -46 71 -85 13 -90 57 -252 89 -329 18 -44 41
-120 50 -170 23 -120 66 -227 126 -314 45 -65 50 -78 50 -125 0 -81 28 -223
57 -290 22 -54 25 -73 23 -163 -1 -56 4 -144 11 -195 10 -82 9 -106 -7 -198
-36 -201 -21 -362 48 -512 l30 -67 -16 -73 c-23 -97 -31 -240 -18 -309 21
-112 68 -180 167 -244 56 -37 130 -110 169 -169 30 -44 33 -105 16 -261 -18
-152 -39 -234 -105 -400 -82 -210 -100 -283 -99 -415 1 -87 5 -119 28 -184 33
-95 98 -199 178 -283 l60 -62 -5 -188 c-3 -128 -13 -244 -31 -363 -62 -414
-41 -610 90 -825 l42 -70 -23 -60 c-36 -96 -74 -253 -85 -351 -15 -138 0 -239
104 -670 30 -126 68 -304 85 -395 48 -264 107 -420 229 -605 l60 -92 -25 -68
c-32 -87 -40 -217 -23 -357 10 -89 10 -115 -5 -202 -10 -55 -19 -167 -20 -250
-2 -97 -11 -196 -25 -280 -14 -81 -23 -171 -23 -240 1 -161 18 -207 160 -418
64 -94 134 -199 156 -232 53 -77 121 -208 141 -268 22 -66 50 -228 91 -535 62
-460 96 -616 182 -842 179 -469 442 -873 789 -1210 301 -292 653 -524 975
-644 441 -163 938 -207 1421 -125 370 62 594 174 833 414 273 274 368 594 280
940 -14 58 -25 128 -25 167 0 182 -83 618 -177 928 -62 206 -183 472 -311 685
-36 60 -188 292 -338 515 -384 574 -384 574 -429 822 -34 187 -72 330 -155
582 -67 206 -100 352 -100 446 0 43 4 49 78 125 89 92 140 185 173 310 16 62
23 131 29 305 9 214 11 237 59 466 71 347 76 402 61 679 -9 175 -9 284 -1 458
15 308 14 583 -4 752 -49 486 -41 867 20 1015 39 95 93 272 114 375 44 221 35
383 -36 614 -59 196 -65 231 -68 442 l-3 197 -38 48 c-65 85 -124 237 -124
319 0 17 18 103 39 191 55 223 71 322 71 447 0 186 -39 305 -167 506 -59 92
-67 112 -71 162 -5 74 17 174 80 364 43 127 51 165 56 246 5 115 -3 154 -70
342 l-50 137 25 43 c72 122 81 301 28 517 -10 41 -22 127 -26 190 -14 249 -68
602 -125 815 -65 248 -251 742 -455 1215 -123 284 -201 449 -397 830 -202 396
-285 577 -327 715 -12 39 -24 78 -27 87 -4 13 12 22 83 43 150 45 338 124 395
165 130 93 252 309 380 675 98 279 101 363 24 847 -38 242 -45 363 -50 908
l-5 505 35 24 c76 52 209 250 264 392 89 230 97 454 30 772 -89 420 -213 756
-370 1002 -78 123 -155 283 -295 618 l-108 259 7 91 c8 100 30 285 47 385 l11
63 67 -113 c123 -208 210 -328 321 -438 58 -58 126 -116 152 -130 38 -20 48
-31 58 -64 32 -111 133 -244 231 -308 27 -17 49 -37 49 -43 0 -7 -9 -38 -20
-71 -86 -248 -12 -441 232 -605 97 -65 154 -113 168 -139 7 -13 -1 -31 -36
-76 -95 -122 -157 -263 -169 -384 -5 -50 0 -95 19 -193 18 -88 31 -202 41
-370 21 -321 35 -424 95 -662 98 -388 113 -553 80 -870 -26 -246 -24 -496 5
-600 37 -131 94 -217 185 -275 l51 -33 -3 -201 c-2 -111 1 -222 5 -247 l8 -45
-133 -109 c-167 -137 -377 -345 -455 -450 -110 -150 -181 -316 -223 -520 -11
-53 -36 -245 -55 -426 -40 -370 -46 -404 -110 -613 -60 -197 -84 -318 -91
-451 -10 -177 25 -287 117 -369 71 -65 118 -81 240 -81 101 0 108 1 181 38
136 67 236 202 313 428 20 57 58 147 83 199 l47 95 3 -65 c3 -70 2 -75 -132
-495 -78 -244 -142 -498 -156 -624 -18 -152 -8 -434 18 -532 39 -146 102 -238
193 -285 57 -29 146 -40 207 -26 37 9 44 8 49 -6 67 -201 224 -307 450 -305
68 0 91 5 146 30 35 17 79 46 97 65 l34 35 40 -18 c162 -71 387 9 530 188 l49
62 44 -39 c59 -51 129 -75 223 -75 217 1 324 163 365 553 22 214 29 243 115
507 154 470 167 534 180 875 5 135 23 391 40 570 17 179 35 396 40 484 10 176
-1 487 -25 765 l-16 175 46 39 c97 83 120 146 120 327 l0 135 42 70 c53 89 82
175 90 269 l6 75 54 37 c145 100 243 275 289 514 13 68 17 202 24 685 6 457
12 624 24 700 8 55 31 198 51 319 77 476 102 787 76 965 -25 168 -96 335 -209
487 l-63 86 25 92 c15 50 47 132 72 183 87 176 80 264 -44 563 -47 114 -58
160 -73 310 -20 211 -72 367 -163 494 -53 74 -97 115 -205 191 -101 71 -140
124 -236 322 -80 166 -136 256 -186 297 l-31 27 27 71 c73 198 35 329 -151
529 -89 95 -93 102 -140 221 -131 340 -394 869 -612 1233 -181 303 -318 486
-531 709 -156 163 -259 292 -326 406 -35 61 -38 71 -41 158 -5 159 -44 266
-174 482 -229 382 -490 697 -746 902 l-111 89 23 107 c94 431 153 1137 184
2202 14 465 27 618 135 1475 43 344 42 335 62 940 22 652 22 654 -10 733 -45
112 -89 173 -233 321 l-141 146 28 355 c26 334 27 373 20 673 -8 293 -10 321
-28 345 -30 40 -66 63 -109 68 -55 7 -9504 734 -9528 734 -12 -1 -35 -7 -52
-14z m4786 -636 c2505 -192 4574 -352 4596 -355 l42 -6 7 -140 c4 -78 3 -144
-1 -148 -5 -5 -722 47 -1594 115 l-1585 123 -133 55 c-334 140 -721 236 -1129
280 -556 62 -1219 29 -1718 -83 l-80 -18 -1545 119 c-850 66 -1550 121 -1557
123 -8 3 -6 20 7 62 10 32 30 96 44 143 l26 86 32 -3 c18 -2 2083 -161 4588
-353z m-3570 -310 c646 -49 1199 -92 1229 -96 l54 -6 -120 -63 -121 -63 -147
-7 c-122 -6 -147 -10 -152 -24 -3 -9 -10 -29 -16 -45 l-11 -29 -23 52 c-12 29
-33 65 -46 81 l-24 28 -7 -81 c-7 -84 -19 -115 -31 -78 -3 11 -18 29 -33 39
-57 40 -390 36 -747 -8 -234 -30 -319 -25 -422 25 -58 28 -95 39 -145 42 -67
6 -68 5 -103 -30 -31 -31 -35 -41 -35 -85 0 -33 8 -64 24 -94 l24 -46 -114 -4
c-69 -3 -119 -9 -126 -16 -9 -9 -7 -12 8 -12 11 0 53 -16 94 -36 73 -35 74
-36 53 -52 -56 -45 -59 -137 -8 -262 19 -47 35 -101 35 -121 0 -53 -43 -128
-125 -217 -83 -91 -92 -106 -111 -177 -14 -53 -19 -272 -6 -290 4 -6 23 -12
42 -13 44 -3 92 -21 84 -33 -3 -5 -13 -9 -23 -9 -23 0 -155 -65 -171 -84 -9
-11 -6 -29 15 -79 25 -63 25 -66 10 -123 -24 -93 -20 -226 10 -314 34 -101 33
-118 -16 -165 -58 -56 -73 -89 -57 -119 56 -102 70 -134 75 -176 8 -70 -3
-114 -42 -160 -63 -75 -88 -179 -101 -416 l-6 -121 58 0 c35 -1 83 -10 119
-24 l60 -22 -52 -12 c-28 -7 -63 -19 -77 -28 -27 -18 -66 -57 -66 -66 0 -3 24
-7 53 -7 29 -1 69 -9 88 -19 35 -18 89 -63 89 -75 0 -4 -27 -10 -60 -13 -124
-13 -225 -89 -255 -191 -21 -71 -19 -137 11 -256 33 -132 36 -223 8 -270 -34
-59 -85 -64 -155 -17 -32 22 -34 26 -31 73 1 27 79 1041 172 2253 94 1212 170
2215 170 2228 0 12 6 23 13 23 6 0 541 -40 1187 -90z m3522 -31 c1422 -98
2394 -746 2886 -1924 70 -166 135 -363 134 -405 -2 -61 -14 -132 -21 -123 -4
4 -25 46 -45 93 -53 118 -135 265 -220 395 -40 61 -98 157 -130 215 -102 185
-219 350 -340 481 -224 241 -244 259 -386 345 -119 71 -139 87 -173 137 -43
66 -106 118 -213 179 l-76 43 44 12 c23 6 57 14 73 18 l30 7 -39 20 c-91 47
-403 181 -487 209 -147 49 -266 69 -454 76 -236 8 -315 -11 -315 -76 0 -38 30
-82 90 -132 117 -98 140 -122 152 -160 6 -22 9 -41 7 -44 -3 -2 -72 4 -154 15
-274 35 -457 43 -828 37 -379 -6 -522 -17 -823 -67 -688 -114 -1255 -372
-1702 -772 -289 -260 -544 -625 -712 -1023 -23 -55 -67 -172 -96 -260 -30 -88
-54 -154 -54 -147 0 33 76 361 115 498 144 496 372 936 660 1274 92 107 285
296 389 380 509 411 1220 656 2036 703 139 8 513 6 652 -4z m-5039 -295 c-1
-21 -10 -138 -19 -258 l-16 -219 -33 -46 c-56 -79 -65 -103 -49 -126 8 -11 24
-49 35 -85 18 -56 19 -80 13 -178 -6 -101 -9 -114 -28 -124 -25 -13 -137 -13
-183 1 -18 5 -33 7 -33 4 0 -10 67 -97 94 -122 14 -14 26 -28 26 -33 0 -4 -26
-21 -59 -37 -83 -42 -121 -77 -121 -110 0 -32 38 -87 105 -151 66 -64 89 -112
89 -185 -1 -65 -19 -111 -62 -158 l-26 -27 22 -45 c35 -72 63 -193 68 -290 3
-49 -4 -195 -14 -324 l-19 -235 -49 -43 c-27 -24 -87 -62 -133 -86 -80 -40
-89 -42 -171 -42 -77 0 -92 3 -153 33 l-67 33 0 347 c0 372 9 547 40 792 11
89 26 314 35 530 20 484 29 593 62 684 94 265 261 449 465 515 37 12 155 30
173 26 6 -1 9 -20 8 -41z m8457 -210 c696 -53 1266 -98 1268 -99 2 -2 -41
-577 -95 -1279 -54 -701 -101 -1272 -105 -1268 -5 5 -12 104 -18 222 -9 206
-1 664 18 958 4 61 5 112 1 112 -3 0 -14 -10 -25 -21 -20 -22 -165 -111 -171
-105 -2 2 18 33 46 69 65 86 159 245 171 288 27 100 37 384 20 560 -18 177
-41 230 -115 260 -41 17 -315 13 -452 -6 -157 -22 -158 -22 -288 46 -88 46
-267 119 -291 119 -1 0 -4 -10 -8 -23 -3 -12 -19 -35 -35 -51 l-30 -29 -11 45
-12 45 -81 7 c-45 3 -98 9 -119 12 l-36 6 -12 -58 -12 -58 -19 36 c-35 68 -95
96 -273 128 -95 17 -135 19 -276 14 l-165 -7 -70 59 c-39 33 -88 74 -110 92
l-40 33 40 -5 c22 -3 609 -49 1305 -102z m-4080 -278 c0 -2 -7 -17 -15 -32 -8
-16 -15 -39 -15 -52 0 -38 37 -98 82 -133 l42 -34 262 -12 c363 -16 571 -46
774 -112 85 -28 161 -62 105 -47 -34 9 -304 44 -440 58 -201 20 -807 17 -1025
-5 -612 -62 -1119 -213 -1537 -458 -203 -119 -376 -254 -578 -449 -124 -121
-236 -210 -262 -210 -13 0 -15 10 -10 55 8 78 79 220 172 345 100 133 373 407
486 487 479 339 1013 518 1779 596 52 6 180 8 180 3z m655 -546 c1244 -80
2113 -560 2594 -1435 184 -336 309 -745 366 -1205 22 -171 31 -662 16 -816
-116 -1162 -991 -2094 -2275 -2424 -482 -124 -1045 -156 -1563 -90 -1148 147
-2090 757 -2533 1641 -211 420 -296 839 -270 1335 49 944 345 1677 885 2192
495 472 1195 743 2075 801 184 12 523 12 705 1z m5030 -394 l26 -53 -10 -244
c-6 -134 -13 -373 -17 -530 -3 -158 -10 -293 -15 -300 -6 -11 -29 -3 -104 35
l-96 49 6 51 c3 28 14 173 25 321 30 409 22 370 86 407 l55 31 -28 17 c-15 10
-38 28 -51 42 -22 24 -22 25 -10 178 l11 154 48 -52 c26 -28 59 -76 74 -106z
m-19 -1262 c-3 -48 -24 -227 -46 -398 -97 -758 -114 -967 -130 -1531 -16 -567
-44 -1040 -85 -1435 -27 -254 -64 -500 -76 -500 -15 0 -70 80 -110 159 -79
158 -108 351 -74 486 24 95 72 184 111 207 30 18 34 25 34 63 0 23 -13 88 -30
143 -38 129 -57 239 -45 256 42 56 48 71 53 132 l5 65 56 -7 56 -6 -25 20
c-14 11 -39 44 -54 73 l-29 52 23 19 c13 10 29 22 36 26 10 6 7 19 -13 60
l-26 53 12 182 c15 216 16 220 41 207 25 -13 50 -13 50 1 0 6 -14 42 -31 81
-30 69 -31 73 -24 177 8 131 16 159 60 201 19 19 35 42 35 52 0 10 -14 47 -32
82 l-31 64 27 359 c15 197 29 386 33 421 l6 62 44 12 44 11 -25 26 c-40 41
-56 91 -49 150 l6 50 96 4 c53 1 100 4 105 5 5 1 6 -35 2 -84z m-10317 -895
l-22 -284 -44 -38 c-24 -22 -63 -67 -88 -102 -112 -157 -148 -336 -107 -536
14 -70 15 -92 5 -125 -17 -56 -16 -219 2 -289 34 -133 164 -344 284 -460 22
-21 41 -42 41 -45 0 -4 -29 -40 -65 -81 -84 -95 -171 -222 -223 -324 -40 -80
-40 -80 -158 -160 -104 -70 -410 -296 -500 -370 l-32 -26 -7 51 c-16 119 11
481 66 870 40 282 41 287 36 510 -3 124 -11 334 -18 467 -17 363 7 576 86 760
26 60 27 61 76 67 180 24 415 152 606 331 43 40 79 72 81 71 1 -2 -8 -131 -19
-287z m-56 -736 c-5 -91 -3 -100 19 -133 28 -42 80 -70 130 -70 35 0 38 -2 49
-42 28 -107 122 -247 221 -329 84 -70 158 -117 292 -185 149 -77 243 -141 342
-236 97 -93 145 -154 213 -267 103 -170 142 -297 206 -663 132 -755 237 -1156
432 -1663 245 -633 429 -1210 449 -1411 5 -46 1 -85 -17 -160 -19 -83 -28
-105 -58 -137 -60 -64 -181 -112 -181 -72 0 9 14 73 31 143 36 146 36 216 -1
382 -52 238 -202 701 -365 1130 -53 140 -119 314 -146 387 -125 338 -246 839
-359 1490 -58 340 -116 501 -236 660 -95 127 -212 210 -409 290 -210 86 -308
151 -417 280 -148 175 -221 351 -222 533 0 79 15 170 29 170 2 0 1 -44 -2 -97z
m608 -239 c7 -4 -34 -190 -43 -200 -15 -14 -168 179 -168 211 0 7 199 -4 211
-11z m8834 -680 c121 -9 222 -18 224 -20 6 -5 -18 -316 -24 -322 -2 -3 -102
16 -222 41 -120 25 -309 63 -420 84 -112 21 -203 41 -203 45 0 19 73 87 122
113 89 49 207 85 258 80 25 -3 144 -12 265 -21z m-7422 -584 c392 -553 1020
-991 1737 -1213 245 -76 462 -123 735 -157 93 -12 171 -23 173 -24 5 -6 -114
-35 -201 -51 -344 -59 -811 -2 -1292 159 -177 60 -180 54 -20 -43 356 -216
884 -355 1523 -402 212 -15 758 -7 942 15 587 69 1054 232 1494 519 247 162
419 314 547 482 99 132 199 356 199 449 0 17 18 48 50 86 l49 60 12 -42 c20
-75 6 -220 -31 -320 -173 -471 -764 -931 -1507 -1172 -929 -302 -2125 -261
-3011 103 -402 166 -703 361 -978 636 -224 223 -360 418 -487 696 -46 101 -52
121 -51 179 0 70 20 153 34 148 5 -2 42 -50 83 -108z m-1338 -69 c12 -25 30
-73 40 -105 17 -61 61 -155 89 -191 15 -19 15 -18 16 18 0 48 28 173 47 210
23 45 54 53 106 28 28 -13 47 -30 51 -44 3 -12 26 -139 51 -281 48 -270 116
-610 140 -707 21 -81 19 -95 -13 -108 -83 -34 -222 -188 -291 -321 l-40 -75
19 -110 c38 -222 99 -486 191 -826 21 -81 39 -151 39 -155 0 -19 -131 270
-194 429 -209 525 -347 1050 -402 1522 -19 168 -20 541 -2 660 l13 80 45 21
c53 25 61 22 95 -45z m8000 -9 c50 -27 155 -88 235 -138 119 -73 163 -108 255
-199 68 -67 122 -130 138 -162 l28 -52 -35 -143 c-33 -137 -103 -378 -112
-387 -2 -3 -19 14 -38 35 -35 41 -144 130 -150 123 -2 -2 -11 -20 -21 -39 -16
-32 -85 -128 -85 -119 0 2 14 57 30 123 31 124 60 313 60 396 0 31 -6 54 -16
65 -47 47 -168 79 -342 91 l-104 7 7 31 c10 50 33 234 40 329 4 48 10 87 13
87 4 0 48 -22 97 -48z m-8358 -169 c-5 -54 -6 -174 -3 -268 15 -433 91 -834
261 -1380 l53 -170 12 -268 c7 -147 10 -270 7 -273 -3 -3 -13 9 -22 27 -9 17
-69 116 -132 218 -130 211 -233 412 -282 551 -19 52 -38 99 -42 104 -8 10 -26
-48 -40 -133 -34 -209 38 -629 156 -906 62 -145 78 -223 73 -342 -3 -54 -11
-113 -19 -132 l-15 -34 -54 84 c-77 116 -206 285 -335 435 -137 162 -453 479
-565 568 -334 266 -641 396 -933 396 l-71 0 30 33 c17 17 45 51 63 74 20 27
51 51 86 67 117 53 202 126 313 266 279 353 522 575 952 872 153 105 489 308
510 308 3 0 2 -44 -3 -97z m9272 -663 c199 -99 435 -250 607 -387 227 -181
441 -434 649 -767 89 -143 168 -297 158 -306 -9 -8 -105 -42 -108 -37 -1 1 -9
23 -19 49 -22 60 -102 192 -169 281 l-52 69 -45 -6 c-24 -4 -73 -19 -107 -36
-35 -16 -63 -26 -63 -21 0 16 61 102 100 140 l41 40 -68 50 c-100 74 -202 129
-301 165 -78 27 -99 31 -202 31 -104 0 -120 -3 -168 -26 -28 -14 -52 -23 -52
-19 0 15 80 126 114 159 20 19 36 38 36 43 0 4 -25 24 -56 45 l-55 36 -47 -22
c-57 -28 -109 -67 -186 -140 -47 -46 -57 -51 -51 -31 11 39 82 188 115 242 17
26 30 55 30 63 0 34 -167 129 -247 141 -24 3 -43 9 -43 13 0 22 75 281 82 281
5 0 53 -22 107 -50z m-7217 -346 c307 -274 779 -529 1243 -672 212 -65 593
-152 668 -152 15 0 27 -4 27 -9 0 -12 -132 -4 -275 15 -280 38 -633 144 -1000
301 -191 82 -185 80 -150 49 68 -61 250 -173 390 -241 289 -141 619 -245 1040
-329 138 -28 106 -34 -81 -15 -461 45 -971 217 -1347 453 -101 64 -101 50 0
-44 139 -131 453 -309 751 -429 68 -27 126 -52 129 -55 12 -11 -316 103 -415
145 -324 137 -639 338 -870 553 -95 89 -196 272 -209 376 -6 48 10 110 28 110
4 0 37 -25 71 -56z m5907 -91 c36 -26 83 -63 104 -82 l37 -34 57 12 c73 14
150 50 196 91 l37 32 0 -63 c-1 -56 -14 -111 -45 -183 -7 -16 -5 -18 26 -11
64 12 128 36 164 60 30 21 35 22 35 7 0 -9 -9 -37 -21 -61 l-20 -45 57 -57 57
-58 -33 -73 c-199 -438 -484 -915 -862 -1445 -129 -181 -131 -183 -167 -183
-39 0 -141 26 -141 36 0 3 8 18 19 32 53 76 117 234 135 336 l8 39 -60 -74
c-105 -131 -222 -229 -356 -298 -44 -22 -81 -39 -84 -37 -2 2 17 40 41 83 87
152 151 352 160 494 3 65 5 68 61 130 105 115 251 303 339 435 150 225 258
468 243 547 -12 65 -87 151 -194 223 -6 4 123 194 132 194 5 0 38 -21 75 -47z
m1861 -487 c0 -3 -53 -32 -117 -66 -119 -61 -148 -81 -360 -248 -126 -99 -142
-102 -104 -18 44 99 162 191 338 263 97 40 243 81 243 69z m-11430 -173 c166
-53 351 -160 540 -311 169 -136 468 -449 638 -668 l32 -41 -33 -9 c-63 -19
-97 -107 -97 -254 l0 -79 -102 80 c-138 109 -402 284 -517 343 -51 26 -94 46
-96 44 -3 -2 46 -48 108 -102 220 -193 431 -393 533 -504 115 -125 118 -132
89 -228 -19 -64 -67 -128 -118 -158 -37 -22 -48 -24 -91 -15 -27 5 -67 6 -90
3 -57 -8 -136 -34 -136 -44 0 -19 102 -131 206 -225 60 -54 110 -102 112 -106
6 -14 -113 23 -187 57 -87 40 -240 141 -326 213 -32 28 -63 51 -67 51 -4 0
-18 -33 -30 -72 -18 -57 -22 -96 -22 -178 2 -189 68 -374 214 -596 l20 -31
-58 -6 c-70 -8 -149 -32 -182 -57 l-25 -19 35 -12 c86 -30 291 -144 367 -203
75 -60 128 -119 92 -103 -251 111 -411 158 -541 158 -103 1 -152 -18 -183 -69
-93 -152 -149 -228 -225 -302 -122 -121 -234 -191 -405 -255 -16 -6 -7 -13 50
-38 130 -57 429 -213 533 -277 122 -77 267 -184 347 -257 31 -29 55 -53 52
-53 -2 0 -47 20 -99 45 -52 24 -175 76 -273 114 -99 38 -277 111 -395 163
-359 158 -527 213 -750 243 -197 26 -250 36 -369 72 -210 62 -336 79 -473 65
l-78 -8 0 92 c0 173 36 303 143 524 54 112 77 174 102 276 41 165 50 184 184
407 133 222 213 383 247 497 71 241 104 327 190 500 99 198 142 270 222 369
47 58 69 98 137 244 36 77 61 92 150 92 57 -1 80 -6 125 -29 72 -37 136 -84
240 -176 137 -122 186 -162 350 -285 159 -119 285 -191 354 -202 35 -5 39 -4
32 12 -20 54 -117 177 -270 344 -94 102 -211 233 -261 290 -100 115 -186 192
-275 247 -33 20 -60 43 -60 51 0 8 18 61 41 118 37 95 48 113 127 199 98 107
83 103 222 59z m8591 -52 c-29 -53 -179 -158 -275 -191 -108 -37 -641 -149
-653 -137 -1 2 88 41 200 86 111 46 258 110 327 141 69 32 166 70 215 84 114
31 123 33 163 35 29 1 32 -1 23 -18z m1670 -192 c-16 -68 -50 -198 -75 -289
-25 -90 -44 -165 -42 -167 9 -9 228 307 316 455 23 40 44 71 45 70 1 -2 15
-66 30 -143 l27 -140 -68 -100 c-181 -264 -363 -603 -472 -880 -62 -156 -165
-463 -177 -528 -4 -20 -11 -37 -15 -37 -11 0 -66 124 -100 226 -50 146 -70
264 -77 441 l-6 162 141 213 c168 256 343 548 432 720 36 70 66 125 68 123 2
-1 -10 -58 -27 -126z m-6206 -28 c449 -201 741 -307 1074 -391 308 -77 524
-154 686 -245 69 -38 165 -110 165 -124 0 -4 -27 -31 -59 -59 l-59 -51 -198
15 c-283 21 -257 13 -278 84 -59 196 -267 311 -618 341 -334 28 -551 -49 -640
-229 l-26 -52 -59 44 c-131 96 -209 264 -228 489 -8 91 2 277 14 277 4 0 106
-44 226 -99z m6884 -256 c-15 -30 -33 -81 -40 -112 -10 -50 -9 -65 6 -110 18
-51 18 -53 -5 -105 -17 -39 -25 -78 -28 -145 -3 -54 0 -93 5 -93 5 0 22 14 39
31 51 54 225 190 339 265 196 128 394 222 585 277 157 45 162 42 40 -23 -693
-371 -1239 -872 -1603 -1472 -64 -105 -65 -107 -83 -87 -58 64 2 542 100 806
24 66 57 148 73 184 l30 64 -5 -105 c-7 -154 -3 -159 46 -57 102 216 283 482
443 652 45 47 82 85 84 85 1 0 -11 -25 -26 -55z m-6174 -365 c55 -5 132 -17
171 -26 65 -16 73 -20 88 -51 9 -18 19 -52 22 -74 l7 -41 -74 6 c-94 8 -447
26 -518 26 l-53 0 4 60 c2 33 10 66 16 72 14 14 128 36 192 37 25 0 90 -4 145
-9z m7789 -105 c37 -46 128 -149 204 -227 201 -209 306 -348 474 -628 220
-366 503 -937 623 -1258 34 -90 107 -202 175 -267 119 -114 132 -155 79 -265
l-31 -65 -10 30 c-19 55 -122 179 -283 340 -176 174 -196 204 -258 375 -53
147 -102 261 -189 442 l-81 167 -42 -24 c-47 -28 -161 -60 -250 -70 l-60 -6
55 32 c71 41 179 152 205 208 l19 43 -53 104 c-108 213 -262 409 -354 453 -23
10 -150 38 -282 62 -132 23 -244 45 -248 49 -10 8 149 57 228 70 33 5 97 10
143 10 l82 0 -38 49 c-55 70 -117 194 -145 291 -22 78 -40 170 -32 170 2 0 33
-38 69 -85z m-8089 -355 c483 -34 839 -60 874 -66 l34 -5 -49 -50 c-61 -62
-158 -110 -279 -137 -49 -11 -143 -32 -207 -47 -121 -27 -166 -49 -202 -98
-30 -40 -29 -146 2 -204 23 -45 65 -83 91 -83 9 0 69 40 134 89 163 124 207
142 207 87 0 -81 -255 -475 -391 -603 -37 -34 -107 -83 -120 -83 -4 0 -1 17 8
38 21 50 20 145 -1 210 -19 55 -26 61 -47 36 -30 -37 -221 -170 -371 -260 -90
-54 -254 -144 -365 -201 -214 -110 -253 -139 -323 -243 -120 -178 -191 -438
-147 -542 9 -21 22 -38 29 -39 7 -1 76 -2 153 -3 119 -2 151 -6 215 -27 l74
-25 -60 -22 c-73 -26 -206 -109 -317 -196 -96 -74 -121 -101 -112 -115 10 -18
135 -50 243 -64 l104 -12 -74 -47 c-198 -126 -328 -284 -359 -438 -16 -77 -78
-208 -156 -322 -36 -54 -69 -100 -73 -103 -4 -2 -6 167 -5 378 3 378 6 426 50
808 22 190 33 407 45 909 6 250 13 501 16 556 l6 101 276 6 c290 6 391 18 475
55 35 16 48 27 52 49 4 15 9 34 11 42 7 23 5 526 -2 620 l-7 84 144 -7 c79 -4
270 -16 424 -26z m6641 8 c-10 -49 -14 -186 -8 -251 l7 -67 140 166 c76 91
142 167 145 169 4 2 -2 -22 -13 -53 -32 -94 -46 -199 -47 -342 0 -115 19 -313
32 -325 11 -11 201 -25 342 -25 l159 0 -24 -26 c-57 -62 -211 -117 -460 -164
-90 -17 -182 -35 -204 -39 l-40 -8 66 -31 c73 -34 188 -58 324 -67 201 -14
334 -43 364 -79 9 -11 -7 -15 -86 -20 -233 -17 -373 -94 -445 -245 -30 -62
-32 -75 -36 -203 -5 -160 5 -244 55 -441 28 -109 36 -163 37 -234 1 -90 2 -92
18 -70 46 59 51 96 59 442 7 328 11 372 42 431 36 69 130 122 259 147 105 19
290 -31 421 -115 67 -44 177 -135 177 -148 0 -4 -34 -20 -76 -35 -154 -56
-296 -176 -364 -308 -19 -36 -32 -69 -28 -72 4 -4 19 2 35 13 112 79 387 163
532 162 35 0 35 -1 -20 -24 -80 -32 -192 -110 -276 -189 -80 -76 -98 -112
-129 -253 -20 -95 -23 -337 -5 -433 l12 -64 -58 -59 -58 -59 45 17 c25 9 122
51 215 92 218 96 235 103 235 98 0 -2 -31 -27 -69 -55 -98 -73 -96 -67 -62
-147 16 -38 32 -68 37 -67 5 1 81 34 170 72 326 141 692 245 1072 305 43 7 9
-10 -133 -63 -757 -288 -1462 -689 -1868 -1062 -81 -75 -89 -80 -120 -74 -146
32 -298 220 -572 710 -43 77 -114 196 -158 264 -44 68 -128 215 -187 326 -132
248 -149 274 -270 400 -98 103 -210 256 -210 288 0 31 43 42 94 23 114 -44
311 -219 400 -355 27 -41 77 -132 111 -203 l63 -129 7 61 c14 117 -13 283 -70
435 -26 68 -33 100 -27 112 14 26 23 106 14 118 -4 6 -29 11 -55 10 -43 0 -52
4 -82 36 -35 39 -55 105 -55 185 0 37 8 55 49 112 27 37 85 140 130 229 44 89
123 236 174 325 52 90 120 213 152 273 l58 110 -63 -60 c-190 -182 -524 -598
-586 -728 -15 -31 -23 -37 -43 -35 -44 5 -63 46 -69 146 l-5 90 67 122 c126
230 254 420 415 612 86 102 328 348 343 348 4 0 6 -10 4 -22z m-4791 -83 c77
-8 203 -24 280 -36 131 -19 164 -20 508 -14 l369 7 -12 -21 c-17 -33 -83 -76
-168 -111 -152 -61 -231 -117 -300 -213 l-33 -46 73 30 c92 38 238 82 245 75
20 -19 -117 -154 -352 -348 -165 -136 -329 -221 -532 -278 -107 -30 -153 -37
-153 -22 0 4 13 28 28 53 34 53 102 114 197 177 146 97 339 241 331 249 -7 7
-202 -39 -311 -74 -221 -71 -389 -181 -440 -288 -36 -75 -32 -184 10 -287 7
-17 -4 -18 -150 -18 l-157 0 6 33 c14 68 18 703 6 919 -6 119 -8 222 -4 229 9
16 358 6 559 -16z m-810 -187 c44 -238 35 -604 -21 -883 -20 -103 -57 -235
-66 -235 -4 0 -16 29 -27 65 -75 241 -74 605 0 905 25 99 77 240 89 240 4 0
16 -42 25 -92z m2210 -308 c-4 -220 -4 -469 0 -554 l7 -154 62 -6 c687 -67
1282 -128 1285 -132 10 -10 -44 -851 -94 -1484 -44 -544 -108 -1145 -158
-1475 l-23 -150 -624 2 c-743 2 -1361 20 -2050 58 -146 8 -427 22 -625 30
-1038 43 -1577 82 -1969 141 -189 28 -338 65 -396 99 l-25 14 36 1 c19 0 224
-11 455 -25 1328 -78 3205 -134 4546 -135 l486 0 6 28 c31 155 109 842 186
1627 35 363 100 1089 100 1120 l0 30 -628 89 c-345 49 -633 91 -641 94 -12 4
-13 40 -7 216 9 280 62 966 74 966 3 0 1 -180 -3 -400z m5105 -91 c-25 -89
-110 -178 -194 -200 -45 -12 -483 -2 -469 11 17 16 144 51 249 70 241 42 293
60 394 139 14 11 26 19 27 17 1 -1 -2 -18 -7 -37z m-9998 -889 c1 -625 -22
-1264 -68 -1910 -23 -326 -25 -331 -52 -185 -52 283 -72 520 -79 920 -7 417
13 795 63 1195 21 172 68 446 95 560 l23 95 9 -70 c5 -38 9 -311 9 -605z
m-1637 226 c144 -64 225 -110 232 -132 7 -21 -60 -39 -142 -39 -123 0 -190 29
-286 124 -60 61 -149 183 -149 207 0 2 45 -18 100 -46 54 -27 165 -79 245
-114z m5845 49 c157 -10 405 -51 489 -83 22 -8 20 -9 -22 -15 -105 -15 -501
-19 -777 -8 -404 15 -522 23 -513 32 11 10 149 44 241 59 40 7 132 15 205 19
129 8 186 7 377 -4z m-974 -240 c153 -11 229 -12 329 -5 231 18 735 24 985 11
448 -23 774 -51 959 -83 l65 -11 -23 -18 c-37 -31 -118 -49 -280 -64 -168 -15
-219 -32 -236 -79 -13 -37 14 -83 73 -128 51 -37 92 -91 117 -150 l15 -38 -32
-2 c-88 -4 -127 7 -188 53 -66 50 -113 71 -203 92 -48 11 -67 12 -67 4 0 -7
25 -63 55 -124 29 -62 51 -113 48 -113 -23 0 -147 88 -194 137 -58 61 -87 109
-108 178 -7 22 -14 46 -17 53 -6 21 -53 -9 -146 -95 -47 -43 -113 -95 -149
-116 -135 -79 -312 -130 -433 -125 l-65 3 67 50 c73 55 128 131 118 163 -9 28
-49 42 -116 42 -161 0 -510 -120 -652 -225 -54 -40 -86 -81 -72 -95 5 -5 59
-11 119 -13 132 -5 193 -24 175 -56 -6 -12 -19 -25 -29 -30 -49 -27 -163 -215
-205 -339 -14 -39 -39 -92 -56 -117 -34 -50 -119 -136 -181 -186 l-39 -31 0
159 c0 87 -5 321 -11 521 -11 365 -4 593 21 684 14 50 54 96 88 101 50 8 69 7
268 -8z m-1586 -104 c0 -5 -29 -36 -65 -69 -65 -60 -147 -109 -227 -138 -107
-38 -621 -145 -634 -131 -2 2 87 41 199 87 111 46 258 109 327 141 163 74 400
140 400 110z m1025 -336 c53 -501 39 -1172 -36 -1675 -25 -171 -44 -259 -52
-240 -8 19 -34 204 -48 340 -17 165 -23 840 -10 1051 19 296 69 695 98 784 9
27 29 -80 48 -260z m2910 -82 c4 -65 5 -241 2 -393 -7 -381 -45 -688 -127
-1030 -33 -135 -97 -337 -109 -345 -16 -9 -22 302 -11 515 20 397 64 736 136
1055 31 135 85 315 95 315 4 0 10 -53 14 -117z m-1261 -119 c45 -17 -17 -99
-135 -175 -61 -40 -87 -64 -114 -108 -43 -68 -45 -84 -7 -75 78 18 271 88 374
137 l118 55 -17 -31 c-26 -52 -201 -218 -294 -280 -146 -97 -328 -172 -623
-256 -202 -58 -236 -65 -236 -54 0 5 30 46 68 92 37 46 75 95 85 108 l19 23
-49 -21 c-81 -35 -192 -60 -214 -48 -10 5 -19 12 -19 15 0 33 155 194 275 285
198 152 417 261 637 319 79 20 107 23 132 14z m-8893 -304 c47 -5 146 -28 220
-49 173 -52 198 -57 359 -76 166 -21 342 -64 412 -102 71 -38 152 -115 177
-166 25 -52 27 -126 5 -173 -9 -19 -41 -62 -72 -96 -30 -34 -66 -85 -78 -113
-24 -52 -64 -193 -64 -225 0 -15 -7 -17 -44 -13 -42 5 -108 -9 -132 -28 -8 -7
12 -32 61 -80 74 -71 126 -153 140 -218 l7 -34 -28 21 c-167 127 -313 212
-366 212 -55 0 -238 -31 -336 -56 -89 -23 -232 -87 -232 -104 0 -4 53 -10 118
-13 279 -16 552 -86 725 -188 37 -22 67 -41 67 -43 0 -2 -45 -3 -99 -2 -55 1
-102 -2 -105 -5 -8 -8 -129 -390 -124 -393 1 -1 33 -15 69 -30 97 -40 185 -94
240 -149 47 -47 86 -104 76 -114 -3 -2 -31 9 -63 25 -81 41 -208 85 -366 126
-476 126 -897 154 -1216 82 l-102 -23 -2 156 c-5 276 0 323 42 416 29 64 32
121 16 260 -27 221 -29 211 62 295 100 94 194 160 313 220 150 76 193 130 193
240 1 50 -6 79 -26 123 l-27 58 32 45 c30 43 32 51 32 135 0 72 3 89 15 89 8
0 54 -5 101 -10z m6080 -146 c160 -30 359 -95 594 -194 55 -24 104 -46 109
-51 9 -8 -51 -28 -167 -54 l-77 -17 96 -33 c139 -48 172 -91 87 -114 -131 -37
-406 -37 -614 -2 -177 31 -419 118 -459 166 -35 42 55 67 210 58 84 -5 101 -3
148 17 28 12 52 26 52 30 0 22 -245 103 -430 143 l-65 14 30 12 c94 40 341 53
486 25z m9879 -70 c21 -18 57 -80 110 -191 44 -90 96 -189 116 -220 51 -80
137 -167 220 -224 120 -80 184 -170 220 -302 8 -29 23 -126 34 -217 20 -174
34 -225 113 -415 68 -165 68 -169 14 -283 -26 -54 -57 -135 -71 -182 -13 -47
-28 -85 -32 -85 -22 0 -124 49 -124 59 0 34 55 207 81 257 39 73 38 79 -56
279 -92 197 -94 204 -105 330 -13 155 -31 191 -198 385 -109 126 -133 166
-232 390 -81 183 -129 278 -184 359 -25 38 -46 70 -46 72 0 3 45 9 87 12 12 1
36 -10 53 -24z m-3897 -138 c53 -7 99 -15 101 -17 1 -2 24 -37 50 -78 l47 -73
-35 -195 c-20 -107 -36 -205 -36 -218 0 -36 -16 -38 -42 -6 -13 15 -67 76
-120 135 -157 172 -173 193 -157 212 20 24 85 54 119 54 16 0 30 3 30 6 0 4
-24 46 -54 93 -29 47 -57 92 -61 99 -5 10 1 12 27 7 18 -3 77 -12 131 -19z
m-8416 -217 c76 -17 243 -75 243 -85 0 -2 -18 -13 -40 -24 -55 -28 -108 -77
-142 -129 -15 -25 -28 -48 -28 -52 0 -3 27 -12 59 -18 68 -13 160 -70 203
-124 47 -60 133 -239 151 -314 31 -130 47 -265 54 -443 l6 -175 -70 -115 c-39
-63 -124 -200 -190 -305 -136 -216 -238 -431 -383 -805 -45 -117 -60 -146 -77
-148 -31 -5 -38 55 -19 159 22 118 34 287 41 554 4 127 13 268 21 315 21 124
79 298 121 361 53 81 53 100 -1 199 -114 209 -167 328 -176 391 -5 35 -14 177
-20 314 l-11 251 24 54 c14 30 33 81 43 113 l18 58 45 -7 c25 -3 83 -14 128
-25z m2379 -190 c126 -44 273 -94 327 -110 151 -45 376 -163 354 -186 -13 -12
-154 -9 -232 7 -79 15 -253 100 -461 225 -135 82 -233 145 -223 145 3 0 109
-36 235 -81z m8607 -245 c20 -4 37 -10 37 -14 0 -4 -23 -37 -51 -74 -28 -37
-49 -69 -47 -71 2 -2 35 5 73 16 94 26 279 66 335 72 41 5 43 4 25 -9 -11 -8
-83 -51 -160 -96 -77 -44 -198 -119 -268 -167 -71 -47 -170 -112 -220 -144
-208 -132 -382 -291 -480 -439 -32 -47 -57 -88 -57 -91 0 -3 80 42 178 100
363 216 531 309 667 369 77 34 165 73 195 87 63 29 260 75 358 84 61 5 65 4
47 -10 -60 -44 -592 -346 -666 -378 -110 -48 -150 -73 -265 -165 -97 -77 -277
-244 -271 -251 9 -8 362 128 732 282 164 68 226 85 600 156 335 64 376 70 435
62 l65 -9 -405 -161 -405 -161 215 1 c302 0 479 -25 610 -87 50 -24 52 -26 20
-21 -97 13 -435 17 -550 6 -450 -44 -981 -220 -1348 -448 l-73 -46 -57 60
c-31 32 -106 92 -166 133 -116 79 -166 137 -166 193 0 17 14 73 31 126 26 80
30 108 27 173 -3 66 -7 82 -33 120 -17 24 -53 59 -80 78 -77 55 -152 128 -166
162 l-13 32 90 84 c107 102 289 249 399 324 76 51 86 55 206 77 70 13 169 29
220 36 101 14 321 19 382 9z m-6173 -29 c118 -8 253 -15 300 -15 119 0 380
-49 380 -71 0 -25 -177 -69 -277 -69 -89 0 -423 76 -633 144 l-75 24 45 1 c25
0 142 -6 260 -14z m-6935 -127 c145 -63 439 -231 494 -281 65 -60 151 -212
151 -267 0 -31 -30 -25 -142 32 -87 44 -117 66 -188 138 -47 47 -161 157 -255
244 -223 208 -205 190 -175 181 14 -4 66 -25 115 -47z m10455 -37 c49 -83 119
-237 260 -579 128 -308 246 -553 319 -665 68 -103 118 -204 176 -357 l48 -125
5 -200 c5 -224 -3 -273 -60 -398 -22 -49 -48 -83 -87 -119 -31 -28 -61 -60
-68 -72 -7 -13 -12 -62 -13 -124 l0 -103 -38 -40 c-47 -51 -108 -69 -204 -62
l-67 6 -18 -39 c-20 -42 -66 -78 -122 -95 -66 -20 -314 -23 -446 -5 -105 15
-333 57 -390 73 -37 10 48 -47 120 -81 88 -42 162 -62 300 -81 60 -9 134 -23
164 -33 42 -13 93 -17 202 -17 170 0 173 2 210 91 13 30 26 54 30 54 9 0 19
-38 19 -77 0 -18 5 -33 11 -33 6 0 59 21 117 46 61 27 146 54 200 65 52 10 98
22 103 25 5 3 9 0 9 -6 0 -6 -23 -34 -50 -61 -194 -194 -805 -275 -1308 -174
-332 67 -669 222 -854 393 -60 56 -318 337 -364 397 -62 82 -152 305 -139 346
4 11 25 39 46 60 38 38 38 39 14 39 -14 0 -48 -11 -74 -25 -58 -29 -70 -21
-79 50 -2 25 -9 45 -15 45 -20 0 -77 64 -77 85 0 12 18 50 40 83 48 74 35 81
-50 27 l-55 -34 -23 48 c-12 26 -29 95 -37 152 -25 166 -31 180 -93 209 -63
30 -72 42 -72 96 0 115 70 214 151 214 54 0 83 -17 155 -92 54 -56 63 -71 79
-133 45 -174 135 -396 223 -545 191 -326 375 -538 592 -682 248 -164 691 -308
946 -308 262 1 499 76 622 198 54 54 113 144 101 156 -3 3 -28 0 -55 -8 -27
-8 -76 -19 -109 -26 -33 -6 -70 -13 -81 -15 -20 -5 -21 -2 -13 33 14 59 10
202 -6 291 -30 154 -117 374 -220 553 -39 67 -45 84 -45 135 1 116 57 183 155
183 l50 0 -33 -17 c-20 -9 -41 -31 -50 -51 -16 -32 -16 -35 7 -75 65 -112 160
-309 167 -342 6 -31 10 -36 28 -31 78 23 117 28 152 21 l39 -8 -42 -9 c-23 -5
-56 -22 -72 -37 l-31 -29 25 -59 c37 -92 58 -213 53 -309 -2 -46 -1 -81 3 -78
13 8 95 136 123 192 50 99 58 154 46 314 -6 79 -16 168 -23 198 -12 53 -14 55
-48 58 -20 2 -55 -4 -79 -12 -25 -8 -45 -14 -47 -12 -2 1 13 21 33 44 22 26
50 46 75 53 24 8 39 18 39 28 -1 35 -41 101 -102 169 -67 75 -109 147 -130
226 -12 45 -14 47 -66 62 -29 9 -65 13 -78 10 -22 -6 -24 -5 -15 13 11 20 68
71 79 71 4 0 13 4 21 9 11 7 2 36 -43 149 -38 93 -75 213 -110 354 -30 117
-70 263 -90 324 -20 61 -36 114 -36 119 0 18 34 -23 70 -84z m-3329 -145 c119
-42 256 -88 305 -102 81 -24 290 -121 339 -158 75 -58 -201 -43 -338 18 -119
52 -567 315 -567 332 0 2 10 0 23 -5 12 -5 119 -43 238 -85z m-3018 47 c147
-3 264 -10 260 -14 -11 -10 -213 -75 -308 -98 -276 -67 -407 -78 -520 -43 -78
24 -169 77 -160 92 10 16 73 40 160 61 63 15 104 18 190 14 61 -3 231 -8 378
-12z m-2483 -303 l11 -145 -66 -62 c-55 -53 -62 -63 -43 -63 13 0 29 -4 36 -9
22 -13 -23 -115 -74 -167 -24 -25 -44 -51 -44 -57 0 -6 7 -31 17 -55 15 -41
15 -44 -4 -70 -31 -42 -80 -64 -136 -59 -41 4 -45 2 -35 -11 7 -8 32 -24 56
-34 31 -14 42 -25 42 -41 0 -45 -23 -102 -51 -128 -27 -25 -28 -29 -22 -92 5
-62 4 -68 -32 -134 -21 -37 -74 -125 -117 -195 -82 -132 -132 -245 -195 -438
-20 -63 -42 -118 -48 -122 -5 -4 -29 -8 -52 -8 -50 0 -143 -19 -143 -29 0 -4
19 -12 43 -19 108 -30 127 -67 104 -207 -23 -135 -70 -206 -168 -253 l-60 -29
38 -19 c21 -10 57 -18 81 -18 l42 1 0 -82 c0 -45 -7 -103 -14 -130 -17 -54
-70 -115 -100 -115 -42 0 4 -24 57 -30 l52 -5 13 -55 c18 -78 9 -146 -32 -239
-20 -45 -36 -92 -36 -105 0 -12 15 -37 35 -56 66 -64 55 -142 -30 -228 -60
-60 -56 -68 26 -59 l49 6 0 -117 c0 -64 -7 -164 -16 -222 l-16 -105 31 -78
c17 -43 31 -88 31 -101 0 -13 -13 -49 -28 -80 l-29 -56 34 0 c33 0 72 28 86
61 5 12 8 11 17 -3 25 -40 63 -78 105 -106 45 -30 45 -30 22 -44 -38 -25 -115
-50 -174 -58 l-58 -7 46 -21 c98 -46 218 -52 332 -18 47 14 48 14 41 -7 -30
-98 -104 -301 -113 -310 -5 -5 -44 -12 -85 -15 -97 -6 -190 21 -265 79 l-54
41 6 -52 c8 -68 52 -159 115 -240 28 -35 49 -66 47 -68 -8 -9 -72 20 -133 60
-73 47 -109 96 -150 199 -55 136 -111 409 -131 634 -20 210 -32 632 -29 940 3
290 5 318 30 437 15 70 49 196 76 280 62 190 82 304 82 472 0 75 6 160 15 199
29 136 128 279 288 415 111 94 150 138 186 210 55 108 64 166 58 362 -5 192 0
225 47 281 78 92 115 224 123 442 l6 147 71 73 c39 39 91 102 116 138 l45 67
7 -62 c3 -33 12 -126 18 -206z m-549 -142 c-10 -194 -16 -215 -89 -317 -71
-97 -77 -128 -77 -371 0 -204 -1 -218 -24 -267 -13 -29 -37 -63 -55 -76 -113
-88 -246 -225 -318 -330 l-39 -58 -48 93 c-43 86 -46 95 -34 120 30 63 175
193 282 255 7 4 -41 205 -74 310 l-34 108 58 -63 c32 -34 76 -95 97 -135 37
-71 38 -72 45 -42 5 17 12 111 17 210 10 209 14 223 103 320 72 80 74 84 99
192 19 80 86 241 96 231 2 -3 0 -84 -5 -180z m-882 72 c45 -33 122 -96 171
-140 72 -65 95 -94 124 -151 21 -42 36 -86 36 -108 l0 -35 -76 74 c-42 41 -90
95 -107 120 -28 40 -173 213 -246 294 -22 25 -23 27 -5 18 12 -6 58 -38 103
-72z m-547 -99 c90 -23 215 -84 284 -139 55 -43 242 -247 346 -377 67 -83 163
-223 214 -310 l29 -50 -31 25 c-17 14 -111 96 -209 183 -201 178 -283 245
-413 335 -97 68 -358 325 -347 342 9 15 43 12 127 -9z m-987 -444 c81 -11 90
-14 87 -32 -4 -30 21 -104 50 -150 24 -38 28 -41 100 -52 185 -29 456 -144
538 -228 24 -25 42 -47 39 -49 -3 -3 -35 6 -72 20 -78 28 -293 69 -416 80
l-84 7 6 -24 c47 -192 -37 -386 -228 -527 -33 -24 -59 -46 -58 -49 1 -3 37
-20 80 -37 142 -57 249 -132 301 -212 18 -26 32 -51 32 -55 0 -4 -42 4 -92 18
-396 107 -505 125 -635 105 -83 -13 -186 -57 -219 -93 -19 -21 -18 -21 11 -41
17 -12 62 -54 101 -94 131 -132 191 -296 181 -489 l-5 -103 62 -6 c113 -13
221 -44 326 -95 134 -66 160 -67 228 -6 28 25 74 77 102 115 29 39 54 70 57
70 3 0 3 -21 -1 -46 -14 -105 -139 -269 -224 -294 -38 -12 -46 -11 -99 13
-160 72 -311 104 -526 112 l-142 6 65 -27 c36 -15 66 -28 68 -29 1 -1 -9 -67
-23 -145 -14 -79 -24 -144 -22 -145 1 -1 50 -27 109 -57 203 -105 355 -226
434 -345 32 -48 74 -153 74 -184 0 -5 -53 38 -117 97 -226 204 -415 301 -623
320 l-65 5 124 -66 c199 -106 252 -151 325 -280 87 -151 110 -274 69 -365 -11
-25 -29 -53 -40 -62 -19 -17 -23 -17 -107 12 -116 39 -282 75 -436 96 -147 19
-377 15 -535 -11 -55 -9 -158 -25 -230 -35 -128 -19 -210 -41 -274 -75 -18 -9
-35 -14 -38 -12 -2 3 1 41 8 84 8 48 11 133 8 223 -2 80 -4 352 -4 605 0 666
3 680 205 1195 125 318 183 494 206 623 48 269 101 408 194 510 104 114 293
183 600 221 62 8 432 -4 525 -17z m4174 -216 c0 -237 -17 -283 -92 -248 -19 9
-47 17 -61 17 -24 0 -26 -3 -19 -27 5 -16 8 -91 8 -168 0 -138 -1 -141 -33
-210 -18 -38 -47 -85 -64 -102 -22 -23 -37 -53 -49 -100 -9 -38 -21 -68 -25
-68 -5 1 -31 5 -57 9 -26 5 -50 7 -52 4 -2 -2 5 -33 16 -68 32 -100 24 -141
-59 -300 -100 -192 -110 -230 -123 -423 -5 -89 -14 -187 -19 -217 -4 -30 -7
-57 -5 -58 7 -7 75 146 104 233 16 50 37 130 45 178 20 114 35 145 150 326 53
82 119 197 146 255 36 78 62 118 97 151 25 25 50 45 55 45 4 0 -4 -26 -18 -57
-253 -561 -378 -941 -519 -1571 -24 -107 -45 -195 -47 -198 -2 -2 -28 5 -56
16 -29 11 -63 20 -75 20 -23 0 -23 -1 14 -74 21 -43 42 -104 50 -146 11 -66
11 -83 -7 -169 l-20 -96 -87 2 c-96 2 -97 0 -41 -49 35 -31 74 -119 74 -166 0
-46 -43 -222 -54 -222 -6 0 -30 -9 -54 -20 l-43 -19 17 -33 c10 -18 23 -56 30
-85 11 -49 9 -62 -39 -255 l-50 -203 -73 -105 c-40 -58 -104 -147 -142 -199
-61 -83 -74 -107 -103 -204 -38 -126 -66 -172 -149 -250 -70 -65 -74 -84 -34
-171 24 -54 26 -65 22 -174 -3 -102 -7 -123 -30 -167 -28 -54 -73 -105 -126
-146 l-34 -26 32 -26 c19 -16 44 -27 61 -27 36 0 35 -9 -12 -108 -37 -76 -111
-153 -173 -178 -49 -20 -53 -29 -35 -79 11 -29 8 -38 -22 -96 -32 -59 -87
-123 -152 -176 -26 -20 -27 -27 -26 -96 2 -82 -7 -105 -69 -183 -53 -67 -108
-103 -189 -123 -62 -15 -70 -20 -105 -66 -44 -58 -103 -89 -203 -105 -103 -16
-235 19 -337 92 -38 26 -37 4 1 -48 40 -54 68 -79 127 -108 104 -52 253 -52
376 0 34 14 92 32 129 40 37 8 75 17 85 20 21 7 -52 -62 -108 -102 -138 -97
-397 -111 -558 -29 -108 55 -172 144 -205 285 l-18 75 37 37 c20 20 36 40 36
45 0 5 -18 17 -40 27 -23 10 -47 27 -55 39 -8 12 -24 88 -35 169 l-22 148 21
29 c38 54 37 83 -5 152 l-39 62 0 266 c0 464 18 533 298 1146 152 333 168 365
180 365 20 0 104 -97 130 -151 15 -30 34 -85 44 -122 l18 -68 -28 -82 c-16
-45 -71 -181 -122 -302 -155 -363 -185 -513 -155 -765 34 -276 145 -473 315
-561 l64 -34 -22 -39 c-53 -95 -158 -99 -275 -9 -34 25 -34 25 -22 2 23 -42
101 -118 144 -139 106 -51 231 -1 332 133 119 158 213 368 255 570 53 255 120
452 340 1004 239 598 345 900 408 1154 40 163 58 284 71 489 28 437 142 932
364 1585 126 371 174 494 230 584 65 106 103 179 126 246 10 28 52 105 93 171
73 117 100 169 128 244 8 19 29 52 48 73 33 36 35 43 33 98 -3 71 13 109 71
175 61 69 67 54 66 -165z m1034 84 c40 -19 80 -64 92 -103 7 -23 7 -23 -35 4
-123 81 -284 8 -298 -136 -2 -28 -8 -50 -11 -50 -14 0 -41 72 -41 108 1 144
160 240 293 177z m812 -240 c40 -85 55 -152 55 -249 0 -282 -205 -534 -480
-592 -74 -15 -180 -13 -208 5 -8 5 10 17 52 35 97 41 205 117 278 195 177 187
243 418 202 706 l-6 40 37 -35 c20 -19 51 -66 70 -105z m9048 50 c47 -8 111
-24 141 -35 52 -20 56 -24 77 -78 21 -57 69 -268 69 -308 0 -33 -76 -142 -158
-226 -42 -43 -72 -78 -69 -78 35 0 335 112 537 199 l94 41 -34 -36 c-19 -19
-114 -89 -210 -154 -369 -251 -559 -466 -605 -685 -19 -91 -19 -260 0 -369 15
-85 66 -258 90 -306 30 -60 29 -67 -14 -73 -44 -6 -155 -53 -172 -73 -9 -11
-5 -14 22 -14 57 0 210 -30 289 -56 96 -32 173 -77 227 -131 53 -53 55 -68 6
-48 -71 28 -168 45 -255 45 -47 0 -93 -3 -102 -6 -22 -8 -22 -129 0 -247 13
-73 20 -90 38 -97 11 -4 80 -15 151 -25 242 -32 474 -103 630 -194 58 -33 188
-149 206 -183 6 -12 -19 -4 -84 27 -434 202 -1044 277 -1501 184 -218 -44
-420 -129 -544 -229 -34 -27 -64 -50 -67 -50 -9 0 -5 128 6 253 10 104 18 139
56 237 59 152 119 359 144 495 12 68 23 194 29 332 6 122 15 254 20 294 6 40
9 74 6 76 -8 9 -69 -76 -101 -142 -19 -38 -46 -119 -60 -180 -14 -60 -40 -156
-57 -212 -30 -99 -48 -129 -48 -80 0 12 -25 121 -54 242 -69 277 -73 301 -91
591 -17 259 -28 364 -51 462 -19 87 -17 128 10 194 42 101 107 180 215 259
190 139 430 263 686 355 l120 43 161 0 c101 1 194 -5 247 -14z m-6119 -97 c8
-13 18 -36 22 -53 10 -44 43 -106 71 -137 24 -25 25 -32 24 -131 -2 -85 2
-115 20 -168 30 -86 29 -170 -5 -274 -35 -110 -34 -154 9 -243 39 -83 65 -163
65 -205 0 -42 -45 -82 -107 -95 -67 -15 -114 -1 -166 47 l-41 38 -26 169 -27
169 31 16 c17 10 39 26 50 38 18 20 18 21 -12 55 -31 36 -47 84 -40 127 2 20
10 25 44 29 22 3 61 18 87 33 56 33 63 62 16 72 -47 10 -96 60 -118 119 -35
94 -52 198 -41 255 23 124 104 201 144 139z m-2124 -96 c317 -196 452 -358
575 -692 24 -63 73 -187 110 -275 60 -145 233 -674 251 -771 l7 -39 -59 49
c-86 72 -188 170 -265 254 -115 125 -168 260 -229 577 -78 408 -148 550 -399
810 -75 77 -147 153 -161 169 l-25 28 45 -22 c25 -13 92 -52 150 -88z m-3845
-34 c-11 -223 -23 -304 -81 -542 -77 -319 -97 -457 -98 -691 -1 -107 5 -246
13 -319 19 -167 10 -219 -62 -373 -98 -209 -102 -225 -101 -408 0 -148 3 -169
32 -278 l32 -119 -53 -59 c-30 -32 -70 -91 -90 -129 l-36 -71 -26 52 c-58 113
-60 142 -60 864 0 705 9 876 56 1108 47 235 148 509 238 647 35 52 101 175
149 272 48 97 89 177 91 177 2 1 0 -59 -4 -131z m2265 18 c0 -76 -78 -265
-171 -410 -21 -34 -102 -124 -180 -201 -125 -123 -255 -268 -384 -429 -35 -43
-40 -56 -46 -121 -5 -49 -19 -100 -41 -152 -33 -77 -34 -78 -78 -87 -25 -5
-46 -10 -47 -10 -1 -1 4 -20 12 -41 28 -78 21 -110 -55 -248 -139 -255 -175
-310 -218 -335 -41 -23 -96 -29 -121 -13 -15 10 -9 42 66 321 32 121 50 163
170 400 75 146 167 325 207 398 68 127 73 133 111 143 84 21 106 32 121 54 14
21 14 32 1 102 l-15 78 64 111 c42 73 79 124 107 147 76 62 170 117 234 137
91 28 100 34 149 110 45 71 54 78 92 79 19 1 22 -4 22 -33z m946 -173 c47
-147 0 -356 -103 -455 -59 -57 -139 -89 -236 -95 l-82 -4 66 34 c36 19 85 49
109 68 54 43 124 141 155 216 28 70 55 195 55 258 0 59 12 51 36 -22z m-4614
-205 c69 -142 107 -315 115 -525 7 -168 0 -211 -67 -418 -26 -83 -55 -191 -64
-240 -24 -128 -40 -182 -106 -340 -68 -167 -105 -277 -121 -365 -30 -165 -60
-283 -89 -353 -17 -42 -85 -158 -152 -259 -191 -291 -212 -344 -228 -576 -9
-132 -34 -266 -59 -310 -5 -9 -22 12 -54 69 l-47 83 15 80 c9 45 20 135 25
201 5 73 17 146 30 185 28 85 36 215 20 321 -13 94 -67 279 -111 383 -16 39
-27 71 -25 73 6 7 134 -118 175 -171 23 -30 57 -82 75 -116 l33 -61 19 43 c10
23 43 77 73 118 104 145 131 201 145 305 17 125 67 304 131 465 44 113 45 117
45 232 0 114 -22 278 -54 398 l-15 55 45 -49 c24 -26 61 -77 82 -112 37 -61
52 -71 52 -33 0 9 20 85 45 167 40 132 45 160 45 245 0 186 -42 417 -113 622
l-35 100 67 -72 c43 -46 80 -98 103 -145z m10103 97 c87 -187 135 -355 135
-473 0 -63 -23 -153 -43 -170 -7 -6 -50 -12 -97 -14 l-85 -3 -7 75 c-5 41 -17
130 -29 198 -18 106 -19 132 -9 190 16 94 72 292 82 292 5 0 29 -43 53 -95z
m5088 -185 c0 -179 -14 -309 -84 -746 -27 -171 -53 -353 -59 -405 -5 -52 -10
-292 -10 -534 0 -458 -9 -662 -35 -787 -21 -100 -74 -205 -131 -258 l-46 -42
-31 30 -30 31 26 61 c88 202 109 476 78 1029 -19 342 -2 634 53 923 l23 117
-75 17 c-40 9 -117 19 -170 23 l-97 7 62 32 c79 40 209 78 302 88 l71 7 15 51
c23 76 61 274 79 416 9 69 19 141 23 160 l6 35 14 -50 c10 -34 15 -99 16 -205z
m-399 118 c-25 -44 -120 -149 -184 -204 -99 -86 -213 -163 -390 -264 -161 -92
-265 -162 -279 -188 -15 -28 -41 -179 -41 -236 0 -70 21 -88 130 -116 128 -33
211 -80 305 -174 44 -45 93 -105 109 -135 l29 -55 -60 47 c-139 107 -263 158
-422 176 -147 16 -220 64 -256 170 -30 88 -10 302 36 398 46 95 168 173 489
313 189 82 387 182 475 239 69 45 69 45 59 29z m-11131 -529 c253 -39 448
-214 514 -460 24 -93 22 -233 -6 -334 -88 -315 -376 -535 -700 -535 -162 0
-303 51 -415 152 -49 43 -126 143 -126 162 0 3 30 -18 68 -46 264 -201 612
-179 843 52 91 90 142 187 167 312 31 157 -12 324 -116 455 -83 104 -235 187
-390 213 -40 7 -71 14 -69 16 4 4 104 20 140 23 10 0 51 -4 90 -10z m4691
-330 c31 -36 32 -55 7 -175 -23 -113 -34 -132 -121 -234 -39 -46 -90 -109
-113 -141 -22 -33 -44 -59 -47 -59 -4 0 -24 61 -44 136 -43 154 -43 162 10
271 27 58 47 83 90 117 54 42 172 116 185 116 4 0 19 -14 33 -31z m-4869 -58
c46 -21 79 -54 94 -93 6 -16 9 -28 8 -28 -1 0 -24 11 -51 25 -131 66 -267 -4
-285 -147 l-7 -53 -18 27 c-41 62 -30 150 27 215 61 69 153 91 232 54z m904
-159 c40 -79 54 -159 48 -287 -5 -131 -32 -234 -85 -330 -51 -93 -216 -198
-382 -244 -73 -21 -180 -28 -180 -13 0 4 31 20 69 35 238 96 396 292 472 585
11 42 23 125 26 185 3 59 7 107 9 107 2 0 12 -17 23 -38z m9415 -278 c67 -19
146 -48 176 -63 109 -54 345 -219 421 -292 72 -71 174 -197 165 -206 -2 -2
-46 24 -97 57 -120 78 -307 170 -429 211 -130 43 -178 69 -248 133 -68 63
-146 196 -115 196 3 0 61 -16 127 -36z m-4918 -146 c-3 -29 -8 -147 -12 -263
-6 -193 -4 -217 15 -292 23 -88 41 -232 41 -330 0 -48 -3 -63 -14 -63 -30 0
-132 108 -167 177 -34 68 -34 68 -33 203 1 148 17 245 64 384 36 106 93 236
103 236 5 0 6 -24 3 -52z m-1345 -104 c6 -3 24 -27 40 -52 33 -52 37 -94 13
-162 -10 -30 -13 -59 -9 -93 10 -72 76 -194 142 -266 l58 -62 37 27 c43 31
110 41 162 24 36 -12 49 -30 21 -30 -31 0 -68 -26 -86 -61 -19 -37 -19 -38 1
-85 23 -52 101 -174 125 -194 11 -9 25 -8 66 5 53 18 142 15 178 -5 19 -10 10
-14 -49 -24 -82 -14 -99 -56 -54 -129 34 -54 39 -57 97 -57 55 0 173 -25 226
-48 l36 -15 -38 -11 c-46 -14 -96 -53 -121 -96 -18 -32 -18 -32 2 -21 28 15
116 14 177 -3 103 -27 165 -73 165 -121 0 -12 7 -45 16 -75 39 -131 260 -266
476 -290 51 -5 101 -20 166 -49 52 -23 155 -61 230 -84 l137 -42 225 0 c205 0
232 2 304 23 117 34 181 69 237 130 52 57 67 88 22 45 -65 -61 -215 -100 -338
-88 -110 11 -205 28 -205 36 0 4 13 31 29 58 67 113 138 303 172 461 30 138
37 468 14 640 -34 249 -34 242 16 306 85 111 187 166 265 145 52 -14 105 -50
121 -81 18 -36 16 -99 -6 -145 -16 -37 -26 -44 -92 -69 -41 -16 -78 -32 -82
-36 -4 -4 16 -10 46 -13 29 -3 71 -13 93 -22 l39 -16 -32 -29 -33 -30 30 -15
c16 -8 41 -31 56 -50 l26 -35 -46 -51 c-47 -52 -57 -73 -31 -63 25 10 72 -48
91 -112 26 -86 24 -235 -3 -295 -11 -26 -26 -50 -32 -53 -21 -13 -11 -59 27
-120 21 -34 44 -76 50 -95 26 -76 6 -209 -46 -304 -30 -55 -113 -123 -242
-198 -41 -23 -76 -43 -78 -44 -1 -1 6 -26 16 -56 11 -30 22 -74 25 -98 l6 -44
-75 81 c-66 72 -139 131 -149 121 -1 -2 10 -42 26 -89 16 -47 29 -102 29 -123
l0 -38 -32 24 c-80 60 -89 62 -285 62 l-181 1 -64 33 c-50 26 -83 35 -158 43
-83 9 -130 22 -229 65 -23 10 13 -48 58 -94 55 -57 83 -70 229 -103 153 -35
231 -61 381 -130 104 -47 219 -88 296 -106 l30 -7 -45 -14 c-223 -67 -483 -68
-683 -2 -95 31 -217 95 -300 158 -173 129 -601 554 -887 881 -206 236 -453
555 -585 759 -163 252 -229 398 -290 640 -43 173 -75 308 -75 317 0 2 27 -27
60 -65 33 -38 65 -73 71 -77z m-205 -756 c10 -15 -85 -102 -145 -132 -115 -59
-229 -69 -448 -41 -140 19 -274 51 -398 97 l-90 33 280 7 c216 6 301 12 370
27 108 22 419 29 431 9z m6023 -320 c22 -65 42 -185 34 -204 -3 -7 27 -13 85
-18 148 -11 301 -65 355 -124 16 -18 12 -18 -111 -18 -134 -1 -272 -19 -284
-38 -4 -6 -8 -56 -8 -111 0 -81 4 -108 20 -140 11 -22 20 -46 20 -55 0 -19
-49 -98 -65 -103 -5 -2 -59 5 -120 15 -90 16 -141 18 -285 15 -180 -5 -258
-17 -398 -62 -49 -15 -74 -19 -79 -12 -15 24 -6 123 15 163 29 57 103 119 171
144 178 67 255 142 189 184 -34 20 -69 27 -204 35 -106 7 -129 12 -168 35 -25
14 -48 31 -51 37 -11 16 41 85 97 130 143 114 394 186 655 188 l111 1 21 -62z
m-7974 27 c209 -14 428 -25 486 -25 59 0 146 -7 195 -15 127 -21 300 -65 321
-80 16 -12 13 -16 -37 -38 -79 -35 -189 -58 -310 -64 -116 -6 -234 14 -566 96
-126 32 -450 126 -499 145 -20 8 36 6 410 -19z m-7575 -77 c69 -11 133 -24
143 -30 27 -14 77 -98 84 -140 3 -21 9 -38 13 -38 15 0 108 -79 133 -112 14
-18 28 -45 32 -59 l6 -26 -75 38 c-105 52 -202 72 -331 67 -58 -2 -109 -8
-115 -14 -8 -8 22 -26 107 -64 65 -29 125 -59 134 -67 29 -25 70 -112 75 -160
8 -72 -1 -78 -75 -48 -85 35 -207 63 -330 75 -240 25 -572 -47 -753 -163 l-56
-35 -5 181 c-5 202 -14 244 -71 339 l-34 58 51 45 c64 56 153 102 215 110 26
4 119 18 207 32 289 45 421 48 645 11z m4405 -64 c31 -19 55 -38 53 -42 -37
-69 -51 -114 -55 -181 l-5 -76 518 -222 c941 -403 1034 -432 1899 -578 499
-84 763 -149 962 -235 78 -34 72 -36 -41 -15 -142 26 -309 44 -680 75 -428 36
-581 53 -776 86 -380 64 -678 166 -1110 380 -241 119 -357 185 -538 306 -74
48 -132 85 -130 81 2 -5 20 -41 41 -80 20 -40 35 -73 32 -73 -3 0 -32 11 -64
24 -32 14 -81 28 -109 32 -53 7 -122 -1 -122 -14 0 -4 26 -20 58 -36 159 -78
327 -218 376 -313 33 -66 34 -87 4 -77 -96 29 -306 140 -408 214 -36 26 -91
64 -123 86 -47 30 -57 42 -53 58 3 12 31 129 62 261 52 221 61 245 100 308 24
37 46 67 49 67 2 0 30 -16 60 -36z m5425 -14 c0 -23 -75 -90 -138 -123 -121
-63 -256 -89 -545 -107 -98 -6 -192 -13 -209 -17 -28 -5 -29 -4 -20 14 20 37
99 101 163 131 128 61 290 91 499 93 63 0 138 4 165 9 73 11 85 11 85 0z
m6985 -290 c35 -48 37 -55 33 -109 -3 -38 -14 -77 -32 -112 -98 -187 -90 -160
-94 -319 -4 -165 -10 -180 -72 -180 l-37 0 5 78 c8 156 -54 328 -163 450 -46
50 -53 63 -40 68 31 12 128 -5 184 -33 30 -15 59 -29 63 -31 9 -4 59 95 88
176 12 34 24 62 25 62 2 0 20 -23 40 -50z m-15927 -412 c23 -11 57 -38 74 -59
17 -21 37 -39 44 -39 7 0 42 15 78 34 l65 34 21 -53 c12 -30 20 -62 18 -72 -2
-11 -36 -35 -83 -61 -91 -49 -145 -97 -170 -153 -10 -21 -21 -39 -25 -39 -12
0 -30 101 -30 171 0 90 -25 154 -100 250 l-20 27 42 -10 c24 -5 62 -18 86 -30z
m-1078 12 c47 -6 119 -20 160 -31 88 -24 314 -132 384 -185 l50 -37 -76 -27
c-145 -51 -249 -134 -310 -246 -45 -84 -45 -85 52 -105 143 -32 271 -103 306
-172 15 -28 15 -30 -2 -22 -160 67 -295 89 -479 81 -145 -6 -205 -14 -205 -25
0 -3 23 -19 51 -36 28 -16 81 -62 119 -101 108 -114 147 -220 137 -375 l-5
-86 41 -20 c64 -31 150 -105 202 -175 l47 -63 102 -1 c113 -1 173 -17 244 -66
38 -26 107 -106 99 -114 -2 -2 -25 3 -52 11 -57 18 -164 19 -252 4 -53 -9 -63
-14 -57 -28 19 -45 56 -177 74 -261 11 -52 22 -105 25 -116 4 -18 12 -22 45
-22 51 -1 98 -27 128 -73 l23 -34 -32 -9 c-42 -13 -109 -77 -109 -104 0 -32
57 -168 97 -236 50 -82 126 -170 183 -213 41 -30 47 -39 39 -55 -27 -51 -170
5 -272 106 -103 104 -135 179 -231 541 -67 256 -96 346 -146 451 -51 107 -113
175 -198 216 -60 30 -75 33 -157 33 -79 0 -96 -4 -140 -27 -27 -15 -60 -36
-73 -46 l-24 -18 44 -13 c57 -17 105 -43 148 -79 l34 -29 -52 -53 c-72 -73
-128 -188 -150 -307 l-16 -91 -38 81 c-25 52 -42 77 -48 71 -12 -12 -50 -158
-50 -190 0 -16 -11 -28 -44 -44 -86 -41 -152 -142 -175 -265 -14 -74 -14 -272
-1 -280 6 -3 10 -2 10 4 0 6 14 26 30 45 34 38 88 61 120 51 19 -6 19 -8 3
-38 -10 -21 -18 -66 -21 -129 l-5 -96 71 -86 c39 -47 112 -144 163 -217 l92
-131 19 38 c10 20 26 46 35 57 39 43 123 66 108 30 -27 -65 -31 -148 -14 -236
11 -54 15 -60 78 -106 36 -27 82 -59 101 -71 l35 -22 -74 6 c-83 7 -203 44
-259 80 -54 35 -99 86 -196 223 -170 240 -289 368 -440 472 -78 54 -195 110
-229 111 -24 0 -16 -33 30 -128 26 -56 59 -99 135 -179 121 -128 167 -189 270
-363 107 -178 132 -216 187 -273 86 -91 221 -167 349 -197 30 -7 50 -16 45
-21 -4 -4 -49 -13 -99 -20 -119 -16 -210 -2 -314 48 -68 32 -98 59 -320 278
-135 133 -263 255 -285 272 -56 42 -135 87 -142 80 -7 -8 49 -127 86 -181 17
-25 63 -82 101 -128 64 -75 69 -84 53 -95 -34 -26 -62 -14 -161 66 -108 89
-160 148 -202 232 -24 46 -60 158 -60 184 0 4 21 4 46 0 l46 -6 -42 61 c-23
34 -56 91 -73 128 -30 64 -32 73 -31 182 1 63 5 178 9 255 7 128 5 153 -19
282 -14 79 -26 155 -26 169 0 29 22 76 101 214 108 188 127 252 199 665 52
295 84 426 145 586 75 197 134 377 150 462 17 90 36 122 108 178 71 56 133 86
241 114 152 41 272 51 406 35z m15658 -171 c34 -6 62 -16 62 -21 0 -6 -45 -57
-100 -113 l-100 -101 26 -25 c31 -28 63 -94 64 -129 0 -80 -65 -172 -158 -223
-79 -43 -224 -80 -293 -75 -50 4 -65 9 -91 35 -55 55 -46 162 27 321 19 39 32
72 30 72 -17 0 -204 -89 -273 -131 -92 -55 -216 -144 -245 -177 -17 -19 -17
-20 20 -26 108 -17 241 -122 278 -218 15 -39 22 -45 85 -71 175 -71 286 -202
336 -397 20 -76 23 -235 11 -535 -13 -323 -32 -420 -124 -615 -25 -52 -67
-147 -95 -210 -28 -63 -68 -150 -89 -192 -23 -46 -39 -92 -39 -112 0 -36 18
-86 30 -86 4 0 49 57 101 128 107 144 214 272 268 318 40 34 98 67 110 62 16
-6 -202 -376 -370 -628 -108 -162 -188 -298 -339 -570 -96 -175 -158 -260
-187 -260 -21 0 -50 57 -65 129 -21 104 -15 373 10 496 28 133 84 327 181 631
44 138 85 282 91 320 18 114 -5 304 -71 579 -23 94 -44 175 -48 181 -4 7 -46
-17 -114 -65 -83 -58 -120 -93 -161 -148 -101 -135 -209 -348 -287 -566 -50
-137 -71 -179 -121 -233 -72 -78 -160 -82 -174 -8 -20 106 11 281 100 569 43
140 58 233 96 590 48 458 84 594 203 770 56 82 227 256 378 385 158 134 233
188 335 240 128 65 240 97 439 124 42 6 188 -3 263 -15z m-12726 -198 l37 -12
-31 -50 c-46 -76 -93 -195 -128 -326 -62 -230 -99 -330 -196 -535 -114 -239
-112 -238 -121 -22 -8 190 10 261 135 544 63 144 122 295 153 397 l20 63 47
-24 c26 -13 64 -29 84 -35z m13772 -160 l37 -38 14 -144 c25 -262 38 -552 32
-714 -3 -88 -22 -334 -41 -546 -20 -212 -40 -491 -45 -620 -12 -278 -17 -302
-149 -709 -103 -315 -116 -369 -137 -575 -24 -229 -54 -335 -94 -335 -37 0
-73 63 -95 170 -17 86 -12 124 48 352 19 73 40 160 46 193 7 33 37 139 67 235
147 468 169 612 153 1021 -5 129 -10 234 -10 234 -89 0 -158 5 -205 15 -67 13
-261 86 -270 101 -4 5 26 9 72 9 126 0 408 54 440 84 23 22 36 298 23 503 -6
104 -15 206 -18 227 l-7 40 -70 12 c-134 22 -303 97 -393 173 l-33 28 164 -5
c90 -2 202 -1 250 3 81 6 88 9 101 33 17 36 42 131 56 220 7 39 15 72 19 72 4
0 24 -17 45 -39z m-12518 -133 c109 -40 207 -131 256 -239 13 -27 29 -49 36
-49 32 0 224 -84 300 -131 93 -57 198 -151 244 -217 l30 -44 -28 6 c-93 19
-184 28 -294 28 -165 2 -258 -20 -317 -75 l-23 -20 63 -43 c84 -57 176 -154
230 -242 41 -66 92 -203 114 -306 8 -38 9 -39 83 -58 173 -45 321 -142 356
-234 9 -25 15 -47 12 -50 -3 -3 -47 -1 -98 4 -102 11 -217 1 -290 -23 -46 -15
-146 -73 -139 -79 2 -2 67 -22 143 -45 447 -134 744 -303 850 -484 26 -43 49
-107 43 -114 -2 -2 -51 21 -108 51 -126 66 -224 105 -372 150 -114 35 -347 90
-353 84 -1 -2 -10 -39 -19 -83 -29 -140 -123 -364 -222 -528 -19 -32 -34 -59
-32 -61 2 -1 45 -19 94 -40 268 -113 538 -277 734 -447 69 -59 211 -215 211
-231 0 -4 -52 18 -115 48 -153 72 -426 190 -725 312 -135 55 -355 148 -490
207 -292 128 -355 153 -525 211 -273 94 -485 134 -707 134 -212 0 -398 -39
-549 -115 -28 -15 -53 -24 -56 -21 -10 10 27 94 67 154 69 103 156 189 230
228 98 51 243 176 350 302 80 93 101 111 154 134 116 51 208 68 402 78 237 12
342 36 413 96 45 37 41 83 -10 109 -15 8 -67 24 -115 35 -117 28 -164 50 -225
107 -56 53 -83 98 -99 167 -20 92 -10 101 235 206 61 26 151 68 200 94 l90 47
-127 -6 c-70 -3 -180 -14 -244 -25 -65 -11 -119 -18 -121 -16 -2 2 5 39 16 82
11 44 31 141 46 218 14 76 37 174 51 217 l25 79 202 -1 c111 0 276 -6 367 -13
91 -7 166 -12 168 -11 6 5 -169 86 -255 119 -98 38 -325 96 -374 96 -21 0 -30
4 -26 13 2 6 31 69 63 140 l58 127 35 -6 c20 -4 59 -15 87 -26z m1310 -362
c231 -58 379 -105 584 -188 174 -71 414 -189 482 -238 61 -43 415 -418 468
-495 31 -45 31 -45 8 -45 -45 0 -205 38 -265 62 -100 41 -200 109 -345 236
-75 66 -161 138 -192 161 -111 82 -365 228 -806 461 -96 51 -177 94 -179 96
-13 11 48 -1 245 -50z m6334 -205 c53 -20 130 -74 120 -84 -3 -2 -57 0 -120 5
-183 16 -363 14 -488 -6 -63 -10 -116 -16 -118 -13 -5 5 111 51 186 73 94 28
252 54 310 50 30 -2 80 -13 110 -25z m898 -721 c238 -471 337 -685 487 -1045
135 -325 303 -771 293 -780 -1 -2 -40 29 -85 69 -46 40 -98 84 -118 97 -25 18
-45 47 -74 109 -47 103 -117 293 -167 455 -62 198 -300 641 -378 700 -91 69
-338 148 -550 176 -121 16 -105 23 91 41 124 11 313 3 363 -17 10 -3 -7 41
-45 117 -33 68 -75 168 -94 223 -19 56 -43 108 -55 119 -36 33 -163 86 -274
115 -95 26 -104 30 -77 37 40 10 213 11 299 1 68 -8 69 -8 62 15 -13 48 -29
235 -22 263 7 27 12 18 59 -100 28 -71 156 -339 285 -595z m-2083 585 c48 -14
99 -32 113 -39 l26 -14 -49 -32 c-105 -66 -347 -170 -481 -205 -31 -8 -120
-24 -198 -36 -205 -30 -746 -154 -1000 -228 -38 -12 -71 -19 -73 -18 -3 3 113
80 242 161 119 74 309 162 606 279 367 146 398 153 615 156 92 1 127 -3 199
-24z m-4555 -665 c102 -16 250 -39 330 -50 81 -12 184 -34 235 -51 112 -38
308 -130 298 -140 -16 -16 -249 -41 -333 -36 -84 4 -207 42 -985 300 -50 17
-49 17 110 11 102 -3 227 -16 345 -34z m2542 -65 c-29 -21 -270 -131 -405
-186 -88 -35 -104 -45 -90 -53 22 -13 610 -12 736 1 48 5 87 8 87 7 0 -1 -22
-16 -50 -33 -68 -42 -124 -100 -157 -163 -25 -48 -28 -62 -27 -153 0 -85 5
-113 31 -187 17 -48 45 -110 63 -138 l32 -50 29 24 c40 34 122 63 204 71 l70
8 -52 -55 c-28 -30 -68 -88 -88 -129 -37 -73 -38 -75 -32 -164 5 -81 27 -182
57 -260 l11 -28 37 63 c45 76 147 181 228 235 60 40 200 98 264 108 l35 6 -25
-17 c-111 -76 -204 -216 -264 -396 -54 -161 -22 -216 126 -216 122 0 287 48
530 154 358 156 734 251 1038 261 74 3 131 3 125 1 -5 -3 -78 -23 -161 -45
-601 -161 -1039 -363 -1315 -604 -97 -84 -290 -292 -357 -382 -82 -111 -146
-261 -188 -439 -16 -70 -19 -75 -26 -50 -5 16 -13 108 -18 204 -17 315 -99
650 -214 878 -34 67 -43 106 -65 288 -29 235 -54 318 -123 406 -49 62 -87 205
-103 388 l-6 66 -62 41 c-185 123 -374 177 -622 176 -154 -1 -277 -21 -427
-71 l-83 -27 -32 -65 c-44 -88 -63 -168 -63 -266 0 -92 2 -88 -113 -214 -37
-41 -83 -104 -100 -140 -34 -69 -35 -76 -27 -310 2 -74 -2 -112 -18 -173 -29
-101 -135 -386 -219 -585 -77 -182 -283 -594 -299 -599 -7 -2 -17 10 -23 28
-6 18 -31 67 -56 110 l-45 79 36 47 c57 75 109 188 239 523 191 490 180 447
180 695 1 207 1 211 28 269 21 45 55 87 143 175 64 64 127 134 140 156 42 72
58 164 58 343 l1 162 45 -7 c25 -5 155 -8 290 -7 241 1 246 1 295 26 99 51
179 78 333 113 86 20 227 53 312 75 180 45 181 45 152 25z m-8291 -590 c51
-147 122 -267 198 -339 17 -17 31 -33 31 -36 0 -3 -37 -2 -82 2 -96 10 -167
40 -218 93 l-34 35 11 89 c11 83 51 256 59 249 2 -2 17 -44 35 -93z m15550
-312 c-108 -306 -200 -502 -315 -670 -138 -203 -227 -381 -271 -546 -44 -164
-98 -237 -175 -237 l-39 0 39 73 c36 67 75 168 179 462 62 172 109 267 190
375 85 116 135 201 204 352 29 63 66 136 81 162 25 43 136 166 150 166 3 0
-16 -62 -43 -137z m388 -20 c-6 -16 -51 -136 -101 -268 -49 -132 -119 -314
-155 -405 -35 -91 -76 -194 -90 -230 -38 -95 -130 -277 -173 -340 -61 -90 -86
-110 -136 -110 -24 0 -44 2 -44 5 0 3 16 26 36 52 77 101 219 418 395 882 49
128 99 250 111 270 24 40 147 171 159 171 5 0 4 -12 -2 -27z m-15413 -422
c176 -69 300 -206 320 -354 6 -44 5 -47 -22 -57 -15 -6 -48 -10 -73 -8 l-46 3
-8 49 c-17 105 -99 239 -211 344 -30 28 -49 52 -43 52 7 -1 44 -13 83 -29z
m2551 -146 c136 -27 419 -118 568 -181 l90 -39 -95 -7 c-126 -10 -217 -25
-320 -55 -80 -23 -244 -96 -255 -113 -3 -5 34 -11 82 -15 320 -23 556 -88 719
-197 64 -43 131 -105 122 -114 -2 -1 -33 4 -69 11 -92 20 -255 35 -367 35 -88
0 -100 -2 -169 -36 -47 -22 -93 -55 -128 -89 l-54 -55 -158 11 c-261 19 -580
0 -780 -46 -109 -25 -222 -65 -308 -109 -44 -22 -84 -42 -88 -44 -12 -6 1 102
39 310 19 102 34 194 34 204 0 10 20 59 44 109 72 147 198 270 361 353 72 36
208 79 290 92 98 15 299 4 442 -25z m9898 -409 c174 -175 335 -426 351 -546
l7 -55 -34 28 c-73 59 -195 150 -214 159 -13 6 -30 34 -45 76 -34 98 -114 273
-171 380 -44 81 -47 92 -27 81 12 -7 72 -62 133 -123z m-2560 -94 c0 -61 4
-112 9 -112 5 0 72 18 150 40 263 74 457 103 641 98 l110 -3 -120 -24 c-279
-55 -530 -145 -855 -307 -414 -206 -745 -438 -1021 -713 -75 -75 -164 -174
-199 -221 -34 -47 -66 -86 -70 -88 -16 -6 -31 132 -25 222 18 273 68 458 161
598 60 90 339 369 439 440 115 81 165 104 298 138 159 40 221 48 362 46 l120
-1 0 -113z m502 -319 c50 -16 70 -33 39 -33 -25 0 -260 -125 -365 -194 -106
-70 -280 -206 -316 -246 -19 -22 -19 -22 31 3 99 50 338 148 468 193 277 95
436 125 696 130 210 4 210 2 10 -41 -168 -36 -433 -125 -670 -226 -221 -94
-839 -402 -1006 -502 -283 -169 -464 -338 -564 -528 -21 -39 -40 -67 -43 -63
-16 28 -39 173 -35 232 17 306 591 805 1308 1137 167 78 350 153 374 154 11 1
43 -7 73 -16z m-8043 -251 c-18 -15 -37 -37 -43 -49 -15 -30 -14 -83 4 -117 8
-15 15 -30 15 -32 0 -2 -69 -4 -153 -4 -379 0 -687 -74 -896 -214 -29 -20 -54
-36 -56 -36 -7 0 15 73 35 114 47 97 212 210 395 270 172 56 388 86 670 94
l60 1 -31 -27z m10402 -198 c24 -34 62 -97 84 -141 32 -65 40 -91 40 -135 0
-54 -16 -118 -29 -118 -3 0 -37 30 -74 68 l-67 68 -4 114 c-2 75 -11 139 -24
183 l-20 68 25 -23 c14 -13 45 -50 69 -84z m-2144 -173 c33 -30 68 -72 79 -94
19 -35 23 -39 50 -33 129 25 336 31 371 10 5 -4 -49 -21 -120 -40 -237 -60
-448 -152 -569 -248 -60 -47 -100 -95 -70 -83 69 26 438 84 458 72 29 -19 -4
-253 -49 -342 l-20 -38 102 4 c95 3 216 -11 244 -28 7 -4 -40 -15 -109 -25
-148 -21 -325 -65 -399 -100 l-55 -26 65 6 c146 12 414 -27 531 -79 l54 -24
-35 -18 c-84 -44 -342 -209 -386 -248 -147 -129 -279 -390 -333 -659 -34 -166
-33 -161 -13 -153 119 46 400 114 577 140 161 24 455 21 455 -3 0 -4 -37 -20
-83 -35 -89 -31 -267 -112 -267 -122 0 -3 13 -23 30 -43 90 -112 78 -268 -34
-443 -29 -45 -95 -121 -168 -192 -81 -80 -112 -116 -96 -113 274 59 597 157
752 230 53 24 96 42 96 39 0 -4 -18 -30 -39 -58 -171 -226 -566 -386 -1038
-421 l-92 -6 -113 50 c-142 63 -256 103 -378 132 -107 26 -127 39 -136 85 -15
81 57 155 211 215 220 86 460 205 645 320 100 62 145 95 115 87 -11 -3 -171
-53 -355 -111 -460 -143 -516 -160 -670 -201 -278 -74 -402 -165 -402 -295 0
-128 113 -197 393 -240 329 -51 636 -136 909 -253 77 -33 120 -59 163 -97 77
-70 68 -75 -115 -67 -76 3 -138 4 -138 2 0 -2 14 -28 31 -57 51 -85 184 -355
228 -460 58 -141 108 -304 127 -410 17 -95 16 -145 -6 -323 -28 -222 44 -532
157 -682 27 -37 22 -39 -52 -19 -87 23 -173 74 -241 141 -62 62 -64 64 -64 36
0 -122 119 -381 219 -475 27 -26 31 -36 31 -83 0 -160 -120 -327 -293 -408
l-48 -23 53 -32 c137 -84 334 -262 433 -389 57 -75 128 -208 149 -280 16 -54
22 -194 10 -226 -4 -10 -17 9 -39 60 -80 183 -254 392 -420 504 -44 29 -152
89 -240 132 -88 42 -185 93 -215 113 -30 19 -56 31 -58 26 -11 -30 144 -233
226 -298 37 -30 42 -40 61 -122 41 -173 54 -296 54 -510 1 -302 -36 -490 -148
-765 -110 -269 -94 -365 60 -365 144 0 413 147 603 331 119 115 166 220 181
406 7 91 8 96 20 68 56 -133 54 -316 -4 -490 -9 -27 -35 -88 -57 -134 l-40
-83 26 -57 c14 -32 33 -88 42 -127 18 -75 24 -249 11 -325 -7 -44 -10 -47 -45
-53 -87 -13 -659 -19 -762 -7 -196 23 -368 75 -562 171 -171 85 -213 117 -278
209 -121 169 -186 328 -230 563 -12 62 -24 124 -27 137 -5 21 -1 19 29 -15 60
-67 158 -205 219 -308 33 -55 59 -96 59 -90 0 5 -13 59 -29 120 -72 274 -200
540 -344 716 -45 55 -47 61 -73 195 -21 108 -25 154 -21 213 9 102 48 242 107
379 l49 114 -60 80 c-71 94 -114 175 -134 254 -23 86 -19 261 10 458 13 94 30
229 36 300 6 72 12 131 13 132 0 1 53 -16 116 -37 63 -21 176 -57 250 -80 236
-72 365 -150 580 -349 55 -51 103 -91 106 -88 8 7 -21 95 -56 173 -61 137
-171 265 -310 363 -95 67 -173 106 -387 196 -228 96 -308 143 -415 244 -106
100 -150 178 -156 276 -6 85 9 143 74 309 82 207 109 310 129 504 l7 63 42
-47 c72 -82 105 -135 187 -296 44 -87 84 -158 88 -158 4 0 16 27 26 59 14 47
17 80 12 158 -10 180 -87 351 -244 538 -59 70 -249 240 -355 318 -67 48 -83
82 -76 162 3 41 14 68 46 117 62 96 59 128 -28 228 -110 128 -139 254 -105
450 8 47 15 111 15 142 0 64 5 69 124 139 94 54 161 121 200 200 38 76 55 154
38 171 -17 17 -82 -34 -147 -115 -65 -81 -103 -113 -157 -129 -64 -19 -71 -10
-66 85 13 238 240 542 491 658 l42 19 -60 -6 c-164 -16 -380 -122 -516 -251
l-36 -34 -6 46 c-8 55 8 227 29 310 44 180 168 308 465 481 163 96 804 418
999 502 190 82 173 83 282 -17z m-5499 8 c105 -52 154 -87 214 -153 l51 -55 6
31 c3 17 6 60 7 97 l1 66 18 -40 c50 -108 96 -323 82 -385 l-8 -34 -39 49
c-96 117 -182 209 -315 339 -84 81 -133 135 -119 131 13 -4 59 -25 102 -46z
m-2583 -74 c0 -2 -24 -34 -52 -70 -55 -68 -161 -235 -154 -242 2 -2 50 5 107
16 176 33 296 44 489 44 260 1 451 -34 608 -109 66 -32 172 -117 161 -129 -3
-2 -47 9 -99 26 -165 53 -262 70 -441 76 -169 6 -257 -2 -351 -33 l-48 -16 0
-69 c0 -312 186 -576 525 -747 154 -77 393 -147 590 -173 83 -11 95 -15 80
-25 -10 -7 -41 -18 -69 -24 -112 -23 -589 53 -811 130 l-60 20 40 -40 c45 -46
261 -197 410 -287 143 -86 377 -201 545 -268 80 -32 147 -60 150 -63 3 -2 -74
-2 -170 1 -248 9 -577 55 -1000 141 -91 18 -167 32 -169 30 -2 -2 11 -34 29
-71 46 -94 155 -201 289 -283 147 -90 212 -153 262 -255 l42 -83 66 -17 c36
-9 113 -22 171 -28 l105 -13 -59 -23 c-133 -50 -529 -143 -714 -167 -29 -4
-55 -10 -57 -15 -6 -10 112 -35 225 -49 46 -5 157 -10 246 -10 l161 0 52 -51
c84 -82 115 -169 92 -254 -20 -75 -10 -72 -275 -86 l-240 -13 50 -22 c125 -54
330 -91 554 -100 304 -13 616 42 860 152 l75 34 -73 -69 c-57 -55 -97 -82
-185 -125 -259 -127 -556 -187 -1051 -212 l-128 -6 42 -19 c150 -67 324 -220
428 -376 34 -50 76 -103 94 -117 125 -94 323 -133 587 -115 68 5 127 7 129 4
13 -12 -102 -106 -170 -139 -145 -69 -380 -131 -598 -156 -154 -18 -154 -18
-90 -47 30 -14 127 -49 215 -78 372 -125 659 -146 955 -69 24 6 24 5 -5 -20
-97 -85 -234 -160 -388 -211 -102 -34 -283 -75 -330 -75 -57 0 -57 -12 1 -42
133 -71 218 -145 253 -223 37 -81 20 -153 -57 -235 -26 -28 -45 -52 -43 -54
30 -28 338 -162 542 -237 146 -53 147 -54 110 -62 -97 -22 -352 12 -481 62
-29 12 -54 21 -56 21 -1 0 1 -29 5 -65 5 -36 13 -161 19 -277 16 -290 4 -609
-37 -1006 -18 -183 -14 -223 36 -328 149 -312 565 -496 1236 -547 l160 -13
-80 -31 c-108 -42 -230 -64 -375 -66 -66 -1 -120 -6 -120 -10 0 -10 25 -50 74
-115 45 -61 138 -134 215 -170 64 -30 62 -31 -79 -66 -197 -48 -294 -60 -485
-60 -274 0 -394 31 -569 144 -145 94 -229 165 -357 297 -180 187 -297 384
-414 703 -126 341 -246 539 -486 801 -113 123 -170 214 -323 518 -186 370
-282 587 -347 785 -76 232 -103 276 -200 334 -40 24 -49 51 -49 154 0 95 -12
94 203 22 221 -74 805 -257 1177 -369 140 -42 261 -78 268 -80 26 -9 -23 48
-97 111 -257 222 -567 370 -1296 622 -556 192 -589 210 -654 367 -46 111 -71
249 -78 430 l-6 160 -42 50 c-23 28 -54 71 -70 98 -51 89 -58 126 -64 367 -8
287 -9 288 -161 430 -107 99 -142 148 -156 218 -6 31 -4 33 40 53 90 40 210
36 423 -12 77 -18 98 -19 122 -9 78 32 22 161 -108 250 -73 49 -105 62 -248
100 -219 58 -369 122 -464 196 -75 59 -103 100 -102 144 4 95 104 259 196 320
33 22 64 40 71 40 22 0 122 52 149 78 43 41 34 69 -39 114 -76 48 -123 113
-161 223 -61 175 -60 171 -37 202 12 16 71 55 134 88 63 33 115 65 117 71 2 6
-15 23 -37 38 -43 28 -90 108 -90 154 0 50 218 176 395 227 108 31 276 62 405
73 101 10 470 15 470 7z m9440 -138 c142 -45 280 -109 333 -157 54 -48 107
-143 83 -148 -23 -5 -160 64 -216 110 -30 24 -107 80 -170 123 -63 43 -119 82
-124 87 -17 14 16 9 94 -15z m748 -175 c67 -90 112 -181 162 -331 51 -150 51
-151 -24 -379 l-53 -164 -25 44 c-36 61 -88 167 -104 208 -12 34 -13 33 -13
-40 -2 -149 46 -377 115 -557 19 -50 67 -142 106 -205 162 -258 169 -326 73
-729 -36 -149 -45 -203 -45 -276 0 -139 45 -287 130 -425 29 -47 30 -52 30
-176 0 -161 19 -281 69 -452 54 -181 65 -254 58 -370 -7 -111 -50 -287 -102
-420 -20 -50 -119 -254 -219 -453 -101 -199 -195 -390 -210 -425 -15 -35 -30
-62 -32 -59 -7 7 16 247 37 377 28 180 72 335 141 500 169 404 187 564 99 886
-31 113 -44 255 -37 392 6 111 5 125 -12 150 -37 52 -92 172 -119 259 -24 78
-27 105 -27 238 -1 141 2 158 34 275 29 108 34 140 34 235 -1 137 -16 182
-119 355 -122 206 -150 313 -150 585 1 99 6 216 13 260 15 92 59 266 71 278 4
4 40 -31 80 -77 39 -46 78 -89 85 -95 8 -7 3 26 -15 91 -40 141 -76 315 -88
430 -19 166 -16 169 57 70z m-7376 -211 c31 -28 73 -74 93 -102 l37 -50 -12
-78 c-7 -43 -15 -82 -18 -88 -7 -9 -73 -36 -77 -31 -77 108 -82 120 -82 213 0
79 -10 138 -30 192 -9 23 21 4 89 -56z m6413 43 c158 -19 287 -50 356 -85 81
-40 204 -179 160 -179 -21 0 -163 56 -281 110 -69 31 -192 81 -275 110 -82 30
-153 56 -157 59 -9 8 45 4 197 -15z m-8483 -209 c97 -54 199 -81 506 -130 400
-65 611 -135 788 -261 86 -61 213 -203 162 -181 -7 3 -53 23 -103 45 -119 52
-261 91 -535 147 -481 98 -667 168 -793 299 -38 39 -84 106 -74 106 3 0 25
-11 49 -25z m1258 -21 c87 -20 196 -74 251 -123 24 -22 38 -40 31 -41 -42 -1
-600 155 -590 166 26 26 195 25 308 -2z m661 -310 c31 -77 31 -80 23 -179 -14
-162 -9 -230 26 -336 54 -160 35 -287 -59 -408 l-28 -36 19 -75 c32 -129 88
-195 238 -277 91 -50 100 -60 100 -104 0 -38 -18 -92 -84 -248 -74 -179 -69
-274 27 -489 97 -216 175 -331 289 -427 58 -48 80 -76 115 -140 57 -109 101
-245 120 -378 20 -139 10 -214 -44 -329 l-38 -82 -7 106 c-16 259 -116 542
-244 694 -140 165 -302 401 -378 552 -84 166 -88 406 -10 622 l24 68 -68 66
c-79 76 -133 163 -164 261 -12 39 -23 71 -23 72 -1 1 -28 -8 -60 -21 -33 -13
-85 -27 -115 -30 l-55 -7 30 23 c143 109 261 242 290 327 22 64 18 135 -10
224 -31 95 -31 159 -5 327 11 69 23 173 26 233 8 124 12 123 65 -9z m6574
-423 c110 -43 236 -91 280 -108 44 -17 118 -47 165 -66 84 -36 84 -36 55 -47
-42 -17 -169 -6 -233 18 -83 32 -512 274 -512 289 0 7 35 -5 245 -86z m-6907
-1033 c-9 -27 -127 -111 -214 -154 -50 -24 -134 -55 -187 -69 -102 -26 -263
-43 -294 -31 -24 10 72 48 399 161 139 48 260 91 268 96 22 12 32 11 28 -3z
m7541 -703 c-21 -172 -75 -341 -170 -529 -66 -130 -141 -243 -268 -401 -132
-165 -209 -281 -277 -420 -93 -190 -154 -407 -187 -665 l-14 -105 -23 50 c-12
28 -34 93 -48 145 -23 85 -26 114 -26 275 -1 167 1 188 28 290 49 188 136 368
244 502 31 39 115 136 185 215 194 221 281 333 515 666 24 35 45 62 47 60 2
-2 -1 -39 -6 -83z m-6021 -2065 c56 -84 81 -157 123 -358 92 -444 236 -867
419 -1231 32 -65 68 -146 80 -180 54 -161 37 -394 -37 -511 l-18 -28 -2 101
c-2 133 -34 256 -108 417 -86 189 -234 565 -358 915 -51 143 -64 201 -87 382
-24 188 -39 246 -80 299 -115 151 -168 253 -200 386 -11 46 -20 90 -20 98 0
21 244 -225 288 -290z m6635 -132 c3 -95 16 -276 28 -403 21 -219 21 -245 10
-550 -7 -176 -11 -471 -9 -655 l3 -335 -52 -250 c-54 -256 -73 -416 -73 -604
0 -140 -36 -257 -104 -338 -25 -30 -123 -89 -133 -80 -3 3 7 54 21 114 42 179
56 321 56 581 0 295 9 372 67 592 46 174 46 176 47 340 0 91 -7 266 -17 389
-24 312 -32 695 -18 866 16 204 43 349 71 388 13 18 38 51 54 74 17 23 34 42
37 43 3 0 9 -78 12 -172z m-7036 -350 c-3 -112 -19 -360 -36 -553 -16 -192
-34 -408 -38 -480 l-8 -130 -47 95 c-91 187 -118 398 -83 663 25 190 76 359
156 520 32 63 47 87 57 87 3 0 2 -91 -1 -202z m227 -274 c21 -102 39 -299 32
-352 -7 -52 -50 -152 -65 -152 -13 0 -26 78 -26 160 0 36 8 142 18 236 9 94
17 175 17 179 0 24 11 -9 24 -71z m-1258 -430 c202 -338 399 -567 722 -837 80
-67 140 -123 135 -124 -5 -2 -49 8 -98 22 -410 119 -764 483 -889 916 -27 95
-46 215 -46 287 l1 47 42 -78 c23 -44 83 -148 133 -233z m7267 -532 c48 -74
82 -185 102 -330 6 -48 10 -48 -65 1 -96 64 -139 108 -169 170 -56 114 -152
545 -150 670 0 39 10 23 128 -213 70 -140 139 -274 154 -298z m-4942 -990 c69
-86 113 -162 173 -301 59 -134 101 -201 200 -321 45 -54 101 -133 125 -174 58
-102 120 -253 121 -293 0 -40 -52 -202 -85 -263 -21 -40 -24 -42 -25 -19 0 50
-31 204 -56 289 -39 129 -84 216 -159 310 -84 104 -144 227 -185 380 -37 137
-94 285 -155 405 -50 97 -39 95 46 -13z m-215 -259 c44 -43 69 -126 61 -201
-15 -145 -229 -430 -422 -562 -72 -49 -78 -51 -60 -25 127 194 235 400 281
540 27 82 37 201 21 257 -6 24 -4 27 20 30 43 5 63 -2 99 -39z m-1510 -559 c4
-14 2 -47 -3 -75 -9 -44 -8 -49 6 -45 55 16 197 28 303 24 104 -3 131 -7 173
-28 l50 -23 -85 -8 c-108 -10 -206 -32 -345 -76 -108 -35 -147 -53 -111 -53
29 0 165 -76 250 -140 135 -100 301 -247 458 -402 82 -82 161 -153 174 -158
45 -17 97 -11 136 15 59 40 92 123 125 320 l9 50 36 -75 c46 -93 61 -160 52
-225 -23 -174 -135 -288 -284 -289 -126 -1 -205 58 -340 254 -118 170 -310
345 -475 432 l-71 37 -72 -62 -72 -62 55 -18 c62 -21 111 -61 121 -101 23 -93
-58 -182 -254 -278 l-128 -62 70 -18 c87 -22 222 -87 256 -124 22 -24 23 -26
5 -21 -148 44 -341 58 -450 33 -38 -9 -88 -29 -110 -43 l-40 -26 80 -18 c208
-45 364 -124 430 -218 36 -53 32 -65 -15 -36 -140 88 -423 149 -700 150 -184
0 -264 -11 -415 -58 l-70 -22 205 -6 c202 -7 312 -21 440 -57 61 -17 65 -19
63 -46 -6 -80 -139 -160 -336 -201 -141 -29 -216 -66 -286 -140 -48 -50 -101
-139 -101 -169 0 -10 42 -28 133 -56 238 -75 463 -172 596 -257 54 -34 171
-139 171 -153 0 -4 -51 19 -112 50 -290 145 -586 243 -867 286 -139 21 -414
22 -531 0 -46 -8 -86 -14 -88 -12 -11 12 113 273 247 521 106 195 167 330 221
495 76 226 128 321 305 550 105 135 128 193 181 440 25 118 47 216 47 217 1 0
40 -8 87 -19 124 -29 442 -36 605 -14 66 9 147 22 180 30 84 19 84 19 91 -10z
m1814 -154 c-12 -57 -37 -144 -56 -193 -41 -108 -59 -202 -75 -405 -7 -84 -15
-152 -19 -152 -13 0 -70 204 -81 289 -6 47 -9 146 -7 220 4 119 7 143 30 192
27 60 81 112 171 165 51 30 52 30 55 9 2 -12 -6 -68 -18 -125z m2501 -6 c96
-57 242 -122 353 -159 191 -63 303 -82 774 -131 50 -5 53 -7 47 -27 -11 -40
-18 -137 -9 -137 5 0 74 -7 154 -16 80 -9 222 -16 317 -17 194 -2 205 -10 73
-51 -108 -35 -253 -54 -491 -66 -112 -6 -217 -12 -234 -13 -26 -2 -20 -7 55
-44 142 -71 183 -77 520 -77 162 -1 358 2 435 6 103 5 130 4 100 -4 -22 -5
-123 -30 -225 -55 -215 -53 -512 -137 -655 -186 -119 -40 -201 -81 -310 -151
-87 -57 -214 -168 -197 -174 6 -2 72 17 149 42 213 69 422 133 485 149 l58 15
29 -33 c38 -44 69 -128 73 -200 l3 -57 -110 -67 c-144 -87 -198 -124 -239
-167 -44 -45 -93 -139 -102 -194 l-7 -43 35 6 c103 16 250 113 651 428 42 33
77 57 77 52 0 -20 -93 -164 -146 -227 l-59 -69 68 -69 69 -68 116 40 c150 50
251 71 383 77 115 6 239 -3 239 -18 0 -5 -8 -9 -17 -9 -32 0 -245 -58 -353
-95 -211 -74 -455 -208 -570 -313 l-45 -42 100 44 c193 84 365 136 452 136
l42 0 12 -57 c7 -32 13 -106 13 -165 1 -60 1 -108 1 -108 1 0 41 9 90 19 111
25 255 35 315 23 l45 -9 -45 -12 c-119 -33 -265 -87 -355 -132 -101 -49 -208
-120 -190 -125 6 -1 36 -5 68 -9 54 -6 57 -8 57 -33 0 -33 -32 -105 -66 -149
-14 -18 -23 -33 -20 -33 3 0 60 14 128 30 274 67 542 98 707 81 51 -6 95 -12
97 -14 2 -2 -81 -20 -184 -41 -449 -90 -742 -182 -992 -312 -181 -94 -179 -96
40 -53 106 20 212 40 235 43 l42 7 38 -58 c106 -160 213 -401 270 -609 37
-135 38 -137 102 -235 65 -102 110 -202 137 -309 27 -106 42 -263 29 -297 -7
-20 -17 -10 -93 97 -111 156 -150 228 -207 385 -26 72 -83 201 -126 288 l-79
157 -82 0 c-82 0 -148 -13 -219 -44 l-39 -16 50 -63 c93 -117 160 -240 213
-396 16 -46 40 -103 54 -126 57 -99 188 -215 354 -314 46 -28 80 -51 74 -51
-20 0 -222 60 -316 94 -55 20 -143 56 -197 82 l-97 46 -6 116 c-3 78 -12 139
-26 182 -26 81 -152 313 -242 445 -76 112 -230 308 -236 301 -2 -2 30 -89 73
-192 135 -333 153 -381 189 -515 19 -72 42 -144 50 -160 9 -16 20 -41 25 -55
l11 -27 -28 18 c-147 94 -396 332 -526 502 -185 243 -315 508 -401 819 -42
151 -59 231 -120 574 -55 308 -85 431 -131 550 -63 165 -141 280 -309 460
-122 130 -230 265 -275 343 -16 28 -42 88 -57 132 -23 69 -28 101 -32 225 -3
104 0 173 12 246 19 120 21 240 5 345 -10 66 -8 129 6 129 2 0 32 -16 66 -36z
m2814 -159 c9 -49 43 -169 76 -267 70 -209 130 -437 159 -603 25 -147 50 -226
103 -330 23 -44 179 -287 347 -540 329 -494 381 -578 466 -746 103 -207 164
-380 233 -669 77 -320 124 -684 91 -705 -6 -4 -10 17 -10 57 0 83 -39 269 -85
410 -43 132 -221 584 -301 767 -63 143 -97 205 -166 308 l-48 72 -92 30 c-51
16 -121 35 -155 42 -35 7 -63 16 -63 20 0 11 89 41 140 48 l48 6 -60 105 c-55
96 -128 208 -283 438 -63 92 -166 291 -194 374 l-18 53 -124 5 -124 5 60 23
c32 13 79 26 102 29 24 3 43 10 43 15 0 21 -60 378 -79 469 -11 52 -36 147
-55 211 -45 150 -70 318 -62 421 10 136 19 128 51 -48z m-4641 -355 c-9 -72
-30 -135 -71 -213 -29 -57 -68 -103 -188 -226 -188 -192 -295 -274 -736 -568
-268 -179 -259 -173 -239 -147 131 173 251 288 538 518 433 346 520 440 640
686 l46 95 8 -50 c4 -27 5 -70 2 -95z m4377 -504 c67 -15 169 -59 169 -75 0
-13 -93 -60 -172 -87 -54 -18 -93 -24 -157 -24 -47 0 -179 -5 -293 -11 -113
-7 -219 -8 -235 -5 l-28 8 25 14 c51 28 229 93 362 133 225 67 229 68 329 47z
m-2431 -481 c194 -207 262 -318 326 -531 24 -82 26 -104 27 -279 0 -175 -14
-359 -32 -408 -5 -13 -18 54 -35 184 -37 276 -71 470 -97 554 -41 136 -119
274 -303 535 -77 110 -136 207 -136 225 0 4 27 -27 59 -67 32 -40 118 -136
191 -213z m-5950 -700 c0 -3 -31 -41 -69 -85 -80 -92 -171 -224 -254 -365 -33
-55 -57 -93 -54 -85 2 8 30 91 61 183 32 93 56 173 54 178 -6 17 -94 -57 -155
-130 -129 -154 -211 -337 -234 -522 -20 -163 12 -330 88 -458 l38 -64 7 49 c3
27 7 83 8 124 l1 75 24 -67 c52 -148 157 -297 285 -403 66 -56 70 -60 45 -63
-14 -2 -74 1 -133 7 l-107 11 -93 93 c-131 128 -204 222 -257 330 -109 221
-99 413 39 727 35 80 88 200 117 267 l54 121 70 21 c39 11 96 25 127 31 103
20 338 37 338 25z m174 -197 c-67 -121 -102 -201 -139 -313 -33 -100 -38 -126
-95 -480 -17 -104 -33 -191 -35 -193 -8 -8 -65 83 -85 134 -24 65 -27 183 -6
261 37 139 145 372 222 480 51 72 161 193 175 193 5 0 -11 -37 -37 -82z m355
-14 c-97 -215 -150 -384 -174 -559 -25 -182 -108 -466 -125 -434 -4 8 -18 58
-30 112 -43 188 -14 327 131 622 46 95 92 171 144 238 42 54 79 97 81 94 2 -2
-10 -35 -27 -73z m276 -262 c-30 -106 -61 -235 -70 -287 -15 -97 -53 -213 -97
-300 l-26 -50 -23 75 c-17 53 -24 98 -23 155 0 74 4 89 52 200 29 66 69 149
88 185 54 99 149 241 152 227 1 -7 -22 -99 -53 -205z m1026 -253 c-43 -127
-116 -247 -286 -475 -101 -135 -125 -159 -226 -239 -313 -244 -607 -395 -869
-449 -188 -38 -431 -47 -548 -21 -63 15 -172 67 -172 83 0 4 66 7 148 8 172 0
269 13 447 59 268 69 521 192 785 384 216 156 457 382 642 602 50 60 93 107
95 106 2 -2 -5 -28 -16 -58z m7796 -248 c83 -172 232 -543 259 -642 25 -92 25
-313 1 -393 -23 -74 -30 -68 -85 69 -62 157 -89 249 -117 400 -14 77 -48 230
-75 340 -46 188 -100 425 -100 442 0 17 47 -69 117 -216z m-579 -18 c114 -170
184 -294 272 -477 160 -333 192 -438 194 -646 1 -122 -17 -254 -35 -266 -26
-15 -159 352 -209 573 -46 208 -73 294 -177 573 -111 298 -133 360 -128 360 3
0 40 -53 83 -117z m-509 -178 c111 -164 178 -280 301 -521 106 -208 141 -302
165 -438 24 -139 18 -362 -9 -353 -35 10 -199 386 -251 572 -49 180 -106 335
-235 648 -60 148 -110 272 -110 275 1 13 51 -53 139 -183z m-1763 -336 c175
-283 447 -567 710 -742 258 -171 592 -307 918 -372 168 -33 290 -45 468 -45
135 1 191 5 338 25 85 11 -156 -58 -265 -77 -102 -17 -148 -20 -310 -15 -313
8 -554 66 -885 211 -58 25 -98 40 -90 33 141 -117 377 -275 545 -365 85 -45
94 -52 60 -47 -86 14 -322 100 -453 165 -151 75 -316 181 -462 297 -118 95
-384 360 -474 473 -94 119 -215 301 -227 341 -16 58 -47 269 -54 369 l-5 95
64 -126 c35 -70 90 -169 122 -220z m3391 -715 c-8 -38 -28 -96 -43 -129 l-29
-60 -3 118 -3 118 43 52 43 51 3 -40 c2 -22 -4 -72 -11 -110z"/>
<path d="M17995 40763 c-127 -15 -251 -44 -249 -58 2 -21 54 -46 105 -52 49
-5 69 0 204 52 83 32 157 61 165 66 22 12 -84 9 -225 -8z"/>
<path d="M18290 40635 c-234 -39 -228 -38 -190 -46 139 -31 470 -45 470 -20 0
14 -45 50 -82 66 -44 18 -94 18 -198 0z"/>
<path d="M12900 40251 c-38 -71 47 -217 179 -311 l34 -24 -7 45 c-4 24 -29 89
-56 145 -69 143 -123 195 -150 145z"/>
<path d="M18686 39451 c3 -9 11 -33 17 -54 8 -33 7 -42 -10 -65 -43 -59 -91
-65 -303 -39 -387 48 -859 43 -1246 -13 -646 -94 -1147 -323 -1490 -682 -76
-80 -211 -255 -223 -289 -1 -6 35 20 80 57 179 145 434 293 599 348 159 53
299 58 398 16 60 -26 134 -100 161 -160 100 -227 7 -651 -227 -1040 -162 -269
-393 -486 -656 -616 -308 -152 -502 -93 -571 173 -44 168 -21 486 60 828 28
118 16 109 -50 -42 -190 -434 -293 -971 -265 -1384 20 -296 118 -735 217 -974
199 -477 540 -838 1091 -1153 328 -188 713 -300 1177 -342 142 -13 565 -13
720 0 492 42 959 149 1384 319 77 31 53 7 -83 -84 -198 -131 -460 -247 -721
-316 l-110 -30 140 5 c509 18 1124 276 1671 702 459 357 717 926 759 1677 8
133 -4 423 -15 392 -4 -11 -17 -86 -29 -166 -51 -348 -160 -679 -285 -867 -47
-70 -124 -152 -112 -118 43 122 119 518 152 796 21 181 30 662 15 827 -65 715
-324 1254 -759 1581 -46 34 -78 62 -73 62 25 0 349 -114 427 -150 l85 -39 -30
37 c-117 147 -348 311 -626 448 -321 157 -690 269 -1138 348 -123 21 -137 22
-131 7z m-1471 -425 c34 -14 65 -59 65 -93 -1 -39 -39 -102 -79 -128 -33 -22
-49 -26 -91 -23 -27 1 -50 0 -50 -5 0 -4 -18 -27 -41 -52 -79 -85 -184 -99
-246 -31 -27 29 -33 44 -33 81 0 88 67 170 158 196 39 11 52 10 88 -3 l43 -15
33 34 c48 49 97 62 153 39z m939 -168 c7 -12 6 -21 -3 -32 -18 -22 -38 -20
-51 3 -7 15 -6 24 6 36 19 18 33 16 48 -7z m776 -156 c0 -76 94 -205 157 -218
l32 -6 -52 -27 c-43 -22 -57 -35 -80 -81 -18 -36 -30 -79 -34 -124 l-6 -69
-23 68 c-34 100 -82 167 -142 197 l-50 25 39 17 c21 10 52 34 69 54 31 38 70
128 70 162 0 11 5 20 10 20 6 0 10 -8 10 -18z m-1845 -262 c0 -18 -6 -26 -23
-28 -13 -2 -25 3 -28 12 -10 26 4 48 28 44 17 -2 23 -10 23 -28z m3077 -18
c103 -53 232 -202 310 -359 65 -129 75 -201 34 -228 -24 -16 -28 -16 -71 5
-136 66 -328 326 -366 495 -10 47 -10 57 5 79 20 31 39 32 88 8z m-2337 -52
c4 -6 1 -18 -6 -26 -11 -13 -14 -13 -27 0 -8 8 -11 19 -8 25 9 14 33 14 41 1z
m-208 -126 c7 -18 -17 -38 -31 -24 -11 11 -1 40 14 40 6 0 13 -7 17 -16z m998
-134 c0 -18 -6 -26 -23 -28 -24 -4 -38 18 -28 44 3 9 15 14 28 12 17 -2 23
-10 23 -28z m1053 -92 c-6 -18 -28 -21 -28 -4 0 9 7 16 16 16 9 0 14 -5 12
-12z m-1518 -143 c15 -19 -3 -45 -31 -45 -19 0 -35 33 -24 50 9 15 41 12 55
-5z m-851 -180 l23 -12 -26 -16 c-16 -11 -28 -30 -32 -54 l-7 -36 -18 36 c-11
20 -28 42 -39 50 -21 14 -21 15 10 45 16 17 30 39 30 49 1 12 7 7 19 -16 10
-18 28 -39 40 -46z m2119 -248 c4 -20 -25 -34 -39 -20 -14 14 1 45 20 41 9 -2
17 -11 19 -21z m942 -192 c0 -8 -4 -15 -10 -15 -5 0 -10 7 -10 15 0 8 5 15 10
15 6 0 10 -7 10 -15z m-614 -86 c12 -13 12 -21 -3 -49 -15 -32 -17 -33 -24
-12 -5 13 -15 25 -23 28 -12 4 -10 11 7 38 12 18 24 28 26 22 2 -6 10 -18 17
-27z m-3117 4 c14 -26 -15 -56 -40 -42 -19 10 -25 39 -12 52 12 13 42 7 52
-10z m1999 -35 c-6 -18 -28 -21 -28 -4 0 9 7 16 16 16 9 0 14 -5 12 -12z
m-758 -533 c537 -33 859 -74 1065 -135 39 -12 102 -23 140 -25 76 -4 232 -42
308 -74 26 -11 84 -27 129 -36 183 -34 551 -135 716 -195 184 -68 308 -174
343 -291 8 -26 16 -35 28 -32 9 2 25 -2 35 -10 15 -11 17 -21 12 -49 -8 -45
-41 -88 -67 -88 -18 0 -19 -5 -13 -60 6 -57 5 -60 -24 -90 -38 -38 -82 -41
-110 -6 -20 26 -18 26 -138 1 -17 -4 -24 -17 -33 -66 -9 -46 -10 -64 -1 -75
43 -51 -68 -170 -116 -125 -5 5 -30 11 -56 13 -46 3 -47 3 -62 -36 -16 -41
-14 -56 9 -56 8 0 22 -11 31 -25 23 -35 7 -68 -48 -96 -33 -17 -46 -19 -60
-10 -13 8 -23 8 -37 0 -18 -12 -32 -9 -62 12 -12 9 -22 8 -43 -6 -22 -15 -27
-24 -22 -45 10 -55 -57 -121 -139 -135 -22 -4 -49 -15 -60 -25 -11 -10 -47
-37 -80 -60 -44 -31 -53 -40 -32 -35 36 9 67 -17 67 -56 0 -71 -228 -158 -260
-100 -14 27 -13 52 4 70 13 14 8 16 -52 18 -37 0 -83 2 -102 3 -28 2 -42 -4
-67 -29 -31 -31 -75 -41 -88 -21 -4 6 -19 0 -38 -14 -65 -49 -193 -63 -234
-25 l-22 22 -254 -76 c-182 -55 -273 -78 -323 -80 -38 -2 -76 -7 -85 -11 -9
-4 -25 1 -40 13 -22 18 -23 22 -12 52 11 28 10 36 -2 48 -13 14 -17 13 -31 -1
-12 -12 -14 -20 -5 -36 15 -29 14 -78 -4 -111 -23 -46 -66 -54 -108 -21 -25
20 -26 20 -32 1 -3 -10 -14 -26 -24 -35 -41 -37 -97 33 -66 80 8 13 24 24 35
24 13 0 20 7 20 18 0 17 -6 17 -77 9 -43 -4 -104 -6 -135 -3 -54 5 -58 4 -58
-16 0 -27 -27 -58 -52 -58 -10 0 -33 7 -49 16 -25 12 -30 21 -27 45 2 25 -3
33 -37 53 l-39 24 -38 -19 c-52 -27 -69 -25 -187 23 -72 28 -106 38 -109 30
-9 -28 -40 -32 -85 -13 -45 19 -61 40 -51 66 4 10 -10 21 -48 38 -29 13 -70
42 -91 66 -27 30 -43 40 -57 36 -32 -10 -110 16 -144 49 l-34 31 -10 -27 c-14
-37 -53 -38 -81 -2 -12 15 -21 33 -21 40 0 20 39 56 55 50 9 -3 6 10 -8 44
-18 39 -25 46 -39 39 -82 -44 -303 89 -359 216 -11 25 -21 65 -22 89 -2 43 -3
44 -39 50 -52 8 -168 109 -198 172 -13 25 -24 69 -26 98 -2 48 -4 51 -31 54
-39 5 -55 21 -51 52 2 21 -6 34 -31 55 -26 23 -32 34 -29 57 4 27 3 28 -28 22
-59 -11 -98 32 -67 75 10 15 25 21 54 21 28 0 39 4 39 15 0 19 32 35 58 28 29
-7 21 17 -27 87 -40 58 -39 57 -119 44 -37 -6 -46 -4 -70 18 -15 14 -40 29
-57 32 -55 13 -82 55 -53 84 14 14 67 16 88 2 9 -6 23 -3 41 7 22 13 27 22 23
43 -6 26 -3 27 113 63 245 76 540 134 918 181 204 26 456 53 555 60 100 7 610
-5 850 -19z m-2452 -120 c28 -13 52 -28 52 -34 0 -5 -15 -18 -32 -29 -70 -41
-129 -38 -153 9 -16 30 -20 71 -7 83 11 12 82 -3 140 -29z m5162 -341 c76 -9
100 -26 100 -70 0 -44 -23 -91 -49 -99 -26 -8 -77 19 -98 53 -10 15 -23 30
-30 35 -16 10 -36 74 -28 88 4 6 17 8 29 5 11 -3 46 -8 76 -12z m-5295 -61
c53 -64 79 -112 90 -163 5 -21 24 -50 49 -75 49 -47 95 -157 103 -246 5 -51 3
-58 -16 -69 -12 -6 -29 -9 -39 -5 -22 7 -112 132 -112 155 0 9 -15 50 -34 91
-22 47 -42 116 -56 189 -12 63 -28 129 -35 147 -21 49 -2 40 50 -24z m209 -15
c22 -32 20 -55 -8 -73 -30 -20 -51 -11 -66 26 -11 25 -10 32 5 49 24 26 50 25
69 -2z m4884 -644 c26 -18 28 -41 6 -72 -17 -24 -53 -29 -72 -10 -18 18 -14
56 8 78 24 24 29 24 58 4z m-228 -204 c24 -24 24 -29 4 -58 -17 -24 -43 -29
-62 -10 -18 18 -15 65 6 77 24 15 29 14 52 -9z m-188 -247 c23 -21 23 -45 0
-73 -34 -42 -96 4 -71 53 21 40 42 46 71 20z m-107 -97 c16 -12 18 -19 10 -42
-14 -39 -67 -55 -95 -29 -26 23 -25 39 2 65 25 23 56 26 83 6z m-823 -303 c24
-21 23 -60 -1 -73 -27 -14 -104 -13 -119 2 -16 16 -15 53 1 66 30 24 95 27
119 5z m-293 -27 c76 -40 65 -74 -40 -126 -120 -61 -224 -93 -282 -87 -61 5
-101 34 -105 74 -4 43 40 77 125 97 38 9 100 25 138 35 85 24 127 26 164 7z"/>
<path d="M16970 36530 c0 -5 5 -10 10 -10 6 0 10 5 10 10 0 6 -4 10 -10 10 -5
0 -10 -4 -10 -10z"/>
<path d="M16760 36510 c0 -5 5 -10 10 -10 6 0 10 5 10 10 0 6 -4 10 -10 10 -5
0 -10 -4 -10 -10z"/>
<path d="M17728 36493 c-22 -6 -23 -29 -2 -37 24 -9 34 -7 32 7 -2 8 14 14 47
17 41 4 46 6 25 12 -27 8 -74 9 -102 1z"/>
<path d="M17877 36453 c-15 -8 -52 -17 -82 -20 -77 -8 -58 -23 28 -23 157 0
219 21 144 48 -41 15 -54 14 -90 -5z"/>
<path d="M17300 36450 c20 -13 40 -13 40 0 0 6 -12 10 -27 10 -22 0 -25 -2
-13 -10z"/>
<path d="M16118 36423 c6 -2 18 -2 25 0 6 3 1 5 -13 5 -14 0 -19 -2 -12 -5z"/>
<path d="M18605 36400 c-3 -5 1 -10 10 -10 9 0 13 5 10 10 -3 6 -8 10 -10 10
-2 0 -7 -4 -10 -10z"/>
<path d="M18994 36338 c-4 -6 1 -17 11 -25 25 -18 41 -17 25 2 -10 12 -10 16
1 19 8 2 21 7 29 9 8 3 -2 6 -22 6 -20 1 -40 -4 -44 -11z"/>
<path d="M19120 36322 c0 -13 -47 -32 -78 -32 -21 0 -24 -2 -12 -10 33 -21
170 -6 170 18 0 10 -45 32 -65 32 -8 0 -15 -4 -15 -8z"/>
<path d="M15818 36298 c-30 -10 -35 -27 -16 -46 17 -17 33 -15 19 2 -14 16 -8
21 37 31 17 3 32 11 32 16 0 12 -37 10 -72 -3z"/>
<path d="M15929 36261 c-9 -10 -37 -21 -63 -25 -73 -11 -44 -26 50 -26 123 0
155 23 77 55 -43 18 -44 18 -64 -4z"/>
<path d="M18322 36268 c7 -20 48 -23 48 -4 0 11 -9 16 -26 16 -16 0 -24 -5
-22 -12z"/>
<path d="M16855 36143 c-52 -7 -149 -34 -162 -45 -15 -12 -17 -47 -4 -67 9
-14 70 -31 141 -37 l45 -4 -42 16 c-63 23 -58 48 15 82 48 22 71 26 147 27 50
0 101 -4 114 -9 32 -11 24 14 -10 31 -23 12 -174 16 -244 6z"/>
<path d="M16310 36091 c0 -11 26 -22 34 -14 12 12 5 23 -14 23 -11 0 -20 -4
-20 -9z"/>
<path d="M17187 36077 c4 -18 -4 -29 -34 -50 -53 -37 -95 -52 -193 -72 -47 -9
-89 -20 -93 -24 -25 -24 46 -33 223 -31 164 3 330 49 330 92 0 26 -38 57 -70
58 -14 0 -49 11 -78 25 -69 32 -91 33 -85 2z m58 -117 c-3 -5 -12 -7 -20 -3
-21 7 -19 13 6 13 11 0 18 -4 14 -10z"/>
<path d="M17745 36060 c-3 -5 1 -10 10 -10 9 0 13 5 10 10 -3 6 -8 10 -10 10
-2 0 -7 -4 -10 -10z"/>
<path d="M19810 35980 c0 -5 7 -10 15 -10 8 0 15 5 15 10 0 6 -7 10 -15 10 -8
0 -15 -4 -15 -10z"/>
<path d="M20185 35850 c-15 -16 -15 -22 -5 -35 16 -19 41 -20 34 -1 -7 18 25
36 66 36 18 0 29 4 25 10 -3 6 -28 10 -54 10 -35 0 -53 -5 -66 -20z"/>
<path d="M16176 35851 c-8 -12 21 -34 34 -26 17 11 11 35 -9 35 -11 0 -22 -4
-25 -9z"/>
<path d="M20344 35822 c-13 -21 -76 -42 -125 -42 -26 0 -30 -3 -21 -12 7 -7
51 -14 105 -16 74 -3 101 -1 126 12 37 20 34 29 -19 56 -48 24 -52 25 -66 2z"/>
<path d="M15730 35810 c-11 -7 -12 -12 -3 -21 15 -15 47 -7 51 14 4 19 -23 23
-48 7z"/>
<path d="M18405 35750 c3 -5 8 -10 11 -10 2 0 4 5 4 10 0 6 -5 10 -11 10 -5 0
-7 -4 -4 -10z"/>
<path d="M18854 35739 c-44 -12 -71 -44 -54 -64 14 -17 73 -35 115 -35 l30 1
-31 13 c-78 34 -42 61 82 61 52 0 94 1 94 3 0 2 -16 10 -35 18 -38 15 -152 18
-201 3z"/>
<path d="M18195 35730 c-3 -5 -2 -10 4 -10 5 0 13 5 16 10 3 6 2 10 -4 10 -5
0 -13 -4 -16 -10z"/>
<path d="M17390 35716 c0 -18 30 -30 43 -17 5 5 6 14 3 20 -10 16 -46 13 -46
-3z"/>
<path d="M19146 35696 c9 -23 -63 -64 -139 -80 -75 -15 -82 -19 -72 -36 8 -13
211 -5 288 12 45 10 77 36 77 65 0 14 -100 53 -135 53 -17 0 -23 -4 -19 -14z"/>
<path d="M18585 35570 c3 -5 15 -10 26 -10 10 0 19 5 19 10 0 6 -12 10 -26 10
-14 0 -23 -4 -19 -10z"/>
<path d="M16300 35490 c0 -5 9 -10 19 -10 11 0 23 5 26 10 4 6 -5 10 -19 10
-14 0 -26 -4 -26 -10z"/>
<path d="M19832 35403 c-18 -7 -4 -23 19 -23 12 0 19 5 17 12 -5 14 -18 18
-36 11z"/>
<path d="M16528 35391 c-82 -17 -92 -67 -17 -86 24 -6 26 -4 22 19 -4 21 0 28
22 36 14 5 45 10 68 10 24 0 37 4 32 9 -15 14 -85 20 -127 12z"/>
<path d="M16723 35365 c4 -8 -6 -24 -24 -39 -28 -24 -51 -32 -142 -53 -21 -4
-38 -12 -37 -18 0 -6 53 -9 143 -7 149 4 227 23 227 56 0 18 -38 46 -61 46 -9
0 -22 7 -29 15 -17 20 -84 21 -77 0z"/>
<path d="M17785 35295 c-99 -15 -124 -27 -154 -70 -21 -31 -22 -36 -8 -56 25
-35 97 -78 167 -100 74 -23 173 -20 270 9 l55 17 -120 6 c-113 5 -195 21 -195
38 0 4 11 18 25 31 14 13 25 32 25 42 0 13 19 28 63 48 34 17 71 31 82 31 36
2 -37 17 -85 17 -25 0 -81 -6 -125 -13z"/>
<path d="M19120 35246 c0 -9 30 -14 35 -6 4 6 -3 10 -14 10 -12 0 -21 -2 -21
-4z"/>
<path d="M16105 35210 c-4 -6 5 -10 20 -10 15 0 24 4 20 10 -3 6 -12 10 -20
10 -8 0 -17 -4 -20 -10z"/>
<path d="M18314 35172 c-38 -3 -40 -4 -36 -32 4 -25 -2 -32 -49 -63 -56 -37
-111 -56 -241 -82 -80 -17 -89 -23 -63 -45 18 -15 182 -22 206 -9 10 5 27 5
40 1 12 -5 43 -5 68 -1 25 4 79 12 119 17 92 13 186 57 190 90 5 33 -13 50
-74 68 -30 8 -56 20 -59 25 -12 19 -61 34 -101 31z"/>
<path d="M19010 35111 c0 -14 28 -33 40 -26 20 12 10 35 -15 35 -14 0 -25 -4
-25 -9z"/>
<path d="M16230 35100 c0 -5 12 -10 26 -10 14 0 23 4 19 10 -3 6 -15 10 -26
10 -10 0 -19 -4 -19 -10z"/>
<path d="M17012 35003 c-17 -7 -5 -23 19 -23 10 0 19 7 19 15 0 15 -14 18 -38
8z"/>
<path d="M17284 34929 c-9 -16 17 -30 41 -23 28 9 31 14 15 24 -20 13 -47 12
-56 -1z"/>
<path d="M19378 34728 c9 -9 15 -9 24 0 9 9 7 12 -12 12 -19 0 -21 -3 -12 -12z"/>
<path d="M17760 34621 c0 -5 7 -14 15 -21 18 -15 42 1 31 19 -8 13 -46 15 -46
2z"/>
<path d="M12572 35524 c-6 -39 -30 -118 -52 -177 -48 -129 -52 -187 -16 -263
21 -45 40 -64 65 -64 5 0 22 29 40 64 22 46 53 84 106 134 l74 69 -23 22 c-13
12 -49 68 -81 126 -32 57 -68 116 -80 131 l-22 27 -11 -69z"/>
<path d="M12688 33845 c-50 -113 -59 -223 -33 -410 13 -93 14 -117 3 -154 -27
-90 -101 -108 -204 -51 -173 95 -205 112 -258 130 -32 11 -81 22 -109 26 l-52
7 75 -50 c41 -28 149 -119 240 -203 257 -238 330 -286 422 -278 78 8 122 61
134 160 9 81 -19 217 -91 437 -74 229 -85 270 -94 371 l-6 75 -27 -60z"/>
<path d="M11085 31023 c-32 -48 -90 -133 -130 -188 -40 -55 -102 -148 -137
-207 -36 -58 -134 -189 -218 -291 -84 -102 -181 -224 -215 -272 -65 -91 -140
-223 -132 -231 2 -3 29 15 58 39 30 24 153 119 274 212 272 208 459 367 513
437 81 105 122 230 122 368 -1 97 -33 213 -62 218 -11 2 -34 -25 -73 -85z"/>
<path d="M10383 28671 c-114 -18 -277 -81 -342 -132 -23 -19 -20 -19 215 -19
260 0 431 -13 539 -40 39 -10 71 -17 73 -15 1 1 -20 37 -48 79 -76 112 -108
128 -264 132 -66 2 -144 -1 -173 -5z"/>
<path d="M13817 27707 c-3 -7 -1 -105 4 -217 7 -169 6 -214 -6 -269 -20 -83
-91 -234 -150 -316 -25 -35 -41 -66 -36 -69 13 -9 118 72 183 141 77 82 130
167 169 271 65 175 39 316 -78 422 -56 51 -77 60 -86 37z"/>
<path d="M24245 27883 c-186 -27 -371 -179 -409 -336 -6 -26 -5 -27 21 -21 61
15 189 65 252 100 130 71 307 222 286 243 -12 11 -108 21 -150 14z"/>
<path d="M9955 26405 c-94 -75 -207 -137 -376 -205 -138 -55 -246 -115 -364
-201 -78 -56 -175 -148 -145 -136 8 3 78 31 155 62 172 69 344 120 462 136
157 20 243 69 311 176 48 75 82 233 50 233 -7 0 -49 -29 -93 -65z"/>
<path d="M24542 25999 c-23 -12 -63 -44 -88 -73 -37 -42 -50 -70 -79 -161 -45
-146 -118 -426 -112 -432 8 -7 96 127 169 257 36 63 79 138 96 165 28 44 102
230 102 255 0 17 -43 11 -88 -11z"/>
<path d="M20070 16973 c-83 -28 -267 -148 -395 -257 l-30 -26 65 29 c36 16
100 45 144 65 43 20 124 52 180 72 84 29 246 115 246 130 0 11 -170 1 -210
-13z"/>
<path d="M20194 16445 c-239 -66 -372 -128 -471 -218 -52 -47 -113 -128 -113
-149 0 -5 28 11 63 35 65 47 177 104 365 186 119 52 238 117 287 157 26 20 27
24 10 23 -11 0 -74 -15 -141 -34z"/>
<path d="M20965 16329 c-227 -40 -378 -92 -601 -209 -278 -145 -374 -217 -699
-523 -6 -6 20 -7 70 -4 162 11 339 99 536 267 214 183 352 269 631 393 236
105 216 96 193 96 -11 -1 -69 -9 -130 -20z"/>
<path d="M12315 16524 c-38 -8 -104 -32 -145 -52 -94 -46 -85 -48 150 -33 194
12 314 4 406 -28 30 -11 54 -16 54 -11 0 19 -96 91 -149 111 -74 28 -219 35
-316 13z"/>
<path d="M11816 15948 c-111 -12 -119 -19 -64 -52 112 -65 319 -120 503 -132
179 -11 380 26 492 92 46 26 47 28 23 35 -35 11 -312 47 -450 59 -137 12 -394
11 -504 -2z"/>
<path d="M12205 14384 c84 -203 340 -318 753 -338 l112 -6 -16 25 c-9 14 -37
40 -63 59 -100 73 -230 125 -504 200 -144 40 -203 59 -280 91 -18 7 -18 6 -2
-31z"/>
<path d="M12600 13876 c0 -5 246 -139 370 -201 52 -27 257 -125 455 -219 199
-95 409 -200 469 -233 61 -35 105 -55 102 -47 -3 9 -22 39 -41 69 -176 265
-623 518 -1076 610 -108 21 -279 34 -279 21z"/>
<path d="M13135 12128 c88 -75 235 -221 285 -283 26 -33 111 -154 188 -270 77
-115 171 -247 210 -291 118 -136 273 -249 422 -307 121 -47 121 -47 -14 94
-139 145 -250 286 -371 474 -195 301 -325 437 -507 534 -68 36 -162 71 -233
86 -28 6 -27 3 20 -37z"/>
<path d="M15325 7885 c-100 -27 -724 -344 -696 -353 21 -7 209 28 391 73 96
24 215 53 264 64 52 13 123 39 175 66 89 46 182 111 188 132 11 32 -223 45
-322 18z"/>
</g>
</svg>
