<?xml version="1.0" standalone="no"?>
<!DOCTYPE svg PUBLIC "-//W3C//DTD SVG 20010904//EN"
 "http://www.w3.org/TR/2001/REC-SVG-20010904/DTD/svg10.dtd">
<svg version="1.0" xmlns="http://www.w3.org/2000/svg"
 width="515.000000pt" height="484.000000pt" viewBox="0 0 515.000000 484.000000"
 preserveAspectRatio="xMidYMid meet">

<g transform="translate(0.000000,484.000000) scale(0.100000,-0.100000)"
fill="#000000" stroke="none">
<path d="M2778 4583 c7 -3 16 -2 19 1 4 3 -2 6 -13 5 -11 0 -14 -3 -6 -6z"/>
<path d="M2447 4569 c-9 -6 -15 -14 -12 -20 4 -5 -4 -9 -17 -9 -20 -1 -21 -2
-5 -11 25 -15 21 -29 -10 -30 -21 -1 -23 -2 -8 -6 36 -9 43 -25 8 -20 -18 3
-35 1 -39 -4 -3 -5 6 -9 20 -9 14 0 26 -4 26 -9 0 -5 -10 -7 -22 -4 -19 4 -20
3 -8 -6 12 -8 7 -11 -20 -11 -20 0 -47 -7 -60 -16 -14 -9 -7 1 16 22 23 22 49
54 59 73 14 27 1 18 -58 -43 -48 -50 -80 -75 -88 -70 -8 4 -10 3 -5 -5 4 -6 0
-14 -11 -18 -25 -8 -83 -64 -77 -74 5 -8 -15 -23 -31 -24 -12 -1 -7 -39 6 -43
13 -5 10 -24 -7 -47 -16 -20 -16 -20 -9 3 10 35 -3 26 -25 -18 -20 -38 -35
-55 -24 -26 3 8 2 16 -3 19 -10 6 -12 -5 -16 -83 -2 -30 -8 -54 -13 -53 -6 1
-18 -57 -29 -133 -9 -74 -22 -134 -27 -134 -5 0 -7 -4 -3 -9 13 -22 -44 -126
-115 -211 -18 -21 -18 -20 1 7 12 18 20 36 16 39 -15 15 -37 -9 -66 -70 -22
-46 -36 -64 -46 -60 -11 5 -12 11 -4 25 5 11 7 24 4 29 -9 14 54 141 88 178
17 17 26 32 20 32 -23 0 -108 -109 -146 -188 -22 -45 -42 -80 -45 -78 -10 10
31 101 70 155 21 30 36 57 33 59 -5 5 -82 -78 -100 -107 -5 -9 -20 -41 -33
-71 -21 -49 -23 -42 -6 25 2 11 -4 4 -15 -15 -19 -34 -19 -34 -23 -10 l-4 25
-14 -30 c-16 -38 -14 -149 5 -211 16 -55 0 -45 -20 12 -8 22 -14 31 -15 21 0
-10 7 -34 15 -54 12 -27 12 -33 2 -24 -8 6 -16 8 -20 5 -5 -5 -21 62 -31 126
-2 14 -4 -6 -5 -45 -1 -56 -4 -66 -12 -51 -7 11 -9 43 -6 80 6 61 6 61 -8 26
l-15 -35 4 35 c2 19 7 44 11 55 l7 20 -17 -20 c-9 -11 -22 -33 -27 -48 -6 -15
-12 -26 -15 -23 -9 9 36 96 54 103 20 7 191 173 179 173 -4 0 -21 -9 -37 -21
-16 -11 -37 -22 -48 -24 -28 -5 -101 -53 -101 -67 0 -6 8 -4 19 6 14 12 21 14
26 6 4 -7 2 -17 -5 -23 -10 -9 -11 -9 -6 1 17 30 -13 6 -59 -48 -27 -32 -53
-56 -58 -53 -9 5 21 58 46 81 17 15 17 15 11 -4 -7 -18 -6 -18 11 -2 26 24 12
33 -32 20 -23 -7 -42 -8 -54 -2 -10 6 -39 10 -66 10 -26 0 -56 7 -66 15 -22
16 -39 11 -83 -21 -20 -15 -53 -25 -93 -30 -52 -6 -59 -9 -49 -21 10 -12 7
-14 -17 -11 -17 2 -30 -2 -33 -11 -3 -8 0 -11 7 -7 6 4 11 2 11 -4 0 -7 -6
-10 -14 -7 -21 8 -66 -65 -66 -106 0 -37 32 -75 65 -79 11 -1 45 1 76 6 66 9
99 -6 119 -53 26 -63 58 -81 206 -112 154 -33 239 -61 270 -90 17 -16 20 -28
16 -75 -3 -31 0 -59 5 -63 5 -3 6 -32 3 -66 -4 -34 -8 -46 -9 -27 0 21 -5 31
-12 26 -6 -3 -9 -24 -7 -45 2 -22 0 -39 -4 -39 -5 0 -8 6 -9 13 -1 6 -5 -4
-10 -23 -5 -19 -6 -50 -3 -69 3 -19 1 -37 -5 -40 -5 -4 -11 -28 -13 -54 -2
-26 -6 -47 -10 -47 -5 0 -8 -16 -8 -36 0 -19 -4 -33 -9 -30 -5 3 -11 -1 -14
-8 -3 -8 -32 -31 -64 -52 -67 -42 -73 -49 -73 -87 0 -31 7 -35 76 -47 l49 -8
-41 -1 c-23 0 -55 4 -73 10 -41 14 -53 4 -15 -13 16 -6 31 -13 33 -14 1 -2 -4
-13 -12 -25 -11 -16 -13 -28 -6 -46 5 -14 6 -29 3 -35 -5 -7 -2 -8 6 -3 10 6
12 4 8 -7 -4 -8 2 -28 11 -44 33 -55 81 -143 81 -150 0 -3 -7 0 -16 7 -15 12
-15 10 -1 -21 33 -78 41 -91 54 -86 9 4 13 0 11 -12 -2 -9 2 -16 9 -15 8 2 10
-4 6 -13 -5 -14 -9 -13 -25 7 -20 25 -109 158 -146 219 -12 19 -22 30 -22 23
0 -6 17 -40 39 -75 21 -35 51 -85 66 -113 16 -27 39 -60 51 -72 19 -19 20 -23
6 -23 -9 0 -27 15 -40 33 -12 17 -34 46 -48 62 l-26 30 27 -50 c15 -28 43 -61
61 -75 73 -53 79 -59 64 -73 -10 -10 -11 -9 -5 2 6 11 4 13 -8 8 -9 -3 -16 -3
-14 1 1 4 -1 8 -5 10 -4 1 -28 24 -52 50 -52 54 -62 51 -14 -4 31 -36 32 -37
8 -29 l-25 7 21 -22 c11 -12 29 -23 40 -24 10 -2 18 -8 17 -12 0 -5 10 -17 23
-27 13 -10 24 -13 24 -7 0 5 -5 10 -11 10 -5 0 -7 5 -3 11 5 8 10 6 16 -5 5
-9 6 -20 3 -26 -3 -5 11 -19 32 -30 23 -13 29 -18 14 -14 -42 11 -155 89 -170
117 -13 25 -129 122 -136 115 -10 -9 177 -179 234 -213 54 -32 76 -40 138 -45
68 -5 108 2 66 13 -10 2 2 2 27 0 45 -5 85 -25 73 -36 -10 -10 -43 -8 -43 2 0
6 -16 3 -35 -5 -43 -18 -189 -20 -260 -4 -27 6 -68 13 -90 14 -54 4 -118 38
-192 102 -50 45 -62 61 -68 95 -7 39 8 99 25 99 4 0 11 -12 15 -27 3 -15 20
-45 36 -68 17 -23 25 -41 19 -43 -7 -3 -5 -11 6 -23 9 -10 12 -19 7 -19 -14 0
-83 77 -83 92 0 6 -2 9 -5 6 -13 -13 22 -61 74 -101 75 -59 101 -73 139 -76
13 -1 14 -3 4 -10 -11 -7 -10 -10 3 -15 23 -8 27 -8 21 3 -4 5 4 7 16 4 23 -5
23 -5 3 10 -11 8 -31 18 -45 22 -33 10 -116 71 -124 90 -7 18 5 19 24 3 8 -7
3 1 -12 17 -31 35 -81 140 -75 158 2 6 13 -8 24 -33 11 -25 28 -51 37 -59 15
-12 14 -7 -4 28 -13 23 -20 44 -17 47 3 3 12 -7 21 -23 8 -16 22 -36 32 -43 9
-8 2 8 -15 35 -17 27 -31 56 -31 64 0 13 2 13 9 3 5 -8 6 6 4 35 -3 26 0 61 6
76 l11 28 25 -28 26 -28 -21 43 c-11 23 -16 42 -11 42 5 0 12 -6 15 -12 3 -7
4 -2 1 12 -2 15 4 39 15 58 35 58 21 64 -27 11 -27 -28 -47 -56 -45 -61 8 -27
-26 -89 -78 -143 -31 -33 -60 -68 -64 -78 -3 -10 -10 -15 -16 -12 -6 4 -10 -6
-10 -22 0 -16 -7 -38 -15 -49 -15 -19 -15 -19 -9 1 l7 20 -16 -20 c-9 -11 -17
-29 -17 -40 0 -11 -18 -56 -40 -99 -28 -55 -40 -92 -40 -121 0 -23 -11 -74
-25 -114 -13 -39 -31 -125 -40 -191 -8 -65 -20 -131 -26 -147 -5 -15 -7 -38
-4 -51 3 -14 2 -21 -4 -18 -7 4 -8 -24 -5 -81 6 -93 19 -123 64 -152 l25 -15
-24 27 c-29 32 -21 35 17 7 15 -11 51 -24 81 -30 82 -15 103 -12 51 9 -87 33
-168 105 -189 167 l-11 29 18 -25 c28 -40 51 -60 70 -60 14 0 12 5 -9 23 -15
12 -35 34 -44 49 -9 15 -20 26 -24 24 -3 -2 -7 14 -7 36 -2 44 8 40 25 -12 6
-19 23 -48 37 -65 l25 -30 -26 42 c-34 58 -32 66 7 19 32 -39 116 -86 153 -85
11 0 -6 13 -40 29 -60 29 -121 77 -111 87 3 3 17 -2 31 -11 15 -10 32 -15 38
-12 7 2 4 5 -5 5 -10 1 -27 14 -39 30 -15 20 -27 27 -42 23 -14 -3 -18 -1 -13
7 4 6 12 9 17 6 13 -9 11 6 -6 35 -8 14 -14 45 -15 69 0 51 12 49 15 -3 2 -40
34 -92 74 -120 l26 -19 -26 29 c-58 65 -80 117 -31 73 33 -30 136 -101 177
-121 33 -17 150 -35 125 -20 -8 5 -33 13 -55 17 -43 7 -183 77 -166 83 5 2 45
-15 89 -38 77 -40 82 -41 161 -38 44 2 81 2 81 0 0 -1 -10 -7 -22 -13 -19 -8
-15 -9 20 -5 23 2 42 2 42 0 0 -13 -91 -44 -131 -44 -26 0 -50 -4 -54 -9 -3
-6 16 -7 47 -4 69 7 56 -5 -40 -39 l-77 -27 60 5 c59 4 60 4 30 -11 -25 -13
-26 -15 -6 -11 40 8 9 -13 -34 -23 l-40 -9 34 -1 c52 -2 29 -13 -41 -21 l-63
-7 85 -2 c58 -1 80 -4 70 -11 -10 -6 -3 -8 25 -4 l40 6 -28 -26 c-34 -31 -21
-35 17 -5 26 20 37 14 14 -9 -7 -7 -8 -12 -2 -12 6 0 23 13 39 30 16 16 30 28
33 26 9 -10 -21 -47 -49 -62 -17 -8 -28 -18 -25 -22 9 -8 -118 -50 -174 -57
-40 -5 -37 -3 28 19 41 13 77 28 80 31 4 4 -3 4 -15 1 -64 -20 -252 0 -289 30
-18 15 -17 15 9 9 38 -8 34 2 -10 20 -21 9 -48 26 -61 38 l-23 22 11 -30 c6
-17 19 -38 28 -49 27 -30 113 -66 162 -67 43 -1 44 -1 15 -10 -36 -11 -88 -3
-130 19 -16 9 -34 17 -40 17 -5 0 -16 4 -23 9 -19 11 1 -25 22 -44 19 -15 21
0 4 19 -11 11 -9 11 10 2 18 -10 20 -15 12 -31 -8 -15 -6 -24 7 -41 25 -29
105 -69 140 -69 70 0 200 12 218 20 61 26 77 18 51 -29 -9 -16 -11 -35 -5 -60
7 -33 6 -34 -7 -17 -19 27 -26 16 -14 -21 12 -33 82 -73 128 -73 84 0 165 62
249 190 20 30 51 73 68 95 50 62 58 82 46 115 -6 19 -6 30 1 32 5 2 1 14 -9
27 l-19 23 4 -42 c2 -23 -1 -47 -7 -53 -8 -8 -11 -8 -11 1 0 7 -5 12 -11 12
-8 0 -8 -4 0 -14 9 -10 4 -25 -23 -64 -18 -28 -44 -73 -57 -101 -12 -28 -26
-48 -31 -45 -5 4 -21 -5 -35 -17 -15 -13 -23 -18 -19 -11 5 9 3 13 -5 11 -42
-5 -38 5 11 29 30 15 54 32 53 38 -1 6 11 24 27 39 33 32 42 59 10 30 -17 -15
-15 -7 11 49 28 59 31 75 26 124 -5 48 -11 61 -43 89 -39 36 -53 38 -35 5 24
-44 8 -166 -26 -202 -12 -13 -13 -13 -9 0 4 8 2 42 -3 75 -5 33 -9 52 -10 42
-3 -47 -45 -119 -85 -146 -69 -47 -73 -46 -19 5 29 27 59 66 68 86 19 46 19
74 0 33 -7 -16 -25 -43 -39 -60 l-26 -30 27 55 c24 46 28 67 28 134 0 54 4 80
13 83 8 3 12 -6 12 -26 0 -16 5 -33 11 -37 9 -5 10 1 5 20 -6 26 8 35 30 19 5
-5 -2 2 -16 14 -14 13 -33 23 -42 23 -10 0 -18 7 -18 15 0 13 -2 14 -14 3 -9
-9 -11 -17 -4 -25 5 -7 7 -33 3 -60 -18 -127 -47 -182 -130 -241 -32 -23 -50
-43 -48 -52 4 -13 3 -13 -5 -1 -9 12 -17 12 -54 -2 -70 -27 -79 -19 -13 12 42
19 68 40 88 68 45 65 112 243 92 243 -4 0 -30 -21 -58 -46 -28 -25 -60 -49
-71 -55 -12 -5 -8 0 8 13 69 53 106 91 145 149 22 34 41 58 41 53 0 -5 7 -1
15 9 7 11 11 25 9 32 -4 10 -17 8 -58 -10 -60 -27 -224 -60 -261 -52 -14 2
-25 0 -25 -4 0 -5 28 -9 63 -10 61 -1 62 -1 22 -11 -57 -13 -102 -4 -201 44
-73 36 -91 49 -120 92 -19 28 -34 60 -34 70 0 14 9 6 28 -25 16 -24 40 -53 53
-64 l24 -20 -19 23 c-20 23 -10 31 14 10 8 -7 0 3 -18 23 -35 39 -87 154 -58
130 9 -8 16 -18 16 -23 0 -5 12 -25 27 -44 27 -36 154 -109 176 -101 7 2 -8
14 -33 27 -123 63 -147 99 -156 233 l-4 72 16 -50 c16 -50 61 -121 71 -111 3
2 -4 15 -16 27 -21 22 -52 101 -50 128 0 12 3 10 8 -4 5 -11 6 12 3 53 -2 39
-2 72 1 72 4 0 11 -19 17 -42 15 -57 56 -125 83 -139 22 -12 22 -12 3 10 -11
11 -16 21 -11 21 4 0 -4 12 -19 26 -32 32 -46 81 -45 154 0 59 12 49 23 -21 4
-19 13 -44 22 -55 15 -19 16 -19 9 1 -20 56 -19 61 4 35 17 -19 20 -20 13 -5
-13 27 -43 147 -39 152 3 2 16 -21 31 -51 25 -52 87 -116 111 -116 5 0 -3 10
-18 21 -27 21 -77 105 -77 131 0 7 13 -6 29 -30 15 -24 39 -51 52 -60 22 -15
22 -14 -4 17 -15 18 -25 36 -23 39 3 3 14 -6 25 -20 30 -37 147 -87 218 -93
33 -2 82 -9 109 -15 27 -6 85 -10 128 -9 54 1 81 -2 84 -10 3 -8 -8 -9 -34 -5
-35 5 -36 5 -20 -11 9 -9 23 -15 30 -12 7 3 19 0 25 -6 8 -8 11 -8 11 1 0 6 7
9 15 6 10 -4 15 0 15 15 0 14 -5 19 -15 15 -8 -4 -15 -1 -15 5 0 6 9 11 20 11
26 0 25 0 62 12 18 5 52 12 75 15 56 6 73 -18 73 -107 0 -80 10 -146 20 -130
5 8 9 4 13 -9 3 -14 1 -19 -6 -14 -7 4 -8 0 -4 -11 4 -10 7 -33 7 -52 0 -21 8
-42 20 -54 12 -12 20 -34 20 -52 1 -18 7 -44 15 -58 7 -14 11 -37 8 -51 -4
-20 3 -32 34 -59 21 -19 37 -35 36 -37 -1 -1 5 -19 13 -38 68 -164 92 -195
148 -195 76 0 102 28 141 150 9 30 30 69 47 85 63 65 138 179 137 210 0 16 -3
24 -6 17 -2 -6 -9 -9 -14 -6 -6 3 -6 11 2 20 6 7 15 12 19 9 4 -3 10 4 13 15
5 20 5 20 -24 -1 l-30 -21 31 48 c16 26 30 59 30 73 0 18 -8 8 -30 -37 -17
-33 -41 -70 -53 -80 -12 -11 -45 -40 -72 -65 -28 -25 -64 -48 -80 -52 -25 -5
-23 -3 10 13 39 18 77 61 81 91 2 7 7 18 13 24 6 6 11 14 11 18 0 4 -13 -6
-29 -22 -16 -16 -39 -29 -51 -29 -11 0 -35 -7 -51 -16 -23 -11 -57 -15 -137
-13 -143 2 -179 21 -224 121 -23 51 -15 48 17 -6 32 -55 52 -73 90 -81 30 -6
29 -6 -4 10 -40 18 -37 30 4 15 16 -6 69 -13 119 -17 81 -5 96 -3 139 17 26
12 46 24 44 26 -1 2 -25 -3 -52 -11 -63 -19 -168 -19 -233 0 -54 16 -115 67
-106 89 3 8 -2 30 -10 51 -9 21 -16 58 -16 83 l0 45 19 -22 c12 -13 22 -18 26
-11 3 5 16 10 28 10 24 1 23 1 -30 38 -10 7 -3 5 16 -4 19 -9 51 -17 73 -18
21 0 38 -4 38 -8 0 -5 30 -8 67 -8 79 0 81 7 3 11 -30 1 -65 9 -77 17 -13 8
-30 12 -38 8 -10 -4 -14 -2 -9 5 3 6 17 9 30 6 13 -2 24 -1 24 4 0 4 -12 10
-27 12 -25 4 -24 4 7 7 34 2 34 3 -15 15 l-50 13 82 1 c68 1 99 7 193 41 61
22 115 40 120 40 5 0 11 -8 15 -18 3 -11 17 -24 32 -31 l26 -12 -22 -20 c-30
-28 -26 -31 12 -13 31 15 36 15 66 -1 31 -16 32 -17 17 -38 -9 -12 -21 -31
-28 -42 -10 -18 -10 -19 5 -6 12 10 17 10 17 1 0 -6 -28 -42 -62 -78 -54 -57
-57 -62 -23 -37 40 29 38 22 -10 -34 l-20 -24 26 17 c29 18 82 94 123 174 18
36 32 52 46 52 10 0 21 4 24 8 2 4 -10 6 -28 4 -32 -4 -114 23 -103 34 3 3 19
-2 36 -10 16 -9 43 -16 58 -15 l28 1 -30 7 c-56 14 -184 96 -170 109 6 7 75
-30 75 -40 0 -15 58 -37 105 -39 47 -3 50 -1 101 54 64 69 72 94 51 161 -14
43 -14 48 -1 31 8 -11 19 -36 25 -56 9 -30 8 -42 -9 -75 -11 -21 -39 -57 -61
-79 -23 -21 -41 -46 -41 -54 0 -10 7 -8 25 9 21 20 28 22 50 12 20 -9 27 -9
30 1 2 6 11 35 19 62 14 48 14 25 -1 -45 -4 -16 -2 -22 4 -15 10 10 44 155 42
178 -1 7 -7 -6 -15 -28 l-14 -40 6 40 c7 47 12 57 25 50 5 -4 9 -1 9 4 0 6 -5
11 -11 11 -5 0 -7 5 -4 10 3 6 -2 10 -12 10 -17 1 -17 1 0 11 9 6 15 14 12 20
-4 5 -2 9 3 9 5 0 22 19 38 43 16 23 51 68 78 99 40 46 53 55 67 48 21 -12 41
10 45 48 3 26 2 26 -12 8 -8 -11 -14 -26 -14 -33 0 -14 -16 -18 -23 -5 -2 4 6
30 18 57 20 43 24 47 31 30 4 -11 12 -23 18 -27 6 -4 6 -11 -2 -20 -6 -8 -10
-24 -7 -36 2 -11 -5 -32 -16 -46 -11 -15 -17 -31 -13 -38 4 -7 3 -10 -1 -5 -5
4 -17 -1 -28 -10 -15 -13 -18 -14 -12 -3 4 8 -15 -7 -44 -35 -28 -27 -51 -45
-51 -40 0 5 -13 -4 -30 -20 -16 -16 -30 -34 -30 -39 0 -6 14 5 30 24 16 19 29
31 29 25 0 -17 -49 -66 -59 -60 -6 4 -5 -4 1 -19 l12 -26 66 58 c52 45 62 51
47 27 -18 -30 -17 -29 15 4 18 19 34 41 35 48 1 7 16 34 34 60 17 26 30 57 29
68 -1 11 -1 27 0 35 1 13 3 13 14 0 7 -8 24 -21 39 -29 16 -8 35 -25 43 -38 9
-12 21 -23 27 -23 7 0 5 6 -4 13 -9 6 -30 52 -47 100 -25 71 -31 104 -30 165
1 133 16 126 21 -10 4 -96 9 -133 22 -153 9 -14 21 -23 27 -20 5 4 8 1 7 -6
-2 -7 3 -13 10 -14 7 0 16 -5 20 -11 4 -6 23 -21 42 -33 41 -24 28 -28 -24 -6
-50 21 -45 8 7 -16 l42 -19 -38 4 c-48 6 -40 -10 20 -36 26 -11 52 -16 65 -13
13 5 18 3 14 -4 -4 -6 12 -13 44 -17 27 -4 50 -10 50 -15 0 -5 7 -9 15 -9 8 0
15 4 15 8 0 5 7 9 15 9 8 0 12 -4 9 -9 -7 -11 94 1 116 13 10 5 11 8 3 9 -20
0 -15 30 5 30 9 0 30 9 46 19 17 11 35 17 40 14 6 -3 8 -2 3 2 -8 10 21 45 38
45 6 0 22 11 34 24 21 22 16 21 -50 -11 -85 -42 -163 -52 -277 -34 -82 13
-120 29 -172 74 -36 31 -80 107 -80 139 0 10 -7 29 -15 41 -19 30 -55 146 -54
177 0 14 4 34 8 44 7 17 11 13 31 -27 13 -25 37 -59 54 -74 l30 -28 -28 34
c-31 39 -86 144 -86 165 0 8 5 18 10 21 17 10 60 -23 60 -46 0 -37 30 -85 95
-155 35 -38 61 -73 58 -79 -4 -5 -3 -7 1 -3 5 4 24 -2 44 -12 21 -11 61 -25
90 -33 29 -7 50 -16 47 -18 -3 -3 2 -6 10 -6 8 0 15 3 15 7 0 4 20 5 45 3 94
-10 178 41 225 137 12 25 52 76 89 115 37 39 20 25 -39 -32 -110 -106 -132
-118 -236 -130 -74 -8 -155 34 -264 138 -47 45 -71 73 -55 64 17 -10 41 -31
54 -47 34 -43 210 -128 263 -128 24 0 50 5 58 10 8 5 13 10 10 10 -3 0 -32 2
-65 4 -49 3 -76 12 -147 50 -48 26 -91 53 -95 59 -3 6 9 2 28 -10 19 -11 51
-26 72 -33 20 -6 43 -18 50 -25 8 -7 43 -15 81 -16 57 -3 69 -1 78 14 16 30
-4 40 -45 22 -46 -19 -81 -20 -74 -1 4 9 0 12 -13 9 -34 -9 -198 79 -168 90 7
2 -9 10 -35 17 -55 14 -59 20 -81 115 -24 101 -49 178 -63 193 -19 20 -17 156
2 172 12 10 15 10 15 -3 0 -8 9 -25 21 -38 18 -21 20 -21 14 -4 -4 11 -10 29
-12 40 -5 25 23 135 38 149 8 8 10 7 6 -4 -2 -8 7 -28 22 -44 l26 -28 -25 6
-25 7 25 -20 c14 -11 39 -21 57 -21 37 0 63 -9 63 -21 0 -15 -79 -10 -112 7
l-30 16 18 -31 c10 -17 49 -61 87 -98 58 -57 66 -63 52 -35 -9 18 -14 43 -12
55 4 19 4 19 6 -4 1 -16 18 -42 49 -72 26 -25 59 -65 74 -89 16 -24 41 -61 57
-83 46 -62 71 -119 78 -174 7 -59 23 -68 24 -13 l1 37 19 -40 20 -40 -4 34
c-4 33 -4 33 12 12 13 -17 19 -19 29 -9 16 16 15 50 0 67 -11 10 -9 12 7 11
39 -4 55 0 55 15 0 8 5 15 10 15 15 0 12 -16 -6 -30 -8 -8 -21 -27 -28 -45 -7
-17 -43 -57 -79 -89 -50 -43 -66 -64 -63 -80 3 -23 4 -23 44 -7 28 12 87 89
76 100 -3 3 -25 -16 -48 -42 -24 -26 -49 -47 -56 -47 -7 0 19 29 56 64 38 35
71 60 74 55 3 -5 36 25 74 67 60 66 67 78 61 102 -7 27 -8 27 -22 -13 -8 -22
-36 -65 -63 -95 -53 -58 -65 -58 -27 0 12 19 35 57 51 85 15 27 32 52 36 55 5
3 11 19 15 35 l6 30 -15 -30 c-11 -24 -15 -26 -15 -10 -1 17 -4 15 -19 -10
-11 -16 -26 -36 -36 -44 -16 -13 -16 -12 -5 12 16 35 4 93 -24 112 -12 8 -37
16 -57 16 -23 1 -28 3 -12 6 12 2 20 8 17 13 -7 12 48 40 78 40 34 0 75 -35
86 -73 9 -31 9 -31 10 -5 1 15 -10 40 -25 57 -22 26 -33 31 -70 31 l-43 0 21
35 c11 20 18 38 15 41 -2 3 -14 -11 -25 -31 -19 -31 -26 -35 -64 -35 -44 0
-43 5 7 31 l20 10 -20 -16 -20 -17 20 4 c13 2 21 12 22 28 2 14 5 41 9 61 8
47 -5 70 -61 108 -52 35 -60 37 -51 16 4 -10 -6 -17 -34 -25 -22 -6 -46 -20
-53 -31 -18 -25 -60 -17 -82 14 -21 31 -18 43 5 22 11 -10 20 -13 20 -7 0 5 9
8 22 4 14 -3 19 -2 14 6 -4 7 -25 15 -47 18 -31 5 -41 12 -45 31 -8 32 3 41
21 17 19 -26 19 -10 -1 29 -16 31 -17 31 -25 9 -19 -51 -121 -54 -179 -6 -42
36 -42 43 27 194 15 33 17 34 26 13 20 -45 80 -52 161 -18 16 7 17 6 7 -13 -6
-11 -11 -34 -11 -50 0 -35 -15 -50 -72 -67 -49 -16 -31 -20 22 -5 32 9 33 8
16 -5 -17 -13 -17 -15 -3 -15 9 0 21 8 26 18 9 14 10 11 11 -16 0 -24 9 -42
30 -64 28 -28 35 -30 82 -26 41 4 57 11 76 34 21 24 24 35 18 77 -6 55 -29 97
-52 97 -20 0 -91 -36 -100 -51 -4 -8 -3 -9 4 -5 7 4 12 2 12 -3 0 -13 -10 -14
-29 -2 -11 7 -10 12 7 29 11 11 24 21 29 23 6 2 8 21 5 43 -3 26 -7 34 -13 25
-5 -8 -9 -23 -9 -35 0 -11 -12 -31 -26 -45 l-26 -24 7 25 c5 14 13 61 20 105
8 58 13 73 18 55 3 -13 8 -22 11 -20 9 10 -25 114 -44 135 -19 20 -20 27 -9
71 6 27 22 72 35 99 31 67 48 201 36 284 -5 36 -7 74 -5 85 2 12 -5 3 -16 -19
-22 -45 -27 -73 -7 -36 12 22 14 17 20 -52 4 -42 2 -95 -3 -119 -6 -24 -13
-60 -16 -81 -3 -21 -14 -46 -25 -57 -10 -10 -21 -26 -24 -37 -3 -10 -4 5 -1
32 3 41 2 46 -6 25 -6 -14 -9 -44 -6 -67 2 -24 0 -43 -5 -43 -5 0 -7 -8 -3
-19 3 -11 0 -21 -8 -24 -9 -3 -13 -15 -10 -29 4 -19 -2 -27 -23 -36 -15 -7
-36 -24 -47 -38 -21 -27 -23 -27 -117 -8 -24 4 -25 8 -25 74 0 79 -7 75 104
64 l61 -7 0 -38 c0 -22 4 -39 9 -39 5 0 7 21 5 48 -2 40 -2 42 4 12 7 -31 9
-25 16 45 5 44 10 100 10 125 l1 45 -55 18 c-30 10 -74 19 -97 20 -24 1 -43 3
-43 5 0 12 47 62 59 62 11 0 10 -4 -5 -14 -18 -14 -18 -15 -1 -12 10 1 22 7
25 13 4 5 14 13 22 16 8 3 1 6 -17 6 -38 1 -56 21 -19 21 14 0 38 12 53 26
l28 27 -42 -7 c-23 -3 -49 -9 -58 -13 -32 -12 -11 19 25 39 45 24 81 23 114
-3 14 -11 26 -16 26 -11 0 12 -82 62 -101 62 -6 0 -18 -8 -25 -17 -7 -10 -15
-15 -19 -12 -3 4 7 22 22 40 l28 34 -27 -18 c-41 -26 -42 -21 -8 27 30 44 40
86 19 86 -5 0 -8 -4 -4 -10 7 -11 -64 -92 -75 -85 -4 3 -4 22 1 42 12 53 11
60 -8 68 -14 5 -15 3 -6 -6 8 -8 8 -19 1 -40 -12 -35 -27 -38 -30 -6 -6 80 -7
84 -19 67 -8 -11 -9 -1 -5 37 4 46 2 54 -15 64 -12 6 -23 8 -26 6 -2 -3 -18 9
-35 26 -34 36 -30 26 24 -57 21 -33 38 -64 38 -70 -1 -6 -10 7 -22 29 -31 59
-164 186 -233 222 -81 42 -195 73 -275 73 -36 1 -82 7 -102 14 -21 8 -35 10
-32 5 3 -5 -6 -5 -20 0 -18 7 -28 6 -36 -5 -16 -18 -31 -18 -24 0 4 10 -2 14
-19 12 -14 0 -23 -4 -21 -7 2 -4 -5 -14 -15 -23 -17 -15 -21 -15 -64 4 -25 11
-49 25 -52 30 -12 20 -25 9 -19 -15 6 -24 -10 -37 -18 -14 -3 8 -9 6 -20 -4
-14 -14 -18 -15 -28 -2 -7 8 -16 12 -21 9 -5 -3 -14 -2 -21 2 -8 5 -2 12 17
20 23 10 25 13 10 13 -11 0 -28 -4 -38 -10z m53 -49 c6 -11 8 -20 6 -20 -3 0
-10 9 -16 20 -6 11 -8 20 -6 20 3 0 10 -9 16 -20z m630 -21 c144 -44 281 -153
339 -271 31 -61 43 -110 20 -78 -9 12 -10 12 -5 -3 3 -10 6 -24 6 -30 0 -8 3
-7 9 2 28 44 66 -234 41 -300 -7 -19 -16 -56 -19 -82 l-6 -48 -30 29 c-40 39
-70 83 -71 104 -1 20 -24 51 -32 43 -3 -3 3 -15 14 -27 10 -13 -19 13 -66 58
-144 136 -258 207 -420 259 -74 24 -105 28 -240 32 -129 3 -167 1 -227 -15
-81 -20 -86 -17 -15 10 26 10 86 21 135 25 48 3 87 10 87 15 0 5 -20 8 -45 5
-25 -2 -45 -1 -45 3 0 9 51 20 90 20 15 0 41 7 56 15 16 8 40 15 53 15 13 0
21 3 17 7 -3 4 -24 6 -46 5 -22 -2 -40 2 -40 7 0 5 -8 12 -17 14 -11 3 -7 5
10 6 15 0 27 -3 27 -9 0 -5 5 -10 11 -10 6 0 9 7 5 15 -4 10 5 17 27 24 l32 9
-28 1 c-16 1 -26 5 -23 10 5 8 -40 2 -110 -15 -24 -5 -27 -4 -17 7 7 7 23 14
35 16 12 2 25 9 30 16 4 6 33 18 65 24 l58 12 -57 -4 c-31 -3 -65 -8 -75 -11
-15 -5 -15 -4 2 7 11 7 49 21 85 31 58 16 60 17 20 13 l-45 -5 30 16 30 15
-30 -5 c-25 -4 -23 -2 14 15 82 39 249 42 361 8z m-724 -122 c2 -13 -2 -13
-34 0 -19 8 -43 12 -54 10 -10 -3 -15 -1 -12 5 4 5 19 8 35 6 16 -3 29 -1 29
4 0 15 33 -9 36 -25z m-100 -33 c-9 -24 40 -67 70 -61 27 5 26 5 18 -17 -3 -9
-15 -16 -25 -16 -16 0 -18 -3 -9 -19 5 -11 10 -28 9 -38 0 -15 -2 -14 -9 4 -5
12 -28 32 -51 43 -30 16 -38 25 -30 33 7 7 18 7 36 -1 14 -7 36 -12 48 -11 18
0 17 2 -8 11 -16 6 -41 20 -54 32 -13 11 -21 15 -17 9 4 -7 2 -13 -4 -13 -6 0
-8 -5 -4 -11 4 -7 1 -10 -7 -7 -8 3 -13 11 -11 18 2 7 -5 9 -20 5 -20 -5 -19
-2 10 24 35 33 68 42 58 15z m404 2 c0 -3 -4 -8 -10 -11 -5 -3 -10 -1 -10 4 0
6 5 11 10 11 6 0 10 -2 10 -4z m-340 -16 c8 -5 11 -10 5 -10 -5 0 -17 5 -25
10 -8 5 -10 10 -5 10 6 0 17 -5 25 -10z m1130 -42 c0 -13 -23 -5 -28 10 -2 7
2 10 12 6 9 -3 16 -11 16 -16z m-1308 -60 c-10 -18 -36 -61 -56 -95 -21 -35
-39 -63 -42 -63 -6 0 20 50 49 94 12 18 30 48 39 65 9 17 20 31 23 31 4 0 -2
-15 -13 -32z m72 23 c4 -5 -3 -7 -14 -4 -23 6 -26 13 -6 13 8 0 17 -4 20 -9z
m-4 -33 c52 -30 67 -65 45 -107 -9 -18 -22 -34 -30 -37 -14 -6 -66 16 -100 42
-20 15 -19 15 10 69 16 30 31 55 33 55 2 0 21 -10 42 -22z m56 6 c18 -14 18
-14 -6 -3 -31 14 -36 19 -24 19 6 0 19 -7 30 -16z m507 -65 c189 -38 308 -101
436 -230 96 -97 134 -153 45 -67 -183 177 -340 254 -600 293 -53 8 -99 17
-102 20 -13 13 130 3 221 -16z m-236 5 c-3 -3 -12 -4 -19 -1 -8 3 -5 6 6 6 11
1 17 -2 13 -5z m-367 -104 c26 -23 22 -23 -22 -1 -24 12 -31 12 -54 -3 -22
-15 -25 -24 -22 -55 3 -34 1 -37 -19 -33 -32 6 -29 35 8 93 30 48 31 48 57 34
15 -8 38 -24 52 -35z m565 10 c3 -5 -1 -10 -9 -10 -9 0 -16 5 -16 10 0 6 4 10
9 10 6 0 13 -4 16 -10z m-228 -24 c-42 -13 -85 -30 -95 -38 -9 -9 -28 -21 -42
-28 l-25 -13 20 23 c36 40 128 77 195 78 14 1 -10 -9 -53 -22z m-362 -36 c0
-16 -6 -26 -18 -28 -19 -4 -32 20 -23 44 9 25 41 13 41 -16z m160 -20 c-9 -18
-19 -30 -22 -27 -3 3 3 19 13 36 23 39 30 32 9 -9z m244 6 c-2 -2 -22 -6 -44
-9 -28 -5 -34 -4 -20 3 19 8 73 14 64 6z m-321 -56 c11 -32 10 -33 -3 -16 -8
11 -15 29 -15 40 0 25 4 19 18 -24z m405 33 c-13 -2 -33 -2 -45 0 -13 2 -3 4
22 4 25 0 35 -2 23 -4z m-599 -19 c9 -3 13 -11 10 -16 -4 -6 -9 -5 -14 3 -5 8
-12 -1 -19 -26 -6 -21 -8 -42 -5 -46 5 -9 -26 -62 -32 -56 -2 2 0 17 5 33 5
16 14 48 20 72 13 46 12 45 35 36z m120 -14 c-6 -6 -19 -7 -30 -3 -17 6 -17 8
6 13 29 8 38 4 24 -10z m817 -77 c-14 -48 -14 -62 0 -43 8 11 9 5 4 -25 -4
-29 -3 -36 4 -25 18 25 12 -5 -13 -71 -13 -35 -45 -127 -71 -204 -26 -77 -54
-147 -61 -156 -8 -8 -14 -20 -14 -25 0 -6 -7 -19 -15 -30 -9 -12 -13 -13 -11
-4 13 48 16 71 7 66 -6 -4 -8 8 -4 31 9 57 69 275 87 314 l16 34 -6 -35 c-11
-60 2 -30 35 85 39 136 40 139 47 132 3 -3 1 -22 -5 -44z m-881 3 c0 -2 -18
-15 -40 -30 -22 -14 -40 -24 -40 -22 0 5 71 56 77 56 2 0 3 -2 3 -4z m713 -31
c-3 -9 -8 -14 -10 -11 -3 3 -2 9 2 15 9 16 15 13 8 -4z m262 -62 c-11 -58 -27
-77 -19 -23 7 47 11 60 21 60 3 0 2 -17 -2 -37z m545 26 c35 -5 70 -15 77 -21
14 -11 19 -53 6 -45 -5 3 -8 -22 -8 -54 0 -74 -10 -82 -90 -74 -110 11 -105 7
-105 90 l0 74 58 7 57 8 -55 12 c-69 15 -27 17 60 3z m-73 -15 c-3 -3 -12 -4
-19 -1 -8 3 -5 6 6 6 11 1 17 -2 13 -5z m-183 -20 c5 -14 4 -15 -9 -4 -17 14
-19 20 -6 20 5 0 12 -7 15 -16z m-1124 -76 c-1 -57 -3 -69 -11 -55 -10 17 -4
127 7 127 2 0 4 -33 4 -72z m771 -27 c-12 -38 -30 -79 -41 -92 -25 -31 -25
-27 6 56 14 39 31 86 37 105 22 64 20 3 -2 -69z m-1061 -10 c-11 -39 -25 -73
-30 -76 -6 -3 -10 -15 -10 -26 0 -18 -58 -129 -95 -182 -17 -24 -20 -16 -5 14
6 11 7 26 2 35 -7 13 -11 12 -28 -7 -14 -16 -15 -23 -6 -26 6 -3 12 -9 12 -14
0 -6 -4 -8 -9 -5 -5 4 -12 0 -14 -6 -3 -7 -6 -2 -6 11 -1 20 45 103 114 206
11 17 36 63 55 102 41 85 50 73 20 -26z m895 63 c-4 -22 -3 -34 3 -30 6 4 6
-10 0 -36 -12 -55 -22 -64 -14 -13 6 32 2 28 -15 -23 -42 -120 -32 -37 12 106
14 43 23 41 14 -4z m-803 20 c4 -3 -2 -36 -13 -72 -14 -52 -15 -63 -4 -48 8
11 15 14 15 7 0 -7 5 -9 10 -6 14 9 13 -1 -11 -80 -56 -192 -60 -207 -49 -220
8 -10 8 -15 0 -20 -7 -4 -9 -18 -6 -34 6 -25 6 -25 -9 -7 -8 11 -15 31 -16 45
-1 20 -3 16 -11 -14 -12 -52 -4 -88 28 -130 21 -28 23 -35 11 -35 -22 0 -96
81 -97 104 0 37 -18 2 -23 -45 -3 -25 -10 -56 -16 -68 -7 -12 -11 -29 -9 -39
1 -9 -2 -18 -7 -19 -6 -1 -10 11 -10 27 0 17 -3 30 -7 30 -4 0 -5 8 -1 18 4
11 3 14 -4 7 -6 -5 -23 -43 -38 -83 -16 -39 -30 -70 -33 -68 -2 3 6 30 17 61
12 31 18 61 15 67 -4 6 -3 8 3 5 6 -4 17 12 26 34 14 34 14 39 1 28 -11 -9 -9
1 6 35 23 55 24 60 9 50 -8 -4 -8 0 0 15 7 12 9 27 5 33 -4 7 -3 8 4 4 11 -7
45 45 48 74 1 8 33 81 73 162 39 81 71 156 71 168 0 19 11 26 22 14z m1413
-44 c3 -6 -1 -17 -9 -26 -9 -8 -16 -11 -16 -6 0 5 -7 9 -16 9 -10 0 -14 -7
-10 -20 7 -27 -10 -8 -19 20 -5 18 -3 22 9 17 12 -4 16 0 16 15 0 18 3 20 19
11 11 -5 23 -15 26 -20z m15 -105 c0 -41 -3 -75 -7 -75 -6 0 -8 60 -3 143 0 4
2 7 5 7 3 0 5 -34 5 -75z m-1390 49 c0 -8 -5 -12 -10 -9 -6 4 -8 11 -5 16 9
14 15 11 15 -7z m135 -189 c26 -74 57 -133 111 -204 91 -121 220 -192 388
-213 81 -10 105 -10 173 5 94 20 200 72 282 138 68 54 83 51 21 -4 -80 -73
-173 -118 -314 -153 -66 -16 -115 -16 -266 0 -24 3 -182 77 -206 97 -8 7 -15
6 -20 -2 -4 -7 -3 -9 3 -6 5 3 17 -3 26 -13 24 -29 126 -77 212 -101 71 -19
85 -20 182 -9 57 7 106 10 109 8 2 -3 -7 -10 -22 -16 -14 -7 -23 -8 -19 -2 8
13 -1 13 -49 -1 -22 -6 -69 -14 -105 -18 -58 -7 -63 -9 -41 -18 23 -9 21 -11
-23 -17 -26 -4 -51 -4 -57 -1 -5 3 -10 1 -10 -4 0 -25 165 0 231 35 17 8 33
13 36 10 3 -2 -12 -14 -34 -25 -66 -35 -30 -23 73 24 170 78 188 88 242 127
39 29 56 37 69 30 14 -8 11 -12 -18 -27 -19 -10 -48 -29 -65 -41 -17 -13 -34
-24 -37 -24 -4 0 -30 -11 -59 -24 -29 -13 -68 -29 -86 -36 -39 -15 -72 -54
-72 -84 0 -16 -10 -25 -37 -35 -51 -17 -102 -39 -136 -57 -15 -9 -46 -21 -70
-29 -23 -7 -35 -13 -27 -14 22 -1 62 12 174 58 54 23 101 40 103 37 8 -8 -78
-172 -132 -250 -63 -90 -69 -108 -22 -63 l32 32 6 -101 c4 -84 9 -108 31 -145
33 -56 52 -72 111 -94 44 -17 46 -19 28 -31 -11 -8 -29 -44 -42 -81 -21 -65
-59 -115 -114 -151 -16 -10 -16 -12 -2 -8 9 3 17 1 17 -4 0 -10 -70 -70 -82
-70 -15 0 -2 36 31 90 31 50 65 139 57 148 -2 2 -10 -14 -16 -35 -18 -55 -76
-148 -105 -167 -18 -12 -25 -13 -25 -4 0 7 22 78 49 158 27 80 52 170 56 202
8 68 -8 132 -37 153 -12 8 -28 34 -35 57 -11 38 -10 51 14 126 14 45 23 85 21
88 -3 2 -19 -36 -37 -85 -30 -85 -31 -91 -17 -125 l15 -36 -30 15 c-27 15 -29
19 -23 53 4 20 13 55 21 77 25 69 25 67 -37 93 -67 28 -189 86 -187 88 2 2 30
-7 62 -20 60 -24 243 -51 257 -38 4 4 -19 8 -50 10 -31 2 -86 10 -122 18 -111
25 -403 174 -472 240 -25 24 -58 90 -78 154 -19 63 -13 122 33 318 23 99 68
223 65 182 -2 -46 3 -71 14 -64 7 5 8 3 3 -6 -4 -7 -9 -29 -11 -49 -1 -20 -9
-56 -18 -80 -9 -24 -16 -58 -16 -75 0 -17 -7 -56 -15 -86 -8 -30 -14 -77 -14
-105 1 -58 21 -125 33 -107 4 7 4 17 1 22 -3 6 -3 10 0 10 3 0 11 -13 16 -30
6 -16 15 -30 21 -30 6 0 7 7 3 18 -28 64 -36 123 -31 217 7 139 24 180 25 61
0 -71 5 -95 22 -122 27 -44 32 -43 13 1 -17 41 -18 71 -2 81 7 4 8 3 4 -4 -4
-7 -3 -12 2 -12 6 0 13 -16 16 -35 9 -44 70 -115 149 -172 l62 -44 -45 40
c-118 105 -156 156 -147 192 3 11 2 21 -3 24 -12 7 -38 95 -44 150 l-6 50 14
-47 c8 -26 24 -65 36 -85 32 -56 123 -173 133 -173 5 0 -4 15 -20 33 -45 51
-72 99 -98 177 -29 84 -48 211 -38 248 6 20 9 7 14 -53 4 -44 15 -102 24 -130z
m1120 138 c-4 -27 -15 -70 -26 -97 -10 -27 -16 -53 -13 -57 5 -9 -35 -92 -60
-124 -10 -12 -7 1 7 35 13 30 39 108 57 173 19 64 36 117 38 117 2 0 1 -21 -3
-47z m47 0 c-14 -37 -24 -83 -18 -83 3 0 10 18 16 41 6 23 14 39 17 35 3 -3
-3 -28 -13 -55 -10 -28 -21 -46 -24 -40 -4 6 -13 -10 -20 -36 -7 -25 -16 -48
-21 -50 -4 -3 -3 9 3 27 5 18 19 65 30 103 26 95 28 99 35 92 3 -4 1 -19 -5
-34z m-1123 -63 c0 -24 -2 -30 -8 -20 -14 24 -23 89 -14 103 9 14 20 -29 22
-83z m-729 57 c0 -2 -9 -12 -20 -22 -24 -21 -27 -14 -4 9 15 15 24 20 24 13z
m1891 -98 l-20 -64 3 72 c4 81 14 108 29 76 6 -14 2 -40 -12 -84z m66 14 c-2
-16 -4 -5 -4 22 0 28 2 40 4 28 2 -13 2 -35 0 -50z m-2190 1 c-3 -3 -12 -4
-19 -1 -8 3 -5 6 6 6 11 1 17 -2 13 -5z m1689 -8 c17 -17 18 -27 4 -23 -6 1
-19 -22 -29 -51 -10 -29 -23 -58 -30 -65 -18 -18 -14 7 14 74 13 34 22 65 19
70 -8 14 6 10 22 -5z m-1726 0 c0 -2 -12 -11 -27 -20 l-28 -17 24 20 c23 21
31 25 31 17z m2493 -14 c15 -16 14 -17 -23 -17 -22 0 -46 -8 -57 -18 -26 -23
-36 -22 -23 3 10 20 55 49 76 50 6 0 18 -8 27 -18z m35 -13 c-3 -8 -7 -3 -11
10 -4 17 -3 21 5 13 5 -5 8 -16 6 -23z m-2608 6 c-7 -8 -10 -21 -7 -30 4 -8 1
-17 -5 -21 -6 -4 -8 -3 -4 4 3 6 1 14 -4 17 -8 5 -6 13 6 26 20 22 32 26 14 4z
m140 0 c-7 -8 -18 -15 -24 -15 -6 0 -2 7 8 15 25 19 32 19 16 0z m-280 -19 c0
-3 -4 -8 -10 -11 -5 -3 -10 -1 -10 4 0 6 5 11 10 11 6 0 10 -2 10 -4z m2414
-41 c-4 -45 -28 -105 -42 -105 -4 1 -17 6 -29 13 -21 12 -22 14 -7 35 15 21
34 22 34 1 0 -6 -4 -8 -9 -4 -5 3 -13 0 -17 -6 -4 -7 -3 -9 4 -5 5 3 12 1 14
-5 2 -6 13 10 24 35 18 38 19 44 5 37 -27 -14 -94 -23 -87 -13 3 6 24 13 46
17 24 4 44 14 50 26 16 29 19 23 14 -26z m-878 -73 c1 -66 -1 -96 -6 -77 -14
55 -11 186 4 185 1 0 2 -48 2 -108z m1124 104 c0 -3 -11 -17 -24 -31 -16 -17
-25 -22 -28 -13 -3 7 5 20 16 30 20 17 36 23 36 14z m60 -6 c0 -5 -4 -10 -10
-10 -5 0 -10 5 -10 10 0 6 5 10 10 10 6 0 10 -4 10 -10z m-2555 -29 c-3 -6
-11 -11 -17 -11 -6 0 -6 6 2 15 14 17 26 13 15 -4z m2398 2 c-4 -10 -19 -39
-34 -64 -15 -25 -30 -57 -34 -70 -4 -13 -14 -33 -22 -44 -13 -18 -14 -15 -8
35 15 123 34 160 82 160 17 0 21 -4 16 -17z m-2355 -42 c-8 -31 -8 -53 0 -79
10 -34 10 -36 -4 -17 -12 15 -14 33 -10 74 6 51 14 76 21 69 2 -2 -1 -23 -7
-47z m-53 -1 c-1 -11 -4 -22 -7 -25 -4 -5 -4 34 1 43 4 8 7 -1 6 -18z m2135
16 c0 -2 -8 -10 -17 -17 -16 -13 -17 -12 -4 4 13 16 21 21 21 13z m40 -15
c-14 -27 -30 -35 -42 -23 -7 7 -1 15 18 26 37 19 37 20 24 -3z m91 -47 c-29
-64 -37 -50 -9 16 12 29 24 48 26 42 2 -6 -6 -32 -17 -58z m-2134 24 c-3 -8
-6 -5 -6 6 -1 11 2 17 5 13 3 -3 4 -12 1 -19z m2073 -63 c0 -28 -19 -93 -29
-99 -5 -3 -30 2 -56 10 l-47 17 6 41 c4 22 14 51 21 63 15 22 16 22 60 5 33
-12 45 -22 45 -37z m-2192 -1 c1 -26 0 -45 -3 -43 -7 8 -12 89 -5 89 4 0 8
-21 8 -46z m1971 -38 c-11 -20 -27 -36 -35 -36 -10 0 -4 13 17 40 39 48 48 46
18 -4z m-1880 -8 c1 -5 -3 -8 -9 -8 -5 0 -10 12 -9 28 0 24 1 25 9 7 5 -11 9
-23 9 -27z m168 -10 c-3 -8 -6 -5 -6 6 -1 11 2 17 5 13 3 -3 4 -12 1 -19z
m513 -26 c0 -15 -2 -15 -10 -2 -13 20 -13 33 0 25 6 -3 10 -14 10 -23z m641
-15 c-13 -13 -15 1 -4 30 7 17 8 17 11 -1 2 -10 -1 -23 -7 -29z m837 12 c8
-12 11 -24 7 -27 -3 -4 -10 0 -15 7 -4 8 -15 11 -25 8 -9 -4 -14 -3 -10 3 3 6
1 10 -5 10 -7 0 -6 5 2 14 16 17 29 12 46 -15z m-2178 11 c0 18 30 11 48 -12
9 -11 29 -35 45 -51 15 -17 27 -32 27 -35 0 -13 -66 51 -87 84 -10 16 -10 14
-3 -13 5 -18 12 -38 16 -45 5 -7 -12 4 -36 25 -24 20 -48 37 -52 37 -5 0 -6 5
-3 10 4 7 13 7 26 0 13 -7 19 -7 19 0z m1958 -32 c-2 -26 -16 -48 -30 -48 -10
0 -1 38 14 58 14 17 17 15 16 -10z m91 -24 c9 -10 -53 6 -63 17 -6 5 4 5 24
-1 18 -5 35 -12 39 -16z m566 16 c-3 -5 -12 -10 -18 -10 -7 0 -6 4 3 10 19 12
23 12 15 0z m-417 -34 c2 -10 -2 -29 -8 -42 -10 -18 -17 -21 -31 -14 -10 6
-28 10 -41 10 -32 0 -171 -47 -194 -66 -20 -17 -19 -16 34 2 9 4 -5 -10 -32
-30 -44 -32 -54 -35 -95 -30 -25 3 -47 6 -48 8 -7 7 112 89 176 121 59 29 89
38 150 42 53 4 69 9 56 14 -17 8 -17 8 5 6 15 -1 26 -9 28 -21z m-1391 -18
c-3 -7 -5 -2 -5 12 0 14 2 19 5 13 2 -7 2 -19 0 -25z m1103 28 c0 -2 -12 -11
-27 -20 l-28 -17 24 20 c23 21 31 25 31 17z m80 -1 c0 -2 -10 -10 -22 -16 -21
-11 -22 -11 -9 4 13 16 31 23 31 12z m613 -10 c-3 -9 -8 -14 -10 -11 -3 3 -2
9 2 15 9 16 15 13 8 -4z m-274 -59 c61 -8 62 -19 2 -18 -62 1 -111 33 -111 72
0 5 12 -4 28 -19 20 -20 42 -30 81 -35z m-1729 40 c0 -3 -4 -8 -10 -11 -5 -3
-10 -1 -10 4 0 6 5 11 10 11 6 0 10 -2 10 -4z m137 -24 l13 -27 -19 22 c-10
12 -21 20 -24 17 -3 -3 -7 -1 -10 3 -3 5 2 9 11 10 10 1 23 -10 29 -25z m-91
-19 c4 -10 6 -21 6 -25 -1 -4 16 -20 38 -34 22 -15 38 -29 35 -32 -6 -6 14
-32 25 -32 5 0 10 6 13 13 2 6 3 4 2 -5 -3 -19 63 -73 157 -129 62 -37 68 -44
41 -53 -10 -4 -38 -25 -62 -47 l-45 -42 25 -21 c14 -11 36 -29 49 -39 l25 -18
-25 12 c-14 6 -35 21 -47 32 -20 18 -26 19 -46 8 -22 -12 -31 -8 -103 46 -43
33 -99 74 -124 91 -25 18 -57 42 -72 53 l-26 22 -29 -21 c-18 -13 -29 -29 -28
-42 2 -30 67 -92 182 -172 87 -60 103 -76 103 -98 0 -15 11 -36 25 -50 14 -13
25 -31 25 -39 0 -13 2 -13 9 -2 7 11 27 3 98 -37 49 -28 119 -65 157 -83 l68
-32 -7 -46 c-3 -25 -17 -91 -31 -145 -13 -54 -22 -101 -19 -104 3 -3 5 1 5 8
0 7 2 11 5 8 3 -3 -3 -39 -15 -79 -11 -40 -20 -79 -20 -85 0 -6 21 -17 48 -24
39 -10 44 -14 27 -21 -12 -5 14 -7 70 -6 l90 2 45 92 c66 134 73 129 15 -11
-6 -14 -5 -17 3 -12 8 5 10 2 5 -9 -4 -12 -8 -13 -13 -5 -6 9 -10 7 -14 -7 -4
-11 -17 -30 -31 -43 -21 -20 -33 -22 -119 -21 -53 1 -107 6 -120 11 -22 8 -23
12 -15 58 4 27 12 67 18 88 6 21 9 40 6 42 -2 2 -8 -13 -14 -34 -5 -22 -15
-59 -21 -83 -15 -57 -18 -49 -11 26 4 34 3 59 -1 57 -4 -3 -8 -12 -8 -20 0 -8
-4 -14 -10 -14 -5 0 -10 7 -10 15 0 8 -6 12 -14 9 -14 -5 -108 42 -114 58 -2
5 -8 6 -13 3 -5 -4 -44 12 -88 34 -51 26 -82 36 -88 30 -11 -11 -77 26 -167
91 l-47 34 3 78 c2 43 0 78 -4 78 -5 0 -8 -31 -8 -70 0 -56 -3 -70 -15 -70
-11 0 -15 -11 -15 -40 l0 -41 -24 18 c-14 10 -36 39 -50 64 -26 46 -47 137
-30 126 10 -6 -9 164 -22 197 -12 31 17 38 39 9 11 -13 23 -21 28 -16 15 15
27 128 21 202 l-5 75 28 -22 c33 -26 45 -21 45 18 0 32 10 41 155 139 58 39
93 57 99 51 6 -6 15 -10 20 -10 6 0 0 7 -12 16 -12 8 -27 12 -33 8 -6 -3 -21
-1 -34 6 -22 12 -29 9 -74 -30 -28 -23 -51 -40 -51 -37 0 3 23 24 51 47 46 39
52 42 76 31 23 -11 25 -10 13 3 -15 19 -51 21 -68 4 -25 -25 -11 7 15 34 31
33 38 34 49 11z m89 -25 c19 -22 19 -22 -10 2 -48 40 -51 43 -30 32 11 -6 29
-21 40 -34z m1690 0 c-5 -28 -1 -38 25 -65 17 -17 41 -33 52 -35 25 -3 37 -28
14 -28 -56 0 -116 78 -102 134 9 37 18 32 11 -6z m-255 -8 c0 -20 -9 -24 -43
-20 -27 2 -89 -20 -122 -45 -35 -25 -77 -38 -100 -29 -26 10 47 54 144 85 107
34 121 35 121 9z m220 -19 c0 -6 -4 -13 -10 -16 -5 -3 -10 1 -10 9 0 9 5 16
10 16 6 0 10 -4 10 -9z m264 -27 c9 -8 16 -23 16 -31 0 -14 -4 -12 -23 5 -13
12 -34 22 -48 22 -19 0 -21 2 -9 10 22 14 46 12 64 -6z m-510 -15 c-10 -11
-26 -19 -37 -19 -11 0 -28 -7 -38 -16 -11 -10 -25 -13 -38 -9 -20 6 -20 7 6
33 21 22 36 27 75 28 47 1 48 0 32 -17z m258 -32 c1 -40 29 -67 70 -67 16 0
19 -3 11 -11 -6 -6 -25 -8 -47 -4 -26 5 -40 15 -51 38 -10 21 -12 34 -5 41 5
5 10 19 10 30 0 34 10 10 12 -27z m-654 -22 c2 -10 0 -15 -6 -11 -6 4 -8 -2
-5 -14 9 -33 -7 -23 -23 15 -18 45 -18 46 9 36 12 -5 24 -16 25 -26z m72 23
c0 -9 3 -9 9 1 8 12 12 12 24 2 8 -6 25 -14 38 -16 27 -5 33 -11 53 -50 9 -16
16 -23 16 -15 0 9 -7 26 -16 38 -13 19 -13 22 -1 22 28 0 40 -28 35 -82 -5
-45 -11 -56 -44 -85 -22 -18 -49 -36 -61 -39 -27 -7 -99 20 -95 35 1 8 -7 9
-25 5 l-26 -7 26 34 c28 38 52 118 44 149 -3 13 0 20 9 20 8 0 14 -6 14 -12z
m-989 -29 c21 -17 43 -28 49 -24 6 4 9 1 8 -6 -2 -7 15 -23 37 -35 44 -26 60
-30 50 -13 -4 6 16 -4 43 -23 44 -28 48 -33 28 -36 -25 -3 -176 84 -235 135
-46 41 -31 43 20 2z m1173 5 c9 -3 13 -10 10 -15 -3 -5 4 -24 15 -43 24 -38
28 -59 6 -30 -13 17 -14 12 -8 -49 3 -39 2 -72 -3 -75 -5 -4 -15 -20 -22 -36
-12 -26 -16 -28 -49 -23 -35 6 -99 57 -71 57 21 0 97 76 104 105 3 14 4 46 1
71 -2 24 -3 44 -2 44 2 0 10 -3 19 -6z m-1547 -21 c-4 -3 -2 -12 3 -19 8 -9 5
-12 -14 -10 -23 1 -23 2 -9 19 9 9 18 17 21 17 3 0 2 -3 -1 -7z m1632 -65 c11
-62 40 -174 57 -213 7 -18 6 -18 -9 -6 -24 19 -21 5 9 -46 28 -48 25 -65 -6
-45 -24 14 -33 15 -25 3 8 -13 -51 4 -81 24 -13 8 -30 15 -37 15 -16 0 -67 44
-67 59 0 5 9 7 20 4 11 -3 20 -9 20 -14 0 -17 21 -9 46 16 14 14 30 23 35 20
5 -4 9 5 9 18 0 13 3 27 7 31 11 11 14 38 7 75 -4 26 -8 31 -15 20 -5 -9 -9
-10 -9 -2 0 6 5 15 11 19 7 4 8 23 4 51 -10 70 11 43 24 -29z m444 55 c-7 -2
-21 -2 -30 0 -10 3 -4 5 12 5 17 0 24 -2 18 -5z m-2129 -93 l21 -25 -27 24
c-16 14 -28 32 -27 40 0 14 1 14 6 1 3 -8 15 -26 27 -40z m2121 40 c-3 -5 -16
-10 -28 -10 -18 0 -19 2 -7 10 20 13 43 13 35 0z m-881 -83 c-29 -35 -64 -100
-64 -119 1 -7 14 12 30 43 15 30 35 61 43 67 8 7 -3 -21 -25 -63 -50 -97 -73
-200 -58 -268 11 -53 6 -75 -8 -36 -5 13 -12 31 -15 39 -3 8 -6 2 -6 -15 -1
-16 8 -45 20 -64 22 -36 19 -52 -6 -31 -49 41 -73 143 -55 240 l7 45 3 -50 c2
-49 3 -48 16 30 13 80 30 133 66 212 l20 42 28 -21 29 -21 -25 -30z m919 28
c9 -18 9 -19 -6 -6 -10 7 -17 23 -16 35 0 14 2 16 6 6 3 -8 10 -24 16 -35z
m-67 25 c11 0 13 -6 9 -20 -4 -11 4 -41 19 -72 l25 -53 -29 35 c-16 19 -30 40
-30 46 0 6 -9 23 -20 37 -24 30 -25 41 -4 33 9 -3 22 -6 30 -6z m-1988 -37
c40 -31 204 -162 212 -171 26 -28 -141 93 -203 147 -63 55 -68 67 -9 24z
m2232 18 c-8 -6 -18 -7 -22 -5 -5 3 -7 2 -6 -3 3 -9 -5 -13 -27 -13 -8 0 -15
5 -15 11 0 5 5 7 10 4 6 -3 10 -1 10 4 0 6 15 11 33 11 23 0 28 -3 17 -9z
m-197 -56 c9 -18 9 -19 -6 -6 -10 7 -17 23 -16 35 0 14 2 16 6 6 3 -8 10 -24
16 -35z m-1576 2 c-9 -13 -19 -40 -22 -60 -7 -36 -7 -36 -31 -19 -33 24 -30
38 16 67 22 14 40 30 40 37 0 6 3 8 6 5 4 -4 0 -17 -9 -30z m168 16 c11 -4 50
-25 88 -46 37 -22 74 -36 82 -33 16 6 65 -12 65 -24 0 -4 -7 -13 -15 -20 -8
-7 -13 -16 -10 -20 3 -5 -8 -7 -24 -5 -19 3 -34 -2 -43 -12 -11 -14 -11 -15 1
-9 9 6 12 4 9 -5 -3 -8 -11 -14 -18 -14 -7 0 -15 -7 -17 -15 -4 -13 -3 -13 6
0 6 8 11 11 11 6 0 -5 -6 -17 -13 -25 -29 -34 -107 -173 -107 -190 0 -10 -3
-20 -6 -24 -8 -8 -64 13 -64 24 0 5 -5 9 -11 9 -7 0 -18 8 -26 18 -10 11 -12
12 -8 2 4 -8 -1 -6 -9 4 -9 12 -16 14 -16 7 0 -8 -10 -5 -29 8 -16 12 -32 21
-36 21 -4 0 -19 9 -35 20 -15 11 -30 17 -34 13 -3 -3 -6 -1 -6 5 0 6 -18 21
-40 33 -22 13 -40 26 -40 31 0 12 3 11 66 -27 32 -19 62 -35 66 -35 14 0 -54
55 -105 84 -47 27 -48 28 -31 47 9 10 13 19 8 19 -5 0 6 13 25 29 l34 28 49
-34 c51 -34 75 -42 62 -22 -4 7 23 -4 59 -23 l66 -35 44 46 c25 25 50 56 56
68 13 25 24 23 84 -14 20 -13 37 -19 37 -14 0 17 -96 65 -141 70 -4 1 -21 15
-38 33 -17 17 -31 27 -31 20 0 -6 5 -14 10 -17 6 -3 10 -12 10 -18 0 -7 -5 -4
-11 6 -6 11 -25 25 -43 33 l-31 14 40 -4 c22 -2 49 -8 60 -13z m581 8 c5 -4
31 -16 57 -26 37 -14 46 -22 41 -34 -24 -55 -53 -151 -54 -176 -1 -27 -2 -28
-11 -10 -12 26 -2 -125 12 -179 16 -59 19 -39 7 48 -7 50 -8 80 -2 84 6 4 11
29 13 56 1 27 14 80 28 118 28 76 37 77 87 17 32 -38 32 -40 1 -87 -13 -20
-27 -53 -30 -72 -4 -28 -3 -30 3 -10 5 14 19 44 31 68 l22 43 37 -28 c20 -15
41 -30 46 -34 5 -4 -8 -28 -29 -53 -21 -25 -33 -46 -28 -46 6 0 23 18 38 40
30 43 65 58 44 19 -6 -12 -8 -31 -5 -43 3 -11 1 -34 -3 -51 -19 -63 -41 -172
-43 -212 -1 -23 -5 -40 -9 -37 -4 2 -10 0 -14 -6 -3 -5 -1 -10 4 -10 6 0 11
-7 11 -15 0 -23 -26 -18 -38 8 -10 21 -11 21 -12 2 0 -11 -17 18 -37 65 -27
63 -36 99 -36 140 l0 55 -10 -57 c-5 -32 -13 -58 -18 -58 -5 0 -6 -7 -2 -16 5
-13 8 -13 15 -2 7 9 8 8 4 -5 -7 -23 3 -69 14 -62 5 3 15 -8 23 -25 24 -47 1
-36 -72 34 -94 92 -121 149 -122 262 -1 107 -17 87 -18 -22 -1 -57 4 -81 24
-120 14 -27 19 -40 10 -30 -12 16 -15 17 -15 4 0 -15 17 -35 32 -38 12 -2 70
-60 60 -60 -14 0 -102 80 -103 93 0 7 -11 35 -25 62 -22 45 -26 34 -8 -22 5
-16 4 -16 -10 2 -29 35 -47 115 -40 174 6 49 8 53 20 36 17 -22 18 -16 4 20
-8 22 -3 40 35 115 45 89 52 98 71 81z m-718 -21 c-7 -10 -14 -17 -17 -15 -4
4 18 35 25 35 2 0 -1 -9 -8 -20z m169 -52 c9 -8 8 -16 -4 -36 -26 -43 -65 -82
-82 -82 -11 0 -10 5 6 23 29 31 43 61 43 92 0 26 6 26 37 3z m-174 -12 c7 -17
-17 -53 -26 -39 -8 12 3 53 13 53 4 0 10 -6 13 -14z m37 4 c8 -5 11 -10 5 -10
-5 0 -17 5 -25 10 -8 5 -10 10 -5 10 6 0 17 -5 25 -10z m50 -34 c0 -2 -3 -11
-6 -20 -9 -23 -24 -20 -24 4 0 11 7 20 15 20 8 0 15 -2 15 -4z m1650 -58 c-24
-19 -55 -24 -64 -9 -4 5 7 12 24 16 17 4 36 16 42 28 12 21 12 21 16 2 3 -11
-5 -26 -18 -37z m-1955 -8 c-11 -12 -16 -29 -13 -44 3 -14 1 -23 -3 -20 -13 8
-11 58 3 72 20 20 32 13 13 -8z m565 -7 c0 -3 -10 -17 -22 -31 -15 -20 -19
-21 -13 -7 4 11 7 28 7 37 0 11 5 15 14 11 8 -3 14 -7 14 -10z m1557 -5 c-3
-8 -6 -5 -6 6 -1 11 2 17 5 13 3 -3 4 -12 1 -19z m-177 -84 c0 -8 -4 -12 -10
-9 -5 3 -10 13 -10 21 0 8 5 12 10 9 6 -3 10 -13 10 -21z m-1440 -2 c0 -5 -9
-17 -20 -27 -23 -21 -26 -14 -8 15 13 20 28 27 28 12z m20 -46 c0 -2 -9 -6
-20 -9 -11 -3 -18 -1 -14 4 5 9 34 13 34 5z m-88 -44 c-10 -21 -25 -49 -34
-63 l-17 -24 0 27 c-1 22 49 98 65 98 1 0 -5 -17 -14 -38z m1054 -79 c4 4 -2
14 -13 22 -20 14 -63 75 -63 89 0 4 41 -29 92 -74 136 -120 221 -151 325 -116
l48 16 -24 -20 c-13 -11 -29 -20 -37 -20 -8 0 -14 -4 -14 -10 0 -5 -13 -7 -31
-3 -21 4 -34 1 -41 -8 -6 -9 -11 -10 -14 -3 -3 6 -16 9 -30 6 -14 -2 -32 2
-42 10 -9 9 -32 20 -51 27 -60 20 -117 59 -165 112 -71 79 -77 101 -8 28 33
-35 64 -61 68 -56z m-886 87 c0 -5 6 -7 14 -4 20 8 46 -23 46 -54 l-1 -27 -28
31 c-15 17 -38 38 -51 47 l-24 17 22 0 c12 0 22 -4 22 -10z m-1151 -59 c-6
-29 -8 -69 -5 -89 4 -27 3 -31 -4 -17 -12 28 -12 83 1 128 15 56 21 39 8 -22z
m1108 31 c8 -5 7 -12 -4 -27 -12 -15 -14 -16 -10 -3 10 30 -19 27 -38 -4 -15
-26 -15 -32 -3 -45 18 -17 67 -8 75 14 5 12 7 12 14 1 7 -11 11 -10 19 2 12
20 33 0 24 -24 -5 -14 -9 -14 -22 -4 -13 11 -14 11 -8 0 6 -10 -2 -13 -36 -11
-93 4 -99 10 -73 73 15 35 36 45 62 28z m40 -34 c-3 -8 -6 -5 -6 6 -1 11 2 17
5 13 3 -3 4 -12 1 -19z m1219 -6 c-18 -16 -18 -16 -6 6 6 13 14 21 18 18 3 -4
-2 -14 -12 -24z m-1281 -22 c-3 -5 -11 -10 -16 -10 -6 0 -7 5 -4 10 3 6 11 10
16 10 6 0 7 -4 4 -10z m-1135 -49 c-6 -12 -15 -21 -21 -21 -6 0 -2 14 8 30 19
33 31 24 13 -9z m968 -28 c-9 -40 -8 -48 8 -60 31 -23 127 -55 182 -60 43 -5
52 -9 47 -22 -4 -9 -18 -47 -32 -86 -61 -167 -92 -205 -142 -173 -17 11 -18
15 -5 51 8 22 12 42 10 44 -2 2 -11 -15 -19 -39 -13 -38 -17 -43 -43 -41 -16
1 -30 7 -32 12 -2 5 -10 7 -19 4 -12 -5 -14 -3 -8 7 5 7 9 50 10 94 1 45 5
101 9 126 l7 45 -15 -30 c-9 -16 -14 -21 -11 -10 2 11 11 49 20 85 8 36 15 78
15 94 0 23 3 26 14 17 11 -9 11 -21 4 -58z m58 31 c-4 -14 -9 -24 -12 -21 -3
2 -2 17 2 31 3 15 9 25 11 22 3 -3 2 -17 -1 -32z m-29 4 c-3 -8 -6 -5 -6 6 -1
11 2 17 5 13 3 -3 4 -12 1 -19z m170 -33 c40 0 73 0 73 -1 0 -1 -11 -13 -24
-27 -13 -14 -26 -30 -27 -35 -5 -12 -21 -15 -67 -13 -25 1 -35 6 -39 22 -4 16
-8 17 -14 7 -6 -9 -9 -6 -9 12 0 20 -2 22 -10 10 -7 -11 -10 -5 -10 24 l0 38
28 -18 c20 -13 46 -18 99 -19z m103 17 c0 -5 -7 -17 -16 -28 -8 -10 -14 -14
-11 -9 2 6 7 18 10 28 7 17 17 23 17 9z m388 -100 c22 -16 30 -28 24 -35 -5
-7 -17 -37 -26 -67 -22 -77 -49 -117 -93 -135 -67 -28 -73 -14 -15 45 28 29
52 56 52 59 0 3 -28 -22 -61 -56 -60 -62 -73 -68 -116 -57 -40 11 -28 46 36
107 60 58 121 133 121 151 0 5 -15 -8 -34 -30 -44 -52 -195 -204 -202 -204 -3
0 25 33 61 73 39 41 80 99 97 135 31 65 33 100 2 40 -10 -19 -19 -28 -22 -20
-2 7 6 24 17 36 l22 23 52 -21 c29 -11 67 -32 85 -44z m-583 8 c31 -17 51 -20
93 -16 50 4 70 -5 36 -18 -26 -10 -47 -7 -112 14 -99 33 -114 39 -107 50 6 10
28 3 90 -30z m815 -27 c0 -18 39 -84 70 -118 50 -57 55 -69 15 -37 -22 17 -44
32 -49 32 -15 0 -56 42 -56 57 0 8 4 12 9 9 5 -4 3 20 -5 51 -7 32 -13 63 -13
68 1 13 28 -46 29 -62z m-1778 -11 c-4 -11 -6 -11 -13 0 -5 7 -9 19 -9 26 0
10 3 10 14 0 7 -7 11 -19 8 -26z m-104 -69 c13 -21 47 -64 77 -97 29 -32 55
-69 58 -82 2 -13 2 -24 0 -24 -8 0 -60 35 -86 59 -29 27 -91 146 -101 196 l-6
30 17 -22 c10 -12 28 -39 41 -60z m1717 57 c5 -8 -51 -100 -61 -100 -3 0 24
89 31 100 8 13 22 13 30 0z m-1624 -113 c5 2 18 -15 28 -36 26 -50 122 -149
188 -194 29 -19 49 -38 45 -41 -3 -4 1 -4 9 -1 9 3 32 -7 55 -26 50 -40 123
-75 175 -84 37 -6 39 -8 22 -21 -16 -14 -11 -15 45 -11 39 2 62 -1 62 -7 0 -6
4 -5 9 3 6 9 23 12 55 10 31 -3 47 0 51 9 4 10 -13 12 -81 7 -49 -4 -90 -2
-97 3 -7 6 -21 12 -32 14 -11 3 23 6 75 6 52 1 111 6 130 12 19 5 67 10 106
10 69 0 72 -1 72 -24 0 -22 -7 -25 -65 -36 -35 -6 -68 -8 -73 -5 -6 4 -10 2
-10 -4 0 -6 -7 -8 -15 -5 -8 4 -15 2 -15 -4 0 -6 -55 -9 -142 -8 -124 2 -148
4 -178 22 -19 12 -41 19 -49 16 -8 -3 -11 0 -7 7 4 6 4 11 -1 10 -22 -4 -37 4
-78 42 -25 23 -42 45 -39 50 3 5 0 8 -8 7 -7 -2 -13 5 -13 16 0 10 -10 22 -22
27 -11 4 -24 12 -28 18 -3 6 -11 8 -17 5 -7 -5 -8 -2 -3 6 6 10 4 12 -8 7 -9
-3 -16 -3 -16 1 3 21 -3 32 -17 32 -9 0 -12 -5 -8 -12 4 -7 3 -8 -4 -4 -6 4
-9 13 -5 21 3 9 -14 37 -43 71 -101 114 -144 169 -144 183 0 8 18 -10 41 -40
22 -30 45 -53 50 -52z m69 58 c0 -5 -5 -3 -10 5 -5 8 -10 20 -10 25 0 6 5 3
10 -5 5 -8 10 -19 10 -25z m1614 19 c3 -8 2 -12 -4 -9 -6 3 -10 10 -10 16 0
14 7 11 14 -7z m-1644 -41 c0 -7 6 -10 14 -7 8 3 18 -7 26 -28 19 -48 76 -123
108 -143 20 -13 17 -7 -14 24 -22 22 -53 64 -69 92 -32 59 -17 57 20 -1 22
-34 69 -76 164 -144 25 -18 -40 47 -89 90 -35 30 -62 65 -56 72 3 3 14 -2 23
-10 37 -31 47 -30 18 3 -16 19 -23 28 -15 22 8 -7 19 -13 25 -13 5 0 -6 14
-25 31 -19 17 -26 26 -14 20 11 -5 26 -17 34 -25 7 -9 17 -16 22 -16 6 0 4 7
-3 17 -8 9 5 5 29 -11 23 -15 47 -24 53 -20 6 3 27 -5 47 -18 20 -14 84 -48
142 -77 58 -29 94 -49 80 -45 -58 16 -228 87 -263 110 -22 14 -41 23 -44 20
-3 -3 10 -14 28 -25 19 -12 30 -21 24 -21 -19 0 -80 43 -67 47 13 5 7 23 -9
23 -6 0 -7 -5 -3 -12 5 -8 2 -9 -11 -4 -18 7 -18 6 -1 -13 23 -25 83 -54 96
-46 6 3 10 2 10 -3 0 -5 6 -9 13 -9 23 0 207 -76 202 -83 -2 -4 8 -5 23 -3 24
3 25 2 7 -7 -18 -9 -18 -10 4 -6 14 3 32 0 40 -7 9 -8 12 -8 8 -1 -4 8 5 7 31
-2 20 -7 46 -13 57 -13 l20 0 -20 9 c-16 7 -16 9 -4 9 9 1 27 -8 40 -19 l24
-19 -28 -1 c-50 0 -170 21 -256 46 -47 13 -86 22 -89 20 -6 -6 149 -52 236
-71 87 -18 135 -19 182 -4 19 6 65 10 101 9 62 -1 69 1 105 32 22 18 41 38 43
43 7 15 62 65 73 65 5 0 -11 -25 -36 -56 -26 -31 -46 -60 -46 -65 0 -28 63 7
130 72 30 30 53 44 71 44 23 0 25 -3 16 -15 -23 -30 -52 -49 -69 -44 -10 3
-18 1 -18 -5 0 -6 5 -11 12 -11 19 0 -73 -90 -112 -109 -71 -37 -210 -70 -210
-50 0 5 9 9 20 9 22 0 155 99 145 108 -3 3 -18 -4 -33 -16 -96 -77 -199 -111
-363 -119 -113 -6 -148 3 -314 82 -84 41 -128 69 -183 120 -79 73 -92 92 -116
175 -13 47 -13 52 -1 36 8 -11 15 -26 15 -33z m81 -10 c13 -16 12 -17 -3 -4
-10 7 -18 15 -18 17 0 8 8 3 21 -13z m1404 -95 c-20 -24 -59 -71 -87 -105 -27
-35 -52 -63 -55 -63 -10 0 50 99 63 104 8 3 14 12 14 21 0 8 6 15 13 15 7 0
28 16 47 35 47 48 49 44 5 -7z m-75 -48 c0 -5 -8 -10 -17 -10 -15 0 -16 2 -3
10 19 12 20 12 20 0z m79 -84 c-34 -42 -66 -76 -71 -76 -6 0 1 12 14 28 12 15
43 51 67 80 24 29 46 50 48 48 3 -2 -23 -38 -58 -80z m-1573 57 c0 -10 5 -17
12 -15 13 2 16 -10 5 -21 -9 -10 -35 31 -28 43 9 15 13 12 11 -7z m1449 7 c-3
-5 -12 -10 -18 -10 -7 0 -6 4 3 10 19 12 23 12 15 0z m-125 -29 c-5 -11 -10
-28 -10 -38 0 -10 -9 -35 -19 -56 -24 -47 -11 -47 28 0 17 21 31 33 31 28 0
-19 -68 -83 -110 -105 -23 -12 -40 -24 -37 -26 3 -3 23 4 46 16 23 11 41 18
41 15 0 -9 -134 -72 -170 -80 -45 -9 -43 -8 64 55 49 29 84 55 79 59 -10 6 49
151 62 151 3 0 1 -9 -5 -19z m-46 -23 c-5 -7 -9 -19 -10 -26 -4 -21 -14 -27
-14 -8 0 11 -4 15 -12 10 -7 -4 -2 4 12 18 25 27 39 30 24 6z m-134 7 c0 -2
-10 -9 -22 -15 -22 -11 -22 -10 -4 4 21 17 26 19 26 11z m-1089 -42 c13 -16
12 -17 -3 -4 -17 13 -22 21 -14 21 2 0 10 -8 17 -17z m69 -38 c0 -11 -14 7
-31 40 -7 13 -3 12 10 -5 11 -14 21 -29 21 -35z m54 30 c11 -8 17 -15 13 -15
-4 0 -2 -10 4 -22 6 -13 7 -18 3 -13 -47 52 -56 65 -48 65 5 0 18 -7 28 -15z
m1056 -31 c0 -8 -19 -13 -24 -6 -3 5 1 9 9 9 8 0 15 -2 15 -3z m-1160 -14 c0
-5 10 -19 23 -31 19 -19 20 -20 2 -11 -11 6 -29 20 -39 31 -17 19 -17 21 -3
21 10 0 17 -4 17 -10z m172 -7 c18 -22 32 -56 18 -48 -5 3 -19 19 -30 35 -23
32 -13 42 12 13z m-39 -73 c12 -14 29 -34 37 -45 14 -18 14 -18 -9 -3 -13 9
-41 43 -63 75 -21 32 -27 45 -13 28 14 -16 36 -41 48 -55z m901 35 c-18 -28
-16 -29 21 -15 23 9 25 8 15 -10 -6 -11 -14 -19 -18 -18 -4 1 -21 -5 -37 -14
l-31 -16 -10 34 c-10 32 -10 34 13 34 14 0 31 7 39 15 23 23 26 18 8 -10z
m-920 -65 c11 -14 2 -7 -21 14 -23 22 -40 43 -37 48 4 5 13 -1 22 -14 8 -13
24 -34 36 -48z m289 56 c18 -7 43 -18 57 -24 14 -6 18 -11 10 -11 -8 0 -37 10
-65 23 -53 26 -54 35 -2 12z m-101 -80 c-3 -5 0 -6 6 -2 6 4 33 -3 59 -15 36
-16 77 -23 168 -29 l120 -7 -98 -1 c-58 -1 -96 -6 -92 -11 3 -6 -7 -6 -27 0
-18 5 -53 9 -78 9 -44 0 -46 2 -93 65 l-47 66 44 -33 c24 -18 41 -37 38 -42z
m653 63 c11 -17 -1 -21 -15 -4 -8 9 -8 15 -2 15 6 0 14 -5 17 -11z m-726 -31
c11 -18 29 -43 41 -55 11 -13 15 -23 9 -23 -14 0 -33 23 -59 73 -25 46 -19 49
9 5z m711 7 c7 -8 8 -15 2 -15 -5 0 -15 7 -22 15 -7 8 -8 15 -2 15 5 0 15 -7
22 -15z m-840 -61 c0 -2 -13 -4 -29 -4 -24 0 -28 3 -24 20 3 11 0 20 -6 20 -6
0 -11 5 -11 11 0 5 16 -2 35 -17 19 -14 35 -28 35 -30z m1090 51 c0 -13 -51
-105 -59 -105 -20 0 -17 16 12 60 28 43 47 61 47 45z m-1161 -41 c3 -16 1 -17
-13 -5 -19 16 -21 34 -3 29 6 -3 14 -13 16 -24z m936 7 c-3 -6 -11 -11 -17
-11 -6 0 -6 6 2 15 14 17 26 13 15 -4z m148 -11 c-18 -31 -28 -37 -37 -21 -4
5 6 19 21 30 37 27 37 26 16 -9z m-193 10 c0 -5 -17 -14 -37 -19 -49 -14 -146
-14 -138 -1 3 6 25 10 48 11 23 0 51 4 62 9 27 12 65 12 65 0z m86 -51 c28
-30 28 -31 4 -19 -25 13 -40 28 -40 43 0 12 5 8 36 -24z m-283 14 c-7 -2 -21
-2 -30 0 -10 3 -4 5 12 5 17 0 24 -2 18 -5z m-600 -20 c-7 -2 -21 -2 -30 0
-10 3 -4 5 12 5 17 0 24 -2 18 -5z m567 -13 c-14 -4 -34 -8 -45 -8 -16 0 -15
2 5 8 14 4 34 8 45 8 16 0 15 -2 -5 -8z m-333 -6 c-3 -3 -12 -4 -19 -1 -8 3
-5 6 6 6 11 1 17 -2 13 -5z m263 -4 c0 -10 -117 -6 -128 4 -3 3 25 6 61 6 37
0 67 -4 67 -10z m-753 -16 c-3 -3 -12 -4 -19 -1 -8 3 -5 6 6 6 11 1 17 -2 13
-5z m657 -40 c24 -24 19 -30 -6 -8 -13 10 -25 20 -27 21 -2 2 1 3 7 3 6 0 18
-7 26 -16z m46 2 c0 -3 -4 -8 -10 -11 -5 -3 -10 -1 -10 4 0 6 5 11 10 11 6 0
10 -2 10 -4z m-131 -110 c-5 -6 -9 7 -8 35 l1 44 8 -35 c5 -20 5 -39 -1 -44z
m40 -85 c17 -53 7 -46 -17 11 -13 30 -16 46 -8 38 7 -8 18 -30 25 -49z m417
-211 c-26 -21 -61 -42 -79 -45 -41 -8 -135 8 -177 30 -32 16 -42 32 -13 21 37
-14 188 -6 243 13 76 27 77 26 26 -19z m112 -14 c-22 -42 -90 -116 -119 -131
-38 -20 -51 -18 -14 2 19 10 25 18 16 21 -7 2 -31 -6 -53 -18 -34 -19 -50 -22
-98 -17 -63 7 -90 15 -90 28 0 4 14 3 31 -3 18 -6 58 -8 94 -5 80 8 136 41
195 116 43 55 66 59 38 7z m-402 -40 c29 -14 58 -26 65 -26 7 0 10 -3 6 -6
-19 -19 -167 59 -167 89 0 6 10 1 23 -11 12 -11 45 -32 73 -46z m-12 -94 c-6
-10 -37 16 -50 42 l-16 31 34 -35 c19 -19 33 -36 32 -38z m261 58 c-11 -5 -36
-8 -55 -8 l-35 1 35 7 c19 4 44 8 55 8 l20 1 -20 -9z m-107 -7 c-10 -2 -28 -2
-40 0 -13 2 -5 4 17 4 22 1 32 -1 23 -4z m197 -63 c-3 -5 -16 -15 -28 -21 -21
-10 -21 -9 2 10 25 23 36 27 26 11z m-60 -10 c-3 -5 -30 -17 -60 -26 -47 -15
-62 -16 -109 -5 -31 7 -58 16 -61 21 -3 4 10 4 29 0 35 -8 182 3 193 14 10 9
15 7 8 -4z m-20 -40 c-3 -5 -12 -10 -18 -10 -7 0 -6 4 3 10 19 12 23 12 15 0z
m20 -20 c-3 -5 -12 -10 -18 -10 -7 0 -6 4 3 10 19 12 23 12 15 0z m-741 -65
c8 -60 -21 -129 -72 -176 -20 -19 -27 -23 -15 -9 41 47 65 116 58 168 -3 26
-8 55 -11 65 -5 16 -3 17 14 8 13 -7 21 -25 26 -56z m703 49 c-3 -3 -12 -4
-19 -1 -8 3 -5 6 6 6 11 1 17 -2 13 -5z m-50 -10 c-3 -3 -12 -4 -19 -1 -8 3
-5 6 6 6 11 1 17 -2 13 -5z m68 -26 c-12 -40 -42 -83 -55 -80 -6 1 -19 -3 -26
-9 -12 -10 -18 -9 -27 1 -10 10 -9 11 2 5 9 -5 12 -4 8 2 -4 6 -21 14 -39 19
l-33 8 40 4 40 4 -35 14 -35 14 31 -4 c34 -5 118 14 95 22 -11 4 -11 6 0 13
26 16 41 10 34 -13z m-855 -152 l-22 -21 18 35 c10 21 19 30 22 21 2 -7 -6
-23 -18 -35z m-544 -131 c41 -18 49 -24 27 -21 -17 3 -46 14 -65 26 -44 27
-34 25 38 -5z m458 -85 c21 0 20 9 -1 26 -12 10 -3 8 30 -3 45 -16 61 -37 35
-45 -6 -2 -8 -10 -4 -16 5 -9 11 -8 22 3 9 8 12 20 8 27 -5 7 -2 9 8 5 9 -3
22 0 29 6 8 7 -2 -5 -20 -25 -35 -38 -82 -51 -96 -27 -4 6 -13 8 -21 5 -8 -3
-14 -1 -14 4 0 6 14 10 30 10 17 0 30 -4 30 -10 0 -23 15 -8 16 16 2 24 0 25
-31 20 -28 -6 -39 -2 -69 25 -20 17 -36 35 -36 41 0 5 15 -7 34 -26 18 -20 41
-36 50 -36z m-110 -6 c3 -8 2 -12 -4 -9 -6 3 -10 10 -10 16 0 14 7 11 14 -7z"/>
<path d="M2808 4483 c7 -3 16 -2 19 1 4 3 -2 6 -13 5 -11 0 -14 -3 -6 -6z"/>
<path d="M2753 4313 c9 -2 25 -2 35 0 9 3 1 5 -18 5 -19 0 -27 -2 -17 -5z"/>
<path d="M3491 4053 c0 -25 1 -26 9 -8 12 27 12 35 0 35 -5 0 -10 -12 -9 -27z"/>
<path d="M3284 3982 c17 -18 24 -32 18 -32 -7 0 6 -18 28 -40 22 -22 43 -40
47 -40 4 0 -11 18 -32 40 -21 22 -34 40 -28 40 6 0 27 -20 47 -45 21 -24 41
-44 46 -42 5 1 16 -7 24 -18 8 -11 16 -15 16 -9 0 16 -70 95 -80 89 -4 -3 -13
2 -20 10 -7 9 -32 30 -54 47 l-41 32 29 -32z"/>
<path d="M3480 3989 c0 -8 7 -24 15 -35 18 -24 19 -7 0 26 -9 16 -14 19 -15 9z"/>
<path d="M3510 3918 c0 -9 5 -20 10 -23 13 -8 13 5 0 25 -8 13 -10 13 -10 -2z"/>
<path d="M2206 4184 c-20 -19 -21 -58 -2 -73 24 -20 69 -9 85 21 14 24 14 28
-3 47 -23 25 -58 27 -80 5z m54 -33 c0 -11 -5 -23 -11 -27 -15 -9 -33 12 -26
30 9 23 37 20 37 -3z"/>
<path d="M3668 3773 c7 -3 16 -2 19 1 4 3 -2 6 -13 5 -11 0 -14 -3 -6 -6z"/>
<path d="M3618 3763 c7 -3 16 -2 19 1 4 3 -2 6 -13 5 -11 0 -14 -3 -6 -6z"/>
<path d="M3710 3766 c0 -2 7 -7 16 -10 8 -3 12 -2 9 4 -6 10 -25 14 -25 6z"/>
<path d="M3668 3753 c7 -3 16 -2 19 1 4 3 -2 6 -13 5 -11 0 -14 -3 -6 -6z"/>
<path d="M3600 3694 c-17 -19 3 -42 40 -46 21 -3 25 1 22 22 -2 14 -8 29 -12
34 -5 5 -6 0 -3 -12 3 -15 0 -24 -12 -28 -24 -10 -41 11 -25 31 7 8 10 15 7
15 -2 0 -10 -7 -17 -16z"/>
<path d="M2066 3585 c-9 -26 -7 -32 5 -12 6 10 9 21 6 23 -2 3 -7 -2 -11 -11z"/>
<path d="M1930 3410 c-6 -11 -8 -20 -6 -20 3 0 10 9 16 20 6 11 8 20 6 20 -3
0 -10 -9 -16 -20z"/>
<path d="M1921 3313 c-10 -26 -10 -27 4 -9 8 11 15 23 15 28 0 15 -7 8 -19
-19z"/>
<path d="M1877 3293 c-4 -3 -7 -11 -7 -17 0 -6 5 -5 12 2 6 6 9 14 7 17 -3 3
-9 2 -12 -2z"/>
<path d="M2230 3131 c0 -6 4 -13 10 -16 6 -3 7 1 4 9 -7 18 -14 21 -14 7z"/>
<path d="M2340 3056 c0 -3 24 -21 53 -41 28 -19 68 -48 86 -63 19 -15 32 -22
28 -15 -8 13 -152 123 -161 123 -3 0 -6 -2 -6 -4z"/>
<path d="M2298 3015 c6 -11 25 -33 44 -50 l33 -30 -35 40 c-19 22 -39 45 -44
50 -5 6 -4 1 2 -10z"/>
<path d="M2180 3015 c0 -15 18 -40 24 -34 3 3 -1 14 -9 25 -8 10 -14 15 -15 9z"/>
<path d="M2467 2999 c7 -7 15 -10 18 -7 3 3 -2 9 -12 12 -14 6 -15 5 -6 -5z"/>
<path d="M2386 2929 c6 -11 64 -42 69 -37 2 2 -14 13 -36 25 -21 12 -37 17
-33 12z"/>
<path d="M2521 2925 c9 -8 79 -35 79 -30 0 2 -16 12 -36 20 -37 15 -51 19 -43
10z"/>
<path d="M2477 2879 c7 -7 15 -10 18 -7 3 3 -2 9 -12 12 -14 6 -15 5 -6 -5z"/>
<path d="M2830 2868 c0 -5 -30 -7 -67 -4 -60 5 -63 4 -28 -5 35 -9 142 -6 152
5 2 2 -10 6 -27 8 -16 3 -30 1 -30 -4z"/>
<path d="M2824 2765 c-10 -8 -14 -15 -8 -15 6 0 17 7 24 15 16 19 9 19 -16 0z"/>
<path d="M2873 2125 c-6 -19 -7 -33 -2 -29 15 9 10 -9 -11 -44 -12 -19 -16
-31 -10 -27 17 11 43 68 46 103 3 42 -10 41 -23 -3z"/>
<path d="M3456 3545 c-9 -26 -7 -32 5 -12 6 10 9 21 6 23 -2 3 -7 -2 -11 -11z"/>
<path d="M3411 3096 c2 -2 24 -6 48 -9 29 -4 40 -2 30 4 -13 8 -88 14 -78 5z"/>
<path d="M1951 2897 c2 -1 13 -9 24 -17 19 -14 19 -14 6 3 -7 9 -18 17 -24 17
-6 0 -8 -1 -6 -3z"/>
<path d="M2083 2883 c-21 -8 -15 -43 10 -52 28 -11 49 -3 45 17 -4 19 -39 41
-55 35z"/>
<path d="M2040 2790 c19 -17 49 -38 65 -47 39 -20 23 -5 -45 41 -50 34 -52 34
-20 6z"/>
<path d="M1862 2630 c0 -14 2 -19 5 -12 2 6 2 18 0 25 -3 6 -5 1 -5 -13z"/>
<path d="M1732 2535 c0 -16 2 -22 5 -12 2 9 2 23 0 30 -3 6 -5 -1 -5 -18z"/>
<path d="M1743 2435 c0 -22 2 -30 4 -17 2 12 2 30 0 40 -3 9 -5 -1 -4 -23z"/>
<path d="M2092 2440 c0 -14 2 -19 5 -12 2 6 2 18 0 25 -3 6 -5 1 -5 -13z"/>
<path d="M1973 2220 c0 -25 2 -35 4 -22 2 12 2 32 0 45 -2 12 -4 2 -4 -23z"/>
<path d="M2211 2054 c0 -11 3 -14 6 -6 3 7 2 16 -1 19 -3 4 -6 -2 -5 -13z"/>
<path d="M2181 2044 c0 -11 3 -14 6 -6 3 7 2 16 -1 19 -3 4 -6 -2 -5 -13z"/>
<path d="M3310 2766 c-9 -19 -31 -38 -55 -50 -22 -10 -34 -21 -27 -23 6 -3 10
-9 6 -14 -11 -19 36 -8 61 14 25 21 50 93 36 101 -3 2 -13 -10 -21 -28z"/>
<path d="M2480 2588 c-29 -38 -30 -40 -6 -18 25 23 52 60 43 60 -2 0 -19 -19
-37 -42z"/>
<path d="M2261 2564 c15 -19 69 -47 76 -41 5 6 -67 57 -81 57 -4 0 -3 -7 5
-16z"/>
<path d="M2535 2560 c3 -5 8 -10 11 -10 2 0 4 5 4 10 0 6 -5 10 -11 10 -5 0
-7 -4 -4 -10z"/>
<path d="M2257 2499 c7 -7 15 -10 18 -7 3 3 -2 9 -12 12 -14 6 -15 5 -6 -5z"/>
<path d="M2360 2391 c23 -19 60 -34 60 -25 0 2 -19 13 -42 24 -42 20 -42 20
-18 1z"/>
<path d="M2936 2595 c-9 -26 -7 -32 5 -12 6 10 9 21 6 23 -2 3 -7 -2 -11 -11z"/>
<path d="M3236 2378 c-21 -51 -30 -86 -17 -68 9 13 11 12 11 -4 0 -11 3 -16 7
-12 7 7 22 116 16 116 -2 0 -10 -15 -17 -32z"/>
<path d="M3031 2360 c0 -14 6 -36 14 -50 18 -32 18 -26 1 30 -11 32 -15 38
-15 20z"/>
<path d="M3237 2265 c-4 -8 -2 -17 3 -20 6 -4 10 -18 10 -33 0 -18 3 -23 11
-15 6 6 8 25 4 47 -8 38 -19 46 -28 21z"/>
<path d="M2441 1984 c0 -11 3 -14 6 -6 3 7 2 16 -1 19 -3 4 -6 -2 -5 -13z"/>
<path d="M2441 1884 c0 -11 3 -14 6 -6 3 7 2 16 -1 19 -3 4 -6 -2 -5 -13z"/>
<path d="M2536 1855 c-9 -26 -7 -32 5 -12 6 10 9 21 6 23 -2 3 -7 -2 -11 -11z"/>
<path d="M2941 1966 c-13 -14 -21 -31 -18 -38 4 -10 6 -10 6 1 1 8 11 25 23
38 12 13 19 23 16 23 -2 0 -15 -11 -27 -24z"/>
<path d="M1530 1950 c16 -31 70 -79 90 -80 8 0 2 10 -15 23 -16 12 -42 36 -58
52 -27 28 -28 28 -17 5z"/>
<path d="M1867 1677 c5 -8 106 -57 118 -57 3 0 5 4 5 9 0 5 -25 17 -55 26 -30
10 -53 21 -50 25 2 4 -2 7 -10 7 -8 0 -11 -5 -8 -10z"/>
<path d="M1650 1995 c0 -5 5 -17 10 -25 5 -8 10 -10 10 -5 0 6 -5 17 -10 25
-5 8 -10 11 -10 5z"/>
<path d="M2750 1805 c-7 -9 -10 -18 -7 -22 4 -3 9 2 13 11 3 9 11 13 17 9 6
-3 7 -1 3 5 -9 15 -11 15 -26 -3z"/>
<path d="M2688 1756 c-50 -29 -60 -41 -23 -25 17 7 39 21 50 31 25 23 19 22
-27 -6z"/>
<path d="M2008 1723 c7 -3 16 -2 19 1 4 3 -2 6 -13 5 -11 0 -14 -3 -6 -6z"/>
<path d="M2310 1704 l-55 -14 48 5 c27 3 56 9 65 15 21 12 12 11 -58 -6z"/>
<path d="M2295 1679 c-33 -5 -64 -11 -70 -14 -17 -9 115 6 138 15 27 11 11 10
-68 -1z"/>
<path d="M2358 1003 c7 -3 16 -2 19 1 4 3 -2 6 -13 5 -11 0 -14 -3 -6 -6z"/>
<path d="M2630 4560 c0 -5 4 -10 9 -10 5 0 18 -3 28 -7 17 -6 17 -6 1 10 -18
19 -38 22 -38 7z"/>
<path d="M2978 4553 c7 -3 16 -2 19 1 4 3 -2 6 -13 5 -11 0 -14 -3 -6 -6z"/>
<path d="M3531 4244 c0 -11 3 -14 6 -6 3 7 2 16 -1 19 -3 4 -6 -2 -5 -13z"/>
<path d="M3638 4233 c6 -2 10 -9 6 -14 -3 -5 5 -9 18 -9 22 1 22 1 4 15 -11 8
-25 15 -30 14 -6 0 -5 -3 2 -6z"/>
<path d="M3574 4218 c-5 -7 -3 -8 5 -3 7 4 23 -3 39 -16 l27 -24 -24 28 c-27
30 -36 33 -47 15z"/>
<path d="M3732 4196 c2 -1 28 -19 58 -40 l55 -37 -39 34 c-34 30 -37 35 -20
39 10 3 2 5 -19 5 -21 1 -37 0 -35 -1z"/>
<path d="M3816 3898 l-18 -33 21 25 c18 22 26 40 18 40 -1 0 -11 -15 -21 -32z"/>
<path d="M3692 3874 c-11 -12 -10 -14 3 -14 9 0 13 -5 9 -11 -3 -6 -19 -9 -35
-7 -15 3 -26 1 -23 -4 8 -13 52 -9 61 5 19 31 8 55 -15 31z"/>
<path d="M3905 3767 c2 -88 4 -101 25 -120 18 -18 22 -19 17 -5 -4 10 -9 40
-13 68 -4 27 -10 50 -15 50 -4 0 -10 24 -12 53 -2 28 -3 8 -2 -46z"/>
<path d="M1917 3701 c-4 -17 -3 -21 5 -13 5 5 8 16 6 23 -3 8 -7 3 -11 -10z"/>
<path d="M3891 3604 c0 -11 3 -14 6 -6 3 7 2 16 -1 19 -3 4 -6 -2 -5 -13z"/>
<path d="M3638 3560 c12 -5 22 -15 22 -21 0 -7 3 -9 6 -6 10 10 -16 37 -35 36
-11 0 -9 -3 7 -9z"/>
<path d="M3587 3552 c-2 -4 -3 -23 -3 -42 1 -31 4 -35 30 -38 16 -2 34 2 40 8
8 8 6 9 -9 4 -16 -6 -18 -5 -7 7 14 15 16 45 3 53 -4 3 -6 -6 -3 -19 3 -20 0
-25 -17 -25 -22 0 -28 19 -10 37 7 7 6 12 -5 16 -8 3 -17 3 -19 -1z"/>
<path d="M1755 3529 c-4 -6 -5 -12 -2 -15 2 -3 7 2 10 11 7 17 1 20 -8 4z"/>
<path d="M3898 3481 c-1 -26 0 -61 3 -77 4 -18 7 0 8 49 1 86 -5 103 -11 28z"/>
<path d="M3590 3211 c0 -5 7 -12 16 -15 14 -5 15 -4 4 9 -14 17 -20 19 -20 6z"/>
<path d="M4057 3015 c18 -8 42 -29 53 -47 11 -18 20 -27 20 -19 0 20 -65 81
-86 81 -12 -1 -7 -6 13 -15z"/>
<path d="M3550 2823 c0 -5 13 -22 29 -37 16 -15 57 -63 92 -107 64 -79 105
-112 52 -41 -29 38 -21 35 37 -13 48 -40 1 15 -79 93 -83 80 -131 118 -131
105z"/>
<path d="M4170 2827 c0 -2 15 -16 33 -33 l32 -29 -29 33 c-28 30 -36 37 -36
29z"/>
<path d="M3550 2762 c0 -6 7 -17 15 -26 8 -8 15 -19 15 -24 0 -5 12 -18 28
-28 15 -9 32 -25 39 -33 7 -9 13 -11 13 -5 0 14 -26 49 -38 49 -6 0 -24 17
-41 39 -17 21 -31 34 -31 28z"/>
<path d="M4241 2724 c0 -11 3 -14 6 -6 3 7 2 16 -1 19 -3 4 -6 -2 -5 -13z"/>
<path d="M4195 2491 c-46 -50 -47 -52 -12 -25 34 27 73 73 65 78 -2 1 -25 -23
-53 -53z"/>
<path d="M3760 2505 l-45 -24 65 4 c67 5 120 21 120 36 0 13 -16 11 -57 -6
-19 -8 -37 -15 -39 -15 -2 0 -1 7 2 15 8 19 8 19 -46 -10z"/>
<path d="M4046 2199 c-32 -27 -75 -57 -95 -65 -39 -17 -125 -36 -154 -36 -9 1
-15 -3 -12 -8 3 -4 -1 -11 -7 -13 -7 -3 4 -6 25 -6 20 -1 37 -4 37 -9 0 -4
-20 -6 -45 -4 -56 5 -87 -4 -65 -18 11 -7 2 -10 -30 -11 -25 -1 -37 -3 -27 -6
9 -2 17 -9 17 -14 0 -12 -7 -11 -30 1 -10 5 -26 7 -35 4 -14 -6 -14 -8 2 -20
12 -9 14 -13 5 -14 -7 0 -10 -5 -7 -11 4 -5 -9 -4 -28 4 -39 17 -73 6 -39 -12
34 -18 159 -41 220 -40 68 1 107 14 153 53 21 18 25 23 9 14 -31 -18 -60 -29
-60 -22 0 2 21 18 47 34 26 17 41 30 33 30 -7 0 6 14 28 30 23 17 42 33 42 36
0 3 -15 -6 -32 -20 -38 -28 -160 -88 -167 -81 -5 6 -6 5 44 39 l40 26 -35 -6
c-34 -6 -34 -6 -14 9 11 9 27 17 34 19 40 9 220 151 208 164 -2 1 -30 -19 -62
-47z m-209 -165 c-3 -3 -12 -4 -19 -1 -8 3 -5 6 6 6 11 1 17 -2 13 -5z m-175
-38 c10 -7 15 -16 11 -19 -10 -11 -25 -8 -18 2 3 6 -3 14 -12 20 -10 6 -13 10
-8 10 6 0 18 -6 27 -13z m118 0 c0 -3 -4 -8 -10 -11 -5 -3 -10 -1 -10 4 0 6 5
11 10 11 6 0 10 -2 10 -4z"/>
<path d="M3594 2133 c4 -4 30 -18 59 -31 38 -17 44 -22 22 -18 -16 2 -39 8
-50 12 -17 6 -18 5 -7 -7 17 -18 118 -21 133 -3 8 10 0 14 -38 20 -26 4 -66
13 -87 21 -22 7 -36 10 -32 6z"/>
<path d="M3519 2036 c6 -7 9 -15 6 -18 -3 -3 3 -11 12 -19 16 -13 17 -12 4 4
-18 22 -10 22 34 -4 20 -12 37 -20 39 -18 2 2 -21 19 -51 36 -30 18 -50 27
-44 19z"/>
<path d="M3590 2036 c0 -2 7 -7 16 -10 8 -3 12 -2 9 4 -6 10 -25 14 -25 6z"/>
<path d="M1243 1944 c-30 -26 -53 -54 -53 -65 0 -11 -8 -32 -17 -47 -17 -27
-17 -26 12 3 48 48 127 156 113 155 -2 0 -27 -21 -55 -46z"/>
<path d="M3239 1949 c-7 -15 -14 -18 -18 -10 -5 7 -19 -4 -41 -31 -27 -35 -29
-39 -7 -19 19 17 27 20 27 10 0 -9 8 -5 21 11 24 31 41 60 35 60 -3 0 -10 -10
-17 -21z"/>
<path d="M1480 1921 c0 -6 4 -13 10 -16 6 -3 7 1 4 9 -7 18 -14 21 -14 7z"/>
<path d="M1360 1864 c0 -5 18 -29 40 -54 21 -25 39 -40 39 -35 0 6 -18 30 -39
54 -22 24 -40 40 -40 35z"/>
<path d="M3123 1718 c-19 -23 -83 -110 -98 -137 -5 -9 -4 -12 3 -7 6 4 28 33
49 64 20 31 46 67 56 80 11 12 18 22 15 22 -2 0 -14 -10 -25 -22z"/>
<path d="M1510 1499 c0 -5 9 -9 20 -9 11 0 20 2 20 4 0 2 -9 6 -20 9 -11 3
-20 1 -20 -4z"/>
<path d="M2338 1433 c7 -3 16 -2 19 1 4 3 -2 6 -13 5 -11 0 -14 -3 -6 -6z"/>
<path d="M1568 1423 c6 -2 18 -2 25 0 6 3 1 5 -13 5 -14 0 -19 -2 -12 -5z"/>
<path d="M1628 1414 c12 -3 22 -10 22 -15 0 -5 21 -9 47 -9 66 0 42 17 -32 24
-33 2 -50 2 -37 0z"/>
<path d="M1884 1394 c-18 -14 -18 -15 4 -4 12 6 22 13 22 15 0 8 -5 6 -26 -11z"/>
<path d="M2293 1403 c9 -2 25 -2 35 0 9 3 1 5 -18 5 -19 0 -27 -2 -17 -5z"/>
<path d="M1500 1381 c8 -5 38 -12 65 -15 49 -5 49 -5 10 4 -77 19 -91 21 -75
11z"/>
<path d="M1755 1379 c-16 -6 -47 -10 -67 -10 -20 0 -39 -6 -41 -13 -3 -7 1
-13 9 -13 8 0 14 3 14 7 0 4 11 5 24 3 27 -5 92 13 101 28 7 11 0 10 -40 -2z"/>
<path d="M1295 1343 c24 -24 105 -45 190 -48 l90 -4 -71 8 c-61 8 -139 26
-201 48 -12 4 -15 3 -8 -4z"/>
<path d="M1568 1343 c6 -2 18 -2 25 0 6 3 1 5 -13 5 -14 0 -19 -2 -12 -5z"/>
<path d="M2112 1330 c0 -14 2 -19 5 -12 2 6 2 18 0 25 -3 6 -5 1 -5 -13z"/>
<path d="M2152 1334 c5 -30 51 -54 108 -59 l55 -5 -55 13 c-55 13 -100 35
-100 49 0 4 7 4 17 1 11 -4 14 -3 9 5 -11 18 -38 14 -34 -4z"/>
<path d="M2485 1328 c-39 -11 -105 -20 -150 -20 -72 -1 -76 -2 -40 -10 70 -16
207 4 250 37 11 8 18 14 15 13 -3 0 -36 -9 -75 -20z"/>
<path d="M1785 1324 c-11 -7 -46 -20 -77 -28 -70 -18 -112 -41 -58 -31 57 10
64 12 105 29 21 9 40 14 42 12 9 -9 -94 -76 -147 -96 -53 -20 -54 -20 -15 -16
30 4 36 3 22 -5 -23 -13 -134 -38 -227 -50 -109 -14 -117 -19 -20 -13 96 5
199 22 217 36 7 5 14 5 18 -2 3 -5 -2 -13 -12 -16 -10 -3 -30 -12 -45 -20 -14
-8 -34 -14 -43 -14 -9 0 -14 -4 -10 -9 7 -12 -19 -20 -114 -36 l-76 -13 54 -1
c59 -1 171 26 171 41 0 5 5 6 10 3 6 -3 10 -1 10 5 0 6 5 8 10 5 6 -3 10 -1
10 4 0 6 7 11 15 11 9 0 18 7 21 15 4 8 9 13 13 11 3 -2 15 2 26 11 19 14 19
14 -7 8 -16 -4 -28 -5 -28 -2 0 11 63 36 74 30 6 -4 4 2 -4 12 -10 12 -11 16
-2 11 13 -8 19 -2 66 56 10 12 27 32 37 43 17 19 17 21 1 22 -9 0 -26 -5 -37
-13z"/>
<path d="M2210 1320 c8 -5 22 -9 30 -9 10 0 8 3 -5 9 -27 12 -43 12 -25 0z"/>
<path d="M2690 1239 c-28 -44 -49 -83 -47 -86 5 -5 63 80 91 136 29 55 9 33
-44 -50z"/>
<path d="M1224 1286 c11 -9 24 -16 30 -16 12 0 7 5 -24 19 -24 11 -24 11 -6
-3z"/>
<path d="M2150 1296 c0 -2 8 -10 18 -17 15 -13 16 -12 3 4 -13 16 -21 21 -21
13z"/>
<path d="M2605 1280 c-32 -21 -146 -50 -194 -50 -16 0 -33 -5 -37 -11 -5 -9
16 -10 77 -5 90 8 156 32 177 66 7 11 11 20 10 19 -2 0 -16 -9 -33 -19z"/>
<path d="M2130 1280 c0 -9 59 -64 64 -59 2 2 -12 18 -30 35 -19 17 -34 28 -34
24z"/>
<path d="M1150 1205 c0 -2 10 -10 23 -16 20 -11 21 -11 8 4 -13 16 -31 23 -31
12z"/>
<path d="M2168 1188 c11 -11 43 -26 72 -34 65 -17 256 -14 285 4 18 11 17 12
-10 7 l-30 -6 30 16 c26 13 27 15 5 9 -14 -3 -77 -8 -140 -11 -98 -4 -124 -2
-174 15 -58 20 -58 20 -38 0z"/>
<path d="M1558 1183 c7 -3 16 -2 19 1 4 3 -2 6 -13 5 -11 0 -14 -3 -6 -6z"/>
<path d="M1595 1064 c-27 -13 -67 -31 -89 -39 -52 -21 -41 -28 18 -10 54 16
126 55 126 67 0 4 -1 8 -2 7 -2 0 -25 -11 -53 -25z"/>
<path d="M1190 1026 c37 -21 116 -32 180 -25 l55 6 -56 1 c-51 2 -130 14 -184
28 -14 3 -13 1 5 -10z"/>
<path d="M1558 909 c-16 -27 -24 -49 -19 -49 13 0 -15 -113 -40 -163 -15 -29
-17 -38 -7 -29 9 7 21 26 28 43 16 37 24 32 10 -6 -18 -46 -2 -41 20 6 14 31
20 66 20 117 0 40 5 82 11 93 6 11 9 24 7 29 -2 5 -15 -13 -30 -41z"/>
<path d="M1111 914 c12 -15 98 -58 104 -53 2 3 -23 18 -56 36 -33 17 -55 25
-48 17z"/>
<path d="M1348 873 c6 -2 18 -2 25 0 6 3 1 5 -13 5 -14 0 -19 -2 -12 -5z"/>
<path d="M1040 780 c8 -5 22 -10 30 -10 13 0 13 1 0 10 -8 5 -22 10 -30 10
-13 0 -13 -1 0 -10z"/>
</g>
</svg>
