<?xml version="1.0" standalone="no"?>
<!DOCTYPE svg PUBLIC "-//W3C//DTD SVG 20010904//EN"
 "http://www.w3.org/TR/2001/REC-SVG-20010904/DTD/svg10.dtd">
<svg version="1.0" xmlns="http://www.w3.org/2000/svg"
 width="607.000000pt" height="760.000000pt" viewBox="0 0 607.000000 760.000000"
 preserveAspectRatio="xMidYMid meet">

<g transform="translate(0.000000,760.000000) scale(0.100000,-0.100000)"
fill="#000000" stroke="none">
<path d="M2978 7593 c23 -2 59 -2 80 0 20 2 1 4 -43 4 -44 0 -61 -2 -37 -4z"/>
<path d="M2920 6959 c-235 -193 -324 -328 -390 -589 l-27 -104 -44 -24 c-64
-34 -114 -87 -144 -153 -18 -41 -33 -60 -48 -64 -12 -3 -69 -14 -127 -26 -418
-82 -997 -252 -1205 -354 -228 -111 -380 -265 -490 -498 -76 -159 -90 -232
-89 -447 0 -172 2 -191 27 -275 47 -153 96 -238 333 -580 127 -181 313 -449
414 -595 101 -146 235 -338 297 -428 62 -89 113 -164 113 -166 0 -2 -38 -26
-85 -55 -168 -103 -356 -252 -537 -428 l-98 -94 311 -447 c171 -246 314 -450
318 -454 4 -4 67 44 141 108 139 118 299 244 312 244 5 0 8 -9 8 -20 0 -31 25
-74 60 -104 54 -45 115 -56 306 -56 197 0 165 14 256 -117 253 -366 481 -688
488 -688 5 0 51 61 102 135 52 74 152 218 223 320 71 102 142 205 159 230 16
25 42 61 58 82 l28 36 188 4 c180 3 189 4 242 30 67 33 101 76 108 134 2 24 7
44 9 44 14 0 185 -128 317 -237 82 -68 152 -120 156 -116 7 8 119 167 268 383
40 58 138 199 218 313 l144 208 -63 58 c-232 216 -398 344 -634 487 l-32 19
162 235 c155 224 214 309 581 835 317 455 332 479 379 612 57 157 74 375 42
539 -62 326 -265 598 -555 744 -190 96 -751 262 -1175 349 -82 17 -160 33
-172 36 -16 4 -32 24 -52 68 -32 69 -74 114 -140 149 -45 23 -45 24 -67 114
-45 182 -116 327 -214 437 -48 53 -255 223 -283 232 -7 2 -50 -28 -97 -66z
m189 -138 c120 -96 174 -164 231 -288 37 -80 66 -177 83 -278 l13 -80 58 -18
c78 -25 119 -68 146 -154 l21 -68 152 -29 c400 -76 1006 -248 1223 -346 216
-98 399 -291 483 -510 68 -176 84 -385 42 -555 -46 -184 -49 -189 -656 -1060
-61 -88 -145 -209 -186 -268 -40 -60 -92 -134 -115 -165 -92 -129 -254 -365
-252 -367 2 -1 42 -23 90 -48 184 -100 470 -311 597 -441 l54 -55 -39 -58
c-129 -187 -458 -659 -464 -667 -5 -4 -55 31 -112 79 -111 93 -264 200 -369
258 -36 21 -68 37 -72 37 -3 0 -7 -49 -9 -109 -5 -166 -13 -171 -305 -171
l-191 0 -99 -143 c-324 -468 -409 -586 -415 -584 -4 1 -77 103 -163 227 -86
124 -174 250 -195 280 -22 30 -65 92 -96 137 l-56 83 -205 0 c-216 0 -260 8
-282 48 -6 12 -11 64 -11 116 0 53 -2 96 -5 96 -3 0 -46 -25 -95 -55 -107 -67
-213 -145 -335 -249 -49 -42 -94 -76 -100 -76 -9 1 -479 669 -499 712 -8 17 1
30 60 84 199 185 452 372 614 454 25 12 46 24 48 25 3 3 -27 48 -293 430 -65
94 -193 278 -285 410 -92 132 -247 355 -344 495 -98 140 -193 282 -211 315
-48 85 -91 224 -105 339 -48 375 163 766 505 938 191 97 798 273 1241 359
l172 34 21 66 c12 37 31 79 42 93 25 32 87 65 128 68 28 2 31 6 37 48 10 74
52 227 83 300 41 99 114 202 184 264 34 30 78 68 97 85 19 17 39 31 44 31 4 0
47 -31 95 -69z"/>
<path d="M2957 6673 c-69 -71 -100 -115 -139 -202 -48 -105 -77 -236 -90 -413
l-12 -160 -20 58 c-10 33 -26 64 -35 71 -25 19 -85 16 -105 -5 -9 -11 -41 -98
-71 -194 l-55 -176 0 -610 0 -611 -104 -90 c-57 -50 -113 -106 -125 -124 -25
-41 -61 -203 -61 -277 0 -31 5 -82 11 -113 l12 -56 51 -6 c28 -3 87 -9 131
-13 l80 -7 3 -122 3 -122 -36 -70 c-44 -88 -45 -124 -5 -159 22 -20 30 -35 30
-62 0 -19 6 -42 13 -51 52 -69 262 -79 341 -16 22 18 28 31 28 62 0 31 6 46
29 67 39 36 38 71 -7 159 -19 39 -33 76 -31 83 3 7 31 10 86 8 l81 -4 0 -27
c0 -79 46 -124 100 -96 23 12 31 25 40 70 l11 55 64 0 c35 0 70 3 79 6 25 10
19 -20 -19 -96 -44 -87 -45 -123 -5 -158 22 -20 30 -35 30 -62 0 -19 6 -42 13
-51 53 -69 263 -78 342 -15 24 20 29 30 28 64 -2 32 3 43 21 56 13 8 28 28 34
44 9 26 5 41 -29 113 l-39 84 2 120 3 120 120 12 c66 6 125 12 132 12 16 1 33
89 33 174 -1 84 -30 222 -57 269 -10 18 -67 76 -126 128 l-107 95 0 613 0 614
-55 176 c-32 100 -63 181 -73 188 -26 20 -86 17 -106 -5 -10 -11 -26 -45 -35
-76 l-18 -57 -7 128 c-16 288 -74 476 -186 609 -49 57 -105 105 -125 105 -6 0
-37 -26 -68 -57z m99 -45 c16 -19 16 -20 1 -9 -15 12 -17 12 -11 -3 5 -12 0
-16 -18 -16 -34 0 -41 10 -21 32 21 23 26 23 49 -4z m6 -61 c4 -7 7 -19 7 -27
0 -10 -3 -9 -10 5 -8 17 -9 17 -4 -5 3 -14 8 -50 10 -80 3 -44 3 -49 -5 -25
-8 25 -8 23 -4 -16 13 -118 23 -327 24 -463 l0 -148 -92 8 c-51 5 -111 9 -132
9 l-39 0 7 141 c11 236 44 401 102 517 28 54 25 63 -4 14 -67 -115 -99 -263
-109 -509 -4 -93 -10 -158 -16 -158 -15 0 -2 301 18 400 22 110 77 252 121
314 35 47 37 48 77 42 23 -4 45 -12 49 -19z m93 -64 c70 -116 116 -343 113
-558 l-1 -120 -8 132 c-17 307 -48 429 -157 613 l-14 25 21 -25 c11 -14 32
-44 46 -67z m-33 -138 c23 -111 39 -555 20 -555 -9 0 -12 51 -12 179 0 243
-13 367 -55 518 -3 10 2 2 11 -17 9 -19 25 -75 36 -125z m-496 -459 l7 -46
-32 0 c-36 0 -35 -4 -15 68 18 62 30 56 40 -22z m839 2 l7 -48 -31 0 c-36 0
-36 -2 -14 67 19 59 27 55 38 -19z m-824 -89 c4 -6 14 -48 23 -92 12 -61 13
-83 4 -88 -10 -6 -158 -1 -166 7 -2 1 7 34 19 73 15 47 26 67 32 58 5 -7 6 -3
2 11 -10 34 12 55 49 48 16 -4 33 -11 37 -17z m853 -53 c8 -39 18 -85 21 -102
l6 -30 -88 4 c-48 2 -89 5 -90 6 -2 2 7 35 19 75 14 48 24 68 30 59 5 -8 6 -1
2 16 -5 20 -4 27 4 22 8 -5 10 -1 6 9 -5 13 0 16 34 14 l41 -3 15 -70z m-685
-423 c-1 -258 -5 -481 -9 -498 -4 -16 -8 194 -9 468 -1 325 2 497 9 497 7 0
10 -162 9 -467z m458 -270 c-1 -137 -2 -25 -2 247 0 272 1 384 2 248 2 -137 2
-359 0 -495z m-294 715 c101 3 107 2 107 -17 0 -17 -3 -18 -29 -8 -98 37 -170
-167 -201 -573 -20 -262 -28 -205 -29 208 l-1 403 23 -8 c12 -4 70 -7 130 -5z
m134 -60 c-2 -13 -4 -3 -4 22 0 25 2 35 4 23 2 -13 2 -33 0 -45z m43 -25 c0
-61 -3 -83 -10 -73 -13 20 -13 160 0 160 6 0 10 -36 10 -87z m-90 -28 c0 -10
-10 -15 -30 -15 -20 0 -30 5 -30 15 0 10 10 15 30 15 20 0 30 -5 30 -15z m38
3 c11 -15 42 -119 41 -140 0 -7 -7 3 -14 22 l-13 35 -2 -30 -2 -30 -8 30 c-5
20 -8 24 -9 10 -1 -17 -8 -21 -43 -20 -24 0 -62 -4 -85 -8 l-42 -9 19 58 c25
72 40 92 52 70 6 -10 23 -16 43 -16 28 0 35 4 35 20 0 23 13 26 28 8z m-472
-73 l33 6 4 -98 3 -98 2 105 c2 73 5 100 12 90 6 -8 10 -57 9 -109 l-1 -93
-46 6 c-24 3 -67 6 -93 6 l-49 0 2 98 2 97 6 -95 6 -95 2 97 2 96 36 -10 c20
-5 52 -7 70 -3z m840 0 l33 6 4 -98 3 -98 2 105 c3 129 22 119 22 -11 0 -68
-3 -88 -15 -93 -8 -3 -51 -3 -95 1 l-80 6 2 96 2 96 6 -95 6 -95 2 97 2 96 36
-10 c20 -5 52 -7 70 -3z m-346 -107 c0 -19 -2 -20 -10 -8 -8 13 -10 13 -10 -2
0 -14 -9 -17 -52 -15 -68 3 -138 -20 -138 -44 0 -10 -4 -21 -10 -24 -13 -8
-13 10 0 57 6 21 18 42 28 47 9 6 56 11 105 11 84 0 87 -1 87 -22z m50 -83 c6
-38 13 -82 15 -97 2 -16 1 -28 -3 -28 -5 0 -14 39 -20 88 -7 48 -15 98 -18
112 -4 19 -3 22 5 10 5 -8 15 -46 21 -85z m-96 -5 c23 -8 26 -15 26 -60 0 -46
-2 -50 -24 -50 -18 0 -23 4 -19 18 4 15 -1 19 -26 19 -18 0 -31 -6 -31 -13 0
-13 -31 -24 -72 -24 -23 0 -28 4 -28 25 0 18 5 25 20 25 11 0 26 12 35 29 20
39 67 51 119 31z m-567 -222 c-1 -40 -3 -8 -3 72 0 80 2 112 3 73 2 -40 2
-106 0 -145z m33 165 c0 -27 -5 -55 -10 -63 -7 -11 -10 3 -10 48 0 35 4 62 10
62 6 0 10 -21 10 -47z m150 14 c0 -12 -5 -29 -10 -37 -7 -11 -10 -3 -10 28 0
26 4 41 10 37 6 -3 10 -16 10 -28z m37 1 c-3 -7 -5 -2 -5 12 0 14 2 19 5 13 2
-7 2 -19 0 -25z m620 -60 c-2 -18 -4 -4 -4 32 0 36 2 50 4 33 2 -18 2 -48 0
-65z m25 41 l-10 -34 -1 45 c-1 31 2 41 10 33 7 -7 7 -21 1 -44z m157 13 c-1
-15 -5 -38 -9 -52 -6 -19 -8 -11 -9 33 -1 36 3 56 9 52 6 -3 10 -18 9 -33z
m-873 4 c-3 -11 -6 -34 -6 -50 0 -37 -17 -23 -23 19 -2 17 -5 -27 -6 -97 l-1
-128 -50 0 c-30 0 -50 4 -50 11 0 6 7 9 15 5 13 -5 15 13 15 127 l0 132 56 1
c52 2 55 0 50 -20z m840 0 c-3 -11 -6 -31 -6 -43 0 -35 -18 -27 -23 10 -2 17
-5 -25 -5 -94 l-2 -126 -52 0 c-29 -1 -45 1 -35 4 15 4 17 19 17 136 l0 132
56 1 c52 2 55 0 50 -20z m-726 -66 c0 -5 -7 -10 -15 -10 -8 0 -15 5 -15 10 0
6 7 10 15 10 8 0 15 -4 15 -10z m548 -1 c-2 -6 -8 -10 -13 -10 -5 0 -11 4 -13
10 -2 6 4 11 13 11 9 0 15 -5 13 -11z m-591 -46 c-3 -10 -5 -4 -5 12 0 17 2
24 5 18 2 -7 2 -21 0 -30z m285 -97 c-2 -67 -7 -124 -11 -129 -4 -4 -32 -10
-61 -14 l-53 -6 6 69 c4 38 7 97 7 131 0 68 -1 67 75 69 l40 1 -3 -121z m101
117 c-10 -3 -13 -40 -13 -134 l0 -129 -30 0 -30 0 0 135 0 135 43 -1 c23 0 36
-3 30 -6z m77 -138 c0 -83 -4 -135 -10 -135 -6 0 -10 52 -10 135 0 83 4 135
10 135 6 0 10 -52 10 -135z m327 103 c-3 -8 -6 -5 -6 6 -1 11 2 17 5 13 3 -3
4 -12 1 -19z m13 -73 c0 -51 -2 -55 -22 -54 -17 1 -19 2 -5 6 13 3 17 15 17
54 0 27 2 49 5 49 3 0 5 -25 5 -55z m-840 -5 c0 -41 -3 -50 -17 -49 -11 0 -13
3 -5 6 7 3 12 23 12 49 0 24 2 44 5 44 3 0 5 -22 5 -50z m877 -17 c-2 -16 -4
-5 -4 22 0 28 2 40 4 28 2 -13 2 -35 0 -50z m-840 -10 c-3 -10 -5 -4 -5 12 0
17 2 24 5 18 2 -7 2 -21 0 -30z m620 0 c-3 -10 -5 -4 -5 12 0 17 2 24 5 18 2
-7 2 -21 0 -30z m-620 -245 c-1 -40 -3 -8 -3 72 0 80 2 112 3 73 2 -40 2 -106
0 -145z m840 0 c-1 -40 -3 -8 -3 72 0 80 2 112 3 73 2 -40 2 -106 0 -145z
m-1060 150 c-2 -13 -4 -5 -4 17 -1 22 1 32 4 23 2 -10 2 -28 0 -40z m840 20
c-3 -7 -5 -2 -5 12 0 14 2 19 5 13 2 -7 2 -19 0 -25z m-727 -113 c0 -74 -3
-135 -7 -136 -51 -5 -71 -6 -90 -2 -21 5 -23 10 -21 62 l2 56 3 -50 c4 -45 14
-64 36 -65 4 0 7 58 7 128 0 71 3 132 7 135 3 4 19 7 35 7 l28 0 0 -135z m840
1 l0 -133 -37 -6 c-49 -8 -83 1 -83 22 0 10 3 12 8 5 4 -6 15 -13 25 -17 16
-6 17 4 17 122 0 70 3 131 7 134 3 4 19 7 35 7 l28 0 0 -134z m-448 -78 c-3
-142 4 -130 -82 -141 l-35 -5 -3 134 -4 133 64 3 c34 2 63 3 63 3 0 0 -1 -57
-3 -127z m88 -5 c-4 -102 -8 -138 -17 -137 -45 4 -43 -2 -43 139 l0 135 33 0
32 0 -5 -137z m90 -14 c0 -91 -4 -138 -10 -134 -6 4 -10 62 -10 141 0 83 4
134 10 134 6 0 10 -54 10 -141z m27 119 c-3 -8 -6 -5 -6 6 -1 11 2 17 5 13 3
-3 4 -12 1 -19z m-367 -235 c-1 -60 -5 -121 -10 -138 -5 -16 -16 -88 -25 -160
-28 -217 -78 -378 -132 -428 -18 -16 -41 -17 -235 -15 l-216 3 26 68 c25 68
26 70 251 273 258 233 291 275 310 388 26 153 32 155 31 9z m433 -45 c8 -19
29 -51 47 -72 18 -20 31 -39 28 -41 -6 -6 -61 62 -80 100 -16 32 -39 124 -37
153 1 9 7 -11 15 -45 7 -34 19 -77 27 -95z m-593 127 c0 -8 -7 -15 -15 -15
-13 0 -14 3 -3 15 16 18 18 18 18 0z m840 0 c0 -9 -9 -15 -22 -14 -17 1 -19 2
-5 6 9 2 17 9 17 14 0 5 2 9 5 9 3 0 5 -7 5 -15z m-803 -117 c-2 -18 -4 -4 -4
32 0 36 2 50 4 33 2 -18 2 -48 0 -65z m840 -120 c-1 -40 -3 -8 -3 72 0 80 2
112 3 73 2 -40 2 -106 0 -145z m-967 -63 c-15 -16 -28 -20 -55 -17 -19 2 -37
8 -40 12 -2 4 7 6 20 4 l25 -2 0 128 0 129 33 3 32 3 3 -119 c2 -108 1 -121
-18 -141z m860 135 l0 -131 -35 28 -35 28 0 97 0 97 33 4 c17 2 33 5 35 5 1 1
2 -57 2 -128z m-448 -57 c-2 -65 -5 -123 -7 -129 -2 -6 -20 -15 -40 -18 -20
-4 -43 -10 -51 -13 -12 -4 -14 17 -14 130 l0 136 53 4 c28 2 54 4 57 5 3 1 4
-51 2 -115z m90 -18 l-3 -135 -30 0 -29 0 0 128 c0 71 3 132 7 135 3 4 18 7
32 7 l26 0 -3 -135z m88 -151 l0 -274 -35 0 c-19 0 -35 4 -35 9 0 4 12 6 26 3
l25 -5 -3 132 c-2 72 -1 131 2 131 3 0 3 65 0 144 -4 112 -2 142 8 139 9 -4
12 -69 12 -279z m64 -324 c19 -19 37 -46 40 -60 5 -19 2 -16 -13 10 -10 19
-31 46 -45 59 l-26 24 2 256 3 256 2 -255 3 -255 34 -35z m276 430 c0 -16 -4
-30 -8 -30 -5 0 -7 14 -4 30 2 17 6 30 8 30 2 0 4 -13 4 -30z m51 -222 c187
-170 198 -181 223 -243 14 -36 26 -67 26 -70 0 -3 -80 -5 -179 -5 l-179 0 -40
53 c-23 29 -56 84 -74 122 -32 68 -33 75 -38 226 l-5 157 35 -31 c19 -17 123
-111 231 -209z m-94 200 c-3 -7 -5 -2 -5 12 0 14 2 19 5 13 2 -7 2 -19 0 -25z
m193 -208 c47 -41 93 -84 103 -95 20 -22 51 -85 44 -91 -2 -2 -11 15 -21 37
-13 28 -54 71 -134 142 -64 56 -139 124 -167 151 -46 45 -44 44 20 -10 39 -32
108 -92 155 -134z m-113 143 c-3 -10 -5 -2 -5 17 0 19 2 27 5 18 2 -10 2 -26
0 -35z m-997 12 c0 -2 -69 -65 -154 -140 -85 -74 -157 -141 -159 -148 -3 -6
-6 -7 -6 -2 -1 14 76 88 209 204 106 92 110 95 110 86z m445 -165 l0 -140 -60
0 -60 0 0 134 0 133 42 -1 c32 -1 78 7 78 13 0 1 0 -62 0 -139z m82 73 c-4
-38 -7 -101 -7 -140 0 -71 -1 -73 -25 -73 l-25 0 0 140 0 140 31 0 32 0 -6
-67z m-254 -234 c-4 -4 -6 15 -3 44 l5 52 3 -44 c2 -24 0 -47 -5 -52z m65 -25
c12 -4 22 -13 22 -21 0 -8 -4 -11 -10 -8 -6 4 -10 -13 -11 -42 0 -43 -24 -152
-43 -195 -6 -13 0 -18 36 -25 l43 -9 6 41 6 40 1 -48 c2 -42 0 -48 -15 -43
-47 13 -113 17 -146 8 -34 -10 -37 -9 -36 11 0 12 3 16 6 10 11 -28 23 -10 23
35 0 62 18 158 37 197 l14 30 -21 -25 c-19 -22 -20 -22 -11 -3 12 23 49 53 66
53 5 0 20 -3 33 -6z m308 -5 c10 -17 5 -197 -8 -246 -9 -36 -15 -43 -42 -48
-17 -4 -40 -9 -51 -11 -15 -4 -16 -3 -7 4 10 7 15 41 17 123 1 63 6 123 10
134 5 11 5 17 0 13 -4 -4 -12 -25 -16 -45 -8 -37 -8 -37 -4 7 2 31 11 50 25
62 25 20 65 24 76 7z m-176 -31 c4 -143 -3 -545 -9 -555 -20 -36 -40 440 -21
515 11 47 30 71 30 40z m250 -124 c5 -38 10 -88 10 -110 0 -40 -1 -41 -27 -35
-26 5 -26 6 -5 9 15 2 22 10 22 25 -1 30 -19 166 -25 192 -5 17 -4 17 4 4 6
-9 15 -48 21 -85z m-1050 16 c0 -6 82 -10 226 -10 164 0 223 -3 218 -11 -5 -8
4 -10 30 -7 20 2 36 0 36 -4 0 -4 -121 -8 -270 -8 -255 0 -270 1 -270 18 0 10
3 22 7 25 10 10 23 8 23 -3z m493 3 c-7 -2 -21 -2 -30 0 -10 3 -4 5 12 5 17 0
24 -2 18 -5z m655 0 c-51 -3 -68 -8 -68 -18 0 -12 18 -15 90 -15 53 0 90 4 90
10 0 6 60 10 161 10 104 0 158 3 154 10 -7 12 15 13 33 2 7 -5 10 -16 6 -25
-5 -15 -33 -17 -275 -17 l-269 0 0 25 c0 25 1 25 73 23 l72 -2 -67 -3z m-655
-70 c-7 -2 -19 -2 -25 0 -7 3 -2 5 12 5 14 0 19 -2 13 -5z m615 0 c-15 -2 -29
-12 -31 -21 -3 -12 -5 -10 -6 6 -1 19 4 22 32 21 29 -2 29 -2 5 -6z m130 0
c-16 -2 -40 -2 -55 0 -16 2 -3 4 27 4 30 0 43 -2 28 -4z m372 -22 c0 -17 -4
-32 -8 -35 -4 -2 -106 -14 -227 -25 -121 -12 -237 -23 -257 -26 -32 -4 -38 -2
-38 12 0 11 3 14 8 7 10 -15 162 0 173 18 5 7 9 23 9 36 0 22 2 22 143 23 78
0 151 4 162 9 32 14 35 12 35 -19z m-1361 9 l204 0 -6 -41 c-3 -22 -8 -43 -10
-46 -3 -2 -103 5 -224 16 -225 22 -243 27 -243 69 0 11 9 13 38 8 20 -3 129
-6 241 -6z m251 -90 c0 -5 -8 -10 -17 -10 -15 0 -16 2 -3 10 19 12 20 12 20 0z
m40 -40 c0 -16 -4 -30 -10 -30 -5 0 -10 14 -10 30 0 17 5 30 10 30 6 0 10 -13
10 -30z m520 0 c0 -16 -4 -30 -10 -30 -5 0 -10 14 -10 30 0 17 5 30 10 30 6 0
10 -13 10 -30z m-462 -18 c3 -17 -2 -22 -17 -22 -22 0 -25 8 -15 35 9 22 28
14 32 -13z m148 -40 c-13 -12 -17 8 -10 40 l9 33 3 -33 c2 -19 1 -36 -2 -40z
m252 46 c-2 -12 -8 -23 -14 -25 -7 -2 -10 6 -7 22 6 30 26 34 21 3z m-145 -47
c-10 -13 -24 20 -17 40 8 23 8 23 14 -6 3 -16 5 -32 3 -34z m-193 39 c0 -5 -7
-10 -15 -10 -8 0 -15 5 -15 10 0 6 7 10 15 10 8 0 15 -4 15 -10z m295 0 c-3
-5 -10 -10 -16 -10 -5 0 -9 5 -9 10 0 6 7 10 16 10 8 0 12 -4 9 -10z m-575
-15 c0 -16 -12 -18 -49 -8 -23 6 -23 7 -5 14 31 12 54 10 54 -6z m840 -5 c0
-5 -11 -10 -25 -10 -14 0 -25 5 -25 10 0 6 11 10 25 10 14 0 25 -4 25 -10z
m-560 -16 c0 -17 -22 -14 -28 4 -2 7 3 12 12 12 9 0 16 -7 16 -16z m290 0 c0
-9 -5 -14 -12 -12 -18 6 -21 28 -4 28 9 0 16 -7 16 -16z m-501 -27 c0 -20 -1
-20 -8 -3 -7 17 -8 17 -23 2 -12 -12 -18 -13 -22 -3 -5 9 -7 9 -12 0 -8 -19
-74 -17 -74 2 0 8 -6 15 -14 15 -8 0 -17 3 -19 8 -3 4 35 6 84 4 84 -3 89 -5
88 -25z m854 16 c-7 -3 -13 -12 -14 -21 0 -14 -2 -14 -8 2 -7 17 -8 17 -23 2
-12 -11 -18 -12 -20 -3 -3 8 -9 7 -21 -4 -18 -19 -67 -14 -67 6 0 7 -6 16 -12
18 -7 3 30 5 82 5 52 0 89 -2 83 -5z m-639 -28 c-4 -8 -12 -15 -20 -15 -8 0
-14 7 -14 15 0 8 9 15 20 15 13 0 18 -5 14 -15z m294 -2 c6 -19 -25 -16 -32 3
-4 11 -1 14 11 12 9 -2 18 -9 21 -15z m-488 -25 c0 -5 -4 -8 -10 -8 -5 0 -10
-8 -11 -17 0 -16 -1 -16 -8 1 -7 17 -8 17 -23 2 -12 -12 -18 -13 -22 -3 -5 9
-7 9 -12 0 -8 -17 -74 -17 -74 0 0 7 -12 17 -27 23 -20 7 1 9 80 9 59 0 107
-3 107 -7z m840 -2 c-11 -5 -20 -16 -21 -25 0 -10 -2 -12 -6 -3 -2 6 -11 12
-19 12 -8 0 -14 -6 -14 -12 0 -9 -4 -8 -11 2 -8 11 -12 12 -16 3 -7 -19 -73
-17 -73 2 0 8 -6 15 -14 15 -8 0 -17 3 -19 8 -3 4 44 7 104 7 74 0 103 -3 89
-9z m-647 -3 c-7 -2 -21 -2 -30 0 -10 3 -4 5 12 5 17 0 24 -2 18 -5z m305 0
c-10 -2 -26 -2 -35 0 -10 3 -2 5 17 5 19 0 27 -2 18 -5z m-310 -20 c-10 -2
-26 -2 -35 0 -10 3 -2 5 17 5 19 0 27 -2 18 -5z m315 0 c-7 -2 -19 -2 -25 0
-7 3 -2 5 12 5 14 0 19 -2 13 -5z m-503 -37 c-11 -5 -20 -16 -21 -25 0 -13 -2
-12 -8 3 -7 17 -8 17 -23 2 -12 -12 -18 -13 -22 -3 -5 9 -7 9 -12 0 -8 -17
-74 -17 -74 0 0 7 -12 17 -27 23 -19 6 5 9 90 9 78 0 111 -3 97 -9z m835 -2
c-8 -6 -15 -17 -16 -25 0 -8 -3 -6 -8 5 -7 17 -8 17 -23 2 -12 -12 -18 -13
-22 -3 -5 9 -7 9 -12 0 -8 -17 -74 -17 -74 0 0 7 -12 17 -27 23 -20 7 3 9 85
9 85 0 109 -3 97 -11z m-835 -58 c-11 -5 -20 -16 -21 -25 0 -13 -2 -12 -8 3
-7 17 -8 17 -23 2 -12 -12 -18 -13 -22 -3 -5 9 -7 9 -12 0 -8 -17 -74 -17 -74
0 0 7 -12 17 -27 23 -19 6 5 9 90 9 78 0 111 -3 97 -9z m834 1 c-8 -4 -14 -16
-15 -25 0 -15 -1 -14 -8 2 -7 17 -8 17 -23 2 -12 -12 -18 -13 -22 -3 -5 9 -7
9 -12 0 -8 -17 -74 -17 -74 0 0 7 -12 17 -27 23 -20 7 2 9 84 9 61 0 105 -4
97 -8z m-1009 -58 c7 -10 98 -6 165 7 19 3 21 2 10 -5 -13 -9 -12 -18 3 -77
10 -36 16 -68 13 -71 -5 -5 -20 45 -32 105 -8 37 -21 41 -33 10 -6 -18 -9 -19
-14 -5 -14 36 -22 14 -17 -42 3 -33 4 -64 2 -70 -4 -13 -128 -15 -136 -3 -3 5
6 36 20 70 26 65 25 82 -5 82 -11 0 -27 -20 -46 -61 -16 -33 -31 -56 -33 -51
-3 11 32 86 50 110 13 15 44 16 53 1z m895 -1 c30 0 73 3 95 6 27 4 35 3 25
-3 -13 -9 -12 -18 3 -77 10 -36 16 -68 13 -71 -5 -5 -20 45 -32 105 -7 34 -21
42 -30 17 -5 -11 -10 -13 -19 -5 -19 15 -22 4 -15 -47 12 -77 7 -83 -66 -83
-34 0 -65 4 -68 9 -3 5 6 36 21 70 23 53 25 64 12 72 -26 16 -35 9 -64 -51
-16 -33 -31 -58 -33 -55 -5 5 34 93 51 113 7 8 18 11 31 6 12 -4 46 -7 76 -6z
m-755 -114 c6 -33 1 -54 -9 -43 -10 10 -17 79 -8 79 5 0 13 -16 17 -36z m841
1 c7 -39 -2 -58 -16 -35 -13 20 -13 70 0 70 5 0 12 -16 16 -35z m-866 -103
c23 -11 35 -24 35 -37 0 -18 -8 -20 -67 -23 -109 -5 -171 34 -105 66 34 16 98
14 137 -6z m840 0 c23 -11 35 -24 35 -37 0 -17 -8 -20 -60 -23 -78 -4 -135 12
-135 39 0 39 98 52 160 21z"/>
<path d="M2631 5784 c0 -11 3 -14 6 -6 3 7 2 16 -1 19 -3 4 -6 -2 -5 -13z"/>
<path d="M2642 5730 c0 -14 4 -38 8 -55 7 -27 8 -27 8 -5 0 14 -4 39 -8 55 -7
27 -8 27 -8 5z"/>
<path d="M2531 5704 c0 -11 3 -14 6 -6 3 7 2 16 -1 19 -3 4 -6 -2 -5 -13z"/>
<path d="M2521 5664 c0 -11 3 -14 6 -6 3 7 2 16 -1 19 -3 4 -6 -2 -5 -13z"/>
<path d="M3471 5784 c0 -11 3 -14 6 -6 3 7 2 16 -1 19 -3 4 -6 -2 -5 -13z"/>
<path d="M3482 5720 c0 -14 2 -19 5 -12 2 6 2 18 0 25 -3 6 -5 1 -5 -13z"/>
<path d="M3371 5704 c0 -11 3 -14 6 -6 3 7 2 16 -1 19 -3 4 -6 -2 -5 -13z"/>
<path d="M3492 5670 c0 -14 2 -19 5 -12 2 6 2 18 0 25 -3 6 -5 1 -5 -13z"/>
<path d="M3361 5664 c0 -11 3 -14 6 -6 3 7 2 16 -1 19 -3 4 -6 -2 -5 -13z"/>
<path d="M2543 5465 c0 -22 2 -30 4 -17 2 12 2 30 0 40 -3 9 -5 -1 -4 -23z"/>
<path d="M3383 5465 c0 -22 2 -30 4 -17 2 12 2 30 0 40 -3 9 -5 -1 -4 -23z"/>
<path d="M2353 4074 c-4 -11 1 -22 12 -31 16 -11 21 -11 33 1 8 8 12 22 9 30
-8 21 -46 21 -54 0z"/>
<path d="M2420 4066 c0 -19 6 -24 33 -27 57 -7 77 0 77 27 0 22 -3 24 -55 24
-51 0 -55 -2 -55 -24z"/>
<path d="M3557 4083 c-12 -11 -7 -41 7 -46 21 -8 50 17 43 37 -6 16 -38 22
-50 9z"/>
<path d="M3620 4065 c0 -24 3 -25 55 -25 52 0 55 1 55 25 0 24 -3 25 -55 25
-52 0 -55 -1 -55 -25z"/>
<path d="M2210 5774 c-345 -71 -575 -130 -855 -221 -296 -96 -391 -142 -502
-246 -84 -79 -135 -148 -184 -250 -61 -128 -74 -191 -74 -352 1 -266 2 -269
495 -975 48 -69 180 -260 295 -425 115 -165 275 -395 357 -512 81 -117 148
-214 148 -217 0 -2 -53 -32 -117 -66 -122 -64 -314 -186 -393 -249 -100 -79
-240 -203 -240 -212 0 -7 112 -170 303 -442 l69 -99 37 35 c61 58 210 166 326
235 118 70 241 132 262 132 10 0 13 -36 13 -155 0 -142 1 -155 19 -165 12 -6
100 -10 218 -10 l199 0 146 -212 c81 -117 181 -262 223 -321 l77 -108 179 258
c99 142 200 286 224 321 l45 62 196 0 c115 0 203 4 215 10 18 10 19 23 19 175
0 152 1 165 18 165 28 0 246 -111 357 -182 55 -35 142 -97 194 -137 51 -40 96
-69 100 -64 3 5 86 125 184 265 97 141 177 260 177 264 0 16 -165 153 -295
246 -134 95 -377 234 -457 260 -6 2 98 161 232 354 301 432 426 612 710 1019
304 438 329 490 337 720 4 109 2 144 -16 217 -67 281 -252 485 -538 590 -268
99 -620 198 -963 273 -233 50 -310 62 -310 48 0 -11 31 -103 35 -103 7 0 212
-42 224 -46 11 -3 8 -11 -10 -30 -34 -36 -78 -61 -124 -68 -83 -14 -75 48 -75
-561 l0 -544 67 -58 c153 -133 171 -163 204 -335 l23 -117 -20 -108 -19 -108
-55 -7 c-30 -4 -89 -11 -130 -15 l-75 -8 -3 -85 c-3 -80 -1 -88 38 -171 22
-48 40 -93 40 -101 0 -8 43 -28 108 -50 181 -61 492 -215 492 -243 0 -7 -8
-19 -18 -28 -17 -15 -21 -15 -55 3 -48 26 -50 25 -32 -10 29 -56 20 -92 -47
-191 l-63 -91 -3 39 c-6 89 -9 90 -53 26 -21 -32 -52 -74 -68 -93 l-29 -35
-70 23 c-67 22 -70 24 -87 68 -15 41 -16 54 -5 103 15 69 31 88 81 96 21 4 42
11 45 17 13 20 -11 26 -113 27 -67 1 -73 3 -73 21 0 61 67 130 127 130 l28 0
-25 20 c-14 11 -41 24 -60 30 -19 5 -53 22 -74 36 l-39 27 7 -61 c5 -46 3 -70
-10 -99 l-16 -38 -15 34 c-12 30 -16 32 -29 20 -12 -13 -4 -38 61 -198 41
-101 73 -186 71 -189 -3 -2 -16 -2 -30 2 -17 4 -29 19 -42 51 -9 25 -19 44
-21 41 -2 -2 3 -20 11 -41 15 -36 15 -36 -7 -33 -17 2 -24 13 -31 43 -15 70
-67 225 -78 231 -16 10 -1 -68 33 -170 16 -49 28 -90 27 -92 -2 -1 -33 4 -69
11 -70 15 -272 41 -376 49 l-63 4 0 -362 0 -361 23 -15 c13 -8 96 -70 184
-138 l161 -124 -187 -268 -186 -269 -7 357 c-4 196 -12 376 -18 400 -5 23 -11
59 -12 80 0 20 -5 1 -9 -43 -8 -79 -3 -650 6 -775 5 -60 3 -69 -25 -110 l-30
-45 -1 425 c-1 234 -3 445 -3 470 -1 25 -3 168 -4 318 -1 149 -6 272 -10 272
-18 0 -27 -306 -26 -879 1 -578 1 -593 -17 -570 -10 13 -50 69 -88 125 l-70
101 9 113 c7 91 13 327 10 448 0 40 -19 23 -26 -24 -4 -26 -12 -146 -18 -267
l-11 -221 -46 67 -46 66 9 68 c4 37 9 118 11 178 1 61 6 116 10 122 12 18 164
133 176 133 8 0 11 114 11 361 l0 361 -97 -5 c-89 -5 -311 -39 -347 -53 -9 -3
-16 2 -19 13 -4 16 -5 16 -6 1 -1 -16 -46 -36 -57 -26 -2 3 9 46 26 96 31 92
37 128 21 118 -12 -8 -58 -140 -66 -188 -5 -34 -10 -38 -48 -48 -23 -6 -50
-13 -60 -16 -16 -5 -16 -1 3 47 12 29 24 57 26 61 12 19 114 274 114 284 0 7
-7 15 -16 18 -17 7 -13 15 -120 -249 l-73 -180 -31 2 c-66 3 -79 11 -110 73
-34 68 -39 132 -15 200 17 48 18 60 7 60 -8 0 -82 -205 -82 -227 0 -7 12 -23
26 -36 28 -27 54 -90 47 -118 -12 -43 -62 -31 -63 14 0 29 -19 57 -39 57 -20
0 -215 273 -215 304 -1 33 281 182 494 260 78 28 85 33 87 59 1 15 18 59 38
98 33 64 35 75 35 162 l0 94 -127 12 c-70 6 -129 13 -131 16 -12 11 -31 146
-31 215 -1 95 31 240 64 297 15 24 71 83 125 131 l99 87 1 238 c0 191 -3 239
-14 243 -7 3 -44 -2 -81 -11 -67 -15 -225 -12 -225 5 0 4 24 11 53 15 l52 8
-40 8 c-50 10 -104 4 -229 -27 -54 -13 -114 -24 -133 -24 -55 0 -138 28 -178
60 -42 33 -124 74 -170 84 l-30 7 33 -22 c17 -11 32 -25 32 -30 0 -23 -67 -5
-161 44 -95 47 -104 54 -101 78 4 32 -25 68 -58 71 -20 2 -24 -1 -22 -16 3
-18 2 -19 -19 -4 -34 22 -58 59 -61 93 -3 27 2 33 57 62 33 17 141 58 240 91
161 54 185 59 225 52 63 -12 98 -3 115 30 12 24 29 31 137 60 67 17 203 50
302 71 324 70 288 57 303 109 7 25 12 50 11 56 -2 7 -75 -4 -208 -32z m1808
-307 c4 -22 -27 -35 -38 -16 -10 15 7 42 24 36 6 -2 12 -11 14 -20z m761 -52
c73 -25 161 -59 196 -77 75 -36 176 -114 190 -146 5 -12 15 -22 21 -22 11 0
64 -69 64 -83 0 -4 -47 -7 -105 -7 -108 0 -131 -10 -70 -30 27 -9 52 -9 104 1
68 12 101 9 101 -9 0 -19 -109 -54 -200 -65 -118 -13 -88 -27 45 -21 84 5 88
4 65 -10 -54 -33 -153 -57 -227 -54 -40 1 -75 -1 -79 -5 -4 -4 10 -14 32 -23
45 -19 132 -15 203 11 55 19 64 13 20 -15 -78 -47 -203 -62 -299 -34 -24 7
-25 7 -7 -13 21 -24 80 -43 131 -43 49 0 46 -17 -6 -28 l-43 -9 37 -7 c46 -10
92 5 161 51 108 73 147 81 84 18 -28 -28 -31 -34 -15 -29 52 16 90 36 123 65
34 30 35 31 15 47 -14 12 -18 24 -14 40 10 36 21 26 37 -37 14 -58 14 -60 -7
-79 -106 -97 -279 -141 -420 -108 -274 65 -435 322 -371 595 17 71 69 171 90
171 7 0 72 -20 144 -45z m-472 -136 c16 -16 5 -39 -18 -39 -12 0 -19 7 -19 18
0 31 17 41 37 21z m-207 -170 c0 -23 5 -28 43 -35 l42 -8 -42 -4 c-41 -3 -43
-4 -43 -37 0 -19 -4 -37 -10 -40 -6 -4 -10 10 -10 34 l0 41 -47 1 -48 1 48 10
c47 10 47 10 47 52 0 30 3 37 10 26 5 -8 10 -27 10 -41z m-3062 -192 c4 -20
-25 -34 -40 -19 -15 15 -1 44 19 40 10 -2 19 -11 21 -21z m2822 -187 c0 -5 -2
-10 -4 -10 -3 0 -8 5 -11 10 -3 6 -1 10 4 10 6 0 11 -4 11 -10z m-2560 -20 c0
-5 -2 -10 -4 -10 -3 0 -8 5 -11 10 -3 6 -1 10 4 10 6 0 11 -4 11 -10z m410
-70 c0 -5 -4 -10 -10 -10 -5 0 -10 5 -10 10 0 6 5 10 10 10 6 0 10 -4 10 -10z
m488 -13 c4 -20 -25 -34 -40 -19 -15 15 -1 44 19 40 10 -2 19 -11 21 -21z
m-658 -77 c0 -14 7 -20 23 -21 l22 0 -22 -11 c-12 -6 -24 -20 -26 -32 l-4 -21
-8 22 c-4 12 -19 26 -34 32 l-26 9 28 1 c20 1 27 6 27 21 0 11 5 20 10 20 6 0
10 -9 10 -20z m-655 -80 c-3 -5 -10 -10 -16 -10 -5 0 -9 5 -9 10 0 6 7 10 16
10 8 0 12 -4 9 -10z m1180 -20 c3 -5 1 -10 -4 -10 -6 0 -11 5 -11 10 0 6 2 10
4 10 3 0 8 -4 11 -10z m2343 -108 c3 -16 -2 -22 -17 -22 -26 0 -36 17 -20 36
16 19 33 13 37 -14z m-2897 -83 c43 -15 88 -55 105 -96 18 -41 17 -111 -1
-143 -8 -14 -14 -28 -15 -31 0 -6 78 -29 99 -29 15 0 14 33 -1 48 -8 8 -8 12
-1 12 17 0 94 -80 88 -90 -17 -28 -131 7 -320 97 -230 110 -356 196 -327 225
9 9 25 8 69 -2 46 -11 52 -15 31 -18 -44 -5 -33 -41 24 -77 26 -16 27 -16 41
12 30 56 95 100 153 102 12 1 36 -4 55 -10z m3103 -140 c-3 -5 -10 -7 -15 -3
-5 3 -7 10 -3 15 3 5 10 7 15 3 5 -3 7 -10 3 -15z m-3269 -69 c24 -16 72 -42
106 -57 l63 -27 -30 -14 c-25 -11 -26 -12 -4 -7 14 3 35 8 48 11 12 4 22 2 22
-4 0 -12 -61 -32 -97 -32 -68 0 -163 84 -163 145 0 21 5 19 55 -15z m2955 -45
c0 -8 -4 -15 -10 -15 -5 0 -10 7 -10 15 0 8 5 15 10 15 6 0 10 -7 10 -15z
m264 -156 l21 -2 -21 -4 c-12 -2 -26 -14 -32 -26 l-11 -22 0 23 c-1 16 -7 22
-23 23 l-23 2 23 4 c14 3 22 12 23 26 l0 22 11 -22 c6 -13 20 -24 32 -24z
m-3229 -9 c-3 -5 -10 -10 -16 -10 -5 0 -9 5 -9 10 0 6 7 10 16 10 8 0 12 -4 9
-10z m2605 -230 c0 -5 -4 -10 -10 -10 -5 0 -10 5 -10 10 0 6 5 10 10 10 6 0
10 -4 10 -10z m198 -133 c4 -20 -25 -34 -40 -19 -15 15 -1 44 19 40 10 -2 19
-11 21 -21z m367 -17 c3 -5 -1 -10 -9 -10 -9 0 -16 5 -16 10 0 6 4 10 9 10 6
0 13 -4 16 -10z m-2527 -83 c4 -20 -25 -34 -40 -19 -15 15 -1 44 19 40 10 -2
19 -11 21 -21z m832 -916 c0 -138 -4 -252 -9 -255 -5 -3 -74 -17 -152 -30
-382 -65 -737 -217 -1036 -442 l-82 -62 -126 180 c-106 151 -124 182 -114 195
20 24 216 175 299 230 318 211 679 351 1066 412 65 10 127 19 137 20 16 1 17
-17 17 -248z m700 218 c455 -78 881 -278 1264 -592 l29 -24 -64 -94 c-131
-191 -162 -234 -179 -252 -16 -18 -18 -17 -46 6 -69 58 -260 174 -399 243
-234 115 -505 196 -760 227 l-100 12 -3 240 c-1 132 0 246 3 253 6 17 78 12
255 -19z m-9 -620 c128 -25 245 -57 282 -75 27 -15 27 -15 27 -124 0 -61 -3
-110 -6 -110 -3 0 -43 28 -88 63 -81 64 -209 162 -299 230 -27 21 -42 37 -34
37 8 0 61 -9 118 -21z m-831 7 c0 -5 -407 -316 -414 -316 -4 0 -6 47 -6 104
l0 104 43 17 c46 19 331 94 360 95 9 0 17 -2 17 -4z m18 -193 c-5 -31 -10 -91
-12 -133 -2 -41 -4 -79 -5 -84 -1 -10 -121 160 -121 171 1 11 134 112 141 107
3 -2 2 -29 -3 -61z"/>
<path d="M4615 5270 c-10 -16 31 -92 67 -127 18 -17 61 -40 96 -52 107 -36
105 -29 -17 52 -39 26 -76 60 -95 89 -32 49 -41 55 -51 38z"/>
<path d="M4856 5176 c38 -27 130 -48 166 -38 22 6 28 11 18 15 -37 14 -144 37
-173 37 -30 0 -30 -1 -11 -14z"/>
<path d="M4640 5053 c0 -29 114 -149 146 -156 24 -4 22 -1 -17 33 -24 21 -41
41 -38 44 3 3 39 -2 80 -13 70 -18 105 -18 94 -1 -10 16 -158 72 -178 66 -12
-3 -33 5 -53 21 -32 24 -34 24 -34 6z"/>
<path d="M1474 4240 c81 -25 125 -120 93 -201 -15 -37 -15 -40 1 -37 23 4 46
79 38 123 -12 62 -87 127 -143 124 -10 0 -5 -5 11 -9z"/>
<path d="M2434 2550 c-31 -12 -34 -31 -18 -107 8 -37 20 -93 26 -123 15 -75
33 -93 82 -83 49 11 67 37 54 81 -12 44 -42 40 -46 -6 -6 -60 -30 -37 -47 46
-9 42 -21 92 -26 111 -14 55 14 74 32 22 8 -22 15 -28 31 -23 17 4 19 10 14
40 -3 20 -11 39 -18 44 -16 10 -57 9 -84 -2z"/>
<path d="M2284 2512 c-10 -7 -6 -25 61 -259 10 -34 21 -53 31 -53 26 0 27 29
4 108 -12 42 -31 107 -41 145 -19 64 -30 76 -55 59z"/>
<path d="M2148 2473 c-23 -6 -22 -13 2 -115 33 -138 26 -138 -45 2 -21 41 -39
76 -40 78 -2 3 -65 -19 -65 -24 0 -1 20 -58 45 -126 74 -199 67 -186 93 -169
11 7 9 22 -12 81 -15 40 -25 75 -22 77 2 3 21 -27 41 -66 37 -70 47 -79 73
-63 10 7 9 22 -3 76 -22 95 -13 104 19 18 26 -67 46 -87 61 -61 4 6 -17 75
-46 155 -53 147 -55 149 -101 137z"/>
<path d="M1860 2352 c-44 -22 -49 -50 -18 -111 29 -59 35 -63 80 -56 36 5 38
3 59 -36 16 -32 18 -44 9 -53 -9 -8 -16 -5 -27 12 -29 42 -63 21 -43 -28 15
-35 36 -41 83 -23 50 20 55 44 22 114 -29 60 -63 82 -91 59 -7 -7 -18 -9 -24
-5 -10 6 -40 70 -40 86 0 18 29 8 35 -11 7 -21 22 -25 43 -11 11 6 11 13 0 37
-6 16 -12 30 -13 30 -4 11 -48 9 -75 -4z"/>
<path d="M1670 2248 c-19 -13 -36 -33 -38 -44 -3 -24 122 -242 145 -251 8 -3
35 4 59 15 60 30 58 52 -24 187 -74 122 -87 130 -142 93z m104 -128 c55 -94
61 -120 32 -120 -17 0 -128 190 -122 207 12 30 35 7 90 -87z"/>
<path d="M1491 2133 c-18 -14 -31 -34 -31 -46 0 -12 34 -70 76 -129 80 -114
96 -124 142 -92 40 28 46 51 22 90 -19 30 -24 33 -39 22 -9 -7 -17 -13 -19
-14 -2 -1 4 -13 12 -27 14 -20 14 -26 3 -35 -11 -9 -28 10 -85 90 -48 67 -69
105 -62 112 6 6 18 2 33 -12 15 -14 30 -20 40 -16 21 8 21 8 2 43 -20 39 -55
44 -94 14z"/>
<path d="M3460 2577 c0 -9 9 -19 20 -22 24 -8 24 -9 1 -160 -11 -66 -17 -123
-14 -127 2 -5 12 -8 22 -8 16 0 21 17 37 118 22 143 28 162 54 162 19 0 28 24
12 34 -4 2 -36 8 -70 12 -53 6 -62 4 -62 -9z"/>
<path d="M3635 2405 c-21 -85 -37 -157 -34 -159 2 -2 13 -6 24 -8 16 -2 21 7
34 60 8 34 18 62 23 62 4 0 8 -31 8 -69 0 -55 3 -70 16 -75 23 -9 25 -6 31 66
4 36 14 74 24 88 9 14 22 49 28 78 13 65 2 88 -48 97 -20 3 -43 8 -52 11 -14
4 -23 -22 -54 -151z m110 95 c6 -10 -13 -89 -25 -103 -10 -11 -39 3 -35 16 2
7 9 31 15 55 10 40 31 55 45 32z"/>
<path d="M3850 2350 c-39 -78 -68 -145 -65 -150 13 -21 42 -9 58 25 12 25 21
33 33 28 13 -5 15 -15 10 -48 -5 -38 -3 -43 16 -49 12 -3 23 -4 24 -3 4 4 54
290 54 307 0 15 -25 29 -52 30 -5 0 -40 -63 -78 -140z m66 -15 c-6 -35 -11
-45 -26 -45 -17 0 -17 2 3 50 11 27 23 48 25 45 2 -2 1 -25 -2 -50z"/>
<path d="M4057 2413 c-4 -16 -22 -86 -40 -156 l-35 -128 30 -15 c16 -9 31 -14
32 -12 4 5 122 210 144 250 18 31 19 37 6 42 -28 11 -32 7 -81 -84 -26 -49
-51 -90 -55 -90 -4 0 0 23 8 50 7 28 21 73 29 101 16 56 13 69 -14 69 -12 0
-21 -10 -24 -27z"/>
<path d="M4201 2220 c-39 -77 -71 -144 -71 -150 0 -11 73 -50 95 -50 23 0 18
22 -11 45 -24 19 -25 24 -14 46 24 46 41 59 61 48 11 -5 24 -7 29 -4 18 11 10
32 -16 43 l-25 12 23 41 c23 41 26 42 77 28 8 -2 16 3 18 11 2 9 -16 25 -46
42 l-49 27 -71 -139z"/>
<path d="M4367 2142 c-94 -157 -93 -154 -65 -171 13 -8 33 -21 45 -29 21 -13
23 -12 30 3 4 12 -1 24 -17 37 l-22 18 71 119 c39 66 71 122 71 125 0 3 -9 10
-19 15 -17 9 -27 -3 -94 -117z"/>
<path d="M2077 5491 c7 -27 -23 -51 -65 -51 -35 -1 -36 -2 -18 -15 46 -35 145
-6 146 42 0 18 -29 43 -50 43 -13 0 -17 -5 -13 -19z"/>
<path d="M1652 5428 c-17 -17 -15 -45 4 -52 49 -19 104 4 104 44 0 18 -2 18
-28 3 -29 -17 -69 -12 -57 7 9 14 -8 13 -23 -2z"/>
<path d="M2213 5409 c-49 -15 -50 -29 -1 -29 77 0 135 -55 94 -89 -36 -30
-136 -21 -178 17 -17 14 -18 12 -18 -27 0 -87 97 -134 198 -96 71 27 72 29 72
116 0 76 -1 79 -29 93 -39 21 -99 27 -138 15z"/>
<path d="M1908 5308 c-35 -19 -54 -58 -28 -58 24 0 79 30 89 48 20 37 -5 41
-61 10z"/>
<path d="M2234 5136 c-28 -13 -44 -33 -44 -57 0 -5 14 0 30 13 22 16 49 23 97
26 59 4 65 6 48 18 -24 18 -91 17 -131 0z"/>
<path d="M2326 5066 c-16 -7 -46 -12 -68 -10 -32 2 -39 -1 -36 -14 2 -8 18
-20 36 -24 40 -11 105 16 110 45 4 20 -2 20 -42 3z"/>
<path d="M1891 5059 c-23 -9 -23 -11 -8 -26 14 -14 22 -15 57 -4 45 13 51 26
18 35 -29 7 -38 7 -67 -5z"/>
<path d="M2308 3209 c-18 -10 -48 -64 -48 -86 0 -34 55 9 66 51 8 35 3 47 -18
35z"/>
<path d="M1980 3088 c-58 -46 -100 -120 -100 -176 0 -45 20 -38 44 16 11 23
25 42 33 42 7 0 25 26 39 58 33 74 44 102 40 102 -2 0 -27 -19 -56 -42z"/>
<path d="M4050 3085 c0 -22 4 -34 12 -32 19 3 21 -40 4 -84 -9 -22 -16 -44
-16 -49 0 -21 39 -9 59 18 l21 27 20 -25 20 -25 0 58 c0 44 -3 57 -15 57 -8 0
-21 13 -30 29 -14 28 -51 61 -67 61 -5 0 -8 -16 -8 -35z"/>
<path d="M2954 3066 c-9 -23 -10 -151 -5 -451 4 -201 5 -218 11 -130 16 215
23 562 12 581 -10 19 -11 19 -18 0z"/>
<path d="M2767 2955 c-10 -58 -9 -107 3 -100 15 9 22 68 13 106 l-9 34 -7 -40z"/>
<path d="M2471 2843 c-1 -6 -4 -20 -7 -30 -5 -17 -5 -17 6 0 6 10 9 23 6 30
-3 9 -5 9 -5 0z"/>
</g>
</svg>
