<?xml version="1.0" standalone="no"?>
<!DOCTYPE svg PUBLIC "-//W3C//DTD SVG 20010904//EN"
 "http://www.w3.org/TR/2001/REC-SVG-20010904/DTD/svg10.dtd">
<svg version="1.0" xmlns="http://www.w3.org/2000/svg"
 width="2800.000000pt" height="2000.000000pt" viewBox="0 0 2800.000000 2000.000000"
 preserveAspectRatio="xMidYMid meet">

<g transform="translate(0.000000,2000.000000) scale(0.100000,-0.100000)"
fill="#000000" stroke="none">
<path d="M0 16495 c0 -3449 0 -3505 19 -3505 11 0 27 -3 35 -6 23 -9 1 -34
-30 -34 l-24 0 0 -6475 0 -6475 14000 0 14000 0 0 10000 0 10000 -14000 0
-14000 0 0 -3505z m23190 3445 c0 -5 -4 -10 -10 -10 -5 0 -10 5 -10 10 0 6 5
10 10 10 6 0 10 -4 10 -10z m550 -50 c0 -5 -4 -10 -10 -10 -5 0 -10 5 -10 10
0 6 5 10 10 10 6 0 10 -4 10 -10z m-80 -154 c0 -3 -4 -8 -10 -11 -5 -3 -10 -1
-10 4 0 6 5 11 10 11 6 0 10 -2 10 -4z m2945 -16 c3 -5 -1 -10 -9 -10 -9 0
-16 5 -16 10 0 6 4 10 9 10 6 0 13 -4 16 -10z m-755 -10 c0 -5 -4 -10 -10 -10
-5 0 -10 5 -10 10 0 6 5 10 10 10 6 0 10 -4 10 -10z m-620 -30 c0 -5 -5 -10
-11 -10 -5 0 -7 5 -4 10 3 6 8 10 11 10 2 0 4 -4 4 -10z m980 0 c0 -5 -4 -10
-10 -10 -5 0 -10 5 -10 10 0 6 5 10 10 10 6 0 10 -4 10 -10z m-730 -50 c0 -5
-4 -10 -10 -10 -5 0 -10 5 -10 10 0 6 5 10 10 10 6 0 10 -4 10 -10z m-3480
-70 c0 -5 -4 -10 -10 -10 -5 0 -10 5 -10 10 0 6 5 10 10 10 6 0 10 -4 10 -10z
m2064 -121 c-3 -5 -10 -7 -15 -3 -5 3 -7 10 -3 15 3 5 10 7 15 3 5 -3 7 -10 3
-15z m-3584 -49 c0 -5 -7 -10 -15 -10 -8 0 -15 5 -15 10 0 6 7 10 15 10 8 0
15 -4 15 -10z m3340 0 c0 -5 -4 -10 -10 -10 -5 0 -10 5 -10 10 0 6 5 10 10 10
6 0 10 -4 10 -10z m1605 -50 c3 -5 -1 -10 -9 -10 -9 0 -16 5 -16 10 0 6 4 10
9 10 6 0 13 -4 16 -10z m-371 -71 c-3 -5 -10 -7 -15 -3 -5 3 -7 10 -3 15 3 5
10 7 15 3 5 -3 7 -10 3 -15z m-4014 -79 c0 -5 -7 -10 -15 -10 -8 0 -15 5 -15
10 0 6 7 10 15 10 8 0 15 -4 15 -10z m4530 -350 c0 -5 -4 -10 -9 -10 -6 0 -13
5 -16 10 -3 6 1 10 9 10 9 0 16 -4 16 -10z m-6770 -110 c0 -5 -4 -10 -10 -10
-5 0 -10 5 -10 10 0 6 5 10 10 10 6 0 10 -4 10 -10z m8820 0 c0 -5 -2 -10 -4
-10 -3 0 -8 5 -11 10 -3 6 -1 10 4 10 6 0 11 -4 11 -10z m-4150 -80 c0 -5 -2
-10 -4 -10 -3 0 -8 5 -11 10 -3 6 -1 10 4 10 6 0 11 -4 11 -10z m3980 -280 c0
-5 -2 -10 -4 -10 -3 0 -8 5 -11 10 -3 6 -1 10 4 10 6 0 11 -4 11 -10z m-2315
-109 c7 -12 -12 -24 -25 -16 -11 7 -4 25 10 25 5 0 11 -4 15 -9z m127 -36 c0
-5 -5 -11 -11 -13 -6 -2 -11 4 -11 13 0 9 5 15 11 13 6 -2 11 -8 11 -13z
m-3142 -69 c0 -3 -4 -8 -10 -11 -5 -3 -10 -1 -10 4 0 6 5 11 10 11 6 0 10 -2
10 -4z m734 -27 c-3 -5 -10 -7 -15 -3 -5 3 -7 10 -3 15 3 5 10 7 15 3 5 -3 7
-10 3 -15z m3566 -69 c0 -5 -4 -10 -10 -10 -5 0 -10 5 -10 10 0 6 5 10 10 10
6 0 10 -4 10 -10z m-2790 -10 c0 -5 -4 -10 -10 -10 -5 0 -10 5 -10 10 0 6 5
10 10 10 6 0 10 -4 10 -10z m-14530 -20 c0 -5 -4 -10 -10 -10 -5 0 -10 5 -10
10 0 6 5 10 10 10 6 0 10 -4 10 -10z m15168 -21 c-2 -6 -8 -10 -13 -10 -5 0
-11 4 -13 10 -2 6 4 11 13 11 9 0 15 -5 13 -11z m-14818 -116 c140 -21 141
-22 120 -123 -9 -44 -19 -82 -21 -84 -11 -9 -218 13 -244 26 -42 23 -72 57
-82 98 -12 45 -7 67 18 73 10 3 19 12 19 20 0 17 18 16 190 -10z m14940 -143
c0 -5 -4 -10 -10 -10 -5 0 -10 5 -10 10 0 6 5 10 10 10 6 0 10 -4 10 -10z
m-110 -120 c0 -5 -4 -10 -10 -10 -5 0 -10 5 -10 10 0 6 5 10 10 10 6 0 10 -4
10 -10z m-2079 -193 c-1 -12 -15 -9 -19 4 -3 6 1 10 8 8 6 -3 11 -8 11 -12z
m-7180 -79 c4 -7 3 -18 -2 -24 -6 -7 -9 -20 -7 -30 2 -13 -6 -20 -33 -25 -19
-4 -79 -28 -133 -53 -77 -36 -102 -44 -117 -36 -19 11 -26 30 -10 30 5 0 12
16 15 35 5 23 18 44 42 62 20 16 45 36 57 47 19 16 33 17 101 12 46 -3 83 -11
87 -18z m8649 -38 c0 -5 -4 -10 -10 -10 -5 0 -10 5 -10 10 0 6 5 10 10 10 6 0
10 -4 10 -10z m-630 -80 c0 -5 -4 -10 -9 -10 -6 0 -13 5 -16 10 -3 6 1 10 9
10 9 0 16 -4 16 -10z m-1500 -90 c0 -5 -4 -10 -10 -10 -5 0 -10 5 -10 10 0 6
5 10 10 10 6 0 10 -4 10 -10z m-13540 -24 c8 -2 16 -13 18 -24 2 -16 -4 -25
-22 -32 -52 -19 -104 33 -58 59 9 6 24 8 32 5 8 -3 22 -7 30 -8z m13857 8 c-3
-3 -12 -4 -19 -1 -8 3 -5 6 6 6 11 1 17 -2 13 -5z m-447 -254 c0 -5 -4 -10
-10 -10 -5 0 -10 5 -10 10 0 6 5 10 10 10 6 0 10 -4 10 -10z m2360 -10 c0 -5
-4 -10 -10 -10 -5 0 -10 5 -10 10 0 6 5 10 10 10 6 0 10 -4 10 -10z m-230
-310 c0 -5 -4 -10 -10 -10 -5 0 -10 5 -10 10 0 6 5 10 10 10 6 0 10 -4 10 -10z
m-2815 -60 c3 -5 1 -10 -4 -10 -6 0 -11 5 -11 10 0 6 2 10 4 10 3 0 8 -4 11
-10z m1445 -370 c0 -5 -4 -10 -10 -10 -5 0 -10 5 -10 10 0 6 5 10 10 10 6 0
10 -4 10 -10z m-520 -68 c0 -13 -12 -22 -22 -16 -10 6 -1 24 13 24 5 0 9 -4 9
-8z m910 -142 c0 -5 -4 -10 -10 -10 -5 0 -10 5 -10 10 0 6 5 10 10 10 6 0 10
-4 10 -10z m3500 -140 c0 -5 -4 -10 -10 -10 -5 0 -10 5 -10 10 0 6 5 10 10 10
6 0 10 -4 10 -10z m-1350 -60 c0 -5 -4 -10 -10 -10 -5 0 -10 5 -10 10 0 6 5
10 10 10 6 0 10 -4 10 -10z m-585 -90 c3 -5 -1 -10 -9 -10 -9 0 -16 5 -16 10
0 6 4 10 9 10 6 0 13 -4 16 -10z m2125 -274 c0 -3 -4 -8 -10 -11 -5 -3 -10 -1
-10 4 0 6 5 11 10 11 6 0 10 -2 10 -4z m-510 -156 c0 -5 -4 -10 -10 -10 -5 0
-10 5 -10 10 0 6 5 10 10 10 6 0 10 -4 10 -10z m-22380 -145 c0 -8 -4 -15 -9
-15 -13 0 -22 16 -14 24 11 11 23 6 23 -9z m23720 -255 c0 -5 -4 -10 -10 -10
-5 0 -10 5 -10 10 0 6 5 10 10 10 6 0 10 -4 10 -10z m-7269 -185 c-1 -15 -24
-12 -29 3 -3 9 2 13 12 10 10 -1 17 -7 17 -13z m4714 -265 c3 -5 -1 -10 -10
-10 -9 0 -13 5 -10 10 3 6 8 10 10 10 2 0 7 -4 10 -10z m-1845 -10 c0 -5 -4
-10 -10 -10 -5 0 -10 5 -10 10 0 6 5 10 10 10 6 0 10 -4 10 -10z m560 -346 c0
-8 -5 -12 -10 -9 -6 4 -8 11 -5 16 9 14 15 11 15 -7z m-3980 -184 c0 -23 -35
-28 -43 -6 -7 18 1 26 25 26 11 0 18 -7 18 -20z m2540 -120 c0 -5 -4 -10 -10
-10 -5 0 -10 5 -10 10 0 6 5 10 10 10 6 0 10 -4 10 -10z m-3430 -9 c0 -6 -4
-13 -10 -16 -5 -3 -10 1 -10 9 0 9 5 16 10 16 6 0 10 -4 10 -9z m254 -57 c23
-9 20 -34 -3 -34 -22 0 -35 15 -26 30 7 12 8 12 29 4z m716 -14 c0 -5 -7 -10
-16 -10 -8 0 -12 5 -9 10 3 6 10 10 16 10 5 0 9 -4 9 -10z m-660 -25 c0 -8 -7
-15 -15 -15 -16 0 -20 12 -8 23 11 12 23 8 23 -8z m-116 -40 c24 -18 14 -45
-16 -45 -24 0 -53 34 -43 50 9 14 37 12 59 -5z m-4184 -164 c16 -31 12 -96 -7
-119 -10 -12 -30 -24 -45 -28 -23 -5 -33 0 -58 26 -36 39 -39 78 -7 107 38 36
101 43 117 14z m-7190 -21 c0 -5 -4 -10 -10 -10 -5 0 -10 5 -10 10 0 6 5 10
10 10 6 0 10 -4 10 -10z m17500 -204 c0 -11 -19 -15 -25 -6 -3 5 1 10 9 10 9
0 16 -2 16 -4z m-4610 -186 c0 -5 -4 -10 -10 -10 -5 0 -10 5 -10 10 0 6 5 10
10 10 6 0 10 -4 10 -10z m176 -1 c10 -17 -13 -36 -27 -22 -12 12 -4 33 11 33
5 0 12 -5 16 -11z m-20061 -33 c39 -9 79 -20 90 -25 11 -5 34 -14 51 -21 36
-13 59 -49 50 -76 -12 -33 -75 -66 -113 -59 -28 5 -37 14 -57 58 -26 56 -47
77 -107 109 -21 11 -39 25 -39 30 0 11 13 9 125 -16z m19673 -23 c-4 -22 -22
-20 -26 1 -2 10 3 16 13 16 10 0 15 -7 13 -17z m-1118 -127 c0 -11 -19 -15
-25 -6 -3 5 1 10 9 10 9 0 16 -2 16 -4z m-11820 -46 c0 -5 -4 -10 -10 -10 -5
0 -10 5 -10 10 0 6 5 10 10 10 6 0 10 -4 10 -10z m11540 -30 c0 -5 -4 -10 -10
-10 -5 0 -10 5 -10 10 0 6 5 10 10 10 6 0 10 -4 10 -10z m1429 -64 c9 -10 8
-16 -4 -26 -20 -16 -45 -6 -45 20 0 23 31 28 49 6z m3981 10 c0 -3 -4 -8 -10
-11 -5 -3 -10 -1 -10 4 0 6 5 11 10 11 6 0 10 -2 10 -4z m-9930 -231 c0 -8 -4
-15 -9 -15 -13 0 -22 16 -14 24 11 11 23 6 23 -9z m-13064 -76 c32 -17 66 -37
74 -44 8 -8 28 -17 45 -21 31 -8 32 -9 78 -49 15 -14 36 -25 45 -25 25 0 155
-87 166 -110 5 -11 15 -20 23 -20 7 0 13 -6 13 -14 0 -7 9 -16 20 -19 14 -4
20 -13 19 -34 0 -15 -3 -23 -5 -16 -3 6 -26 22 -50 34 -25 12 -48 28 -51 35
-3 8 -12 14 -20 14 -9 0 -33 18 -55 40 -22 22 -47 40 -54 40 -8 0 -14 3 -14 8
0 9 -88 31 -95 24 -3 -3 -5 -30 -5 -60 0 -43 5 -62 24 -87 13 -17 26 -42 28
-55 3 -25 74 -70 109 -70 9 0 19 -5 21 -11 3 -9 13 -9 41 0 29 10 44 10 74 -1
60 -21 83 -48 104 -124 25 -95 24 -120 -10 -163 -38 -49 -45 -72 -46 -171 -3
-141 -2 -137 -35 -148 -47 -17 -145 -4 -213 27 -34 15 -75 31 -91 35 -27 7
-43 20 -118 104 -40 44 -36 66 12 86 22 9 40 22 40 31 0 8 6 12 13 9 14 -5 67
38 67 54 0 5 11 14 24 22 14 7 27 23 30 36 4 13 11 24 16 24 6 0 10 9 10 19 0
19 -64 91 -81 91 -6 0 -23 10 -39 21 -23 17 -36 20 -67 15 -61 -11 -107 -30
-121 -48 -7 -10 -22 -18 -33 -18 -10 0 -28 -9 -39 -20 -20 -20 -20 -20 5 -55
13 -20 29 -52 36 -72 10 -33 9 -37 -16 -60 l-27 -25 -86 32 c-48 18 -98 43
-111 56 l-24 23 24 35 c13 20 30 36 37 36 7 0 28 11 46 25 18 14 38 25 44 25
24 0 32 37 17 74 -9 20 -12 36 -8 36 5 1 -3 10 -16 21 -20 16 -23 24 -15 37
11 17 23 24 106 63 l48 22 -2 71 c-1 39 -7 80 -14 91 -7 11 -17 38 -23 60 -5
22 -13 50 -16 62 -5 16 -2 22 12 26 42 11 74 5 129 -24z m18429 -39 c3 -5 1
-10 -4 -10 -6 0 -11 5 -11 10 0 6 2 10 4 10 3 0 8 -4 11 -10z m2335 -130 c0
-5 -2 -10 -4 -10 -3 0 -8 5 -11 10 -3 6 -1 10 4 10 6 0 11 -4 11 -10z m-13956
-25 c22 -17 31 -51 15 -60 -5 -4 -22 -4 -36 0 -20 5 -24 10 -18 28 3 12 7 28
7 35 2 15 8 15 32 -3z m196 -15 c0 -5 -4 -10 -10 -10 -5 0 -10 5 -10 10 0 6 5
10 10 10 6 0 10 -4 10 -10z m-737 -74 c37 -9 32 -37 -8 -47 -39 -11 -72 -2
-78 22 -6 21 19 41 43 35 8 -2 28 -7 43 -10z m15842 -56 c3 -5 1 -10 -4 -10
-6 0 -11 5 -11 10 0 6 2 10 4 10 3 0 8 -4 11 -10z m-2455 -50 c0 -5 -2 -10 -4
-10 -3 0 -8 5 -11 10 -3 6 -1 10 4 10 6 0 11 -4 11 -10z m-6832 -57 c2 -8 -6
-13 -22 -13 -17 0 -26 5 -26 16 0 19 41 16 48 -3z m430 -20 c-4 -22 -48 -31
-48 -10 0 19 10 27 32 27 13 0 18 -6 16 -17z m12692 -13 c0 -5 -4 -10 -10 -10
-5 0 -10 5 -10 10 0 6 5 10 10 10 6 0 10 -4 10 -10z m-12539 -20 c10 -6 19
-19 19 -30 0 -19 -25 -50 -40 -50 -13 0 -40 30 -40 45 0 13 26 45 36 45 3 0
14 -5 25 -10z m-513 -22 c18 -18 15 -41 -7 -60 -17 -14 -20 -15 -25 -1 -19 50
2 91 32 61z m8972 -4 c0 -8 -5 -12 -10 -9 -6 4 -8 11 -5 16 9 14 15 11 15 -7z
m-3925 -44 c3 -5 1 -10 -4 -10 -6 0 -11 5 -11 10 0 6 2 10 4 10 3 0 8 -4 11
-10z m-4917 -94 c3 -13 -1 -17 -14 -14 -11 2 -20 11 -22 22 -3 13 1 17 14 14
11 -2 20 -11 22 -22z m4922 14 c0 -5 -5 -10 -11 -10 -5 0 -7 5 -4 10 3 6 8 10
11 10 2 0 4 -4 4 -10z m-5615 -10 c3 -5 1 -10 -4 -10 -6 0 -11 5 -11 10 0 6 2
10 4 10 3 0 8 -4 11 -10z m772 -27 c7 -31 14 -39 36 -41 41 -5 37 -49 -7 -82
-46 -34 -57 -32 -73 15 -20 57 -21 118 -3 132 26 21 38 14 47 -24z m-275 -20
c28 -4 38 -10 43 -30 3 -14 3 -34 0 -44 -6 -18 -3 -20 31 -17 35 3 40 0 58
-34 20 -36 20 -37 2 -57 -15 -17 -28 -20 -65 -16 -28 2 -51 11 -58 21 -11 15
-16 16 -38 4 -30 -16 -48 -3 -83 59 -19 34 -20 40 -7 51 8 7 15 16 15 21 0 4
5 20 10 34 8 22 14 26 33 20 12 -4 38 -9 59 -12z m-581 -29 c8 -9 12 -27 11
-38 -2 -12 6 -30 18 -41 25 -23 25 -27 -1 -43 -24 -15 -49 -1 -49 28 0 9 -11
34 -25 54 -14 20 -25 41 -25 46 0 17 57 11 71 -6z m331 -11 c20 -18 23 -38 8
-48 -12 -8 -60 34 -60 53 0 17 30 15 52 -5z m4958 7 c0 -5 -4 -10 -10 -10 -5
0 -10 5 -10 10 0 6 5 10 10 10 6 0 10 -4 10 -10z m-5630 -20 c0 -5 -4 -10 -10
-10 -5 0 -10 5 -10 10 0 6 5 10 10 10 6 0 10 -4 10 -10z m7510 -30 c0 -5 -7
-7 -15 -4 -8 4 -12 10 -9 15 6 11 24 2 24 -11z m1755 10 c3 -5 1 -10 -4 -10
-6 0 -11 5 -11 10 0 6 2 10 4 10 3 0 8 -4 11 -10z m-8643 -25 c6 -28 -6 -34
-16 -9 -8 22 -7 34 3 34 5 0 11 -11 13 -25z m7968 15 c0 -5 -4 -10 -10 -10 -5
0 -10 5 -10 10 0 6 5 10 10 10 6 0 10 -4 10 -10z m-19030 -31 c100 -33 126
-48 202 -123 29 -28 62 -49 85 -55 21 -5 72 -18 114 -29 42 -10 105 -35 141
-54 40 -22 92 -40 138 -49 41 -7 93 -23 115 -36 22 -12 54 -29 70 -36 17 -8
36 -21 44 -30 7 -10 18 -17 23 -17 18 0 83 -63 95 -92 8 -19 22 -30 42 -34 17
-4 28 -10 25 -15 -3 -5 1 -7 8 -4 10 4 88 -41 143 -82 49 -38 138 -94 175
-111 52 -25 67 -34 137 -84 29 -21 56 -38 60 -38 4 0 28 -16 52 -35 24 -19 47
-35 50 -35 3 -1 40 -32 81 -70 41 -38 83 -70 93 -70 21 0 98 -23 177 -52 53
-20 134 -40 230 -57 165 -30 450 -127 450 -153 0 -5 5 -8 11 -8 14 0 116 -80
155 -122 93 -99 55 -248 -63 -248 -16 0 -40 -8 -53 -17 -39 -28 -133 -24 -200
8 -98 47 -202 54 -247 19 -14 -11 -33 -20 -42 -20 -17 0 -69 -25 -180 -84 -35
-19 -86 -37 -112 -41 -27 -4 -49 -10 -49 -14 0 -4 -30 -13 -66 -20 -55 -11
-71 -20 -101 -52 -34 -36 -73 -52 -73 -29 0 6 -13 10 -29 10 -16 0 -36 6 -43
14 -15 15 -52 29 -83 31 -26 2 -143 54 -210 93 -16 10 -62 37 -102 60 -39 23
-75 42 -80 42 -14 0 -63 57 -63 74 0 9 -9 25 -20 36 -20 20 -20 20 53 20 77 0
199 -20 232 -38 11 -5 58 -22 105 -37 47 -15 99 -35 116 -46 17 -10 34 -19 38
-19 11 0 6 36 -6 48 -9 9 -7 12 9 12 19 0 20 3 10 25 -7 14 -16 25 -22 25 -12
0 -65 61 -65 76 0 33 -70 63 -250 103 -98 22 -249 20 -263 -4 -20 -36 -126
-60 -144 -32 -9 14 -40 35 -63 43 -9 3 -20 13 -25 23 -6 10 -28 45 -50 76 -22
32 -45 66 -51 76 -6 10 -24 31 -41 46 -31 29 -61 103 -49 122 10 16 49 14 72
-4 25 -19 54 -19 104 1 34 14 40 21 40 46 0 16 5 39 12 51 14 25 12 137 -3
152 -5 5 -9 21 -9 36 0 15 -6 32 -14 38 -8 7 -22 38 -31 69 -9 31 -21 67 -26
80 -5 13 -9 32 -9 42 0 41 -47 126 -88 158 -34 27 -48 32 -94 32 -65 0 -122
-24 -115 -49 9 -31 40 -116 47 -131 4 -9 8 -47 9 -85 1 -39 6 -85 12 -103 8
-23 8 -41 0 -64 -6 -17 -11 -42 -11 -54 0 -30 -37 -74 -62 -74 -10 0 -18 5
-18 10 0 6 -7 10 -15 10 -35 0 -73 31 -96 77 -25 52 -26 54 -28 96 -1 17 -12
38 -28 54 -27 24 -32 25 -110 20 -71 -4 -84 -2 -99 14 -9 11 -22 19 -28 19
-14 1 -66 83 -84 134 -8 22 -20 46 -28 53 -8 8 -14 28 -14 44 0 16 -4 29 -9
29 -5 0 -16 15 -25 34 -13 27 -23 35 -55 40 -22 3 -52 12 -68 20 -135 67 -151
77 -190 124 -33 41 -43 62 -48 106 -8 61 -3 76 26 76 12 0 19 -7 19 -20 0 -12
6 -20 13 -19 6 1 18 1 26 0 19 -1 201 -188 201 -206 0 -19 46 -30 78 -19 15 5
39 27 54 49 22 32 26 47 21 75 -3 19 -10 40 -15 47 -5 7 -56 27 -114 45 -57
18 -104 38 -104 45 0 22 54 42 115 43 41 0 90 -10 155 -31z m11860 21 c0 -5
-2 -10 -4 -10 -3 0 -8 5 -11 10 -3 6 -1 10 4 10 6 0 11 -4 11 -10z m908 -58
c4 -36 -13 -48 -52 -38 -53 13 -38 79 17 74 28 -3 32 -7 35 -36z m-1642 -32
c33 0 74 -30 74 -55 0 -29 -3 -30 -30 -13 -16 11 -22 9 -34 -7 -9 -13 -11 -25
-5 -36 12 -23 -15 -46 -35 -30 -19 16 -29 62 -17 74 16 16 13 37 -4 37 -8 0
-22 11 -31 25 -13 20 -14 28 -4 40 11 13 16 12 42 -10 16 -14 36 -25 44 -25z
m183 -27 c21 -15 48 -42 60 -60 26 -41 46 -42 66 -3 17 33 38 38 61 15 13 -12
13 -21 4 -50 -13 -39 -6 -87 18 -123 15 -23 15 -24 -18 -20 -32 3 -35 1 -50
-42 -8 -25 -23 -46 -32 -48 -9 -2 -32 11 -51 27 -43 38 -61 40 -53 6 5 -21 2
-27 -21 -36 -32 -12 -114 19 -151 57 -13 13 -33 24 -45 24 -13 0 -28 5 -34 11
-5 5 -29 12 -53 14 -42 5 -74 21 -65 34 2 4 -5 14 -16 21 -10 8 -19 20 -19 27
0 8 -12 19 -27 25 -21 8 -24 12 -11 15 9 2 28 -3 41 -12 24 -15 26 -15 41 7
l16 23 25 -30 25 -30 16 23 c21 29 34 28 60 -5 19 -23 26 -26 41 -17 10 6 24
23 31 37 15 32 54 56 60 38 3 -10 32 -17 32 -7 0 2 -7 20 -16 41 -28 68 1 84
65 38z m1011 17 c0 -5 -7 -10 -15 -10 -8 0 -15 5 -15 10 0 6 7 10 15 10 8 0
15 -4 15 -10z m-265 -50 c23 -24 27 -33 16 -39 -18 -12 -71 16 -71 38 0 40 18
40 55 1z m-1719 -31 c10 -16 -18 -30 -34 -17 -11 9 -11 13 0 19 18 12 26 11
34 -2z m1338 -5 c4 -10 1 -14 -6 -12 -15 5 -23 28 -10 28 5 0 13 -7 16 -16z
m-74 -46 c0 -22 -18 -60 -34 -70 -6 -4 -16 -2 -23 4 -15 12 -17 54 -3 63 6 4
8 10 5 15 -3 5 3 13 12 19 22 12 43 -3 43 -31z m110 -37 c0 -6 -4 -13 -10 -16
-5 -3 -10 1 -10 9 0 9 5 16 10 16 6 0 10 -4 10 -9z m642 -8 c24 -21 23 -40 -2
-48 -28 -9 -25 -34 12 -84 26 -36 29 -46 20 -62 -7 -10 -12 -34 -12 -54 0 -31
-13 -61 -51 -123 -8 -12 -27 -26 -43 -32 -21 -7 -26 -13 -18 -22 5 -7 13 -28
17 -45 5 -26 3 -33 -9 -33 -9 0 -16 -4 -16 -10 0 -13 6 -13 31 1 26 13 49 -4
49 -37 0 -27 -26 -37 -86 -32 -33 3 -40 7 -42 28 -2 14 -11 33 -20 44 -14 15
-17 37 -14 120 2 91 0 105 -17 120 -12 11 -27 15 -39 11 -14 -4 -27 1 -41 16
-27 29 -26 33 5 58 24 19 25 22 10 36 -20 21 -21 44 0 52 24 9 33 -8 40 -75 4
-34 10 -62 14 -62 10 0 30 81 30 120 0 39 27 88 54 96 14 5 25 -1 39 -20 10
-14 27 -26 38 -26 23 0 24 10 4 36 -8 10 -15 25 -15 32 0 18 40 15 62 -5z
m6628 7 c0 -5 -7 -10 -15 -10 -8 0 -15 5 -15 10 0 6 7 10 15 10 8 0 15 -4 15
-10z m-8849 -34 c11 -39 1 -56 -30 -56 -37 0 -53 -17 -38 -41 13 -21 9 -28
-23 -31 -19 -2 -25 3 -32 28 -4 17 -15 37 -23 44 -21 17 -19 25 9 38 16 7 27
7 34 0 15 -15 52 1 64 28 14 30 30 26 39 -10z m675 14 c39 0 119 -34 154 -65
9 -8 24 -13 35 -13 11 1 33 -7 48 -17 23 -15 28 -24 25 -47 -3 -17 0 -28 7
-28 6 0 37 -25 69 -55 37 -36 65 -55 81 -55 27 0 45 -26 45 -65 0 -14 5 -35
11 -47 l11 -20 14 20 c9 14 22 19 36 17 23 -5 58 20 58 39 0 7 -13 17 -30 23
-32 12 -37 32 -20 77 7 20 16 26 41 26 30 0 31 -2 25 -31 -7 -36 7 -59 36 -59
10 0 43 -24 73 -54 42 -41 55 -61 55 -84 0 -40 -30 -66 -68 -57 -31 6 -64 -17
-42 -30 5 -3 10 -17 10 -29 0 -13 7 -29 15 -36 8 -7 15 -24 15 -38 0 -27 25
-62 45 -62 7 0 18 -7 25 -15 10 -12 10 -18 0 -30 -17 -21 -8 -28 39 -28 25 0
46 -6 56 -17 13 -15 12 -19 -16 -48 -17 -18 -36 -32 -42 -32 -6 0 -4 -8 5 -17
14 -14 22 -15 43 -5 40 18 65 15 74 -10 9 -24 -10 -48 -54 -68 -37 -16 11 -11
54 6 55 22 95 16 99 -15 4 -28 -12 -41 -50 -41 -17 0 -31 -8 -38 -20 -13 -25
-45 -26 -59 -2 -7 11 -13 13 -18 6 -5 -6 -18 -16 -30 -23 -14 -7 -23 -22 -25
-44 -3 -29 -6 -32 -34 -29 -29 3 -31 1 -27 -22 3 -14 11 -31 19 -37 37 -31 -2
-77 -50 -59 -21 8 -30 5 -48 -13 -13 -13 -22 -30 -20 -38 1 -8 -6 -24 -18 -34
-30 -27 -25 -35 25 -35 32 0 47 -5 52 -15 8 -22 1 -27 -54 -31 -57 -5 -83 7
-64 29 19 23 -6 33 -30 11 -17 -15 -19 -16 -19 -1 0 14 -7 16 -37 11 -59 -9
-69 -44 -13 -44 59 0 52 -97 -11 -130 -27 -15 -69 27 -69 70 l0 31 -45 -7
c-39 -5 -51 -3 -85 20 -39 26 -100 35 -100 16 0 -6 14 -24 30 -42 32 -33 34
-51 8 -56 -22 -4 -46 23 -57 66 -9 29 -8 38 4 45 9 5 15 22 15 42 0 30 -5 37
-36 50 -20 8 -46 15 -57 15 -19 0 -17 -5 16 -36 20 -20 37 -40 37 -44 0 -5
-12 -17 -26 -27 -23 -17 -25 -22 -14 -42 16 -32 6 -51 -29 -51 -21 0 -32 6
-36 20 -3 11 -19 29 -36 41 -16 11 -27 24 -24 29 3 4 -7 15 -21 24 -13 10 -30
28 -36 42 -13 29 -25 30 -57 5 -16 -12 -20 -21 -12 -25 11 -7 16 -46 5 -46 -3
0 -14 5 -26 11 -11 6 -30 8 -43 5 -17 -4 -21 -11 -18 -29 4 -17 -2 -28 -22
-41 l-27 -18 -53 55 c-29 31 -55 62 -58 71 -6 16 -66 36 -109 36 -30 0 -58 23
-58 49 0 9 -9 35 -20 56 -18 36 -22 99 -9 140 6 20 -12 52 -36 65 -14 7 -25
18 -25 25 0 30 -27 66 -53 72 -39 8 -55 43 -39 87 22 61 15 82 -25 77 -7 -1
-13 5 -13 14 0 8 7 15 15 15 8 0 19 10 26 21 9 17 7 26 -8 48 -19 26 -22 91
-8 138 5 16 3 25 -9 29 -11 4 -16 19 -16 47 0 39 -13 93 -31 129 -13 26 -11
48 5 54 8 3 16 14 19 25 3 10 16 23 30 28 14 5 37 22 51 38 18 19 26 23 26 13
0 -10 10 -16 27 -18 25 -2 25 -1 10 16 -15 16 -15 21 -3 37 11 15 17 17 28 7
12 -10 21 -3 50 39 l35 51 21 -34 c35 -56 6 -128 -51 -128 l-28 0 21 -31 22
-30 23 21 c13 12 28 18 39 14 19 -7 70 11 105 38 12 9 39 20 60 24 44 7 161
62 161 75 0 5 12 9 28 9 20 0 32 8 45 32 14 23 21 28 29 20 7 -7 31 -12 54
-12z m-4246 -30 c0 -5 -4 -10 -10 -10 -5 0 -10 5 -10 10 0 6 5 10 10 10 6 0
10 -4 10 -10z m5100 -9 c0 -11 -5 -23 -11 -27 -15 -9 -33 12 -26 30 9 23 37
20 37 -3z m-1799 -3 c32 -8 54 -18 56 -28 2 -9 19 -20 36 -26 25 -7 33 -15 35
-36 2 -20 -1 -28 -12 -28 -9 0 -16 -9 -16 -20 0 -12 -9 -24 -23 -29 -13 -5
-48 -32 -79 -60 -50 -46 -59 -50 -82 -41 -16 6 -26 17 -26 30 0 11 -6 20 -12
20 -17 0 -58 -61 -58 -84 0 -17 -6 -18 -52 -12 -68 9 -92 39 -72 90 7 19 45
21 62 4 9 -9 12 -6 12 14 0 29 25 45 37 23 12 -21 63 -31 63 -12 0 8 -7 20
-15 27 -8 7 -15 20 -15 29 0 9 -5 22 -11 28 -19 19 0 53 32 60 16 3 29 11 29
19 0 12 37 44 51 44 4 0 31 -5 60 -12z m9634 2 c-3 -5 -10 -10 -16 -10 -5 0
-9 5 -9 10 0 6 7 10 16 10 8 0 12 -4 9 -10z m-9033 -17 c18 -16 17 -17 -13
-30 -31 -13 -79 -18 -79 -8 0 9 54 54 64 55 5 0 18 -8 28 -17z m1298 -24 c0
-11 -4 -17 -10 -14 -5 3 -10 13 -10 21 0 8 5 14 10 14 6 0 10 -9 10 -21z m80
-25 c0 -7 11 -25 25 -40 28 -31 29 -34 14 -88 -15 -54 -85 -117 -77 -69 2 11
-8 22 -25 31 -33 16 -46 41 -27 52 8 5 10 17 7 31 -7 26 8 59 27 59 8 0 17 11
20 25 7 26 36 25 36 -1z m-340 -28 c0 -2 -9 -6 -20 -9 -11 -3 -18 -1 -14 4 5
9 34 13 34 5z m207 -66 c3 -11 9 -20 14 -20 5 0 9 -4 9 -10 0 -5 -7 -10 -15
-10 -8 0 -15 -7 -15 -15 0 -16 -17 -19 -44 -9 -21 8 -20 43 1 66 21 24 44 23
50 -2z m1670 4 c9 -23 -13 -40 -32 -24 -12 10 -13 16 -4 26 15 18 28 18 36 -2z
m-1289 -92 c28 -25 42 -47 42 -63 0 -33 -19 -52 -37 -38 -10 9 -13 2 -13 -39
0 -34 -5 -52 -14 -55 -20 -8 -27 2 -20 30 4 15 1 30 -9 41 -10 12 -15 37 -15
82 1 96 4 98 66 42z m5742 24 c0 -11 -19 -15 -25 -6 -3 5 1 10 9 10 9 0 16 -2
16 -4z m-4490 -31 c6 -8 9 -19 5 -25 -10 -16 -42 -12 -49 6 -12 32 21 47 44
19z m6525 -14 c3 -5 1 -12 -5 -16 -5 -3 -10 1 -10 9 0 18 6 21 15 7z m-6595
-36 c0 -21 -5 -25 -30 -25 -24 0 -30 -4 -30 -21 0 -32 -19 -59 -40 -59 -11 0
-20 -7 -20 -15 0 -17 -45 -21 -55 -5 -4 6 19 35 49 64 31 29 56 58 56 64 0 11
20 19 53 21 12 1 17 -6 17 -24z m4240 -15 c0 -5 -4 -10 -10 -10 -5 0 -10 5
-10 10 0 6 5 10 10 10 6 0 10 -4 10 -10z m-5545 -37 c6 -17 18 -40 28 -51 20
-22 14 -48 -13 -55 -15 -4 -17 -13 -14 -53 2 -27 3 -52 4 -56 0 -15 38 -8 44
9 5 13 9 14 19 4 9 -10 6 -17 -15 -34 -14 -12 -28 -33 -30 -47 -1 -13 -12 -29
-23 -35 -32 -17 -105 -96 -105 -114 0 -9 7 -29 15 -45 15 -28 13 -46 -6 -46
-5 0 -9 9 -9 19 0 24 -20 31 -63 24 -24 -3 -38 0 -50 12 -26 25 -21 32 33 60
54 27 74 53 59 76 -15 23 -10 90 11 153 26 77 36 89 61 73 16 -10 21 -9 29 3
18 28 11 40 -25 40 -19 0 -35 -5 -35 -10 0 -6 -8 -14 -17 -17 -10 -4 -32 -22
-51 -40 -18 -18 -39 -33 -47 -33 -20 0 -19 3 10 46 14 21 24 43 21 50 -5 13
19 37 47 47 10 4 15 12 12 17 -13 22 17 41 59 38 36 -3 42 -7 51 -35z m-1985
-2 c0 -23 -9 -31 -26 -24 -17 6 -18 25 -2 41 14 14 28 6 28 -17z m-165 -11 c8
-16 15 -40 15 -55 0 -18 5 -25 20 -25 11 0 20 4 20 9 0 5 9 12 20 16 14 4 27
-2 45 -22 30 -34 32 -53 5 -53 -15 0 -20 -7 -20 -26 0 -14 4 -23 9 -20 15 9
41 -5 41 -22 0 -15 -76 -92 -92 -92 -5 0 -19 -12 -32 -27 -15 -17 -29 -24 -39
-20 -24 9 -21 24 8 49 l25 21 -23 11 c-23 12 -34 45 -36 113 -2 86 -38 115
-96 77 -47 -30 -83 21 -39 57 10 8 20 6 43 -10 16 -12 33 -21 38 -21 15 0 44
36 36 44 -7 7 14 26 29 26 4 0 14 -13 23 -30z m6835 -4 c0 -11 -19 -15 -25 -6
-3 5 1 10 9 10 9 0 16 -2 16 -4z m-3659 -26 c14 -8 19 -21 19 -56 0 -40 -3
-46 -28 -55 -19 -6 -32 -21 -41 -45 -7 -19 -20 -38 -29 -41 -64 -19 -89 -36
-98 -66 -12 -41 -26 -43 -60 -12 -16 15 -36 24 -46 22 -18 -5 -22 3 -19 33 3
23 63 69 91 70 14 0 31 9 38 20 7 11 18 20 26 20 9 0 12 7 9 20 -4 15 0 20 15
20 12 0 27 10 33 23 28 54 52 67 90 47z m-7151 -44 c0 -3 -4 -8 -10 -11 -5 -3
-10 -1 -10 4 0 6 5 11 10 11 6 0 10 -2 10 -4z m3777 -2 c-3 -3 -12 -4 -19 -1
-8 3 -5 6 6 6 11 1 17 -2 13 -5z m8783 -24 c0 -5 -4 -10 -10 -10 -5 0 -10 5
-10 10 0 6 5 10 10 10 6 0 10 -4 10 -10z m-8760 -50 c-25 -19 -40 -18 -40 3 0
17 42 35 55 25 6 -6 1 -16 -15 -28z m6120 -40 c0 -5 -2 -10 -4 -10 -3 0 -8 5
-11 10 -3 6 -1 10 4 10 6 0 11 -4 11 -10z m-12020 -10 c0 -5 -5 -10 -11 -10
-5 0 -7 5 -4 10 3 6 8 10 11 10 2 0 4 -4 4 -10z m8050 -18 c0 -4 -5 -13 -11
-19 -6 -6 -11 -30 -12 -54 -2 -33 -6 -45 -20 -47 -9 -2 -20 4 -23 13 -8 20 36
114 54 115 6 0 12 -4 12 -8z m-126 -77 c-4 -8 -10 -13 -15 -10 -4 3 -6 12 -3
20 4 8 10 13 15 10 4 -3 6 -12 3 -20z m517 -36 c14 -23 11 -34 -21 -67 -27
-28 -29 -34 -18 -58 10 -22 9 -27 -4 -35 -9 -5 -14 -17 -11 -28 7 -26 -9 -33
-46 -20 -28 10 -35 9 -51 -9 -18 -19 -87 -39 -98 -28 -9 10 22 59 41 64 23 6
22 14 -8 42 -14 13 -25 32 -25 41 0 25 36 56 79 70 39 13 73 38 66 49 -2 4 16
4 41 0 26 -4 50 -13 55 -21z m741 -16 c24 -21 23 -43 -2 -43 -21 0 -45 34 -35
50 9 14 16 13 37 -7z m3088 -43 c0 -5 -4 -10 -10 -10 -5 0 -10 5 -10 10 0 6 5
10 10 10 6 0 10 -4 10 -10z m-6123 -17 c4 -10 13 -24 20 -32 18 -17 19 -16
-59 -45 l-65 -25 10 44 c8 33 17 46 41 58 40 20 45 20 53 0z m128 -63 c10 -12
25 -18 32 -16 29 11 12 -40 -21 -66 -39 -31 -59 -34 -99 -15 -34 15 -34 41 1
82 31 39 61 44 87 15z m5090 -10 c-3 -5 -10 -10 -16 -10 -5 0 -9 5 -9 10 0 6
7 10 16 10 8 0 12 -4 9 -10z m-5289 -95 c19 -19 2 -55 -26 -55 -25 0 -32 13
-24 45 7 28 28 32 50 10z m7718 -6 c-3 -5 -10 -7 -15 -3 -5 3 -7 10 -3 15 3 5
10 7 15 3 5 -3 7 -10 3 -15z m-7378 -33 c5 -39 -14 -56 -61 -56 -25 0 -45 2
-45 5 0 9 34 59 45 68 19 14 58 3 61 -17z m6604 4 c0 -5 -4 -10 -10 -10 -5 0
-10 5 -10 10 0 6 5 10 10 10 6 0 10 -4 10 -10z m-4810 -50 c0 -5 -2 -10 -4
-10 -3 0 -8 5 -11 10 -3 6 -1 10 4 10 6 0 11 -4 11 -10z m-105 -41 c5 -14 2
-25 -6 -30 -33 -21 -57 -2 -39 31 14 26 37 26 45 -1z m-5825 -39 c0 -5 -4 -10
-10 -10 -5 0 -10 5 -10 10 0 6 5 10 10 10 6 0 10 -4 10 -10z m3918 -64 c-2
-14 -11 -22 -29 -24 -31 -4 -45 21 -24 42 21 21 57 9 53 -18z m-6498 -196 c68
-22 108 -39 140 -61 14 -9 45 -20 70 -24 48 -8 100 -31 112 -48 10 -16 0 -27
-19 -20 -12 5 -15 2 -11 -9 5 -13 1 -14 -27 -8 -18 4 -38 10 -44 14 -6 4 -11
2 -11 -3 0 -16 -19 -13 -37 5 -12 11 -33 15 -82 13 -115 -4 -178 16 -214 69
-68 101 -33 121 123 72z m12310 10 c0 -5 -2 -10 -4 -10 -3 0 -8 5 -11 10 -3 6
-1 10 4 10 6 0 11 -4 11 -10z m-11605 -20 c3 -5 1 -10 -4 -10 -6 0 -11 5 -11
10 0 6 2 10 4 10 3 0 8 -4 11 -10z m6143 -33 c2 -10 -3 -17 -12 -17 -18 0 -29
16 -21 31 9 14 29 6 33 -14z m3052 -11 c0 -3 -4 -8 -10 -11 -5 -3 -10 -1 -10
4 0 6 5 11 10 11 6 0 10 -2 10 -4z m-2747 -120 c15 -4 27 -13 27 -20 0 -20
-28 -46 -48 -46 -28 0 -62 29 -62 54 0 30 8 36 33 26 12 -5 34 -11 50 -14z
m6677 -26 c0 -5 -4 -10 -10 -10 -5 0 -10 5 -10 10 0 6 5 10 10 10 6 0 10 -4
10 -10z m-6890 -47 c0 -18 -28 -29 -42 -15 -7 7 -6 17 2 32 9 17 14 19 26 9 8
-6 14 -18 14 -26z m-3340 17 c0 -5 -4 -10 -9 -10 -6 0 -13 5 -16 10 -3 6 1 10
9 10 9 0 16 -4 16 -10z m-3187 -60 c14 -11 29 -20 33 -20 8 0 74 -69 74 -79 1
-3 5 -26 11 -51 42 -185 38 -290 -12 -338 -27 -25 -27 -27 -12 -56 19 -38 68
-86 87 -86 7 0 25 -12 39 -26 26 -25 26 -27 11 -67 -31 -83 -34 -87 -76 -87
-34 0 -38 -3 -38 -24 0 -14 -13 -38 -31 -55 -34 -34 -49 -39 -49 -15 0 38 -18
-2 -30 -68 -18 -101 -58 -188 -86 -188 -12 0 -27 -6 -33 -14 -7 -8 -30 -17
-52 -21 -21 -4 -39 -11 -39 -16 0 -5 -18 -9 -39 -9 -22 0 -41 -5 -44 -12 -3
-10 -9 -10 -23 -2 -11 6 -44 18 -75 27 -37 11 -67 29 -93 54 -34 34 -36 39
-20 50 9 7 36 15 60 19 43 6 44 7 44 43 0 27 -6 40 -22 51 -13 8 -27 13 -31
12 -5 -1 -24 11 -43 28 -27 23 -31 30 -17 31 13 0 11 3 -7 10 -13 6 -32 17
-42 26 -10 9 -29 17 -43 19 -32 3 -54 21 -66 51 -5 13 -16 23 -26 23 -10 0
-26 13 -35 30 -13 23 -30 33 -76 47 -44 13 -63 24 -75 45 -9 16 -24 31 -34 35
-10 4 -38 21 -63 39 -25 17 -55 35 -66 38 -12 4 -34 18 -50 31 -16 14 -47 31
-69 37 -22 6 -44 15 -49 20 -15 12 -24 120 -13 148 25 67 51 119 56 116 3 -2
31 20 61 50 53 52 72 60 124 55 11 -1 27 -8 36 -16 9 -8 35 -15 57 -15 24 0
43 -5 46 -12 3 -10 34 -12 120 -11 71 2 117 -1 117 -7 0 -6 16 -10 36 -10 27
0 41 7 56 25 11 14 30 25 44 25 13 0 24 4 24 8 0 11 59 28 125 37 36 5 59 16
82 37 29 28 39 31 110 34 43 2 79 8 81 14 5 15 16 12 45 -10z m11647 10 c0 -5
-4 -10 -10 -10 -5 0 -10 5 -10 10 0 6 5 10 10 10 6 0 10 -4 10 -10z m1810 -10
c0 -5 -4 -10 -10 -10 -5 0 -10 5 -10 10 0 6 5 10 10 10 6 0 10 -4 10 -10z
m-1500 -14 c0 -11 -19 -15 -25 -6 -3 5 1 10 9 10 9 0 16 -2 16 -4z m-910 -16
c0 -5 -2 -10 -4 -10 -3 0 -8 5 -11 10 -3 6 -1 10 4 10 6 0 11 -4 11 -10z
m6690 -90 c0 -5 -4 -10 -10 -10 -5 0 -10 5 -10 10 0 6 5 10 10 10 6 0 10 -4
10 -10z m-15910 -50 c0 -5 -5 -10 -11 -10 -5 0 -7 5 -4 10 3 6 8 10 11 10 2 0
4 -4 4 -10z m1300 -80 c0 -5 -4 -10 -10 -10 -5 0 -10 5 -10 10 0 6 5 10 10 10
6 0 10 -4 10 -10z m8720 -80 c0 -5 -4 -10 -10 -10 -5 0 -10 5 -10 10 0 6 5 10
10 10 6 0 10 -4 10 -10z m-8315 -9 c3 -5 1 -12 -5 -16 -5 -3 -10 1 -10 9 0 18
6 21 15 7z m9610 -51 c3 -5 1 -10 -4 -10 -6 0 -11 5 -11 10 0 6 2 10 4 10 3 0
8 -4 11 -10z m-9375 -70 c0 -5 -5 -10 -11 -10 -5 0 -7 5 -4 10 3 6 8 10 11 10
2 0 4 -4 4 -10z m-3200 -40 c0 -5 -7 -10 -16 -10 -8 0 -12 5 -9 10 3 6 10 10
16 10 5 0 9 -4 9 -10z m295 -130 c3 -6 -1 -13 -10 -16 -19 -8 -30 0 -20 15 8
14 22 14 30 1z m-2105 -21 c0 -18 -2 -19 -15 -9 -15 12 -12 30 6 30 5 0 9 -10
9 -21z m5790 11 c0 -5 -5 -10 -11 -10 -5 0 -7 5 -4 10 3 6 8 10 11 10 2 0 4
-4 4 -10z m8665 -30 c3 -5 1 -10 -4 -10 -6 0 -11 5 -11 10 0 6 2 10 4 10 3 0
8 -4 11 -10z m-11835 -10 c0 -5 -2 -10 -4 -10 -3 0 -8 5 -11 10 -3 6 -1 10 4
10 6 0 11 -4 11 -10z m2610 0 c0 -5 -4 -10 -10 -10 -5 0 -10 5 -10 10 0 6 5
10 10 10 6 0 10 -4 10 -10z m-1836 -21 c-3 -5 -10 -7 -15 -3 -5 3 -7 10 -3 15
3 5 10 7 15 3 5 -3 7 -10 3 -15z m556 1 c0 -5 -7 -10 -15 -10 -8 0 -15 5 -15
10 0 6 7 10 15 10 8 0 15 -4 15 -10z m11590 6 c0 -3 -4 -8 -10 -11 -5 -3 -10
-1 -10 4 0 6 5 11 10 11 6 0 10 -2 10 -4z m-500 -156 c0 -5 -4 -10 -10 -10 -5
0 -10 5 -10 10 0 6 5 10 10 10 6 0 10 -4 10 -10z m-17730 -30 c0 -4 -7 -10
-15 -14 -10 -4 -15 1 -15 14 0 13 5 18 15 14 8 -4 15 -10 15 -14z m266 -26 c6
-8 22 -14 35 -14 13 0 48 -7 78 -15 30 -7 67 -11 82 -8 21 4 30 1 35 -11 3 -9
11 -16 18 -16 19 -1 50 -33 68 -72 10 -21 21 -38 25 -38 13 0 2 -103 -13 -118
-16 -16 -19 -42 -4 -42 6 0 5 -8 -2 -21 -11 -17 -10 -22 5 -33 9 -7 17 -19 17
-27 0 -8 7 -22 15 -33 21 -27 19 -181 -3 -202 -12 -12 -13 -17 -3 -24 20 -11
3 -17 -76 -24 -56 -6 -79 -4 -100 8 -35 18 -66 30 -76 28 -4 -1 -6 1 -5 5 4
14 -46 60 -73 66 -31 8 -79 50 -79 70 0 18 24 30 85 43 17 4 39 14 50 24 11
10 32 20 48 24 15 3 27 13 27 21 0 9 11 21 25 27 24 11 36 48 15 48 -5 0 -10
6 -10 13 0 7 -13 26 -30 42 l-29 28 -116 -7 c-99 -6 -115 -5 -115 8 0 9 -8 20
-19 25 -30 17 -34 121 -6 194 5 12 2 17 -9 17 -32 0 -15 16 27 26 50 12 98 7
113 -12z m-1644 -50 c21 -13 43 -24 50 -24 17 -1 42 -21 55 -44 9 -17 22 -20
83 -20 59 -1 74 -5 86 -21 13 -17 12 -20 -8 -30 -26 -13 -118 -8 -118 6 0 5
-4 9 -10 9 -5 0 -10 -18 -10 -40 0 -22 -4 -40 -10 -40 -5 0 -10 -6 -10 -13 0
-7 -12 -24 -26 -36 -21 -18 -33 -22 -63 -16 -61 11 -77 28 -85 86 -4 28 -14
58 -21 66 -8 8 -18 26 -22 41 -3 15 -12 33 -20 40 -14 14 -18 54 -6 66 13 13
98 -6 135 -30z m19578 -18 c0 -11 -19 -15 -25 -6 -3 5 1 10 9 10 9 0 16 -2 16
-4z m-15615 -22 c13 3 25 3 27 -2 4 -9 60 -35 112 -52 35 -11 126 -88 126
-106 0 -4 8 -16 17 -26 15 -17 15 -19 -3 -36 -22 -21 -82 -44 -94 -37 -5 3
-28 -1 -52 -10 -24 -8 -68 -18 -98 -21 -30 -4 -63 -11 -72 -16 -12 -6 -18 -5
-18 2 0 7 -17 10 -44 9 -48 -3 -76 12 -76 41 0 9 -13 34 -29 54 -26 33 -33 75
-10 61 10 -7 25 43 16 52 -4 3 10 25 29 49 28 34 43 44 72 46 20 2 45 0 55 -5
11 -5 29 -6 42 -3z m2125 -125 c0 -5 -9 -9 -20 -9 -17 0 -19 2 -8 14 13 14 28
12 28 -5z m-5448 -24 c31 -13 31 -14 8 -15 -23 -1 -24 -2 -7 -14 9 -7 17 -16
17 -19 0 -3 -25 -11 -55 -17 -30 -6 -55 -16 -55 -21 0 -5 -7 -9 -16 -9 -9 0
-23 -17 -32 -40 -15 -36 -20 -40 -53 -40 -31 0 -38 4 -43 25 -4 16 -11 23 -18
19 -6 -4 -17 1 -24 11 -11 14 -10 20 7 38 10 11 19 33 19 47 0 26 3 27 61 34
33 3 68 10 77 16 20 12 67 5 114 -15z m7138 -96 c0 -5 -7 -9 -15 -9 -15 0 -20
12 -9 23 8 8 24 -1 24 -14z m-6725 -76 c28 -10 52 -20 55 -24 3 -3 13 -8 23
-12 11 -4 17 -14 15 -24 -8 -38 -161 -10 -226 40 -10 8 -7 13 15 23 39 17 61
17 118 -3z m22525 9 c0 -13 -12 -22 -22 -16 -10 6 -1 24 13 24 5 0 9 -4 9 -8z
m-7505 -22 c3 -5 1 -10 -4 -10 -6 0 -11 5 -11 10 0 6 2 10 4 10 3 0 8 -4 11
-10z m-13660 -60 c3 -5 17 -10 31 -10 22 0 24 -4 24 -50 0 -47 -11 -63 -25
-40 -3 6 -17 10 -31 10 -18 0 -24 5 -24 22 0 12 -7 30 -17 40 -15 17 -15 18 0
18 10 0 17 5 17 10 0 6 4 10 9 10 6 0 13 -4 16 -10z m1376 -32 c22 -6 39 -17
39 -24 0 -17 -78 -56 -83 -41 -2 6 -12 4 -28 -5 -52 -33 -129 -9 -129 40 0 33
128 52 201 30z m3294 2 c3 -5 1 -10 -4 -10 -6 0 -11 5 -11 10 0 6 2 10 4 10 3
0 8 -4 11 -10z m2065 -14 c0 -11 -19 -15 -25 -6 -3 5 1 10 9 10 9 0 16 -2 16
-4z m6035 -96 c3 -5 1 -10 -4 -10 -6 0 -11 5 -11 10 0 6 2 10 4 10 3 0 8 -4
11 -10z m3015 -210 c0 -5 -4 -10 -10 -10 -5 0 -10 5 -10 10 0 6 5 10 10 10 6
0 10 -4 10 -10z m-11330 -125 c0 -8 -7 -15 -15 -15 -8 0 -15 7 -15 15 0 8 7
15 15 15 8 0 15 -7 15 -15z m-5086 -22 c14 -14 29 -37 33 -51 3 -13 9 -19 12
-14 4 7 24 -5 48 -28 41 -40 144 -93 243 -126 30 -10 60 -21 65 -25 13 -10
182 -99 223 -118 17 -8 32 -19 32 -23 0 -4 10 -8 23 -8 13 0 27 -4 33 -8 5 -5
32 -17 59 -27 45 -17 110 -48 205 -102 19 -10 64 -27 100 -37 36 -9 87 -28
113 -42 27 -13 55 -24 62 -24 7 0 15 -7 18 -15 7 -16 81 -52 120 -57 15 -2 37
-12 48 -21 12 -11 28 -15 42 -12 16 4 29 0 41 -14 11 -12 32 -21 47 -21 15 0
31 -4 34 -10 3 -5 15 -10 26 -10 12 0 19 -7 19 -19 0 -10 7 -24 15 -31 8 -7
15 -18 15 -26 0 -20 -33 -87 -50 -102 -17 -15 -142 -11 -162 5 -31 23 -154 62
-220 68 -9 1 -25 6 -35 10 -22 9 -88 23 -163 34 -40 6 -62 5 -82 -5 -32 -16
-60 -18 -74 -4 -11 11 -241 15 -266 5 -11 -4 -18 -3 -18 4 0 6 -6 11 -14 11
-8 0 -23 11 -34 25 -11 14 -24 25 -30 25 -5 0 -12 23 -16 51 -17 126 -87 198
-208 214 -25 3 -52 13 -58 20 -7 8 -19 15 -26 15 -8 0 -14 8 -14 18 0 9 -7 26
-15 36 -8 11 -15 29 -15 40 0 28 -32 126 -42 126 -4 0 -8 6 -8 14 0 15 -33 56
-102 127 -31 31 -46 54 -42 64 4 10 0 15 -10 15 -20 0 -43 53 -25 59 8 2 7 6
-2 12 -11 6 -9 9 7 9 12 0 33 -12 48 -27z m5073 -13 c15 0 48 -14 73 -30 25
-16 50 -30 55 -30 20 0 65 -65 65 -93 0 -8 -7 -17 -15 -21 -18 -7 -170 63
-202 93 -12 12 -32 21 -45 21 -17 0 -19 3 -10 12 7 7 12 25 12 40 0 25 2 27
19 18 11 -5 32 -10 48 -10z m-236 -38 c66 -33 74 -40 77 -69 2 -25 -2 -35 -21
-48 -14 -9 -37 -34 -53 -56 -15 -22 -35 -44 -43 -48 -19 -10 -158 12 -174 28
-6 6 -17 11 -25 11 -8 0 -22 10 -32 22 -14 18 -16 27 -7 43 6 11 9 20 8 20 -2
0 3 20 10 45 18 65 48 86 124 88 54 2 72 -3 136 -36z m1469 13 c0 -8 -4 -15
-9 -15 -13 0 -22 16 -14 24 11 11 23 6 23 -9z m13896 -76 c49 -20 67 -36 58
-51 -10 -15 -61 -8 -87 12 -14 11 -29 20 -34 20 -4 0 -19 9 -33 20 l-25 20 37
0 c20 0 58 -9 84 -21z m-321 -53 c-31 -14 -45 -12 -45 5 0 5 17 9 38 9 l37 -1
-30 -13z m525 -39 c44 -15 65 -33 47 -41 -9 -5 -9 -7 1 -12 13 -6 16 -30 5
-37 -5 -2 -3 -2 4 -1 28 7 24 -21 -6 -48 -37 -33 -53 -29 -41 11 4 15 5 33 1
39 -10 16 -58 32 -99 32 -45 1 -77 22 -68 46 4 11 14 15 31 12 14 -3 30 1 36
9 12 14 20 13 89 -10z m-1133 -94 c2 -6 -21 -28 -51 -48 -46 -30 -61 -35 -86
-30 -52 11 -34 29 80 79 37 17 52 16 57 -1z m-12856 -36 c-1 -12 -15 -9 -19 4
-3 6 1 10 8 8 6 -3 11 -8 11 -12z m-786 -27 c3 -5 -1 -10 -10 -10 -9 0 -13 5
-10 10 3 6 8 10 10 10 2 0 7 -4 10 -10z m14703 -36 c3 -24 -17 -44 -64 -60
-39 -13 -49 -5 -40 31 12 48 98 72 104 29z m-1298 -4 c0 -5 -4 -10 -9 -10 -6
0 -13 5 -16 10 -3 6 1 10 9 10 9 0 16 -4 16 -10z m-83 -67 c3 -7 -15 -22 -39
-34 -44 -22 -98 -66 -98 -81 0 -4 6 -8 14 -8 7 0 34 -12 59 -26 26 -14 70 -28
101 -31 l54 -6 -19 -33 c-11 -20 -14 -36 -9 -39 21 -13 8 -41 -30 -65 -31 -19
-40 -31 -40 -53 0 -26 -40 -77 -61 -77 -5 0 -15 -15 -23 -32 -18 -44 -55 -76
-94 -84 -44 -9 -40 5 13 45 58 43 66 73 30 111 -26 27 -26 29 -11 58 24 47 21
55 -16 47 -68 -14 -111 -12 -143 6 -46 28 -109 12 -110 -26 0 -5 -10 -9 -23
-7 -12 2 -45 -4 -72 -13 -40 -13 -52 -14 -69 -3 -31 19 -22 40 24 53 30 8 39
16 37 29 -2 10 8 35 22 56 19 30 37 41 79 55 75 24 129 68 121 101 -11 42 10
53 91 52 40 0 81 5 91 11 24 14 116 10 121 -6z m796 -50 c64 -42 73 -56 51
-78 -34 -33 -114 -8 -158 49 -15 20 -25 44 -22 51 10 28 70 17 129 -22z
m-13753 7 c0 -5 -4 -10 -9 -10 -6 0 -13 5 -16 10 -3 6 1 10 9 10 9 0 16 -4 16
-10z m13157 -31 c8 -8 9 -18 0 -38 -23 -54 -54 -75 -96 -62 -3 0 7 13 21 29
15 15 31 39 37 55 11 29 21 33 38 16z m899 -107 c-22 -5 -30 3 -21 18 5 8 11
7 22 -2 15 -12 14 -13 -1 -16z m-17649 -78 c49 -16 93 -49 93 -69 0 -6 14 -19
32 -30 44 -25 78 -64 78 -87 0 -10 7 -21 15 -24 12 -5 12 -8 -2 -22 -19 -20
-117 -26 -147 -10 -11 7 -28 13 -36 14 -8 1 -35 8 -59 15 -34 9 -51 9 -77 0
-19 -7 -40 -9 -46 -4 -7 4 -31 13 -52 18 -22 6 -44 19 -50 30 -6 11 -13 22
-16 25 -21 21 -30 53 -19 66 8 10 8 14 0 14 -19 0 -12 23 17 51 25 25 33 27
124 28 65 1 113 -4 145 -15z m15591 -140 c25 -7 29 -29 6 -38 -22 -8 -287 -6
-349 3 -43 6 -46 8 -25 15 14 4 46 3 70 -2 57 -12 144 -6 195 12 44 17 69 19
103 10z m-10587 -177 c-13 -13 -26 -3 -16 12 3 6 11 8 17 5 6 -4 6 -10 -1 -17z
m10365 -180 c2 -7 1 -24 -4 -36 -9 -24 -36 -32 -122 -35 -32 -1 -35 1 -35 29
0 21 7 33 25 42 34 17 129 17 136 0z m96 -45 c20 -5 25 -11 19 -21 -7 -11 -17
-11 -60 -1 -44 10 -50 14 -40 27 8 9 21 12 33 8 12 -4 33 -10 48 -13z m-399
-23 c20 -22 15 -41 -5 -21 -7 7 -22 12 -35 12 -25 0 -31 15 -10 23 23 10 33 7
50 -14z m-3853 1 c0 -5 -4 -10 -10 -10 -5 0 -10 5 -10 10 0 6 5 10 10 10 6 0
10 -4 10 -10z m4570 -158 c45 -22 44 -36 -2 -40 -28 -2 -40 2 -52 20 -9 12
-16 26 -16 30 0 13 33 8 70 -10z m-17805 -110 c16 -9 18 -14 9 -29 -23 -37
-53 -44 -194 -41 -124 3 -137 5 -160 25 -27 26 -24 32 15 39 16 3 43 8 62 12
52 11 246 7 268 -6z m6773 -216 c28 -20 56 -36 60 -36 5 0 19 -9 32 -20 28
-25 111 -50 139 -43 22 6 75 -9 136 -37 22 -10 71 -28 108 -40 61 -20 81 -21
173 -15 102 7 244 -7 244 -25 0 -4 12 -10 28 -13 16 -3 34 -18 45 -36 10 -17
22 -31 28 -31 5 0 9 -9 9 -20 0 -15 -7 -20 -26 -20 -14 0 -35 -5 -46 -11 -27
-14 -60 -20 -133 -23 -105 -4 -102 -3 -108 -38 -2 -18 0 -38 5 -45 17 -21 -5
-66 -33 -69 -36 -4 -89 15 -89 32 0 8 -4 14 -10 14 -5 0 -21 12 -35 27 -24 27
-28 28 -146 29 -67 1 -124 6 -128 11 -8 11 -93 33 -126 33 -31 0 -95 56 -95
82 0 11 -7 18 -19 18 -11 0 -30 13 -44 29 -16 20 -38 32 -63 36 -136 21 -172
43 -189 109 -11 42 -10 50 7 72 31 38 114 72 174 69 39 -2 61 -10 102 -39z
m352 13 c0 -5 -4 -9 -10 -9 -5 0 -10 7 -10 16 0 8 5 12 10 9 6 -3 10 -10 10
-16z m1860 -219 c0 -5 -5 -10 -11 -10 -5 0 -7 5 -4 10 3 6 8 10 11 10 2 0 4
-4 4 -10z m7696 -221 c11 -19 -22 -42 -50 -35 -27 7 -35 31 -13 39 22 10 56 7
63 -4z m-8614 -118 c-3 -9 -1 -12 6 -8 13 9 60 -11 91 -39 13 -12 35 -28 50
-35 40 -21 166 -103 169 -111 2 -5 10 -8 17 -8 8 0 18 -6 22 -14 4 -8 25 -24
45 -36 20 -12 40 -30 43 -41 4 -10 12 -19 18 -19 7 0 17 -11 23 -25 11 -23 9
-26 -40 -49 -46 -22 -56 -23 -89 -13 -20 7 -37 15 -37 19 0 5 -6 8 -13 8 -8 0
-39 25 -70 55 -31 30 -59 55 -64 55 -4 0 -14 14 -21 30 -8 17 -30 43 -50 58
-55 41 -102 90 -102 106 0 7 -7 16 -15 19 -21 9 -15 66 6 64 10 -1 15 -7 11
-16z m3313 -81 c3 -5 -1 -10 -9 -10 -9 0 -16 5 -16 10 0 6 4 10 9 10 6 0 13
-4 16 -10z m-7324 -53 c15 -7 41 -24 58 -39 77 -66 10 -144 -137 -159 -43 -4
-80 -4 -85 0 -4 4 -8 33 -10 64 -2 51 1 60 24 80 15 12 29 30 32 39 9 26 75
35 118 15z m12365 -35 c6 -4 14 -16 18 -28 5 -18 -1 -22 -46 -36 -90 -27 -128
-31 -128 -13 0 15 35 57 42 49 3 -2 22 5 43 16 42 22 54 24 71 12z m-2141 -38
c20 -20 16 -25 -13 -17 -12 3 -22 12 -22 19 0 19 15 18 35 -2z m-2955 -54 c0
-5 -4 -10 -10 -10 -5 0 -10 5 -10 10 0 6 5 10 10 10 6 0 10 -4 10 -10z m-1540
-230 c0 -5 -5 -10 -11 -10 -5 0 -7 5 -4 10 3 6 8 10 11 10 2 0 4 -4 4 -10z
m400 0 c0 -5 -4 -10 -10 -10 -5 0 -10 5 -10 10 0 6 5 10 10 10 6 0 10 -4 10
-10z m-6070 -130 c21 -18 22 -26 17 -78 -8 -75 -14 -89 -40 -97 -28 -9 -79 -6
-93 6 -6 5 -14 6 -17 2 -12 -11 -13 71 -2 133 9 52 90 73 135 34z m5820 -21
c0 -5 -7 -9 -15 -9 -15 0 -20 12 -9 23 8 8 24 -1 24 -14z m830 -69 c0 -5 -2
-10 -4 -10 -3 0 -8 5 -11 10 -3 6 -1 10 4 10 6 0 11 -4 11 -10z m-2582 -109
c40 -41 50 -60 61 -113 15 -65 30 -98 44 -98 5 0 34 -20 66 -44 50 -39 59 -51
75 -104 14 -48 15 -65 6 -82 -14 -26 -10 -69 15 -159 14 -50 15 -69 6 -83 -6
-10 -12 -43 -12 -74 -1 -31 -7 -61 -15 -68 -7 -8 -16 -25 -20 -40 -9 -38 -109
-126 -142 -126 -38 0 -48 9 -68 58 -15 38 -15 51 -4 100 7 31 16 60 21 63 15
9 15 119 0 128 -9 6 -14 47 -16 136 -2 71 -8 131 -13 134 -5 3 -17 22 -27 41
-24 46 -43 59 -85 60 -47 0 -65 14 -66 47 -2 73 -18 165 -29 169 -10 4 -10 11
0 32 8 15 15 34 17 42 5 24 20 30 81 30 57 0 59 -1 105 -49z m1442 39 c0 -5
-4 -10 -10 -10 -5 0 -10 5 -10 10 0 6 5 10 10 10 6 0 10 -4 10 -10z m25 -340
c3 -5 1 -10 -4 -10 -6 0 -11 5 -11 10 0 6 2 10 4 10 3 0 8 -4 11 -10z m8835
-164 c0 -3 -4 -8 -10 -11 -5 -3 -10 -1 -10 4 0 6 5 11 10 11 6 0 10 -2 10 -4z
m-2970 -10 c0 -3 -4 -8 -10 -11 -5 -3 -10 -1 -10 4 0 6 5 11 10 11 6 0 10 -2
10 -4z m-9156 -27 c35 -10 106 -71 106 -92 0 -15 -45 -55 -65 -57 -38 -4 -46
0 -61 33 -8 17 -23 43 -33 57 -11 14 -22 35 -26 48 -5 18 -2 22 17 22 13 0 40
-5 62 -11z m4496 -129 c0 -5 -4 -10 -10 -10 -5 0 -10 5 -10 10 0 6 5 10 10 10
6 0 10 -4 10 -10z m5620 -54 c0 -3 -4 -8 -10 -11 -5 -3 -10 -1 -10 4 0 6 5 11
10 11 6 0 10 -2 10 -4z m-10257 -61 c20 -3 37 -9 37 -14 0 -4 11 -13 25 -19
14 -6 25 -18 25 -25 0 -16 -73 -41 -78 -27 -2 6 -22 10 -43 10 -48 0 -83 16
-75 35 3 8 0 15 -6 17 -22 8 23 37 50 33 15 -2 44 -7 65 -10z m4817 -285 c0
-5 -4 -10 -10 -10 -5 0 -10 5 -10 10 0 6 5 10 10 10 6 0 10 -4 10 -10z m7300
-4 c0 -11 -19 -15 -25 -6 -3 5 1 10 9 10 9 0 16 -2 16 -4z m2090 -96 c0 -5 -7
-10 -15 -10 -8 0 -15 5 -15 10 0 6 7 10 15 10 8 0 15 -4 15 -10z m-12169 -22
c33 -31 50 -98 33 -130 -13 -25 -64 -55 -64 -38 0 6 -6 10 -14 10 -29 0 -46
30 -46 84 0 56 13 81 45 89 11 3 20 5 21 6 1 0 12 -9 25 -21z m1884 12 c3 -5
-1 -10 -10 -10 -9 0 -13 5 -10 10 3 6 8 10 10 10 2 0 7 -4 10 -10z m-2746 -61
c17 -17 31 -35 31 -40 0 -5 4 -9 9 -9 5 0 27 -17 49 -37 76 -70 102 -91 103
-79 0 6 5 -1 11 -16 5 -16 14 -28 19 -28 5 0 9 -8 9 -18 0 -10 8 -27 18 -38 9
-10 19 -30 20 -44 2 -14 8 -29 13 -34 15 -17 10 -26 -14 -26 -13 0 -48 -7 -77
-16 -50 -15 -58 -15 -112 2 -39 11 -69 29 -91 52 -17 19 -40 42 -51 51 -10 9
-43 40 -73 69 -31 28 -59 52 -63 52 -4 0 -17 9 -29 19 -25 22 -26 69 -1 62 23
-6 81 -1 120 9 35 10 60 43 60 82 0 26 14 22 49 -13z m7531 1 c0 -5 -4 -10
-10 -10 -5 0 -10 5 -10 10 0 6 5 10 10 10 6 0 10 -4 10 -10z m3420 -50 c0 -5
-4 -10 -10 -10 -5 0 -10 5 -10 10 0 6 5 10 10 10 6 0 10 -4 10 -10z m-7070
-70 c0 -5 -5 -10 -11 -10 -5 0 -7 5 -4 10 3 6 8 10 11 10 2 0 4 -4 4 -10z
m-2875 -62 c14 -6 25 -15 25 -20 0 -4 7 -8 15 -8 11 0 15 -11 15 -40 l0 -40
-43 0 c-31 0 -49 6 -62 20 -10 11 -24 20 -32 20 -7 0 -13 9 -13 20 0 17 -7 20
-40 20 -28 0 -40 4 -40 15 0 10 16 15 58 18 31 2 65 4 74 5 9 1 29 -3 43 -10z
m1935 -38 c0 -5 -7 -10 -15 -10 -8 0 -15 5 -15 10 0 6 7 10 15 10 8 0 15 -4
15 -10z m5925 -30 c3 -5 1 -10 -4 -10 -6 0 -11 5 -11 10 0 6 2 10 4 10 3 0 8
-4 11 -10z m3825 -30 c0 -5 -2 -10 -4 -10 -3 0 -8 5 -11 10 -3 6 -1 10 4 10 6
0 11 -4 11 -10z m-9525 -10 c3 -5 1 -10 -4 -10 -6 0 -11 5 -11 10 0 6 2 10 4
10 3 0 8 -4 11 -10z m7305 0 c0 -5 -4 -10 -10 -10 -5 0 -10 5 -10 10 0 6 5 10
10 10 6 0 10 -4 10 -10z m1100 -44 c0 -3 -4 -8 -10 -11 -5 -3 -10 -1 -10 4 0
6 5 11 10 11 6 0 10 -2 10 -4z m-7252 -17 c-2 -6 -8 -10 -13 -10 -5 0 -11 4
-13 10 -2 6 4 11 13 11 9 0 15 -5 13 -11z m2282 -343 c0 -3 -4 -8 -10 -11 -5
-3 -10 -1 -10 4 0 6 5 11 10 11 6 0 10 -2 10 -4z m-3945 -45 c3 -5 1 -12 -5
-16 -5 -3 -10 1 -10 9 0 18 6 21 15 7z m2205 -56 c0 -8 -4 -15 -9 -15 -13 0
-22 16 -14 24 11 11 23 6 23 -9z m-1800 -46 c0 -5 -7 -9 -15 -9 -8 0 -15 7
-15 15 0 9 6 12 15 9 8 -4 15 -10 15 -15z m7145 1 c3 -5 -1 -10 -10 -10 -9 0
-13 5 -10 10 3 6 8 10 10 10 2 0 7 -4 10 -10z m-5215 -60 c0 -5 -4 -10 -10
-10 -5 0 -10 5 -10 10 0 6 5 10 10 10 6 0 10 -4 10 -10z m7615 -120 c3 -5 -1
-10 -10 -10 -9 0 -13 5 -10 10 3 6 8 10 10 10 2 0 7 -4 10 -10z m-10197 -131
c-2 -6 -8 -10 -13 -10 -5 0 -11 4 -13 10 -2 6 4 11 13 11 9 0 15 -5 13 -11z
m6062 3 c0 -13 -12 -22 -22 -16 -10 6 -1 24 13 24 5 0 9 -4 9 -8z m5290 -42
c0 -5 -4 -10 -10 -10 -5 0 -10 5 -10 10 0 6 5 10 10 10 6 0 10 -4 10 -10z
m3210 -5 c0 -8 -4 -15 -9 -15 -13 0 -22 16 -14 24 11 11 23 6 23 -9z m-10989
-26 c16 -16 23 -18 35 -8 11 9 18 9 26 1 7 -7 26 -12 43 -12 28 -1 84 -35 73
-45 -2 -3 -32 -8 -66 -11 -53 -6 -62 -5 -62 10 0 9 -7 16 -15 16 -9 0 -26 11
-38 23 -12 13 -31 29 -42 35 -19 11 -19 11 3 12 12 0 31 -9 43 -21z m6729 -49
c0 -5 -4 -10 -10 -10 -5 0 -10 5 -10 10 0 6 5 10 10 10 6 0 10 -4 10 -10z
m-6875 -50 c3 -5 22 -10 41 -10 81 0 2 -48 -91 -56 -71 -6 -102 8 -70 31 11 8
25 19 31 24 23 19 80 26 89 11z m7975 -20 c0 -5 -2 -10 -4 -10 -3 0 -8 5 -11
10 -3 6 -1 10 4 10 6 0 11 -4 11 -10z m-3010 -10 c0 -5 -4 -10 -10 -10 -5 0
-10 5 -10 10 0 6 5 10 10 10 6 0 10 -4 10 -10z m-6695 -39 c7 -12 -12 -24 -25
-16 -11 7 -4 25 10 25 5 0 11 -4 15 -9z m2815 -11 c0 -5 -5 -10 -11 -10 -5 0
-7 5 -4 10 3 6 8 10 11 10 2 0 4 -4 4 -10z m-3870 -4 c0 -3 -4 -8 -10 -11 -5
-3 -10 -1 -10 4 0 6 5 11 10 11 6 0 10 -2 10 -4z m603 -21 c1 -5 -6 -11 -15
-13 -11 -2 -18 3 -18 13 0 17 30 18 33 0z m-518 -115 c0 -22 -29 -18 -33 3 -3
14 1 18 15 15 10 -2 18 -10 18 -18z m3905 -120 c0 -5 -4 -10 -10 -10 -5 0 -10
5 -10 10 0 6 5 10 10 10 6 0 10 -4 10 -10z m-3350 -118 c0 -14 -11 -21 -26
-15 -21 8 -17 23 6 23 11 0 20 -4 20 -8z m5830 -262 c0 -5 -4 -10 -10 -10 -5
0 -10 5 -10 10 0 6 5 10 10 10 6 0 10 -4 10 -10z m-5655 -19 c7 -12 -12 -24
-25 -16 -11 7 -4 25 10 25 5 0 11 -4 15 -9z m4115 -41 c0 -5 -4 -10 -10 -10
-5 0 -10 5 -10 10 0 6 5 10 10 10 6 0 10 -4 10 -10z m-6518 -24 c24 -3 43 -22
78 -74 40 -60 38 -85 -7 -130 -47 -46 -68 -58 -146 -82 -75 -24 -91 -25 -111
-4 -33 33 -30 61 10 111 36 44 84 131 98 177 5 14 12 17 34 12 15 -4 34 -8 44
-10z m2182 -67 c-3 -5 -10 -7 -15 -3 -5 3 -7 10 -3 15 3 5 10 7 15 3 5 -3 7
-10 3 -15z m266 -139 c0 -5 -4 -10 -10 -10 -5 0 -10 5 -10 10 0 6 5 10 10 10
6 0 10 -4 10 -10z m4770 -204 c0 -3 -4 -8 -10 -11 -5 -3 -10 -1 -10 4 0 6 5
11 10 11 6 0 10 -2 10 -4z m465 -16 c3 -5 -1 -10 -10 -10 -9 0 -13 5 -10 10 3
6 8 10 10 10 2 0 7 -4 10 -10z m-4825 -80 c0 -5 -2 -10 -4 -10 -3 0 -8 5 -11
10 -3 6 -1 10 4 10 6 0 11 -4 11 -10z m-460 -30 c0 -5 -7 -10 -16 -10 -8 0
-12 5 -9 10 3 6 10 10 16 10 5 0 9 -4 9 -10z m5420 -70 c0 -5 -2 -10 -4 -10
-3 0 -8 5 -11 10 -3 6 -1 10 4 10 6 0 11 -4 11 -10z m7895 -80 c3 -5 -1 -10
-9 -10 -9 0 -16 5 -16 10 0 6 4 10 9 10 6 0 13 -4 16 -10z m-8925 -56 c0 -8
-5 -12 -10 -9 -6 4 -8 11 -5 16 9 14 15 11 15 -7z m-4490 -38 c0 -3 -4 -8 -10
-11 -5 -3 -10 -1 -10 4 0 6 5 11 10 11 6 0 10 -2 10 -4z m1160 -106 c0 -5 -4
-10 -10 -10 -5 0 -10 5 -10 10 0 6 5 10 10 10 6 0 10 -4 10 -10z m2970 -100
c0 -5 -4 -10 -10 -10 -5 0 -10 5 -10 10 0 6 5 10 10 10 6 0 10 -4 10 -10z
m-270 -140 c0 -5 -4 -10 -10 -10 -5 0 -10 5 -10 10 0 6 5 10 10 10 6 0 10 -4
10 -10z"/>
<path d="M13565 11290 c-5 -8 42 -20 78 -20 11 0 35 -11 53 -25 39 -30 44 -31
44 -5 0 41 -34 60 -105 59 -36 -1 -67 -5 -70 -9z"/>
<path d="M13025 11190 c-3 -5 -1 -10 4 -10 6 0 11 5 11 10 0 6 -2 10 -4 10 -3
0 -8 -4 -11 -10z"/>
<path d="M13120 11170 c0 -14 29 -32 40 -25 6 3 8 10 5 14 -7 12 -45 21 -45
11z"/>
<path d="M13180 11143 c0 -5 27 -17 60 -26 55 -17 62 -17 76 -3 12 12 12 16 2
18 -37 4 -67 8 -100 14 -21 3 -38 2 -38 -3z"/>
<path d="M12956 11104 c-14 -36 -7 -44 39 -44 35 0 45 4 45 16 0 36 -72 60
-84 28z"/>
<path d="M13057 11033 c-3 -5 -8 -22 -11 -39 -7 -29 -6 -31 24 -29 17 1 34 -4
38 -12 9 -15 80 -53 99 -53 8 0 16 6 19 14 3 8 16 17 30 20 13 4 24 10 24 16
0 15 -36 21 -64 10 -33 -12 -72 5 -109 50 -25 30 -42 37 -50 23z"/>
<path d="M12980 10990 c0 -5 7 -10 15 -10 8 0 15 5 15 10 0 6 -7 10 -15 10 -8
0 -15 -4 -15 -10z"/>
<path d="M13022 10938 c-21 -21 -13 -36 21 -43 17 -4 42 -13 54 -21 12 -8 24
-10 27 -6 7 12 -6 62 -15 56 -5 -2 -22 2 -38 11 -36 18 -34 18 -49 3z"/>
<path d="M12666 10716 c-18 -29 -5 -44 18 -20 17 17 22 44 7 44 -5 0 -16 -11
-25 -24z"/>
<path d="M13945 10310 c3 -5 10 -10 16 -10 5 0 9 5 9 10 0 6 -7 10 -16 10 -8
0 -12 -4 -9 -10z"/>
<path d="M12630 10234 c0 -9 5 -14 12 -12 18 6 21 28 4 28 -9 0 -16 -7 -16
-16z"/>
<path d="M12760 10204 c0 -9 5 -14 12 -12 18 6 21 28 4 28 -9 0 -16 -7 -16
-16z"/>
<path d="M5620 9280 c0 -81 21 -160 44 -160 13 -1 50 -77 65 -137 7 -23 27
-59 46 -79 19 -20 35 -40 35 -45 0 -14 75 -4 100 13 21 16 24 25 24 80 -1 118
-13 159 -58 204 -23 22 -48 43 -58 47 -9 3 -22 22 -29 41 -7 20 -19 36 -26 36
-7 0 -18 18 -24 40 -12 40 -41 55 -52 28 -4 -10 -6 -10 -6 0 -1 7 -14 12 -31
12 l-30 0 0 -80z"/>
<path d="M5840 8520 c0 -28 1 -29 30 -19 17 6 30 15 30 19 0 4 -13 13 -30 19
-29 10 -30 9 -30 -19z"/>
</g>
</svg>
