<?xml version="1.0" standalone="no"?>
<!DOCTYPE svg PUBLIC "-//W3C//DTD SVG 20010904//EN"
 "http://www.w3.org/TR/2001/REC-SVG-20010904/DTD/svg10.dtd">
<svg version="1.0" xmlns="http://www.w3.org/2000/svg"
 width="2273.000000pt" height="2930.000000pt" viewBox="0 0 2273.000000 2930.000000"
 preserveAspectRatio="xMidYMid meet">

<g transform="translate(0.000000,2930.000000) scale(0.100000,-0.100000)"
fill="#000000" stroke="none">
<path d="M15882 29202 c-22 -3 -109 -98 -133 -145 -6 -12 -26 -40 -43 -62 -18
-22 -47 -65 -65 -95 -19 -30 -46 -69 -61 -87 -16 -17 -49 -70 -74 -116 -51
-93 -56 -96 -151 -97 -70 -1 -427 -49 -510 -70 -22 -5 -57 -11 -77 -14 -106
-11 -168 -57 -168 -124 0 -50 44 -84 229 -178 95 -48 175 -93 178 -100 4 -12
-20 -60 -42 -79 -13 -13 -73 -104 -110 -170 -16 -27 -40 -63 -53 -80 -44 -55
-112 -170 -112 -190 0 -11 -3 -29 -6 -41 -3 -12 2 -30 14 -44 l19 -23 68 17
c38 9 125 44 194 78 69 33 173 83 231 110 58 27 153 73 212 102 99 49 109 52
140 41 43 -14 411 -224 486 -276 32 -21 61 -39 65 -39 4 0 20 -8 34 -17 43
-29 90 -42 102 -30 25 25 13 114 -50 377 -16 69 -29 139 -29 156 0 30 4 33 83
64 45 18 145 63 222 100 187 90 233 111 239 111 3 0 38 16 78 36 40 19 78 36
83 38 76 17 199 73 238 109 34 31 34 56 2 88 -25 25 -28 25 -148 22 -109 -3
-216 -4 -317 -1 -19 0 -87 -3 -150 -7 -63 -4 -140 -9 -170 -10 -30 -2 -89 -6
-131 -10 -58 -6 -78 -5 -86 6 -9 11 -49 165 -108 418 -8 36 -15 82 -15 103 0
27 -9 50 -32 82 -36 49 -43 53 -76 47z"/>
<path d="M4152 28705 c-18 -15 -32 -39 -37 -61 -7 -37 -24 -83 -56 -145 -11
-20 -19 -42 -19 -49 0 -10 -14 -48 -59 -165 -9 -22 -22 -60 -53 -150 -11 -33
-27 -75 -34 -93 -8 -18 -14 -41 -14 -52 0 -10 -4 -22 -10 -25 -5 -3 -10 -17
-10 -30 0 -14 -11 -53 -24 -87 -13 -35 -32 -88 -41 -118 -9 -30 -23 -68 -30
-85 -16 -36 -65 -177 -91 -260 -10 -33 -21 -64 -25 -70 -4 -5 -15 -39 -24 -75
-9 -36 -21 -74 -25 -85 -5 -11 -11 -36 -15 -55 -14 -85 -25 -134 -59 -265 -44
-172 -50 -202 -50 -287 -1 -66 -1 -67 44 -108 56 -51 110 -87 145 -96 15 -4
49 -17 76 -30 27 -14 87 -40 132 -59 45 -18 124 -54 175 -79 51 -25 95 -46 98
-46 3 0 69 -31 147 -69 228 -110 267 -128 365 -166 51 -20 121 -48 155 -64 34
-16 96 -42 137 -59 41 -16 105 -44 143 -61 37 -17 74 -31 82 -31 7 0 16 -4 20
-9 3 -5 27 -17 53 -27 26 -9 71 -28 100 -41 29 -12 55 -23 58 -23 6 0 101 -43
167 -76 27 -13 53 -24 59 -24 6 0 44 -16 85 -35 41 -19 79 -35 84 -35 5 0 17
-4 27 -9 9 -5 53 -24 97 -41 44 -18 103 -43 130 -56 28 -12 84 -36 126 -53 42
-16 105 -43 140 -59 35 -17 105 -49 154 -72 50 -23 167 -71 260 -106 94 -36
179 -69 190 -74 11 -5 31 -12 45 -16 14 -3 94 -40 177 -80 84 -41 159 -74 166
-74 7 0 23 -7 35 -16 13 -9 44 -24 70 -33 26 -10 86 -36 134 -59 48 -23 91
-42 97 -42 17 0 20 -16 8 -41 -7 -13 -27 -60 -46 -104 -40 -96 -96 -225 -121
-280 -9 -22 -23 -58 -30 -80 -7 -22 -16 -44 -20 -50 -4 -5 -13 -32 -20 -60 -7
-27 -17 -55 -21 -60 -4 -6 -17 -35 -29 -65 -20 -51 -55 -128 -85 -190 -7 -14
-16 -41 -20 -60 -4 -19 -13 -48 -20 -65 -7 -16 -20 -54 -29 -83 -9 -29 -27
-76 -40 -105 -13 -29 -27 -63 -31 -77 -4 -14 -11 -30 -16 -35 -9 -12 -55 -132
-71 -185 -5 -19 -16 -48 -24 -65 -7 -16 -22 -61 -33 -100 -11 -38 -29 -104
-41 -145 -12 -41 -25 -84 -30 -95 -6 -11 -17 -45 -25 -75 -20 -75 -74 -242
-84 -260 -4 -8 -14 -40 -21 -70 -7 -30 -18 -64 -24 -75 -7 -11 -20 -51 -30
-89 -9 -38 -23 -81 -30 -95 -7 -14 -18 -53 -25 -86 -7 -33 -19 -73 -26 -90 -7
-16 -20 -59 -29 -95 -8 -36 -27 -108 -41 -160 -15 -52 -36 -131 -48 -175 -12
-44 -25 -84 -28 -90 -4 -5 -14 -44 -24 -85 -9 -41 -25 -104 -35 -140 -28 -98
-50 -186 -69 -280 -16 -75 -52 -206 -81 -294 -11 -33 1 -62 33 -85 30 -21 204
-179 253 -228 22 -23 77 -71 121 -105 121 -94 226 -181 243 -198 8 -9 38 -34
65 -55 28 -21 71 -57 96 -79 26 -23 63 -52 83 -66 20 -14 63 -45 96 -70 32
-25 105 -78 162 -118 159 -112 244 -178 474 -372 141 -119 151 -127 312 -242
79 -57 167 -121 196 -143 68 -51 127 -95 194 -142 29 -21 69 -51 89 -68 l35
-29 -28 -23 c-16 -13 -34 -23 -40 -23 -6 0 -33 -16 -60 -35 -27 -19 -52 -35
-56 -35 -5 0 -17 -9 -28 -20 -11 -11 -27 -20 -35 -20 -8 0 -15 -4 -15 -9 0 -5
-17 -17 -37 -28 -21 -10 -64 -36 -96 -58 -32 -22 -80 -53 -106 -70 -27 -16
-75 -48 -107 -69 -33 -21 -88 -58 -124 -81 -36 -23 -78 -50 -94 -61 -30 -20
-35 -23 -100 -64 -21 -14 -49 -32 -61 -40 -96 -65 -140 -97 -205 -149 -41 -33
-81 -61 -87 -61 -7 0 -13 -4 -13 -10 0 -5 -21 -24 -47 -41 -27 -18 -50 -36
-53 -39 -3 -4 -23 -20 -46 -36 -180 -129 -547 -479 -1074 -1021 -168 -173
-185 -192 -225 -253 -16 -25 -42 -62 -58 -83 -16 -20 -39 -59 -52 -85 -14 -28
-59 -83 -115 -137 -208 -204 -372 -447 -445 -660 -8 -25 -24 -64 -35 -85 -11
-22 -20 -44 -20 -50 0 -12 -33 -91 -55 -131 -23 -42 -50 -98 -85 -179 -18 -41
-39 -86 -46 -100 -31 -57 -62 -128 -74 -170 -7 -25 -19 -54 -25 -65 -7 -11
-18 -38 -25 -60 -7 -22 -18 -45 -25 -51 -7 -7 -31 -70 -54 -141 -24 -70 -46
-132 -50 -138 -4 -5 -13 -30 -20 -55 -7 -25 -19 -58 -27 -75 -7 -16 -21 -61
-30 -100 -9 -38 -23 -82 -30 -97 -22 -43 -64 -178 -80 -258 -9 -41 -19 -79
-24 -85 -4 -5 -15 -48 -25 -94 -9 -47 -21 -94 -27 -105 -6 -11 -15 -47 -19
-81 -4 -33 -12 -78 -18 -100 -25 -96 -63 -279 -81 -385 -10 -63 -27 -152 -39
-198 -19 -75 -25 -117 -36 -252 -2 -25 -13 -101 -25 -170 -21 -124 -25 -159
-34 -295 -3 -38 -7 -97 -10 -130 -3 -33 -8 -96 -11 -140 -4 -44 -8 -93 -10
-110 -2 -16 -7 -120 -10 -230 -4 -110 -11 -213 -15 -230 -14 -50 -25 -241 -23
-407 1 -87 0 -158 -3 -158 -2 0 -16 24 -29 52 -14 29 -43 68 -65 86 -39 32
-41 33 -92 22 -29 -6 -102 -20 -163 -30 -212 -35 -274 -90 -262 -228 7 -68 59
-289 77 -322 5 -9 16 -54 25 -101 10 -46 21 -88 25 -94 7 -11 31 -104 50 -200
15 -72 40 -174 48 -195 3 -8 16 -60 28 -115 39 -177 102 -387 120 -400 11 -7
15 -19 11 -31 -25 -79 -46 -163 -47 -184 0 -15 -4 -30 -9 -35 -15 -16 -32
-215 -37 -415 -4 -186 15 -423 37 -445 5 -5 9 -24 9 -41 0 -18 5 -36 10 -39 5
-3 10 -19 10 -34 0 -37 55 -222 113 -381 19 -52 41 -115 48 -140 27 -98 200
-430 285 -550 50 -69 136 -150 160 -150 7 0 21 -10 31 -23 32 -38 182 -127
216 -127 15 0 27 -20 27 -46 0 -30 74 -171 121 -230 91 -115 187 -170 303
-175 48 -2 56 -5 50 -18 -12 -27 -32 -163 -29 -196 2 -16 -3 -57 -10 -90 -20
-94 -29 -580 -15 -791 12 -180 25 -263 55 -364 9 -30 25 -98 36 -150 10 -52
25 -108 33 -125 7 -16 19 -46 26 -65 13 -35 40 -100 65 -155 8 -16 28 -65 44
-108 30 -77 103 -212 118 -219 5 -1 16 -19 26 -38 9 -19 44 -75 77 -125 33
-49 64 -100 70 -113 14 -32 48 -79 103 -142 26 -30 61 -71 77 -90 38 -44 119
-136 190 -214 31 -34 69 -79 85 -101 17 -22 38 -46 47 -53 10 -7 18 -17 18
-22 0 -9 32 -44 179 -192 58 -60 110 -108 114 -108 4 0 25 -16 45 -36 20 -20
48 -44 62 -52 14 -9 52 -37 85 -63 94 -73 285 -198 481 -314 98 -59 199 -122
224 -140 25 -18 60 -40 78 -49 18 -9 41 -25 51 -35 24 -24 179 -116 286 -170
22 -12 47 -25 55 -30 8 -5 58 -31 110 -56 52 -26 115 -57 140 -70 80 -41 214
-103 240 -110 14 -4 34 -13 45 -20 12 -7 70 -29 129 -49 60 -20 123 -43 140
-51 63 -29 182 -77 216 -86 19 -5 46 -16 60 -23 21 -11 103 -37 285 -88 22 -6
45 -15 50 -18 6 -4 28 -13 50 -20 22 -7 64 -23 93 -36 29 -13 58 -24 65 -24 7
0 61 -20 121 -45 62 -25 141 -49 184 -55 42 -7 85 -18 96 -26 12 -7 46 -18 76
-24 30 -6 71 -17 90 -25 19 -7 62 -18 95 -25 33 -6 98 -20 145 -31 133 -31
163 -38 195 -43 17 -2 91 -20 165 -40 74 -19 169 -38 210 -42 41 -3 111 -16
155 -29 76 -23 107 -28 255 -40 36 -3 76 -10 90 -14 36 -13 147 -29 285 -41
66 -7 139 -16 163 -21 23 -5 95 -12 160 -15 64 -3 154 -9 200 -15 120 -14 215
-20 667 -40 132 -5 305 -13 385 -17 197 -8 416 -8 650 1 186 8 463 32 504 44
11 3 49 6 85 8 65 2 196 24 296 50 28 7 82 13 120 14 39 1 102 8 140 16 90 17
280 61 324 74 18 6 86 18 150 27 64 9 120 20 126 25 5 5 19 9 31 9 21 0 62 15
129 45 17 8 53 19 80 25 27 6 54 15 60 19 5 5 39 15 75 24 216 50 300 77 455
142 61 26 133 55 161 65 28 10 59 23 70 29 22 12 184 66 229 75 17 4 53 18 80
31 28 12 73 33 100 45 28 12 100 47 161 76 62 30 116 54 121 54 5 0 54 22 109
48 54 27 115 55 134 62 19 7 40 17 45 21 6 4 33 15 60 24 28 10 57 23 66 31 8
8 20 14 26 14 14 0 144 69 168 89 11 9 31 23 45 30 14 6 51 31 83 54 31 23 93
67 137 97 45 30 91 64 104 75 13 11 62 45 110 75 119 74 251 183 250 203 -2
15 14 16 180 10 99 -3 204 -7 231 -7 90 -1 510 15 528 21 30 8 64 11 202 18
149 7 245 21 323 46 52 16 159 70 181 90 10 9 31 24 47 32 75 39 268 246 346
372 58 92 135 247 164 328 39 109 84 257 84 276 0 9 9 43 19 76 10 33 22 89
26 125 4 36 12 76 18 90 5 14 13 61 18 105 4 44 11 106 15 138 6 50 4 62 -15
87 -11 16 -21 35 -21 42 0 23 -47 113 -69 132 -11 11 -21 23 -21 28 0 18 -173
198 -249 259 -42 34 -99 85 -126 113 -68 68 -97 93 -180 151 -39 26 -94 67
-124 89 -29 23 -70 52 -90 66 -20 14 -44 32 -54 41 -10 9 -58 38 -107 65 l-90
48 -1 46 c0 53 -11 112 -33 193 -9 32 -16 73 -16 92 0 18 -4 44 -9 57 -5 13
-18 82 -31 153 -12 72 -28 149 -36 173 -19 59 -18 95 6 122 11 13 20 27 20 32
0 5 16 29 35 52 19 24 35 48 35 55 0 6 4 11 8 11 4 0 13 12 19 28 7 15 37 65
67 112 155 244 145 226 186 310 18 36 40 81 50 100 27 53 90 188 90 193 0 3
12 31 27 63 14 33 28 64 29 69 1 6 12 35 25 65 35 88 37 93 50 135 6 22 15 45
19 50 4 6 17 39 29 75 12 36 26 74 31 85 5 11 14 38 21 60 14 49 41 126 78
225 16 41 33 93 39 115 5 22 15 54 20 70 6 17 18 57 27 90 10 33 25 85 35 115
10 30 24 75 30 100 6 25 15 54 19 65 5 11 14 51 21 89 6 38 16 79 23 90 6 12
12 26 14 31 1 6 9 37 18 70 18 65 40 169 49 226 3 20 10 49 16 65 12 29 47
183 55 239 2 17 11 80 19 140 8 61 20 135 26 165 25 118 28 137 29 209 1 41 3
77 5 80 2 3 7 51 11 106 4 55 11 105 17 112 5 7 8 22 7 35 -1 13 1 52 4 88 25
239 26 818 2 1310 -5 102 -6 107 -34 280 -10 63 -19 140 -20 170 -1 30 -6 59
-12 65 -5 5 -9 25 -9 45 0 52 -28 259 -50 375 -11 55 -25 127 -31 160 -7 33
-16 65 -20 71 -5 6 -15 43 -24 83 -8 40 -19 80 -24 89 -4 9 -13 40 -20 67 -6
28 -22 86 -35 130 -13 44 -28 100 -35 125 -35 136 -53 198 -67 227 -8 17 -17
46 -20 65 -3 18 -16 56 -29 83 -12 28 -25 61 -29 75 -4 14 -11 34 -16 45 -5
11 -23 62 -40 113 -31 92 -31 93 -11 110 18 16 121 177 121 189 0 3 13 33 28
67 53 114 63 141 84 236 15 65 22 129 22 200 -1 99 -3 122 -20 224 -14 85 -91
203 -167 255 -62 42 -146 85 -197 100 -25 7 -50 17 -57 22 -8 7 -10 50 -6 147
6 186 -29 573 -66 727 -11 44 -27 121 -36 170 -9 50 -23 106 -30 125 -44 117
-55 168 -44 196 10 29 13 232 2 289 -2 17 -7 48 -10 70 -2 22 -8 49 -13 60 -5
11 -14 40 -21 65 -6 25 -14 50 -19 55 -4 6 -13 27 -19 48 -7 20 -17 37 -22 37
-5 0 -9 8 -9 18 -1 9 -12 35 -25 57 -14 22 -28 47 -32 55 -4 8 -11 20 -15 25
-4 6 -44 59 -89 120 -44 60 -101 132 -126 160 -24 27 -60 67 -79 88 -19 21
-34 42 -34 47 0 6 -5 10 -10 10 -6 0 -43 32 -82 70 -40 39 -75 70 -79 70 -5 0
-18 11 -31 23 -13 13 -78 67 -145 121 -68 53 -123 100 -123 105 0 7 -155 131
-165 131 -6 0 -106 71 -123 87 -7 7 -18 13 -24 13 -10 0 -115 74 -128 90 -8
10 -194 122 -270 163 -49 26 -65 36 -153 95 -43 28 -82 52 -87 52 -4 0 -13 6
-19 14 -7 8 -23 17 -36 20 -22 6 -82 41 -112 66 -7 5 -17 10 -22 10 -5 0 -17
8 -26 17 -24 23 -105 66 -245 130 -83 37 -152 74 -179 95 -13 10 -29 18 -36
18 -7 0 -17 6 -23 13 -11 12 -215 119 -292 152 -19 8 -42 19 -50 25 -24 16
-123 58 -155 66 -17 4 -41 12 -55 19 -47 23 -175 83 -245 114 -38 18 -81 38
-95 45 -14 8 -50 21 -81 30 -31 9 -69 23 -85 31 -16 8 -32 15 -37 15 -4 0 -29
9 -55 21 -26 12 -56 24 -67 29 -11 4 -41 17 -66 28 -25 12 -54 23 -65 25 -10
2 -26 6 -34 9 -8 3 -49 15 -90 28 -41 12 -127 40 -190 62 -63 22 -155 48 -204
59 -48 10 -109 26 -135 35 -25 9 -68 22 -96 29 -175 46 -212 55 -230 55 -12 0
-25 4 -30 9 -10 8 -151 37 -225 45 -20 3 -47 9 -60 14 -14 6 -70 18 -125 27
-55 9 -108 21 -117 26 -10 5 -30 9 -46 9 -28 0 -214 26 -262 36 -14 3 -38 8
-55 11 -16 2 -64 10 -105 18 -41 7 -104 14 -140 15 -81 3 -108 6 -140 13 -14
3 -54 9 -90 12 -36 2 -90 9 -120 14 -30 5 -149 10 -265 12 -115 1 -214 4 -218
7 -28 14 -466 20 -488 6 -20 -12 -30 -12 -329 -14 -151 -1 -295 -6 -320 -10
-25 -5 -70 -12 -100 -15 -109 -12 -119 -13 -131 -21 -7 -4 -27 -8 -43 -9 -149
-9 -343 -28 -351 -35 -5 -4 -51 -10 -102 -14 -50 -4 -104 -11 -120 -15 -15 -5
-62 -16 -103 -25 -118 -26 -164 -38 -176 -48 -10 -7 -59 -20 -173 -44 -14 -3
-29 -8 -35 -11 -5 -4 -28 -10 -50 -15 -80 -16 -92 -19 -164 -44 -40 -13 -80
-24 -88 -24 -9 0 -30 -6 -47 -14 -18 -7 -63 -21 -102 -31 -38 -9 -79 -20 -90
-25 -11 -5 -47 -17 -80 -26 -71 -21 -66 -19 -85 -27 -8 -3 -46 -15 -85 -28
-38 -12 -74 -25 -80 -29 -5 -4 -28 -13 -50 -20 -22 -7 -47 -18 -55 -25 -8 -7
-33 -18 -54 -25 -22 -7 -65 -26 -97 -41 -96 -48 -96 -48 -165 131 -16 41 -41
97 -56 125 -15 27 -66 127 -113 220 -47 94 -90 177 -95 185 -78 136 -120 213
-120 224 0 6 -4 16 -10 22 -5 5 -37 63 -70 128 -33 64 -69 129 -80 143 -11 14
-20 29 -20 34 0 4 -19 40 -43 81 -23 40 -48 87 -56 103 -7 17 -17 37 -22 45
-5 8 -25 46 -44 84 -19 38 -41 77 -49 85 -12 15 -56 93 -101 181 -10 19 -22
42 -27 50 -4 8 -14 26 -21 40 -6 14 -31 56 -54 95 -24 38 -43 75 -43 83 0 7 9
33 20 58 11 24 23 58 27 74 3 17 10 33 14 36 5 3 9 12 9 21 0 8 6 29 14 46 7
18 28 75 46 127 18 52 45 121 61 154 16 32 29 64 29 71 0 7 6 26 14 42 8 15
18 39 24 53 5 14 16 41 24 60 9 19 19 51 23 70 4 19 11 40 15 45 4 6 14 28 23
50 8 23 33 79 55 125 23 47 66 150 97 229 31 79 76 185 99 235 24 50 60 132
81 181 20 50 63 144 96 210 32 66 81 181 109 255 28 74 65 164 82 200 60 127
86 186 104 235 10 28 40 93 66 145 26 52 48 98 48 103 0 4 11 30 24 57 14 28
28 65 32 83 3 17 10 38 15 47 5 8 20 51 35 95 14 44 41 118 61 165 19 47 42
101 50 120 8 19 18 44 23 55 5 11 25 70 46 130 20 61 48 133 61 162 12 28 23
58 23 67 0 8 5 18 11 21 10 7 37 63 73 155 10 25 22 54 27 65 5 11 17 52 28
90 10 39 48 138 83 220 35 83 73 182 83 220 10 39 23 76 28 84 15 19 14 146
-1 164 -29 35 -307 187 -432 237 -25 10 -82 37 -127 59 -46 23 -88 41 -93 41
-12 0 -125 50 -181 80 -20 11 -41 20 -47 20 -6 0 -57 22 -114 50 -57 27 -109
50 -116 50 -14 0 -62 22 -299 136 -234 113 -322 153 -383 176 -30 11 -62 27
-71 34 -8 8 -22 14 -30 14 -7 0 -36 11 -64 24 -55 27 -90 43 -307 140 -80 36
-204 93 -275 127 -236 113 -328 156 -363 169 -19 7 -53 21 -75 30 -128 55
-213 93 -235 104 -14 8 -43 19 -65 26 -22 7 -51 19 -65 26 -14 7 -90 41 -170
74 -154 65 -186 79 -291 128 -36 17 -88 40 -116 51 -28 11 -70 29 -94 40 -61
28 -242 101 -250 101 -4 0 -20 5 -36 11 -73 30 -307 117 -378 140 -33 11 -74
26 -92 34 -17 8 -34 15 -37 15 -3 0 -30 11 -60 25 -30 14 -57 25 -60 25 -3 0
-29 11 -58 24 -29 13 -82 36 -118 51 -36 15 -89 38 -118 51 -29 13 -55 24 -58
24 -3 0 -33 11 -67 24 -34 14 -105 41 -157 61 -52 20 -108 43 -125 50 -16 7
-52 21 -80 30 -27 10 -69 26 -92 36 -24 11 -46 19 -50 19 -5 1 -26 9 -48 20
-22 11 -43 19 -47 20 -4 0 -40 15 -80 34 -107 49 -147 65 -201 76 -27 6 -58
17 -70 24 -44 27 -74 28 -105 1z m9280 -9146 c9 -5 104 -10 210 -11 121 -1
243 -8 328 -19 74 -10 191 -23 260 -29 170 -14 303 -32 317 -42 6 -5 72 -16
145 -25 73 -9 142 -19 153 -23 11 -5 54 -13 95 -20 41 -6 107 -20 145 -30 39
-11 108 -26 155 -34 130 -24 308 -64 322 -73 14 -8 142 -43 273 -73 96 -22
246 -69 261 -81 5 -4 35 -15 65 -23 30 -8 74 -21 99 -29 25 -9 74 -23 108 -32
35 -9 71 -20 80 -24 82 -42 304 -131 325 -131 9 0 37 -11 64 -24 26 -14 60
-27 75 -31 15 -4 32 -13 39 -21 6 -8 18 -14 27 -14 8 0 29 -9 46 -20 18 -10
84 -40 147 -65 160 -63 210 -85 239 -105 8 -5 78 -40 155 -76 139 -66 194
-101 144 -90 -106 23 -236 46 -294 52 -38 3 -74 10 -80 14 -15 11 -60 19 -149
25 -43 3 -82 7 -85 10 -4 2 -38 6 -76 9 -39 3 -126 10 -195 16 -252 21 -431
41 -458 53 -20 8 -147 11 -463 10 -384 -1 -544 -8 -639 -28 -14 -3 -104 -12
-200 -20 -96 -9 -184 -19 -195 -24 -20 -9 -66 -16 -315 -46 -151 -19 -291 -44
-305 -54 -5 -5 -46 -14 -90 -20 -44 -7 -98 -17 -120 -23 -22 -6 -47 -12 -55
-13 -65 -9 -193 -35 -203 -42 -6 -4 -18 -8 -27 -9 -8 -2 -33 -8 -55 -14 -22
-6 -56 -15 -75 -20 -19 -5 -53 -15 -75 -23 -40 -15 -112 -32 -281 -67 -51 -10
-100 -23 -110 -28 -11 -6 -48 -18 -84 -28 -36 -10 -69 -21 -75 -24 -5 -4 -23
-10 -40 -14 -25 -5 -167 -57 -240 -87 -57 -24 -214 -79 -224 -79 -6 0 -19 -4
-29 -9 -31 -16 -66 -30 -117 -46 -27 -9 -54 -20 -60 -25 -5 -4 -30 -14 -55
-21 -25 -7 -51 -17 -59 -23 -18 -14 -81 -36 -103 -36 -10 0 -18 -4 -18 -9 0
-5 -26 -19 -57 -31 -32 -12 -63 -26 -69 -31 -6 -5 -29 -15 -50 -23 -61 -21
-281 -123 -406 -187 -31 -16 -66 -29 -77 -29 -11 0 -22 -4 -26 -9 -3 -6 -54
-34 -113 -64 -59 -29 -116 -58 -127 -64 -11 -6 -63 -32 -115 -56 -190 -90
-226 -108 -276 -136 -28 -15 -59 -31 -70 -35 -10 -4 -45 -21 -77 -39 -97 -54
-405 -207 -416 -207 -10 0 -68 -25 -176 -75 -16 -8 -68 -26 -115 -41 -47 -14
-94 -30 -105 -34 -11 -5 -38 -12 -60 -15 -21 -4 -51 -13 -65 -20 -14 -7 -54
-16 -90 -19 -87 -9 -170 -25 -195 -37 -36 -16 -128 -25 -205 -18 -41 4 -104 9
-141 12 -36 3 -108 12 -160 21 -51 8 -121 18 -154 22 -74 9 -77 9 -144 23 -30
6 -79 13 -110 16 -31 3 -68 8 -83 11 -15 3 -110 6 -211 6 -193 0 -376 -14
-492 -37 -38 -7 -108 -21 -155 -30 -47 -9 -107 -23 -135 -30 -27 -8 -77 -17
-110 -20 -33 -4 -73 -13 -90 -20 -16 -7 -52 -16 -80 -20 -27 -4 -70 -15 -95
-25 -25 -11 -74 -26 -110 -35 -36 -9 -69 -20 -74 -25 -6 -6 -19 -10 -31 -10
-23 -1 -133 -36 -149 -49 -6 -4 -28 -11 -49 -14 -21 -3 -61 -17 -90 -31 -29
-13 -66 -28 -82 -32 -30 -7 -185 -75 -257 -113 -21 -11 -38 -16 -38 -13 0 19
98 120 456 477 394 393 460 456 640 607 100 83 372 291 474 361 30 21 96 67
145 102 50 35 121 82 159 105 38 23 93 58 124 78 30 21 62 42 71 47 9 6 27 17
41 26 14 9 68 43 120 75 52 32 101 65 109 72 7 7 29 21 50 31 20 11 109 65
199 120 90 56 169 101 176 101 7 0 32 -15 56 -32 24 -18 50 -37 59 -43 9 -5
63 -44 121 -85 106 -76 230 -161 330 -227 30 -20 86 -57 123 -82 81 -55 136
-89 157 -98 8 -4 33 -21 56 -40 23 -18 45 -33 50 -33 13 0 93 -42 141 -74 35
-24 50 -28 84 -23 99 13 143 79 136 203 -5 103 -23 160 -124 396 -26 62 -48
118 -48 124 0 6 -6 18 -12 25 -10 13 -19 40 -27 89 -1 8 -8 28 -14 43 -7 16
-12 30 -12 32 0 3 -45 106 -75 170 -7 17 -23 56 -34 87 l-20 57 77 36 c127 60
133 63 254 110 65 25 123 45 131 45 7 0 30 9 52 20 22 11 46 20 54 20 8 0 40
9 70 19 31 11 80 24 109 31 28 7 54 16 57 20 3 5 24 11 48 15 45 7 99 21 132
35 11 4 58 18 105 29 47 12 132 35 190 51 58 16 143 38 190 50 47 12 92 25
100 30 34 17 194 39 475 65 155 15 195 21 355 51 50 10 178 16 383 20 170 3
318 9 330 13 30 11 458 11 479 0z m3548 -1274 c80 -2 183 -11 230 -19 47 -8
114 -17 150 -21 36 -3 97 -15 135 -25 39 -10 90 -21 115 -25 43 -6 87 -17 190
-46 25 -7 54 -13 65 -14 32 -2 87 -21 200 -69 17 -8 45 -17 62 -20 18 -4 35
-12 38 -17 4 -5 16 -9 29 -9 12 0 27 -5 34 -12 13 -13 21 -15 102 -27 34 -5
79 -22 120 -46 36 -20 106 -59 155 -85 50 -26 110 -59 135 -74 25 -14 86 -48
135 -76 50 -28 119 -69 154 -90 34 -22 66 -40 69 -40 3 0 14 -8 24 -17 11 -10
34 -26 53 -38 277 -167 556 -418 770 -690 142 -180 143 -183 208 -317 69 -141
78 -175 86 -321 8 -150 -2 -184 -94 -302 -80 -105 -129 -155 -170 -174 -17 -7
-39 -18 -50 -24 -11 -5 -41 -16 -68 -23 l-48 -12 -28 38 c-15 21 -57 71 -93
110 -36 39 -87 110 -113 156 -26 46 -50 84 -54 84 -3 0 -15 15 -26 32 -11 18
-27 42 -35 53 -8 12 -31 44 -50 72 -54 77 -172 226 -192 241 -10 7 -18 18 -18
23 0 12 -41 51 -170 164 -52 45 -106 93 -120 106 -27 25 -237 169 -246 169 -4
0 -26 14 -51 30 -24 17 -47 30 -50 30 -4 0 -14 6 -22 14 -29 25 -130 75 -182
90 -28 9 -57 20 -63 25 -6 5 -72 25 -146 46 -74 20 -148 43 -165 51 -62 28
-320 89 -414 98 -31 3 -72 10 -91 15 -42 13 -289 47 -400 55 -25 2 -85 9 -135
15 -90 11 -205 23 -410 42 -216 19 -1087 12 -1175 -11 -19 -5 -78 -10 -130
-11 -52 -1 -129 -7 -170 -14 -41 -8 -122 -17 -180 -20 -58 -4 -109 -11 -115
-15 -11 -8 -46 -14 -182 -32 -51 -7 -93 -15 -93 -20 0 -4 -12 -8 -27 -9 -16 0
-59 -9 -98 -19 -38 -11 -117 -29 -175 -40 -58 -11 -112 -24 -120 -29 -9 -5
-31 -12 -50 -16 -44 -9 -102 -27 -115 -36 -6 -4 -48 -15 -95 -24 -47 -9 -94
-20 -105 -25 -11 -5 -40 -14 -65 -20 -25 -7 -67 -22 -95 -35 -27 -13 -72 -26
-100 -30 -27 -4 -58 -13 -68 -20 -10 -7 -26 -11 -37 -8 -10 3 -21 0 -24 -6 -4
-6 -17 -11 -28 -11 -12 0 -40 -9 -62 -19 -66 -31 -174 -66 -296 -96 -30 -7
-86 -25 -125 -40 -70 -26 -200 -68 -330 -107 -38 -11 -74 -24 -80 -28 -5 -4
-35 -15 -65 -25 -30 -9 -73 -25 -95 -35 -22 -10 -55 -21 -72 -25 -18 -4 -35
-11 -38 -16 -4 -5 -14 -9 -25 -9 -19 0 -231 -87 -240 -99 -5 -7 -166 -80 -260
-118 -48 -20 -150 -74 -212 -113 -35 -22 -76 -47 -93 -55 -16 -9 -57 -31 -90
-50 -33 -18 -88 -48 -123 -65 -73 -36 -155 -84 -194 -114 -14 -12 -45 -32 -68
-46 -23 -14 -54 -35 -69 -48 -14 -12 -40 -29 -57 -37 -17 -8 -37 -21 -44 -30
-7 -8 -16 -15 -21 -15 -5 0 -59 -34 -120 -75 -61 -41 -114 -75 -118 -75 -7 0
-17 -7 -66 -48 -6 -5 -47 -37 -91 -70 -95 -73 -175 -141 -264 -226 -36 -34
-112 -104 -170 -156 -197 -176 -309 -282 -553 -524 -150 -148 -202 -186 -256
-186 -34 0 -80 35 -101 77 -8 15 -36 55 -62 89 -74 98 -97 151 -104 246 -7 92
-4 102 74 233 59 98 238 303 306 349 12 8 57 47 101 86 44 40 105 90 135 111
105 73 337 244 404 298 38 30 81 64 97 75 65 48 315 237 329 248 15 14 44 32
70 45 59 28 267 161 395 252 81 58 188 123 295 179 174 91 208 111 251 141 99
73 419 241 457 241 7 0 12 4 12 9 0 5 17 16 38 25 33 14 119 60 177 94 11 6
45 22 75 36 30 13 76 34 102 45 26 12 49 21 52 21 3 0 34 13 68 29 35 15 73
31 86 35 12 4 22 12 22 17 0 5 9 9 19 9 11 0 22 4 25 9 3 5 18 12 33 16 16 3
42 12 58 19 35 14 155 57 170 60 6 1 15 4 20 8 9 5 157 64 235 93 19 7 60 18
90 25 30 7 114 32 185 55 121 40 159 51 210 61 11 2 29 8 40 13 30 13 130 41
148 41 8 0 17 4 19 8 2 4 41 17 88 29 47 12 99 26 115 31 17 6 50 16 75 22 25
7 56 18 70 25 14 7 43 16 65 20 33 6 148 36 325 87 48 13 164 41 285 67 55 12
109 26 120 31 11 4 27 9 35 9 49 1 202 24 240 35 25 8 83 17 130 21 47 4 132
13 190 22 58 8 157 18 220 23 63 5 126 11 140 15 14 3 91 10 170 16 80 5 170
11 200 14 30 2 176 6 324 9 148 3 271 8 273 10 3 3 92 1 393 -9z m-630 -1049
c100 -6 106 -6 123 -5 48 2 409 -30 452 -41 22 -5 73 -14 112 -20 40 -5 94
-18 120 -29 27 -10 91 -26 143 -35 52 -10 104 -21 115 -26 11 -4 56 -15 100
-24 91 -19 175 -41 255 -66 30 -10 78 -23 105 -30 117 -29 344 -131 490 -220
73 -44 276 -212 370 -306 123 -123 241 -251 275 -297 19 -26 55 -74 80 -106
25 -32 67 -89 94 -127 26 -38 72 -98 101 -134 30 -36 55 -70 55 -76 0 -6 8
-22 19 -35 16 -21 36 -54 75 -124 6 -11 23 -38 38 -60 27 -42 39 -64 88 -160
16 -33 40 -78 53 -100 144 -254 166 -295 230 -420 27 -52 55 -99 63 -106 8 -6
14 -19 14 -28 0 -9 11 -33 25 -53 14 -20 25 -42 25 -47 0 -6 14 -32 30 -58 17
-26 30 -53 30 -60 0 -7 5 -13 10 -13 6 0 10 -5 10 -11 0 -5 26 -65 59 -132
105 -218 153 -321 166 -358 7 -20 17 -45 22 -55 17 -33 65 -138 73 -159 5 -11
40 -92 79 -179 39 -88 71 -165 71 -173 0 -7 4 -21 10 -31 17 -31 39 -86 65
-162 14 -41 30 -83 35 -92 6 -10 10 -23 10 -30 0 -7 7 -26 16 -43 8 -16 31
-79 50 -140 19 -60 42 -130 51 -155 8 -25 23 -76 33 -115 10 -38 25 -90 33
-115 8 -25 18 -65 22 -89 4 -24 13 -58 21 -76 21 -52 96 -328 119 -445 21
-101 52 -322 75 -535 7 -60 16 -118 22 -128 5 -9 11 -43 13 -75 2 -31 8 -103
14 -160 5 -57 10 -181 11 -275 0 -95 3 -185 6 -202 11 -68 13 -108 13 -278 1
-101 -3 -187 -9 -197 -6 -10 -10 -94 -10 -187 0 -92 -4 -202 -10 -243 -22
-163 -31 -250 -40 -370 -5 -69 -16 -161 -24 -205 -18 -92 -30 -166 -52 -320
-9 -60 -20 -115 -25 -120 -7 -10 -40 -159 -59 -266 -11 -61 -30 -132 -40 -144
-7 -9 -21 -56 -25 -80 -5 -36 -19 -92 -25 -100 -4 -5 -10 -31 -13 -56 -4 -26
-20 -86 -36 -135 -27 -81 -64 -203 -93 -309 -7 -22 -15 -44 -18 -50 -4 -5 -10
-21 -13 -35 -5 -26 -21 -72 -42 -125 -7 -16 -16 -48 -20 -70 -4 -21 -14 -53
-22 -70 -9 -16 -20 -43 -24 -60 -7 -27 -46 -128 -69 -180 -5 -11 -19 -51 -31
-90 -12 -38 -35 -95 -51 -127 -15 -31 -28 -59 -28 -62 0 -20 -208 -444 -227
-464 -7 -7 -13 -18 -13 -24 0 -6 -8 -20 -17 -31 -10 -10 -29 -38 -43 -62 -14
-24 -42 -72 -62 -107 -91 -159 -194 -312 -280 -417 -51 -62 -104 -133 -118
-156 -14 -24 -52 -76 -85 -117 -66 -80 -105 -135 -105 -147 0 -4 -37 -52 -82
-107 -46 -55 -95 -116 -111 -136 -15 -20 -56 -66 -90 -102 -35 -35 -79 -85
-98 -111 -19 -26 -72 -89 -119 -142 -46 -52 -102 -117 -123 -145 -20 -28 -58
-71 -83 -96 -25 -24 -68 -72 -94 -106 -27 -33 -61 -72 -77 -86 -15 -14 -64
-59 -109 -100 -112 -105 -153 -141 -199 -175 -22 -16 -70 -54 -107 -85 -36
-30 -81 -65 -100 -77 -18 -13 -60 -40 -93 -62 -33 -22 -79 -55 -103 -73 -24
-18 -67 -46 -97 -63 -29 -16 -79 -48 -111 -70 -33 -22 -64 -42 -69 -45 -6 -3
-36 -22 -66 -42 -31 -21 -59 -38 -63 -38 -4 0 -28 -14 -53 -31 -57 -39 -271
-149 -290 -149 -8 0 -26 -9 -40 -20 -14 -11 -33 -20 -43 -20 -10 0 -28 -8 -41
-18 -13 -10 -69 -35 -124 -56 -55 -22 -119 -47 -142 -57 -24 -11 -49 -19 -56
-19 -7 0 -28 -9 -48 -19 -20 -11 -56 -25 -80 -31 -24 -7 -57 -17 -74 -24 -16
-7 -57 -21 -90 -31 -33 -10 -65 -23 -72 -28 -7 -5 -47 -17 -90 -27 -92 -21
-222 -59 -243 -70 -9 -4 -49 -13 -90 -20 -41 -7 -81 -18 -88 -24 -8 -5 -21
-11 -30 -12 -105 -13 -196 -27 -237 -38 -27 -8 -106 -22 -175 -31 -69 -9 -169
-25 -222 -36 -53 -10 -115 -19 -138 -19 -22 0 -84 -7 -138 -16 -130 -21 -123
-20 -237 -37 -55 -9 -118 -18 -140 -22 -95 -15 -147 -17 -461 -16 -311 1 -388
4 -441 15 -12 2 -93 10 -180 16 -87 6 -189 16 -228 21 -38 6 -108 12 -155 15
-47 2 -121 9 -165 15 -44 5 -91 12 -105 13 -14 2 -50 8 -80 15 -30 6 -91 18
-135 26 -44 9 -100 22 -125 30 -25 8 -81 19 -125 25 -73 11 -237 58 -276 79
-9 5 -56 17 -105 26 -49 9 -94 21 -100 25 -6 5 -37 18 -70 29 -147 49 -207 71
-290 109 -49 22 -105 43 -124 47 -19 4 -39 11 -45 15 -5 4 -23 10 -40 14 -30
7 -146 63 -280 135 -181 97 -309 161 -323 161 -9 0 -23 6 -31 14 -9 8 -63 40
-121 72 -58 31 -131 76 -164 98 -85 59 -112 78 -201 135 -22 14 -70 49 -107
76 -36 28 -91 68 -121 90 -30 22 -88 66 -128 98 -41 32 -108 84 -150 115 -125
94 -239 182 -334 260 -49 40 -132 108 -184 150 -52 42 -117 98 -145 124 -28
26 -57 48 -64 48 -7 0 -15 6 -18 14 -3 7 -49 50 -102 94 -53 45 -122 104 -152
132 -30 27 -58 50 -62 50 -4 0 -18 9 -30 19 -58 48 -232 188 -251 201 -79 54
-346 306 -851 805 -178 176 -355 350 -392 386 -79 76 -243 252 -300 320 -22
26 -57 69 -80 95 -22 27 -54 69 -70 94 -49 76 -136 191 -201 268 l-63 73 1 72
c1 39 -3 104 -9 142 -5 39 -11 117 -12 175 -1 57 -4 108 -6 112 -3 5 -8 30
-11 56 -2 26 -8 52 -13 57 -4 6 -11 46 -14 90 -7 92 -25 203 -37 226 -6 12
-34 174 -43 249 -1 8 -12 47 -24 86 -13 40 -24 83 -26 95 -1 13 -8 37 -14 52
-7 16 -12 38 -12 50 -1 35 -28 139 -39 150 -6 6 -11 19 -11 29 0 16 -7 35 -52
134 -10 22 -18 48 -18 56 0 22 -60 177 -71 184 -5 3 -9 18 -9 33 0 45 42 295
68 406 5 22 15 74 22 115 7 41 17 80 21 85 4 6 12 37 19 70 25 123 102 344
169 487 27 57 36 85 28 90 -26 16 4 18 48 4 35 -12 51 -13 66 -5 12 6 33 13
47 15 37 7 152 139 152 174 0 6 19 46 42 88 45 85 56 107 164 328 41 83 74
154 74 158 0 4 20 49 45 102 25 52 45 100 45 107 0 7 9 30 19 50 11 21 27 60
37 87 10 28 22 50 28 50 5 0 7 2 4 6 -8 7 93 203 139 271 10 15 29 48 41 73
13 25 36 68 52 95 28 48 79 151 123 245 11 25 32 63 47 85 15 22 29 45 31 50
2 6 31 50 64 98 92 135 196 310 210 356 4 13 22 45 40 70 17 25 40 60 51 77
19 31 102 145 126 174 31 36 111 148 125 174 21 40 96 140 157 210 28 32 60
70 71 84 11 14 34 42 50 61 17 20 55 68 85 106 30 39 89 106 132 151 43 44
107 119 143 165 36 46 92 113 124 149 33 36 69 77 80 91 l21 27 53 -28 c29
-15 66 -26 82 -25 36 2 96 15 110 23 6 4 15 7 21 8 10 2 28 13 121 75 20 13
224 219 259 261 9 11 53 51 198 183 6 6 45 42 86 80 42 39 122 111 180 160 57
50 162 143 234 208 71 65 143 126 158 135 15 9 28 20 28 24 0 4 4 8 9 8 6 0
39 20 75 45 37 25 68 45 71 45 3 0 34 19 69 43 36 23 94 60 130 82 37 22 109
70 161 108 52 37 97 67 100 67 3 0 28 16 56 35 28 19 56 35 63 35 14 0 146 67
166 84 8 7 36 23 62 35 26 12 63 35 84 52 20 16 41 29 47 29 6 0 24 10 41 23
36 27 111 63 211 102 39 14 130 55 203 91 72 35 136 64 141 64 5 0 22 6 38 14
15 8 51 22 78 30 117 36 181 59 195 71 8 7 40 18 70 26 30 7 62 18 70 24 8 7
40 17 70 24 30 6 67 17 81 25 14 7 43 16 64 20 21 4 57 16 79 26 53 23 148 53
261 81 50 12 99 28 110 35 11 6 36 15 55 19 19 4 40 11 46 16 6 5 19 10 30 12
10 2 26 7 34 10 8 3 31 8 50 11 49 8 143 37 154 48 6 4 18 8 28 8 11 0 38 9
60 20 23 11 50 20 59 20 10 0 20 4 23 9 3 4 29 11 57 15 28 4 112 26 187 50
161 51 192 60 332 90 58 12 114 27 125 33 29 15 140 34 158 28 8 -4 18 -2 22
4 3 6 18 11 33 11 15 0 48 7 74 14 26 8 93 18 150 21 57 4 132 13 167 21 35 8
113 17 175 19 61 3 134 8 161 12 28 3 102 7 165 9 286 6 473 14 479 19 5 6
130 2 341 -9z m4010 -1538 c0 -22 33 -192 55 -278 7 -30 16 -86 20 -125 4 -38
11 -78 15 -90 4 -11 11 -61 14 -110 4 -50 8 -104 10 -120 2 -17 7 -66 11 -110
3 -44 11 -103 17 -132 6 -28 8 -59 4 -68 -6 -15 -10 -14 -31 11 -29 33 -55 81
-55 101 0 7 -4 13 -9 13 -4 0 -16 51 -25 112 -10 62 -21 119 -26 128 -4 8 -10
44 -14 80 -14 161 -15 167 -61 395 -15 72 -29 144 -32 161 -5 32 10 66 50 111
l20 23 19 -41 c10 -23 18 -50 18 -61z m-11781 -963 c5 -11 12 -38 15 -60 5
-39 2 -45 -77 -141 -45 -55 -90 -109 -100 -119 -10 -9 -43 -52 -74 -94 -31
-42 -66 -86 -77 -98 -47 -50 -58 -62 -89 -106 -18 -25 -62 -78 -97 -118 -36
-40 -80 -95 -99 -123 -18 -28 -57 -76 -86 -106 -28 -30 -69 -80 -90 -110 -22
-30 -67 -89 -101 -130 -35 -41 -80 -100 -101 -131 -21 -31 -60 -81 -88 -110
-94 -102 -208 -242 -265 -328 -32 -47 -73 -97 -91 -111 -58 -43 -119 -80 -132
-80 -7 0 -32 -11 -57 -24 -40 -20 -110 -41 -110 -32 0 8 107 166 149 221 26
33 54 71 63 85 9 14 24 34 34 45 22 24 47 59 126 175 56 83 161 220 236 309
20 24 43 55 51 69 8 15 35 54 60 87 25 33 61 83 80 110 19 28 56 75 83 106 26
31 48 59 48 63 0 3 7 14 15 24 31 35 121 144 148 180 16 20 38 48 50 62 12 14
47 54 76 90 30 36 70 81 90 100 20 19 53 56 74 82 21 26 57 66 80 90 23 24 87
97 142 162 l100 119 3 -69 c1 -38 6 -78 11 -89z m11748 -91 c25 -47 92 -109
139 -129 17 -7 35 -18 38 -24 4 -6 13 -11 20 -11 30 0 260 -122 290 -153 6 -7
24 -36 39 -66 38 -72 55 -251 33 -357 -21 -101 -50 -207 -61 -224 -5 -8 -19
-42 -31 -75 -12 -33 -31 -76 -43 -95 -12 -19 -24 -43 -27 -52 -4 -10 -10 -18
-15 -18 -6 0 -12 8 -16 18 -3 9 -26 59 -50 111 -24 52 -47 107 -50 123 -3 15
-12 33 -19 39 -8 6 -21 35 -30 64 -8 30 -21 59 -29 65 -8 7 -15 18 -15 25 0
12 -22 66 -82 195 -16 36 -39 85 -50 110 -11 25 -33 72 -48 105 -25 53 -29 76
-34 200 -4 77 -9 172 -12 210 l-5 70 18 -45 c10 -25 28 -64 40 -86z m-11652
-116 c17 -22 47 -68 68 -102 l37 -61 -51 -45 c-82 -71 -172 -162 -199 -200
-13 -19 -56 -66 -95 -103 -38 -38 -74 -72 -78 -77 -5 -5 -33 -34 -63 -66 -30
-31 -54 -59 -54 -61 0 -5 -80 -101 -115 -138 -106 -113 -141 -153 -204 -239
-41 -54 -79 -108 -85 -120 -13 -25 -149 -207 -170 -228 -22 -22 -116 -172
-163 -258 -75 -139 -105 -189 -173 -290 -84 -125 -182 -296 -195 -340 -6 -20
-98 -195 -112 -212 -6 -7 -26 -42 -46 -78 -19 -36 -57 -105 -84 -155 -46 -85
-100 -193 -129 -260 -37 -86 -53 -125 -69 -170 -18 -51 -40 -102 -105 -240
-21 -44 -57 -123 -80 -175 -23 -52 -46 -102 -51 -110 -5 -8 -13 -24 -18 -35
-5 -11 -28 -53 -50 -94 -23 -41 -41 -79 -41 -85 0 -24 -66 -116 -87 -122 -12
-3 -23 -12 -25 -19 -5 -19 -145 51 -154 77 -3 11 -29 47 -58 78 -52 59 -141
191 -163 243 -7 15 -39 63 -72 105 -57 75 -60 81 -84 197 -41 191 -41 196 -8
330 41 165 83 259 173 386 18 25 42 59 53 75 35 53 126 164 133 164 4 1 47 39
97 85 49 47 93 85 97 85 3 0 33 17 65 38 72 47 209 117 283 144 30 11 62 26
70 32 22 18 68 36 90 36 10 0 40 11 67 24 26 14 62 28 78 32 17 4 35 10 40 14
6 4 27 13 48 20 94 30 185 81 250 140 37 34 67 68 67 75 0 14 77 112 146 185
23 25 64 73 91 107 26 33 74 92 105 130 32 37 79 98 105 134 60 83 157 206
247 313 38 44 76 92 85 106 16 26 113 147 224 280 52 62 100 130 180 254 7 10
27 35 45 55 33 37 92 144 92 168 0 22 14 14 45 -29z m-2727 -4027 c6 -1 12 -7
12 -14 0 -8 9 -22 20 -32 11 -10 20 -23 20 -30 0 -7 16 -20 35 -31 40 -21 42
-26 16 -62 -10 -15 -22 -38 -26 -52 -4 -14 -14 -34 -21 -45 -8 -11 -14 -27
-14 -35 0 -9 -10 -36 -22 -61 -12 -24 -23 -48 -25 -54 -1 -5 -12 -37 -24 -70
-11 -33 -23 -67 -25 -75 -36 -134 -52 -205 -49 -209 3 -2 1 -9 -4 -15 -5 -6
-14 -38 -20 -71 -7 -33 -18 -82 -26 -110 -24 -91 -47 -268 -47 -371 0 -103 10
-166 69 -429 19 -82 41 -184 50 -225 8 -41 18 -82 21 -90 3 -8 6 -20 7 -25 18
-78 48 -195 56 -214 6 -13 12 -56 15 -95 4 -71 19 -159 34 -206 10 -29 20 -99
25 -174 6 -80 17 -150 25 -166 24 -45 32 -748 11 -865 -6 -33 -16 -103 -22
-155 -6 -59 -18 -110 -31 -135 -11 -22 -23 -58 -25 -80 -3 -22 -16 -61 -30
-86 -26 -49 -135 -187 -162 -205 -37 -25 -194 -105 -202 -102 -5 2 8 21 29 43
49 53 141 241 153 313 5 32 13 72 18 90 5 18 10 33 10 35 0 1 3 10 6 20 14 34
-5 529 -25 667 -5 36 -12 110 -16 165 -3 55 -12 116 -20 135 -7 19 -20 82 -29
140 -16 114 -27 168 -57 275 -11 39 -29 122 -40 185 -11 63 -28 140 -38 170
-10 30 -21 82 -25 115 -4 33 -9 69 -12 80 -2 11 -6 31 -9 44 -15 71 -37 161
-48 196 -8 22 -17 72 -20 110 -4 39 -13 104 -21 145 -22 119 -25 140 -30 230
-4 87 -3 96 35 235 12 44 24 91 27 105 2 14 7 32 10 40 4 8 16 56 28 105 21
83 35 135 95 345 11 41 27 89 34 105 8 17 20 50 26 75 7 25 16 54 21 65 28 67
89 224 94 248 4 15 11 30 16 33 5 3 9 13 9 22 0 9 12 40 25 67 14 28 25 56 25
63 0 7 17 -7 38 -32 20 -24 43 -45 50 -45z m-1821 -161 c13 -36 31 -87 40
-115 8 -27 19 -54 24 -59 5 -6 9 -18 9 -27 0 -10 20 -56 45 -103 24 -47 49
-93 54 -103 30 -59 110 -232 116 -253 3 -14 17 -47 30 -75 13 -27 31 -66 39
-85 9 -19 20 -42 26 -50 5 -8 19 -37 32 -65 12 -27 24 -52 27 -55 4 -3 12 -23
20 -45 18 -52 46 -92 71 -100 43 -14 173 -139 229 -220 23 -33 54 -78 69 -99
50 -72 61 -91 87 -143 15 -29 31 -53 36 -53 5 0 9 -8 9 -17 0 -10 9 -31 21
-48 20 -31 79 -149 79 -161 0 -8 27 -70 46 -106 8 -14 14 -35 14 -47 0 -19 5
-34 36 -106 6 -16 17 -50 24 -74 6 -24 15 -51 20 -60 43 -80 54 -1012 14
-1246 -3 -16 -6 -39 -7 -50 -1 -11 -5 -25 -10 -31 -4 -7 -9 -30 -12 -53 -18
-140 -88 -243 -183 -268 -49 -13 -132 -17 -132 -7 0 3 13 24 29 47 42 61 74
173 87 302 3 33 9 87 14 120 4 33 5 64 3 69 -3 4 -6 81 -8 170 -2 153 -24 382
-46 491 -6 28 -18 100 -28 161 -10 61 -23 119 -29 130 -10 19 -18 62 -28 148
-3 26 -12 67 -19 91 -8 23 -22 80 -31 126 -19 100 -19 99 -29 124 -4 11 -19
49 -32 85 -13 36 -34 85 -45 110 -12 25 -22 50 -24 55 -3 16 -44 117 -59 145
-7 14 -18 36 -25 50 -14 30 -58 106 -84 146 -38 57 -160 173 -188 179 -15 4
-28 11 -28 15 0 5 -21 35 -46 65 -27 33 -52 78 -61 108 -8 29 -18 57 -23 62
-4 6 -13 28 -20 50 -7 22 -18 51 -25 65 -7 14 -20 50 -30 80 -9 30 -63 147
-119 260 -55 113 -106 219 -113 235 -30 74 -54 129 -89 199 -20 42 -34 79 -31
82 3 3 29 8 58 11 30 3 56 7 59 10 2 2 29 3 58 1 l54 -3 25 -65z m-309 -123
c28 -58 55 -121 83 -192 12 -33 29 -67 36 -76 7 -8 13 -19 13 -24 0 -5 22 -54
49 -109 71 -146 107 -226 121 -271 25 -83 103 -240 157 -317 18 -26 33 -50 33
-53 0 -3 -12 -5 -27 -5 -30 -1 -132 -88 -147 -125 l-8 -20 -8 20 c-13 34 -48
148 -55 180 -4 17 -9 37 -11 45 -2 8 -11 47 -20 85 -9 39 -22 97 -30 130 -8
33 -19 84 -25 113 -5 29 -16 72 -25 95 -19 52 -33 99 -45 156 -5 25 -16 55
-24 67 -8 13 -15 31 -15 39 0 9 -14 51 -31 93 -17 43 -35 97 -40 122 -5 25
-12 58 -16 74 -8 41 10 26 35 -27z m588 -1236 c47 -40 105 -127 146 -221 21
-47 44 -96 52 -110 8 -14 22 -51 31 -83 9 -32 23 -70 31 -85 8 -15 14 -33 14
-40 0 -7 9 -31 20 -55 35 -76 111 -339 146 -505 24 -111 55 -413 75 -727 10
-157 8 -306 -5 -375 -4 -19 -11 -62 -16 -94 -11 -73 -42 -119 -99 -151 -47
-27 -47 -27 -108 24 l-42 34 29 34 c96 109 148 370 136 673 -13 317 -31 449
-89 665 -121 444 -229 723 -326 842 -26 31 -104 93 -118 93 -5 0 -14 4 -22 9
-18 11 0 47 43 83 35 31 55 29 102 -11z m1192 -1668 c6 -54 14 -134 17 -177 3
-44 11 -88 16 -98 18 -33 32 -541 17 -603 -5 -22 -14 -62 -20 -90 -15 -76 -30
-128 -42 -145 -21 -29 -36 -60 -36 -74 0 -7 -7 -20 -16 -27 -9 -7 -19 -21 -23
-30 -3 -10 -33 -38 -66 -64 l-60 -46 -64 7 c-46 5 -76 15 -107 36 -48 32 -124
113 -163 173 -14 22 -30 43 -34 46 -15 11 6 18 43 15 19 -2 42 0 50 4 8 5 35
10 60 13 69 7 109 29 176 93 45 43 72 80 98 136 20 42 36 85 36 95 0 10 4 23
9 29 5 5 12 30 14 56 3 25 10 55 15 65 5 10 10 40 11 68 1 27 6 54 10 60 13
15 22 147 24 362 1 136 5 193 13 193 7 0 16 -38 22 -97z m527 -1324 c55 -44
102 -84 105 -87 24 -32 186 -149 296 -214 77 -46 199 -134 271 -194 35 -30 67
-54 72 -54 4 0 17 -8 29 -17 11 -10 57 -43 102 -73 44 -30 108 -75 142 -100
33 -25 72 -52 87 -60 14 -8 28 -17 31 -20 3 -3 32 -28 65 -55 33 -27 83 -70
110 -95 28 -25 64 -54 80 -65 46 -31 289 -279 325 -331 8 -12 30 -43 48 -69
17 -25 32 -49 32 -54 0 -4 12 -23 26 -42 24 -33 94 -170 94 -186 0 -4 6 -20
14 -35 8 -14 19 -43 26 -65 7 -21 35 -79 61 -129 27 -51 49 -98 49 -106 0 -8
16 -45 35 -81 19 -36 35 -71 35 -77 0 -6 23 -57 50 -113 28 -56 50 -107 50
-114 0 -7 4 -21 10 -31 21 -38 69 -161 85 -217 10 -33 20 -64 23 -70 3 -5 7
-21 8 -34 2 -14 8 -46 13 -71 20 -90 19 -151 -4 -259 -23 -106 -51 -211 -59
-218 -2 -2 -20 6 -40 18 l-36 21 0 82 c0 117 -19 342 -34 406 -29 120 -78 296
-91 325 -7 16 -19 48 -26 70 -6 22 -25 64 -40 94 -16 30 -29 60 -29 67 0 8
-22 58 -50 111 -27 53 -50 102 -50 109 0 6 -7 17 -15 24 -8 7 -15 20 -15 29 0
9 -12 34 -27 56 -15 22 -44 73 -65 113 -41 81 -172 283 -212 328 -15 16 -37
40 -50 54 -12 14 -41 50 -63 80 -51 69 -372 385 -433 425 -25 16 -100 75 -167
130 -67 55 -154 123 -193 150 -39 28 -96 70 -128 95 -52 42 -90 69 -130 95 -9
6 -49 36 -90 68 -41 31 -79 57 -83 57 -12 0 -158 92 -213 133 -23 19 -76 52
-117 75 -41 22 -87 52 -104 65 l-29 25 37 37 c21 21 42 46 48 56 5 11 15 19
22 19 7 0 57 -37 112 -81z m-214 -143 c36 -29 87 -66 115 -82 27 -15 97 -61
157 -101 59 -40 112 -73 119 -73 6 0 34 -19 62 -43 85 -71 176 -138 316 -234
73 -50 155 -118 270 -224 52 -48 115 -102 139 -120 66 -47 353 -338 416 -422
30 -39 78 -99 105 -132 28 -33 55 -71 61 -84 5 -13 34 -63 63 -110 29 -47 56
-96 60 -109 4 -12 12 -22 17 -22 5 0 9 -7 9 -16 0 -8 13 -34 29 -57 15 -23 34
-59 41 -81 7 -21 29 -68 49 -105 21 -36 43 -82 50 -101 8 -19 19 -48 26 -65 8
-16 20 -48 28 -70 8 -22 24 -62 35 -90 41 -100 94 -289 109 -389 8 -55 19
-106 24 -111 12 -16 24 -225 13 -225 -12 0 -165 87 -253 144 -100 65 -170 106
-180 106 -5 0 -11 4 -13 8 -1 4 -43 35 -93 68 -130 87 -126 85 -196 136 -72
53 -96 72 -142 108 -18 14 -68 52 -112 85 -44 33 -132 105 -195 160 -63 56
-133 117 -154 136 -44 38 -204 197 -252 250 -64 71 -249 317 -299 398 -5 8
-17 23 -25 31 -8 8 -19 23 -25 32 -5 9 -30 47 -55 85 -46 68 -91 156 -105 203
-4 14 -39 89 -76 167 -38 79 -69 149 -69 157 0 7 -22 80 -49 162 -27 82 -55
181 -61 219 -6 39 -18 99 -26 135 -19 83 -33 307 -20 320 15 15 15 14 87 -44z
m-230 -53 c5 -90 9 -130 28 -243 23 -137 52 -262 81 -355 10 -33 33 -107 51
-165 18 -58 40 -121 50 -140 50 -101 89 -189 90 -201 0 -8 18 -48 39 -89 22
-41 45 -86 52 -100 7 -14 15 -27 18 -30 3 -3 11 -17 19 -31 7 -15 33 -51 58
-80 24 -30 49 -64 56 -76 7 -11 52 -77 102 -145 146 -200 329 -404 470 -523
33 -27 80 -69 105 -91 135 -124 218 -189 395 -307 55 -37 157 -109 227 -160
69 -51 141 -101 160 -112 18 -11 49 -30 68 -42 19 -12 53 -32 75 -44 22 -12
47 -27 55 -34 22 -19 213 -121 436 -233 l66 -33 -59 -38 c-56 -36 -133 -116
-133 -138 0 -6 -6 -16 -14 -22 -11 -10 -31 -5 -93 25 -140 65 -177 84 -218
109 -22 14 -58 35 -80 47 -51 28 -60 34 -133 86 -34 23 -64 42 -67 42 -3 0
-33 18 -66 40 -33 22 -63 40 -65 40 -12 0 -481 331 -547 385 -6 6 -24 18 -38
27 -14 9 -48 36 -75 59 -54 46 -137 117 -170 146 -166 144 -280 267 -391 424
-29 41 -96 133 -148 204 -52 72 -108 157 -124 190 -123 257 -163 335 -170 335
-5 0 -11 10 -14 23 -16 70 -61 232 -81 292 -15 45 -26 108 -31 175 -4 58 -11
125 -17 150 -11 52 -26 301 -30 503 l-3 137 25 9 c38 14 40 13 41 -16z m-191
-170 c2 -120 13 -354 21 -438 5 -60 11 -130 14 -155 7 -78 33 -224 46 -255 16
-39 15 -37 39 -133 11 -46 39 -123 61 -170 23 -48 63 -133 90 -190 27 -56 49
-106 49 -110 0 -15 77 -149 107 -187 25 -32 32 -42 48 -67 42 -65 174 -247
220 -303 22 -27 48 -61 57 -75 24 -39 266 -278 288 -285 10 -3 22 -15 25 -25
3 -10 14 -21 24 -25 9 -3 35 -22 57 -43 60 -59 173 -152 184 -152 6 0 18 -8
28 -17 16 -17 125 -97 182 -136 14 -9 63 -43 109 -74 105 -73 294 -192 303
-193 4 0 26 -13 50 -29 24 -16 69 -43 101 -59 31 -16 65 -36 73 -43 22 -19 99
-64 154 -90 25 -11 68 -32 95 -44 74 -35 135 -57 178 -62 31 -4 37 -9 37 -29
0 -13 -6 -29 -14 -36 -10 -10 -11 -20 -3 -41 13 -40 2 -148 -22 -202 -39 -87
-100 -145 -153 -145 -31 0 -192 31 -210 40 -9 5 -44 16 -79 25 -54 14 -150 55
-199 86 -8 5 -26 15 -40 21 -14 7 -29 18 -33 25 -4 7 -13 13 -18 13 -6 0 -29
13 -52 28 -23 16 -85 57 -137 92 -291 193 -510 386 -716 630 -48 58 -141 164
-206 236 -152 168 -248 291 -288 368 -18 33 -41 72 -52 86 -91 120 -191 296
-237 421 -28 76 -69 179 -86 214 -8 17 -19 53 -25 80 -6 28 -13 57 -17 65 -3
8 -7 22 -8 30 -5 31 -34 147 -48 190 -8 25 -19 101 -23 170 -11 157 -12 665
-2 787 4 50 8 119 9 152 1 34 6 61 10 61 5 0 9 -3 9 -7z m14390 -229 c0 -19 4
-43 9 -53 5 -9 12 -48 16 -87 7 -90 24 -194 35 -219 20 -46 30 -162 30 -361 1
-185 -1 -218 -18 -270 -11 -32 -23 -86 -27 -119 -4 -33 -14 -71 -23 -85 -9
-14 -26 -43 -38 -65 -27 -49 -98 -158 -156 -239 -23 -33 -73 -107 -111 -165
-37 -58 -89 -128 -116 -156 -26 -27 -71 -79 -100 -115 -129 -158 -277 -313
-406 -423 -125 -106 -256 -207 -270 -207 -3 0 -32 -20 -66 -45 -34 -25 -65
-45 -70 -45 -9 0 -88 -48 -99 -60 -3 -3 -36 -21 -75 -40 -38 -19 -86 -44 -105
-57 -40 -25 -376 -200 -465 -242 -33 -15 -85 -40 -115 -54 -59 -28 -96 -42
-230 -87 -107 -36 -219 -77 -245 -89 -20 -10 -99 -36 -210 -71 -33 -11 -154
-50 -270 -89 -115 -38 -273 -85 -350 -104 -477 -119 -827 -202 -944 -222 -47
-8 -99 -19 -115 -25 -17 -5 -71 -16 -121 -24 -49 -8 -171 -29 -270 -46 -99
-17 -207 -33 -240 -36 -33 -2 -116 -9 -185 -15 -69 -6 -222 -14 -340 -19 -118
-5 -255 -12 -305 -17 -125 -13 -598 -6 -880 12 -55 3 -127 8 -160 10 -33 2
-121 9 -195 15 -74 6 -142 12 -150 12 -8 0 -34 4 -58 9 -24 5 -111 16 -193 24
-82 9 -160 20 -173 25 -14 5 -69 14 -123 20 -54 6 -118 15 -143 21 -25 6 -76
14 -113 19 -37 5 -75 11 -85 14 -9 3 -39 8 -66 11 -28 4 -53 8 -57 11 -5 2
-70 15 -146 29 -288 50 -369 65 -393 74 -14 5 -47 12 -75 15 -151 18 -445 77
-650 131 -197 53 -254 67 -350 88 -55 13 -105 26 -112 30 -6 4 -49 14 -94 23
-46 8 -92 20 -103 26 -11 6 -34 14 -51 19 -78 19 -251 72 -261 80 -5 4 -35 15
-66 23 -30 8 -75 23 -99 34 -24 11 -62 25 -84 32 -22 6 -54 18 -72 26 -17 8
-34 14 -37 14 -3 0 -25 9 -49 19 -23 11 -71 29 -107 40 -85 26 -196 65 -239
83 l-33 15 29 29 c42 44 99 117 106 137 4 9 11 17 17 17 10 0 119 -51 150 -70
8 -5 60 -25 115 -45 55 -20 109 -40 120 -45 55 -25 100 -40 121 -40 12 0 25
-4 28 -8 3 -5 31 -15 63 -22 32 -7 74 -21 93 -30 19 -10 62 -25 95 -35 33 -9
68 -21 77 -26 9 -4 43 -13 75 -18 92 -16 115 -21 132 -31 9 -4 54 -16 100 -24
46 -9 89 -20 95 -25 6 -5 31 -12 56 -16 52 -8 116 -24 145 -35 18 -8 76 -20
115 -25 64 -8 117 -18 125 -25 17 -13 212 -56 370 -81 44 -6 91 -16 104 -21
14 -5 45 -11 70 -14 24 -3 97 -14 160 -25 131 -23 209 -33 361 -49 58 -7 109
-15 115 -20 5 -4 91 -15 190 -25 98 -9 186 -20 195 -25 22 -12 144 -24 210
-22 56 3 215 -13 283 -28 20 -4 39 -4 42 0 6 10 162 4 286 -10 313 -37 1322
-47 1574 -16 72 9 158 16 193 16 35 0 71 4 80 9 9 5 46 11 82 14 36 3 108 13
160 22 52 9 130 20 172 25 42 4 80 10 85 13 4 2 46 8 91 11 46 4 91 11 100 16
10 5 69 19 132 30 259 45 297 52 350 66 30 9 96 26 145 39 50 13 128 36 175
50 47 15 99 31 115 35 75 21 111 33 120 39 6 5 33 14 60 21 28 7 59 18 70 24
30 16 88 36 105 36 8 0 38 11 65 25 28 13 55 25 62 25 11 0 123 43 208 79 22
10 59 24 83 31 23 7 47 19 53 27 6 7 17 13 25 13 7 0 25 5 41 12 15 6 30 12
33 13 3 0 34 15 70 31 36 17 76 35 90 39 14 4 48 20 75 35 100 55 168 90 178
90 6 0 18 6 26 14 9 8 54 34 101 57 47 23 96 52 110 64 14 13 45 33 70 46 25
12 84 46 132 76 48 29 90 53 92 53 8 0 75 45 136 90 30 23 83 58 116 78 34 20
86 58 115 84 30 26 90 77 134 112 126 101 283 260 396 401 57 71 130 161 161
200 32 38 58 75 58 82 0 7 6 16 13 20 16 10 85 118 130 203 19 36 46 85 60
110 44 76 99 194 174 369 14 33 50 205 61 285 3 28 20 60 53 104 27 35 56 77
64 93 28 53 156 228 168 229 4 0 7 -16 7 -36z m395 -870 c188 -135 312 -234
417 -333 40 -38 101 -90 135 -116 34 -25 87 -74 116 -108 66 -76 140 -177 130
-177 -4 0 -2 -5 5 -12 32 -32 -14 -276 -76 -408 -22 -46 -99 -180 -132 -230
-6 -8 -23 -35 -38 -59 -15 -24 -36 -56 -48 -70 -11 -14 -31 -44 -44 -66 -13
-22 -40 -60 -59 -84 -47 -58 -196 -203 -225 -218 -12 -7 -37 -25 -53 -41 -17
-15 -53 -39 -80 -53 -26 -13 -49 -27 -51 -31 -2 -5 -11 -8 -21 -8 -9 0 -21 -4
-26 -9 -20 -17 -132 -49 -196 -55 -37 -3 -99 -12 -137 -21 -67 -14 -179 -26
-367 -40 -44 -3 -105 -10 -135 -15 -30 -5 -156 -12 -280 -15 -124 -3 -248 -9
-276 -13 -82 -14 -94 -2 -37 38 87 61 486 436 613 575 111 123 257 322 296
405 4 8 16 27 26 42 10 14 18 31 18 37 0 6 16 34 35 62 19 28 35 55 35 60 0 5
32 68 71 141 71 134 139 292 139 325 0 10 9 48 19 86 11 37 22 89 25 115 4 26
11 65 17 87 22 81 39 211 34 253 -9 62 10 56 150 -44z m-721 -1101 c-10 -21
-24 -42 -30 -48 -6 -5 -21 -28 -33 -49 -48 -84 -153 -207 -321 -376 -193 -193
-369 -360 -378 -360 -4 0 -16 -10 -27 -23 -11 -13 -36 -34 -55 -47 -19 -13
-38 -28 -42 -34 -21 -30 -300 -207 -428 -271 -41 -20 -82 -41 -90 -46 -17 -9
-67 -33 -90 -43 -8 -3 -69 -35 -135 -71 -228 -122 -404 -205 -495 -233 -82
-25 -176 -61 -260 -99 -36 -16 -123 -49 -195 -72 -71 -23 -137 -45 -145 -48
-28 -11 -35 -13 -85 -22 -27 -5 -77 -17 -110 -26 -33 -9 -94 -25 -135 -36 -41
-10 -84 -23 -95 -28 -11 -5 -49 -17 -85 -26 -36 -9 -76 -21 -90 -25 -14 -5
-72 -16 -130 -26 -58 -10 -107 -20 -110 -23 -3 -3 -14 -7 -25 -8 -44 -5 -124
-23 -195 -43 -100 -28 -137 -35 -325 -59 -88 -12 -198 -28 -245 -36 -92 -17
-104 -18 -315 -35 -77 -6 -183 -15 -235 -21 -52 -6 -144 -12 -205 -14 -60 -2
-133 -7 -161 -10 -212 -25 -1503 -15 -1614 13 -19 4 -80 9 -135 11 -55 1 -127
6 -160 11 -106 17 -138 20 -215 25 -81 5 -112 9 -205 24 -33 5 -111 12 -173
16 -62 3 -139 11 -170 16 -31 6 -122 21 -202 34 -80 12 -163 28 -185 33 -22 6
-89 16 -150 22 -60 6 -119 15 -130 20 -11 5 -49 16 -85 25 -80 19 -95 23 -95
25 0 3 -32 9 -115 23 -47 8 -105 21 -130 30 -25 9 -55 17 -67 17 -13 0 -23 5
-23 10 0 6 -12 10 -26 10 -25 0 -63 10 -249 65 -44 14 -109 29 -145 35 -70 11
-214 53 -233 68 -7 5 -23 12 -37 15 -14 3 -43 11 -65 17 -22 6 -47 12 -55 14
-9 1 -20 5 -26 8 -5 4 -45 16 -87 27 -43 11 -82 23 -87 26 -5 3 -38 12 -72 20
-71 16 -175 52 -241 84 -24 11 -51 21 -60 21 -9 0 -18 4 -21 9 -3 5 -18 11
-33 14 -32 6 -135 48 -155 64 -7 6 -25 13 -40 17 -72 16 -84 20 -96 33 -7 7
-20 13 -28 13 -8 0 -60 22 -117 48 -111 53 -133 61 -220 87 -31 9 -57 22 -57
29 0 21 34 75 74 116 35 37 40 39 55 26 9 -8 62 -36 116 -62 140 -65 154 -70
210 -87 28 -9 68 -24 91 -36 22 -11 52 -23 67 -26 15 -4 30 -11 33 -16 3 -5
13 -9 22 -9 9 0 40 -12 67 -26 28 -15 79 -35 115 -45 36 -10 106 -32 155 -48
199 -65 300 -93 560 -156 144 -35 259 -65 350 -91 172 -49 572 -137 700 -154
33 -5 94 -16 135 -25 41 -10 111 -24 155 -31 44 -8 100 -19 125 -24 257 -53
718 -132 880 -150 52 -6 133 -17 180 -25 47 -7 130 -17 185 -20 55 -4 132 -13
170 -20 188 -36 1421 -36 1660 0 50 8 151 17 225 21 74 3 171 13 215 20 44 8
134 23 200 33 66 11 140 24 165 30 25 5 88 15 140 21 52 6 136 19 185 29 50
11 126 26 170 34 44 9 125 27 180 42 55 15 114 29 130 31 30 5 69 15 200 53
39 11 81 23 95 26 14 4 61 17 105 30 135 40 189 55 215 59 44 7 83 18 200 57
63 21 187 56 275 78 88 23 169 45 180 50 11 5 47 19 80 31 33 11 69 25 80 30
33 15 146 60 200 79 28 10 84 34 125 53 41 19 91 40 110 48 19 8 37 16 40 20
3 3 25 14 50 25 25 10 52 24 60 30 8 6 31 18 50 28 19 9 42 21 50 26 8 5 44
24 80 41 97 49 298 159 355 195 28 18 61 38 75 45 35 18 236 154 290 196 118
92 162 129 251 216 134 131 275 283 325 350 23 32 49 65 58 73 9 9 16 21 16
27 0 6 3 8 7 5 3 -4 -2 -24 -13 -44z m1426 -430 c-1 -5 -9 -26 -20 -48 -11
-22 -19 -44 -20 -48 0 -9 -33 -85 -57 -132 -9 -16 -26 -51 -39 -77 -26 -51
-131 -205 -173 -252 -50 -56 -155 -156 -164 -156 -5 0 -38 -20 -73 -46 -35
-25 -79 -50 -97 -55 -17 -6 -41 -15 -52 -20 -11 -5 -33 -11 -50 -14 -123 -20
-209 -28 -485 -50 -76 -6 -415 -19 -470 -19 -25 1 -99 2 -165 3 -172 4 -247
-11 -313 -63 -30 -22 -65 -51 -78 -63 -14 -13 -29 -23 -33 -23 -4 0 -16 -9
-26 -20 -10 -11 -23 -20 -29 -20 -7 0 -27 -13 -46 -30 -19 -16 -40 -29 -47
-30 -6 0 -13 -3 -15 -7 -1 -5 -37 -31 -78 -59 -41 -28 -103 -71 -138 -95 -72
-50 -71 -50 -224 -145 -118 -74 -294 -164 -320 -164 -9 0 -21 -6 -27 -14 -7
-8 -28 -17 -47 -21 -19 -3 -55 -17 -78 -30 -24 -13 -88 -42 -143 -64 -86 -34
-129 -55 -230 -110 -38 -21 -143 -61 -253 -96 -63 -20 -133 -46 -156 -56 -22
-10 -44 -19 -49 -19 -14 0 -328 -122 -335 -131 -6 -7 -145 -40 -181 -43 -14
-2 -30 -5 -35 -8 -5 -4 -38 -14 -74 -22 -36 -9 -74 -21 -85 -26 -11 -5 -45
-15 -75 -23 -30 -8 -100 -31 -155 -51 -55 -20 -118 -39 -140 -42 -104 -13
-175 -26 -235 -43 -36 -11 -101 -27 -145 -36 -44 -10 -93 -21 -110 -26 -16 -4
-64 -9 -105 -10 -70 -1 -139 -10 -200 -24 -90 -21 -201 -37 -300 -45 -63 -4
-164 -15 -225 -23 -60 -9 -193 -18 -295 -21 -102 -3 -203 -8 -225 -10 -95 -11
-228 -15 -239 -8 -6 4 -38 8 -71 8 -59 2 -261 10 -445 19 -52 2 -178 7 -280
11 -102 3 -193 10 -202 15 -10 6 -19 5 -23 -1 -4 -6 -13 -7 -24 -1 -9 6 -54
10 -99 10 -46 0 -86 2 -90 4 -4 3 -65 8 -137 11 -71 4 -143 9 -160 11 -16 3
-50 7 -75 9 -89 9 -326 36 -360 42 -19 2 -60 9 -90 14 -63 10 -184 28 -249 35
-24 3 -51 10 -61 15 -24 13 -100 29 -187 40 -74 10 -210 39 -298 65 -27 8 -77
19 -110 25 -33 6 -89 20 -125 30 -36 10 -101 24 -145 30 -44 7 -89 15 -100 19
-39 15 -92 31 -104 31 -7 0 -27 6 -44 14 -44 19 -102 33 -167 41 -30 4 -59 10
-65 14 -5 4 -37 16 -70 26 -33 11 -67 25 -76 32 -8 7 -21 13 -29 13 -19 0
-193 61 -204 71 -6 5 -19 9 -31 9 -11 0 -30 7 -42 15 -12 9 -48 20 -80 26 -32
5 -67 14 -78 19 -11 4 -45 16 -75 26 -30 10 -59 21 -65 25 -5 4 -39 14 -75 23
-36 9 -74 23 -85 30 -11 7 -38 19 -60 26 -22 7 -44 16 -50 20 -5 4 -41 17 -80
29 -38 13 -79 26 -90 31 -11 5 -46 18 -77 29 -32 11 -66 25 -75 30 -10 5 -38
18 -63 29 -25 10 -112 51 -195 89 -82 39 -172 81 -200 92 -27 12 -57 26 -65
31 -8 6 -40 23 -70 39 l-54 29 44 7 c95 16 157 66 226 181 43 72 64 139 64
199 0 34 1 35 28 29 15 -4 31 -11 36 -15 6 -5 17 -9 26 -9 9 0 46 -14 81 -31
35 -17 87 -42 114 -55 54 -25 230 -94 242 -94 5 0 31 -12 58 -25 28 -14 59
-25 69 -25 10 0 37 -9 60 -19 142 -67 268 -115 376 -141 25 -6 54 -15 65 -20
19 -8 133 -40 217 -61 21 -5 79 -24 130 -42 127 -46 153 -54 228 -71 36 -8
115 -28 175 -46 61 -17 119 -33 130 -35 41 -9 191 -52 215 -62 14 -6 54 -14
90 -17 61 -7 117 -20 218 -52 23 -8 52 -14 63 -14 11 0 29 -5 39 -10 11 -6 73
-17 137 -26 65 -8 147 -22 183 -30 36 -9 115 -21 175 -29 61 -8 153 -21 206
-29 53 -8 128 -17 167 -20 39 -3 103 -12 144 -20 40 -8 133 -18 207 -21 74 -4
144 -10 156 -15 13 -5 25 -6 29 -3 3 3 13 2 23 -3 24 -11 60 -15 178 -19 55
-2 136 -8 180 -13 44 -5 163 -10 264 -11 101 -1 187 -4 191 -6 19 -12 1099 -3
1119 9 5 3 91 8 192 12 207 7 221 8 234 16 6 3 48 9 95 12 47 4 99 9 115 11
17 3 80 8 140 11 144 8 163 10 205 23 40 13 215 43 245 42 27 0 174 24 255 43
120 28 245 59 260 64 8 2 22 6 30 7 8 2 56 10 105 20 50 9 99 18 110 19 11 2
33 9 49 15 16 6 47 16 70 21 23 5 55 16 72 25 16 8 38 15 50 15 11 0 49 9 83
20 56 19 119 34 176 44 42 6 212 58 250 76 107 49 177 76 320 125 251 86 278
98 790 360 138 70 257 133 265 139 8 6 33 20 55 30 22 10 60 32 84 48 l45 30
380 4 c210 2 408 6 441 9 33 2 114 7 180 10 66 4 143 11 170 16 28 5 91 13
140 19 338 37 458 80 669 238 78 59 271 254 292 295 9 18 28 48 43 67 30 41
47 66 63 98 11 21 28 30 28 15z"/>
<path d="M15665 16935 c-38 -20 -86 -82 -78 -101 3 -9 62 -44 132 -78 69 -35
155 -80 191 -101 36 -21 115 -66 175 -100 143 -82 321 -195 525 -335 14 -9 54
-36 90 -61 36 -24 91 -65 123 -91 32 -26 62 -48 67 -48 5 0 17 -8 27 -18 10
-10 72 -58 138 -107 107 -80 198 -155 290 -238 16 -15 61 -53 99 -85 37 -31
103 -86 145 -122 43 -36 101 -83 130 -105 106 -81 209 -172 336 -295 136 -132
234 -222 330 -305 32 -27 149 -140 259 -250 111 -111 251 -248 311 -306 203
-193 575 -579 629 -652 30 -40 87 -107 127 -149 59 -61 81 -78 112 -83 29 -5
37 -3 37 10 0 10 10 15 31 15 29 0 31 2 25 28 -3 15 -8 40 -11 56 -2 16 -8 32
-13 35 -5 3 -14 29 -22 56 -13 53 -47 134 -81 200 -12 22 -50 94 -84 160 -34
66 -75 143 -90 170 -15 28 -42 77 -60 110 -17 33 -42 78 -55 100 -12 22 -32
57 -42 78 -11 20 -24 40 -29 43 -6 3 -27 40 -48 82 -46 93 -70 135 -144 247
-21 32 -43 67 -48 79 -5 12 -18 35 -29 51 -11 17 -26 44 -33 61 -8 17 -31 53
-51 81 -20 28 -36 55 -36 61 0 6 -3 12 -7 14 -9 4 -77 106 -85 129 -3 8 -28
48 -54 88 -67 101 -99 155 -134 227 -17 34 -37 67 -45 74 -8 7 -15 17 -15 23
0 5 -12 25 -26 44 -14 18 -36 57 -50 86 -35 72 -65 124 -102 177 -61 85 -119
175 -140 216 -12 23 -33 55 -47 72 -14 16 -25 34 -25 40 0 5 -6 12 -14 15 -7
3 -32 34 -56 69 -24 34 -49 70 -56 78 -8 8 -29 33 -47 55 -17 21 -47 53 -66
70 -18 16 -55 51 -81 76 -41 40 -59 49 -136 69 -49 13 -111 25 -139 28 -27 2
-54 8 -60 12 -5 4 -39 11 -73 14 -35 4 -76 12 -90 18 -15 6 -34 11 -42 12 -62
8 -111 20 -115 27 -3 4 -11 6 -19 3 -7 -3 -25 0 -40 6 -39 15 -159 37 -241 45
-38 4 -79 11 -91 15 -11 5 -72 16 -135 25 -63 9 -118 20 -124 23 -5 4 -21 7
-35 8 -93 6 -321 32 -430 49 -14 3 -137 7 -275 10 -218 5 -254 4 -280 -10z
m395 -140 c63 -4 151 -13 195 -21 44 -8 148 -22 230 -30 161 -16 179 -18 240
-33 62 -15 277 -52 384 -66 53 -7 123 -20 156 -30 95 -27 325 -81 380 -89 11
-1 27 -5 35 -9 8 -3 35 -8 60 -12 25 -3 76 -16 113 -30 74 -25 127 -73 217
-191 25 -32 67 -85 95 -116 27 -31 66 -87 85 -125 19 -37 38 -69 43 -71 4 -2
7 -8 7 -13 0 -4 32 -57 71 -116 39 -60 85 -135 101 -168 38 -76 61 -117 98
-180 17 -27 50 -90 75 -140 25 -49 52 -96 60 -105 8 -9 15 -20 15 -25 0 -4 11
-23 26 -42 14 -18 32 -48 40 -66 21 -46 59 -112 108 -187 60 -92 71 -110 112
-187 20 -37 47 -82 60 -100 13 -17 24 -36 24 -40 0 -5 14 -28 30 -50 17 -23
53 -86 81 -140 28 -54 61 -111 72 -127 12 -17 29 -44 38 -60 36 -67 78 -143
97 -176 12 -19 29 -51 39 -70 9 -19 29 -51 43 -70 29 -38 63 -110 53 -110 -9
0 -253 252 -253 262 0 4 -6 8 -12 8 -7 0 -28 21 -47 46 -19 25 -108 116 -199
202 -90 86 -244 236 -341 332 -97 96 -208 202 -246 235 -39 33 -108 96 -155
140 -150 140 -225 209 -281 257 -207 177 -296 250 -320 264 -15 8 -58 45 -213
183 -34 29 -77 65 -95 80 -19 14 -51 41 -70 59 -43 39 -368 289 -414 317 -18
11 -57 40 -87 64 -30 24 -64 47 -75 51 -11 4 -44 26 -72 49 -29 22 -57 41 -62
41 -5 0 -31 15 -58 33 -27 17 -56 37 -65 42 -9 6 -40 26 -69 46 -60 40 -209
129 -216 129 -3 0 -17 8 -31 19 -26 17 -140 81 -232 128 -39 20 -41 23 -15 19
17 -3 82 -8 145 -11z"/>
<path d="M4483 9305 c-31 -13 -66 -69 -56 -87 8 -14 40 -8 66 12 14 11 32 20
41 20 15 0 45 45 35 54 -14 12 -59 13 -86 1z"/>
<path d="M16554 27202 c-15 -9 -50 -97 -58 -142 -4 -19 -16 -54 -27 -78 -12
-24 -19 -46 -15 -49 3 -3 -1 -18 -8 -32 -13 -25 -28 -78 -62 -216 -39 -158
-45 -183 -53 -230 -13 -68 -27 -128 -50 -205 -11 -36 -25 -85 -31 -110 -18
-68 -41 -109 -74 -133 -17 -11 -35 -27 -39 -34 -4 -7 -15 -13 -22 -13 -8 0
-15 -4 -15 -10 0 -5 -4 -10 -9 -10 -8 0 -51 -34 -92 -72 -11 -10 -21 -18 -24
-18 -2 0 -15 -10 -27 -22 -13 -13 -46 -41 -73 -63 -67 -55 -113 -94 -151 -130
-66 -62 -92 -85 -98 -85 -3 0 -52 -46 -108 -102 -57 -57 -121 -116 -143 -132
-22 -17 -62 -50 -89 -75 -27 -26 -64 -59 -82 -76 -18 -16 -43 -37 -56 -46 -13
-9 -30 -29 -38 -45 -8 -16 -21 -33 -27 -37 -16 -10 -16 -47 0 -68 27 -36 68
-33 227 21 84 28 165 57 181 66 16 8 31 14 34 13 6 -1 84 22 175 51 30 9 70
20 89 24 32 6 33 5 28 -22 -3 -15 -11 -45 -17 -67 -12 -40 -31 -145 -51 -285
-16 -108 -25 -249 -25 -375 1 -107 2 -111 31 -147 64 -80 131 -32 252 182 39
69 90 154 112 190 23 36 49 81 59 100 9 19 20 37 24 40 3 3 23 37 43 75 20 39
49 88 65 110 16 22 43 69 61 105 18 36 42 79 54 95 22 31 37 62 76 158 21 52
26 58 63 68 23 5 52 14 66 19 14 5 52 16 85 24 33 8 94 24 135 36 41 12 95 26
120 32 25 5 68 16 95 23 28 7 75 18 105 25 111 25 266 86 289 114 18 21 16 84
-4 131 -30 70 -146 277 -207 367 -32 48 -58 90 -58 94 0 4 26 53 59 108 32 56
86 151 121 211 34 61 70 118 79 128 20 24 62 95 101 174 40 81 43 164 7 188
-28 18 -94 13 -135 -10 -15 -9 -34 -19 -42 -24 -8 -4 -32 -16 -53 -27 -22 -10
-58 -35 -82 -56 -24 -21 -48 -38 -53 -38 -6 0 -12 -3 -14 -8 -6 -15 -234 -171
-250 -172 -10 0 -34 48 -54 107 -9 26 -36 90 -60 141 -24 52 -44 97 -44 100 0
4 -13 24 -29 45 -39 51 -107 100 -131 92 -10 -3 -21 -1 -25 5 -7 12 -16 13
-31 2z"/>
<path d="M14915 27181 c-11 -5 -51 -19 -90 -31 -38 -13 -80 -29 -92 -36 -12
-8 -27 -14 -32 -14 -14 0 -113 -44 -182 -80 -31 -17 -63 -30 -70 -30 -8 0 -37
-15 -64 -33 -28 -19 -67 -39 -87 -46 -21 -7 -38 -17 -38 -22 0 -5 -6 -9 -13
-9 -7 0 -38 -13 -68 -29 -133 -70 -378 -204 -414 -227 -22 -13 -49 -29 -60
-35 -32 -16 -62 -34 -76 -45 -8 -6 -41 -26 -73 -43 -33 -18 -70 -41 -84 -51
-31 -25 -33 -24 -174 102 -63 57 -185 164 -269 239 -85 76 -166 148 -180 160
-195 176 -203 182 -266 187 -85 7 -111 -14 -142 -118 -6 -19 -24 -82 -41 -140
-17 -58 -36 -116 -41 -130 -6 -13 -19 -51 -30 -85 -11 -33 -25 -68 -30 -78 -5
-10 -43 -116 -83 -235 -41 -119 -84 -242 -96 -272 -25 -63 -70 -180 -74 -195
-1 -5 -8 -21 -14 -35 -6 -14 -28 -68 -47 -120 -20 -52 -43 -109 -51 -127 -8
-17 -14 -36 -14 -42 0 -17 -58 -134 -77 -156 -32 -35 -85 -70 -183 -120 -52
-26 -115 -62 -140 -80 -25 -17 -72 -47 -105 -65 -33 -18 -91 -55 -130 -80 -38
-26 -105 -68 -147 -94 -42 -25 -110 -67 -150 -94 -40 -27 -100 -63 -133 -81
-64 -35 -245 -162 -264 -185 -23 -27 -24 -73 -3 -94 20 -20 31 -20 527 -20
278 0 508 -2 510 -4 3 -2 -5 -29 -16 -59 -11 -30 -28 -81 -36 -114 -9 -33 -19
-68 -24 -77 -5 -10 -9 -27 -9 -38 0 -11 -4 -28 -9 -38 -18 -35 -34 -90 -51
-172 -24 -111 -36 -155 -45 -170 -8 -13 -32 -109 -40 -159 -2 -13 -8 -28 -14
-34 -6 -6 -11 -19 -11 -29 0 -11 -7 -33 -16 -50 -14 -26 -27 -73 -73 -254 -5
-18 -12 -37 -16 -44 -10 -16 -19 -53 -55 -220 -15 -74 -35 -162 -44 -195 -8
-33 -15 -74 -16 -90 0 -17 -4 -35 -9 -40 -5 -6 -12 -29 -14 -51 -3 -23 -10
-50 -16 -61 -6 -13 -7 -23 -1 -29 6 -6 12 -29 14 -52 5 -51 15 -64 69 -91 36
-18 43 -19 57 -6 9 8 21 15 26 15 38 0 208 181 339 360 28 38 180 227 269 335
42 50 100 123 131 163 30 40 63 81 73 91 9 10 51 60 92 111 96 120 313 377
365 434 6 6 31 40 57 76 26 36 52 71 58 78 27 31 114 148 151 205 65 96 66 97
102 85 18 -5 72 -18 120 -29 48 -10 95 -23 105 -27 9 -5 89 -26 177 -47 88
-20 183 -43 210 -51 61 -16 258 -60 380 -84 50 -9 115 -24 145 -33 30 -8 82
-18 115 -22 33 -4 83 -13 110 -20 109 -31 286 -36 334 -10 57 30 71 52 65 102
-3 26 -10 55 -15 64 -5 10 -9 25 -9 34 0 26 -131 315 -184 405 -8 14 -64 126
-125 250 -154 313 -255 500 -328 609 -35 51 -63 94 -63 97 0 3 28 44 63 92 35
48 92 128 127 177 85 120 189 245 272 326 37 37 68 71 68 76 0 5 63 74 140
152 77 79 140 145 140 147 0 2 52 57 115 122 165 169 165 168 165 183 0 7 6
20 13 28 14 16 37 106 37 142 0 37 -40 107 -68 117 -42 17 -85 22 -107 13z"/>
<path d="M17394 25182 c-44 -36 -278 -473 -298 -557 -9 -38 -48 -104 -74 -128
-24 -22 -44 -24 -375 -42 -49 -3 -101 -12 -117 -20 -16 -8 -35 -15 -43 -15 -8
0 -31 -15 -51 -34 -32 -31 -36 -40 -36 -83 1 -26 5 -68 11 -93 5 -25 14 -70
19 -100 12 -66 66 -244 87 -283 8 -15 11 -32 7 -39 -12 -20 -38 -50 -60 -72
-12 -12 -38 -46 -58 -76 -20 -30 -58 -85 -84 -122 -26 -37 -67 -95 -91 -130
-24 -35 -50 -67 -57 -73 -6 -5 -24 -30 -39 -55 -16 -25 -40 -59 -55 -76 -14
-17 -44 -62 -65 -100 -21 -38 -53 -86 -71 -107 -37 -44 -94 -147 -94 -171 0
-9 -5 -25 -11 -35 -18 -28 -3 -69 32 -86 26 -14 34 -14 57 -2 59 30 104 58
125 78 12 11 46 36 75 55 28 19 52 39 52 43 0 7 297 311 304 311 4 0 101 96
135 134 31 35 38 33 44 -11 3 -21 19 -103 36 -183 17 -80 30 -157 31 -172 0
-15 5 -47 10 -70 6 -24 19 -88 30 -143 43 -226 89 -365 138 -417 32 -35 47
-35 100 -1 35 23 44 36 57 83 9 30 22 71 30 90 17 42 36 144 55 300 11 86 31
202 58 345 18 91 30 165 53 310 5 28 12 77 18 110 5 33 13 94 16 135 4 41 8
84 10 95 1 11 3 32 4 46 1 22 20 40 99 96 118 85 209 143 222 143 6 0 10 4 10
8 0 5 15 16 33 25 17 10 59 35 92 57 33 22 71 44 84 50 13 6 35 19 50 29 14
10 49 31 76 46 28 15 91 54 140 88 72 48 95 70 113 106 12 25 18 47 13 50 -4
4 -14 20 -22 36 l-14 30 -155 -1 c-147 0 -316 -10 -331 -20 -4 -2 -33 -7 -64
-9 -31 -3 -87 -12 -123 -20 -68 -14 -95 -8 -75 17 12 15 19 60 34 208 5 58 13
125 17 150 8 54 8 161 0 210 -3 19 -6 38 -7 42 -1 7 -67 38 -80 38 -3 0 -15
-8 -27 -18z"/>
<path d="M14959 23692 c-64 -40 -238 -203 -385 -360 l-159 -169 -55 29 c-61
31 -100 53 -209 117 -41 24 -95 49 -120 56 -26 7 -58 18 -71 26 -47 26 -95 39
-146 39 -44 0 -53 -4 -72 -30 -27 -36 -29 -111 -7 -198 16 -61 57 -237 81
-342 16 -72 37 -141 66 -212 17 -45 18 -50 2 -80 -9 -18 -27 -47 -40 -65 -13
-17 -24 -35 -24 -39 0 -4 -10 -17 -22 -30 -13 -13 -36 -40 -53 -60 -16 -20
-40 -46 -52 -59 -13 -12 -23 -30 -23 -39 0 -9 -4 -16 -9 -16 -5 0 -39 -35 -75
-77 -91 -108 -125 -143 -136 -143 -6 0 -10 -4 -10 -9 0 -5 -18 -28 -40 -52
-64 -70 -66 -115 -4 -144 33 -15 38 -15 87 1 49 16 111 43 235 101 30 14 77
34 105 45 167 63 178 66 182 55 14 -47 35 -214 41 -327 6 -124 13 -166 44
-271 13 -47 46 -89 69 -89 36 0 109 103 142 199 11 31 31 90 44 131 14 41 39
101 55 134 17 32 30 66 30 75 0 9 7 25 15 35 8 11 15 27 15 36 0 9 11 40 25
68 14 29 25 59 25 67 0 8 12 37 27 64 27 47 31 50 88 61 33 7 80 18 105 26 25
7 77 18 115 24 39 5 88 15 110 21 57 15 139 29 258 44 53 7 102 45 112 88 6
22 -7 36 -122 131 -70 58 -140 117 -154 130 -15 14 -61 46 -104 72 l-77 47 5
46 c4 50 19 96 48 153 16 32 51 158 66 243 3 17 12 38 20 47 8 9 12 22 8 27
-6 11 2 40 31 122 26 73 36 158 23 197 -23 71 -57 88 -110 54z"/>
<path d="M20693 22877 c-26 -11 -66 -26 -88 -34 -68 -25 -108 -46 -150 -77
-51 -38 -170 -163 -187 -196 -7 -14 -23 -42 -35 -62 -13 -21 -23 -46 -23 -57
0 -11 -4 -22 -9 -26 -6 -3 -17 -40 -26 -83 -9 -42 -20 -85 -26 -95 -5 -10 -7
-22 -4 -27 3 -5 2 -18 -4 -28 -5 -10 -14 -56 -20 -102 -7 -47 -15 -105 -20
-130 -5 -25 -15 -85 -21 -135 -6 -49 -13 -100 -15 -111 -2 -12 -6 -48 -10 -80
-4 -33 -11 -63 -15 -69 -5 -5 -11 -37 -15 -70 -4 -33 -18 -112 -30 -175 -13
-63 -29 -153 -35 -200 -7 -47 -16 -93 -20 -102 -5 -9 -16 -92 -25 -185 -9 -92
-21 -178 -26 -191 -5 -12 -16 -79 -24 -149 -9 -69 -20 -133 -24 -142 -5 -9
-14 -54 -20 -101 -7 -47 -19 -98 -27 -114 -8 -16 -14 -41 -14 -56 0 -14 -5
-31 -10 -36 -19 -19 21 -51 110 -88 110 -45 160 -53 182 -29 9 10 33 56 53
103 21 47 60 122 89 168 28 45 60 99 72 120 12 20 31 55 44 77 13 22 39 69 59
103 20 35 48 85 63 110 15 26 32 58 40 72 7 14 44 75 81 135 38 61 75 119 81
129 6 11 19 28 29 38 9 10 17 23 17 30 0 6 11 25 23 42 13 17 63 90 112 161
48 72 94 138 103 148 8 9 20 26 26 36 6 11 28 43 49 73 165 233 276 428 314
554 63 204 75 305 48 407 -8 32 -15 67 -15 77 0 11 -4 20 -9 20 -5 0 -17 23
-26 50 -9 28 -20 50 -25 50 -4 0 -13 13 -18 29 -6 16 -23 44 -39 61 -33 38
-127 110 -143 110 -6 0 -18 7 -26 15 -9 8 -25 15 -38 15 -12 0 -26 4 -31 8
-41 35 -220 40 -302 9z"/>
<path d="M12053 22785 c-21 -15 -64 -136 -118 -335 -1 -3 -5 -12 -8 -20 -4 -8
-14 -42 -22 -75 -21 -78 -21 -78 -28 -95 -15 -39 -87 -349 -87 -375 0 -37 -20
-51 -245 -165 -44 -23 -107 -56 -140 -74 -90 -49 -151 -80 -245 -125 -174 -83
-252 -160 -217 -214 12 -18 33 -26 108 -40 102 -19 442 -40 527 -33 l52 5 -6
-27 c-3 -15 -15 -56 -25 -92 -10 -36 -20 -78 -23 -95 -3 -16 -10 -47 -16 -68
-6 -21 -17 -70 -25 -110 -7 -40 -18 -90 -24 -112 -6 -22 -11 -85 -11 -141 0
-86 3 -103 19 -118 17 -15 22 -16 52 -3 44 19 275 270 424 461 17 22 48 62 71
90 22 28 55 72 74 99 37 52 35 51 100 36 25 -6 104 -19 175 -29 149 -22 389
-65 402 -73 5 -3 44 -8 87 -11 81 -5 116 4 116 29 0 38 -212 459 -315 626
l-45 72 48 91 c26 50 54 99 63 109 37 41 269 505 269 537 0 31 -27 60 -57 60
-23 0 -175 -77 -278 -140 -96 -59 -247 -159 -266 -176 -14 -13 -19 -8 -46 43
-16 32 -51 99 -77 148 -26 50 -71 135 -99 191 -32 60 -66 113 -88 132 -42 36
-47 38 -76 17z"/>
<path d="M18995 22399 c-11 -4 -35 -13 -54 -20 -53 -20 -136 -109 -159 -171
-40 -108 -37 -272 8 -449 36 -137 83 -341 96 -414 3 -16 14 -75 24 -130 11
-55 22 -129 26 -165 3 -36 12 -92 20 -125 8 -33 14 -83 14 -111 0 -79 12 -87
117 -85 59 1 58 -1 68 106 3 33 10 76 15 95 6 19 13 49 15 65 5 31 32 159 40
185 7 24 52 231 59 270 21 126 26 152 35 187 6 21 20 85 31 143 12 58 25 121
30 139 5 19 8 76 6 125 -2 74 -8 102 -30 150 -30 66 -121 162 -178 189 -39 18
-151 28 -183 16z"/>
<path d="M15567 22176 c-14 -13 -35 -43 -47 -66 -20 -40 -22 -56 -22 -306 l-1
-263 -31 -29 c-32 -31 -179 -132 -191 -132 -4 0 -27 -14 -52 -30 -24 -17 -58
-37 -76 -46 -35 -18 -67 -48 -67 -62 0 -5 -9 -17 -21 -28 -15 -14 -19 -26 -15
-48 11 -53 26 -57 186 -50 80 3 148 8 151 10 3 2 14 -2 24 -10 13 -10 15 -17
7 -32 -5 -10 -15 -59 -21 -108 -7 -50 -15 -95 -19 -100 -4 -6 -10 -40 -13 -76
-7 -64 -14 -111 -24 -160 -7 -35 7 -81 30 -96 27 -17 74 5 99 46 9 17 34 50
54 75 20 24 53 69 72 101 19 31 44 67 55 80 12 13 45 68 75 120 32 56 64 101
77 107 32 14 84 -3 224 -73 64 -32 135 -64 157 -71 74 -22 116 7 89 60 -8 14
-37 71 -66 126 -106 200 -141 278 -141 313 0 11 7 25 15 32 8 6 17 22 21 33 6
20 30 53 127 172 18 21 67 77 109 123 91 98 104 129 88 206 -12 60 -27 72 -77
60 -39 -8 -83 -28 -83 -35 0 -4 -11 -10 -24 -13 -14 -3 -37 -16 -53 -29 -15
-13 -47 -31 -71 -41 -23 -11 -47 -25 -53 -33 -6 -7 -20 -13 -30 -13 -10 0 -24
-9 -31 -20 -7 -11 -18 -20 -25 -20 -6 0 -25 -8 -42 -17 -16 -10 -32 -15 -34
-13 -3 3 -30 57 -60 120 -31 63 -76 140 -101 170 -25 30 -46 58 -46 61 0 10
-49 29 -74 29 -13 0 -35 -11 -49 -24z"/>
<path d="M18227 21859 c-59 -14 -90 -34 -144 -93 -80 -87 -87 -109 -88 -266 0
-142 2 -152 76 -400 62 -211 94 -341 133 -545 15 -77 31 -153 36 -170 5 -16
12 -63 16 -103 6 -66 9 -75 31 -83 32 -12 132 -8 142 6 5 5 11 48 15 95 10
118 12 135 46 305 16 83 32 173 35 200 11 85 38 251 62 385 29 160 42 285 37
345 -9 91 -63 193 -133 251 -92 77 -164 97 -264 73z"/>
<path d="M5480 21640 c-127 -15 -336 -106 -508 -221 l-74 -48 -111 54 c-610
298 -1328 14 -1557 -614 -85 -231 -76 -523 21 -757 l31 -75 -26 -32 c-241
-296 -358 -503 -410 -727 -26 -116 -28 -154 -7 -203 52 -121 163 -142 344 -65
106 45 380 221 470 302 9 9 20 16 25 16 4 0 18 12 31 25 13 14 29 25 36 25 7
0 15 4 17 9 2 5 34 32 72 61 54 40 75 51 95 47 14 -3 69 -15 121 -26 253 -55
556 -7 785 126 262 151 446 390 522 680 21 82 26 122 27 243 0 85 -4 167 -12
198 l-12 53 68 82 c133 161 230 302 285 418 44 90 64 206 48 267 -23 84 -101
154 -183 165 -18 3 -62 1 -98 -3z m116 -161 c33 -37 24 -126 -22 -216 -21 -40
-46 -81 -56 -90 -10 -9 -18 -20 -18 -25 0 -4 -19 -32 -42 -61 -24 -30 -67 -83
-96 -120 -30 -37 -57 -67 -61 -67 -4 0 -15 18 -25 39 -30 70 -112 186 -182
260 l-68 72 30 25 c29 24 149 94 214 125 164 78 288 100 326 58z m-2202 -1667
c53 -73 173 -183 265 -242 45 -30 78 -57 74 -61 -7 -7 -172 -137 -288 -227
-88 -69 -258 -176 -331 -211 -62 -28 -118 -36 -133 -17 -22 26 2 207 31 241 4
5 8 16 8 25 0 8 18 50 39 93 22 43 40 79 39 80 -5 17 235 365 254 366 3 1 22
-21 42 -47z"/>
<path d="M21713 21438 c-10 -3 -52 -16 -93 -29 -86 -25 -160 -60 -179 -83 -8
-9 -19 -16 -25 -16 -7 0 -26 -15 -42 -32 -17 -18 -46 -46 -64 -63 -37 -33
-108 -141 -129 -195 -22 -57 -63 -192 -72 -238 -5 -24 -11 -47 -14 -52 -4 -7
-37 -175 -48 -245 -9 -59 -57 -301 -66 -330 -5 -16 -21 -84 -36 -150 -14 -66
-35 -158 -46 -205 -36 -148 -39 -164 -50 -220 -6 -30 -17 -98 -25 -150 -22
-135 -31 -185 -49 -270 -9 -41 -20 -97 -25 -125 -5 -27 -13 -63 -18 -80 -6
-16 -17 -66 -27 -110 -9 -44 -22 -93 -29 -110 -8 -16 -19 -49 -26 -72 -17 -55
-10 -63 95 -112 87 -40 144 -56 174 -46 11 3 39 46 67 103 43 86 97 178 114
192 3 3 20 28 38 55 17 28 39 59 47 70 8 10 15 23 15 28 0 5 21 41 46 81 26
39 57 87 69 106 51 81 202 310 242 365 123 172 197 270 205 273 4 2 8 8 8 14
0 9 37 58 88 115 12 14 22 30 22 36 0 5 10 19 23 31 12 11 48 57 80 101 31 44
64 89 73 100 61 80 86 119 119 180 21 39 43 76 48 83 26 32 97 229 97 268 0
11 5 25 12 32 22 22 11 286 -13 317 -4 6 -17 36 -29 67 -24 65 -81 153 -119
183 -64 52 -130 92 -171 104 -25 7 -61 20 -80 28 -36 14 -170 15 -207 1z"/>
<path d="M13993 21248 c-20 -27 -168 -330 -199 -410 -18 -46 -21 -48 -74 -59
-74 -14 -298 -67 -335 -79 -16 -5 -50 -12 -75 -16 -72 -12 -135 -62 -115 -93
3 -6 42 -28 87 -51 44 -23 88 -46 97 -50 9 -5 60 -30 114 -55 53 -25 97 -50
97 -56 0 -6 -23 -54 -51 -107 -28 -53 -71 -135 -95 -182 -48 -90 -51 -124 -17
-162 18 -20 64 -24 96 -6 48 25 306 226 360 280 10 10 22 18 28 18 5 0 46 -23
92 -51 45 -28 133 -78 195 -110 220 -116 263 -87 197 131 -40 134 -62 199 -90
279 -21 58 -24 75 -14 82 7 4 56 50 109 101 52 52 125 120 162 152 37 32 65
62 62 67 -3 5 0 9 5 9 6 0 11 9 11 19 0 24 -48 63 -69 56 -9 -3 -54 -13 -101
-24 -47 -10 -122 -29 -168 -40 -46 -12 -89 -21 -95 -21 -7 0 -19 30 -28 68 -9
37 -23 92 -32 122 -8 30 -18 72 -21 92 -5 27 -18 47 -48 73 -44 37 -69 44 -85
23z"/>
<path d="M18947 20625 c-142 -73 -218 -236 -173 -374 44 -136 164 -240 266
-232 37 2 114 23 125 32 5 5 16 9 25 9 9 0 27 11 40 25 13 14 29 25 35 25 6 0
18 11 25 25 7 14 17 25 21 25 13 0 45 82 52 134 9 61 -14 162 -48 215 -73 117
-254 173 -368 116z"/>
<path d="M18278 20100 c-83 -25 -174 -127 -203 -227 -15 -54 -7 -144 19 -196
85 -174 228 -235 386 -164 48 22 126 87 153 127 28 44 49 133 43 191 -6 59
-55 156 -101 198 -73 67 -205 99 -297 71z"/>
<path d="M19465 19816 c-118 -38 -194 -95 -280 -207 -60 -79 -72 -104 -106
-229 -27 -102 -10 -243 43 -350 49 -99 170 -235 241 -272 23 -11 57 -31 77
-44 19 -13 53 -26 75 -29 74 -12 166 -14 183 -6 9 5 50 19 90 32 40 12 77 28
83 36 7 7 16 13 21 13 27 0 165 124 211 190 71 100 87 156 92 310 3 85 0 116
-16 165 -62 187 -152 299 -292 370 l-79 39 -136 3 c-120 2 -146 -1 -207 -21z"/>
<path d="M5245 19318 c-169 -20 -321 -96 -454 -227 -64 -62 -87 -93 -125 -171
-53 -109 -75 -184 -84 -290 l-7 -75 -87 -45 c-47 -25 -94 -52 -105 -61 -10 -9
-27 -19 -38 -23 -30 -9 -140 -120 -159 -160 -31 -66 -15 -142 39 -185 77 -59
240 -71 517 -35 43 6 50 4 87 -27 220 -188 546 -219 812 -77 73 39 215 160
251 215 38 57 78 139 107 217 l26 69 150 60 c233 92 348 152 415 216 64 61 78
94 64 149 -28 111 -302 168 -622 131 l-96 -12 -25 34 c-14 19 -57 66 -97 106
-145 143 -363 216 -569 191z m1205 -420 c62 -19 101 -40 114 -61 9 -16 5 -24
-26 -51 -45 -39 -166 -100 -313 -156 -60 -23 -125 -48 -144 -56 -18 -8 -35
-14 -36 -12 -2 2 -8 51 -14 110 -6 59 -20 133 -31 165 -11 31 -20 61 -20 65 0
13 62 16 245 13 114 -2 196 -8 225 -17z m-1845 -525 c10 -38 36 -101 57 -142
21 -41 38 -75 38 -77 0 -2 -94 -16 -140 -20 -14 -2 -65 -3 -115 -4 -106 -2
-161 16 -171 55 -8 32 10 60 80 121 50 45 195 131 222 133 6 1 19 -29 29 -66z"/>
<path d="M20393 18440 c-2 -3 -14 -6 -26 -7 -38 -3 -82 -17 -145 -45 -53 -24
-223 -192 -241 -239 -15 -38 -39 -94 -54 -123 -15 -30 -25 -195 -15 -235 21
-84 26 -98 46 -141 53 -117 142 -218 260 -296 89 -60 119 -68 242 -69 66 0
177 22 186 37 3 4 12 8 20 8 29 0 159 92 224 159 66 68 96 117 123 206 49 159
34 317 -43 457 -6 10 -10 22 -10 28 0 27 -98 135 -163 179 -99 66 -113 70
-280 80 -65 3 -121 4 -124 1z"/>
<path d="M904 17906 c-148 -34 -287 -141 -506 -390 -124 -141 -198 -293 -198
-406 0 -182 130 -338 302 -362 87 -12 100 -9 174 41 49 33 65 51 93 106 67
135 49 246 -63 395 -35 47 -78 93 -95 103 -17 10 -31 21 -31 25 0 4 20 31 45
59 64 73 148 122 220 128 51 4 62 1 130 -36 53 -29 91 -60 132 -107 32 -36 65
-73 74 -82 8 -9 26 -39 40 -66 20 -42 24 -63 24 -149 0 -99 0 -101 -37 -155
-21 -30 -63 -83 -93 -118 -35 -40 -55 -71 -55 -87 0 -17 26 -58 74 -118 40
-51 98 -129 127 -172 77 -112 155 -195 186 -195 31 0 111 65 119 96 4 16 -5
36 -34 73 -58 73 -60 85 -20 129 54 60 128 160 128 172 0 7 8 24 18 38 39 57
99 236 112 333 15 118 6 170 -55 310 -51 118 -105 188 -218 282 -115 96 -191
138 -282 153 -78 13 -253 13 -311 0z"/>
<path d="M3729 17596 c-2 -2 -44 -7 -93 -10 -81 -6 -185 -32 -326 -83 -25 -8
-68 -24 -96 -33 -28 -10 -60 -23 -70 -28 -10 -6 -46 -23 -79 -40 -33 -16 -82
-42 -110 -57 -27 -15 -79 -44 -115 -64 -246 -135 -388 -283 -450 -469 -26 -79
-29 -100 -26 -188 2 -76 9 -116 28 -169 56 -152 109 -215 242 -286 71 -38 89
-43 146 -44 74 0 140 9 167 23 10 6 34 16 53 23 46 17 178 151 212 216 40 76
55 225 32 338 -20 105 -112 321 -141 332 -24 9 -13 22 50 57 112 62 192 87
299 92 99 4 112 1 196 -39 124 -59 289 -382 306 -597 6 -78 -31 -217 -80 -300
-38 -64 -118 -133 -194 -166 -8 -4 -22 -13 -31 -20 -8 -8 -47 -29 -85 -48 -82
-40 -110 -63 -119 -97 -4 -16 9 -78 35 -170 23 -79 50 -173 60 -209 10 -36 25
-90 34 -120 8 -30 24 -86 35 -125 11 -38 34 -111 51 -161 43 -128 72 -139 215
-80 95 38 106 56 86 138 -8 29 -19 64 -26 78 -7 14 -15 43 -18 65 l-6 40 92
50 c50 28 103 59 117 71 14 11 42 30 63 42 109 63 300 253 382 380 6 9 17 24
26 34 28 32 87 153 113 229 35 105 46 322 22 460 -39 225 -162 476 -315 641
-79 86 -245 186 -384 233 -52 17 -207 53 -227 52 -9 0 -27 3 -41 6 -14 4 -28
5 -30 3z"/>
<path d="M1712 16358 c-133 -22 -257 -172 -256 -309 1 -128 73 -234 199 -294
86 -42 141 -45 232 -14 95 31 145 84 176 184 22 70 24 89 17 150 -10 90 -19
112 -80 189 -77 98 -142 119 -288 94z"/>
<path d="M2010 15474 c-8 -1 -66 -8 -129 -15 -63 -6 -126 -18 -140 -25 -14 -8
-32 -14 -39 -14 -11 0 -76 -27 -142 -60 -39 -19 -69 -38 -111 -72 -26 -21 -51
-38 -57 -38 -5 0 -15 -7 -22 -16 -8 -8 -27 -21 -44 -28 -17 -8 -54 -33 -83
-57 -28 -24 -78 -66 -112 -93 -69 -56 -261 -251 -370 -375 -68 -78 -163 -213
-202 -289 -70 -134 -100 -303 -78 -429 6 -32 15 -79 19 -104 8 -42 16 -63 42
-109 4 -8 11 -22 15 -30 18 -42 104 -152 163 -208 72 -68 262 -132 393 -132
41 0 167 54 222 94 17 12 38 25 47 29 19 7 99 112 131 172 47 90 68 167 68
250 -1 82 -3 109 -13 135 -3 8 -11 35 -18 60 -40 149 -240 433 -332 471 -15 6
-28 14 -28 18 0 6 81 89 130 133 138 126 299 193 435 181 127 -10 244 -92 435
-303 43 -48 130 -170 130 -183 0 -5 8 -21 19 -35 16 -24 27 -55 31 -87 1 -5 6
-15 10 -21 12 -13 21 -89 24 -184 4 -162 -47 -278 -181 -415 -13 -12 -23 -25
-23 -29 0 -4 -36 -42 -81 -84 -89 -84 -109 -114 -109 -164 0 -33 57 -125 414
-663 171 -257 168 -253 203 -260 52 -11 84 2 176 71 121 91 123 109 34 234
-29 41 -63 94 -76 116 l-23 41 43 41 c24 22 73 75 109 117 36 43 83 98 106
124 73 82 188 281 272 471 25 55 65 196 87 307 11 58 15 114 12 185 -5 107
-32 266 -48 283 -5 5 -9 17 -9 28 0 51 -124 297 -206 407 -93 126 -288 311
-414 392 -62 40 -164 88 -225 106 -112 33 -377 65 -455 56z"/>
<path d="M3940 14960 c-55 -14 -122 -45 -154 -71 -116 -97 -140 -127 -194
-233 -34 -68 -42 -193 -17 -273 52 -167 162 -297 302 -357 92 -39 230 -46 311
-16 188 71 329 278 333 490 1 65 -3 83 -43 200 -41 116 -126 198 -248 241 -72
25 -228 35 -290 19z"/>
<path d="M3160 12542 c-30 -2 -59 -7 -64 -13 -6 -5 -18 -9 -28 -9 -9 0 -42
-11 -72 -25 -30 -14 -57 -25 -61 -25 -22 0 -135 -107 -170 -161 -5 -9 -27 -41
-47 -71 -20 -31 -42 -78 -48 -104 -7 -27 -14 -56 -17 -64 -4 -8 -7 -19 -8 -25
0 -5 -5 -18 -9 -28 -15 -32 0 -169 27 -244 29 -83 63 -135 139 -214 127 -132
265 -198 418 -200 77 -1 225 25 236 42 3 5 13 9 22 9 27 0 150 97 179 141 14
21 29 39 32 39 4 0 13 21 20 48 8 26 18 50 24 53 21 14 57 191 57 281 0 114
-18 175 -91 307 -14 27 -72 105 -94 126 -33 34 -104 85 -118 85 -9 0 -18 4
-22 9 -17 28 -173 50 -305 43z"/>
</g>
</svg>
