<?xml version="1.0" standalone="no"?>
<!DOCTYPE svg PUBLIC "-//W3C//DTD SVG 20010904//EN"
 "http://www.w3.org/TR/2001/REC-SVG-20010904/DTD/svg10.dtd">
<svg version="1.0" xmlns="http://www.w3.org/2000/svg"
 width="4500.000000pt" height="4500.000000pt" viewBox="0 0 4500.000000 4500.000000"
 preserveAspectRatio="xMidYMid meet">

<g transform="translate(0.000000,4500.000000) scale(0.100000,-0.100000)"
fill="#000000" stroke="none">
<path d="M21795 39359 c-2773 -118 -5431 -897 -7810 -2289 -1921 -1124 -3621
-2639 -4967 -4425 -1004 -1333 -1824 -2843 -2379 -4385 -33 -91 -67 -182 -75
-204 l-15 -38 28 6 c15 4 191 59 390 123 l361 116 43 111 c268 700 697 1588
1109 2291 1182 2019 2765 3744 4680 5100 2113 1496 4570 2466 7130 2815 1072
146 2209 186 3275 114 3166 -211 6139 -1317 8681 -3230 920 -692 1813 -1531
2574 -2419 1153 -1346 2084 -2881 2746 -4530 51 -126 98 -233 106 -238 15 -8
762 -247 764 -244 1 1 -37 110 -86 242 -628 1722 -1526 3319 -2669 4750 -189
237 -516 623 -661 780 -26 28 -107 115 -180 195 -233 251 -713 727 -980 970
-2077 1892 -4570 3230 -7280 3904 -1110 277 -2227 436 -3410 486 -266 11
-1103 11 -1375 -1z"/>
<path d="M22085 37570 c-2478 -69 -4865 -732 -7010 -1947 -1985 -1125 -3712
-2711 -5012 -4603 -392 -572 -728 -1143 -1051 -1790 -195 -389 -246 -500 -231
-500 5 0 870 275 1922 611 l1912 611 335 155 c387 180 487 221 701 291 281 93
578 155 882 187 l147 15 373 139 c575 214 662 240 1119 327 23 5 108 117 504
665 261 363 499 688 527 722 289 349 736 621 1189 721 245 54 25 51 4118 51
3617 0 3811 -1 3920 -18 387 -61 702 -191 1001 -413 116 -86 294 -255 373
-353 28 -36 263 -357 522 -715 l470 -650 130 -23 c313 -57 527 -122 1015 -307
352 -133 358 -135 475 -146 386 -37 752 -120 1104 -252 74 -28 295 -124 490
-215 l355 -164 1905 -608 c1048 -335 1915 -611 1927 -615 l22 -7 -20 48 c-54
125 -381 773 -494 978 -965 1746 -2255 3276 -3810 4519 -2781 2224 -6246 3385
-9810 3286z m-2755 -1430 c18 -80 34 -147 36 -149 1 -2 55 40 120 93 64 53
118 95 121 93 2 -2 -17 -69 -41 -148 -24 -79 -43 -145 -42 -145 0 -1 64 9 141
22 77 13 147 24 155 24 8 0 -37 -49 -100 -108 l-114 -108 146 -55 c81 -30 141
-57 135 -60 -7 -4 -76 -21 -154 -39 l-141 -33 99 -120 c55 -66 98 -121 96
-123 -1 -2 -68 17 -147 41 -79 25 -145 43 -147 41 -2 -2 8 -69 22 -151 15 -81
24 -149 22 -151 -2 -2 -51 48 -110 111 l-106 114 -19 -52 c-11 -29 -35 -94
-53 -144 -19 -51 -37 -93 -40 -93 -3 0 -20 66 -39 148 -18 81 -34 148 -35 150
-1 1 -56 -42 -121 -97 -66 -54 -120 -98 -122 -96 -2 2 17 69 41 149 52 171 67
156 -128 122 -71 -13 -131 -22 -133 -21 -3 2 114 116 183 178 22 19 38 37 35
39 -3 3 -69 29 -147 58 -79 29 -142 55 -140 56 1 1 65 17 142 34 77 18 144 36
149 40 4 5 -35 59 -87 122 -52 62 -92 114 -87 116 5 2 70 -16 145 -39 75 -23
138 -39 140 -37 2 2 -7 71 -21 152 -14 82 -24 150 -22 151 2 2 50 -48 108
-111 57 -63 107 -111 110 -106 4 4 28 66 55 137 49 134 55 149 60 143 1 -2 17
-68 35 -148z m-3794 -1270 l38 -90 98 0 98 0 -55 -74 c-30 -41 -55 -80 -55
-87 0 -6 20 -47 45 -91 l45 -80 -63 6 c-34 4 -78 9 -98 12 -36 5 -36 5 -84
-75 -26 -45 -50 -81 -53 -81 -4 0 -23 37 -42 83 l-35 82 -98 3 c-53 1 -97 6
-97 9 0 3 25 39 55 79 30 40 55 75 55 78 0 2 -20 40 -45 84 -25 44 -45 82 -45
84 0 2 26 1 58 -3 136 -17 131 -19 185 71 27 44 49 80 51 80 2 0 20 -40 42
-90z m12969 -162 l48 -108 124 0 c102 0 124 -3 120 -14 -3 -7 -36 -55 -73
-106 -66 -91 -67 -93 -53 -119 41 -71 110 -201 107 -201 -2 0 -59 7 -127 15
-69 8 -126 13 -127 12 -1 -1 -30 -48 -64 -104 -34 -57 -65 -103 -68 -103 -4 0
-27 46 -51 103 -25 56 -48 106 -53 112 -5 5 -64 12 -132 15 l-124 5 74 102 75
101 -60 109 c-33 59 -58 110 -56 112 3 2 59 -2 125 -9 67 -7 123 -11 124 -9 2
2 32 50 66 107 34 57 66 100 70 95 4 -4 29 -56 55 -115z m-6586 -113 c175 -96
210 -334 68 -473 -93 -91 -227 -114 -340 -59 -123 61 -185 185 -163 331 13 87
99 185 193 221 63 24 178 15 242 -20z m8332 -1457 c16 -68 31 -133 34 -146 5
-21 13 -17 106 60 136 112 150 122 145 106 -37 -109 -86 -281 -82 -285 4 -4
238 30 291 43 11 3 -32 -44 -95 -104 -63 -61 -112 -113 -109 -116 3 -4 65 -28
137 -54 72 -26 134 -51 137 -54 4 -3 -56 -20 -132 -38 -180 -41 -169 -37 -151
-58 105 -123 178 -215 174 -219 -3 -3 -66 13 -139 36 -74 22 -139 41 -144 41
-5 0 1 -57 13 -127 36 -198 40 -195 -84 -64 l-107 113 -54 -147 c-32 -85 -57
-141 -61 -133 -4 7 -20 69 -35 138 -15 69 -31 131 -35 138 -4 9 -40 -15 -121
-82 -63 -53 -117 -96 -120 -96 -4 0 13 66 38 146 25 80 43 147 41 148 -1 2
-61 -7 -133 -20 -71 -13 -139 -23 -150 -23 -14 0 13 31 94 108 l113 108 -146
53 c-81 29 -143 56 -139 60 4 4 64 19 133 35 69 15 133 31 142 34 15 5 0 28
-81 126 -54 66 -98 121 -97 122 1 2 67 -17 147 -42 79 -25 146 -45 149 -45 3
0 -6 71 -21 158 l-27 157 112 -118 111 -118 24 68 c50 140 83 224 88 219 3 -2
18 -60 34 -128z m3091 -1870 c63 -19 130 -77 165 -147 104 -199 -38 -432 -262
-430 -81 1 -116 12 -180 56 -151 107 -161 338 -20 461 86 76 180 95 297 60z
m-21955 -314 c179 -85 224 -322 90 -471 -54 -59 -117 -87 -209 -91 -65 -4 -85
0 -131 21 -63 29 -118 81 -149 140 -26 50 -36 168 -19 219 58 177 252 261 418
182z"/>
<path d="M18763 32049 c-157 -15 -327 -77 -464 -169 -136 -92 -188 -158 -839
-1061 l-624 -865 -170 -12 c-275 -19 -564 -74 -806 -156 -58 -19 -294 -106
-525 -194 l-420 -159 -140 -6 c-266 -11 -583 -75 -848 -171 -70 -26 -296 -125
-502 -221 l-375 -173 -2112 -677 c-1162 -372 -3278 -1050 -4703 -1506 -1424
-456 -2609 -836 -2633 -845 -85 -32 -112 -113 -53 -167 17 -17 394 -166 1161
-462 624 -240 1331 -513 1570 -605 239 -92 1574 -607 2966 -1144 l2531 -976
496 0 496 0 533 -304 c608 -346 695 -393 868 -471 615 -279 1209 -434 1849
-484 74 -6 332 -11 573 -11 l439 0 162 -94 c597 -345 1163 -534 1822 -608 98
-11 744 -13 3495 -13 3198 0 3383 1 3520 18 642 80 1201 270 1767 600 l162 94
483 6 c498 6 642 15 927 58 318 48 585 113 901 218 433 145 654 252 1412 687
l548 314 495 0 496 0 752 291 c414 160 860 333 992 384 132 51 888 344 1680
650 792 306 1582 612 1755 679 173 67 931 361 1684 652 972 376 1372 535 1381
549 7 11 16 34 19 50 6 26 1 37 -26 67 -33 37 -63 47 -3503 1143 -1908 609
-3587 1144 -3730 1190 -143 46 -714 228 -1270 405 l-1010 323 -345 159 c-393
183 -463 212 -612 261 -257 85 -607 147 -831 147 -68 0 -94 9 -522 169 -247
93 -486 180 -530 195 -255 82 -627 146 -859 146 l-81 0 -550 762 c-705 977
-741 1024 -817 1090 -127 110 -258 180 -423 225 l-100 28 -3715 1 c-2043 1
-3752 -2 -3797 -7z m417 -193 c0 -2 -173 -309 -385 -682 -253 -445 -385 -687
-385 -706 0 -16 12 -41 29 -60 l29 -33 961 0 961 0 26 26 c22 23 63 146 244
740 l218 714 1618 0 1618 0 192 -625 c106 -344 204 -665 219 -714 16 -53 36
-98 50 -112 l24 -24 961 0 962 0 29 29 c56 56 64 38 -351 771 -209 369 -380
673 -380 676 0 4 105 4 233 2 232 -4 232 -4 330 -37 111 -38 244 -121 319
-198 25 -26 308 -410 628 -853 l581 -805 -2705 -3 c-1487 -1 -3923 -1 -5413 0
l-2709 3 582 805 c612 846 654 898 781 972 79 47 181 87 262 103 59 12 471 22
471 11z m7716 -2253 l215 -158 -2906 -3 c-1598 -1 -4212 -1 -5811 0 l-2905 3
213 78 c117 43 242 86 278 97 202 62 439 110 640 128 53 5 2279 10 5078 11
l4983 1 215 -157z m-526 -534 c129 -94 242 -177 250 -185 12 -12 -948 -14
-6530 -14 -4249 0 -6541 3 -6534 10 18 18 388 177 496 213 189 64 383 108 578
132 84 10 1219 13 5805 14 l5701 1 234 -171z m-125 -677 l520 -287 -100 -3
c-55 -2 -1484 -50 -3175 -106 l-3075 -104 3388 -1 3387 -1 85 -57 c47 -31 83
-58 81 -60 -3 -3 -1621 -58 -3598 -124 -1976 -65 -3615 -120 -3643 -122 -27
-2 1704 -4 3848 -5 l3898 -2 90 -61 c50 -33 89 -62 87 -65 -2 -2 -1847 -64
-4099 -139 -2252 -74 -4110 -136 -4129 -138 -19 -2 1952 -4 4381 -5 l4415 -2
63 -46 c34 -26 60 -48 59 -49 -2 -1 -2030 -70 -4508 -151 l-4505 -149 4815 -5
4815 -5 730 -419 c402 -231 737 -425 745 -433 12 -11 -1064 -13 -6648 -13
-3664 0 -6662 3 -6662 6 0 3 455 642 1011 1420 l1011 1414 3096 0 3097 0 520
-288z m-9565 255 c-19 -13 -1017 -650 -2217 -1415 l-2181 -1392 -2439 2 -2439
3 1060 460 c583 253 1171 508 1306 566 374 162 1455 631 1635 710 88 38 687
298 1330 578 l1170 509 1405 1 1405 1 -35 -23z m12269 -3046 c-36 -21 -120
-66 -185 -99 l-119 -61 -10940 -183 -10940 -183 10504 -5 10504 -5 -49 -22
-49 -21 -9260 -164 -9260 -163 8662 -5 8662 -5 -102 -47 -102 -47 -7595 -148
-7595 -148 6820 -3 6820 -4 -105 -28 c-58 -15 -185 -48 -282 -74 l-177 -46
-5263 -80 c-2895 -45 -5294 -84 -5333 -88 -38 -4 1737 -26 3945 -50 4053 -44
4803 -53 4797 -58 -5 -5 -694 -90 -1085 -134 -2829 -316 -6103 -486 -9922
-516 l-865 -7 -1610 623 c-885 342 -1689 653 -1785 690 -229 89 -2019 781
-2500 967 -206 80 -377 147 -379 149 -2 2 5589 4 12425 4 l12429 0 -66 -39z
m-7384 -3143 c-285 -93 -874 -209 -1485 -292 -1362 -187 -3451 -316 -5175
-320 l-580 -1 -165 81 c-132 65 -885 487 -965 541 -16 11 674 13 4205 12 4209
-1 4225 -1 4165 -21z"/>
<path d="M39012 23476 c-280 -108 -312 -123 -308 -141 3 -11 10 -207 16 -435
20 -721 -12 -1478 -95 -2220 -358 -3189 -1657 -6194 -3746 -8660 -294 -347
-535 -607 -909 -981 -493 -493 -841 -807 -1345 -1210 -3230 -2586 -7250 -3824
-11395 -3509 -1923 147 -3792 638 -5590 1471 -212 98 -773 385 -995 509 -1711
956 -3203 2173 -4466 3645 -1575 1835 -2728 4010 -3350 6319 -303 1124 -469
2164 -541 3391 -12 211 -18 1197 -8 1519 l5 169 -309 119 c-169 66 -309 118
-311 116 -7 -7 -26 -390 -35 -728 -20 -664 16 -1486 96 -2210 188 -1705 628
-3351 1311 -4910 225 -513 526 -1111 803 -1595 2758 -4816 7692 -7975 13190
-8444 857 -74 1754 -82 2605 -26 2935 195 5757 1153 8209 2785 694 462 1350
974 1996 1558 217 196 869 842 1062 1053 1637 1785 2844 3825 3603 6094 589
1759 888 3672 862 5510 -6 388 -22 793 -35 886 l-7 45 -313 -120z"/>
<path d="M37300 22813 c-135 -52 -393 -152 -575 -223 -396 -153 -1871 -724
-2215 -857 -987 -383 -979 -380 -1143 -402 -44 -6 -243 -11 -451 -11 l-374 0
-438 -252 c-705 -404 -1077 -574 -1624 -741 -337 -104 -798 -202 -1083 -232
-57 -6 -67 -10 -62 -24 3 -9 322 -563 708 -1231 385 -668 740 -1282 787 -1365
842 -1460 2894 -5012 2899 -5017 11 -12 318 345 583 677 902 1133 1643 2409
2183 3760 613 1531 947 3039 1055 4765 24 369 24 1251 2 1249 -4 0 -117 -43
-252 -96z m-4345 -3535 c-2 -7 -52 -211 -110 -453 -58 -242 -108 -448 -111
-457 -5 -17 17 -18 375 -18 l381 0 0 470 0 470 160 0 160 0 0 -470 0 -470 155
0 156 0 -3 -152 -3 -153 -152 -3 -153 -3 0 -189 0 -190 -160 0 -160 0 0 190 0
190 -585 0 c-322 0 -585 2 -585 5 0 5 254 1054 285 1178 l17 67 169 0 c130 0
167 -3 164 -12z m2625 8 c0 -3 -216 -369 -479 -813 l-479 -808 -191 -3 c-105
-1 -191 0 -191 2 0 3 178 300 395 661 217 361 395 658 395 660 0 3 -247 5
-550 5 l-550 0 0 150 0 150 825 0 c454 0 825 -2 825 -4z"/>
<path d="M7425 22683 c-8 -225 -2 -589 16 -938 94 -1879 529 -3696 1295 -5410
208 -466 544 -1112 809 -1555 468 -783 1035 -1561 1612 -2213 l105 -119 83
144 c45 79 1033 1789 2195 3802 1161 2012 2114 3665 2117 3672 3 9 -10 15 -44
19 -673 91 -1237 250 -1878 531 -189 82 -415 202 -853 452 l-422 241 -428 3
c-505 5 -469 -1 -858 148 -131 50 -1020 393 -1975 761 -955 368 -1743 671
-1751 674 -14 6 -17 -22 -23 -212z m3245 -4058 l0 -665 748 0 748 0 44 23 c25
12 55 37 67 56 21 31 23 45 23 176 l0 142 -42 -21 c-41 -20 -59 -21 -417 -24
-426 -3 -482 2 -589 54 -122 60 -201 157 -237 295 -17 63 -19 194 -4 258 30
133 133 257 267 324 l85 42 425 3 c402 3 429 2 491 -17 123 -37 233 -126 294
-238 54 -100 57 -133 57 -558 0 -430 -4 -467 -65 -571 -37 -64 -128 -152 -191
-186 -112 -60 -51 -58 -1426 -58 l-1258 0 0 150 0 150 325 0 325 0 0 515 0
515 -300 0 -300 0 0 150 0 150 465 0 465 0 0 -665z"/>
<path d="M11430 18979 c-65 -27 -103 -90 -104 -174 -1 -72 25 -129 74 -163
l34 -23 387 3 388 3 35 34 c45 44 59 87 54 167 -4 68 -21 100 -72 138 -26 20
-41 21 -399 23 -234 1 -381 -2 -397 -8z"/>
<path d="M28210 20004 c-36 -20 -69 -40 -73 -44 -5 -4 84 -178 198 -386 114
-209 502 -919 863 -1579 629 -1153 894 -1637 1652 -3025 191 -349 387 -708
436 -798 l89 -163 3 475 2 475 -511 868 c-281 477 -601 1019 -709 1203 -109
184 -552 936 -984 1670 l-787 1335 -57 2 c-49 3 -66 -2 -122 -33z"/>
<path d="M17046 19707 c-35 -73 -220 -451 -411 -842 -191 -390 -405 -827 -475
-970 -69 -143 -397 -814 -728 -1491 l-602 -1231 2 -711 3 -711 1297 2957 c713
1626 1300 2964 1303 2973 4 12 -6 20 -42 34 -26 10 -101 42 -166 71 l-118 52
-63 -131z"/>
<path d="M27325 19614 c-181 -64 -631 -180 -800 -206 -26 -4 -30 22 71 -425
46 -205 180 -801 298 -1325 118 -524 416 -1844 661 -2933 245 -1089 449 -1995
453 -2013 8 -37 -61 -115 922 1028 107 124 281 326 388 449 148 172 193 229
189 245 -2 12 -314 786 -691 1721 -1213 3002 -1398 3460 -1403 3473 -6 15 -4
15 -88 -14z"/>
<path d="M19184 19306 c-2 -6 -152 -517 -333 -1136 -181 -619 -526 -1795 -766
-2615 -241 -819 -438 -1501 -439 -1515 -1 -18 129 -209 468 -688 258 -364 473
-659 476 -655 9 10 1324 6602 1319 6607 -2 2 -165 6 -362 8 -261 4 -360 2
-363 -6z"/>
<path d="M22480 19293 c0 -20 -557 -5575 -566 -5644 l-6 -47 189 -213 c103
-118 235 -268 293 -334 57 -66 116 -132 130 -148 14 -15 300 -339 635 -720
516 -586 610 -689 613 -667 2 14 -58 1004 -132 2200 -235 3762 -346 5560 -346
5575 0 13 -55 15 -405 15 -375 0 -405 -1 -405 -17z"/>
<path d="M31495 12688 c-95 -258 -112 -302 -121 -304 -5 -1 -79 73 -164 165
-85 93 -156 163 -158 157 -1 -6 15 -111 36 -233 22 -123 36 -223 33 -223 -3 0
-26 6 -51 14 -25 8 -121 37 -215 65 -93 29 -176 54 -183 56 -8 3 6 -18 30 -47
192 -229 266 -324 256 -327 -6 -2 -112 -27 -236 -56 l-226 -51 225 -84 c123
-45 225 -84 227 -85 2 -2 -76 -76 -172 -166 -96 -90 -174 -164 -173 -165 1 -1
103 15 227 37 124 21 230 39 236 39 7 0 -18 -94 -57 -222 -38 -123 -68 -226
-66 -229 1 -3 83 61 181 143 99 82 182 145 186 141 4 -4 26 -91 49 -193 23
-102 47 -203 53 -225 l10 -40 80 215 c43 118 83 219 87 223 5 5 80 -68 167
-162 88 -93 160 -167 161 -163 2 4 -15 108 -36 232 -21 124 -37 226 -36 228 2
2 101 -26 220 -63 119 -36 220 -65 225 -63 4 2 -59 84 -141 182 -82 99 -148
181 -146 182 1 1 105 26 230 55 125 29 224 56 220 60 -5 4 -104 42 -221 85
-117 43 -211 81 -210 84 2 3 80 78 175 166 94 87 170 160 170 160 -1 1 -105
-16 -232 -37 -126 -21 -233 -38 -236 -36 -3 1 25 103 62 226 38 123 68 225 66
227 -1 1 -83 -65 -182 -147 -99 -82 -182 -149 -185 -149 -3 0 -27 98 -54 218
-27 119 -52 223 -56 230 -3 7 -28 -47 -55 -120z"/>
<path d="M13604 12595 c-43 -118 -82 -215 -86 -215 -3 0 -77 76 -164 170 -87
93 -159 168 -161 166 -2 -2 14 -106 36 -232 22 -126 38 -230 36 -232 -2 -2
-105 28 -229 66 -124 38 -226 68 -226 65 0 -2 68 -85 151 -185 87 -105 146
-184 138 -187 -6 -2 -113 -27 -237 -55 l-225 -52 227 -84 c124 -46 226 -86
225 -89 0 -3 -78 -78 -173 -166 -96 -88 -173 -161 -172 -162 0 0 104 16 231
38 126 22 233 38 236 37 4 -2 -24 -104 -62 -227 -37 -124 -67 -226 -66 -227 1
-2 83 65 182 147 98 82 182 149 185 149 3 0 27 -96 54 -212 27 -117 52 -221
55 -231 5 -13 33 51 88 200 45 120 85 218 90 218 4 0 78 -75 163 -166 85 -91
157 -165 159 -163 2 2 -14 105 -34 229 -21 123 -36 227 -33 230 3 4 372 -103
446 -130 12 -4 -45 68 -222 280 -41 50 -70 92 -64 94 6 2 112 27 236 56 153
35 219 54 206 59 -10 4 -102 38 -204 76 -102 38 -196 73 -209 77 -22 9 -12 20
152 173 97 90 175 165 174 166 -1 1 -105 -16 -231 -37 -126 -22 -231 -37 -234
-35 -3 3 25 104 61 224 37 120 67 221 67 225 0 4 -82 -61 -182 -143 -99 -83
-184 -147 -188 -143 -4 4 -29 106 -56 225 -27 120 -52 218 -55 218 -3 0 -42
-97 -85 -215z"/>
<path d="M28124 11176 c-239 -121 -436 -210 -688 -313 -88 -36 -165 -69 -169
-73 -10 -8 121 -340 134 -340 23 0 411 164 620 263 l117 55 266 -562 c146
-308 266 -566 266 -572 0 -6 -30 -25 -67 -42 -38 -16 -142 -64 -233 -105 -91
-41 -255 -112 -364 -156 -110 -45 -201 -83 -202 -84 -2 -2 27 -80 64 -175 l68
-172 195 79 c595 241 987 428 1467 698 362 204 424 243 417 261 -9 25 -175
302 -180 302 -3 0 -94 -51 -202 -113 -208 -120 -503 -277 -519 -277 -5 0 -175
324 -379 720 -203 396 -374 719 -380 718 -5 0 -109 -51 -231 -112z"/>
<path d="M16789 11017 c-573 -423 -1045 -722 -1623 -1032 -106 -57 -108 -58
-87 -74 12 -9 111 -67 221 -129 l200 -112 146 90 146 91 342 -169 c187 -94
407 -198 489 -233 110 -48 148 -69 152 -84 2 -11 12 -90 22 -175 l18 -154 180
-74 c194 -79 584 -227 625 -237 26 -6 27 -4 154 358 70 200 131 369 135 375 6
11 375 -107 391 -125 4 -4 46 -107 95 -228 100 -250 309 -725 320 -725 1 0 99
-24 216 -54 118 -30 243 -61 280 -69 l65 -14 -142 281 c-137 271 -304 626
-304 648 0 6 9 8 23 4 144 -41 313 -50 429 -22 213 50 380 216 428 425 51 222
-44 475 -234 617 -99 74 -158 99 -442 179 -336 95 -573 172 -876 286 -130 49
-238 89 -240 89 -2 0 -152 -380 -333 -844 -182 -464 -333 -839 -336 -833 -9
17 -84 546 -108 762 -28 246 -48 515 -61 795 -5 129 -13 294 -16 366 l-6 131
-34 17 c-19 9 -36 16 -37 16 -2 0 -91 -64 -198 -143z m-64 -1006 c8 -134 13
-246 11 -249 -10 -9 -616 282 -616 296 0 4 50 41 111 82 61 41 191 132 288
202 l176 126 7 -106 c4 -59 14 -217 23 -351z m1633 185 c186 -65 463 -150 652
-202 147 -40 193 -59 227 -96 90 -96 63 -282 -50 -352 -78 -48 -107 -46 -359
24 -213 59 -748 231 -777 249 -11 7 0 48 60 220 41 116 77 211 82 211 4 0 78
-24 165 -54z"/>
<path d="M26835 10629 c-543 -200 -1064 -349 -1602 -460 -182 -37 -213 -46
-213 -62 0 -16 219 -1130 223 -1134 4 -3 514 107 668 145 197 49 560 153 759
218 183 60 243 64 315 19 70 -44 110 -118 110 -207 0 -58 -4 -72 -30 -109 -45
-64 -81 -84 -254 -140 -451 -146 -879 -256 -1411 -362 -76 -16 -73 7 -28 -220
l31 -159 36 7 c546 99 1497 357 1726 470 301 147 459 466 366 737 -76 221
-286 370 -554 394 -107 9 -202 -8 -434 -80 -316 -98 -366 -112 -658 -186 -148
-38 -273 -65 -277 -62 -10 10 -101 403 -95 409 3 2 103 29 224 58 273 67 465
120 686 189 209 66 598 203 610 215 7 7 -104 336 -116 348 -1 0 -38 -12 -82
-28z"/>
<path d="M20091 9893 c-23 -120 -109 -562 -190 -983 -81 -421 -148 -766 -147
-767 2 -4 515 -95 661 -118 452 -70 1087 -125 1578 -137 l129 -3 85 146 86
146 471 7 c259 3 498 9 531 12 l60 5 94 -146 94 -146 76 6 c42 3 147 13 234
21 86 8 164 14 172 14 8 0 -48 88 -134 208 -379 531 -643 956 -947 1520 l-109
202 -43 0 -44 0 -103 -214 c-204 -421 -419 -812 -661 -1204 l-119 -194 -163 6
c-185 7 -482 29 -687 52 -205 22 -709 94 -718 103 -8 8 52 411 64 425 4 4 135
-10 291 -33 311 -44 601 -75 863 -91 94 -6 191 -12 217 -15 l46 -4 6 67 c3 37
8 121 12 187 l6 121 -206 12 c-244 15 -461 34 -681 62 -187 24 -488 70 -494
75 -6 6 60 419 68 428 4 4 79 -4 167 -17 340 -53 647 -87 974 -106 96 -5 205
-12 241 -14 l67 -5 6 132 c4 73 8 157 9 187 l2 55 -55 3 c-563 25 -1013 75
-1517 168 -133 24 -244 44 -246 44 -2 0 -23 -98 -46 -217z m2773 -857 c53 -98
195 -348 264 -463 l30 -51 -46 -6 c-73 -8 -632 -19 -632 -12 0 3 33 68 74 144
41 75 114 217 162 315 49 97 90 177 91 177 1 0 27 -47 57 -104z"/>
</g>
</svg>
