<?xml version="1.0" standalone="no"?>
<!DOCTYPE svg PUBLIC "-//W3C//DTD SVG 20010904//EN"
 "http://www.w3.org/TR/2001/REC-SVG-20010904/DTD/svg10.dtd">
<svg version="1.0" xmlns="http://www.w3.org/2000/svg"
 width="626.000000pt" height="626.000000pt" viewBox="0 0 626.000000 626.000000"
 preserveAspectRatio="xMidYMid meet">

<g transform="translate(0.000000,626.000000) scale(0.100000,-0.100000)"
fill="#000000" stroke="none">
<path d="M3040 5343 c-25 -2 -101 -10 -170 -18 -90 -11 -135 -12 -160 -5 -19
5 -52 10 -73 10 -98 0 -285 -75 -352 -140 -43 -41 -74 -57 -252 -125 -125 -48
-160 -73 -322 -235 -53 -52 -112 -104 -131 -115 -19 -11 -44 -35 -55 -53 -11
-19 -44 -61 -73 -95 -29 -34 -85 -105 -124 -157 -40 -52 -91 -116 -114 -142
-39 -44 -42 -52 -49 -125 -4 -43 -13 -93 -21 -110 -8 -18 -21 -49 -29 -68 -28
-65 -4 -36 30 38 22 46 37 95 41 135 7 59 11 68 58 119 65 70 224 288 271 370
31 54 44 67 91 89 31 14 90 58 132 98 42 39 93 82 112 96 19 13 51 38 71 55
20 18 67 44 105 59 38 14 128 58 199 97 120 65 133 74 80 53 -18 -7 -19 -6 -6
10 23 27 79 52 207 91 104 32 130 36 209 33 73 -2 513 7 665 13 19 1 -26 7
-100 15 -136 12 -158 13 -240 7z"/>
<path d="M3450 5333 c19 -2 100 -20 180 -40 110 -29 151 -44 176 -65 50 -44
121 -70 214 -78 79 -6 91 -11 172 -59 48 -28 123 -85 168 -126 100 -92 304
-239 374 -270 35 -15 70 -43 102 -78 57 -64 196 -293 214 -352 17 -55 33 -97
69 -184 17 -40 38 -100 47 -134 8 -33 29 -88 46 -121 18 -34 39 -88 49 -121
11 -38 18 -50 18 -34 1 28 -24 105 -57 179 -12 25 -28 79 -36 120 -9 41 -34
113 -56 158 -22 46 -40 97 -40 112 0 36 -47 127 -135 258 -93 140 -148 200
-211 228 -73 32 -307 195 -379 263 -81 77 -232 157 -330 176 -80 16 -178 59
-209 94 -10 11 -32 25 -50 30 -54 18 -266 51 -314 49 -39 -1 -41 -2 -12 -5z"/>
<path d="M3118 5299 c-35 -20 -15 -69 29 -69 31 0 44 47 18 67 -22 15 -25 16
-47 2z"/>
<path d="M3395 5270 c-27 -30 -12 -34 15 -5 13 14 19 25 13 25 -5 0 -18 -9
-28 -20z"/>
<path d="M2546 5273 c-11 -11 -6 -23 9 -23 8 0 15 4 15 9 0 13 -16 22 -24 14z"/>
<path d="M2768 5263 c-1 -10 -2 -25 -3 -33 0 -8 -5 -21 -9 -29 -7 -11 -3 -13
22 -8 22 5 32 2 36 -10 5 -12 10 -13 18 -5 8 8 8 15 -1 26 -15 17 -11 39 9 48
11 5 9 7 -7 7 -12 1 -25 6 -28 11 -10 16 -35 11 -37 -7z"/>
<path d="M3237 5274 c-3 -3 -3 -12 0 -20 4 -11 9 -12 19 -3 8 6 14 15 14 20 0
10 -24 12 -33 3z"/>
<path d="M3040 5260 c0 -5 12 -10 26 -10 14 0 23 4 19 10 -3 6 -15 10 -26 10
-10 0 -19 -4 -19 -10z"/>
<path d="M3280 5255 c-10 -12 -10 -15 3 -15 8 0 20 7 27 15 10 12 10 15 -3 15
-8 0 -20 -7 -27 -15z"/>
<path d="M3340 5255 c0 -8 5 -15 10 -15 6 0 10 7 10 15 0 8 -4 15 -10 15 -5 0
-10 -7 -10 -15z"/>
<path d="M2513 5240 c4 -16 0 -20 -17 -20 -13 0 -31 -9 -41 -20 -18 -19 -17
-20 3 -20 12 0 22 -4 22 -9 0 -5 12 -11 27 -14 20 -4 34 1 52 19 13 13 30 24
37 24 8 0 14 5 14 10 0 18 -46 11 -69 -11 -28 -27 -38 -18 -16 15 17 25 14 46
-7 46 -6 0 -8 -9 -5 -20z"/>
<path d="M3575 5251 c11 -4 36 -11 55 -15 24 -4 29 -3 15 3 -11 4 -36 11 -55
15 -24 4 -29 3 -15 -3z"/>
<path d="M2922 5222 c-24 -16 -29 -32 -9 -32 8 0 12 -14 12 -40 0 -34 3 -40
21 -40 26 0 54 30 54 58 0 14 7 22 22 24 28 4 36 28 9 28 -11 0 -23 -4 -26
-10 -9 -15 -25 -12 -25 4 0 20 -33 25 -58 8z"/>
<path d="M2629 5228 c-6 -20 -3 -48 5 -49 6 0 1 -4 -11 -9 -13 -5 -23 -14 -23
-20 0 -5 -6 -10 -14 -10 -26 0 -26 -28 0 -34 20 -5 32 0 55 25 16 17 29 38 29
47 0 13 2 13 14 -3 15 -21 46 -14 46 10 0 16 -11 23 -47 28 -12 2 -26 6 -29
10 -7 7 -23 10 -25 5z"/>
<path d="M3580 5217 c0 -9 -8 -20 -17 -26 -10 -5 -14 -13 -10 -17 4 -4 17 2
29 14 17 17 20 24 10 34 -9 9 -12 8 -12 -5z"/>
<path d="M3200 5205 c-7 -8 -8 -15 -2 -15 5 0 15 7 22 15 7 8 8 15 2 15 -5 0
-15 -7 -22 -15z"/>
<path d="M3240 5205 c-10 -12 -10 -15 3 -15 8 0 17 7 21 15 3 8 2 15 -3 15 -5
0 -14 -7 -21 -15z"/>
<path d="M3445 5190 c4 -6 11 -8 16 -5 14 9 11 15 -7 15 -8 0 -12 -5 -9 -10z"/>
<path d="M3028 5136 c-15 -24 -31 -36 -46 -36 -13 0 -53 -7 -89 -17 -57 -14
-74 -24 -126 -75 -34 -33 -56 -63 -51 -66 6 -4 15 -23 20 -42 19 -71 118 -89
239 -43 103 39 152 75 166 124 11 35 10 43 -8 67 -11 15 -40 34 -66 43 -48 16
-52 29 -10 29 19 0 24 5 21 22 -5 34 -25 32 -50 -6z m-83 -102 c32 -34 31 -42
-1 -36 -18 3 -30 0 -36 -12 -5 -9 -16 -16 -23 -16 -18 0 -19 -11 -4 -44 9 -19
9 -29 0 -40 -11 -13 -6 -15 31 -18 l43 -3 -52 -12 c-69 -17 -110 -3 -129 43
-21 49 -5 78 68 124 35 22 67 40 71 40 4 0 19 -12 32 -26z m75 -49 c13 -16 6
-35 -15 -35 -18 0 -28 17 -21 35 7 19 20 19 36 0z"/>
<path d="M3520 5145 c-20 -24 -6 -28 15 -5 10 11 13 20 8 20 -6 0 -16 -7 -23
-15z"/>
<path d="M2734 5140 c-5 -5 -24 -10 -42 -12 -41 -3 -50 -15 -26 -33 27 -20 38
-18 49 8 7 15 17 21 33 19 15 -2 22 2 22 12 0 18 -21 21 -36 6z"/>
<path d="M3396 5135 c-3 -8 -2 -15 3 -15 5 0 14 7 21 15 10 12 10 15 -3 15 -8
0 -17 -7 -21 -15z"/>
<path d="M2307 5126 c-37 -13 -34 -22 11 -30 44 -7 143 -7 124 1 -15 6 -6 23
13 23 9 0 12 -6 9 -15 -5 -12 -2 -14 12 -8 11 4 24 12 29 19 6 7 21 15 35 17
14 2 -27 4 -90 3 -64 0 -128 -5 -143 -10z m73 -16 c0 -5 -9 -10 -21 -10 -11 0
-17 5 -14 10 3 6 13 10 21 10 8 0 14 -4 14 -10z"/>
<path d="M3130 5125 c-10 -12 -10 -15 3 -15 8 0 17 7 21 15 3 8 2 15 -3 15 -5
0 -14 -7 -21 -15z"/>
<path d="M3175 5129 c-4 -6 -5 -13 -2 -16 7 -7 27 6 27 18 0 12 -17 12 -25 -2z"/>
<path d="M2840 5120 c0 -5 7 -7 15 -4 8 4 15 8 15 10 0 2 -7 4 -15 4 -8 0 -15
-4 -15 -10z"/>
<path d="M3799 5093 c-13 -16 -12 -17 4 -4 16 13 21 21 13 21 -2 0 -10 -8 -17
-17z"/>
<path d="M3568 5093 c7 -3 16 -2 19 1 4 3 -2 6 -13 5 -11 0 -14 -3 -6 -6z"/>
<path d="M3645 5090 c-3 -5 -1 -10 4 -10 6 0 11 5 11 10 0 6 -2 10 -4 10 -3 0
-8 -4 -11 -10z"/>
<path d="M2273 5083 c9 -2 23 -2 30 0 6 3 -1 5 -18 5 -16 0 -22 -2 -12 -5z"/>
<path d="M2410 5079 c-165 -15 -190 -22 -190 -55 0 -11 17 -13 81 -9 45 3 87
1 93 -3 15 -9 256 -9 256 1 0 4 -10 7 -22 8 -13 0 -66 6 -118 13 -67 9 -100
10 -112 2 -22 -13 -34 -1 -18 19 8 10 30 15 61 15 26 0 51 5 54 10 3 6 5 9 3
9 -2 -1 -41 -5 -88 -10z m-80 -34 c-7 -8 -21 -15 -32 -15 -17 0 -18 3 -8 15 7
8 21 15 32 15 17 0 18 -3 8 -15z m138 -32 c-10 -2 -28 -2 -40 0 -13 2 -5 4 17
4 22 1 32 -1 23 -4z"/>
<path d="M2523 5083 c9 -2 23 -2 30 0 6 3 -1 5 -18 5 -16 0 -22 -2 -12 -5z"/>
<path d="M3140 5065 c0 -8 7 -15 15 -15 8 0 15 7 15 15 0 8 -7 15 -15 15 -8 0
-15 -7 -15 -15z"/>
<path d="M2683 5063 c-19 -7 -16 -50 3 -57 19 -7 44 10 44 30 0 16 -30 33 -47
27z"/>
<path d="M3220 5035 c-12 -22 -12 -28 3 -42 16 -16 18 -16 34 0 15 14 15 20 3
42 -7 14 -16 25 -20 25 -4 0 -13 -11 -20 -25z"/>
<path d="M3515 5050 c-3 -5 3 -10 14 -10 11 0 23 5 26 10 3 6 -3 10 -14 10
-11 0 -23 -4 -26 -10z"/>
<path d="M3615 5049 c-12 -19 5 -23 22 -6 16 16 16 17 1 17 -9 0 -20 -5 -23
-11z"/>
<path d="M3776 5051 c-4 -7 -5 -15 -2 -18 9 -9 19 4 14 18 -4 11 -6 11 -12 0z"/>
<path d="M2553 5043 c9 -2 23 -2 30 0 6 3 -1 5 -18 5 -16 0 -22 -2 -12 -5z"/>
<path d="M2171 5028 c-1 -24 -23 -68 -33 -68 -5 0 -6 5 -3 11 4 5 4 22 0 36
-5 23 -9 25 -47 20 -23 -3 -53 -15 -67 -26 -14 -12 -60 -44 -101 -73 -67 -46
-242 -193 -309 -258 -40 -39 -219 -243 -238 -270 -9 -14 -48 -65 -87 -114 -69
-86 -72 -93 -98 -200 -42 -168 -71 -217 -163 -271 -13 -8 -23 -45 -40 -145
-13 -74 -32 -175 -44 -225 -11 -49 -22 -106 -24 -125 l-4 -35 -1 37 c-1 20 14
111 33 202 19 92 35 182 35 200 0 70 10 95 45 106 19 6 39 18 45 26 11 12 8
12 -16 -1 -16 -8 -39 -15 -51 -15 -30 0 -32 -5 -48 -117 -9 -54 -27 -152 -41
-218 -15 -66 -27 -144 -27 -174 0 -49 3 -57 36 -88 41 -38 44 -51 52 -213 9
-190 33 -351 70 -475 32 -104 34 -120 24 -160 -15 -59 -10 -74 58 -181 86
-135 154 -220 193 -243 19 -11 80 -63 135 -116 126 -122 201 -188 290 -254 61
-46 125 -120 125 -145 0 -25 57 -77 131 -121 46 -27 107 -69 137 -92 59 -49
91 -64 119 -57 13 4 51 -15 110 -54 93 -60 140 -76 363 -121 30 -6 93 -30 140
-54 78 -38 91 -42 160 -41 77 1 105 10 163 56 26 21 38 23 195 23 193 1 258
14 390 77 82 40 84 41 135 29 51 -12 53 -12 157 34 114 50 133 66 174 138 l27
47 -55 0 c-39 0 -55 4 -60 15 -3 8 -12 15 -20 15 -7 0 -16 10 -18 23 -4 19 0
22 26 22 29 0 31 3 30 33 -2 37 12 41 57 15 26 -16 29 -16 47 0 10 9 26 17 36
17 16 0 15 1 -1 18 -33 33 -70 47 -88 32 -8 -7 -15 -19 -15 -26 0 -11 -19 -14
-80 -14 -72 0 -80 2 -80 19 0 11 -11 28 -25 39 -17 13 -21 22 -13 24 25 9
-129 21 -247 20 -98 0 -110 1 -65 8 30 4 127 8 215 9 l160 0 23 -35 c12 -20
22 -40 22 -45 0 -11 38 -2 58 13 18 16 15 46 -8 60 -11 7 -20 23 -20 35 0 27
-25 53 -50 53 -22 0 -55 -44 -45 -60 4 -6 -21 -10 -76 -10 -95 0 -103 8 -11
11 66 2 87 19 25 19 l-38 0 25 21 c14 11 39 29 55 40 17 10 26 19 20 20 -5 0
-1 4 10 9 17 7 17 9 3 9 -10 1 -20 12 -24 26 -8 33 -49 65 -83 65 -20 0 -23 2
-11 10 11 7 4 10 -27 10 -24 0 -43 5 -43 10 0 13 103 13 117 -1 5 -5 32 -9 59
-7 45 3 49 5 52 30 4 34 -30 57 -55 37 -37 -31 -143 -50 -187 -33 -28 11 -17
24 19 24 19 0 35 5 35 11 0 6 -11 8 -28 4 -16 -3 -49 -1 -75 4 -29 7 -54 7
-69 2 -19 -8 -15 -10 25 -10 49 -1 58 -10 32 -31 -12 -10 -15 -10 -15 4 0 10
-8 16 -22 16 -22 -1 -22 -2 -5 -14 15 -12 12 -13 -25 -9 -24 3 -126 10 -228
17 -102 7 -164 14 -139 15 40 1 46 4 56 29 l10 27 11 -26 c14 -34 29 -39 110
-38 56 1 61 3 32 9 -26 6 -15 7 45 8 51 0 71 -3 55 -8 -21 -6 -22 -8 -8 -14 9
-4 26 -6 39 -4 21 3 21 3 -6 31 -19 19 -38 27 -62 27 -20 0 -32 -4 -28 -10 8
-13 -28 -13 -40 -1 -6 5 -23 11 -40 13 -16 2 57 7 164 11 191 8 194 8 237 -15
l44 -23 43 23 c52 27 63 28 77 2 22 -42 123 -67 148 -37 23 28 24 62 1 91 -44
56 -113 64 -146 16 -18 -25 -43 -26 -43 -1 0 10 -9 30 -21 45 -28 35 -86 36
-118 2 -12 -13 -21 -30 -19 -37 2 -10 -7 -14 -27 -14 -104 0 -575 18 -571 22
7 7 394 4 445 -3 35 -5 43 -4 39 7 -5 16 -65 25 -252 39 l-121 9 135 -3 c161
-4 134 8 -58 25 -73 6 -131 14 -128 16 2 3 69 0 148 -7 79 -6 172 -13 208 -14
97 -5 100 -5 100 -15 0 -4 -11 -6 -25 -3 -15 2 -25 0 -25 -7 0 -6 7 -11 16
-11 8 0 13 -4 9 -9 -11 -18 16 -23 29 -5 13 17 11 53 -3 55 -3 0 -44 4 -91 10
-47 5 -128 11 -180 14 -52 3 -104 7 -115 9 -11 3 -58 6 -105 7 -64 3 -47 5 70
9 85 3 159 2 165 -2 13 -11 53 -10 59 1 8 12 -45 21 -130 21 -41 0 -74 3 -74
8 0 4 51 4 112 0 62 -3 158 -7 212 -7 87 -1 103 -4 122 -22 42 -40 104 0 90
57 -9 36 -43 48 -94 34 -38 -10 -47 -19 -43 -42 3 -19 -50 -6 -74 18 -25 25
-61 26 -76 2 -8 -12 -41 -7 -39 6 1 5 -4 13 -12 17 -9 6 -3 9 17 10 17 0 39 4
50 8 12 5 -39 11 -130 16 -82 4 -181 11 -220 15 -63 8 -60 8 30 4 55 -2 192
-6 305 -8 174 -4 189 -3 96 4 -60 5 -111 12 -114 15 -3 3 30 6 74 6 l79 2 -75
8 c-110 13 -108 18 5 13 58 -3 112 -1 130 5 27 10 25 11 -17 6 -27 -2 -48 0
-48 5 0 5 30 11 68 13 37 2 -59 4 -213 4 -346 0 -385 1 -385 11 0 4 39 6 87 5
48 -1 92 2 98 7 5 4 30 5 55 0 25 -4 70 -4 100 1 30 5 80 10 110 10 49 2 51 2
18 8 -30 5 -36 9 -28 21 5 8 10 30 10 48 0 20 5 32 14 32 7 0 16 9 19 20 5 18
0 20 -59 20 -59 0 -64 2 -70 25 -3 13 -13 30 -21 37 -13 11 -13 13 4 19 10 5
-11 8 -50 8 -38 1 -78 6 -90 13 -12 6 -80 15 -152 19 -123 7 -122 7 40 3 94
-2 194 -7 224 -11 37 -4 52 -3 48 4 -5 7 9 12 37 14 39 4 45 1 59 -23 15 -25
14 -27 -6 -30 -31 -4 -37 -54 -8 -63 24 -7 44 2 36 16 -19 30 51 80 91 65 11
-4 13 1 9 22 l-6 27 17 -22 c16 -22 44 -31 44 -15 0 10 54 8 88 -2 26 -9 29
-31 5 -45 -17 -10 -16 -10 2 -11 11 0 31 -9 45 -20 27 -20 23 -24 -30 -33 -17
-3 -14 -5 13 -6 20 0 37 -5 37 -10 0 -23 -15 -43 -36 -52 -17 -6 -24 -16 -24
-34 0 -18 -5 -24 -17 -23 -22 2 -83 -23 -83 -34 0 -4 8 -8 18 -8 10 0 24 -6
31 -12 10 -11 14 -9 22 5 8 14 18 17 39 12 23 -5 34 1 72 39 75 74 84 157 27
230 l-20 26 68 1 c81 1 51 16 -36 18 -44 1 -60 7 -93 33 -55 43 -116 48 -180
15 -28 -14 -52 -21 -60 -16 -7 5 -36 6 -64 3 -41 -5 -52 -3 -57 10 -4 9 -2 16
3 16 5 0 -3 13 -18 29 l-27 30 -199 1 c-109 0 -216 3 -237 6 -44 7 -93 -2 -84
-16 4 -6 -13 -9 -42 -9 l-48 2 40 7 c22 4 34 8 27 9 -7 0 -11 5 -8 10 3 5 -29
12 -72 16 -165 14 -139 21 68 18 118 -2 235 -8 260 -13 25 -5 68 -7 97 -4 29
2 55 -1 58 -6 3 -6 23 -10 43 -9 30 0 33 2 17 9 -14 6 0 9 45 9 45 1 60 -2 50
-9 -9 -6 -10 -10 -3 -10 6 0 20 10 30 23 15 18 26 21 65 19 44 -3 48 -1 54 23
3 14 4 29 1 32 -4 3 0 15 8 27 20 28 19 49 -6 80 -39 50 -119 24 -119 -39 0
-24 7 -39 26 -54 15 -12 32 -21 39 -21 6 0 12 -7 12 -15 0 -18 -9 -19 -25 -3
-8 8 -15 8 -24 1 -11 -9 -75 -23 -118 -25 -8 0 -21 -6 -29 -12 -12 -9 -13 -8
-6 4 7 12 6 13 -6 4 -8 -6 -52 -10 -104 -9 -49 1 -162 3 -249 3 -88 1 -156 5
-153 8 4 4 71 7 149 7 l143 0 -145 13 c-80 8 -180 15 -222 17 -89 4 -118 17
-38 17 56 0 65 11 11 12 -18 1 -34 5 -38 11 -3 6 14 6 48 1 30 -4 87 -7 127
-5 39 1 72 -1 72 -6 0 -5 30 -8 68 -7 57 2 61 1 27 -6 -27 -5 -7 -7 65 -4 72
2 94 0 70 -6 -27 -6 -17 -7 43 -6 50 2 86 -2 103 -11 34 -17 52 -17 70 2 14
13 13 15 -8 16 -30 2 -50 4 -318 26 -182 15 -214 19 -165 24 52 5 54 6 20 8
l-40 3 40 9 c22 4 54 8 70 7 l30 0 -30 -9 c-20 -5 -4 -7 50 -4 47 2 64 1 40
-3 -33 -6 -21 -9 76 -20 64 -6 143 -11 175 -10 53 1 54 2 15 5 -25 3 -50 10
-55 17 -8 9 -83 19 -241 31 -126 9 -246 21 -265 25 -30 6 -24 8 45 14 118 10
127 13 55 16 l-65 3 55 6 c53 6 50 7 -50 16 l-105 9 60 7 c57 6 55 6 -22 5
-45 0 -79 3 -76 8 5 8 139 5 460 -10 80 -4 103 -2 112 10 7 8 10 20 6 26 -9
14 -28 1 -21 -15 4 -11 -9 -13 -62 -9 -218 14 -461 24 -489 20 -18 -3 -33 -1
-33 4 0 13 140 13 345 -2 183 -12 228 -8 218 18 -5 13 -19 15 -72 14 -36 -2
-149 -1 -251 0 -158 3 -172 5 -95 10 l90 6 -74 2 c-135 4 -66 13 101 14 107 1
144 4 108 8 l-55 7 55 3 c30 1 69 6 85 11 26 7 25 8 -10 4 -22 -3 -132 -5
-245 -5 -136 0 -200 -4 -190 -10 10 -6 11 -10 3 -10 -17 0 -57 40 -48 48 3 3
14 1 25 -6 13 -8 78 -11 212 -10 106 1 175 5 153 8 -22 4 -31 8 -20 10 11 2 3
6 -20 11 -24 4 11 6 90 4 115 -3 122 -3 55 5 -146 18 -160 21 -160 36 0 8 10
15 23 16 12 1 -3 4 -33 8 l-55 7 60 3 60 3 -60 8 c-33 4 -67 6 -77 3 -9 -3
-19 0 -23 6 -4 6 8 11 32 11 l38 2 -40 8 c-26 4 -4 6 60 3 111 -4 93 11 -21
19 -124 7 -76 18 61 13 l140 -5 -132 14 c-145 15 -207 25 -126 21 29 -2 50 1
47 6 -3 4 -22 8 -42 9 -29 0 -33 2 -17 8 l20 8 -20 6 c-11 4 29 4 89 1 118 -6
144 3 103 36 -18 15 -19 20 -8 34 11 13 11 19 1 31 -7 8 -19 15 -26 15 -29 0
-38 117 -12 144 10 9 15 23 12 31 -4 9 4 17 22 21 16 4 37 16 48 26 22 20 24
19 -49 23 -11 1 -26 4 -32 8 -6 4 -24 -4 -40 -17 -27 -23 -35 -24 -106 -19
-42 3 -77 10 -77 14 0 11 -77 12 -82 1 -1 -4 -30 -5 -63 -1 -49 5 -53 6 -19 8
22 0 43 4 47 7 3 3 70 6 149 6 153 1 150 2 -74 19 -162 12 -265 30 -133 23 44
-3 93 -7 108 -9 16 -3 25 -1 22 5 -3 5 18 10 47 12 47 3 40 5 -55 17 -60 8
-106 18 -104 24 1 5 49 11 106 13 57 2 106 5 108 8 2 2 -40 7 -94 12 -95 8
-97 9 -43 15 52 5 53 6 13 7 -24 1 -43 6 -43 11 0 4 33 6 73 4 261 -15 294
-15 294 -2 0 11 -30 14 -141 16 -78 1 -161 5 -184 8 -40 6 -42 8 -25 20 16 13
10 14 -49 15 -43 0 -68 4 -68 11 0 8 14 9 43 5 24 -4 54 -2 68 3 l24 9 -25 11
c-22 10 -19 11 22 7 39 -5 46 -3 42 9 -6 14 -21 17 -99 20 -16 0 -37 4 -45 7
-8 4 -24 9 -35 11 -13 3 -4 7 23 12 23 4 40 10 37 13 -9 10 -86 2 -106 -11
-17 -10 -23 -9 -34 7 -11 14 -22 17 -45 13 -17 -4 -30 -2 -30 3 0 14 64 12 78
-2 10 -10 15 -10 22 2 7 11 3 17 -13 24 -19 8 -20 10 -4 13 9 3 17 9 17 14 0
16 -26 10 -45 -11 -10 -11 -27 -20 -38 -20 -19 0 -19 1 -3 19 31 34 2 30 -37
-5 -35 -32 -48 -68 -28 -76 12 -4 -5 -48 -19 -48 -7 0 -8 6 -1 17 7 13 4 22
-11 34 -16 15 -17 20 -6 38 7 12 16 21 20 21 14 0 78 68 78 83 0 9 5 19 10 22
17 11 12 38 -6 31 -10 -4 -23 2 -34 16 -10 13 -40 32 -68 42 -62 24 -59 45 7
48 l46 1 -45 7 c-25 4 -35 8 -22 8 12 1 22 7 22 12 0 14 -44 12 -59 -2 -10
-11 -11 -10 -6 5 6 13 2 17 -16 19 -13 1 1 4 31 8 52 6 53 7 13 8 -23 1 -48 8
-56 16 -8 8 -27 16 -43 19 -16 2 4 5 45 6 41 0 71 4 67 8 -3 4 -41 7 -84 6
-42 0 -67 1 -54 4 12 2 22 8 22 13 0 7 33 6 145 -1 31 -3 45 0 45 9 0 5 -12 9
-27 9 -67 2 -173 17 -173 24 0 4 28 10 63 12 34 2 -1 4 -78 5 -102 2 -135 5
-122 13 9 6 25 8 35 5 9 -3 44 -1 77 3 l60 8 -75 2 c-58 2 -71 5 -59 13 14 10
14 13 -3 30 -10 10 -22 18 -28 18 -5 0 -10 5 -10 10 0 6 18 8 45 5 28 -4 45
-2 45 5 0 5 8 10 18 11 9 0 4 5 -13 10 -16 4 -40 6 -54 2 -17 -4 -22 -2 -17 6
4 6 33 12 64 12 51 1 53 2 22 9 l-35 7 35 3 c28 2 21 5 -29 12 -55 9 -66 8
-76 -6 -13 -17 -35 -22 -35 -7 0 5 7 12 16 15 8 3 12 10 9 16 -4 6 -11 7 -17
4 -7 -5 -8 -2 -3 5 15 25 -32 -8 -53 -36 -11 -16 -24 -25 -28 -21 -4 5 1 17
11 28 10 11 13 20 8 20 -6 0 -16 -6 -22 -14 -7 -8 -34 -22 -62 -32 -27 -10
-49 -22 -49 -26 0 -4 -5 -8 -11 -8 -5 0 -7 5 -4 10 13 21 -35 9 -64 -16 -17
-14 -31 -21 -31 -15 0 5 5 13 10 16 22 14 8 24 -27 20 l-38 -5 34 9 c19 5 40
7 47 4 18 -7 117 43 173 87 48 38 79 94 68 123 -3 7 -6 5 -6 -5z m-393 -261
c-88 -103 -112 -129 -147 -166 l-34 -36 35 45 c110 144 182 229 190 224 5 -3
-15 -33 -44 -67z m74 6 c-11 -16 -35 -41 -53 -58 -28 -25 -30 -26 -14 -5 26
33 78 90 83 90 2 0 -6 -12 -16 -27z m142 2 c-6 -16 -24 -21 -24 -7 0 11 11 22
21 22 5 0 6 -7 3 -15z m106 5 c0 -5 -5 -10 -11 -10 -5 0 -7 5 -4 10 3 6 8 10
11 10 2 0 4 -4 4 -10z m138 -27 c-10 -2 -28 -2 -40 0 -13 2 -5 4 17 4 22 1 32
-1 23 -4z m-150 -10 c-27 -2 -69 -2 -95 0 -27 2 -5 3 47 3 52 0 74 -1 48 -3z
m-222 -32 l-28 -29 28 -5 c25 -3 23 -4 -8 -6 -23 0 -38 -6 -39 -13 0 -8 -2 -9
-5 -2 -5 11 55 83 70 83 6 1 -3 -12 -18 -28z m259 9 c-3 -5 -11 -10 -16 -10
-6 0 -7 5 -4 10 3 6 11 10 16 10 6 0 7 -4 4 -10z m85 0 c0 -5 -5 -10 -11 -10
-5 0 -7 5 -4 10 3 6 8 10 11 10 2 0 4 -4 4 -10z m-140 -40 c0 -5 -5 -10 -11
-10 -5 0 -7 5 -4 10 3 6 8 10 11 10 2 0 4 -4 4 -10z m55 0 c-3 -5 -10 -10 -16
-10 -5 0 -9 5 -9 10 0 6 7 10 16 10 8 0 12 -4 9 -10z m-115 -10 c0 -5 -4 -10
-10 -10 -5 0 -10 5 -10 10 0 6 5 10 10 10 6 0 10 -4 10 -10z m117 -76 c-3 -3
-12 -4 -19 -1 -8 3 -5 6 6 6 11 1 17 -2 13 -5z m-184 -11 c-7 -2 -21 -2 -30 0
-10 3 -4 5 12 5 17 0 24 -2 18 -5z m134 1 c-3 -3 -12 -4 -19 -1 -8 3 -5 6 6 6
11 1 17 -2 13 -5z m189 -21 c-10 -11 -37 -12 -30 -2 3 5 12 9 21 9 9 0 13 -3
9 -7z m111 1 c-3 -3 -12 -4 -19 -1 -8 3 -5 6 6 6 11 1 17 -2 13 -5z m-157 -43
c0 -5 -11 -16 -25 -25 -29 -19 -33 -11 -8 16 17 19 33 24 33 9z m143 -48 c-19
-7 -16 -23 5 -23 21 -1 -81 -39 -123 -47 -17 -3 -53 -27 -84 -57 l-55 -51 52
59 c29 33 52 65 52 72 0 14 32 24 81 24 23 0 42 7 54 20 10 11 21 17 24 14 3
-4 0 -9 -6 -11z m97 2 c-7 -8 -16 -15 -21 -15 -5 0 -6 7 -3 15 4 8 13 15 21
15 13 0 13 -3 3 -15z m-404 -52 c-7 -7 -77 -5 -85 3 -2 2 17 4 44 4 27 0 45
-3 41 -7z m-283 -79 c40 -21 85 -62 102 -94 19 -37 26 -100 16 -140 -9 -35 -9
-35 -10 14 -2 98 -68 177 -160 192 -54 9 -129 -18 -192 -68 -28 -22 -53 -38
-55 -35 -10 10 89 106 128 126 52 25 126 27 171 5z m523 5 c12 -20 -14 -35
-37 -21 -17 11 -24 9 -49 -17 -37 -36 -39 -75 -6 -115 20 -26 31 -30 84 -34
44 -3 62 -8 62 -18 0 -14 -15 -16 -131 -18 -32 -1 -35 2 -37 28 -2 15 -9 38
-17 49 -23 33 -19 90 8 114 38 35 109 53 123 32z m-48 -73 c-3 -12 2 -28 9
-35 10 -9 10 -17 3 -31 -12 -23 -33 -26 -47 -7 -13 17 -14 90 0 99 19 11 39
-4 35 -26z m-120 -53 c-10 -2 -28 -2 -40 0 -13 2 -5 4 17 4 22 1 32 -1 23 -4z
m602 -43 c0 -5 -12 -10 -27 -9 l-28 1 25 8 c14 4 26 8 28 9 1 1 2 -3 2 -9z
m-103 -6 c-3 -3 -12 -4 -19 -1 -8 3 -5 6 6 6 11 1 17 -2 13 -5z m23 -24 c0
-12 -28 -25 -36 -17 -9 9 6 27 22 27 8 0 14 -5 14 -10z m84 -5 c-4 -8 -12 -15
-20 -15 -17 0 -18 17 -1 23 22 9 27 7 21 -8z m92 -10 c-4 -10 1 -15 16 -15 12
0 19 -3 16 -6 -3 -3 -22 -2 -41 1 -25 5 -34 11 -30 21 3 8 14 14 25 14 14 0
18 -5 14 -15z m-1392 -33 c-4 -18 -10 -32 -15 -32 -12 0 -11 14 3 45 15 32 20
27 12 -13z m852 7 c8 -14 -11 -33 -25 -25 -11 7 -4 36 9 36 5 0 12 -5 16 -11z
m454 -9 c0 -5 -9 -9 -20 -7 -31 5 -36 17 -7 17 15 0 27 -4 27 -10z m-410 -10
c0 -5 -7 -10 -16 -10 -8 0 -12 5 -9 10 3 6 10 10 16 10 5 0 9 -4 9 -10z m156
-5 c-1 -9 -5 -15 -9 -15 -4 0 -11 0 -17 0 -5 0 -10 7 -10 15 0 8 9 15 19 15
12 0 18 -6 17 -15z m257 -12 c-7 -2 -21 -2 -30 0 -10 3 -4 5 12 5 17 0 24 -2
18 -5z m92 -3 c3 -6 -5 -10 -19 -10 -14 0 -28 5 -31 10 -3 6 5 10 19 10 14 0
28 -4 31 -10z m-469 -58 l-29 -27 23 32 c13 18 26 30 29 28 3 -3 -8 -18 -23
-33z m99 28 c-3 -5 -11 -10 -16 -10 -6 0 -7 5 -4 10 3 6 11 10 16 10 6 0 7 -4
4 -10z m95 0 c0 -5 -7 -10 -16 -10 -8 0 -12 5 -9 10 3 6 10 10 16 10 5 0 9 -4
9 -10z m80 0 c0 -5 -4 -10 -10 -10 -5 0 -10 5 -10 10 0 6 5 10 10 10 6 0 10
-4 10 -10z m105 0 c-3 -5 -10 -10 -16 -10 -5 0 -9 5 -9 10 0 6 7 10 16 10 8 0
12 -4 9 -10z m105 -6 c0 -2 -9 -4 -21 -4 -11 0 -18 4 -14 10 5 8 35 3 35 -6z
m-230 -24 c0 -5 -7 -10 -16 -10 -8 0 -12 5 -9 10 3 6 10 10 16 10 5 0 9 -4 9
-10z m100 0 c0 -5 -7 -10 -16 -10 -8 0 -12 5 -9 10 3 6 10 10 16 10 5 0 9 -4
9 -10z m-1318 -70 c-11 -30 -5 -40 32 -54 15 -5 16 -9 6 -21 -10 -11 -16 -12
-26 -4 -7 6 -19 9 -26 6 -8 -4 -7 -6 5 -6 19 -1 24 -27 5 -33 -16 -6 3 -33 22
-33 8 0 15 -9 16 -20 2 -36 6 -40 13 -15 6 21 14 26 49 28 33 2 42 0 42 -12 0
-9 -6 -16 -13 -16 -7 0 -18 -9 -25 -20 -12 -19 -10 -20 40 -20 79 0 125 17
177 63 l46 42 -36 -44 c-57 -71 -88 -83 -194 -78 -49 3 -98 9 -108 12 -29 12
-67 87 -67 133 0 22 10 63 23 91 23 52 37 53 19 1z m1193 40 c-3 -5 -10 -10
-16 -10 -5 0 -9 5 -9 10 0 6 7 10 16 10 8 0 12 -4 9 -10z m190 -10 c-3 -5 -11
-10 -16 -10 -6 0 -7 5 -4 10 3 6 11 10 16 10 6 0 7 -4 4 -10z m-1248 -45 c7
-20 -2 -29 -21 -22 -9 4 -13 13 -10 22 8 19 23 19 31 0z m285 -17 c-7 -7 -12
-8 -12 -2 0 14 12 26 19 19 2 -3 -1 -11 -7 -17z m658 14 c0 -4 -9 -8 -19 -8
-11 0 -17 4 -15 8 3 4 12 8 20 8 8 0 14 -4 14 -8z m137 -8 c-3 -3 -12 -4 -19
-1 -8 3 -5 6 6 6 11 1 17 -2 13 -5z m-807 -37 c0 -17 -34 -49 -43 -41 -7 8 22
54 34 54 5 0 9 -6 9 -13z m892 -9 c-7 -7 -12 -8 -12 -2 0 6 3 14 7 17 3 4 9 5
12 2 2 -3 -1 -11 -7 -17z m-1204 -32 c5 -24 -10 -38 -31 -30 -20 7 -22 25 -5
42 16 16 32 10 36 -12z m1042 -6 c0 -6 -25 -9 -57 -9 -56 2 -56 2 -18 9 61 11
75 11 75 0z m200 -16 c0 -2 -18 -4 -41 -4 -22 0 -38 4 -35 8 5 8 76 4 76 -4z
m-1647 -106 c-5 -121 -8 -142 -21 -134 -4 3 -2 51 5 108 7 57 12 111 13 121 0
9 2 17 4 17 3 0 2 -51 -1 -112z m1690 105 c-7 -2 -19 -2 -25 0 -7 3 -2 5 12 5
14 0 19 -2 13 -5z m177 -5 c0 -9 -76 -6 -85 4 -2 2 16 4 40 4 25 1 45 -3 45
-8z m156 1 c3 -5 -1 -9 -9 -9 -7 0 -24 -11 -37 -25 -29 -31 -6 -34 27 -4 l22
22 -9 -34 c-6 -19 -10 -35 -10 -36 0 -5 -45 -3 -67 3 -24 7 -32 24 -10 24 15
1 52 50 37 50 -6 0 -9 4 -6 9 3 5 17 9 31 9 14 0 28 -4 31 -9z m-1462 -16 c4
-9 0 -23 -9 -32 -13 -14 -17 -14 -31 1 -9 9 -14 24 -11 32 8 21 43 20 51 -1z
m895 -28 c85 -44 151 -157 151 -260 0 -42 3 -55 15 -55 8 0 15 -5 15 -11 0 -6
-7 -9 -14 -6 -10 4 -17 -2 -21 -16 -18 -61 -20 -57 39 -57 33 0 56 -4 56 -11
0 -6 -21 -9 -57 -8 -48 2 -58 0 -64 -17 -7 -17 -8 -17 -8 4 -1 12 -7 22 -13
22 -10 0 -9 3 1 9 10 7 13 27 9 87 -6 97 -35 161 -103 223 -87 80 -173 94
-254 40 l-46 -31 35 37 c39 41 61 55 105 66 41 11 118 3 154 -16z m-951 -8 c4
-20 -25 -34 -40 -19 -15 15 -1 44 19 40 10 -2 19 -11 21 -21z m1119 -23 c-3
-3 -12 -4 -19 -1 -8 3 -5 6 6 6 11 1 17 -2 13 -5z m93 -4 c0 -5 -2 -10 -4 -10
-3 0 -8 5 -11 10 -3 6 -1 10 4 10 6 0 11 -4 11 -10z m257 -26 c-3 -3 -12 -4
-19 -1 -8 3 -5 6 6 6 11 1 17 -2 13 -5z m-102 -64 c4 -6 -9 -10 -32 -9 -38 1
-38 1 -8 9 17 4 31 8 32 9 1 0 5 -3 8 -9z m140 0 c3 -5 1 -10 -4 -10 -6 0 -11
5 -11 10 0 6 2 10 4 10 3 0 8 -4 11 -10z m-911 -72 c-3 -13 -11 -30 -17 -38
-6 -8 -7 -12 -3 -8 5 5 16 -1 24 -13 11 -16 12 -23 2 -32 -19 -20 -42 21 -35
63 8 41 13 50 26 50 6 0 7 -9 3 -22z m827 -8 c21 0 39 -4 39 -9 0 -18 43 -7
48 13 5 18 6 18 21 -3 10 -12 35 -25 61 -30 62 -13 -135 -5 -227 9 -38 6 -83
12 -101 13 -57 6 -47 17 16 17 33 0 64 5 67 10 4 6 12 4 21 -5 9 -8 33 -15 55
-15z m-791 -100 c0 -5 -5 -10 -11 -10 -5 0 -7 5 -4 10 3 6 8 10 11 10 2 0 4
-4 4 -10z m-37 -44 c2 -15 14 -36 26 -45 32 -25 26 -72 -11 -85 -22 -8 -32 -6
-48 9 -24 22 -25 38 -5 58 10 10 13 25 9 46 -7 35 2 69 16 55 5 -5 10 -22 13
-38z m672 14 c-3 -5 -10 -10 -16 -10 -5 0 -9 5 -9 10 0 6 7 10 16 10 8 0 12
-4 9 -10z m88 -76 c9 -10 -4 -34 -19 -34 -8 0 -14 9 -14 20 0 19 19 27 33 14z
m-676 -10 c-3 -3 -12 -4 -19 -1 -8 3 -5 6 6 6 11 1 17 -2 13 -5z m593 -4 c0
-5 -5 -10 -11 -10 -5 0 -7 5 -4 10 3 6 8 10 11 10 2 0 4 -4 4 -10z m230 -11
c0 -5 -9 -9 -20 -9 -22 0 -27 16 -7 23 15 5 27 -1 27 -14z m-812 -26 c-25 -4
-26 -5 -10 -24 11 -13 29 -19 57 -19 30 0 36 -3 25 -11 -12 -8 -8 -9 15 -8 47
3 67 0 61 -10 -3 -5 4 -11 16 -15 17 -4 20 -8 11 -17 -6 -6 -17 -8 -25 -3 -7
5 -23 7 -35 6 -12 -2 -25 4 -31 14 -6 11 -11 13 -16 5 -5 -8 -13 -8 -28 0 -16
8 -22 8 -29 -2 -6 -11 -11 -11 -21 -1 -9 9 -8 12 7 12 17 0 17 1 0 20 -10 11
-24 20 -32 20 -14 0 -18 22 -6 33 3 4 20 6 37 6 30 -2 30 -2 4 -6z m45 -20
c-7 -2 -21 -2 -30 0 -10 3 -4 5 12 5 17 0 24 -2 18 -5z m-75 -47 c2 -9 -2 -16
-9 -16 -14 0 -38 30 -39 49 0 19 44 -11 48 -33z m859 38 c-3 -3 -12 -4 -19 -1
-8 3 -5 6 6 6 11 1 17 -2 13 -5z m-557 -24 c0 -5 -4 -10 -9 -10 -6 0 -13 5
-16 10 -3 6 1 10 9 10 9 0 16 -4 16 -10z m363 -37 c-7 -2 -19 -2 -25 0 -7 3
-2 5 12 5 14 0 19 -2 13 -5z m-408 -13 c-3 -5 -10 -10 -16 -10 -5 0 -9 5 -9
10 0 6 7 10 16 10 8 0 12 -4 9 -10z m-670 -67 c-16 -3 -35 -9 -42 -14 -19 -16
-25 -60 -12 -91 12 -30 36 -36 69 -16 15 10 24 10 39 1 16 -10 20 -8 30 10 9
18 10 16 5 -18 -9 -65 -14 -75 -39 -81 -31 -8 -46 2 -89 59 -60 78 -43 159 32
156 34 -2 35 -2 7 -6z m-578 -44 c-3 -12 0 -22 9 -26 9 -3 12 -13 9 -27 -6
-19 -5 -20 8 -3 16 20 57 23 75 5 17 -17 15 -67 -2 -74 -8 -3 -38 11 -66 30
-56 39 -70 42 -102 25 -16 -9 -19 -8 -16 3 3 7 14 14 26 16 13 2 22 11 23 23
1 10 3 24 4 29 1 6 3 12 4 15 0 3 8 5 17 5 12 0 15 -6 11 -21z m1736 -6 c-7
-2 -19 -2 -25 0 -7 3 -2 5 12 5 14 0 19 -2 13 -5z m-213 -23 c0 -5 -7 -10 -15
-10 -8 0 -15 5 -15 10 0 6 7 10 15 10 8 0 15 -4 15 -10z m110 0 c0 -5 -5 -10
-11 -10 -5 0 -7 5 -4 10 3 6 8 10 11 10 2 0 4 -4 4 -10z m115 5 c-23 -8 -83
-10 -79 -3 3 4 24 8 47 7 23 0 38 -2 32 -4z m90 -55 c-16 -4 -43 -8 -60 -8
-29 1 -29 1 5 8 19 4 46 7 60 8 22 0 22 -1 -5 -8z m-92 -27 c-7 -2 -19 -2 -25
0 -7 3 -2 5 12 5 14 0 19 -2 13 -5z m434 0 c-20 -2 -52 -2 -70 0 -17 2 0 4 38
4 39 0 53 -2 32 -4z m-2138 -24 c13 -11 21 -23 17 -26 -4 -4 -19 5 -34 20 -31
31 -19 36 17 6z m1421 -9 c0 -5 -5 -10 -11 -10 -5 0 -7 5 -4 10 3 6 8 10 11
10 2 0 4 -4 4 -10z m-1536 -106 c8 -29 -1 -47 -16 -38 -6 4 -9 1 -6 -7 3 -8
10 -14 16 -14 6 0 16 -5 23 -12 10 -10 9 -14 -4 -19 -23 -9 -21 -19 9 -49 19
-19 24 -32 20 -49 -9 -35 28 -78 60 -70 20 5 24 2 24 -15 0 -15 6 -21 23 -21
16 0 19 3 8 9 -9 6 -11 16 -7 27 7 18 8 18 22 0 7 -11 15 -18 18 -15 32 37 36
163 6 241 -27 73 -18 71 15 -3 33 -73 44 -173 25 -219 -17 -41 -65 -80 -99
-80 -43 0 -91 39 -127 105 -18 32 -31 61 -29 63 2 2 -3 25 -11 50 -7 26 -14
70 -14 99 0 45 2 51 19 46 11 -3 22 -16 25 -29z m2482 28 c-5 -8 -66 -4 -66 4
0 2 16 4 36 4 19 0 33 -4 30 -8z m-680 -43 c3 -6 1 -15 -5 -20 -6 -5 -9 -6 -6
-3 3 4 0 13 -6 21 -8 9 -8 13 -1 13 6 0 14 -5 18 -11z m564 -28 c62 -8 60 -8
-50 -11 -84 -2 -104 -5 -75 -10 l40 -7 -42 -2 c-23 0 -43 3 -45 8 -1 5 -61 14
-133 19 l-130 9 185 1 c102 0 214 -3 250 -7z m-992 -38 c-4 -22 -22 -20 -26 1
-2 10 3 16 13 16 10 0 15 -7 13 -17z m42 -3 c-19 -13 -30 -13 -30 0 0 6 10 10
23 10 18 0 19 -2 7 -10z m-75 -31 c0 -8 -12 -15 -30 -16 -16 -1 -31 -7 -33
-13 -2 -5 -10 -10 -18 -10 -8 0 -14 -4 -14 -8 0 -8 -43 -32 -55 -32 -29 0 70
83 110 93 28 7 40 3 40 -14z m753 14 c-32 -2 -84 -2 -115 0 -32 2 -6 3 57 3
63 0 89 -1 58 -3z m210 -10 c-27 -2 -69 -2 -95 0 -27 2 -5 3 47 3 52 0 74 -1
48 -3z m-255 -10 c-13 -2 -33 -2 -45 0 -13 2 -3 4 22 4 25 0 35 -2 23 -4z
m140 -10 c-18 -2 -48 -2 -65 0 -18 2 -4 4 32 4 36 0 50 -2 33 -4z m105 -10
c-10 -2 -28 -2 -40 0 -13 2 -5 4 17 4 22 1 32 -1 23 -4z m-285 -50 c-7 -2 -21
-2 -30 0 -10 3 -4 5 12 5 17 0 24 -2 18 -5z m302 -13 c18 -7 17 -9 -8 -15 -17
-5 -33 -3 -40 4 -6 6 -43 11 -82 12 -38 0 -90 4 -115 8 -27 5 10 6 90 3 74 -3
144 -8 155 -12z m-2219 -11 c10 -17 -13 -36 -27 -22 -12 12 -4 33 11 33 5 0
12 -5 16 -11z m1094 -4 c0 -8 -9 -15 -20 -15 -11 0 -20 7 -20 15 0 8 9 15 20
15 11 0 20 -7 20 -15z m1198 8 c-10 -2 -26 -2 -35 0 -10 3 -2 5 17 5 19 0 27
-2 18 -5z m-188 -18 l165 -14 -140 6 c-157 6 -311 20 -235 21 25 0 119 -6 210
-13z m-167 -22 c-7 -2 -21 -2 -30 0 -10 3 -4 5 12 5 17 0 24 -2 18 -5z m-833
-17 c0 -20 -27 -39 -45 -32 -8 3 -15 4 -15 2 0 -3 -3 -13 -7 -23 -6 -15 -4
-16 9 -6 16 14 28 8 28 -14 0 -7 -8 -13 -18 -13 -28 0 -42 -20 -35 -51 3 -19
1 -29 -6 -29 -7 0 -10 -11 -7 -27 2 -16 5 -35 5 -42 1 -12 4 -12 13 -3 7 7 21
12 31 12 15 0 18 -5 15 -25 -4 -20 -1 -25 16 -26 19 -1 18 -2 -4 -9 -21 -7
-22 -8 -5 -10 16 -1 15 -3 -7 -12 -27 -9 -41 -48 -17 -48 5 0 7 5 4 10 -3 6 5
10 19 10 21 0 24 -4 20 -25 -2 -14 -1 -25 3 -24 5 1 24 0 43 -1 35 -2 35 -2 6
-9 -18 -4 -30 -13 -32 -24 -2 -15 2 -18 18 -14 14 4 18 2 14 -9 -4 -9 2 -14
17 -15 17 -1 16 -3 -8 -9 -29 -7 -29 -8 10 -10 l40 -3 -35 -6 -35 -7 28 -7
c30 -8 28 -27 -4 -27 -10 0 -19 -4 -19 -10 0 -13 -36 -13 -61 0 -23 13 -26 -6
-6 -35 11 -14 22 -17 55 -12 23 3 42 1 42 -4 0 -5 15 -15 33 -23 l32 -14 -32
-1 c-18 -1 -33 -5 -33 -11 0 -16 -21 -12 -37 8 -9 10 -11 11 -7 2 4 -8 23 -34
42 -57 19 -24 31 -43 27 -43 -11 0 -137 93 -176 130 -34 34 -36 38 -42 121 -3
48 -13 115 -22 150 -27 101 -18 161 35 239 46 68 77 99 98 100 6 0 12 -6 12
-14z m1040 4 c61 -7 62 -7 15 -7 -27 0 -81 3 -120 7 -68 7 -69 7 -15 7 30 0
84 -3 120 -7z m133 -17 c-7 -2 -21 -2 -30 0 -10 3 -4 5 12 5 17 0 24 -2 18 -5z
m-133 -33 c89 -8 86 -9 -43 -4 -76 2 -146 8 -155 14 -12 7 1 8 43 4 33 -3 103
-9 155 -14z m-272 -27 c-10 -2 -26 -2 -35 0 -10 3 -2 5 17 5 19 0 27 -2 18 -5z
m477 -12 c-24 -4 -39 -11 -37 -19 3 -15 -59 -17 -74 -2 -5 5 -68 13 -138 16
-117 6 -129 5 -123 -10 4 -9 3 -16 -2 -16 -5 0 -11 9 -14 20 -5 20 -1 20 211
19 120 -1 199 -5 177 -8z m82 -7 c8 -20 -8 -36 -26 -25 -15 10 -8 41 9 41 6 0
13 -7 17 -16z m-494 -21 c-13 -2 -35 -2 -50 0 -16 2 -5 4 22 4 28 0 40 -2 28
-4z m392 -24 c5 -5 -8 -10 -35 -11 l-45 -1 55 -8 c33 -4 4 -5 -70 -2 -69 3
-156 9 -195 13 -57 7 -45 8 65 6 150 -4 147 0 -10 13 -93 9 -87 9 60 4 91 -2
169 -9 175 -14z m-378 -5 c-3 -3 -12 -4 -19 -1 -8 3 -5 6 6 6 11 1 17 -2 13
-5z m-1382 -94 c0 -7 -6 -15 -12 -17 -8 -3 -13 4 -13 17 0 13 5 20 13 18 6 -3
12 -11 12 -18z m1342 14 c-3 -3 -12 -4 -19 -1 -8 3 -5 6 6 6 11 1 17 -2 13 -5z
m71 -1 c-10 -2 -28 -2 -40 0 -13 2 -5 4 17 4 22 1 32 -1 23 -4z m80 0 c-10 -2
-28 -2 -40 0 -13 2 -5 4 17 4 22 1 32 -1 23 -4z m140 -10 c-21 -2 -57 -2 -80
0 -24 2 -7 4 37 4 44 0 63 -2 43 -4z m132 -10 c-8 -3 -18 -10 -21 -16 -8 -12
-39 -2 -39 13 0 5 17 10 38 9 20 0 30 -3 22 -6z m-1700 -28 c13 -14 19 -25 14
-25 -8 1 -50 50 -41 50 2 0 14 -11 27 -25z m1313 8 c-13 -2 -35 -2 -50 0 -16
2 -5 4 22 4 28 0 40 -2 28 -4z m122 -43 l30 -7 -25 -11 c-14 -6 -20 -11 -15
-12 6 -1 1 -5 -10 -10 -14 -6 -1 -9 45 -11 36 -1 110 -5 165 -9 82 -6 71 -7
-57 -4 -87 3 -165 7 -173 10 -14 6 -14 8 0 18 10 7 12 16 6 25 -8 12 -12 12
-25 2 -13 -11 -16 -11 -16 3 0 17 22 19 75 6z m-1549 -107 c13 -22 21 -24 51
-20 33 6 34 5 17 -8 -24 -18 -68 -19 -83 -1 -20 23 -32 79 -24 111 6 29 7 29
14 -14 5 -24 16 -55 25 -68z m1752 90 c-15 -2 -42 -2 -60 0 -18 2 -6 4 27 4
33 0 48 -2 33 -4z m19 -19 c-3 -3 -12 -4 -19 -1 -8 3 -5 6 6 6 11 1 17 -2 13
-5z m-309 -11 c-10 -2 -26 -2 -35 0 -10 3 -2 5 17 5 19 0 27 -2 18 -5z m422
-17 c0 -2 -7 -7 -16 -10 -8 -3 -12 -2 -9 4 6 10 25 14 25 6z m-303 -13 c-20
-2 -52 -2 -70 0 -17 2 0 4 38 4 39 0 53 -2 32 -4z m23 -113 c0 -5 7 -10 15
-10 8 0 15 -4 15 -10 0 -11 -39 -13 -64 -4 -8 3 -12 12 -9 20 6 16 43 19 43 4z
m-936 -54 c-7 -17 -64 -29 -90 -19 -14 5 -4 10 36 19 30 6 56 12 57 13 1 0 0
-5 -3 -13z m1261 -30 c11 -3 -18 -3 -65 -1 -47 3 -134 6 -195 7 -101 1 -104 2
-40 7 65 6 255 -3 300 -13z m73 -13 c-10 -2 -26 -2 -35 0 -10 3 -2 5 17 5 19
0 27 -2 18 -5z m-2172 -28 c18 -14 16 -14 -16 -9 -44 8 -63 24 -29 24 14 0 34
-7 45 -15z m-79 -22 c-9 -9 -20 -13 -24 -9 -4 4 -1 11 7 16 25 16 35 11 17 -7z
m1013 -3 c0 -13 -7 -20 -20 -20 -11 0 -20 5 -20 10 0 6 -15 11 -32 11 l-33 2
35 7 c60 13 70 11 70 -10z m647 14 c-3 -3 -12 -4 -19 -1 -8 3 -5 6 6 6 11 1
17 -2 13 -5z m-1590 -21 c10 -10 14 -15 8 -12 -29 17 -46 16 -71 -3 l-27 -21
12 20 c18 36 49 42 78 16z m54 -10 c23 -27 22 -74 -1 -112 -27 -43 -33 -36
-14 18 12 36 13 46 2 52 -14 9 -22 59 -9 59 4 0 14 -8 22 -17z m1822 10 c-7
-2 -21 -2 -30 0 -10 3 -4 5 12 5 17 0 24 -2 18 -5z m-863 -32 c44 -7 44 -8
-27 -12 -43 -2 -83 1 -100 8 -26 11 -25 12 27 12 30 0 75 -4 100 -8z m139 -34
c9 0 8 -4 -5 -14 -21 -15 -84 -18 -84 -3 0 14 -37 13 -42 -1 -6 -18 -113 -15
-113 2 0 20 56 28 150 21 44 -3 86 -5 94 -5z m839 -4 c-26 -2 -71 -2 -100 0
-29 2 -8 3 47 3 55 0 79 -1 53 -3z m-140 -30 c-10 -2 -26 -2 -35 0 -10 3 -2 5
17 5 19 0 27 -2 18 -5z m90 -10 c-10 -2 -28 -2 -40 0 -13 2 -5 4 17 4 22 1 32
-1 23 -4z m80 -10 c-10 -2 -28 -2 -40 0 -13 2 -5 4 17 4 22 1 32 -1 23 -4z
m-231 -9 c-3 -3 -12 -4 -19 -1 -8 3 -5 6 6 6 11 1 17 -2 13 -5z m383 0 c0 -2
-10 -14 -22 -26 -20 -20 -33 -22 -152 -23 l-131 -2 110 6 c76 5 95 8 60 11
l-50 3 55 7 55 7 -50 3 c-45 2 -47 3 -20 10 30 8 145 11 145 4z m-312 -11
c-10 -2 -28 -2 -40 0 -13 2 -5 4 17 4 22 1 32 -1 23 -4z m378 -5 c-4 7 -1 12
8 12 9 0 16 -5 16 -10 0 -12 -41 -30 -52 -23 -5 2 -8 -3 -8 -13 0 -11 -6 -15
-19 -11 -14 3 -21 -2 -25 -17 -12 -44 -6 -66 19 -78 29 -13 33 -28 8 -28 -29
0 -53 31 -53 69 1 40 16 66 57 92 21 14 30 16 42 6 12 -9 13 -9 7 1z m87 5
c-7 -2 -19 -2 -25 0 -7 3 -2 5 12 5 14 0 19 -2 13 -5z m-370 -10 c-13 -2 -35
-2 -50 0 -16 2 -5 4 22 4 28 0 40 -2 28 -4z m-130 -20 c-18 -2 -48 -2 -65 0
-18 2 -4 4 32 4 36 0 50 -2 33 -4z m289 -63 c-5 -35 -5 -35 -127 -10 l-90 18
102 1 c56 1 105 5 108 11 10 16 12 12 7 -20z m-229 -47 c-7 -2 -19 -2 -25 0
-7 3 -2 5 12 5 14 0 19 -2 13 -5z m105 -10 c-10 -2 -28 -2 -40 0 -13 2 -5 4
17 4 22 1 32 -1 23 -4z m75 -10 c-7 -2 -19 -2 -25 0 -7 3 -2 5 12 5 14 0 19
-2 13 -5z m-20 -20 c-23 -2 -64 -2 -90 0 -26 2 -7 3 42 3 50 0 71 -1 48 -3z
m-100 -20 c-7 -2 -19 -2 -25 0 -7 3 -2 5 12 5 14 0 19 -2 13 -5z m160 -43 c35
0 57 -4 52 -9 -11 -9 -194 4 -204 15 -3 4 16 4 43 0 27 -3 76 -6 109 -6z m217
-29 c0 -14 -5 -18 -20 -14 -21 5 -25 15 -13 26 13 14 33 6 33 -12z m-80 -1 c0
-5 -9 -10 -20 -10 -11 0 -20 5 -20 10 0 6 9 10 20 10 11 0 20 -4 20 -10z
m-165 -20 c190 -13 228 -18 220 -31 -4 -5 12 -9 37 -9 24 0 52 -7 62 -15 22
-17 56 -20 56 -6 0 5 -6 11 -12 14 -7 2 -1 6 15 9 23 5 27 2 27 -18 0 -15 -6
-24 -15 -24 -8 0 -15 -5 -15 -10 0 -6 -6 -10 -12 -9 -42 5 -47 0 -31 -32 8
-16 13 -42 10 -55 -5 -27 24 -64 50 -64 9 0 11 -5 7 -12 -4 -6 8 -2 28 10 35
22 88 30 88 14 0 -23 -66 -64 -158 -98 -100 -36 -105 -37 -154 -25 l-50 13
-92 -46 c-138 -70 -219 -88 -407 -87 -131 1 -158 -1 -169 -15 -57 -68 -213
-72 -309 -8 -23 15 -64 27 -111 34 -120 18 -290 68 -342 102 -27 16 -48 32
-48 34 0 4 50 -17 65 -27 6 -4 39 -15 73 -24 35 -9 87 -25 115 -36 28 -11 89
-25 135 -30 47 -5 92 -14 101 -19 12 -6 27 1 58 26 23 19 45 34 50 34 4 0 -3
-9 -17 -20 l-25 -20 44 0 c40 0 51 6 113 61 37 33 73 59 79 57 6 -2 -19 -27
-55 -57 -36 -29 -66 -55 -66 -57 0 -2 20 -4 44 -4 36 0 50 6 89 40 25 22 49
40 53 40 4 0 -10 -18 -31 -40 -38 -39 -38 -40 -14 -40 18 0 53 27 124 95 55
52 107 94 115 95 8 0 -12 -27 -46 -60 -45 -43 -57 -60 -45 -63 9 -3 5 -5 -10
-6 -14 0 -38 -14 -55 -32 l-29 -31 35 7 c19 3 54 6 77 5 23 0 44 4 48 10 3 5
2 10 -4 10 -6 0 -8 7 -5 15 4 8 16 15 27 15 12 0 33 12 49 27 24 23 31 25 53
15 29 -13 32 -29 8 -35 -10 -3 2 -5 27 -6 25 0 55 -7 66 -15 16 -11 24 -12 42
-2 21 11 21 14 8 25 -9 8 -27 10 -43 7 -23 -5 -30 -2 -40 19 -6 14 -7 27 -2
31 5 3 12 -2 15 -10 4 -10 17 -16 33 -15 14 0 36 -2 47 -6 27 -8 39 18 18 40
-14 13 -11 15 25 15 22 0 51 -5 65 -11 20 -10 35 -8 73 6 109 40 178 109 153
155 -5 9 -7 19 -5 22 2 2 -12 5 -32 5 -21 1 -39 6 -41 11 -6 18 -142 3 -184
-19 -21 -11 -42 -17 -48 -14 -5 3 -10 2 -10 -2 0 -13 -59 -45 -70 -38 -6 3
-10 2 -10 -4 0 -6 -13 -17 -30 -26 -16 -8 -37 -24 -47 -34 -15 -15 -25 -17
-58 -11 -28 5 -33 8 -14 9 14 0 29 4 33 8 4 4 15 8 24 8 13 0 16 7 14 33 l-4
32 59 1 c32 1 46 4 31 6 -41 6 -34 23 10 25 34 1 33 2 -13 8 -47 6 -47 7 -12
8 21 1 36 6 33 11 -3 5 0 9 7 8 6 0 41 1 77 3 63 4 62 4 -30 10 l-95 6 130 4
c113 3 121 4 60 9 -44 4 -71 11 -72 18 -3 14 40 28 60 20 8 -3 38 -2 68 2 43
5 13 9 -151 20 -113 7 -207 15 -209 17 -7 6 42 5 214 -6z m-1157 -71 c23 -22
42 -45 42 -50 0 -5 5 -9 10 -9 12 0 32 48 25 60 -3 4 2 13 10 20 19 16 29 -6
23 -55 -4 -32 -3 -33 13 -19 16 14 18 14 28 -3 6 -10 11 -14 11 -9 0 5 7 3 15
-4 8 -7 12 -16 9 -21 -8 -14 34 -10 59 5 31 20 87 30 87 17 0 -6 -4 -11 -10
-11 -5 0 -7 -6 -4 -13 2 -7 -7 -24 -21 -37 -14 -13 -25 -27 -25 -31 0 -5 20
-20 45 -35 48 -28 56 -37 27 -32 -23 4 -52 -19 -53 -41 0 -10 -2 -12 -6 -3 -2
6 -9 10 -14 6 -5 -3 -9 -1 -9 5 0 5 5 13 10 16 6 4 7 11 4 17 -4 6 0 15 7 20
11 8 10 9 -4 4 -15 -5 -52 8 -67 24 -5 6 -65 31 -145 61 -60 22 -188 49 -232
49 -28 0 -33 3 -33 25 0 27 18 33 39 13 11 -10 13 -10 7 0 -10 17 19 15 34 -3
14 -17 110 -22 110 -6 0 20 -13 41 -25 41 -17 0 -28 17 -20 30 9 14 7 15 53
-31z m1162 25 c0 -2 -60 -3 -132 -2 l-133 2 115 5 c107 6 150 4 150 -5z m-598
-36 c-6 -6 -15 -8 -19 -4 -4 4 -1 11 7 16 19 12 27 3 12 -12z m458 8 c8 -2
-19 -4 -60 -4 -43 0 -65 3 -51 7 23 6 75 5 111 -3z m-370 -21 c-13 -14 -26
-22 -29 -19 -3 3 5 14 18 25 33 27 39 24 11 -6z m-276 -56 c-8 -14 -34 -11
-34 4 0 8 3 17 7 20 9 9 34 -13 27 -24z m453 15 c-3 -3 -12 -4 -19 -1 -8 3 -5
6 6 6 11 1 17 -2 13 -5z m116 -1 c-18 -2 -48 -2 -65 0 -18 2 -4 4 32 4 36 0
50 -2 33 -4z m400 0 c-7 -2 -21 -2 -30 0 -10 3 -4 5 12 5 17 0 24 -2 18 -5z
m-108 -13 c-3 -5 -12 -10 -18 -10 -7 0 -6 4 3 10 19 12 23 12 15 0z m206 0
c20 -11 27 -44 7 -38 -13 5 -44 48 -34 48 4 0 16 -5 27 -10z m-1646 -10 c-3
-5 -12 -10 -18 -10 -7 0 -6 4 3 10 19 12 23 12 15 0z m73 3 c-10 -2 -28 -2
-40 0 -13 2 -5 4 17 4 22 1 32 -1 23 -4z m900 -10 c-16 -2 -40 -2 -55 0 -16 2
-3 4 27 4 30 0 43 -2 28 -4z m922 -33 c-7 -13 -21 -20 -40 -20 -23 0 -30 4
-30 20 0 17 7 20 40 20 38 0 40 -2 30 -20z m-1700 7 c0 -2 -10 -12 -22 -23
l-23 -19 19 23 c18 21 26 27 26 19z m646 -45 c-23 -23 -33 -6 -10 19 12 13 20
16 22 9 3 -7 -3 -19 -12 -28z m-590 7 c1 -10 -17 -34 -40 -55 l-41 -39 34 38
c19 20 30 37 23 37 -7 0 -12 9 -12 21 0 25 32 23 36 -2z m29 2 c-3 -6 -11 -11
-17 -11 -6 0 -6 6 2 15 14 17 26 13 15 -4z m425 0 c0 -5 -7 -11 -15 -15 -15
-5 -20 5 -8 17 9 10 23 9 23 -2z m559 -17 c-16 -15 -34 -24 -45 -22 -15 3 -10
9 21 26 52 28 55 27 24 -4z m-319 1 c-14 -17 -40 -20 -40 -4 0 5 4 8 9 4 5 -3
12 -1 16 5 3 5 11 10 17 10 7 0 6 -6 -2 -15z m-610 2 c0 -2 -15 -16 -32 -33
l-33 -29 29 33 c28 30 36 37 36 29z m690 -1 c0 -3 -4 -8 -10 -11 -5 -3 -10 -1
-10 4 0 6 5 11 10 11 6 0 10 -2 10 -4z m-621 -39 c-2 -1 -26 -20 -54 -41 l-50
-38 49 46 c28 25 52 43 55 41 2 -3 2 -6 0 -8z m746 -7 c-10 -11 -22 -20 -27
-20 -4 0 -3 9 4 20 7 11 19 20 27 20 11 0 10 -5 -4 -20z m-410 -34 c-27 -24
-52 -42 -54 -40 -8 8 73 84 89 84 8 0 -6 -19 -35 -44z m478 37 c-7 -2 -19 -2
-25 0 -7 3 -2 5 12 5 14 0 19 -2 13 -5z m-778 -73 c-10 -11 -22 -20 -28 -20
-5 0 1 9 14 20 31 25 37 25 14 0z m-45 -34 c0 -2 -8 -10 -17 -17 -16 -13 -17
-12 -4 4 13 16 21 21 21 13z m630 -15 c6 -2 -23 -21 -31 -21 -3 0 -6 6 -6 14
0 7 7 12 16 11 9 -2 18 -4 21 -4z"/>
<path d="M2938 3553 c6 -2 18 -2 25 0 6 3 1 5 -13 5 -14 0 -19 -2 -12 -5z"/>
<path d="M2340 2200 c0 -5 5 -10 11 -10 5 0 7 5 4 10 -3 6 -8 10 -11 10 -2 0
-4 -4 -4 -10z"/>
<path d="M2348 2163 c7 -3 16 -2 19 1 4 3 -2 6 -13 5 -11 0 -14 -3 -6 -6z"/>
<path d="M2343 2135 c0 -8 4 -12 9 -9 4 3 8 9 8 15 0 5 -4 9 -8 9 -5 0 -9 -7
-9 -15z"/>
<path d="M3478 1103 c7 -3 16 -2 19 1 4 3 -2 6 -13 5 -11 0 -14 -3 -6 -6z"/>
<path d="M3425 1060 c-3 -5 1 -10 9 -10 8 0 18 5 21 10 3 6 -1 10 -9 10 -8 0
-18 -4 -21 -10z"/>
<path d="M3470 1061 c0 -6 9 -9 20 -8 11 1 20 5 20 9 0 4 -9 8 -20 8 -11 0
-20 -4 -20 -9z"/>
<path d="M2905 1020 c-7 -11 64 -46 113 -56 24 -5 36 0 63 25 l34 30 -49 1
c-33 0 -56 -6 -70 -17 -16 -14 -18 -14 -8 -2 6 9 9 19 5 22 -10 11 -81 8 -88
-3z"/>
<path d="M3109 994 l-24 -26 25 7 c76 23 101 45 52 45 -18 0 -37 -10 -53 -26z"/>
<path d="M2798 1322 c-41 -25 -34 -35 7 -11 19 12 35 23 35 25 0 8 -16 3 -42
-14z"/>
<path d="M2618 5033 c7 -3 16 -2 19 1 4 3 -2 6 -13 5 -11 0 -14 -3 -6 -6z"/>
<path d="M3810 5030 c0 -5 5 -10 10 -10 6 0 10 5 10 10 0 6 -4 10 -10 10 -5 0
-10 -4 -10 -10z"/>
<path d="M3848 5023 c7 -3 16 -2 19 1 4 3 -2 6 -13 5 -11 0 -14 -3 -6 -6z"/>
<path d="M3485 5009 c-4 -6 -4 -13 -1 -16 8 -8 36 5 36 17 0 13 -27 13 -35 -1z"/>
<path d="M2331 5000 c-37 -4 -57 -12 -67 -25 -8 -11 -22 -29 -30 -39 -16 -18
-15 -19 32 -14 27 3 41 4 32 1 -10 -2 -18 -8 -18 -12 0 -5 -11 -6 -25 -3 -14
2 -25 0 -25 -6 0 -26 150 -26 166 0 4 6 -1 8 -13 4 -11 -4 -31 -2 -44 3 -30
12 -18 14 91 13 l85 0 -90 12 -90 13 80 3 c66 3 71 4 28 7 -44 3 -52 7 -55 26
-3 20 -7 22 -57 17z m29 -13 c0 -2 -11 -14 -24 -26 l-23 -22 4 25 c4 17 12 26
24 26 11 0 19 -1 19 -3z"/>
<path d="M3575 5000 c-3 -5 1 -10 9 -10 8 0 18 5 21 10 3 6 -1 10 -9 10 -8 0
-18 -4 -21 -10z"/>
<path d="M2220 4979 c0 -18 2 -19 15 -5 8 8 15 17 15 20 0 3 -7 6 -15 6 -9 0
-15 -9 -15 -21z"/>
<path d="M2548 4988 c9 -9 15 -9 24 0 9 9 7 12 -12 12 -19 0 -21 -3 -12 -12z"/>
<path d="M2632 4978 c2 -6 11 -12 20 -14 11 -1 15 3 11 12 -6 17 -36 19 -31 2z"/>
<path d="M3280 4969 c0 -11 -4 -18 -9 -15 -12 8 -34 -21 -26 -34 11 -19 45
-11 45 10 0 11 5 20 10 20 6 0 10 9 10 20 0 11 -7 20 -15 20 -8 0 -15 -9 -15
-21z"/>
<path d="M3635 4970 c3 -5 8 -10 11 -10 2 0 4 5 4 10 0 6 -5 10 -11 10 -5 0
-7 -4 -4 -10z"/>
<path d="M3453 4960 c-26 -10 -31 -30 -8 -30 8 0 19 9 25 20 6 11 9 20 8 19
-2 0 -13 -4 -25 -9z"/>
<path d="M3536 4945 c-20 -30 -8 -33 17 -5 19 23 21 30 8 30 -5 0 -16 -11 -25
-25z"/>
<path d="M3605 4960 c-3 -5 -1 -10 4 -10 6 0 11 5 11 10 0 6 -2 10 -4 10 -3 0
-8 -4 -11 -10z"/>
<path d="M3350 4945 c0 -9 5 -15 11 -13 6 2 11 8 11 13 0 5 -5 11 -11 13 -6 2
-11 -4 -11 -13z"/>
<path d="M3775 4950 c-3 -5 1 -10 9 -10 9 0 16 5 16 10 0 6 -4 10 -9 10 -6 0
-13 -4 -16 -10z"/>
<path d="M2518 4943 c12 -2 30 -2 40 0 9 3 -1 5 -23 4 -22 0 -30 -2 -17 -4z"/>
<path d="M2635 4940 c-3 -5 -2 -10 4 -10 5 0 13 5 16 10 3 6 2 10 -4 10 -5 0
-13 -4 -16 -10z"/>
<path d="M3930 4940 c0 -5 5 -10 10 -10 6 0 10 5 10 10 0 6 -4 10 -10 10 -5 0
-10 -4 -10 -10z"/>
<path d="M3635 4930 c4 -6 11 -8 16 -5 14 9 11 15 -7 15 -8 0 -12 -5 -9 -10z"/>
<path d="M3747 4924 c-8 -8 1 -24 14 -24 5 0 9 7 9 15 0 15 -12 20 -23 9z"/>
<path d="M3687 4904 c-8 -8 1 -24 14 -24 5 0 9 7 9 15 0 15 -12 20 -23 9z"/>
<path d="M2523 4883 c9 -2 25 -2 35 0 9 3 1 5 -18 5 -19 0 -27 -2 -17 -5z"/>
<path d="M2618 4883 c12 -2 30 -2 40 0 9 3 -1 5 -23 4 -22 0 -30 -2 -17 -4z"/>
<path d="M3122 4855 c-23 -14 -52 -25 -63 -25 -36 0 -15 -25 27 -31 37 -7 69
5 59 21 -2 4 4 15 15 25 20 18 26 35 13 35 -5 -1 -27 -12 -51 -25z"/>
<path d="M3250 4860 c0 -23 25 -27 33 -6 7 16 -1 26 -20 26 -7 0 -13 -9 -13
-20z"/>
<path d="M2615 4860 c28 -12 67 -12 60 0 -3 6 -23 10 -43 9 -30 0 -33 -2 -17
-9z"/>
<path d="M3170 4835 c0 -9 5 -15 11 -13 6 2 11 8 11 13 0 5 -5 11 -11 13 -6 2
-11 -4 -11 -13z"/>
<path d="M3342 4830 c-13 -21 -9 -40 9 -40 5 0 9 8 9 18 0 10 5 23 12 30 9 9
9 12 -3 12 -8 0 -20 -9 -27 -20z"/>
<path d="M3436 4825 c-9 -14 -12 -25 -6 -25 5 0 13 0 18 0 4 0 7 4 7 9 0 5 3
13 8 17 10 10 9 24 -2 24 -5 0 -16 -11 -25 -25z"/>
<path d="M3513 4838 c-15 -20 -25 -38 -20 -38 3 0 12 11 21 25 17 26 16 35 -1
13z"/>
<path d="M2648 4833 c7 -3 16 -2 19 1 4 3 -2 6 -13 5 -11 0 -14 -3 -6 -6z"/>
<path d="M3834 4803 l-18 -28 24 16 c26 17 38 39 22 39 -5 0 -18 -12 -28 -27z"/>
<path d="M2715 4810 c-4 -6 5 -10 19 -10 14 0 26 5 26 10 0 6 -9 10 -19 10
-11 0 -23 -4 -26 -10z"/>
<path d="M3250 4800 c0 -5 7 -10 15 -10 8 0 15 5 15 10 0 6 -7 10 -15 10 -8 0
-15 -4 -15 -10z"/>
<path d="M3620 4794 c0 -9 5 -14 12 -12 18 6 21 28 4 28 -9 0 -16 -7 -16 -16z"/>
<path d="M4050 4799 c0 -5 5 -7 10 -4 6 3 10 8 10 11 0 2 -4 4 -10 4 -5 0 -10
-5 -10 -11z"/>
<path d="M2718 4783 c6 -2 18 -2 25 0 6 3 1 5 -13 5 -14 0 -19 -2 -12 -5z"/>
<path d="M2423 4773 c9 -2 25 -2 35 0 9 3 1 5 -18 5 -19 0 -27 -2 -17 -5z"/>
<path d="M3167 4773 c-12 -11 -8 -23 8 -23 8 0 15 7 15 15 0 16 -12 20 -23 8z"/>
<path d="M3582 4766 c1 -10 8 -17 13 -17 15 1 12 24 -3 29 -9 3 -13 -2 -10
-12z"/>
<path d="M3843 4768 c2 -7 10 -13 17 -13 7 0 15 6 18 13 2 7 -5 12 -18 12 -13
0 -20 -5 -17 -12z"/>
<path d="M4025 4770 c-3 -5 -2 -10 4 -10 5 0 13 5 16 10 3 6 2 10 -4 10 -5 0
-13 -4 -16 -10z"/>
<path d="M3030 4755 c0 -9 6 -12 15 -9 17 7 21 -11 5 -21 -16 -10 -11 -25 8
-25 19 0 42 18 42 32 0 4 -7 8 -15 8 -9 0 -12 6 -9 15 5 11 -1 15 -20 15 -16
0 -26 -6 -26 -15z"/>
<path d="M3720 4740 c15 -16 31 -30 34 -30 4 0 -3 14 -16 30 -12 17 -27 30
-34 30 -7 0 1 -13 16 -30z"/>
<path d="M4286 4755 c-3 -9 0 -15 9 -15 16 0 20 16 6 24 -5 3 -11 -1 -15 -9z"/>
<path d="M2788 4743 c6 -2 18 -2 25 0 6 3 1 5 -13 5 -14 0 -19 -2 -12 -5z"/>
<path d="M2937 4735 c-9 -7 -14 -15 -10 -18 3 -4 -2 -7 -13 -7 -15 0 -16 -2
-4 -10 10 -6 0 -10 -35 -12 l-50 -4 45 -9 c44 -9 44 -9 15 -15 l-30 -7 29 -13
c25 -13 30 -12 42 5 8 10 12 27 8 37 -4 13 0 18 15 18 28 0 47 36 22 43 -9 2
-25 -1 -34 -8z"/>
<path d="M3417 4743 c-10 -9 -8 -43 2 -43 5 0 14 7 21 15 17 21 -4 48 -23 28z"/>
<path d="M2850 4730 c-8 -5 -28 -10 -44 -10 -41 0 -30 -6 24 -13 41 -5 46 -4
46 13 0 22 -4 24 -26 10z"/>
<path d="M3245 4720 c-13 -14 -22 -17 -35 -10 -25 13 -53 -10 -48 -41 2 -17
10 -25 27 -27 28 -4 53 21 44 44 -3 8 1 14 9 14 8 0 23 9 33 20 15 16 15 20 3
20 -8 0 -23 -9 -33 -20z"/>
<path d="M3345 4720 c-15 -16 -15 -20 -3 -20 8 0 23 9 33 20 15 16 15 20 3 20
-8 0 -23 -9 -33 -20z"/>
<path d="M3767 4710 c-15 -16 -23 -31 -18 -34 5 -3 21 10 35 29 32 42 22 45
-17 5z"/>
<path d="M2323 4723 c9 -2 23 -2 30 0 6 3 -1 5 -18 5 -16 0 -22 -2 -12 -5z"/>
<path d="M3300 4721 c0 -5 -3 -16 -6 -25 -4 -11 -1 -16 10 -16 9 0 16 4 16 9
0 5 3 16 6 25 4 11 1 16 -10 16 -9 0 -16 -4 -16 -9z"/>
<path d="M3680 4710 c0 -5 5 -10 11 -10 5 0 7 5 4 10 -3 6 -8 10 -11 10 -2 0
-4 -4 -4 -10z"/>
<path d="M3124 4696 c-8 -22 3 -33 18 -18 9 9 9 15 0 24 -9 9 -13 7 -18 -6z"/>
<path d="M3460 4670 c0 -5 7 -10 15 -10 8 0 15 5 15 10 0 6 -7 10 -15 10 -8 0
-15 -4 -15 -10z"/>
<path d="M2525 4660 c3 -5 18 -10 33 -10 21 0 24 2 12 10 -20 13 -53 13 -45 0z"/>
<path d="M3830 4650 c6 -11 8 -25 5 -30 -3 -6 1 -7 9 -4 9 3 16 8 16 11 0 12
-22 43 -31 43 -6 0 -6 -7 1 -20z"/>
<path d="M3082 4634 c4 -21 22 -23 26 -1 2 10 -3 17 -13 17 -10 0 -15 -6 -13
-16z"/>
<path d="M3718 4631 c-10 -10 -18 -22 -18 -26 0 -5 5 -4 12 3 7 7 17 8 28 2
13 -7 21 -5 30 5 27 33 -21 48 -52 16z"/>
<path d="M3955 4640 c-8 -12 20 -24 35 -15 6 3 8 11 5 16 -8 12 -32 12 -40 -1z"/>
<path d="M2595 4620 c-3 -5 1 -10 10 -10 9 0 13 5 10 10 -3 6 -8 10 -10 10 -2
0 -7 -4 -10 -10z"/>
<path d="M4028 4623 c6 -2 18 -2 25 0 6 3 1 5 -13 5 -14 0 -19 -2 -12 -5z"/>
<path d="M4098 4623 c7 -3 16 -2 19 1 4 3 -2 6 -13 5 -11 0 -14 -3 -6 -6z"/>
<path d="M4193 4623 c9 -2 23 -2 30 0 6 3 -1 5 -18 5 -16 0 -22 -2 -12 -5z"/>
<path d="M2658 4613 c6 -2 18 -2 25 0 6 3 1 5 -13 5 -14 0 -19 -2 -12 -5z"/>
<path d="M2730 4610 c0 -5 4 -10 9 -10 6 0 13 5 16 10 3 6 -1 10 -9 10 -9 0
-16 -4 -16 -10z"/>
<path d="M3168 4613 c6 -2 18 -2 25 0 6 3 1 5 -13 5 -14 0 -19 -2 -12 -5z"/>
<path d="M3268 4613 c7 -3 16 -2 19 1 4 3 -2 6 -13 5 -11 0 -14 -3 -6 -6z"/>
<path d="M3338 4613 c7 -3 16 -2 19 1 4 3 -2 6 -13 5 -11 0 -14 -3 -6 -6z"/>
<path d="M3520 4600 c0 -5 7 -10 15 -10 8 0 15 5 15 10 0 6 -7 10 -15 10 -8 0
-15 -4 -15 -10z"/>
<path d="M3600 4600 c0 -5 5 -10 10 -10 6 0 10 5 10 10 0 6 -4 10 -10 10 -5 0
-10 -4 -10 -10z"/>
<path d="M2568 4583 c7 -3 16 -2 19 1 4 3 -2 6 -13 5 -11 0 -14 -3 -6 -6z"/>
<path d="M2628 4583 c6 -2 18 -2 25 0 6 3 1 5 -13 5 -14 0 -19 -2 -12 -5z"/>
<path d="M2460 4569 c0 -5 11 -9 25 -9 14 0 25 2 25 4 0 2 -11 6 -25 8 -14 3
-25 1 -25 -3z"/>
<path d="M2728 4573 c6 -2 18 -2 25 0 6 3 1 5 -13 5 -14 0 -19 -2 -12 -5z"/>
<path d="M2805 4570 c11 -5 40 -8 65 -8 41 0 42 1 15 8 -16 4 -46 8 -65 8 -28
1 -31 -1 -15 -8z"/>
<path d="M3115 4570 c-3 -6 5 -10 19 -10 14 0 28 5 31 10 3 6 -5 10 -19 10
-14 0 -28 -4 -31 -10z"/>
<path d="M3214 4569 c-2 -4 0 -9 6 -11 6 -2 1 -22 -12 -47 -27 -55 -29 -122
-5 -149 25 -27 111 -54 141 -43 31 12 73 64 81 100 8 38 -25 104 -64 127 -17
10 -28 21 -26 24 2 4 -23 7 -56 7 -33 0 -62 -4 -65 -8z m42 -94 c-17 -48 -5
-90 33 -110 18 -10 21 -14 9 -15 -9 0 -30 12 -47 26 -37 31 -41 72 -10 116 27
37 32 32 15 -17z m42 -65 c10 0 24 6 31 13 11 10 13 9 7 -6 -3 -10 -6 -21 -6
-23 0 -2 -10 -4 -23 -4 -27 0 -47 17 -47 40 1 12 2 12 11 -2 5 -10 18 -18 27
-18z"/>
<path d="M3667 4562 c-22 -24 -22 -34 0 -30 9 2 17 13 18 26 2 27 2 27 -18 4z"/>
<path d="M2928 4563 c7 -3 16 -2 19 1 4 3 -2 6 -13 5 -11 0 -14 -3 -6 -6z"/>
<path d="M2978 4563 c7 -3 16 -2 19 1 4 3 -2 6 -13 5 -11 0 -14 -3 -6 -6z"/>
<path d="M3802 4535 c-16 -35 -15 -55 3 -55 15 0 35 37 35 66 0 23 -26 16 -38
-11z"/>
<path d="M3970 4550 c0 -13 11 -13 30 0 12 8 11 10 -7 10 -13 0 -23 -4 -23
-10z"/>
<path d="M2858 4543 c12 -2 30 -2 40 0 9 3 -1 5 -23 4 -22 0 -30 -2 -17 -4z"/>
<path d="M2630 4536 c0 -2 9 -6 20 -9 11 -3 20 -1 20 4 0 5 -9 9 -20 9 -11 0
-20 -2 -20 -4z"/>
<path d="M2863 4523 c9 -2 23 -2 30 0 6 3 -1 5 -18 5 -16 0 -22 -2 -12 -5z"/>
<path d="M3565 4521 c-6 -11 9 -23 19 -14 9 9 7 23 -3 23 -6 0 -12 -4 -16 -9z"/>
<path d="M2555 4510 c-3 -5 3 -10 15 -10 12 0 18 5 15 10 -3 6 -10 10 -15 10
-5 0 -12 -4 -15 -10z"/>
<path d="M3106 4511 c-3 -5 0 -14 8 -20 10 -8 16 -8 25 2 6 8 8 17 4 20 -9 10
-31 9 -37 -2z"/>
<path d="M2665 4499 c22 -4 56 -8 75 -7 33 0 32 1 -10 9 -25 4 -58 7 -75 7
-26 0 -25 -1 10 -9z"/>
<path d="M2814 4492 c3 -5 26 -9 51 -11 31 -1 45 2 40 8 -3 6 -26 11 -51 11
-25 0 -43 -4 -40 -8z"/>
<path d="M3029 4474 c24 -30 27 -60 9 -67 -7 -3 -3 -6 10 -6 21 -1 27 12 23
46 -1 8 5 10 14 7 10 -4 15 0 15 11 0 11 -5 15 -15 11 -9 -3 -15 0 -15 9 0 10
-10 15 -31 15 l-30 0 20 -26z"/>
<path d="M2648 4473 c12 -2 32 -2 45 0 12 2 2 4 -23 4 -25 0 -35 -2 -22 -4z"/>
<path d="M2560 4459 c0 -5 9 -9 20 -9 11 0 20 2 20 4 0 2 -9 6 -20 9 -11 3
-20 1 -20 -4z"/>
<path d="M2828 4463 c12 -2 32 -2 45 0 12 2 2 4 -23 4 -25 0 -35 -2 -22 -4z"/>
<path d="M3916 4459 c-14 -9 -16 -13 -5 -20 14 -8 39 6 39 22 0 12 -11 11 -34
-2z"/>
<path d="M2648 4453 c7 -3 16 -2 19 1 4 3 -2 6 -13 5 -11 0 -14 -3 -6 -6z"/>
<path d="M2968 4453 c7 -3 16 -2 19 1 4 3 -2 6 -13 5 -11 0 -14 -3 -6 -6z"/>
<path d="M3690 4445 c0 -8 5 -15 10 -15 6 0 10 7 10 15 0 8 -4 15 -10 15 -5 0
-10 -7 -10 -15z"/>
<path d="M3805 4450 c-3 -5 -1 -10 4 -10 6 0 11 5 11 10 0 6 -2 10 -4 10 -3 0
-8 -4 -11 -10z"/>
<path d="M3975 4449 c-4 -6 -4 -13 -1 -16 8 -8 36 5 36 17 0 13 -27 13 -35 -1z"/>
<path d="M2833 4443 c9 -2 23 -2 30 0 6 3 -1 5 -18 5 -16 0 -22 -2 -12 -5z"/>
<path d="M3485 4430 c-9 -28 12 -52 44 -48 22 2 26 8 26 33 0 26 -4 30 -32 33
-25 2 -33 -1 -38 -18z"/>
<path d="M4095 4440 c-3 -5 1 -10 9 -10 9 0 16 5 16 10 0 6 -4 10 -9 10 -6 0
-13 -4 -16 -10z"/>
<path d="M2709 4427 c5 -5 24 -7 42 -5 33 3 33 4 -8 8 -23 3 -39 2 -34 -3z"/>
<path d="M2963 4433 c9 -2 23 -2 30 0 6 3 -1 5 -18 5 -16 0 -22 -2 -12 -5z"/>
<path d="M2890 4419 c0 -4 21 -9 46 -13 64 -8 80 -8 69 3 -11 10 -115 19 -115
10z"/>
<path d="M4733 4408 c-20 -26 -26 -41 -15 -34 12 7 36 46 29 46 -3 0 -9 -6
-14 -12z"/>
<path d="M4638 4403 c7 -3 16 -2 19 1 4 3 -2 6 -13 5 -11 0 -14 -3 -6 -6z"/>
<path d="M2938 4383 c12 -2 32 -2 45 0 12 2 2 4 -23 4 -25 0 -35 -2 -22 -4z"/>
<path d="M3035 4380 c3 -5 15 -10 26 -10 11 0 17 5 14 10 -3 6 -15 10 -26 10
-11 0 -17 -4 -14 -10z"/>
<path d="M2753 4373 c9 -2 23 -2 30 0 6 3 -1 5 -18 5 -16 0 -22 -2 -12 -5z"/>
<path d="M3045 4351 c33 -10 91 -14 84 -6 -3 2 -30 7 -60 9 -39 4 -46 3 -24
-3z"/>
<path d="M3156 4351 c-3 -5 0 -11 8 -14 15 -6 26 1 26 15 0 11 -27 10 -34 -1z"/>
<path d="M3660 4350 c0 -5 5 -10 10 -10 6 0 10 5 10 10 0 6 -4 10 -10 10 -5 0
-10 -4 -10 -10z"/>
<path d="M3732 4348 c-16 -16 -15 -28 3 -28 8 0 15 2 15 4 0 2 3 11 6 20 7 19
-7 21 -24 4z"/>
<path d="M4048 4353 c7 -3 16 -2 19 1 4 3 -2 6 -13 5 -11 0 -14 -3 -6 -6z"/>
<path d="M2663 4335 c-19 -22 -1 -25 21 -4 14 14 16 19 5 19 -8 -1 -20 -7 -26
-15z"/>
<path d="M3505 4340 c-3 -5 1 -10 9 -10 9 0 16 5 16 10 0 6 -4 10 -9 10 -6 0
-13 -4 -16 -10z"/>
<path d="M3826 4334 c-4 -9 -4 -19 -2 -22 10 -9 36 8 36 23 0 20 -26 19 -34
-1z"/>
<path d="M2748 4333 c12 -2 30 -2 40 0 9 3 -1 5 -23 4 -22 0 -30 -2 -17 -4z"/>
<path d="M3886 4324 c-4 -11 0 -15 16 -12 12 2 23 9 26 16 6 18 -35 15 -42 -4z"/>
<path d="M4015 4319 c-10 -15 1 -23 20 -15 9 3 13 10 10 16 -8 13 -22 13 -30
-1z"/>
<path d="M4816 4315 c-3 -8 -1 -15 4 -15 6 0 10 7 10 15 0 8 -2 15 -4 15 -2 0
-6 -7 -10 -15z"/>
<path d="M4690 4310 c0 -5 4 -10 9 -10 6 0 13 5 16 10 3 6 -1 10 -9 10 -9 0
-16 -4 -16 -10z"/>
<path d="M3206 4292 c-3 -6 -1 -14 5 -17 15 -10 25 3 12 16 -7 7 -13 7 -17 1z"/>
<path d="M3071 4286 c2 -2 21 -6 42 -10 27 -5 37 -4 32 3 -3 6 -22 11 -42 11
-20 0 -34 -2 -32 -4z"/>
<path d="M3160 4265 c0 -8 4 -15 9 -15 5 0 11 7 15 15 3 9 0 15 -9 15 -8 0
-15 -7 -15 -15z"/>
<path d="M4180 4265 c0 -10 8 -14 22 -12 32 5 35 27 4 27 -16 0 -26 -6 -26
-15z"/>
<path d="M4766 4255 c-16 -24 -16 -25 4 -25 15 0 20 7 20 25 0 14 -2 25 -4 25
-2 0 -11 -11 -20 -25z"/>
<path d="M2750 4260 c0 -5 9 -10 20 -10 11 0 20 5 20 10 0 6 -9 10 -20 10 -11
0 -20 -4 -20 -10z"/>
<path d="M4627 4252 c-36 -39 -7 -44 38 -7 l30 24 -26 1 c-14 0 -33 -8 -42
-18z"/>
<path d="M2843 4253 c9 -2 23 -2 30 0 6 3 -1 5 -18 5 -16 0 -22 -2 -12 -5z"/>
<path d="M3305 4250 c-3 -5 -1 -10 4 -10 6 0 11 5 11 10 0 6 -2 10 -4 10 -3 0
-8 -4 -11 -10z"/>
<path d="M3436 4245 c-3 -9 0 -15 8 -15 7 0 19 7 26 15 10 12 9 15 -8 15 -11
0 -22 -7 -26 -15z"/>
<path d="M3682 4241 c16 -25 41 -28 36 -3 -2 9 -14 18 -26 20 -21 3 -22 2 -10
-17z"/>
<path d="M3970 4243 c0 -11 7 -14 25 -11 18 4 26 0 31 -14 3 -11 8 -17 10 -15
3 2 0 16 -7 29 -12 29 -59 37 -59 11z"/>
<path d="M4070 4250 c0 -5 5 -10 10 -10 6 0 10 5 10 10 0 6 -4 10 -10 10 -5 0
-10 -4 -10 -10z"/>
<path d="M2923 4243 c9 -2 25 -2 35 0 9 3 1 5 -18 5 -19 0 -27 -2 -17 -5z"/>
<path d="M3351 4228 c-12 -32 5 -48 24 -22 16 21 15 36 -3 42 -7 2 -16 -7 -21
-20z"/>
<path d="M3093 4233 c15 -2 37 -2 50 0 12 2 0 4 -28 4 -27 0 -38 -2 -22 -4z"/>
<path d="M3178 4233 c7 -3 16 -2 19 1 4 3 -2 6 -13 5 -11 0 -14 -3 -6 -6z"/>
<path d="M4413 4229 c-16 -16 -5 -39 19 -39 14 0 19 6 16 22 -4 25 -19 33 -35
17z"/>
<path d="M4936 4221 c-4 -7 -5 -15 -2 -18 9 -9 19 4 14 18 -4 11 -6 11 -12 0z"/>
<path d="M3168 4213 c6 -2 18 -2 25 0 6 3 1 5 -13 5 -14 0 -19 -2 -12 -5z"/>
<path d="M4722 4190 c-18 -16 -30 -30 -27 -30 3 0 -39 -66 -93 -147 -117 -177
-115 -173 -105 -173 4 1 55 68 113 150 96 137 107 149 130 144 23 -5 23 -4 7
8 -18 13 -17 15 2 40 38 48 20 53 -27 8z"/>
<path d="M2893 4203 c9 -2 23 -2 30 0 6 3 -1 5 -18 5 -16 0 -22 -2 -12 -5z"/>
<path d="M3246 4195 c-3 -9 0 -15 9 -15 8 0 15 7 15 15 0 8 -4 15 -9 15 -5 0
-11 -7 -15 -15z"/>
<path d="M4177 4194 c-8 -8 1 -24 14 -24 5 0 9 7 9 15 0 15 -12 20 -23 9z"/>
<path d="M4769 4128 c-24 -40 -65 -96 -90 -124 -26 -28 -55 -73 -65 -100 -10
-27 -33 -71 -51 -98 -18 -28 -30 -52 -27 -55 8 -8 55 49 49 59 -3 5 -1 11 5
15 6 4 10 -8 10 -29 0 -19 -4 -38 -10 -41 -6 -4 -5 -11 2 -19 10 -10 16 -9 30
8 l18 21 20 -25 c11 -14 20 -33 20 -42 0 -15 27 -38 44 -38 3 0 13 17 22 38
14 30 18 33 21 17 3 -11 9 -24 14 -29 5 -6 9 -16 9 -23 0 -16 -27 -17 -32 -1
-2 6 -10 8 -16 4 -17 -11 -15 -24 5 -22 23 2 35 -47 16 -73 -12 -19 -12 -21 1
-21 9 0 16 -4 16 -10 0 -5 9 -1 20 10 24 24 36 25 44 4 10 -26 7 -34 -16 -44
-20 -8 -19 -9 10 -7 38 2 64 26 87 80 8 20 20 37 25 37 5 0 9 21 8 48 -1 26 1
61 5 78 4 21 2 42 -8 60 -14 27 -12 44 5 44 5 0 12 -9 15 -21 5 -16 10 -18 21
-8 11 9 14 8 14 -4 0 -8 3 -29 7 -47 3 -19 2 -31 -3 -27 -5 3 -10 -18 -11 -46
-5 -107 -25 -160 -75 -202 -38 -32 -70 -40 -110 -26 -30 11 -34 10 -48 -11 -8
-13 -26 -34 -40 -48 -14 -14 -30 -40 -36 -58 -11 -31 -11 -32 4 -19 10 8 25
17 36 21 13 4 17 13 14 31 -3 13 -2 22 3 20 4 -3 16 6 27 20 29 37 56 32 32
-5 -7 -11 -5 -17 8 -22 14 -5 13 -7 -6 -7 -14 -1 -30 -13 -42 -33 -26 -42 -25
-50 3 -46 12 2 21 9 19 16 -1 8 1 11 6 8 5 -3 30 24 57 60 43 57 55 67 75 66
3 0 20 19 38 42 20 27 38 68 49 112 9 38 27 83 40 100 28 38 29 48 3 32 -26
-17 -31 -9 -33 55 -1 30 -5 53 -9 50 -5 -2 -8 5 -8 16 0 11 5 23 10 26 6 3 10
15 10 25 0 10 5 20 11 22 5 2 7 11 4 20 -9 23 -32 12 -39 -18 -7 -28 -22 -31
-35 -6 -6 11 -6 24 1 35 14 25 -49 132 -68 116 -7 -6 -18 -7 -25 -3 -7 4 -19
-3 -30 -17 l-19 -24 0 23 c0 25 -18 30 -26 7 -4 -8 -13 -15 -20 -15 -12 0 -13
4 -2 23 6 12 11 32 9 45 -2 17 3 25 18 29 23 6 25 11 12 31 -5 9 -21 -9 -52
-60z m137 -86 c-18 -16 -18 -16 -6 6 6 13 14 21 18 18 3 -4 -2 -14 -12 -24z
m-58 -18 c47 -19 98 -68 123 -116 16 -31 17 -38 5 -38 -8 0 -17 13 -21 28 -16
73 -150 147 -205 113 -8 -6 -18 -7 -23 -4 -13 8 33 32 61 33 12 0 39 -7 60
-16z m-63 -94 c0 -8 -8 -16 -17 -18 -13 -2 -18 3 -18 18 0 15 5 20 18 18 9 -2
17 -10 17 -18z m-65 -16 c0 -8 -7 -14 -15 -14 -15 0 -21 21 -9 33 10 9 24 -2
24 -19z m-75 -24 c3 -5 15 -10 26 -10 23 0 27 -38 5 -46 -23 -9 -65 24 -59 46
6 22 18 26 28 10z m117 -19 c-1 -7 2 -19 8 -26 8 -9 6 -14 -6 -19 -28 -11 -32
-7 -32 30 0 27 4 34 17 31 9 -2 15 -9 13 -16z m-132 -61 c0 -11 -4 -20 -10
-20 -5 0 -10 9 -10 20 0 11 5 20 10 20 6 0 10 -9 10 -20z m81 -22 c-4 -11 -10
-19 -14 -19 -4 1 -11 1 -17 1 -13 0 -13 23 1 37 18 18 39 5 30 -19z m93 -164
c9 -3 16 -13 16 -21 0 -20 -34 -12 -38 10 -4 19 -1 20 22 11z m68 -106 c-7 -7
-12 -8 -12 -2 0 6 3 14 7 17 3 4 9 5 12 2 2 -3 -1 -11 -7 -17z"/>
<path d="M3905 4179 c-10 -15 3 -25 16 -12 7 7 7 13 1 17 -6 3 -14 1 -17 -5z"/>
<path d="M4620 4180 c0 -5 7 -10 15 -10 8 0 15 5 15 10 0 6 -7 10 -15 10 -8 0
-15 -4 -15 -10z"/>
<path d="M3460 4165 c0 -8 5 -15 10 -15 6 0 10 7 10 15 0 8 -4 15 -10 15 -5 0
-10 -7 -10 -15z"/>
<path d="M4360 4170 c0 -5 7 -10 15 -10 8 0 15 5 15 10 0 6 -7 10 -15 10 -8 0
-15 -4 -15 -10z"/>
<path d="M3130 4160 c20 -13 83 -13 75 0 -3 6 -25 10 -48 10 -31 0 -38 -3 -27
-10z"/>
<path d="M3240 4160 c0 -5 5 -10 10 -10 6 0 10 5 10 10 0 6 -4 10 -10 10 -5 0
-10 -4 -10 -10z"/>
<path d="M3488 4149 c-31 -18 -22 -41 15 -37 24 2 32 8 32 23 0 23 -22 29 -47
14z"/>
<path d="M4855 4150 c3 -5 8 -10 11 -10 2 0 4 5 4 10 0 6 -5 10 -11 10 -5 0
-7 -4 -4 -10z"/>
<path d="M3590 4124 c-14 -7 -20 -14 -14 -14 7 0 15 -11 18 -25 8 -30 48 -34
68 -7 7 10 22 24 33 31 19 11 19 12 -3 6 -14 -4 -28 -1 -38 9 -18 19 -30 19
-64 0z"/>
<path d="M4565 4129 c-4 -5 -4 -13 -1 -16 3 -3 1 -12 -5 -19 -14 -17 -4 -44
16 -44 20 0 31 28 17 42 -6 6 -8 16 -6 23 7 16 -12 29 -21 14z"/>
<path d="M4886 4131 c-3 -5 1 -11 9 -14 9 -4 12 -1 8 9 -6 16 -10 17 -17 5z"/>
<path d="M3238 4123 c7 -3 16 -2 19 1 4 3 -2 6 -13 5 -11 0 -14 -3 -6 -6z"/>
<path d="M3350 4120 c0 -5 9 -10 19 -10 11 0 23 5 26 10 4 6 -5 10 -19 10 -14
0 -26 -4 -26 -10z"/>
<path d="M4340 4110 c0 -11 0 -23 -1 -27 0 -4 4 -9 10 -11 6 -2 11 10 11 27 0
17 -4 31 -10 31 -5 0 -10 -9 -10 -20z"/>
<path d="M2948 4103 c7 -3 16 -2 19 1 4 3 -2 6 -13 5 -11 0 -14 -3 -6 -6z"/>
<path d="M3758 4103 c7 -3 16 -2 19 1 4 3 -2 6 -13 5 -11 0 -14 -3 -6 -6z"/>
<path d="M3820 4100 c0 -5 5 -10 10 -10 6 0 10 5 10 10 0 6 -4 10 -10 10 -5 0
-10 -4 -10 -10z"/>
<path d="M4017 4090 c-4 -17 -2 -18 14 -9 22 11 25 29 5 29 -7 0 -16 -9 -19
-20z"/>
<path d="M3008 4093 c7 -3 16 -2 19 1 4 3 -2 6 -13 5 -11 0 -14 -3 -6 -6z"/>
<path d="M3880 4085 c0 -19 11 -19 36 0 18 14 18 14 -8 15 -18 0 -28 -5 -28
-15z"/>
<path d="M3380 4080 c20 -13 33 -13 25 0 -3 6 -14 10 -23 10 -15 0 -15 -2 -2
-10z"/>
<path d="M3238 4073 c12 -2 30 -2 40 0 9 3 -1 5 -23 4 -22 0 -30 -2 -17 -4z"/>
<path d="M3053 4063 c9 -2 23 -2 30 0 6 3 -1 5 -18 5 -16 0 -22 -2 -12 -5z"/>
<path d="M3710 4045 c0 -8 5 -15 10 -15 6 0 10 7 10 15 0 8 -4 15 -10 15 -5 0
-10 -7 -10 -15z"/>
<path d="M4527 4016 c5 -38 3 -45 -16 -51 -26 -8 -28 -25 -3 -25 30 0 42 21
42 72 0 34 -4 48 -14 48 -10 0 -12 -11 -9 -44z"/>
<path d="M4982 4049 c2 -6 8 -10 13 -10 5 0 11 4 13 10 2 6 -4 11 -13 11 -9 0
-15 -5 -13 -11z"/>
<path d="M3270 4025 c-10 -12 -9 -15 8 -15 11 0 25 7 32 15 10 12 9 15 -8 15
-11 0 -25 -7 -32 -15z"/>
<path d="M3412 4033 c-33 -4 -76 -36 -64 -47 3 -3 -4 -6 -16 -6 -27 0 -36 -15
-23 -37 6 -10 11 -14 11 -9 0 5 7 3 15 -4 9 -7 27 -10 45 -6 27 5 31 2 29 -21
0 -7 47 -22 78 -25 6 -1 14 -12 18 -25 5 -23 25 -33 25 -13 0 6 12 15 26 20
21 8 33 6 60 -11 30 -18 34 -26 34 -61 0 -35 2 -40 20 -35 16 4 20 0 20 -18 0
-13 -7 -28 -16 -33 -20 -11 -9 -36 12 -28 20 8 7 -44 -18 -67 -10 -10 -16 -23
-12 -28 3 -6 3 -21 0 -35 -5 -18 -13 -24 -35 -24 -20 0 -34 -8 -45 -25 l-16
-25 54 0 c47 0 57 3 67 23 6 12 27 35 46 51 19 16 47 54 62 86 25 52 27 63 20
123 -4 36 -14 81 -22 99 -13 31 -13 36 2 47 14 10 12 11 -11 8 -21 -3 -38 5
-68 30 -40 35 -212 105 -248 101 -9 0 -32 -3 -50 -5z"/>
<path d="M3778 4033 c7 -3 16 -2 19 1 4 3 -2 6 -13 5 -11 0 -14 -3 -6 -6z"/>
<path d="M3863 4033 c9 -2 23 -2 30 0 6 3 -1 5 -18 5 -16 0 -22 -2 -12 -5z"/>
<path d="M3980 4029 c0 -5 5 -7 10 -4 6 3 10 8 10 11 0 2 -4 4 -10 4 -5 0 -10
-5 -10 -11z"/>
<path d="M4102 4029 c2 -6 8 -10 13 -10 5 0 11 4 13 10 2 6 -4 11 -13 11 -9 0
-15 -5 -13 -11z"/>
<path d="M4187 4034 c-8 -8 1 -24 14 -24 5 0 9 7 9 15 0 15 -12 20 -23 9z"/>
<path d="M4223 4004 c-7 -18 11 -39 26 -30 17 11 13 46 -4 46 -9 0 -18 -7 -22
-16z"/>
<path d="M4377 4014 c-8 -8 1 -24 14 -24 5 0 9 7 9 15 0 15 -12 20 -23 9z"/>
<path d="M2993 4003 c9 -2 23 -2 30 0 6 3 -1 5 -18 5 -16 0 -22 -2 -12 -5z"/>
<path d="M3790 3995 c0 -9 5 -15 11 -13 6 2 11 8 11 13 0 5 -5 11 -11 13 -6 2
-11 -4 -11 -13z"/>
<path d="M4030 4000 c0 -5 5 -10 10 -10 6 0 10 5 10 10 0 6 -4 10 -10 10 -5 0
-10 -4 -10 -10z"/>
<path d="M4462 3999 c2 -6 8 -10 13 -10 5 0 11 4 13 10 2 6 -4 11 -13 11 -9 0
-15 -5 -13 -11z"/>
<path d="M3178 3993 c7 -3 16 -2 19 1 4 3 -2 6 -13 5 -11 0 -14 -3 -6 -6z"/>
<path d="M3900 3990 c0 -5 5 -10 10 -10 6 0 10 5 10 10 0 6 -4 10 -10 10 -5 0
-10 -4 -10 -10z"/>
<path d="M3842 3979 c2 -6 8 -10 13 -10 5 0 11 4 13 10 2 6 -4 11 -13 11 -9 0
-15 -5 -13 -11z"/>
<path d="M3130 3970 c0 -5 14 -10 30 -10 17 0 30 5 30 10 0 6 -13 10 -30 10
-16 0 -30 -4 -30 -10z"/>
<path d="M2913 3953 c9 -2 23 -2 30 0 6 3 -1 5 -18 5 -16 0 -22 -2 -12 -5z"/>
<path d="M4370 3946 c0 -11 9 -16 30 -16 17 0 30 5 30 10 0 6 -6 10 -14 10 -8
0 -21 3 -30 6 -11 4 -16 1 -16 -10z"/>
<path d="M3083 3923 c9 -2 23 -2 30 0 6 3 -1 5 -18 5 -16 0 -22 -2 -12 -5z"/>
<path d="M3263 3916 c-4 -7 -15 -16 -23 -19 -8 -3 1 -4 20 -3 23 2 36 9 38 20
4 19 -24 22 -35 2z"/>
<path d="M3178 3893 c7 -3 16 -2 19 1 4 3 -2 6 -13 5 -11 0 -14 -3 -6 -6z"/>
<path d="M3343 3893 c9 -2 23 -2 30 0 6 3 -1 5 -18 5 -16 0 -22 -2 -12 -5z"/>
<path d="M4410 3870 c0 -5 7 -10 15 -10 8 0 15 5 15 10 0 6 -7 10 -15 10 -8 0
-15 -4 -15 -10z"/>
<path d="M4004 3835 c-4 -9 -2 -21 4 -27 16 -16 47 -5 47 17 0 26 -42 34 -51
10z"/>
<path d="M4446 3785 c-18 -27 -20 -35 -8 -35 4 0 16 14 25 30 22 36 6 41 -17
5z"/>
<path d="M3260 3791 c0 -5 -3 -18 -7 -28 -6 -16 -5 -16 10 -4 19 15 23 41 7
41 -5 0 -10 -4 -10 -9z"/>
<path d="M3827 3793 c-10 -9 -9 -23 2 -23 5 0 11 7 15 15 5 15 -5 20 -17 8z"/>
<path d="M3860 3785 c-8 -9 -8 -15 -2 -15 12 0 26 19 19 26 -2 2 -10 -2 -17
-11z"/>
<path d="M4090 3780 c0 -5 7 -10 15 -10 8 0 15 5 15 10 0 6 -7 10 -15 10 -8 0
-15 -4 -15 -10z"/>
<path d="M4247 3768 c20 -23 23 -23 23 1 0 13 -6 19 -20 18 -18 -1 -18 -2 -3
-19z"/>
<path d="M4320 3765 c13 -14 26 -23 28 -20 7 7 -29 45 -41 45 -6 0 0 -11 13
-25z"/>
<path d="M4165 3769 c-10 -15 3 -25 16 -12 7 7 7 13 1 17 -6 3 -14 1 -17 -5z"/>
<path d="M4220 3745 c0 -8 5 -15 10 -15 6 0 10 7 10 15 0 8 -4 15 -10 15 -5 0
-10 -7 -10 -15z"/>
<path d="M4020 3727 c0 -27 33 -62 49 -52 17 10 13 30 -12 53 -30 28 -37 28
-37 -1z"/>
<path d="M4476 3712 c-3 -3 -6 -15 -6 -26 0 -17 -2 -18 -10 -6 -8 13 -13 13
-40 -3 -32 -19 -36 -17 -20 14 17 31 -4 22 -24 -11 -9 -17 -21 -28 -26 -25 -5
3 -11 1 -15 -5 -3 -5 0 -10 8 -10 8 0 17 -7 20 -14 5 -12 13 -13 39 -5 18 5
35 9 37 9 2 0 -9 -16 -23 -35 -20 -26 -23 -35 -12 -35 8 0 24 13 36 29 11 16
30 31 43 33 18 2 23 11 28 45 4 34 2 42 -12 46 -10 3 -20 2 -23 -1z"/>
<path d="M3345 3680 c-3 -5 -1 -10 4 -10 6 0 11 5 11 10 0 6 -2 10 -4 10 -3 0
-8 -4 -11 -10z"/>
<path d="M3448 3683 c7 -3 16 -2 19 1 4 3 -2 6 -13 5 -11 0 -14 -3 -6 -6z"/>
<path d="M4542 3660 c-7 -11 -9 -20 -4 -20 10 0 32 22 32 32 0 15 -15 8 -28
-12z"/>
<path d="M4230 3650 c0 -5 5 -10 10 -10 6 0 10 5 10 10 0 6 -4 10 -10 10 -5 0
-10 -4 -10 -10z"/>
<path d="M4585 3650 c-3 -5 3 -10 14 -10 11 0 23 5 26 10 3 6 -3 10 -14 10
-11 0 -23 -4 -26 -10z"/>
<path d="M4287 3630 c-3 -11 -1 -20 4 -20 5 0 9 9 9 20 0 11 -2 20 -4 20 -2 0
-6 -9 -9 -20z"/>
<path d="M5282 3584 c1 -33 -2 -66 -6 -72 -4 -7 -2 -12 4 -12 5 0 21 -24 34
-53 18 -41 24 -74 25 -135 1 -45 4 -88 7 -95 3 -8 -6 -76 -20 -151 -19 -108
-31 -148 -54 -184 -17 -26 -33 -67 -37 -92 -4 -25 -16 -63 -27 -85 l-19 -40
21 25 21 25 -7 -45 c-3 -25 -13 -63 -20 -85 l-14 -40 21 28 c11 15 25 25 30
21 24 -15 -5 -120 -58 -202 -19 -30 -29 -51 -23 -47 24 15 7 -18 -35 -65 -25
-28 -45 -56 -45 -63 0 -7 -9 -31 -20 -52 -13 -26 -21 -60 -21 -96 0 -38 -7
-65 -20 -85 -11 -17 -19 -23 -19 -14 0 16 -57 43 -71 34 -17 -10 -9 -58 12
-80 21 -22 21 -25 5 -49 -31 -48 -8 -25 45 45 76 100 74 78 -3 -27 -35 -48
-67 -95 -72 -103 -13 -25 26 22 77 94 27 38 51 66 54 63 3 -3 -1 -22 -7 -43
-13 -39 -156 -198 -170 -189 -5 3 -19 -9 -31 -27 -12 -18 -43 -55 -68 -81 -44
-46 -48 -48 -98 -46 -38 2 -50 6 -46 16 3 7 12 12 21 11 8 -2 17 3 19 10 3 6
-1 12 -9 12 -18 -1 -87 -59 -70 -60 8 0 -13 -22 -45 -49 l-58 -49 -53 9 c-30
4 -63 4 -75 -1 -16 -6 -3 -9 48 -10 l70 -1 -24 -19 c-13 -11 -38 -20 -57 -20
-18 0 -36 -4 -39 -10 -3 -5 -1 -10 6 -10 7 0 -8 -13 -34 -30 -59 -37 -61 -46
-4 -16 23 13 63 31 88 41 25 9 82 43 125 76 78 58 80 59 145 59 l66 0 74 78
c253 263 274 302 239 430 -12 48 -8 79 22 160 15 40 29 59 60 78 47 30 89 111
114 220 15 70 15 73 -5 112 -20 39 -20 44 -6 99 8 31 15 69 15 84 0 14 11 41
25 60 70 95 98 243 86 444 -7 107 -11 127 -40 181 -17 34 -35 88 -40 120 l-9
59 0 -61z"/>
<path d="M5110 3614 c0 -8 5 -12 10 -9 6 3 10 10 10 16 0 5 -4 9 -10 9 -5 0
-10 -7 -10 -16z"/>
<path d="M3615 3610 c-3 -5 -2 -10 4 -10 5 0 13 5 16 10 3 6 2 10 -4 10 -5 0
-13 -4 -16 -10z"/>
<path d="M3820 3605 c-7 -9 -10 -18 -7 -21 3 -3 10 4 17 15 13 25 8 27 -10 6z"/>
<path d="M4044 3606 c-3 -9 -12 -16 -19 -16 -7 0 -18 -7 -25 -16 -11 -12 -10
-18 3 -31 13 -14 19 -14 32 -3 9 7 13 20 10 28 -3 8 0 21 6 29 7 7 9 16 6 20
-4 3 -9 -2 -13 -11z"/>
<path d="M4322 3600 c-19 -32 -13 -47 8 -20 11 14 20 28 20 33 0 14 -15 7 -28
-13z"/>
<path d="M4543 3588 c-32 -45 -20 -48 21 -5 26 28 30 37 18 37 -9 0 -27 -15
-39 -32z"/>
<path d="M4624 3582 c-21 -17 -21 -17 -2 -43 16 -21 17 -30 8 -55 -6 -16 -23
-39 -38 -51 -25 -20 -26 -22 -8 -29 13 -5 21 -3 24 6 3 7 23 33 46 58 32 35
37 45 26 52 -48 27 -55 38 -42 59 15 25 13 25 -14 3z"/>
<path d="M5026 3534 c-14 -26 -26 -48 -26 -50 0 -10 18 -3 23 9 3 6 12 29 21
50 22 51 13 47 -18 -9z"/>
<path d="M3740 3516 c-19 -24 -8 -61 19 -64 13 -2 28 1 34 7 7 7 15 3 26 -10
16 -20 51 -18 51 4 0 5 9 2 20 -8 19 -18 22 -18 37 -2 16 16 16 18 0 34 -13
13 -20 15 -29 5 -17 -17 -28 -15 -28 7 0 17 -4 18 -29 11 -22 -6 -32 -4 -45
11 -19 23 -39 24 -56 5z"/>
<path d="M4360 3516 c-22 -9 -34 -19 -32 -29 1 -8 -2 -18 -8 -22 -15 -9 -12
-25 4 -25 7 0 21 11 29 24 12 18 22 22 42 18 23 -4 26 -2 23 18 -4 29 -14 32
-58 16z"/>
<path d="M3282 3505 c-4 -7 -14 -15 -22 -18 -11 -4 -10 -6 5 -8 11 -1 -14 -6
-55 -9 -59 -6 -47 -7 53 -5 159 3 179 13 78 39 -40 10 -53 11 -59 1z"/>
<path d="M3962 3500 c-6 -11 -12 -21 -12 -23 0 -7 70 -1 71 6 3 31 -42 44 -59
17z"/>
<path d="M4210 3510 c0 -12 19 -48 39 -72 22 -28 34 -21 27 13 -3 17 -1 39 4
50 12 21 1 26 -18 7 -9 -9 -15 -9 -24 0 -15 15 -28 16 -28 2z"/>
<path d="M4465 3480 c-39 -56 -26 -60 19 -5 24 28 32 45 23 45 -8 0 -27 -18
-42 -40z"/>
<path d="M4701 3472 c-44 -69 -39 -74 19 -17 27 26 47 52 44 57 -12 19 -34 5
-63 -40z"/>
<path d="M3090 3496 c0 -9 40 -13 46 -5 3 5 -6 9 -20 9 -14 0 -26 -2 -26 -4z"/>
<path d="M3193 3483 c9 -2 25 -2 35 0 9 3 1 5 -18 5 -19 0 -27 -2 -17 -5z"/>
<path d="M4180 3469 c0 -5 5 -7 10 -4 6 3 10 8 10 11 0 2 -4 4 -10 4 -5 0 -10
-5 -10 -11z"/>
<path d="M4980 3438 c0 -5 18 -8 40 -8 22 0 40 2 40 4 0 2 -18 6 -40 8 -22 2
-40 0 -40 -4z"/>
<path d="M3378 3423 c6 -2 18 -2 25 0 6 3 1 5 -13 5 -14 0 -19 -2 -12 -5z"/>
<path d="M4881 3384 c-12 -19 -16 -32 -11 -29 11 7 43 65 36 65 -2 0 -13 -16
-25 -36z"/>
<path d="M4952 3405 c-17 -19 -1 -19 24 0 14 11 15 14 4 14 -8 0 -21 -6 -28
-14z"/>
<path d="M3361 3396 c12 -10 59 -15 59 -6 0 5 -14 10 -32 10 -17 0 -29 -2 -27
-4z"/>
<path d="M3143 3383 c9 -2 25 -2 35 0 9 3 1 5 -18 5 -19 0 -27 -2 -17 -5z"/>
<path d="M3487 3380 c12 -11 103 -19 103 -9 0 10 -7 11 -68 14 -24 1 -39 -1
-35 -5z"/>
<path d="M3668 3376 c-25 -9 -38 -10 -38 -3 0 6 -3 8 -6 5 -8 -8 14 -48 26
-48 6 0 10 7 10 15 0 17 45 21 55 5 8 -12 16 -12 34 -1 12 8 12 12 2 25 -16
19 -34 19 -83 2z"/>
<path d="M4170 3365 c-10 -12 -10 -15 3 -15 8 0 17 7 21 15 3 8 2 15 -3 15 -5
0 -14 -7 -21 -15z"/>
<path d="M4252 3366 c-5 -6 -15 -26 -22 -44 -7 -19 -23 -38 -34 -42 -17 -7
-18 -9 -3 -9 12 -1 17 -9 18 -28 0 -24 2 -22 18 17 18 45 69 87 77 65 3 -6 21
-10 42 -8 32 2 33 1 12 -6 -15 -6 -19 -9 -9 -10 9 -1 20 -8 23 -17 4 -11 14
-15 31 -12 14 3 25 1 25 -3 0 -5 -4 -9 -10 -9 -5 0 -10 -7 -10 -16 0 -12 6
-15 21 -11 15 4 19 2 15 -10 -3 -8 -6 -17 -6 -19 0 -3 -5 -2 -10 1 -7 4 -9 -2
-4 -19 4 -19 2 -28 -10 -32 -9 -3 -16 -15 -16 -25 0 -17 3 -17 28 -6 39 17 61
38 55 52 -2 7 0 36 5 64 5 28 6 48 2 46 -4 -3 -15 5 -23 18 -8 12 -26 34 -40
50 -24 25 -32 27 -97 26 -38 -1 -73 -7 -78 -13z"/>
<path d="M4547 3362 c-19 -20 -23 -37 -7 -27 10 6 33 45 27 45 -2 0 -11 -8
-20 -18z"/>
<path d="M4629 3363 c-13 -16 -12 -17 4 -4 16 13 21 21 13 21 -2 0 -10 -8 -17
-17z"/>
<path d="M4945 3370 c4 -6 11 -8 16 -5 14 9 11 15 -7 15 -8 0 -12 -5 -9 -10z"/>
<path d="M4045 3360 c-3 -5 -2 -10 4 -10 5 0 13 5 16 10 3 6 2 10 -4 10 -5 0
-13 -4 -16 -10z"/>
<path d="M4917 3357 c-3 -9 1 -18 10 -21 23 -9 29 2 11 20 -13 14 -16 14 -21
1z"/>
<path d="M3503 3343 c15 -2 37 -2 50 0 12 2 0 4 -28 4 -27 0 -38 -2 -22 -4z"/>
<path d="M3523 3323 c9 -2 23 -2 30 0 6 3 -1 5 -18 5 -16 0 -22 -2 -12 -5z"/>
<path d="M3590 3326 c0 -2 7 -6 15 -10 8 -3 15 -1 15 4 0 6 -7 10 -15 10 -8 0
-15 -2 -15 -4z"/>
<path d="M4900 3326 c0 -2 7 -9 15 -16 13 -11 14 -10 9 4 -5 14 -24 23 -24 12z"/>
<path d="M4880 3306 c0 -2 7 -9 15 -16 13 -11 14 -10 9 4 -5 14 -24 23 -24 12z"/>
<path d="M3861 3277 c-9 -18 -19 -23 -37 -19 -19 3 -24 0 -24 -17 0 -25 35
-29 44 -5 4 9 13 14 21 10 9 -3 18 1 21 8 3 8 14 12 25 9 28 -8 23 12 -6 25
-33 15 -29 16 -44 -11z"/>
<path d="M4741 3291 c-9 -6 -10 -11 -2 -15 6 -4 18 0 27 8 12 12 12 16 2 16
-7 0 -19 -4 -27 -9z"/>
<path d="M5030 3289 c0 -5 5 -7 10 -4 6 3 10 8 10 11 0 2 -4 4 -10 4 -5 0 -10
-5 -10 -11z"/>
<path d="M5305 3290 c-3 -5 -1 -10 4 -10 6 0 11 5 11 10 0 6 -2 10 -4 10 -3 0
-8 -4 -11 -10z"/>
<path d="M3727 3276 c-6 -15 11 -36 29 -36 14 0 23 20 17 38 -6 16 -40 15 -46
-2z"/>
<path d="M4870 3278 c0 -18 18 -34 28 -24 3 4 -2 14 -11 23 -16 16 -17 16 -17
1z"/>
<path d="M4983 3283 c-20 -8 -15 -23 7 -23 11 0 20 7 20 15 0 15 -6 17 -27 8z"/>
<path d="M5126 3278 c3 -5 10 -6 15 -3 13 9 11 12 -6 12 -8 0 -12 -4 -9 -9z"/>
<path d="M5165 3280 c3 -5 11 -10 16 -10 6 0 7 5 4 10 -3 6 -11 10 -16 10 -6
0 -7 -4 -4 -10z"/>
<path d="M3441 3276 c2 -2 36 -6 74 -9 44 -4 61 -3 45 2 -24 9 -127 15 -119 7z"/>
<path d="M4630 3245 c0 -9 5 -15 11 -13 6 2 11 8 11 13 0 5 -5 11 -11 13 -6 2
-11 -4 -11 -13z"/>
<path d="M4905 3241 c-7 -12 12 -24 25 -16 11 7 4 25 -10 25 -5 0 -11 -4 -15
-9z"/>
<path d="M4978 3243 c6 -2 18 -2 25 0 6 3 1 5 -13 5 -14 0 -19 -2 -12 -5z"/>
<path d="M5040 3240 c0 -5 14 -10 31 -10 17 0 28 4 24 10 -3 6 -17 10 -31 10
-13 0 -24 -4 -24 -10z"/>
<path d="M3338 3223 c12 -2 30 -2 40 0 9 3 -1 5 -23 4 -22 0 -30 -2 -17 -4z"/>
<path d="M3558 3223 c12 -2 32 -2 45 0 12 2 2 4 -23 4 -25 0 -35 -2 -22 -4z"/>
<path d="M4750 3217 c0 -23 11 -47 22 -47 14 0 5 53 -9 58 -7 2 -13 -3 -13
-11z"/>
<path d="M5060 3210 c0 -5 11 -10 24 -10 14 0 28 5 31 10 4 6 -7 10 -24 10
-17 0 -31 -4 -31 -10z"/>
<path d="M5205 3210 c3 -5 8 -10 11 -10 2 0 4 5 4 10 0 6 -5 10 -11 10 -5 0
-7 -4 -4 -10z"/>
<path d="M3353 3193 c15 -2 39 -2 55 0 15 2 2 4 -28 4 -30 0 -43 -2 -27 -4z"/>
<path d="M3468 3193 c18 -2 45 -2 60 0 15 2 0 4 -33 4 -33 0 -45 -2 -27 -4z"/>
<path d="M4862 3186 c7 -8 15 -12 17 -11 5 6 -10 25 -20 25 -5 0 -4 -6 3 -14z"/>
<path d="M4960 3180 c13 -23 20 -26 20 -6 0 8 -7 16 -15 20 -13 4 -14 2 -5
-14z"/>
<path d="M4655 3181 c-14 -12 -73 -22 -78 -13 -2 4 -2 2 -1 -5 5 -19 -18 -30
-74 -38 -56 -7 -73 -24 -52 -50 14 -17 56 -20 65 -5 3 5 1 19 -5 30 -9 18 -8
20 15 20 20 0 25 -5 25 -25 0 -34 33 -65 70 -65 61 0 93 76 50 115 -15 14 -17
21 -9 32 13 15 8 18 -6 4z"/>
<path d="M5070 3180 c0 -5 7 -7 15 -4 8 4 15 8 15 10 0 2 -7 4 -15 4 -8 0 -15
-4 -15 -10z"/>
<path d="M5120 3186 c0 -2 7 -7 16 -10 8 -3 12 -2 9 4 -6 10 -25 14 -25 6z"/>
<path d="M4243 3173 c9 -2 23 -2 30 0 6 3 -1 5 -18 5 -16 0 -22 -2 -12 -5z"/>
<path d="M4720 3170 c0 -5 5 -10 10 -10 6 0 10 5 10 10 0 6 -4 10 -10 10 -5 0
-10 -4 -10 -10z"/>
<path d="M4900 3150 c0 -5 10 -20 22 -32 21 -21 22 -21 28 -2 4 10 5 25 3 32
-6 14 -53 17 -53 2z"/>
<path d="M3765 3140 c3 -5 8 -10 11 -10 2 0 4 5 4 10 0 6 -5 10 -11 10 -5 0
-7 -4 -4 -10z"/>
<path d="M3786 3134 c-9 -22 17 -49 39 -40 10 3 15 15 13 28 -4 29 -42 37 -52
12z"/>
<path d="M3937 3132 c-10 -10 -17 -28 -17 -39 0 -23 30 -53 53 -53 21 0 57 35
57 55 0 21 -36 55 -58 55 -11 0 -26 -8 -35 -18z"/>
<path d="M4740 3140 c0 -5 5 -10 10 -10 6 0 10 5 10 10 0 6 -4 10 -10 10 -5 0
-10 -4 -10 -10z"/>
<path d="M5138 3143 c6 -2 18 -2 25 0 6 3 1 5 -13 5 -14 0 -19 -2 -12 -5z"/>
<path d="M4816 3131 c-3 -5 1 -11 9 -15 8 -3 15 -1 15 4 0 13 -18 22 -24 11z"/>
<path d="M3145 3100 c202 -18 313 -22 331 -11 15 8 -8 10 -92 11 -61 0 -160 2
-220 4 l-109 5 90 -9z"/>
<path d="M4796 3081 c-3 -5 3 -11 15 -14 15 -4 19 -12 17 -33 -2 -15 3 -29 10
-31 6 -3 12 2 12 10 0 9 3 17 8 20 4 2 1 2 -5 1 -15 -4 -17 22 -3 31 6 3 10
12 9 18 0 9 -2 9 -6 0 -6 -15 -33 -17 -33 -3 0 12 -17 13 -24 1z"/>
<path d="M4867 3070 c-3 -11 -2 -20 3 -20 12 0 21 28 11 35 -5 2 -11 -4 -14
-15z"/>
<path d="M4949 3083 c-1 -5 -2 -12 -4 -18 -1 -5 -3 -16 -3 -24 -2 -11 -6 -10
-21 3 -19 17 -20 17 -31 -3 -10 -19 -8 -21 20 -21 23 0 33 6 42 25 6 14 15 25
20 25 4 0 8 5 8 10 0 11 -29 14 -31 3z"/>
<path d="M3208 3073 c18 -2 45 -2 60 0 15 2 0 4 -33 4 -33 0 -45 -2 -27 -4z"/>
<path d="M3600 3070 c0 -5 5 -10 11 -10 5 0 7 5 4 10 -3 6 -8 10 -11 10 -2 0
-4 -4 -4 -10z"/>
<path d="M4118 3073 c7 -3 16 -2 19 1 4 3 -2 6 -13 5 -11 0 -14 -3 -6 -6z"/>
<path d="M4158 3073 c7 -3 16 -2 19 1 4 3 -2 6 -13 5 -11 0 -14 -3 -6 -6z"/>
<path d="M3363 3063 c20 -2 54 -2 75 0 20 2 3 4 -38 4 -41 0 -58 -2 -37 -4z"/>
<path d="M3223 3053 c15 -2 39 -2 55 0 15 2 2 4 -28 4 -30 0 -43 -2 -27 -4z"/>
<path d="M4780 3045 c0 -8 5 -15 10 -15 6 0 10 7 10 15 0 8 -4 15 -10 15 -5 0
-10 -7 -10 -15z"/>
<path d="M3093 3043 c15 -2 39 -2 55 0 15 2 2 4 -28 4 -30 0 -43 -2 -27 -4z"/>
<path d="M3345 3044 c48 -8 115 -9 115 -2 0 5 -30 7 -67 7 -38 -1 -59 -3 -48
-5z"/>
<path d="M3260 3030 c102 -12 262 -21 215 -11 -22 5 -94 11 -160 14 -85 4
-101 3 -55 -3z"/>
<path d="M3635 3030 c-3 -5 -1 -10 4 -10 6 0 11 5 11 10 0 6 -2 10 -4 10 -3 0
-8 -4 -11 -10z"/>
<path d="M5007 3018 c-9 -7 -23 -43 -31 -81 -7 -37 -20 -75 -27 -84 -12 -14
-12 -16 2 -11 11 4 22 -4 34 -24 10 -17 27 -40 37 -50 17 -17 18 -24 8 -47
-10 -22 -9 -24 3 -11 57 61 128 150 121 151 -5 0 -1 4 9 8 18 7 18 8 -1 31
-19 23 -21 24 -28 7 -5 -14 -9 -16 -15 -6 -4 7 -3 19 3 26 7 9 4 21 -12 43
-12 16 -18 30 -13 30 14 1 -41 29 -58 30 -8 0 -23 -6 -32 -12z m18 -117 c0
-39 -3 -47 -12 -39 -16 13 -17 43 -3 69 6 10 12 19 13 19 1 0 2 -22 2 -49z"/>
<path d="M4350 3010 c8 -5 20 -10 25 -10 6 0 3 5 -5 10 -8 5 -19 10 -25 10 -5
0 -3 -5 5 -10z"/>
<path d="M4866 2986 c-3 -13 -9 -32 -13 -43 -6 -16 -5 -16 11 -4 9 8 26 27 37
43 l20 28 -24 0 c-18 0 -27 -7 -31 -24z"/>
<path d="M3588 2993 c6 -2 18 -2 25 0 6 3 1 5 -13 5 -14 0 -19 -2 -12 -5z"/>
<path d="M3975 2990 c-4 -6 6 -10 22 -10 22 0 25 2 13 10 -19 12 -27 12 -35 0z"/>
<path d="M4055 2990 c3 -5 11 -10 16 -10 6 0 7 5 4 10 -3 6 -11 10 -16 10 -6
0 -7 -4 -4 -10z"/>
<path d="M4090 2980 c0 -5 5 -10 10 -10 6 0 10 5 10 10 0 6 -4 10 -10 10 -5 0
-10 -4 -10 -10z"/>
<path d="M3208 2973 c6 -2 18 -2 25 0 6 3 1 5 -13 5 -14 0 -19 -2 -12 -5z"/>
<path d="M4745 2970 c-3 -5 -1 -10 4 -10 6 0 11 5 11 10 0 6 -2 10 -4 10 -3 0
-8 -4 -11 -10z"/>
<path d="M4500 2963 c0 -9 62 -53 74 -53 5 0 -4 10 -20 22 -16 13 -30 26 -32
30 -5 10 -22 10 -22 1z"/>
<path d="M4003 2940 c-13 -10 -23 -21 -23 -24 0 -12 28 -6 40 9 20 24 7 35
-17 15z"/>
<path d="M5220 2951 c0 -6 4 -13 10 -16 6 -3 7 1 4 9 -7 18 -14 21 -14 7z"/>
<path d="M3108 2943 c7 -3 16 -2 19 1 4 3 -2 6 -13 5 -11 0 -14 -3 -6 -6z"/>
<path d="M4050 2935 c0 -8 7 -15 15 -15 8 0 15 7 15 15 0 8 -7 15 -15 15 -8 0
-15 -7 -15 -15z"/>
<path d="M4815 2940 c3 -5 8 -10 11 -10 2 0 4 5 4 10 0 6 -5 10 -11 10 -5 0
-7 -4 -4 -10z"/>
<path d="M3013 2933 c15 -2 37 -2 50 0 12 2 0 4 -28 4 -27 0 -38 -2 -22 -4z"/>
<path d="M3628 2913 c6 -2 18 -2 25 0 6 3 1 5 -13 5 -14 0 -19 -2 -12 -5z"/>
<path d="M3884 2897 c-37 -32 -27 -54 25 -54 29 0 46 6 62 23 12 13 26 21 30
18 5 -3 9 -3 9 0 0 8 -62 36 -81 36 -10 0 -30 -11 -45 -23z"/>
<path d="M4287 2913 c-13 -12 -7 -44 9 -50 23 -9 48 25 33 44 -12 14 -32 17
-42 6z"/>
<path d="M5245 2910 c3 -5 8 -10 11 -10 2 0 4 5 4 10 0 6 -5 10 -11 10 -5 0
-7 -4 -4 -10z"/>
<path d="M4130 2900 c0 -5 11 -17 25 -26 20 -13 28 -14 40 -4 17 14 9 34 -11
26 -7 -3 -16 -1 -19 4 -8 13 -35 13 -35 0z"/>
<path d="M4707 2893 c-4 -3 -7 -11 -7 -17 0 -6 5 -5 12 2 6 6 9 14 7 17 -3 3
-9 2 -12 -2z"/>
<path d="M4584 2845 c-4 -9 -2 -21 4 -27 15 -15 44 -1 40 19 -4 23 -36 29 -44
8z"/>
<path d="M5172 2835 c-10 -21 -9 -25 6 -26 11 -1 8 -3 -7 -8 -34 -9 -39 -31
-7 -31 36 0 62 40 44 69 -17 27 -22 26 -36 -4z m38 -15 c0 -5 -2 -10 -4 -10
-3 0 -8 5 -11 10 -3 6 -1 10 4 10 6 0 11 -4 11 -10z"/>
<path d="M4194 2795 c-7 -18 3 -35 21 -35 15 0 28 27 19 41 -8 14 -34 11 -40
-6z"/>
<path d="M4570 2790 c-18 -11 -4 -42 17 -38 10 2 19 10 21 19 4 19 -19 31 -38
19z"/>
<path d="M4633 2784 c-6 -17 14 -36 32 -31 6 2 11 13 13 25 3 17 -2 22 -18 22
-11 0 -23 -7 -27 -16z"/>
<path d="M4700 2781 c0 -24 25 -34 40 -16 15 18 5 35 -21 35 -12 0 -19 -7 -19
-19z"/>
<path d="M4895 2774 c-9 -15 -12 -23 -6 -20 11 7 35 46 28 46 -3 0 -12 -12
-22 -26z"/>
<path d="M4951 2744 c-37 -54 -26 -50 19 6 17 22 27 40 22 40 -6 0 -24 -21
-41 -46z"/>
<path d="M4311 2753 c31 -39 72 -73 89 -73 10 0 20 -6 22 -12 3 -9 9 -8 22 5
17 16 16 17 -12 17 -44 0 -62 9 -62 32 0 11 -5 16 -11 13 -6 -4 -13 2 -16 14
-3 13 -13 21 -25 21 -18 0 -19 -2 -7 -17z"/>
<path d="M5071 2658 c-33 -57 -72 -122 -86 -145 -14 -24 -24 -43 -21 -43 2 0
14 15 25 34 16 25 27 33 41 29 21 -6 29 12 8 19 -15 5 31 68 50 68 7 0 12 6 9
13 -2 6 12 32 31 57 20 25 40 51 45 58 7 9 3 12 -16 12 -21 0 -34 -15 -86
-102z"/>
<path d="M4790 2720 c0 -5 -9 -10 -19 -10 -27 0 -36 -19 -18 -37 18 -18 37
-10 37 16 0 9 5 22 12 29 9 9 9 12 0 12 -7 0 -12 -4 -12 -10z"/>
<path d="M4248 2693 c7 -3 16 -2 19 1 4 3 -2 6 -13 5 -11 0 -14 -3 -6 -6z"/>
<path d="M4315 2690 c3 -5 15 -10 26 -10 11 0 17 5 14 10 -3 6 -15 10 -26 10
-11 0 -17 -4 -14 -10z"/>
<path d="M4480 2680 c0 -5 6 -10 14 -10 8 0 18 5 21 10 3 6 -3 10 -14 10 -12
0 -21 -4 -21 -10z"/>
<path d="M4575 2680 c-3 -5 -2 -10 4 -10 5 0 13 5 16 10 3 6 2 10 -4 10 -5 0
-13 -4 -16 -10z"/>
<path d="M4230 2594 c-26 -31 -16 -70 30 -113 24 -23 52 -41 61 -41 10 0 19
-10 21 -25 5 -23 3 -24 -61 -28 -50 -3 -43 -4 29 -4 103 -1 150 14 150 46 0
29 -25 44 -61 36 -28 -6 -30 -5 -21 11 23 41 -49 134 -104 134 -17 0 -37 -7
-44 -16z"/>
<path d="M4530 2590 c0 -24 29 -38 40 -20 12 19 1 40 -21 40 -12 0 -19 -7 -19
-20z"/>
<path d="M4781 2592 c-6 -2 -11 -12 -11 -23 0 -16 7 -19 46 -19 41 0 45 2 42
23 -2 17 -10 22 -34 22 -18 1 -37 -1 -43 -3z"/>
<path d="M4610 2500 c0 -16 5 -21 23 -18 12 2 22 10 22 18 0 8 -10 16 -22 18
-18 3 -23 -2 -23 -18z"/>
<path d="M4180 2481 c0 -13 35 -32 44 -24 3 3 6 11 6 16 0 6 -3 7 -6 4 -4 -3
-15 -2 -25 4 -13 6 -19 6 -19 0z"/>
<path d="M5104 2465 c-4 -9 -2 -21 4 -27 15 -15 44 -1 40 19 -4 23 -36 29 -44
8z"/>
<path d="M4784 2445 c-8 -19 12 -36 33 -28 19 7 12 37 -10 41 -9 2 -20 -4 -23
-13z"/>
<path d="M4920 2440 c0 -5 5 -10 10 -10 6 0 10 5 10 10 0 6 -4 10 -10 10 -5 0
-10 -4 -10 -10z"/>
<path d="M4614 2425 c-7 -18 3 -35 21 -35 12 0 25 21 25 41 0 15 -40 10 -46
-6z"/>
<path d="M4153 2405 c0 -8 4 -12 9 -9 4 3 8 9 8 15 0 5 -4 9 -8 9 -5 0 -9 -7
-9 -15z"/>
<path d="M5010 2410 c0 -5 5 -10 10 -10 6 0 10 5 10 10 0 6 -4 10 -10 10 -5 0
-10 -4 -10 -10z"/>
<path d="M4755 2400 c3 -5 8 -10 11 -10 2 0 4 5 4 10 0 6 -5 10 -11 10 -5 0
-7 -4 -4 -10z"/>
<path d="M4093 2393 c9 -2 25 -2 35 0 9 3 1 5 -18 5 -19 0 -27 -2 -17 -5z"/>
<path d="M5060 2360 c0 -5 7 -10 15 -10 8 0 15 5 15 10 0 6 -7 10 -15 10 -8 0
-15 -4 -15 -10z"/>
<path d="M4540 2340 c0 -24 29 -38 40 -20 12 19 1 40 -21 40 -12 0 -19 -7 -19
-20z"/>
<path d="M4418 2332 c-17 -24 -44 -38 -90 -46 -34 -6 -36 -8 -29 -34 6 -23 13
-27 48 -30 31 -2 47 3 71 22 16 15 35 26 41 26 17 0 25 48 11 65 -17 20 -36
19 -52 -3z"/>
<path d="M4826 2335 c-15 -8 -35 -15 -42 -15 -17 0 -19 -20 -1 -21 46 -5 57
-7 72 -13 9 -3 13 -11 9 -17 -3 -6 0 -16 7 -21 11 -7 11 -11 2 -15 -16 -6 -17
-30 -1 -35 17 -6 0 -28 -22 -28 -10 0 -24 -8 -29 -17 -10 -17 -12 -17 -25 0
-7 9 -17 17 -21 17 -9 0 3 -72 15 -84 11 -11 82 13 74 26 -4 7 0 7 13 0 24
-13 48 0 39 23 -3 9 -2 24 3 34 6 10 13 41 17 69 6 48 5 53 -24 82 -35 34 -45
36 -86 15z"/>
<path d="M3875 2330 c-3 -5 -1 -10 4 -10 6 0 11 5 11 10 0 6 -2 10 -4 10 -3 0
-8 -4 -11 -10z"/>
<path d="M4126 2324 c-9 -8 -16 -29 -16 -45 0 -22 8 -34 33 -49 61 -38 137
-18 137 36 0 29 -11 40 -54 58 -49 20 -80 20 -100 0z"/>
<path d="M4634 2325 c-4 -9 -2 -21 4 -27 15 -15 44 -1 40 19 -4 23 -36 29 -44
8z"/>
<path d="M3990 2285 c0 -8 5 -15 10 -15 6 0 10 7 10 15 0 8 -4 15 -10 15 -5 0
-10 -7 -10 -15z"/>
<path d="M4968 2271 c-19 -22 -36 -147 -19 -137 6 4 11 22 11 39 0 44 10 78
22 71 11 -7 38 14 38 29 0 6 -3 7 -7 4 -3 -4 -11 -3 -18 3 -7 6 -16 3 -27 -9z"/>
<path d="M4580 2230 c0 -6 7 -10 15 -10 8 0 15 2 15 4 0 2 -7 6 -15 10 -8 3
-15 1 -15 -4z"/>
<path d="M4060 2214 c0 -6 7 -19 16 -30 14 -18 14 -18 3 6 -14 31 -19 36 -19
24z"/>
<path d="M4510 2205 c-14 -8 -35 -14 -47 -15 -13 0 -23 -5 -23 -10 0 -6 11 -8
28 -4 30 8 82 32 82 39 0 8 -14 5 -40 -10z"/>
<path d="M4203 2183 c15 -2 37 -2 50 0 12 2 0 4 -28 4 -27 0 -38 -2 -22 -4z"/>
<path d="M4270 2166 c-7 -14 -10 -32 -7 -40 7 -19 38 -21 55 -4 8 8 12 9 12 1
0 -6 3 -18 6 -27 4 -11 1 -16 -10 -16 -9 0 -16 -6 -16 -14 0 -21 39 -31 56
-15 21 22 -2 98 -32 110 -13 4 -24 13 -24 19 0 19 -27 10 -40 -14z"/>
<path d="M3715 2160 c3 -5 15 -10 25 -10 10 0 22 5 25 10 4 6 -7 10 -25 10
-18 0 -29 -4 -25 -10z"/>
<path d="M4075 2150 c-7 -12 42 -37 52 -27 4 4 -2 14 -13 22 -23 17 -31 18
-39 5z"/>
<path d="M4580 2125 c0 -20 5 -25 25 -25 20 0 25 5 25 25 0 20 -5 25 -25 25
-20 0 -25 -5 -25 -25z"/>
<path d="M4650 2090 c0 -8 5 -22 10 -30 9 -13 10 -13 10 0 0 8 -5 22 -10 30
-9 13 -10 13 -10 0z"/>
<path d="M4697 2093 c-4 -3 -7 -11 -7 -17 0 -6 5 -5 12 2 6 6 9 14 7 17 -3 3
-9 2 -12 -2z"/>
<path d="M3718 2078 c17 -8 26 -8 34 0 9 9 4 12 -22 11 -33 0 -34 -1 -12 -11z"/>
<path d="M4434 2075 c-9 -22 6 -37 31 -31 15 4 25 1 29 -9 3 -8 2 -15 -2 -15
-11 0 -41 -89 -43 -130 -5 -81 25 -120 94 -120 41 0 53 4 69 25 15 19 25 24
41 19 65 -21 117 7 117 61 0 20 6 35 15 39 8 3 15 12 15 21 0 22 -31 31 -44
14 -7 -10 -20 -13 -36 -9 -39 10 -58 2 -53 -24 3 -13 -2 -28 -11 -35 -9 -8
-16 -19 -16 -27 0 -7 -13 -22 -29 -33 -30 -22 -61 -28 -61 -12 0 5 -9 13 -21
16 -13 4 -18 12 -15 22 4 11 2 13 -9 9 -20 -7 -20 34 -1 89 15 42 37 55 61 35
11 -9 16 -7 24 8 13 25 -6 43 -40 40 -20 -3 -24 2 -24 22 0 19 -5 25 -22 25
-11 0 -25 3 -29 8 -12 12 -34 8 -40 -8z"/>
<path d="M4942 2043 c2 -10 10 -18 18 -18 8 0 16 8 18 18 2 12 -3 17 -18 17
-15 0 -20 -5 -18 -17z"/>
<path d="M4820 2031 c0 -27 19 -36 37 -18 18 18 9 37 -18 37 -12 0 -19 -7 -19
-19z"/>
<path d="M4635 1997 c-11 -7 -21 -12 -23 -13 -11 -4 14 -34 28 -34 24 0 35 17
21 34 -6 7 -8 16 -4 19 9 10 1 7 -22 -6z"/>
<path d="M4285 1990 c-3 -5 -3 -10 2 -10 4 0 18 -3 31 -6 16 -5 22 -2 22 10 0
18 -45 23 -55 6z"/>
<path d="M4385 1990 c-3 -5 1 -10 9 -10 9 0 16 5 16 10 0 6 -4 10 -9 10 -6 0
-13 -4 -16 -10z"/>
<path d="M3778 1953 c18 -2 45 -2 60 0 15 2 0 4 -33 4 -33 0 -45 -2 -27 -4z"/>
<path d="M4830 1933 c0 -23 39 -63 56 -56 19 7 18 29 -3 53 -21 24 -53 26 -53
3z"/>
<path d="M4148 1893 c-9 -3 -20 -14 -24 -26 -5 -17 3 -30 42 -64 38 -34 46
-45 36 -55 -10 -10 -15 -7 -28 10 -9 13 -26 22 -41 22 -22 0 -25 -3 -21 -27
11 -66 17 -73 66 -73 23 0 40 7 51 22 18 22 41 18 41 -8 0 -8 9 -14 20 -14 14
0 20 7 20 23 0 34 -23 61 -48 55 -15 -4 -22 0 -26 17 -3 13 -3 31 0 40 4 10
-3 26 -17 41 -30 32 -49 42 -71 37z"/>
<path d="M4342 1838 c2 -13 10 -23 18 -23 8 0 16 10 18 23 3 17 -2 22 -18 22
-16 0 -21 -5 -18 -22z"/>
<path d="M4861 1850 c-17 -10 -7 -40 14 -40 8 0 15 9 15 19 0 24 -12 32 -29
21z"/>
<path d="M4760 1805 c-7 -8 -16 -12 -21 -9 -5 3 -15 2 -21 -3 -7 -4 -26 -8
-43 -8 -28 0 -30 -3 -30 -36 l-1 -35 28 14 c15 7 28 17 28 21 0 5 11 6 25 3
15 -2 25 0 25 8 0 6 8 9 19 5 19 -6 33 6 44 38 5 13 1 17 -17 17 -13 0 -29 -7
-36 -15z"/>
<path d="M4375 1760 c-8 -14 3 -30 21 -30 8 0 14 9 14 20 0 21 -24 28 -35 10z"/>
<path d="M4880 1745 c-7 -9 -10 -18 -7 -21 3 -3 10 4 17 15 13 25 8 27 -10 6z"/>
<path d="M4737 1725 c-15 -14 -35 -25 -43 -25 -8 0 -14 -9 -14 -20 0 -23 28
-27 36 -5 4 8 16 15 27 15 19 0 18 -3 -12 -34 -22 -23 -39 -32 -52 -29 -10 3
-19 3 -19 0 0 -2 9 -7 19 -10 14 -3 37 14 82 61 35 37 53 57 39 45 -17 -15
-30 -19 -40 -13 -11 7 -11 11 -1 24 19 23 10 19 -22 -9z"/>
<path d="M4435 1730 c28 -12 135 -12 135 0 0 6 -32 10 -77 9 -53 0 -72 -3 -58
-9z"/>
<path d="M4371 1681 c-8 -5 -12 -18 -9 -28 3 -11 -3 -31 -13 -44 -18 -22 -20
-23 -30 -6 -13 23 -56 22 -68 -1 -7 -14 -6 -25 5 -40 19 -27 40 -28 56 -2 16
25 24 25 31 0 7 -26 35 -36 58 -21 17 10 21 7 36 -24 11 -24 23 -35 37 -34 12
0 15 3 8 6 -6 2 -9 9 -6 14 3 5 -4 26 -15 45 -20 34 -31 75 -12 45 12 -19 41
-6 41 19 0 18 -5 21 -32 18 -25 -2 -35 2 -44 20 -17 35 -27 42 -43 33z"/>
<path d="M4520 1680 c-22 -5 -27 -8 -13 -9 14 -1 23 -9 25 -23 4 -34 54 -38
63 -6 4 13 13 26 19 30 6 4 2 7 -9 6 -11 0 -27 2 -35 4 -8 3 -31 2 -50 -2z"/>
<path d="M4545 1600 c-3 -5 1 -10 9 -10 9 0 16 5 16 10 0 6 -4 10 -9 10 -6 0
-13 -4 -16 -10z"/>
<path d="M4260 1400 c20 -13 67 -13 75 0 4 6 -12 10 -42 10 -35 0 -44 -3 -33
-10z"/>
</g>
</svg>
