<?xml version="1.0" standalone="no"?>
<!DOCTYPE svg PUBLIC "-//W3C//DTD SVG 20010904//EN"
 "http://www.w3.org/TR/2001/REC-SVG-20010904/DTD/svg10.dtd">
<svg version="1.0" xmlns="http://www.w3.org/2000/svg"
 width="626.000000pt" height="626.000000pt" viewBox="0 0 626.000000 626.000000"
 preserveAspectRatio="xMidYMid meet">

<g transform="translate(0.000000,626.000000) scale(0.100000,-0.100000)"
fill="#000000" stroke="none">
<path d="M0 3130 l0 -3130 1718 0 c954 0 1819 5 1947 10 487 21 819 63 1071
135 94 28 233 91 273 125 22 19 23 21 6 33 -20 16 -17 45 7 61 13 8 21 6 36
-7 19 -17 20 -17 36 23 20 51 20 82 -2 142 -50 140 -228 302 -524 480 -76 45
-138 85 -138 88 0 5 154 246 166 259 11 12 79 -71 81 -96 2 -39 48 -77 82 -68
14 4 31 11 37 16 11 9 72 109 148 242 15 26 40 62 55 80 15 18 47 66 70 107
24 41 75 127 113 192 l69 116 162 -107 c297 -197 523 -378 736 -592 l111 -112
0 2567 0 2566 -3130 0 -3130 0 0 -3130z m1075 3051 c7 -12 -12 -24 -25 -16
-11 7 -4 25 10 25 5 0 11 -4 15 -9z m1703 -3 c-6 -18 -28 -21 -28 -4 0 9 7 16
16 16 9 0 14 -5 12 -12z m1702 -3 c0 -8 -4 -15 -9 -15 -13 0 -22 16 -14 24 11
11 23 6 23 -9z m-4195 -25 c3 -5 1 -10 -4 -10 -6 0 -11 5 -11 10 0 6 2 10 4
10 3 0 8 -4 11 -10z m5115 0 c0 -5 -5 -10 -11 -10 -5 0 -7 5 -4 10 3 6 8 10
11 10 2 0 4 -4 4 -10z m-4876 -126 c9 -8 16 -19 16 -24 0 -11 -29 -40 -40 -40
-11 0 -40 29 -40 40 0 11 29 40 40 40 5 0 16 -7 24 -16z m3910 0 c21 -20 20
-27 -3 -48 -15 -14 -24 -15 -40 -6 -12 6 -21 17 -21 25 0 15 26 45 40 45 5 0
16 -7 24 -16z m196 6 c0 -5 -2 -10 -4 -10 -3 0 -8 5 -11 10 -3 6 -1 10 4 10 6
0 11 -4 11 -10z m-3810 -4 c0 -3 -4 -8 -10 -11 -5 -3 -10 -1 -10 4 0 6 5 11
10 11 6 0 10 -2 10 -4z m5110 -6 c0 -5 -2 -10 -4 -10 -3 0 -8 5 -11 10 -3 6
-1 10 4 10 6 0 11 -4 11 -10z m-2716 -26 c20 -19 20 -38 1 -54 -16 -14 -51 -5
-58 14 -6 15 19 56 33 56 5 0 16 -7 24 -16z m1216 -104 c0 -5 -2 -10 -4 -10
-3 0 -8 5 -11 10 -3 6 -1 10 4 10 6 0 11 -4 11 -10z m-1375 -10 c3 -5 1 -10
-4 -10 -6 0 -11 5 -11 10 0 6 2 10 4 10 3 0 8 -4 11 -10z m-2903 -65 c0 -5 -5
-11 -11 -13 -6 -2 -11 4 -11 13 0 9 5 15 11 13 6 -2 11 -8 11 -13z m1708 -1
c0 -9 -5 -14 -12 -12 -18 6 -21 28 -4 28 9 0 16 -7 16 -16z m1705 7 c7 -12
-12 -24 -25 -16 -11 7 -4 25 10 25 5 0 11 -4 15 -9z m1703 -3 c-6 -18 -28 -21
-28 -4 0 9 7 16 16 16 9 0 14 -5 12 -12z m-2978 -18 c0 -5 -5 -10 -11 -10 -5
0 -7 5 -4 10 3 6 8 10 11 10 2 0 4 -4 4 -10z m3405 0 c3 -5 1 -10 -4 -10 -6 0
-11 5 -11 10 0 6 2 10 4 10 3 0 8 -4 11 -10z m-942 -107 c-1 -46 2 -83 5 -83
4 0 48 7 97 15 106 17 122 18 110 6 -6 -5 -58 -19 -116 -31 l-106 -22 -23 -99
c-21 -91 -22 -103 -9 -151 17 -62 39 -80 68 -54 26 24 49 88 32 94 -6 2 -11
11 -11 19 0 9 6 13 15 9 10 -4 17 3 21 22 14 64 27 93 54 122 26 28 33 30 81
27 74 -6 92 -30 87 -114 -2 -35 -1 -63 1 -63 1 0 26 20 53 45 41 37 57 45 88
45 30 0 44 -6 64 -31 75 -89 -12 -213 -220 -317 -84 -42 -402 -169 -654 -262
-139 -51 -461 -178 -467 -183 -1 -2 9 -25 22 -52 19 -37 25 -64 25 -116 0
-130 -44 -188 -152 -198 l-60 -6 -1 -130 -2 -130 -52 -3 -53 -3 0 256 0 255
-62 -40 -63 -40 -9 25 c-6 16 -18 25 -32 25 -17 0 -23 8 -28 40 -5 29 -13 43
-28 49 -50 18 -84 -17 -74 -74 5 -24 32 -61 91 -124 46 -49 93 -108 104 -130
38 -74 22 -163 -37 -213 -94 -79 -248 -19 -260 101 l-4 50 36 6 c48 10 66 1
66 -31 0 -56 61 -84 102 -47 41 37 20 90 -78 192 -43 45 -86 93 -95 108 -41
62 -34 162 16 222 l25 29 -39 7 c-44 7 -140 -9 -184 -32 -39 -20 -43 -12 -12
25 107 127 374 200 1160 317 293 44 374 58 535 96 326 77 480 160 480 259 0
54 -36 96 -74 86 -14 -3 -34 -15 -42 -25 -44 -52 -71 -78 -84 -84 -12 -4 -13
-7 -2 -15 8 -5 12 -20 10 -33 -2 -19 -9 -24 -35 -25 -18 0 -41 -8 -51 -17 -10
-9 -32 -20 -50 -23 -26 -5 -36 -1 -62 25 -27 26 -32 28 -37 13 -12 -34 -56
-72 -84 -72 -39 0 -84 43 -104 98 -9 26 -19 91 -22 145 -5 94 -7 98 -27 93
-101 -26 -178 -38 -188 -28 -20 20 0 39 49 46 158 23 173 27 173 50 0 40 28
118 52 143 14 16 31 23 48 21 25 -3 25 -4 23 -85z m-412 -4 c13 -25 0 -130
-32 -267 -21 -94 -24 -149 -8 -205 8 -31 13 -36 28 -28 15 9 39 52 55 104 3 9
11 17 17 17 8 0 10 -14 5 -46 -8 -59 -24 -92 -59 -118 -26 -19 -30 -19 -55 -6
-15 8 -37 35 -49 59 -18 36 -24 41 -29 25 -40 -124 -98 -157 -144 -82 l-18 30
-20 -46 c-15 -32 -28 -47 -47 -52 -34 -8 -71 9 -80 37 -7 20 -9 19 -29 -17
-28 -50 -64 -57 -95 -18 -11 15 -21 35 -21 45 0 23 -13 24 -30 4 -7 -8 -18
-15 -24 -15 -6 0 -20 -17 -31 -37 -41 -75 -112 -98 -160 -53 -14 13 -25 29
-25 37 0 7 -4 13 -10 13 -5 0 -10 -5 -10 -12 0 -26 -52 -78 -90 -89 -75 -23
-120 26 -120 129 0 60 -16 83 -66 92 -31 6 -35 8 -19 14 121 42 170 133 109
205 -67 80 -260 60 -344 -35 -34 -39 -39 -78 -15 -124 15 -29 61 -60 88 -60 8
0 20 -7 27 -16 11 -12 10 -18 -3 -32 -16 -15 -20 -15 -62 6 -55 27 -85 72 -85
130 0 53 18 89 64 129 74 66 239 101 329 70 34 -11 47 -12 50 -4 3 9 8 8 18
-2 11 -10 11 -15 1 -18 -9 -3 -7 -12 8 -30 25 -32 27 -104 3 -143 -9 -15 -33
-39 -53 -51 l-38 -24 24 -28 c13 -15 25 -42 28 -60 17 -113 15 -107 46 -107
19 0 36 10 53 30 25 30 67 127 67 156 0 21 35 88 55 104 10 8 42 15 71 16 48
2 57 -2 75 -25 17 -21 20 -37 17 -88 -3 -41 0 -60 7 -56 28 16 45 39 45 61 0
79 55 162 108 162 68 0 108 -36 77 -70 -14 -16 -14 -18 0 -24 14 -5 16 -16 10
-71 -8 -74 5 -106 33 -83 21 18 62 113 62 145 0 73 76 159 131 149 26 -5 26
-5 32 77 7 101 20 148 53 187 30 35 59 39 75 9z m-3493 0 c-2 -6 -8 -10 -13
-10 -5 0 -11 4 -13 10 -2 6 4 11 13 11 9 0 15 -5 13 -11z m1710 -1 c-6 -18
-28 -21 -28 -4 0 9 7 16 16 16 9 0 14 -5 12 -12z m1700 1 c-2 -6 -8 -10 -13
-10 -5 0 -11 4 -13 10 -2 6 4 11 13 11 9 0 15 -5 13 -11z m1700 0 c-2 -6 -8
-10 -13 -10 -5 0 -11 4 -13 10 -2 6 4 11 13 11 9 0 15 -5 13 -11z m-5568 -50
c0 -5 -7 -9 -15 -9 -15 0 -20 12 -9 23 8 8 24 -1 24 -14z m1695 -9 c-5 -8 -11
-8 -17 -2 -6 6 -7 16 -3 22 5 8 11 8 17 2 6 -6 7 -16 3 -22z m1707 8 c-6 -6
-16 -7 -22 -3 -9 6 -9 9 1 16 17 10 34 0 21 -13z m1703 -8 c-5 -8 -11 -8 -17
-2 -6 6 -7 16 -3 22 5 8 11 8 17 2 6 -6 7 -16 3 -22z m-4455 -105 c26 -31 -13
-82 -44 -56 -21 18 -20 48 2 60 23 14 28 13 42 -4z m615 -54 c7 -12 -12 -24
-25 -16 -11 7 -4 25 10 25 5 0 11 -4 15 -9z m1535 -66 c0 -3 -9 -18 -21 -34
-18 -24 -22 -50 -29 -182 -5 -85 -14 -172 -20 -193 -24 -82 -104 -122 -150
-76 -21 21 -27 74 -10 85 6 3 10 -4 10 -18 0 -56 60 -59 80 -4 7 18 16 95 20
173 6 99 13 150 25 173 12 24 13 36 5 46 -8 10 -8 15 1 20 6 4 14 3 18 -3 4
-7 14 -6 31 3 27 15 40 18 40 10z m-1770 -20 c0 -8 -7 -15 -15 -15 -8 0 -15 7
-15 15 0 8 7 15 15 15 8 0 15 -7 15 -15z m-272 -83 c2 -7 -3 -12 -12 -12 -9 0
-16 7 -16 16 0 17 22 14 28 -4z m1702 3 c0 -8 -4 -15 -9 -15 -13 0 -22 16 -14
24 11 11 23 6 23 -9z m1702 0 c0 -5 -5 -11 -11 -13 -6 -2 -11 4 -11 13 0 9 5
15 11 13 6 -2 11 -8 11 -13z m-4167 -114 c7 -12 -12 -24 -25 -16 -11 7 -4 25
10 25 5 0 11 -4 15 -9z m1703 -9 c2 -7 -3 -12 -12 -12 -9 0 -16 7 -16 16 0 17
22 14 28 -4z m3404 3 c0 -5 -5 -11 -11 -13 -6 -2 -11 4 -11 13 0 9 5 15 11 13
6 -2 11 -8 11 -13z m-2746 -87 c13 -42 -54 -64 -70 -22 -7 19 29 55 48 48 9
-3 18 -15 22 -26z m-1576 -154 c0 -9 -5 -14 -12 -12 -18 6 -21 28 -4 28 9 0
16 -7 16 -16z m1708 4 c-6 -18 -28 -21 -28 -4 0 9 7 16 16 16 9 0 14 -5 12
-12z m1772 -153 c20 -25 8 -50 -25 -50 -21 0 -31 5 -33 18 -4 21 14 47 33 47
7 0 18 -7 25 -15z m1218 -27 c30 -30 -4 -77 -41 -57 -20 11 -23 55 -4 62 21 9
32 8 45 -5z m-1227 -70 c49 -27 69 -70 69 -147 l0 -61 -50 0 -50 0 0 55 c0 46
-4 57 -24 70 -27 18 -69 7 -80 -20 -3 -9 -6 -105 -6 -214 0 -212 6 -241 53
-241 42 0 52 16 57 87 l5 68 50 0 50 0 -3 -75 c-2 -47 -10 -86 -21 -105 -19
-35 -92 -75 -135 -75 -49 0 -110 36 -134 79 -21 37 -22 51 -22 262 0 251 5
274 69 316 45 31 119 31 172 1z m-362 -301 c28 -172 51 -321 51 -330 0 -14
-10 -17 -49 -17 l-50 0 -12 75 -13 75 -52 0 -51 0 -9 -72 -9 -73 -54 0 c-65 0
-87 21 -57 54 13 14 29 89 62 288 24 147 46 278 49 291 5 20 11 22 74 22 l68
0 52 -313z m811 268 l0 -45 -90 0 -90 0 0 -90 0 -90 70 0 70 0 0 -50 0 -50
-70 0 -70 0 0 -95 0 -95 35 0 c21 0 35 5 36 13 0 10 2 10 6 0 3 -8 24 -13 54
-13 l49 0 0 -50 0 -50 -145 0 -145 0 0 196 c0 176 -2 198 -17 210 -17 12 -17
13 0 19 15 6 17 22 17 121 l0 114 145 0 145 0 0 -45z m-4705 -85 c-5 -8 -11
-8 -17 -2 -6 6 -7 16 -3 22 5 8 11 8 17 2 6 -6 7 -16 3 -22z m1700 0 c-5 -8
-11 -8 -17 -2 -6 6 -7 16 -3 22 5 8 11 8 17 2 6 -6 7 -16 3 -22z m3410 0 c-5
-8 -11 -8 -17 -2 -6 6 -7 16 -3 22 5 8 11 8 17 2 6 -6 7 -16 3 -22z m-4103
-115 c0 -5 -5 -11 -11 -13 -6 -2 -11 4 -11 13 0 9 5 15 11 13 6 -2 11 -8 11
-13z m1708 -6 c0 -5 -7 -9 -15 -9 -15 0 -20 12 -9 23 8 8 24 -1 24 -14z m1270
1 c0 -5 -4 -10 -10 -10 -5 0 -10 5 -10 10 0 6 5 10 10 10 6 0 10 -4 10 -10z
m-4218 -45 c0 -5 -5 -11 -11 -13 -6 -2 -11 4 -11 13 0 9 5 15 11 13 6 -2 11
-8 11 -13z m1708 0 c0 -8 -7 -15 -15 -15 -16 0 -20 12 -8 23 11 12 23 8 23 -8z
m1705 6 c7 -12 -12 -24 -25 -16 -11 7 -4 25 10 25 5 0 11 -4 15 -9z m1703 -9
c2 -7 -3 -12 -12 -12 -9 0 -16 7 -16 16 0 17 22 14 28 -4z m232 -52 c0 -5 -4
-10 -10 -10 -5 0 -10 5 -10 10 0 6 5 10 10 10 6 0 10 -4 10 -10z m-4267 -72
c22 -34 -36 -66 -62 -34 -9 11 -10 20 -1 36 13 25 47 24 63 -2z m1697 7 c20
-25 8 -50 -25 -50 -21 0 -31 5 -33 18 -4 21 14 47 33 47 7 0 18 -7 25 -15z
m-2245 -25 c18 -8 18 -9 -6 -9 -14 -1 -50 -13 -80 -28 -44 -23 -58 -37 -81
-82 -63 -121 -22 -270 110 -400 46 -46 138 -112 299 -216 128 -82 231 -150
230 -152 -2 -1 -59 26 -128 61 -146 74 -413 249 -479 315 -95 96 -150 205
-150 299 0 58 41 146 82 175 49 36 159 56 203 37z m195 -48 c52 -17 112 -33
133 -37 29 -6 44 -16 62 -44 31 -48 48 -116 41 -164 -7 -44 -43 -118 -78 -160
l-23 -28 -48 37 c-51 40 -53 44 -61 151 -9 105 -38 174 -99 235 -29 29 -45 49
-37 46 8 -3 58 -19 110 -36z m1418 16 c-6 -18 -28 -21 -28 -4 0 9 7 16 16 16
9 0 14 -5 12 -12z m1700 1 c-2 -6 -8 -10 -13 -10 -5 0 -11 4 -13 10 -2 6 4 11
13 11 9 0 15 -5 13 -11z m1704 -4 c0 -5 -5 -11 -11 -13 -6 -2 -11 4 -11 13 0
9 5 15 11 13 6 -2 11 -8 11 -13z m-4347 -77 c-28 -92 -11 -187 50 -279 30 -44
33 -55 28 -97 l-5 -48 86 -38 c48 -21 88 -37 89 -35 2 2 15 32 30 67 l27 63
-24 32 c-14 18 -40 64 -58 102 -27 59 -33 82 -33 142 0 39 3 75 8 79 4 4 41 0
82 -10 69 -16 78 -22 124 -72 112 -123 121 -272 24 -423 l-34 -53 -72 6 c-114
11 -315 53 -418 87 -92 31 -209 84 -209 95 0 3 11 20 24 37 70 94 90 188 59
277 -11 30 -23 63 -28 73 -7 16 3 17 125 17 l132 0 -7 -22z m1175 -4 c0 -9 -5
-14 -12 -12 -18 6 -21 28 -4 28 9 0 16 -7 16 -16z m3408 5 c-2 -6 -8 -10 -13
-10 -5 0 -11 4 -13 10 -2 6 4 11 13 11 9 0 15 -5 13 -11z m-3138 -84 c0 -8 -4
-15 -9 -15 -13 0 -22 16 -14 24 11 11 23 6 23 -9z m-748 -164 c224 -150 266
-187 311 -276 18 -36 41 -144 33 -152 -3 -4 -120 71 -258 164 l-253 171 -6 58
c-6 61 -37 144 -67 178 -16 18 -16 19 0 13 10 -3 118 -74 240 -156z m-1894 47
c-6 -18 -28 -21 -28 -4 0 9 7 16 16 16 9 0 14 -5 12 -12z m3404 -3 c0 -5 -5
-11 -11 -13 -6 -2 -11 4 -11 13 0 9 5 15 11 13 6 -2 11 -8 11 -13z m1708 -1
c0 -9 -5 -14 -12 -12 -18 6 -21 28 -4 28 9 0 16 -7 16 -16z m-3122 -352 l243
-164 -6 -31 c-9 -39 -55 -128 -71 -134 -6 -2 -118 66 -249 151 -130 86 -246
156 -256 156 -25 0 -24 8 6 52 21 32 40 72 59 131 4 12 11 15 18 11 7 -5 122
-82 256 -172z m-1123 142 c14 -6 14 -9 0 -30 -15 -23 -14 -25 13 -42 16 -9
111 -66 210 -127 100 -60 181 -112 181 -115 0 -3 -26 -34 -58 -69 -46 -50 -61
-62 -74 -55 -14 8 -10 17 28 61 25 28 45 53 45 55 0 2 -92 60 -205 128 -112
69 -205 129 -205 133 0 7 41 67 46 67 1 0 10 -3 19 -6z m1524 -163 c183 -122
233 -169 272 -250 27 -55 40 -169 18 -156 -8 5 -102 68 -209 141 l-196 132
-11 76 c-6 42 -22 99 -35 126 -14 28 -23 50 -21 50 2 0 84 -54 182 -119z m229
101 c2 -7 -3 -12 -12 -12 -9 0 -16 7 -16 16 0 17 22 14 28 -4z m1702 3 c0 -8
-4 -15 -9 -15 -13 0 -22 16 -14 24 11 11 23 6 23 -9z m550 -49 c0 -3 -4 -8
-10 -11 -5 -3 -10 -1 -10 4 0 6 5 11 10 11 6 0 10 -2 10 -4z m-2265 -81 c219
-74 361 -105 472 -105 43 0 206 7 363 16 278 16 554 14 585 -4 12 -6 -23 -59
-160 -242 -158 -212 -179 -236 -209 -241 -19 -3 -64 -25 -101 -49 l-66 -43
-539 359 c-296 197 -547 365 -557 372 -22 16 -43 22 212 -63z m-2241 -21 c9
-8 16 -21 16 -28 0 -16 -20 -36 -36 -36 -14 0 -44 27 -44 40 0 11 29 40 40 40
5 0 16 -7 24 -16z m3910 0 c9 -8 16 -19 16 -24 0 -9 -28 -40 -36 -40 -15 0
-44 23 -44 35 0 15 26 45 40 45 5 0 16 -7 24 -16z m196 6 c0 -5 -2 -10 -4 -10
-3 0 -8 5 -11 10 -3 6 -1 10 4 10 6 0 11 -4 11 -10z m1300 -10 c0 -5 -2 -10
-4 -10 -3 0 -8 5 -11 10 -3 6 -1 10 4 10 6 0 11 -4 11 -10z m-2706 -35 c4 -12
-3 -15 -29 -15 -33 0 -43 8 -28 23 12 13 51 7 57 -8z m-1419 -35 c24 -17 47
-34 50 -40 9 -14 -65 -111 -79 -102 -44 28 -96 65 -96 69 0 8 71 103 77 103 2
0 24 -14 48 -30z m2570 -65 l117 -55 -34 -48 c-18 -26 -76 -107 -127 -179
l-94 -133 -174 0 c-142 0 -173 2 -166 13 32 54 340 457 349 457 6 0 64 -25
129 -55z m-1735 -124 c231 -156 222 -142 167 -244 -22 -43 -34 -56 -46 -52 -9
3 -106 65 -217 137 l-201 132 33 65 c18 36 36 74 38 84 3 9 9 17 13 16 4 0
100 -62 213 -138z m-1203 -73 l368 -191 682 -491 681 -490 -13 -26 c-8 -14
-18 -31 -23 -39 -7 -10 -154 89 -624 423 -585 414 -633 446 -984 650 -358 209
-370 217 -409 273 -49 70 -57 83 -51 83 2 0 170 -86 373 -192z m550 136 l26
-21 -32 -46 c-17 -25 -36 -49 -41 -52 -10 -6 -93 46 -105 65 -3 5 11 32 31 60
l36 50 29 -17 c16 -10 41 -27 56 -39z m1055 -80 c197 -130 243 -174 287 -274
23 -53 38 -154 23 -149 -6 2 -114 74 -240 159 l-230 155 0 56 c-1 49 -11 86
-47 173 -10 24 -25 33 207 -120z m-2890 71 c0 -5 -5 -11 -11 -13 -6 -2 -11 4
-11 13 0 9 5 15 11 13 6 -2 11 -8 11 -13z m5116 3 c-6 -18 -28 -21 -28 -4 0 9
7 16 16 16 9 0 14 -5 12 -12z m427 -18 c3 -5 1 -10 -4 -10 -6 0 -11 5 -11 10
0 6 2 10 4 10 3 0 8 -4 11 -10z m-3605 -47 c14 -9 35 -25 47 -36 l22 -20 -30
-44 c-17 -24 -37 -47 -44 -50 -12 -4 -55 22 -99 58 -11 9 51 109 68 109 6 0
23 -7 36 -17z m-1242 -64 c-2 -6 -8 -10 -13 -10 -5 0 -11 4 -13 10 -2 6 4 11
13 11 9 0 15 -5 13 -11z m5112 -5 c0 -17 -22 -14 -28 4 -2 7 3 12 12 12 9 0
16 -7 16 -16z m-5575 -54 c-5 -8 -11 -8 -17 -2 -6 6 -7 16 -3 22 5 8 11 8 17
2 6 -6 7 -16 3 -22z m5110 0 c-5 -8 -11 -8 -17 -2 -6 6 -7 16 -3 22 5 8 11 8
17 2 6 -6 7 -16 3 -22z m-3145 -68 c0 -11 -31 -60 -61 -96 -10 -11 -109 52
-109 69 0 6 16 33 35 58 l36 47 49 -33 c27 -17 50 -38 50 -45z m997 -287 c6
-18 -52 -145 -67 -145 -7 0 -449 281 -477 304 -1 1 16 37 39 82 l40 80 229
-153 c127 -85 233 -161 236 -168z m139 175 l136 -92 -81 -54 -82 -55 -34 21
c-30 18 -35 27 -35 59 0 50 -26 148 -51 190 -27 45 -19 41 147 -69z m-2436 51
c0 -28 -28 -47 -48 -34 -24 15 -27 44 -7 59 22 17 55 1 55 -25z m1406 -3 c24
-17 44 -35 44 -40 0 -15 -60 -98 -71 -98 -16 0 -99 60 -99 71 0 16 60 99 71
99 6 0 31 -14 55 -32z m2604 -33 c0 -8 -4 -15 -9 -15 -13 0 -22 16 -14 24 11
11 23 6 23 -9z m-533 -92 c67 -41 111 -73 108 -80 -4 -12 -374 -494 -400 -522
-12 -12 -30 -4 -122 49 -117 67 -623 401 -623 410 1 3 72 51 158 107 l157 103
305 0 305 0 112 -67z m-1925 25 c26 -18 47 -37 47 -43 0 -5 -15 -32 -35 -58
-35 -48 -35 -48 -62 -32 -15 9 -39 26 -54 39 l-28 22 35 52 c20 29 38 52 42
52 4 0 28 -15 55 -32z m2220 -13 c0 -5 -5 -11 -11 -13 -6 -2 -11 4 -11 13 0 9
5 15 11 13 6 -2 11 -8 11 -13z m238 -50 c20 -25 8 -50 -25 -50 -24 0 -31 5
-33 24 -6 37 34 55 58 26z m-3912 -33 c2 -7 -3 -12 -12 -12 -9 0 -16 7 -16 16
0 17 22 14 28 -4z m1650 -41 c22 -16 42 -34 45 -38 8 -13 -55 -102 -71 -103
-11 0 -60 32 -96 62 -11 9 53 108 70 108 6 0 29 -13 52 -29z m1032 -352 c-36
-3 -86 -13 -112 -23 l-46 -18 -181 118 c-100 64 -180 120 -178 123 2 3 19 38
37 77 l34 72 255 -172 255 -171 -64 -6z m-3600 321 c0 -5 -2 -10 -4 -10 -3 0
-8 5 -11 10 -3 6 -1 10 4 10 6 0 11 -4 11 -10z m155 -39 c7 -12 -12 -24 -25
-16 -11 7 -4 25 10 25 5 0 11 -4 15 -9z m5113 -9 c2 -7 -3 -12 -12 -12 -9 0
-16 7 -16 16 0 17 22 14 28 -4z m-2548 -28 c50 -36 50 -36 34 -62 -8 -15 -26
-40 -39 -56 l-23 -29 -51 37 c-28 21 -51 41 -51 44 1 9 69 102 75 102 3 0 27
-16 55 -36z m-890 -111 l178 -128 5 -60 c22 -220 215 -602 484 -958 l51 -67
-143 -250 c-78 -138 -145 -253 -148 -257 -11 -10 -87 46 -156 116 -221 224
-392 659 -470 1194 -11 76 -23 143 -27 150 -4 6 -55 79 -112 160 -58 83 -101
152 -96 157 7 6 223 66 253 70 2 0 83 -57 181 -127z m1080 -31 c0 -15 -58
-102 -68 -102 -13 0 -102 65 -102 75 0 6 16 31 35 58 l35 47 50 -32 c27 -18
50 -39 50 -46z m1460 -82 c69 -40 138 -82 153 -93 l28 -19 -50 -23 c-61 -29
-127 -88 -176 -159 l-37 -54 -129 77 c-71 41 -129 79 -129 83 0 4 30 47 67 95
107 141 134 173 141 170 4 -3 63 -37 132 -77z m-3430 15 c0 -8 -4 -15 -9 -15
-13 0 -22 16 -14 24 11 11 23 6 23 -9z m2120 -27 c27 -18 50 -38 50 -44 0 -6
-16 -32 -36 -58 l-36 -47 -26 17 c-56 36 -71 49 -72 62 0 12 59 102 67 102 2
0 26 -15 53 -32z m690 -62 c70 -29 593 -340 598 -355 2 -6 -4 -11 -13 -11 -55
0 -173 -103 -234 -204 -62 -103 -85 -173 -85 -258 -1 -43 -4 -78 -8 -78 -4 0
-17 10 -28 22 -28 30 -49 108 -52 190 l-3 67 -45 6 c-90 12 -192 35 -267 60
-108 37 -271 122 -291 153 -28 44 -23 173 9 243 40 86 117 152 209 180 54 16
153 9 210 -15z m-534 -46 c24 -17 44 -34 44 -38 0 -13 -65 -102 -75 -102 -5 0
-31 16 -58 35 l-47 35 32 50 c18 27 39 50 46 50 7 0 33 -14 58 -30z m2422 -42
c30 -30 -11 -85 -44 -57 -25 21 -11 69 21 69 6 0 16 -5 23 -12z m-929 -123
l114 -68 -30 -26 c-42 -36 -69 -78 -85 -133 l-13 -47 -105 60 c-135 78 -160
104 -160 167 0 53 18 82 65 107 47 25 91 13 214 -60z m-1696 -122 c86 -57 165
-103 175 -103 10 0 41 -7 69 -15 40 -12 57 -23 73 -50 12 -19 42 -53 68 -75
l47 -40 -37 0 c-51 0 -76 12 -128 60 -25 23 -136 107 -247 187 -112 80 -203
147 -203 150 0 5 -5 8 183 -114z m2252 57 c-5 -8 -11 -8 -17 -2 -6 6 -7 16 -3
22 5 8 11 8 17 2 6 -6 7 -16 3 -22z m-5107 9 c-2 -6 -8 -10 -13 -10 -5 0 -11
4 -13 10 -2 6 4 11 13 11 9 0 15 -5 13 -11z m4827 -109 c17 -18 14 -24 -70
-167 -48 -81 -89 -149 -91 -151 -1 -2 -11 5 -22 16 -11 11 -25 21 -32 24 -18
6 157 298 180 298 9 0 25 -9 35 -20z m-1884 -81 c63 -45 115 -83 117 -84 5 -4
-31 -75 -39 -75 -6 0 -155 103 -226 156 l-32 24 21 36 c11 19 26 33 33 31 6
-3 63 -42 126 -88z m-1939 66 c0 -5 -5 -11 -11 -13 -6 -2 -11 4 -11 13 0 9 5
15 11 13 6 -2 11 -8 11 -13z m3491 -156 c37 -22 67 -45 67 -50 0 -16 -33 -69
-42 -69 -5 0 -6 11 -2 24 10 40 -11 61 -131 131 -63 36 -115 73 -115 81 0 9
26 -2 78 -32 42 -25 107 -64 145 -85z m-4731 106 c0 -5 -5 -11 -11 -13 -6 -2
-11 4 -11 13 0 9 5 15 11 13 6 -2 11 -8 11 -13z m1708 0 c0 -8 -7 -15 -15 -15
-16 0 -20 12 -8 23 11 12 23 8 23 -8z m2880 -85 c58 -35 107 -65 109 -66 2 -2
-14 -18 -35 -36 -37 -32 -84 -116 -84 -150 0 -10 -3 -18 -7 -18 -22 0 -233
137 -247 161 -53 90 27 202 129 179 17 -4 77 -35 135 -70z m760 30 c0 -5 -5
-10 -11 -10 -5 0 -7 5 -4 10 3 6 8 10 11 10 2 0 4 -4 4 -10z m-4270 -65 c18
-21 3 -55 -24 -55 -33 0 -50 23 -36 49 12 24 42 27 60 6z m2300 -54 c31 -23
45 -26 120 -27 l85 0 137 -83 137 -82 -34 -62 c-39 -73 -69 -169 -62 -203 9
-52 -37 -13 -53 44 -5 20 -10 65 -10 99 l0 62 -57 11 c-32 6 -93 22 -136 35
-85 27 -247 104 -247 117 0 5 14 36 30 69 33 64 31 64 90 20z m-2940 -6 c0 -8
-4 -15 -9 -15 -13 0 -22 16 -14 24 11 11 23 6 23 -9z m5112 0 c0 -5 -5 -11
-11 -13 -6 -2 -11 4 -11 13 0 9 5 15 11 13 6 -2 11 -8 11 -13z m-688 -101 c0
-27 -232 -414 -251 -421 -19 -7 -47 9 -51 29 -3 17 222 406 246 425 20 16 57
-6 56 -33z m-4186 25 c-2 -6 -8 -10 -13 -10 -5 0 -11 4 -13 10 -2 6 4 11 13
11 9 0 15 -5 13 -11z m5110 0 c-2 -6 -8 -10 -13 -10 -5 0 -11 4 -13 10 -2 6 4
11 13 11 9 0 15 -5 13 -11z m-1357 -105 l178 -105 -21 -35 c-11 -19 -24 -37
-29 -40 -5 -3 -75 48 -155 113 -80 65 -155 125 -166 134 -20 16 -18 39 4 39 6
0 91 -48 189 -106z m-3483 24 c-6 -18 -28 -21 -28 -4 0 9 7 16 16 16 9 0 14
-5 12 -12z m667 -123 c0 -23 -5 -31 -21 -33 -27 -4 -47 21 -39 48 5 16 14 20
33 18 23 -2 27 -8 27 -33z m2422 -10 c32 -19 81 -38 108 -42 l51 -8 -11 -36
-10 -36 -100 66 c-54 36 -101 72 -103 79 -5 18 0 16 65 -23z m-4029 13 c-6
-18 -28 -21 -28 -4 0 9 7 16 16 16 9 0 14 -5 12 -12z m1702 -3 c0 -8 -4 -15
-9 -15 -13 0 -22 16 -14 24 11 11 23 6 23 -9z m1695 -5 c3 -5 1 -10 -4 -10 -6
0 -11 5 -11 10 0 6 2 10 4 10 3 0 8 -4 11 -10z m645 -123 c74 -48 136 -92 138
-97 3 -7 -12 -36 -34 -69 -4 -5 -274 240 -274 248 0 14 13 21 24 14 6 -4 72
-47 146 -96z m369 38 c0 -5 -49 -82 -107 -170 -91 -136 -111 -160 -132 -160
-46 0 -29 42 84 213 l107 162 24 -17 c14 -10 24 -22 24 -28z m-1627 -236 c54
-64 98 -120 98 -124 0 -4 -43 -95 -95 -202 -107 -218 -91 -205 -190 -155 -39
19 -196 114 -237 143 -6 4 189 359 269 487 l14 23 22 -28 c12 -15 65 -80 119
-144z m-1867 62 c7 -12 -12 -24 -25 -16 -11 7 -4 25 10 25 5 0 11 -4 15 -9z
m545 -61 c0 -5 -4 -10 -10 -10 -5 0 -10 5 -10 10 0 6 5 10 10 10 6 0 10 -4 10
-10z m-1096 -96 c9 -8 16 -21 16 -28 0 -16 -20 -36 -36 -36 -14 0 -44 27 -44
40 0 11 29 40 40 40 5 0 16 -7 24 -16z m3910 -3 c9 -10 14 -25 10 -34 -9 -24
-44 -32 -61 -14 -13 13 -13 18 2 41 21 31 27 32 49 7z m-3614 -1 c0 -5 -4 -10
-10 -10 -5 0 -10 5 -10 10 0 6 5 10 10 10 6 0 10 -4 10 -10z m2401 -36 c9 -11
10 -20 2 -32 -15 -24 -44 -27 -59 -7 -28 38 27 75 57 39z m-1261 -34 c0 -5 -2
-10 -4 -10 -3 0 -8 5 -11 10 -3 6 -1 10 4 10 6 0 11 -4 11 -10z m-1808 -135
c0 -5 -5 -11 -11 -13 -6 -2 -11 4 -11 13 0 9 5 15 11 13 6 -2 11 -8 11 -13z
m1708 0 c0 -8 -7 -15 -15 -15 -8 0 -15 7 -15 15 0 8 7 15 15 15 8 0 15 -7 15
-15z m1705 6 c7 -12 -12 -24 -25 -16 -11 7 -4 25 10 25 5 0 11 -4 15 -9z
m-2715 -137 c0 -17 -22 -14 -28 4 -2 7 3 12 12 12 9 0 16 -7 16 -16z m1702 1
c0 -5 -5 -11 -11 -13 -6 -2 -11 4 -11 13 0 9 5 15 11 13 6 -2 11 -8 11 -13z
m1706 4 c-2 -6 -8 -10 -13 -10 -5 0 -11 4 -13 10 -2 6 4 11 13 11 9 0 15 -5
13 -11z m-2173 -59 c-5 -8 -11 -8 -17 -2 -6 6 -7 16 -3 22 5 8 11 8 17 2 6 -6
7 -16 3 -22z m-1697 9 c-2 -6 -8 -10 -13 -10 -5 0 -11 4 -13 10 -2 6 4 11 13
11 9 0 15 -5 13 -11z m3407 2 c7 -12 -12 -24 -25 -16 -11 7 -4 25 10 25 5 0
11 -4 15 -9z m-2757 -113 c19 -19 14 -56 -8 -63 -41 -13 -69 43 -32 64 22 13
26 13 40 -1z m617 -57 c7 -12 -12 -24 -25 -16 -11 7 -4 25 10 25 5 0 11 -4 15
-9z m1703 -9 c2 -7 -3 -12 -12 -12 -9 0 -16 7 -16 16 0 17 22 14 28 -4z m1702
3 c0 -8 -4 -15 -9 -15 -13 0 -22 16 -14 24 11 11 23 6 23 -9z m-3642 -83 c2
-7 -3 -12 -12 -12 -9 0 -16 7 -16 16 0 17 22 14 28 -4z m1702 3 c0 -8 -4 -15
-9 -15 -13 0 -22 16 -14 24 11 11 23 6 23 -9z m1702 0 c0 -5 -5 -11 -11 -13
-6 -2 -11 4 -11 13 0 9 5 15 11 13 6 -2 11 -8 11 -13z m-3672 -86 c0 -5 -7 -9
-15 -9 -15 0 -20 12 -9 23 8 8 24 -1 24 -14z m1700 6 c0 -8 -7 -15 -15 -15
-16 0 -20 12 -8 23 11 12 23 8 23 -8z m1708 -3 c2 -7 -3 -12 -12 -12 -9 0 -16
7 -16 16 0 17 22 14 28 -4z m-2068 -46 c0 -3 -4 -8 -10 -11 -5 -3 -10 -1 -10
4 0 6 5 11 10 11 6 0 10 -2 10 -4z m650 -10 c0 -3 -4 -8 -10 -11 -5 -3 -10 -1
-10 4 0 6 5 11 10 11 6 0 10 -2 10 -4z m-2910 -16 c0 -5 -2 -10 -4 -10 -3 0
-8 5 -11 10 -3 6 -1 10 4 10 6 0 11 -4 11 -10z m3410 0 c0 -5 -4 -10 -10 -10
-5 0 -10 5 -10 10 0 6 5 10 10 10 6 0 10 -4 10 -10z m-3258 -45 c0 -5 -5 -11
-11 -13 -6 -2 -11 4 -11 13 0 9 5 15 11 13 6 -2 11 -8 11 -13z m1708 -6 c0 -5
-7 -9 -15 -9 -15 0 -20 12 -9 23 8 8 24 -1 24 -14z m1700 6 c0 -8 -7 -15 -15
-15 -16 0 -20 12 -8 23 11 12 23 8 23 -8z m-2860 -35 c0 -5 -2 -10 -4 -10 -3
0 -8 5 -11 10 -3 6 -1 10 4 10 6 0 11 -4 11 -10z m3410 6 c0 -3 -4 -8 -10 -11
-5 -3 -10 -1 -10 4 0 6 5 11 10 11 6 0 10 -2 10 -4z m-1595 -56 c13 -41 -43
-70 -64 -33 -13 25 5 53 34 53 15 0 26 -7 30 -20z"/>
<path d="M4723 5728 c-18 -41 -28 -128 -15 -128 16 0 34 74 30 118 l-4 37 -11
-27z"/>
<path d="M4697 5563 c-4 -3 -7 -11 -7 -17 0 -6 5 -5 12 2 6 6 9 14 7 17 -3 3
-9 2 -12 -2z"/>
<path d="M4986 5514 c-12 -31 -6 -72 16 -99 l22 -28 8 23 c8 22 2 95 -8 112
-9 14 -32 9 -38 -8z"/>
<path d="M4901 5429 c-12 -35 -15 -98 -5 -123 10 -25 61 -20 89 9 32 31 31 37
-4 53 -17 8 -38 29 -49 53 l-20 40 -11 -32z"/>
<path d="M3764 4608 c-5 -7 -8 -52 -6 -100 l3 -88 38 0 c53 0 61 13 61 96 0
64 -3 75 -22 88 -27 19 -62 21 -74 4z m26 -23 c0 -8 -4 -15 -10 -15 -5 0 -10
7 -10 15 0 8 5 15 10 15 6 0 10 -7 10 -15z"/>
<path d="M4302 5629 c-18 -93 -23 -154 -12 -143 17 17 42 161 32 181 -8 13
-12 5 -20 -38z"/>
<path d="M4150 5338 c-25 -42 -45 -128 -36 -162 13 -53 49 -23 84 71 35 91 -3
164 -48 91z"/>
<path d="M3862 5303 c-17 -6 -49 -70 -57 -115 -9 -47 2 -98 21 -98 18 0 51 70
60 130 4 25 14 50 22 55 11 9 10 13 -10 21 -12 6 -29 9 -36 7z"/>
<path d="M3637 5273 c-18 -34 7 -133 34 -133 10 0 12 100 3 124 -6 17 -30 22
-37 9z"/>
<path d="M3553 5190 c-48 -117 3 -196 79 -123 34 33 35 39 4 47 -26 6 -61 48
-68 81 -4 18 -6 18 -15 -5z"/>
<path d="M4141 4453 c-6 -49 -14 -103 -17 -120 -6 -32 -5 -33 30 -33 25 0 36
4 36 15 0 21 -30 218 -34 222 -2 2 -8 -36 -15 -84z"/>
<path d="M3865 3248 c-63 -85 -66 -92 -49 -105 10 -7 20 -13 23 -13 3 0 36 42
73 93 48 67 63 95 56 105 -20 24 -37 11 -103 -80z"/>
<path d="M3744 3079 c-3 -6 0 -18 9 -26 18 -18 37 -9 37 18 0 21 -34 27 -46 8z"/>
<path d="M2553 1190 c-35 -49 -63 -92 -63 -97 0 -5 8 -13 18 -19 15 -10 26 1
86 83 56 77 66 96 56 108 -7 8 -18 15 -24 15 -6 -1 -39 -41 -73 -90z"/>
<path d="M2434 1015 c-4 -9 -2 -21 4 -27 15 -15 44 -1 40 19 -4 23 -36 29 -44
8z"/>
</g>
</svg>
