<?xml version="1.0" standalone="no"?>
<!DOCTYPE svg PUBLIC "-//W3C//DTD SVG 20010904//EN"
 "http://www.w3.org/TR/2001/REC-SVG-20010904/DTD/svg10.dtd">
<svg version="1.0" xmlns="http://www.w3.org/2000/svg"
 width="4500.000000pt" height="4500.000000pt" viewBox="0 0 4500.000000 4500.000000"
 preserveAspectRatio="xMidYMid meet">

<g transform="translate(0.000000,4500.000000) scale(0.100000,-0.100000)"
fill="#000000" stroke="none">
<path d="M22140 42053 c-95 -8 -277 -45 -383 -79 -145 -46 -367 -156 -487
-241 -261 -185 -761 -780 -1167 -1388 -650 -974 -1122 -2055 -1432 -3280 -93
-370 -162 -698 -236 -1131 l-5 -31 -198 -6 c-225 -6 -322 -23 -517 -88 -356
-120 -675 -368 -881 -685 -117 -178 -143 -248 -706 -1879 -298 -863 -554
-1617 -569 -1675 -36 -141 -49 -254 -49 -444 0 -141 -3 -167 -25 -242 -57
-185 -66 -259 -72 -567 l-5 -289 -66 -46 c-906 -648 -1725 -1415 -2428 -2272
-1351 -1649 -2253 -3648 -2604 -5770 -94 -570 -141 -1064 -160 -1680 -14 -451
-13 -13780 1 -13965 41 -551 276 -1048 671 -1420 330 -310 711 -495 1180 -572
94 -16 286 -17 2161 -20 l2057 -4 0 -275 c0 -212 4 -292 16 -352 69 -336 316
-595 654 -684 l85 -23 5340 0 5340 0 85 23 c165 43 297 121 416 244 112 115
173 218 221 375 26 86 27 97 31 391 l4 302 2162 0 c1403 0 2208 4 2292 10 966
78 1764 791 1949 1742 13 68 29 186 34 263 14 188 15 13517 1 13965 -65 2072
-620 4023 -1656 5822 -948 1646 -2280 3067 -3865 4125 l-156 104 -6 167 c-6
170 -23 274 -66 412 -17 55 -21 92 -21 230 0 183 -11 290 -42 425 -22 93
-1093 3207 -1148 3336 -80 189 -202 364 -364 524 -139 137 -263 226 -431 310
-259 128 -445 174 -742 182 -106 3 -193 9 -193 13 0 22 -86 480 -121 645 -362
1704 -1000 3122 -1962 4360 -307 395 -556 667 -727 797 -119 90 -349 209 -495
257 -226 73 -477 103 -715 84z m388 -617 c223 -48 425 -154 577 -302 121 -118
408 -466 628 -762 806 -1082 1365 -2348 1696 -3837 56 -253 103 -504 171 -918
32 -197 61 -361 64 -364 3 -3 135 6 293 21 158 14 329 26 379 26 404 -1 797
-245 978 -609 24 -47 118 -302 209 -566 91 -264 337 -976 546 -1582 261 -756
386 -1130 396 -1189 10 -58 15 -154 15 -293 0 -204 1 -209 30 -296 54 -160 60
-209 60 -508 l0 -275 218 -141 c121 -77 288 -189 373 -247 1636 -1132 2975
-2690 3869 -4499 762 -1543 1164 -3145 1220 -4856 13 -420 13 -13763 0 -13917
-34 -384 -184 -708 -454 -978 -234 -233 -506 -377 -836 -440 -90 -18 -209 -19
-2322 -22 l-2228 -2 0 217 c0 120 -3 242 -6 271 l-7 52 97 0 c347 0 656 198
802 516 71 153 76 192 83 649 l6 411 90 119 c348 464 868 779 1469 890 366 67
784 58 1156 -25 381 -85 732 -243 1013 -454 l86 -65 -25 72 c-39 108 -137 294
-207 394 -81 114 -258 290 -377 375 -123 88 -343 197 -495 247 -222 72 -424
103 -675 103 -395 1 -750 -84 -1098 -261 -371 -190 -697 -492 -891 -825 l-46
-80 -6 709 c-6 768 -4 742 -63 898 -86 228 -275 417 -510 508 -139 54 -201 59
-722 59 l-474 0 2 677 3 678 1170 195 c644 107 1176 199 1183 203 6 5 12 24
12 44 0 20 -83 639 -185 1376 l-186 1341 -77 80 c-42 44 -84 87 -92 96 -8 9
-144 149 -301 311 -157 162 -565 583 -907 937 l-622 643 0 7099 c0 7009 0
7099 -19 7110 -11 5 -31 10 -45 10 l-25 0 -3 368 -3 367 -529 1530 c-291 842
-537 1542 -548 1557 -25 36 -96 62 -143 54 -20 -4 -52 -22 -71 -39 -33 -30
-65 -120 -565 -1566 l-529 -1534 0 -369 0 -368 -32 0 c-17 0 -40 -7 -50 -17
-17 -16 -18 -179 -19 -4807 0 -2635 -2 -4786 -5 -4781 -2 6 -46 236 -99 512
l-95 502 0 5678 c0 5662 -1 5877 -35 6448 -137 2304 -653 4056 -1616 5490
-272 407 -708 947 -793 986 -52 24 -130 24 -182 0 -82 -37 -504 -560 -777
-963 -830 -1224 -1333 -2699 -1546 -4533 -41 -350 -64 -631 -103 -1250 -9
-141 -13 -1693 -17 -6050 l-6 -5860 -88 -455 c-48 -250 -92 -466 -97 -480 -5
-14 -9 2005 -9 4767 -1 4727 -1 4792 -20 4803 -11 5 -33 10 -50 10 l-31 0 0
369 0 369 -525 1523 c-289 838 -534 1535 -544 1548 -48 68 -115 85 -187 51
-38 -19 -51 -32 -69 -74 -13 -28 -188 -530 -390 -1116 -202 -586 -408 -1182
-457 -1325 -49 -143 -119 -344 -154 -447 l-64 -188 0 -355 0 -355 -29 0 c-16
0 -37 -7 -45 -16 -15 -14 -16 -674 -16 -7109 l0 -7094 -911 -943 c-501 -519
-951 -983 -1000 -1033 l-88 -90 -188 -1368 c-186 -1359 -187 -1367 -168 -1386
17 -16 218 -52 1185 -213 l1165 -194 3 -675 2 -676 -197 -6 c-158 -5 -223 -11
-322 -32 -561 -117 -1018 -520 -1209 -1066 -25 -70 -54 -191 -74 -311 -2 -12
-30 7 -105 72 -319 273 -719 448 -1148 500 -115 14 -385 14 -500 0 -901 -111
-1615 -770 -1981 -1828 -24 -71 -36 -116 -26 -102 308 442 638 739 1063 959
781 405 1762 435 2614 80 l71 -29 23 -303 c12 -166 40 -493 62 -727 21 -234
46 -499 54 -588 12 -128 22 -184 46 -258 117 -352 454 -604 810 -604 l72 0 -7
-38 c-3 -20 -6 -142 -6 -270 l0 -232 -2042 2 c-2285 4 -2101 -2 -2343 75 -402
128 -740 419 -930 800 -89 179 -138 362 -156 581 -15 189 -7 13981 9 14197 24
335 34 447 58 665 185 1682 736 3311 1613 4770 227 378 613 932 884 1270 733
913 1518 1648 2500 2337 l192 135 6 421 c6 459 9 479 73 651 25 65 26 78 26
276 0 137 5 236 15 291 18 103 1094 3228 1148 3334 146 288 422 509 731 586
138 34 270 35 611 4 168 -16 307 -26 311 -22 3 3 35 181 70 394 124 751 237
1255 404 1798 403 1309 976 2375 1822 3391 193 232 306 345 421 421 214 143
435 207 687 198 69 -2 158 -11 198 -19z m-822 -1868 c-800 -1130 -1320 -2591
-1540 -4328 -83 -656 -135 -1504 -136 -2211 0 -194 1 -207 20 -224 16 -15 26
-17 48 -9 l27 9 7 270 c4 149 12 423 18 610 75 2374 582 4247 1534 5668 56 83
128 187 160 230 l57 77 306 -2 305 -3 50 -120 c549 -1332 922 -3078 1043
-4880 33 -492 38 -640 41 -1228 2 -445 6 -613 15 -623 9 -12 82 -14 429 -14
363 0 419 2 430 15 10 12 12 98 7 408 -24 1569 -292 3201 -742 4517 -247 722
-581 1403 -906 1852 -27 37 -49 70 -49 73 0 3 22 5 50 5 59 0 46 16 245 -285
952 -1439 1445 -3164 1574 -5515 30 -534 32 -998 29 -6170 l-3 -5265 -223
1175 c-207 1096 -231 1229 -341 1975 -66 440 -131 886 -146 990 -63 458 -148
900 -256 1330 -44 174 -156 565 -188 659 -21 59 -21 66 -21 2041 0 1979 0
1982 -20 2000 -16 15 -26 17 -48 9 l-27 -9 -5 -1830 c-3 -1143 -8 -1822 -14
-1810 -5 11 -31 74 -58 140 l-48 120 0 1682 c0 1515 -2 1683 -16 1697 -18 19
-38 20 -65 6 -19 -11 -19 -39 -20 -1578 l0 -1567 -59 115 -59 115 0 1447 c-1
1301 -3 1448 -17 1462 -17 18 -42 20 -64 6 -13 -8 -16 -174 -20 -1357 l-5
-1348 -55 90 -55 90 -5 1260 -5 1260 -27 9 c-22 8 -32 6 -48 -9 -20 -18 -20
-27 -22 -1182 l-3 -1164 -52 70 -53 71 0 1082 c0 851 -3 1088 -13 1108 -15 31
-52 37 -78 14 -18 -17 -19 -44 -19 -1038 l0 -1020 -55 54 -55 54 0 961 c0 853
-2 963 -16 983 -18 26 -50 28 -76 5 -17 -15 -18 -57 -18 -921 0 -722 -3 -902
-12 -895 -25 19 -46 21 -72 8 l-26 -14 0 897 c0 978 2 942 -55 942 -57 0 -55
42 -55 -1004 l0 -959 -55 -58 -55 -58 0 1023 c0 1015 0 1023 -20 1041 -16 15
-26 17 -48 9 l-27 -9 -5 -1101 -5 -1100 -55 -72 -55 -72 -5 1170 c-4 1026 -7
1172 -20 1180 -20 13 -37 12 -61 0 -19 -11 -19 -35 -19 -1261 l0 -1250 -60
-102 -60 -102 0 1347 c0 1211 -2 1348 -16 1362 -8 9 -24 16 -34 16 -10 0 -26
-7 -34 -16 -14 -14 -16 -160 -16 -1459 l0 -1443 -57 -118 -58 -118 -5 1569 -5
1570 -27 9 c-22 8 -32 6 -48 -9 -20 -18 -20 -22 -20 -1698 l0 -1681 -57 -145
-58 -146 -5 1835 -5 1835 -27 9 c-22 8 -32 6 -48 -9 -20 -18 -20 -21 -20
-1997 l0 -1979 -49 -157 c-176 -562 -335 -1288 -416 -1897 -9 -66 -72 -498
-141 -960 -116 -781 -140 -919 -340 -1975 -118 -624 -218 -1153 -223 -1175
-14 -64 -7 10932 7 11185 42 738 80 1168 148 1655 238 1715 749 3109 1566
4268 l69 97 55 0 55 0 -65 -92z m-3567 -5865 c37 -158 75 -402 98 -633 24
-248 24 -778 0 -980 -45 -363 -134 -643 -258 -807 l-40 -53 -370 0 c-214 0
-369 4 -367 9 2 5 203 590 448 1300 245 710 448 1291 452 1291 3 0 20 -57 37
-127z m8055 -13 c51 -224 86 -487 107 -795 15 -215 6 -645 -16 -825 -43 -351
-131 -624 -253 -785 l-38 -50 -371 -3 -372 -2 23 67 c85 248 860 2493 868
2513 13 35 20 18 52 -120z m-6834 -2665 l0 -95 -1090 0 -1090 0 0 95 0 95
1090 0 1090 0 0 -95z m8050 0 l0 -95 -1090 0 -1090 0 0 95 0 95 1090 0 1090 0
0 -95z m-4921 -560 c37 -44 80 -97 95 -117 l28 -38 -316 0 -317 0 63 82 c35
45 105 126 157 180 l94 99 64 -63 c36 -35 95 -99 132 -143z m-4883 -151 c95
-57 199 -141 270 -217 85 -93 196 -258 251 -375 l43 -93 0 -210 0 -209 -545 0
-545 0 0 570 0 570 233 0 233 0 60 -36z m8094 -9 c233 -144 412 -358 532 -636
l38 -89 0 -185 0 -185 -570 0 -570 0 0 570 0 570 248 0 248 0 74 -45z m-3589
-432 c14 -37 24 -280 15 -365 -11 -97 -56 -158 -108 -145 -61 16 -68 116 -19
307 33 130 72 230 91 230 6 0 15 -12 21 -27z m213 -20 c21 -65 47 -240 49
-338 1 -68 -2 -86 -21 -117 -25 -40 -45 -49 -78 -35 -59 25 -70 121 -39 329
19 132 41 208 60 208 7 0 20 -21 29 -47z m211 -5 c31 -68 83 -268 90 -350 5
-50 2 -70 -12 -98 -33 -64 -97 -49 -131 30 -20 47 -28 261 -13 369 16 122 28
131 66 49z m-715 -652 c0 -92 -31 -86 475 -86 507 0 475 -6 475 87 l0 55 63
-6 c34 -3 133 -11 220 -17 143 -11 160 -14 172 -33 32 -52 241 -633 231 -643
-3 -3 -89 2 -193 11 -103 9 -257 19 -340 22 l-153 7 0 185 c0 159 -2 188 -17
204 -15 17 -43 18 -456 18 -396 0 -442 -2 -459 -17 -16 -14 -18 -35 -18 -205
l0 -188 -67 0 c-66 0 -402 -22 -550 -36 -40 -4 -73 -4 -73 -1 0 35 222 632
243 654 10 9 261 35 420 42 26 1 27 0 27 -53z m-4211 -113 c213 -124 402 -342
523 -601 l38 -82 0 -875 0 -875 -545 0 -545 0 0 1230 0 1230 242 0 241 0 46
-27z m8127 -32 c209 -138 377 -343 491 -602 l43 -99 0 -850 0 -850 -570 0
-570 0 0 1230 0 1230 259 0 259 0 88 -59z m-3613 -259 c35 -31 14 -104 -33
-113 -56 -11 -102 43 -79 94 20 44 72 53 112 19z m237 -21 c30 -73 -68 -129
-119 -67 -7 9 -13 27 -13 41 0 73 104 94 132 26z m184 38 c13 -7 30 -24 36
-39 28 -68 -57 -123 -112 -73 -36 32 -17 98 32 116 8 3 16 6 17 6 1 1 13 -4
27 -10z m523 -333 c230 -16 425 -35 431 -41 11 -10 110 -370 172 -620 131
-531 225 -1060 289 -1630 23 -202 51 -543 51 -614 l0 -47 -127 12 c-885 84
-2266 84 -3172 0 l-134 -12 7 120 c40 690 179 1566 361 2271 53 204 140 514
148 521 9 9 355 35 777 58 155 8 1001 -4 1197 -18z m-5437 -1983 c190 -117
385 -342 495 -575 l45 -95 0 -2137 0 -2136 -545 0 -545 0 0 2500 0 2500 228 0
228 0 94 -57z m8027 30 c103 -56 172 -110 269 -207 115 -116 208 -249 286
-411 l53 -110 3 -2122 2 -2123 -570 0 -570 0 0 2500 0 2500 240 0 239 0 48
-27z m-3417 -6933 l0 -5910 -840 0 -840 0 0 5773 c0 3174 3 5816 7 5869 l6 97
46 5 c244 32 975 68 1494 74 l127 2 0 -5910z m890 5889 c124 -5 269 -12 323
-15 l97 -7 0 -5888 0 -5889 -600 0 -600 0 0 5911 0 5911 278 -6 c152 -4 378
-11 502 -17z m608 -35 l22 -6 0 -5879 0 -5879 -55 0 -55 0 0 5885 0 5885 33 0
c17 0 42 -3 55 -6z m-6146 -4025 c222 -130 391 -316 519 -572 l59 -118 0
-1628 0 -1629 -496 -513 c-273 -283 -518 -536 -545 -564 l-49 -50 0 2553 0
2552 230 0 229 0 53 -31z m8077 1 c223 -120 431 -360 562 -650 l34 -75 3
-1534 2 -1534 -193 199 c-106 109 -213 222 -238 249 -28 30 -123 183 -236 380
l-190 330 -47 255 c-27 140 -90 478 -142 750 l-94 495 0 583 0 582 241 0 241
0 57 -30z m-6132 -3085 l82 -115 -68 -434 -67 -434 -2200 -2205 c-1209 -1212
-2200 -2201 -2202 -2197 -1 3 58 194 132 424 108 335 140 425 163 449 36 39
2528 2593 2763 2832 98 99 360 367 583 595 l405 415 158 393 c87 215 161 392
164 392 3 -1 42 -52 87 -115z m5763 -272 l155 -388 230 -235 c126 -129 315
-323 420 -430 105 -107 384 -393 620 -635 236 -242 515 -528 620 -635 105
-107 574 -587 1042 -1066 l850 -871 41 -124 c22 -68 64 -196 92 -284 28 -88
71 -222 96 -298 25 -76 44 -141 42 -145 -2 -4 -993 984 -2202 2195 l-2199
2203 -64 408 c-34 224 -64 421 -65 437 -2 24 14 54 77 142 44 62 82 112 85
113 4 0 76 -174 160 -387z m-4840 -283 l0 -400 -434 0 -433 0 13 83 c7 45 34
219 59 387 26 168 48 311 50 318 3 9 87 12 375 12 l370 0 0 -400z m4432 280
c63 -415 100 -647 104 -662 5 -17 -20 -18 -430 -18 l-436 0 0 400 0 400 372
-2 373 -3 17 -115z m-4435 -2590 l3 -1805 -93 -97 c-51 -53 -123 -138 -160
-190 -78 -108 -201 -350 -249 -490 l-33 -98 -2418 0 c-1440 0 -2417 4 -2415 9
2 5 1008 1015 2236 2245 l2232 2236 448 -2 447 -3 2 -1805z m6801 -421 c1225
-1227 2231 -2237 2235 -2245 7 -12 -338 -14 -2410 -14 l-2418 0 -33 98 c-94
273 -262 545 -446 720 l-56 54 0 1802 c0 992 3 1806 7 1809 3 4 206 7 450 7
l443 0 2228 -2231z m-5795 -1526 c161 -369 258 -1246 274 -2495 l6 -478 -961
0 -962 0 0 278 c0 618 45 1208 121 1597 91 468 247 806 487 1056 l94 99 458 0
457 0 26 -57z m2560 -55 c255 -520 366 -1350 271 -2023 -9 -60 -33 -177 -54
-260 -65 -254 -154 -440 -273 -571 l-59 -64 -530 0 -531 0 6 468 c17 1240 111
2108 269 2490 l30 72 408 0 408 0 55 -112z m-1843 -1858 c22 -993 40 -1838 40
-1878 l0 -73 -27 3 -28 3 -94 1265 -94 1265 68 565 c84 704 89 747 93 695 1
-22 20 -852 42 -1845z m361 1199 l72 -606 -94 -1269 -94 -1269 -27 -3 c-28 -3
-28 -3 -28 60 0 35 18 864 40 1843 22 979 40 1812 41 1850 1 60 2 65 10 35 4
-19 41 -308 80 -641z m-5181 -934 c0 -790 -1 -815 -19 -815 -10 0 -33 3 -50 6
l-31 7 0 808 0 809 50 0 50 0 0 -815z m9970 6 l0 -808 -31 -7 c-17 -3 -40 -6
-50 -6 -18 0 -19 25 -19 815 l0 815 50 0 50 0 0 -809z m-11305 74 c616 -30
1123 -55 1128 -55 4 0 7 -139 7 -310 0 -241 -3 -310 -12 -310 -29 1 -2378 387
-2383 392 -4 4 33 201 60 316 4 18 12 22 43 22 20 0 541 -25 1157 -55z m13739
38 c14 -44 66 -317 61 -321 -6 -6 18 -2 -1392 -232 -541 -88 -987 -160 -993
-160 -6 0 -10 107 -10 310 l0 310 33 1 c17 0 505 24 1082 53 1237 63 1212 62
1219 39z m-11102 -166 c593 -29 1080 -56 1083 -59 4 -3 1 -73 -5 -154 -6 -82
-13 -285 -17 -451 -4 -209 -10 -303 -17 -303 -6 0 -513 83 -1126 183 l-1115
183 -3 327 -2 327 62 0 c35 -1 548 -25 1140 -53z m8466 -274 l-3 -328 -75 -12
c-41 -6 -545 -88 -1118 -182 -574 -94 -1047 -169 -1051 -166 -4 2 -11 141 -14
307 -4 167 -11 368 -17 447 -6 79 -8 146 -5 149 6 6 2034 109 2193 111 l92 1
-2 -327z m-9957 -629 c298 -163 608 -428 794 -676 85 -112 159 -235 170 -280
l7 -28 -531 0 -531 0 0 515 c0 283 2 515 4 515 2 0 41 -21 87 -46z m2497 -360
c39 -6 42 -9 42 -38 0 -17 7 -42 16 -54 15 -22 15 -22 346 -22 260 0 329 -3
325 -12 -99 -225 -183 -479 -220 -665 l-22 -113 -297 0 -298 0 0 461 0 461 33
-6 c17 -3 51 -8 75 -12z m5362 -444 l0 -460 -298 0 -298 0 -2 25 c-4 49 -62
274 -102 399 -33 103 -84 234 -137 354 -4 9 64 12 323 12 368 0 364 -1 364 70
l0 38 58 10 c31 5 65 10 75 11 16 1 17 -27 17 -459z m1240 95 l0 -275 -425 0
c-410 0 -425 1 -416 18 20 37 240 239 332 304 52 37 137 90 190 117 96 51 254
109 297 110 l22 1 0 -275z m-8100 -465 l0 -90 -545 0 -545 0 0 90 0 90 545 0
545 0 0 -90z m8100 0 l0 -90 -531 0 -531 0 21 35 c11 19 38 60 61 90 l41 55
469 0 470 0 0 -90z m-1211 -620 c211 -44 394 -121 579 -243 79 -52 143 -106
245 -208 l137 -137 0 151 c0 139 2 156 24 203 29 63 79 114 142 145 l49 24
1170 0 1170 0 42 -23 c66 -35 110 -79 140 -140 l28 -57 3 -268 c2 -171 -1
-287 -8 -320 -22 -105 -104 -193 -208 -223 l-53 -16 40 -34 c22 -19 52 -60 68
-92 l28 -57 0 -290 c0 -336 -3 -353 -88 -442 -46 -49 -48 -53 -26 -53 41 0
122 -45 165 -92 75 -81 79 -103 79 -433 0 -274 -1 -293 -21 -336 -28 -60 -76
-114 -133 -147 l-46 -27 -1180 0 c-1156 0 -1181 0 -1220 20 -51 25 -115 89
-140 140 -17 35 -20 65 -23 232 l-3 192 -127 -127 c-148 -149 -269 -238 -437
-321 -514 -255 -1121 -219 -1600 93 l-85 56 0 -28 c0 -95 -90 -214 -187 -246
-44 -15 -92 -16 -374 -14 -299 3 -327 5 -364 23 -70 34 -116 92 -179 223 l-60
122 -367 0 -368 0 -68 -137 c-59 -120 -74 -143 -116 -174 -27 -20 -66 -41 -87
-48 -24 -7 -146 -11 -347 -11 -346 0 -368 3 -442 66 -80 69 -120 175 -101 273
5 27 82 201 175 393 91 190 165 347 165 350 0 3 -30 -7 -67 -22 -160 -64 -153
-64 -685 -68 l-487 -3 -3 -387 -3 -387 -27 -51 c-32 -60 -94 -119 -154 -146
-41 -18 -66 -19 -372 -16 l-327 3 -46 27 c-57 33 -105 87 -133 147 -19 42 -21
68 -26 326 -5 256 -6 276 -18 230 -20 -75 -84 -205 -144 -292 -134 -195 -329
-335 -573 -410 l-90 -28 -900 0 -900 0 -46 27 c-57 33 -105 87 -133 147 -20
44 -21 62 -21 341 0 280 1 297 21 341 31 66 87 124 151 156 53 25 66 27 225
31 l168 5 -78 31 c-121 49 -227 120 -328 221 -133 133 -209 259 -259 430 -107
370 -4 759 273 1027 163 157 364 258 576 287 50 7 362 11 890 11 899 0 871 2
959 -65 30 -23 55 -55 76 -96 l31 -62 0 -301 c0 -295 -1 -302 -24 -352 -28
-61 -82 -115 -145 -146 -42 -21 -63 -23 -225 -26 l-179 -4 81 -32 c204 -83
376 -228 490 -417 39 -63 110 -229 114 -265 2 -11 5 332 8 761 5 774 5 780 27
827 31 68 99 131 167 157 56 21 64 21 914 21 925 0 955 -2 1109 -54 309 -105
559 -359 656 -666 12 -38 24 -70 27 -70 3 0 77 149 164 330 171 356 195 392
284 433 40 19 65 22 172 22 112 0 130 -3 174 -24 96 -48 100 -55 431 -741
l309 -643 13 99 c69 552 411 1022 918 1260 138 65 292 108 490 138 17 2 109 3
205 1 134 -2 200 -8 279 -25z m-1254 -3534 c170 -36 347 -124 476 -236 l55
-48 11 41 c24 88 104 172 188 197 29 8 198 10 615 8 l575 -3 68 -24 c37 -13
100 -43 139 -66 l71 -41 44 47 c24 26 66 56 93 68 49 21 55 21 762 19 807 -3
749 3 835 -86 70 -72 83 -122 83 -331 0 -195 -9 -247 -55 -307 l-27 -36 0
-247 0 -248 31 -49 c48 -74 53 -108 49 -318 -3 -185 -4 -193 -30 -241 -31 -60
-77 -104 -138 -136 l-45 -24 -710 0 -710 0 -47 23 -48 24 -47 -24 c-46 -22
-56 -23 -298 -23 l-250 0 -50 27 c-60 32 -94 67 -170 176 -31 45 -60 80 -65
77 -4 -2 -10 -22 -13 -43 -11 -88 -79 -176 -166 -216 -43 -19 -62 -21 -266
-21 -212 0 -222 1 -265 24 -84 43 -136 108 -164 203 l-11 38 -55 -45 c-194
-162 -421 -245 -672 -245 -164 0 -241 16 -449 96 -46 18 -46 18 -70 -5 -13
-13 -44 -33 -69 -45 -45 -21 -51 -21 -770 -21 l-725 0 -51 27 c-28 15 -70 48
-92 73 -65 74 -72 107 -72 351 l0 213 -53 -25 c-116 -52 -192 -64 -423 -64
l-212 0 -4 -177 c-3 -171 -4 -180 -31 -235 -30 -61 -74 -105 -140 -140 -42
-23 -45 -23 -477 -23 l-435 0 -50 27 c-59 31 -86 59 -190 196 -43 56 -81 102
-85 102 -5 0 -45 -50 -90 -110 -45 -61 -103 -128 -128 -150 -82 -72 -41 -70
-1031 -70 -1023 0 -957 -6 -1051 88 -96 96 -90 39 -90 930 0 547 3 786 11 812
17 55 77 130 133 165 l49 30 936 3 c1028 3 987 5 1063 -58 20 -16 71 -77 114
-135 43 -58 81 -105 85 -105 4 0 44 50 89 110 86 115 137 159 205 179 29 9
250 11 825 9 l785 -3 80 -28 c44 -16 101 -41 126 -57 l47 -28 33 34 c18 19 56
45 83 59 49 24 56 25 265 25 206 0 218 -1 266 -24 62 -29 117 -86 147 -151 23
-50 23 -54 26 -522 l3 -473 182 0 182 0 0 172 c0 150 3 184 23 258 115 420
451 723 877 790 81 12 274 5 360 -14z"/>
<path d="M28210 22841 l0 -6359 838 -864 c1076 -1111 1031 -1063 1075 -1139
57 -97 72 -162 117 -486 22 -164 43 -307 45 -319 4 -17 21 -24 112 -43 330
-68 675 -234 948 -454 115 -93 298 -286 383 -403 l73 -100 114 -12 c491 -52
1042 -228 1443 -462 l53 -31 -4 4123 c-2 3054 -6 4163 -15 4278 -46 597 -98
996 -192 1470 -373 1884 -1235 3626 -2509 5075 -144 164 -204 227 -436 463
-409 416 -800 756 -1279 1112 -237 176 -734 510 -759 510 -4 0 -7 -2861 -7
-6359z m2261 2734 c29 -129 57 -235 60 -235 4 0 89 68 189 151 100 83 183 149
186 147 2 -2 -3 -24 -10 -48 -91 -297 -126 -414 -123 -416 1 -1 106 15 232 37
127 21 234 38 239 36 5 -2 -70 -77 -167 -167 -97 -91 -173 -168 -169 -171 4
-3 102 -41 217 -84 246 -90 246 -90 214 -98 -13 -3 -118 -27 -234 -53 -115
-26 -213 -50 -216 -53 -4 -3 62 -89 147 -191 84 -102 150 -186 146 -187 -4 -2
-108 28 -232 66 -124 38 -226 68 -228 66 -3 -2 48 -320 74 -460 5 -30 5 -30
-37 15 -23 25 -100 107 -172 183 l-130 138 -86 -232 c-62 -169 -87 -226 -93
-213 -4 11 -30 118 -58 238 -27 121 -51 220 -52 222 -2 1 -86 -67 -188 -152
-102 -84 -188 -154 -191 -154 -3 0 26 106 66 235 40 129 70 235 67 235 -3 0
-111 -18 -240 -41 -129 -22 -236 -38 -238 -36 -2 2 75 77 171 166 96 90 175
166 175 170 0 3 -67 30 -148 60 -280 103 -305 114 -291 121 8 4 111 28 229 55
118 27 219 52 223 56 5 4 -60 89 -143 190 -84 101 -148 184 -144 186 5 2 110
-28 234 -66 124 -38 226 -68 227 -68 0 1 -16 103 -38 227 -22 124 -38 232 -37
240 2 10 33 -16 83 -70 44 -47 119 -127 166 -178 l87 -92 82 222 c82 221 89
238 94 238 2 0 27 -106 57 -235z m1027 -3485 l34 -79 90 -3 90 -3 -44 -60
c-24 -33 -47 -66 -52 -73 -4 -7 9 -42 33 -87 23 -41 41 -77 41 -80 0 -4 -17
-4 -37 -1 -21 3 -61 8 -89 11 l-51 7 -44 -76 c-24 -42 -47 -76 -50 -76 -4 0
-21 36 -40 80 l-33 80 -88 0 c-48 0 -88 3 -88 8 0 4 22 38 49 76 l50 69 -41
74 c-22 41 -38 76 -35 80 3 3 42 1 87 -4 55 -6 83 -6 89 1 4 6 25 39 45 74 21
34 40 62 44 62 4 0 22 -36 40 -80z m-1957 -1040 l34 -80 88 0 c48 0 87 -3 87
-8 0 -4 -22 -39 -50 -76 l-49 -69 36 -66 c20 -36 41 -72 47 -80 9 -11 -3 -12
-74 -6 -47 4 -89 8 -94 9 -5 0 -29 -32 -53 -72 -25 -40 -48 -70 -52 -67 -5 2
-23 38 -41 79 l-32 75 -90 3 -90 3 44 60 c24 33 47 66 52 73 4 7 -9 43 -33 88
-23 42 -41 78 -41 81 0 4 53 0 141 -13 36 -5 37 -5 80 70 24 42 47 76 50 76 3
0 21 -36 40 -80z m1634 -1525 c14 -13 25 -36 25 -50 0 -33 -41 -75 -73 -75
-40 0 -77 36 -77 75 0 24 7 39 26 54 35 28 69 26 99 -4z m-199 -447 c8 -28
-22 -68 -51 -68 -31 0 -59 40 -50 70 14 43 87 42 101 -2z m124 -153 c62 -32
80 -129 35 -183 -52 -61 -129 -66 -184 -11 -55 55 -50 132 11 184 35 29 93 33
138 10z m-1241 -60 c36 -18 55 -62 42 -97 -12 -32 -48 -58 -79 -58 -30 0 -82
52 -82 82 0 30 26 67 54 78 29 12 33 12 65 -5z m1061 -540 c63 -67 -18 -169
-99 -125 -31 16 -46 65 -31 100 15 37 35 49 76 50 20 0 39 -9 54 -25z m-760
-15 c27 -27 26 -77 -2 -107 -45 -49 -128 -14 -128 54 0 44 30 73 75 73 22 0
43 -8 55 -20z m203 -351 c44 -48 32 -113 -28 -145 -61 -32 -135 14 -135 85 1
42 15 64 56 86 38 20 72 12 107 -26z m1522 6 c38 -37 35 -95 -6 -129 -17 -14
-39 -26 -49 -26 -51 0 -100 49 -100 99 0 11 12 33 26 50 34 41 92 44 129 6z
m-1038 -45 c39 -24 56 -53 56 -100 0 -75 -73 -132 -143 -111 -57 17 -85 53
-85 111 0 95 92 149 172 100z m-478 -325 c31 -16 41 -33 41 -71 0 -59 -56 -96
-110 -74 -36 15 -50 37 -50 77 0 33 7 43 40 66 30 21 43 21 79 2z m1008 -178
c15 -14 27 -40 30 -65 5 -37 2 -45 -30 -77 -25 -25 -44 -35 -67 -35 -64 0
-109 43 -110 104 0 30 7 45 35 73 32 32 40 35 77 30 25 -3 51 -15 65 -30z
m-1467 -287 c11 -11 20 -28 20 -37 0 -23 -30 -53 -53 -53 -26 0 -57 28 -57 52
0 22 34 58 55 58 8 0 24 -9 35 -20z m1541 -169 c64 -65 20 -171 -71 -171 -33
0 -48 6 -71 29 -64 65 -20 171 71 171 33 0 48 -6 71 -29z m-1561 -187 c108
-65 60 -224 -68 -224 -77 0 -132 77 -111 154 20 74 111 109 179 70z m1697
-146 c48 -45 13 -128 -54 -128 -32 0 -73 42 -73 75 0 34 42 75 76 75 15 0 38
-10 51 -22z m-1364 -129 c97 -50 110 -175 22 -229 -132 -82 -268 84 -162 199
37 40 96 53 140 30z m789 -216 c58 -58 46 -156 -24 -197 -71 -42 -167 -5 -188
74 -14 51 10 114 54 142 46 29 118 20 158 -19z m726 -263 c43 -41 38 -93 -13
-126 -47 -31 -115 9 -115 66 0 66 81 103 128 60z"/>
<path d="M16210 28825 c-388 -276 -788 -600 -1105 -894 -149 -138 -607 -603
-729 -741 -1482 -1667 -2397 -3653 -2690 -5840 -24 -176 -51 -454 -78 -785 -9
-113 -13 -1433 -15 -5382 -2 -2878 0 -5233 4 -5233 3 0 75 22 158 50 441 144
859 212 1322 214 145 1 263 4 263 8 0 32 55 317 79 410 106 402 312 812 570
1132 42 52 73 101 76 119 3 18 77 566 165 1219 98 723 168 1212 180 1250 42
137 47 142 945 1072 468 485 890 922 938 972 l87 91 -2 6228 -3 6227 -165
-117z m-1931 -4014 l21 -49 97 -7 c54 -3 108 -7 120 -8 19 -2 14 -12 -48 -96
-60 -82 -67 -96 -57 -115 6 -11 31 -56 55 -99 25 -44 42 -81 39 -84 -3 -3 -56
0 -117 7 -93 10 -113 10 -120 -2 -5 -7 -32 -52 -61 -100 -29 -48 -54 -85 -56
-83 -2 2 -25 50 -51 107 l-47 103 -117 3 c-64 1 -117 5 -117 7 0 3 30 46 68
96 37 51 66 96 64 101 -1 5 -25 49 -52 97 -28 49 -50 93 -50 98 0 5 46 4 112
-3 61 -7 114 -11 118 -9 4 3 33 48 65 102 l59 98 27 -58 c15 -32 36 -80 48
-106z m906 -2813 l27 -117 114 95 c63 52 114 92 114 89 0 -3 -18 -64 -40 -137
-22 -72 -37 -134 -35 -137 3 -2 64 6 136 18 72 12 133 21 135 18 3 -2 -41 -48
-97 -101 -57 -52 -101 -97 -98 -99 2 -2 64 -26 137 -52 72 -26 132 -49 132
-51 0 -1 -63 -17 -140 -35 -77 -18 -140 -35 -140 -38 0 -3 39 -53 86 -109 47
-57 84 -106 81 -108 -3 -3 -63 12 -133 34 -71 21 -130 36 -132 32 -2 -4 6 -62
18 -127 11 -66 20 -128 20 -138 0 -16 -52 35 -166 164 l-33 36 -9 -25 c-67
-181 -85 -227 -91 -239 -5 -9 -18 30 -35 105 -43 190 -25 181 -151 76 -61 -50
-111 -88 -112 -84 -2 4 15 65 37 136 22 72 38 131 37 133 -3 2 -168 -24 -262
-42 -26 -5 -14 9 79 98 l110 104 -130 47 c-71 26 -133 50 -138 54 -5 3 52 20
127 37 76 18 139 34 142 37 3 2 -36 53 -85 113 -49 60 -88 110 -87 112 2 1 63
-16 136 -38 73 -22 134 -39 136 -37 3 2 -6 66 -19 141 -13 75 -20 137 -17 137
3 0 48 -45 100 -101 51 -55 97 -97 101 -92 4 4 18 40 33 78 14 39 35 97 48
130 26 69 18 83 64 -117z m-1690 -48 c25 0 45 -3 45 -7 0 -3 -12 -22 -26 -41
l-27 -34 22 -38 c11 -21 21 -41 21 -45 0 -4 -21 -5 -48 -2 -47 5 -48 5 -70
-34 -26 -45 -36 -44 -52 6 -10 31 -15 35 -48 35 -59 0 -65 10 -36 53 l25 38
-20 35 c-12 19 -21 39 -21 43 0 4 21 6 48 3 47 -4 47 -4 71 39 l24 42 24 -46
c23 -45 25 -47 68 -47z m1612 -2862 c30 -34 36 -63 19 -96 -17 -33 -34 -42
-77 -42 -40 0 -79 40 -79 80 0 69 92 107 137 58z m581 -174 c24 -17 30 -62 10
-82 -30 -30 -88 -2 -88 43 0 20 32 55 50 55 3 0 16 -7 28 -16z m-893 -29 c107
-52 42 -212 -71 -175 -83 28 -86 147 -4 179 34 13 37 13 75 -4z m-182 -386
c25 -30 22 -75 -8 -104 -49 -49 -125 -16 -125 55 0 73 86 105 133 49z m793
-18 c68 -31 94 -114 54 -178 -56 -92 -187 -80 -225 22 -14 35 -15 50 -6 78 13
38 44 71 81 86 36 14 50 13 96 -8z m-1123 -482 c47 -21 60 -80 27 -122 -54
-68 -153 -21 -141 68 3 25 46 65 71 65 11 0 30 -5 43 -11z m723 -162 c20 -17
27 -33 27 -57 0 -39 -40 -80 -79 -80 -35 0 -74 42 -74 80 0 38 39 80 74 80 14
0 37 -11 52 -23z m641 -84 c99 -47 98 -190 -3 -234 -69 -31 -135 -5 -173 68
-28 55 4 133 69 165 44 22 63 22 107 1z m-1080 -375 c48 -45 13 -128 -54 -128
-32 0 -73 42 -73 75 0 34 42 75 76 75 15 0 38 -10 51 -22z m1017 -83 c67 -32
88 -127 41 -184 -14 -16 -41 -35 -60 -41 -74 -24 -155 34 -155 112 0 96 88
154 174 113z m-1177 -200 c47 -54 40 -114 -18 -153 -42 -29 -91 -24 -128 13
-48 48 -30 139 34 166 34 15 88 2 112 -26z m-1102 -170 c36 -36 34 -88 -5
-127 -27 -26 -36 -30 -68 -25 -84 14 -110 113 -43 164 28 22 89 16 116 -12z
m757 -133 c15 -14 30 -37 33 -53 9 -41 -20 -94 -61 -114 -102 -48 -197 83
-119 165 44 46 99 47 147 2z m-134 -668 c13 -9 31 -32 39 -52 13 -32 14 -42 2
-77 -16 -45 -67 -85 -108 -85 -57 0 -121 65 -121 122 0 35 37 87 73 104 36 16
79 11 115 -12z m-439 -210 c74 -62 -1 -175 -87 -130 -60 31 -58 111 3 144 31
17 51 14 84 -14z m-550 -92 c79 -42 92 -140 27 -199 -80 -74 -206 -19 -206 89
0 44 33 96 73 113 43 19 66 18 106 -3z m-169 -302 c11 -11 20 -27 20 -35 0 -8
-9 -24 -20 -35 -11 -11 -27 -20 -35 -20 -8 0 -24 9 -35 20 -11 11 -20 27 -20
35 0 8 9 24 20 35 11 11 27 20 35 20 8 0 24 -9 35 -20z m-449 -23 c62 -47 34
-137 -43 -137 -35 0 -68 35 -68 72 0 60 67 99 111 65z"/>
<path d="M30168 10709 c-172 -25 -373 -94 -514 -177 -214 -124 -416 -322 -556
-543 -80 -125 -79 -125 55 -34 276 185 521 296 792 357 131 29 408 36 541 14
202 -35 434 -133 599 -256 154 -114 315 -292 417 -460 l36 -61 11 51 c16 73
13 244 -4 320 -94 405 -491 719 -999 789 -89 13 -294 13 -378 0z"/>
<path d="M13415 7120 c-147 -23 -327 -97 -454 -187 -92 -66 -226 -204 -293
-304 -31 -47 -60 -93 -64 -102 -4 -10 34 10 92 49 193 129 414 223 609 260
123 22 337 15 450 -16 243 -66 478 -240 623 -459 l61 -92 7 46 c12 80 -1 234
-25 296 -89 234 -317 419 -606 490 -92 23 -306 33 -400 19z"/>
<path d="M19966 32594 c-14 -14 -16 -218 -16 -2098 0 -1606 3 -2085 12 -2094
7 -7 24 -12 38 -12 14 0 31 5 38 12 9 9 12 488 12 2094 0 1880 -2 2084 -16
2098 -8 9 -24 16 -34 16 -10 0 -26 -7 -34 -16z"/>
<path d="M20188 32599 c-17 -9 -18 -120 -18 -2097 0 -1611 3 -2091 12 -2100
19 -19 66 -15 78 7 7 13 10 683 10 2094 0 1996 -1 2075 -18 2090 -21 19 -39
21 -64 6z"/>
<path d="M20408 32599 c-17 -9 -18 -120 -18 -2097 0 -1611 3 -2091 12 -2100
19 -19 66 -15 78 7 7 13 10 683 10 2094 0 1996 -1 2075 -18 2090 -21 19 -39
21 -64 6z"/>
<path d="M20616 32588 c-14 -20 -16 -235 -16 -2088 0 -1853 2 -2068 16 -2088
20 -28 69 -30 84 -3 7 13 10 681 10 2088 0 1856 -2 2071 -16 2091 -8 12 -26
22 -39 22 -13 0 -31 -10 -39 -22z"/>
<path d="M20836 32588 c-14 -20 -16 -235 -16 -2095 0 -1870 2 -2073 16 -2087
22 -23 60 -20 78 6 14 20 16 235 16 2088 0 1853 -2 2068 -16 2088 -8 12 -26
22 -39 22 -13 0 -31 -10 -39 -22z"/>
<path d="M23679 32593 c-12 -13 -14 -349 -17 -2086 -2 -1844 0 -2073 13 -2094
20 -29 70 -32 85 -4 7 13 10 683 10 2094 0 1996 -1 2075 -18 2090 -24 22 -56
22 -73 0z"/>
<path d="M23896 32588 c-14 -20 -16 -235 -16 -2095 0 -1870 2 -2073 16 -2087
22 -23 60 -20 78 6 14 20 16 235 16 2088 0 1853 -2 2068 -16 2088 -8 12 -26
22 -39 22 -13 0 -31 -10 -39 -22z"/>
<path d="M24117 32592 c-16 -17 -17 -156 -17 -2091 0 -1409 3 -2079 10 -2092
15 -27 64 -25 84 3 14 20 16 234 16 2083 0 1635 -3 2065 -13 2085 -16 32 -57
38 -80 12z"/>
<path d="M24337 32592 c-16 -17 -17 -177 -17 -2091 0 -1409 3 -2079 10 -2092
12 -22 59 -26 78 -7 9 9 12 489 12 2100 0 2053 0 2087 -19 2098 -28 15 -46 12
-64 -8z"/>
<path d="M24556 32594 c-14 -14 -16 -218 -16 -2098 0 -1606 3 -2085 12 -2094
7 -7 24 -12 38 -12 14 0 31 5 38 12 9 9 12 489 12 2100 0 2053 0 2087 -19
2098 -27 14 -47 13 -65 -6z"/>
<path d="M21970 27981 c-16 -30 -12 -133 6 -159 13 -19 24 -22 89 -22 92 0
105 13 105 107 0 84 -10 93 -110 93 -68 0 -81 -3 -90 -19z"/>
<path d="M22436 27978 c-10 -14 -16 -44 -16 -78 0 -86 15 -100 104 -100 93 0
106 12 106 99 0 95 -6 101 -100 101 -70 0 -81 -2 -94 -22z"/>
<path d="M22035 27477 l-260 -124 -3 -186 -2 -187 525 0 525 0 -2 186 -3 187
-259 123 c-143 68 -260 124 -260 124 -1 0 -118 -56 -261 -123z"/>
<path d="M21380 27144 c-107 -57 -194 -106 -193 -109 3 -9 286 -225 295 -225
3 0 29 31 57 69 l51 68 0 152 c0 83 -3 151 -7 150 -5 0 -96 -47 -203 -105z"/>
<path d="M23000 27099 l0 -152 51 -68 c28 -38 54 -69 57 -69 3 0 67 46 141
103 74 56 141 107 149 113 11 8 -30 34 -187 117 -111 59 -204 107 -206 107 -3
0 -5 -68 -5 -151z"/>
<path d="M21051 26709 c-12 -94 -30 -218 -40 -277 -10 -59 -17 -109 -15 -111
2 -2 87 29 188 69 l185 73 11 51 c6 28 13 69 16 91 l5 40 -152 110 c-84 61
-157 113 -164 117 -8 5 -18 -44 -34 -163z"/>
<path d="M23353 26762 c-99 -71 -162 -124 -163 -134 0 -10 7 -51 16 -92 l17
-74 181 -71 c99 -39 184 -71 189 -71 4 0 5 10 2 23 -3 12 -23 138 -43 279
l-37 258 -162 -118z"/>
<path d="M21844 26096 l-34 -34 0 -136 0 -136 29 -32 29 -33 146 0 146 0 27
28 c28 27 28 30 31 167 l4 140 -35 35 -35 35 -137 0 -137 0 -34 -34z"/>
<path d="M22408 26101 l-33 -29 -3 -134 c-2 -119 -1 -136 18 -166 11 -18 32
-37 46 -42 14 -6 82 -10 151 -10 l125 0 34 34 34 34 0 137 0 137 -34 34 -34
34 -136 0 -136 0 -32 -29z"/>
<path d="M24606 8860 c-309 -39 -560 -162 -776 -379 -155 -156 -253 -315 -319
-519 -49 -148 -64 -271 -58 -456 6 -209 39 -344 126 -522 174 -353 478 -589
877 -679 111 -26 381 -31 503 -11 331 56 636 242 835 509 71 96 93 135 81 145
-23 21 -385 262 -392 262 -4 0 -23 -25 -41 -55 -54 -90 -118 -160 -202 -224
-94 -70 -175 -111 -285 -143 -105 -30 -304 -32 -410 -4 -295 77 -516 294 -591
581 -25 96 -25 293 0 390 38 145 112 275 219 383 112 114 239 186 396 224 114
27 300 22 406 -12 191 -61 351 -181 454 -339 22 -34 42 -67 44 -74 2 -7 85 43
203 122 109 74 201 136 204 138 16 14 -135 217 -226 304 -184 174 -422 298
-664 343 -100 19 -294 27 -384 16z"/>
<path d="M16703 8769 c-372 -43 -654 -360 -653 -736 0 -122 22 -212 76 -321
75 -153 214 -283 370 -346 129 -53 172 -56 726 -56 282 0 531 -5 552 -10 131
-30 210 -181 172 -329 -26 -103 -91 -177 -177 -201 -21 -6 -333 -10 -806 -10
l-773 0 0 -230 0 -231 823 3 c926 4 861 -1 1036 84 76 38 109 61 180 132 76
76 95 101 139 192 58 119 82 217 82 337 -1 274 -159 525 -405 643 -155 74
-144 73 -775 79 -630 7 -593 2 -662 79 -46 51 -63 101 -62 187 1 114 54 207
149 258 40 22 42 22 828 25 l787 3 0 229 0 230 -767 -1 c-423 -1 -801 -5 -840
-10z"/>
<path d="M19020 7541 l0 -1241 245 0 245 0 0 495 0 494 613 3 c689 4 656 1
823 83 260 127 417 401 401 700 -18 325 -232 587 -555 678 -76 21 -90 21 -924
25 l-848 3 0 -1240z m1640 768 c70 -15 128 -62 164 -133 26 -50 30 -68 30
-139 -1 -63 -6 -94 -24 -135 -27 -62 -92 -123 -148 -140 -28 -9 -201 -12 -606
-12 l-566 0 0 278 c0 153 3 282 7 285 11 12 1087 8 1143 -4z"/>
<path d="M21910 8193 c-156 -324 -314 -651 -351 -728 -37 -77 -162 -338 -279
-580 -117 -242 -227 -473 -246 -512 l-33 -73 253 0 253 0 86 183 85 182 559 3
559 2 87 -182 87 -183 255 -3 c242 -2 255 -1 247 15 -5 10 -274 568 -597 1241
l-588 1222 -47 0 -47 0 -283 -587z m356 -391 c12 -26 92 -197 178 -379 86
-183 156 -335 156 -338 0 -3 -162 -5 -361 -5 -340 0 -361 1 -355 18 18 46 352
752 356 752 3 0 15 -21 26 -48z"/>
<path d="M26310 7540 l0 -1240 1090 0 1090 0 0 230 0 230 -840 0 -840 0 0 275
0 275 775 0 775 0 0 230 0 230 -775 0 -775 0 0 275 0 275 840 0 840 0 0 230 0
230 -1090 0 -1090 0 0 -1240z"/>
<path d="M24645 8078 c-27 -5 -84 -25 -125 -45 -133 -64 -231 -184 -275 -337
-24 -82 -17 -239 14 -319 49 -125 163 -235 298 -288 90 -35 250 -39 345 -8
126 40 249 141 304 251 34 67 74 109 136 144 47 26 63 29 138 29 102 0 89 6
342 -166 104 -71 192 -129 194 -129 2 0 4 162 4 361 0 285 -3 360 -12 356 -7
-3 -94 -60 -193 -127 -223 -153 -249 -165 -340 -164 -117 1 -199 54 -265 170
-115 205 -343 314 -565 272z"/>
<path d="M23418 5305 c-226 -55 -422 -217 -517 -427 -172 -378 -8 -831 364
-1004 115 -53 185 -68 325 -68 150 0 214 15 350 81 81 40 109 61 185 138 103
103 144 168 188 292 26 75 31 106 35 214 4 105 1 140 -17 210 -69 276 -282
490 -555 559 -94 24 -269 26 -358 5z m288 -279 c81 -21 169 -73 227 -135 186
-195 183 -479 -7 -666 -303 -299 -809 -90 -809 335 0 311 295 544 589 466z"/>
<path d="M17100 4550 l0 -720 640 0 640 0 0 130 0 130 -495 0 -495 0 0 160 0
160 455 0 455 0 0 135 0 135 -455 0 -455 0 0 160 0 160 495 0 495 0 0 135 0
135 -640 0 -640 0 0 -720z"/>
<path d="M18487 5258 c198 -251 533 -689 533 -697 0 -6 -78 -111 -173 -234
-95 -122 -221 -284 -280 -359 l-107 -138 173 0 172 1 194 259 c106 143 197
260 201 260 4 0 94 -115 199 -255 106 -141 197 -258 204 -261 7 -2 85 -3 173
-2 l161 3 -279 358 c-153 196 -278 362 -278 368 0 5 118 162 262 347 144 185
266 343 271 350 7 9 -26 12 -161 12 l-170 0 -187 -250 c-103 -138 -191 -249
-196 -248 -4 2 -91 114 -194 251 l-185 247 -171 0 c-136 0 -169 -3 -162 -12z"/>
<path d="M20030 4550 l0 -720 140 0 140 0 0 285 0 285 333 0 c365 0 427 7 519
57 157 85 251 278 219 451 -24 127 -102 241 -212 305 -93 55 -120 57 -651 57
l-488 0 0 -720z m998 430 c47 -29 76 -98 69 -162 -8 -63 -31 -101 -77 -127
-36 -20 -51 -21 -374 -21 l-336 0 0 165 0 165 343 0 c326 0 344 -1 375 -20z"/>
<path d="M21590 4550 l0 -720 650 0 650 0 0 130 0 130 -505 0 -505 0 0 590 0
590 -145 0 -145 0 0 -720z"/>
<path d="M24620 4550 l0 -720 145 0 145 0 0 285 0 286 132 -3 132 -3 197 -280
196 -280 178 -3 178 -2 -25 32 c-68 89 -380 530 -376 532 1 1 42 8 89 14 168
21 287 103 352 240 30 64 32 73 32 187 0 116 -1 123 -33 188 -46 93 -114 159
-209 205 l-78 37 -527 3 -528 3 0 -721z m1025 430 c91 -56 92 -217 2 -284 -27
-20 -40 -21 -383 -24 l-354 -3 0 166 0 165 351 0 c335 0 353 -1 384 -20z"/>
<path d="M26250 4550 l0 -720 640 0 640 0 0 130 0 130 -495 0 -495 0 0 160 0
160 455 0 455 0 0 135 0 135 -455 0 -455 0 0 160 0 160 495 0 495 0 0 135 0
135 -640 0 -640 0 0 -720z"/>
</g>
</svg>
