<?xml version="1.0" standalone="no"?>
<!DOCTYPE svg PUBLIC "-//W3C//DTD SVG 20010904//EN"
 "http://www.w3.org/TR/2001/REC-SVG-20010904/DTD/svg10.dtd">
<svg version="1.0" xmlns="http://www.w3.org/2000/svg"
 width="860.000000pt" height="873.000000pt" viewBox="0 0 860.000000 873.000000"
 preserveAspectRatio="xMidYMid meet">

<g transform="translate(0.000000,873.000000) scale(0.100000,-0.100000)"
fill="#000000" stroke="none">
<path d="M8210 8139 c-30 -5 -122 -16 -205 -24 -263 -28 -483 -52 -720 -79
-126 -14 -252 -28 -280 -31 -27 -3 -108 -12 -180 -20 -197 -23 -290 -33 -400
-45 -55 -5 -181 -19 -280 -30 -99 -11 -227 -24 -285 -30 -58 -5 -215 -21 -350
-35 -298 -31 -555 -56 -970 -95 -173 -16 -385 -37 -470 -45 -234 -23 -243 -24
-410 -36 -85 -6 -157 -12 -160 -14 -3 -2 -43 -6 -90 -9 -107 -8 -213 -16 -265
-21 -22 -2 -107 -9 -190 -15 -153 -11 -237 -17 -335 -25 -30 -3 -100 -7 -155
-10 -55 -3 -156 -10 -225 -15 -69 -5 -199 -14 -290 -20 -536 -34 -863 -118
-1040 -266 -173 -145 -222 -360 -131 -569 5 -11 15 -35 22 -54 18 -48 121
-200 210 -311 129 -159 533 -541 558 -526 9 6 26 -11 26 -27 0 -5 16 -21 36
-35 106 -78 308 -232 312 -239 3 -4 -13 -37 -34 -72 -21 -36 -39 -68 -39 -71
0 -4 51 -13 113 -21 111 -14 112 -14 80 -29 -25 -11 -33 -21 -33 -41 0 -31
-19 -89 -29 -89 -4 0 -37 16 -74 36 -62 32 -70 35 -85 21 -13 -12 -32 -14 -83
-10 -55 5 -374 -30 -387 -42 -2 -1 22 -6 52 -9 31 -4 58 -11 61 -15 6 -10 -78
-3 -120 10 -16 5 -50 5 -74 1 l-45 -7 51 -33 c31 -20 86 -41 137 -54 48 -12
82 -24 76 -28 -13 -8 236 -81 379 -111 l104 -22 91 -77 c126 -105 219 -178
301 -235 39 -26 75 -54 81 -62 6 -7 24 -18 40 -25 16 -7 91 -49 167 -92 140
-81 151 -94 94 -112 -12 -3 -38 -18 -57 -33 -19 -14 -61 -43 -93 -64 -32 -20
-69 -49 -83 -64 -13 -14 -52 -43 -86 -64 -55 -34 -59 -38 -37 -43 35 -8 301
-25 574 -36 l240 -10 100 39 c176 69 161 67 336 30 166 -35 265 -47 400 -48
47 -1 88 -4 92 -7 3 -3 -5 -24 -19 -45 -29 -47 -30 -55 -4 -62 13 -3 31 3 48
17 35 28 79 56 89 56 4 0 2 -4 -6 -9 -9 -6 0 -11 30 -15 91 -14 149 -28 154
-36 3 -5 78 -9 166 -9 88 -1 164 -3 167 -5 10 -6 158 -20 219 -20 28 -1 49 -4
46 -8 -2 -5 14 -8 35 -8 40 0 73 22 52 35 -6 3 -8 11 -4 16 3 6 24 0 49 -15
l44 -24 160 16 160 15 38 -28 c21 -16 32 -21 24 -12 -7 9 -12 17 -10 17 2 0
46 -11 98 -25 92 -23 96 -25 163 -92 71 -70 72 -88 3 -54 -22 11 -42 17 -44
15 -6 -6 -9 -4 119 -67 63 -31 133 -74 155 -94 48 -46 408 -331 536 -425 50
-36 124 -95 164 -130 74 -65 105 -87 360 -263 83 -57 161 -112 175 -123 75
-57 308 -217 348 -239 l47 -25 -35 31 c-19 17 -89 67 -155 113 -66 45 -210
146 -320 224 -110 79 -224 160 -254 181 -90 64 -245 180 -266 200 -11 10 -40
34 -65 53 -25 19 -72 57 -105 85 -33 28 -136 111 -230 183 -93 73 -199 156
-235 185 -79 64 -221 199 -216 205 2 2 26 -6 53 -17 40 -17 45 -18 28 -3 -95
80 -285 256 -285 262 0 15 -180 171 -190 165 -5 -3 -7 4 -5 15 2 11 0 18 -6
15 -5 -4 -12 0 -15 9 -3 8 -24 27 -47 42 -23 15 -63 44 -88 65 -25 21 -49 36
-52 33 -5 -5 -107 51 -232 127 -33 21 -59 42 -57 49 1 6 -2 9 -7 5 -14 -8 -93
33 -86 45 4 6 -1 7 -11 3 -12 -4 -15 -3 -10 5 5 8 1 10 -10 5 -12 -4 -15 -3
-10 5 5 8 1 10 -10 5 -12 -4 -15 -3 -10 5 4 8 2 10 -8 6 -8 -3 -23 3 -34 14
-11 11 -23 18 -26 15 -3 -4 -6 -1 -6 5 0 6 -53 37 -117 70 -65 32 -136 70
-158 84 -51 32 -85 50 -85 45 0 -2 52 -44 115 -92 63 -48 115 -89 115 -92 0
-7 -146 77 -660 377 -155 90 -191 107 -316 145 -78 24 -188 59 -245 79 -150
50 -418 133 -459 141 -19 4 -46 13 -60 20 -14 7 -75 27 -136 45 l-110 32 4 31
5 31 27 -32 c33 -40 41 -40 34 -3 -6 28 -5 30 22 26 16 -2 87 -25 158 -50 97
-34 138 -44 163 -39 25 5 43 0 77 -20 25 -15 67 -35 93 -46 l48 -20 -82 78
c-55 53 -83 86 -83 101 l0 22 26 -20 c14 -11 69 -60 121 -108 78 -73 105 -92
160 -111 36 -13 68 -21 70 -18 3 2 -32 55 -77 116 -45 61 -81 112 -79 114 2 1
23 8 47 15 57 16 44 31 -26 31 -56 0 -58 1 -102 49 -42 46 -58 55 -220 120
-97 39 -178 67 -183 62 -5 -5 14 -30 43 -57 43 -40 48 -49 35 -57 -11 -6 -22
-4 -33 5 -9 8 -108 94 -218 191 l-202 177 -127 20 c-70 11 -130 19 -132 16 -5
-5 180 -365 214 -416 31 -46 30 -68 -4 -72 -25 -3 -23 -6 33 -43 67 -45 56
-58 -26 -31 -66 22 -95 20 -45 -3 34 -15 1053 -347 1140 -371 182 -50 212 -64
445 -204 129 -77 244 -146 255 -152 11 -6 49 -29 85 -51 56 -34 100 -58 255
-142 17 -9 32 -17 34 -19 2 -1 -1 -12 -7 -25 -6 -12 -15 -67 -19 -122 l-8
-100 -40 3 c-22 2 -96 21 -165 43 -144 46 -670 177 -715 178 -16 0 -91 1 -166
1 -103 1 -150 5 -199 20 -35 11 -68 16 -73 13 -6 -3 -7 -1 -4 4 4 6 -38 28
-101 53 -132 53 -316 130 -321 136 -2 2 49 28 113 58 64 30 116 58 116 62 0 4
-54 4 -120 1 -111 -6 -120 -5 -130 12 -8 17 -6 20 20 26 16 4 32 10 35 15 3 4
-56 43 -130 86 -74 44 -135 82 -135 86 0 4 24 15 53 24 57 18 71 15 247 -45
34 -11 546 -234 638 -277 41 -19 75 -34 77 -34 2 0 90 -41 196 -90 105 -50
193 -89 195 -87 2 2 -58 33 -133 70 -76 36 -194 92 -263 126 -69 33 -266 121
-438 195 -181 78 -327 147 -345 163 -27 24 -261 175 -345 223 -14 8 -57 34
-94 58 -38 23 -70 42 -73 42 -8 0 -205 121 -205 126 0 3 9 3 19 -1 11 -3 22
-1 26 4 4 7 -1 8 -11 4 -12 -5 -15 -3 -9 6 6 10 3 11 -15 1 -20 -11 -25 -9
-39 8 -9 12 -33 28 -54 37 -20 8 -37 22 -37 30 0 8 -3 15 -7 15 -8 0 -20 10
-116 93 -199 172 -378 349 -497 492 -41 50 -77 92 -80 95 -51 50 -146 215
-179 309 -38 110 -22 182 56 252 79 71 315 159 493 184 25 3 61 10 80 15 43
11 248 35 475 55 94 9 208 20 255 25 47 6 135 14 195 19 122 11 387 38 720 76
121 14 243 27 270 29 28 2 84 9 125 14 70 10 195 25 300 37 290 34 1067 131
1390 175 41 5 143 19 225 30 240 32 292 39 445 61 80 11 161 23 180 25 19 2
62 8 95 13 33 6 85 13 115 16 64 8 61 7 245 35 77 11 190 27 250 35 131 17
149 20 330 45 251 36 349 50 385 55 44 6 145 21 230 36 36 6 83 12 105 15 172
17 315 45 315 61 0 7 -6 12 -12 12 -7 -1 -38 -6 -68 -10z m-5832 -2093 c23
-16 42 -30 42 -32 0 -12 -63 23 -86 48 -31 33 -24 30 44 -16z m-963 -77 l80
-82 -97 84 c-53 46 -97 88 -97 92 -2 17 38 -16 114 -94z m-8 85 c-3 -3 -12 -4
-19 -1 -8 3 -5 6 6 6 11 1 17 -2 13 -5z m369 -165 c4 -8 1 -8 -14 0 -12 6 -24
16 -28 22 -4 8 -1 8 14 0 12 -6 24 -16 28 -22z m39 -19 c3 -5 2 -10 -4 -10 -5
0 -13 5 -16 10 -3 6 -2 10 4 10 5 0 13 -4 16 -10z m895 -65 c23 -13 23 -14 4
-15 -11 0 -29 7 -40 15 -26 19 1 20 36 0z m-477 -400 c54 -19 115 -44 135 -55
l37 -19 -80 -2 -80 -2 60 -7 c58 -6 58 -7 -29 -8 -49 -1 -87 1 -83 4 3 4 -3
25 -15 47 l-20 41 -19 -23 -19 -23 0 41 c0 23 3 41 8 41 4 0 51 -16 105 -35z
m280 -94 l49 -17 -117 -22 c-65 -13 -119 -22 -121 -20 -1 2 27 15 64 28 38 14
59 26 50 28 -26 5 -22 22 5 21 12 0 44 -8 70 -18z m-416 -7 c-3 -3 -12 -4 -19
-1 -8 3 -5 6 6 6 11 1 17 -2 13 -5z m362 -177 c192 -101 194 -103 229 -160 19
-31 33 -59 31 -61 -5 -5 -33 9 -358 177 -191 98 -203 105 -181 117 21 11 67
28 80 29 3 0 92 -46 199 -102z m-733 29 c118 -16 224 -54 259 -91 11 -12 58
-48 105 -80 114 -78 116 -80 35 -49 -71 28 -172 63 -235 82 -35 11 -35 11 10
6 l45 -4 -65 33 c-36 19 -107 44 -159 57 -52 13 -110 33 -128 46 -32 21 -32
23 -11 26 13 2 25 0 28 -3 3 -4 55 -14 116 -23z m-163 -103 c-7 -2 -19 -2 -25
0 -7 3 -2 5 12 5 14 0 19 -2 13 -5z m1337 -420 c458 -130 599 -176 883 -281
185 -69 336 -126 334 -128 -1 -1 -31 4 -67 12 -37 8 -115 13 -180 13 -63 -1
-128 2 -145 6 -23 5 -26 4 -15 -4 25 -18 2 -12 -41 10 -47 23 -59 21 -29 -6
20 -18 19 -19 -72 -57 -51 -21 -118 -41 -148 -44 -110 -11 -118 -13 -113 -33
4 -17 -5 -22 -71 -36 -44 -10 -74 -22 -73 -28 4 -21 -127 -32 -232 -19 -53 6
-158 17 -233 24 -76 7 -138 16 -138 20 0 11 75 52 173 94 48 20 87 40 87 44 0
15 -66 37 -87 29 -13 -5 -23 -7 -23 -5 0 4 81 56 255 164 83 51 110 72 89 69
-28 -5 -31 -4 -27 17 4 21 -5 26 -134 71 -134 47 -257 93 -318 120 -16 7 -97
39 -180 70 -82 31 -158 61 -167 66 -12 7 -20 4 -26 -7 -8 -15 -17 -11 -68 26
-33 24 -63 46 -68 51 -5 4 58 -17 140 -47 82 -30 394 -125 694 -211z m-590 95
c0 -13 -9 -9 -40 14 -42 30 -38 43 5 16 19 -13 35 -26 35 -30z m99 -45 c37
-22 45 -61 9 -42 -45 23 -74 59 -49 59 5 0 23 -8 40 -17z m143 -99 c2 -19 2
-34 -2 -34 -16 0 -60 49 -66 73 l-6 28 35 -17 c28 -13 36 -24 39 -50z m1786
-120 l142 -37 106 -81 c58 -44 154 -123 212 -175 59 -52 136 -112 171 -135 35
-22 59 -42 53 -44 -6 -2 -65 38 -131 88 -67 49 -132 95 -146 100 -14 5 -25 14
-25 19 0 5 -58 52 -128 105 l-128 95 -420 111 c-479 126 -453 118 -435 129 8
5 126 -21 300 -65 157 -41 350 -91 429 -110z m489 80 c250 -135 237 -126 185
-120 -24 2 -41 2 -38 -1 6 -7 135 -34 161 -34 54 -1 115 -12 115 -21 0 -10
-58 -5 -97 8 -17 7 32 -40 108 -101 296 -238 429 -348 426 -352 -3 -2 -30 2
-61 10 -41 11 -70 28 -108 62 -29 26 -52 53 -51 59 3 12 -129 136 -144 136 -5
0 -38 30 -73 66 -59 61 -142 124 -162 124 -4 0 21 -42 57 -93 l64 -93 -32 4
-32 5 40 -39 c23 -22 91 -75 152 -117 62 -43 115 -82 118 -87 4 -6 -9 -11 -27
-11 -61 -3 -66 -4 -74 -11 -4 -5 -41 -8 -82 -8 l-74 0 -130 85 c-72 47 -137
85 -145 85 -7 0 -62 46 -121 103 -59 56 -133 125 -164 154 -35 31 -58 60 -58
72 0 14 -6 21 -20 21 -17 0 -20 6 -19 48 1 62 16 159 18 117 2 -50 41 -77 41
-29 0 25 1 25 23 12 54 -34 101 -60 92 -51 -5 6 -38 29 -72 51 -61 38 -69 52
-32 52 10 0 108 -48 216 -106z m-1996 20 c68 -25 126 -47 128 -50 2 -2 -18 -1
-45 2 -39 6 -236 92 -213 93 3 1 61 -20 130 -45z m-164 -40 c1 -24 -2 -44 -7
-44 -21 0 -59 48 -64 82 l-7 37 38 -15 c35 -14 38 -18 40 -60z m82 15 c30 -11
31 -13 31 -70 0 -32 -4 -59 -9 -59 -24 0 -51 39 -59 88 -10 57 -10 57 37 41z
m1423 -154 c197 -42 305 -71 295 -81 -10 -10 -397 70 -461 96 -39 16 -65 29
-59 29 7 1 108 -19 225 -44z m1038 25 c19 -12 -42 -12 -80 0 -21 7 -17 8 20 9
25 0 52 -4 60 -9z m-1384 -221 l19 -22 -35 18 c-45 23 -47 25 -23 25 11 0 28
-10 39 -21z m1690 -11 l29 -33 -32 29 c-18 17 -33 31 -33 33 0 8 8 1 36 -29z
m74 -63 c19 -19 32 -35 29 -35 -3 0 -20 16 -39 35 -19 19 -32 35 -29 35 3 0
20 -16 39 -35z m-485 -165 c3 -6 -1 -7 -9 -4 -18 7 -21 14 -7 14 6 0 13 -4 16
-10z"/>
<path d="M2931 4327 l-74 -30 43 -13 c44 -13 86 -5 60 11 -8 5 4 17 36 36 65
38 30 36 -65 -4z"/>
<path d="M4635 4525 c3 -16 6 -54 7 -82 2 -51 5 -55 71 -120 64 -63 69 -66 63
-38 -10 44 -91 205 -121 240 l-26 30 6 -30z"/>
<path d="M4734 4531 c7 -11 46 -35 46 -28 0 3 -12 12 -26 22 -15 9 -23 12 -20
6z"/>
<path d="M4795 4490 c7 -11 65 -43 65 -36 0 2 -16 13 -36 25 -19 12 -32 16
-29 11z"/>
<path d="M4883 4434 c9 -11 17 -28 17 -36 0 -9 11 -23 25 -32 23 -15 24 -15
18 1 -4 11 9 4 33 -17 29 -27 33 -28 14 -6 -14 15 -47 47 -75 69 -27 23 -42
32 -32 21z"/>
<path d="M4904 4308 c3 -29 6 -69 6 -89 0 -35 3 -38 108 -104 115 -73 133 -83
202 -114 25 -12 41 -21 36 -21 -25 0 13 -19 49 -24 l39 -7 -47 32 c-56 37 -64
47 -43 55 22 9 20 21 -5 29 -11 4 -36 24 -55 45 -19 21 -46 41 -60 44 -14 4
-22 11 -18 17 4 7 -3 9 -17 7 -18 -2 -30 7 -53 41 -36 52 -124 141 -139 141
-6 0 -7 -19 -3 -52z"/>
<path d="M5034 4291 c20 -22 26 -25 26 -13 0 4 -10 13 -22 21 -23 14 -23 14
-4 -8z"/>
<path d="M5100 4235 c19 -19 36 -35 39 -35 3 0 -10 16 -29 35 -19 19 -36 35
-39 35 -3 0 10 -16 29 -35z"/>
<path d="M1570 5800 c0 -5 5 -10 11 -10 5 0 7 5 4 10 -3 6 -8 10 -11 10 -2 0
-4 -4 -4 -10z"/>
<path d="M2105 5696 c22 -14 45 -25 50 -25 6 0 2 4 -8 10 -9 6 -15 13 -13 17
3 4 -3 8 -12 8 -9 1 -26 4 -37 9 -11 4 -2 -4 20 -19z"/>
<path d="M3645 5623 c6 -6 62 -33 125 -61 203 -89 323 -154 345 -188 11 -16
36 -75 54 -130 19 -54 49 -145 69 -201 19 -57 38 -103 42 -103 4 0 -15 93 -41
206 -53 224 -73 267 -141 295 -18 7 -123 51 -233 97 -236 99 -233 98 -220 85z"/>
<path d="M2890 5358 c-27 -29 -35 -64 -21 -82 10 -12 9 -13 -7 -9 -12 3 -22
-1 -25 -11 -4 -11 1 -18 18 -22 43 -11 59 0 90 59 29 57 30 58 11 73 -27 19
-42 18 -66 -8z m26 -44 c-4 -9 -9 -15 -11 -12 -3 3 -3 13 1 22 4 9 9 15 11 12
3 -3 3 -13 -1 -22z"/>
<path d="M3008 5313 c-18 -22 -58 -100 -58 -114 0 -5 12 -14 26 -19 32 -13 62
2 70 35 3 13 14 31 25 41 10 9 19 25 19 34 0 39 -55 54 -82 23z"/>
<path d="M3125 5258 c-29 -34 -31 -50 -9 -72 16 -16 14 -18 -21 -20 -30 -2
-24 -28 9 -39 24 -8 32 -6 52 14 22 22 22 26 10 50 -17 33 -7 50 24 47 40 -5
37 27 -5 39 -33 10 -36 9 -60 -19z"/>
<path d="M3263 5223 c-4 -9 -1 -19 5 -21 16 -5 -4 -42 -22 -42 -16 0 -29 -27
-21 -41 4 -5 0 -6 -8 -3 -15 5 -43 -21 -30 -29 19 -10 59 -16 70 -9 6 4 16 19
22 32 6 14 21 38 33 53 25 31 18 54 -20 68 -17 7 -24 5 -29 -8z"/>
<path d="M3371 5133 c-55 -41 -63 -58 -30 -68 16 -6 18 -9 8 -22 -10 -12 -10
-16 2 -24 8 -5 17 -9 20 -9 17 0 111 139 103 152 -11 18 -55 6 -103 -29z"/>
<path d="M3001 4945 c-11 -43 -10 -50 6 -66 19 -19 93 -54 93 -44 0 9 -57 119
-73 139 -13 18 -15 16 -26 -29z"/>
<path d="M4860 4646 c0 -3 9 -10 20 -16 11 -6 20 -8 20 -6 0 3 -9 10 -20 16
-11 6 -20 8 -20 6z"/>
<path d="M5640 4077 c0 -2 15 -16 33 -33 l32 -29 -29 33 c-28 30 -36 37 -36
29z"/>
<path d="M4125 3881 c-11 -5 -24 -6 -29 -3 -5 3 -6 0 -3 -5 4 -6 -3 -13 -14
-16 -12 -3 -18 -10 -14 -16 3 -6 0 -11 -7 -11 -9 0 -9 -3 2 -10 14 -9 13 -11
-10 -14 -5 0 -10 -4 -10 -8 0 -5 0 -11 0 -15 0 -3 8 1 18 9 32 27 82 42 95 29
9 -10 8 -11 -5 -6 -9 4 -25 2 -35 -3 -13 -8 6 -10 70 -7 51 2 87 -1 87 -7 0
-5 5 -6 10 -3 6 3 10 1 10 -5 0 -6 5 -8 11 -4 8 4 3 11 -12 19 -13 7 -27 12
-31 12 -3 -1 -19 9 -34 23 -15 14 -24 19 -19 11 5 -9 3 -12 -6 -9 -8 3 -14 11
-14 19 0 9 -9 13 -25 11 -20 -2 -22 -1 -10 7 18 12 4 13 -25 2z m10 -21 c-3
-6 1 -7 9 -4 9 3 16 2 16 -4 0 -5 -10 -12 -22 -15 -13 -3 -34 -8 -48 -11 -21
-6 -22 -5 -5 3 l20 10 -20 0 c-18 1 -17 3 5 15 30 17 54 20 45 6z m55 -40 c0
-5 -4 -10 -10 -10 -5 0 -10 5 -10 10 0 6 5 10 10 10 6 0 10 -4 10 -10z m37 4
c-3 -3 -12 -4 -19 -1 -8 3 -5 6 6 6 11 1 17 -2 13 -5z"/>
<path d="M5670 3826 c0 -2 7 -7 16 -10 8 -3 12 -2 9 4 -6 10 -25 14 -25 6z"/>
<path d="M4070 3785 c-13 -15 -8 -29 11 -31 5 -1 14 -2 19 -3 6 0 9 -7 8 -13
-2 -7 7 -14 20 -16 12 -2 22 2 22 8 0 8 16 10 47 8 31 -2 47 1 50 10 4 9 -8
11 -53 6 -40 -5 -55 -4 -50 4 3 6 -8 17 -25 26 -39 19 -34 19 -49 1z m36 -12
c-10 -11 -36 -12 -36 -2 0 5 10 9 22 9 12 0 18 -3 14 -7z m24 -13 c-11 -7 -11
-10 -2 -10 7 0 10 -4 7 -10 -15 -24 -26 -5 -16 28 1 1 7 2 14 2 8 0 7 -4 -3
-10z m107 -16 c-3 -3 -12 -4 -19 -1 -8 3 -5 6 6 6 11 1 17 -2 13 -5z"/>
<path d="M4405 3761 c-3 -5 0 -13 7 -17 7 -4 24 -15 38 -23 13 -9 21 -11 17
-4 -12 20 9 23 57 9 29 -9 43 -10 39 -3 -4 7 0 8 13 3 30 -12 91 -17 75 -7 -8
5 -21 7 -29 3 -9 -3 -13 -1 -9 5 5 7 0 9 -12 6 -13 -3 -23 2 -30 15 -9 16 -20
20 -55 19 -24 -1 -42 -6 -39 -10 3 -5 -4 -4 -16 2 -23 13 -28 2 -9 -17 16 -16
-3 -15 -25 2 -14 11 -15 15 -5 19 9 4 9 6 1 6 -6 1 -14 -3 -18 -8z m148 -8
c-7 -2 -19 -2 -25 0 -7 3 -2 5 12 5 14 0 19 -2 13 -5z"/>
<path d="M5541 3763 c-1 -7 -4 -12 -8 -12 -40 6 -45 -32 -8 -57 23 -15 27 -15
50 0 16 11 25 26 25 42 0 22 -2 25 -15 14 -12 -10 -15 -9 -15 6 0 15 -2 16 -9
5 -7 -11 -9 -11 -14 0 -4 10 -6 10 -6 2z"/>
<path d="M4268 3753 c7 -3 16 -2 19 1 4 3 -2 6 -13 5 -11 0 -14 -3 -6 -6z"/>
<path d="M4280 3729 c29 -12 94 -20 85 -10 -4 3 -11 7 -16 7 -5 1 -10 2 -11 3
-2 2 -21 4 -43 6 -35 4 -37 3 -15 -6z"/>
<path d="M4175 3720 c19 -8 103 -14 94 -6 -2 2 -29 6 -59 9 -34 3 -47 2 -35
-3z"/>
<path d="M4488 3713 c6 -2 18 -2 25 0 6 3 1 5 -13 5 -14 0 -19 -2 -12 -5z"/>
<path d="M5650 3691 c0 -6 -9 -11 -20 -11 -11 0 -20 -7 -20 -15 0 -19 36 -55
55 -55 19 0 55 36 55 54 0 22 -20 30 -21 9 0 -16 -1 -16 -9 2 -5 11 -9 16 -9
11 -1 -5 -8 -3 -16 4 -10 9 -15 9 -15 1z"/>
<path d="M4874 3675 c15 -8 32 -12 37 -9 6 3 16 0 24 -6 9 -7 15 -8 15 -2 0
14 -27 23 -47 15 -11 -4 -14 -3 -9 5 5 8 -2 12 -21 12 l-28 0 29 -15z"/>
<path d="M4966 3664 c-9 -23 -8 -24 24 -12 33 11 60 -2 60 -28 0 -8 4 -14 8
-14 5 0 15 -11 22 -25 7 -14 20 -25 29 -26 12 0 11 -3 -4 -9 -18 -8 -18 -9 5
-9 14 -1 32 -6 40 -12 13 -9 13 -10 -2 -6 -9 3 -22 -1 -29 -9 -15 -18 -3 -32
13 -16 23 23 31 11 8 -13 -20 -21 -21 -25 -7 -31 9 -3 14 -14 12 -24 -3 -13 1
-17 11 -13 8 3 14 9 14 15 0 5 4 7 9 3 6 -3 14 3 20 13 7 14 6 19 -4 19 -8 0
-11 -7 -7 -16 5 -14 3 -14 -14 0 -10 9 -25 14 -33 11 -9 -3 -11 0 -7 7 4 7 16
9 26 6 10 -3 21 -1 25 4 4 7 12 7 25 -1 16 -10 25 -9 49 5 16 9 31 17 34 17 2
0 29 -29 58 -65 30 -36 57 -65 61 -65 4 0 11 18 14 41 4 22 12 43 19 45 20 8
130 -42 218 -100 172 -112 328 -191 542 -273 95 -37 410 -197 421 -214 3 -5
-6 -26 -21 -45 l-26 -34 57 -27 56 -26 25 32 c32 40 38 38 222 -59 467 -248
684 -360 688 -356 14 13 -14 49 -55 72 -26 15 -58 34 -72 43 -14 8 -28 14 -32
13 -5 -1 -8 2 -8 8 0 5 -7 10 -15 10 -8 0 -15 5 -15 11 0 6 -7 8 -16 5 -9 -3
-12 -2 -9 4 4 6 -7 13 -24 16 -17 4 -28 10 -25 15 5 8 -10 13 -29 10 -4 -1
-10 6 -14 15 -5 13 -7 13 -14 2 -7 -10 -9 -9 -9 5 0 9 -5 17 -11 17 -5 0 -7
-4 -4 -10 3 -5 0 -7 -9 -4 -9 3 -12 12 -9 21 4 11 2 14 -5 9 -15 -9 -75 22
-67 34 4 6 2 10 -4 10 -5 0 -12 -6 -14 -12 -4 -9 -6 -8 -6 3 -1 9 -17 20 -38
27 l-38 11 35 -4 c29 -4 32 -3 17 6 -11 6 -32 9 -48 5 -21 -4 -27 -2 -23 9 3
7 13 11 22 8 9 -2 4 4 -13 15 -16 12 -33 21 -37 22 -4 1 -21 14 -38 30 -17 16
-37 27 -44 24 -7 -3 -16 1 -19 9 -3 8 -19 24 -36 36 -27 20 -30 20 -24 4 6
-16 5 -16 -10 -4 -27 21 -20 3 10 -27 15 -15 21 -19 13 -9 -17 23 -5 34 15 13
15 -15 13 -36 -4 -36 -4 0 -24 16 -44 35 -33 32 -34 35 -15 41 18 5 18 8 6 21
-8 8 -21 15 -29 16 -8 2 -20 6 -27 11 -7 4 -20 5 -29 2 -12 -5 -13 -9 -3 -21
7 -9 20 -14 29 -13 9 2 16 -4 16 -13 0 -10 11 -27 25 -39 20 -17 21 -19 4 -11
-11 5 -26 17 -33 25 -8 9 -17 13 -22 10 -5 -3 -8 0 -7 7 2 6 -3 14 -11 17 -8
3 -11 0 -7 -7 4 -6 2 -11 -4 -11 -7 0 -10 6 -7 14 3 8 -2 17 -11 21 -15 6 -15
8 3 22 13 10 14 14 4 10 -9 -3 -22 -1 -30 4 -11 7 -10 9 6 10 11 1 27 1 35 0
8 -1 -4 9 -28 23 -24 14 -49 25 -55 23 -7 -1 -11 4 -9 11 1 6 -3 12 -10 12 -6
0 -19 6 -27 14 -14 13 -19 12 -36 -1 -20 -15 -20 -15 3 -8 13 4 22 2 22 -4 0
-6 7 -11 15 -11 17 0 38 -34 27 -45 -4 -4 0 -5 8 -3 8 3 14 11 12 18 -1 6 3
10 10 8 22 -8 15 -32 -12 -45 l-25 -12 26 5 c20 4 30 0 43 -20 9 -14 12 -26 6
-26 -5 0 -10 5 -10 11 0 5 -3 8 -8 6 -4 -3 -23 3 -42 14 -19 10 -29 18 -22 19
6 0 12 5 12 11 0 6 -9 8 -20 4 -24 -8 -26 2 -3 27 14 16 14 18 0 18 -8 0 -24
3 -34 6 -17 5 -17 5 0 -9 13 -11 14 -16 5 -19 -7 -2 -24 6 -38 19 -17 17 -19
22 -7 17 10 -3 17 -3 16 2 -1 5 0 11 1 14 8 22 6 40 -7 44 -9 4 -12 2 -7 -7 5
-8 2 -8 -9 2 -9 7 -15 17 -12 21 2 4 -7 6 -20 4 -14 -1 -25 2 -25 7 0 4 -8 6
-17 3 -15 -5 -15 -4 -4 4 10 7 21 7 35 0 l21 -11 -20 20 c-15 16 -23 18 -34 9
-11 -8 -13 -8 -7 2 5 8 1 11 -16 8 -13 -2 -29 1 -35 6 -15 12 -47 2 -39 -11 3
-5 -3 -7 -15 -4 -16 4 -17 8 -7 14 8 6 9 9 1 9 -6 0 -19 3 -29 7 -11 4 -15 3
-11 -4 5 -7 -1 -9 -15 -5 -19 5 -20 6 -4 12 16 5 16 7 2 19 -13 11 -17 11 -22
-3 -3 -9 -10 -13 -16 -10 -5 3 -4 11 3 20 6 8 10 14 8 15 -2 0 -13 2 -23 4
-10 2 -22 8 -25 12 -13 20 -57 43 -81 43 -20 0 -22 2 -10 11 12 8 10 9 -8 4
-16 -5 -22 -3 -20 7 2 7 -3 11 -12 9 -8 -2 -32 -6 -53 -9 -35 -4 -36 -5 -20
-19 17 -13 17 -13 -3 -4 -11 5 -27 18 -35 27 -13 16 -12 17 6 10 15 -5 17 -4
8 5 -13 13 -47 4 -38 -11 3 -6 -1 -7 -9 -4 -9 3 -13 11 -9 17 4 6 -2 8 -15 5
-12 -4 -19 -2 -16 3 3 5 -2 12 -11 15 -13 6 -14 9 -3 16 8 6 -6 7 -39 5 -32
-2 -50 0 -46 7 4 5 0 7 -9 4 -8 -4 -15 -1 -15 7 0 13 21 10 42 -6 6 -4 17 -4
24 0 7 5 23 6 35 4 14 -3 17 -2 9 4 -8 6 -1 9 22 9 19 0 29 -3 23 -7 -7 -5 -9
-11 -5 -16 5 -4 12 -1 17 7 13 21 -18 43 -49 35 -21 -5 -23 -4 -12 8 15 19 -8
30 -30 15 -11 -8 -9 -8 6 -4 l20 6 -20 -16 c-11 -8 -19 -20 -18 -25 2 -5 -2
-9 -7 -9 -6 0 -10 5 -10 10 0 6 -10 10 -23 10 -13 0 -29 6 -36 13 -11 10 -13
9 -8 -6 4 -11 3 -16 -3 -12 -6 3 -10 13 -10 21 0 8 -4 14 -10 14 -16 0 -11
-19 11 -41 12 -12 15 -19 8 -17 -8 2 -27 23 -42 46 -16 23 -33 40 -38 36 -6
-3 0 -14 11 -24 12 -11 20 -23 18 -27 -1 -5 -19 9 -38 31 -28 31 -31 38 -14
32 14 -4 26 -1 34 9 10 12 10 15 -1 15 -8 0 -5 5 6 14 11 8 26 12 35 9 13 -4
13 -3 1 5 -10 7 -21 7 -35 0 -17 -9 -19 -8 -9 3 10 10 5 17 -29 36 -42 24 -68
24 -68 1 0 -9 3 -8 10 2 9 13 10 13 10 0 0 -13 1 -13 10 0 9 13 14 7 11 -12 0
-5 3 -8 9 -8 15 0 12 -56 -3 -68 -8 -7 -18 -7 -27 -2 -8 5 -19 6 -25 2 -5 -3
-3 3 5 13 14 17 14 18 -7 6 -18 -9 -29 -9 -53 4 -17 9 -35 13 -40 10 -6 -3
-10 -1 -10 5 0 6 -4 9 -9 6 -5 -4 -20 -1 -33 4 -21 9 -20 10 7 5 l30 -6 -22
22 c-13 13 -34 22 -52 22 -17 0 -31 3 -31 7 0 3 -28 16 -62 28 -49 17 -70 20
-95 13 -17 -5 -34 -7 -37 -4 -3 3 -16 7 -28 8 -13 1 -26 3 -30 4 -4 0 -10 10
-13 21 -3 11 -13 20 -21 20 -9 0 -12 5 -8 12 4 7 3 8 -5 4 -6 -4 -17 -3 -24 2
-24 18 -75 22 -81 6z m336 -97 c15 -7 30 -18 33 -26 4 -10 0 -10 -19 3 -14 9
-33 13 -43 10 -15 -5 -16 -4 -3 5 9 6 10 11 3 11 -6 0 -19 3 -29 7 -12 4 -15
3 -10 -5 5 -8 2 -10 -9 -5 -13 5 -14 7 -3 14 14 9 34 5 80 -14z m114 -49 c-9
-5 -23 -5 -32 0 -12 6 -7 9 16 9 23 0 28 -3 16 -9z m-251 -67 c3 -5 2 -12 -3
-15 -5 -3 -9 1 -9 9 0 17 3 19 12 6z m762 -77 c-3 -3 -12 -4 -19 -1 -8 3 -5 6
6 6 11 1 17 -2 13 -5z m-43 -73 c-2 -3 -12 3 -22 13 -16 17 -16 18 5 5 12 -7
20 -15 17 -18z m231 -60 c15 -10 16 -11 3 -7 -10 3 -26 9 -35 12 -10 3 -7 -2
7 -10 14 -8 34 -16 45 -16 16 0 17 -2 6 -9 -10 -6 -23 -5 -35 2 -12 6 -24 10
-28 9 -5 -1 -8 3 -8 9 0 6 -6 9 -13 6 -8 -3 -14 0 -14 7 0 16 46 14 72 -3z
m66 -12 c11 -5 17 -14 14 -20 -4 -5 0 -9 8 -9 8 0 20 -6 26 -13 8 -11 6 -13
-12 -11 -12 1 -26 3 -30 3 -5 1 -5 6 -2 11 3 6 0 10 -7 11 -10 0 -10 2 1 6 10
4 8 9 -10 19 -13 7 -20 13 -16 14 5 0 17 -5 28 -11z m606 -325 c-3 -3 -12 -4
-19 -1 -8 3 -5 6 6 6 11 1 17 -2 13 -5z m53 -26 c0 -13 -23 -5 -28 10 -2 7 2
10 12 6 9 -3 16 -11 16 -16z m114 -89 c5 7 15 6 31 -5 14 -9 22 -20 19 -25 -3
-5 0 -10 5 -10 20 -3 26 -5 42 -14 15 -9 16 -11 1 -25 -14 -13 -15 -12 -9 3 3
9 2 19 -3 22 -6 4 -10 0 -10 -7 0 -10 -2 -10 -9 1 -5 7 -14 10 -20 7 -6 -4
-11 -2 -11 3 0 6 -8 11 -17 12 -15 0 -15 2 2 9 11 5 18 9 15 10 -26 8 -40 6
-40 -3 0 -8 -4 -7 -9 2 -5 8 -14 10 -22 5 -11 -6 -11 -4 0 10 10 12 16 14 21
5 5 -8 9 -8 14 0z"/>
<path d="M4996 3641 c-3 -5 5 -11 18 -13 17 -4 23 -1 19 9 -6 15 -29 18 -37 4z"/>
<path d="M5123 3633 c-10 -4 -9 -9 3 -20 8 -8 18 -13 21 -10 3 4 13 3 22 -2 9
-5 25 -5 36 -1 16 6 13 9 -20 15 -22 4 -42 11 -45 15 -3 4 -11 5 -17 3z"/>
<path d="M5770 3623 c0 -7 -9 -13 -20 -13 -26 0 -26 -31 0 -55 37 -34 106 10
81 53 -7 11 -10 13 -11 3 0 -11 -3 -11 -15 -1 -8 7 -15 9 -15 4 0 -5 -5 -2
-10 6 -6 10 -10 11 -10 3z"/>
<path d="M5545 3590 c-8 -13 9 -20 24 -11 10 6 9 10 -3 14 -8 3 -18 2 -21 -3z"/>
<path d="M5506 3540 c-14 -16 -21 -32 -16 -35 6 -3 10 -1 10 5 0 6 4 9 9 6 14
-9 42 5 35 16 -4 6 -10 5 -15 -3 -4 -7 -11 -10 -15 -6 -11 10 16 36 32 30 8
-3 14 -3 14 0 0 3 -6 7 -14 10 -8 3 -25 -7 -40 -23z"/>
<path d="M5567 3550 c-3 -11 -3 -20 -1 -20 2 0 8 9 14 20 6 11 7 20 2 20 -6 0
-12 -9 -15 -20z"/>
<path d="M5890 3531 c0 -6 -9 -8 -21 -6 -17 3 -20 0 -17 -22 4 -35 29 -50 65
-37 22 7 29 16 31 44 2 27 0 31 -8 20 -6 -9 -13 -11 -17 -5 -11 13 -33 17 -33
6z"/>
<path d="M5525 3501 c-17 -7 -16 -9 13 -16 18 -4 36 -4 39 -1 4 3 -5 6 -18 6
-19 0 -21 2 -9 10 18 11 3 12 -25 1z"/>
<path d="M5709 3472 c9 -7 10 -11 2 -17 -17 -10 5 -34 30 -32 29 2 23 17 -8
17 -23 1 -25 2 -11 10 18 11 48 3 48 -12 0 -17 41 -48 62 -48 11 0 17 4 13 10
-3 5 -12 7 -19 4 -15 -6 -37 17 -39 43 0 11 -9 18 -21 18 -12 1 -32 4 -46 9
-17 5 -20 4 -11 -2z"/>
<path d="M5810 3439 c0 -12 38 -31 44 -21 2 4 -7 12 -20 19 -13 6 -24 7 -24 2z"/>
<path d="M5955 3338 c-15 -21 -17 -22 -26 -5 -5 9 -15 17 -22 17 -7 0 -6 -4 3
-10 13 -9 13 -10 0 -10 -8 0 -4 -6 10 -13 14 -8 41 -12 60 -11 39 3 58 -5 40
-16 -7 -5 0 -7 18 -6 17 1 34 5 39 9 4 5 -1 5 -11 1 -13 -5 -17 -4 -12 4 3 6
2 13 -4 17 -5 3 -10 1 -10 -6 0 -8 -4 -8 -15 1 -8 7 -12 17 -8 24 5 7 2 7 -8
-1 -10 -8 -19 -9 -29 -1 -12 8 -11 9 4 4 16 -6 17 -4 6 9 -16 19 -16 19 -35
-7z"/>
<path d="M6960 2986 c25 -28 80 -71 80 -63 0 2 -24 23 -52 47 -30 25 -42 32
-28 16z"/>
<path d="M6670 2916 c0 -2 7 -7 16 -10 8 -3 12 -2 9 4 -6 10 -25 14 -25 6z"/>
</g>
</svg>
