<?xml version="1.0" standalone="no"?>
<!DOCTYPE svg PUBLIC "-//W3C//DTD SVG 20010904//EN"
 "http://www.w3.org/TR/2001/REC-SVG-20010904/DTD/svg10.dtd">
<svg version="1.0" xmlns="http://www.w3.org/2000/svg"
 width="1000.000000pt" height="960.000000pt" viewBox="0 0 1000.000000 960.000000"
 preserveAspectRatio="xMidYMid meet">

<g transform="translate(0.000000,960.000000) scale(0.100000,-0.100000)"
fill="#000000" stroke="none">
<path d="M4720 9594 c-136 -7 -372 -35 -545 -64 -843 -144 -1654 -526 -2300
-1084 -157 -135 -443 -424 -551 -556 -16 -19 -31 -37 -34 -40 -38 -35 -246
-321 -337 -465 -414 -651 -648 -1330 -735 -2135 -17 -156 -16 -738 1 -900 83
-795 320 -1484 734 -2135 91 -144 299 -430 337 -465 3 -3 18 -21 34 -40 16
-19 65 -75 110 -124 811 -893 1855 -1425 3066 -1562 219 -25 781 -25 1000 0
1012 115 1917 509 2655 1157 166 146 410 393 521 529 16 19 31 37 34 40 3 3
37 46 76 95 510 656 848 1443 963 2247 38 266 46 379 45 713 0 387 -18 592
-80 910 -146 748 -461 1439 -928 2040 -39 50 -73 92 -76 95 -3 3 -18 21 -34
40 -155 190 -486 512 -701 681 -711 560 -1553 903 -2465 1004 -140 15 -626 27
-790 19z m576 -64 c1165 -77 2224 -554 3050 -1375 523 -520 921 -1162 1152
-1860 188 -570 270 -1200 232 -1787 -68 -1040 -454 -1996 -1124 -2783 -634
-745 -1498 -1283 -2441 -1519 -1971 -493 -4016 303 -5129 1995 -619 942 -881
2086 -735 3209 93 714 344 1394 735 1989 611 928 1533 1619 2584 1935 546 164
1124 232 1676 196z"/>
<path d="M4665 9394 c-47 -4 -192 -19 -280 -30 -114 -14 -348 -59 -490 -94
-589 -145 -1169 -418 -1640 -774 -191 -144 -484 -400 -566 -495 -18 -20 -64
-70 -102 -111 -209 -223 -466 -585 -632 -890 -281 -514 -447 -1040 -532 -1675
-26 -193 -25 -852 0 -1050 82 -629 251 -1160 532 -1675 168 -308 407 -646 624
-880 49 -52 100 -109 114 -126 71 -84 370 -346 562 -491 370 -280 873 -539
1335 -688 808 -260 1724 -288 2552 -76 573 146 1145 419 1603 765 189 142 491
406 562 490 14 17 65 74 114 126 217 234 456 572 624 880 236 432 407 922 489
1395 56 326 60 383 60 805 0 422 -4 479 -60 805 -85 494 -268 1004 -524 1460
-80 142 -265 420 -374 560 -288 370 -685 741 -1066 996 -454 302 -949 522
-1465 649 -159 39 -388 83 -501 95 -32 4 -88 11 -124 17 -64 9 -717 19 -815
12z m562 -274 l36 -21 14 21 c8 11 21 20 29 20 11 0 14 -19 14 -96 0 -84 -2
-95 -17 -92 -9 2 -22 21 -30 45 -41 121 -212 155 -239 46 -12 -45 22 -75 125
-109 154 -51 181 -77 181 -176 0 -71 -26 -113 -87 -140 -58 -25 -145 -21 -199
11 l-37 22 -14 -21 c-8 -11 -21 -20 -29 -20 -11 0 -14 20 -14 105 0 98 1 105
20 105 13 0 20 -7 20 -18 0 -30 49 -116 78 -137 20 -15 43 -20 90 -20 57 0 66
3 88 28 23 27 31 68 18 102 -8 20 -50 42 -118 62 -136 40 -176 73 -183 152 -6
64 20 110 77 139 54 28 122 25 177 -8z m-395 -40 c3 -30 9 -72 12 -92 5 -33 4
-38 -13 -38 -15 0 -23 11 -31 38 -24 79 -77 108 -175 94 l-50 -7 -3 -60 c-5
-93 4 -125 34 -125 32 0 74 42 74 73 0 24 24 44 34 29 4 -6 20 -175 21 -217 0
-5 -7 -11 -16 -13 -11 -2 -19 6 -23 23 -10 40 -41 65 -81 65 l-36 0 6 -62 c3
-35 8 -83 11 -107 l6 -44 71 5 c117 8 150 35 164 133 4 35 10 45 24 45 17 0
19 -9 19 -99 l0 -100 -42 -5 c-24 -3 -123 -11 -221 -18 -176 -13 -178 -13
-175 7 2 13 12 21 28 23 14 2 29 7 33 11 8 8 -10 330 -22 391 -6 30 -11 36
-41 40 -22 3 -35 11 -35 20 0 12 30 17 157 27 86 6 174 14 195 16 66 7 67 6
75 -53z m-543 -68 c33 -108 36 -132 19 -132 -8 0 -24 19 -34 42 -32 71 -60 98
-104 98 -64 0 -65 -6 -12 -231 l48 -204 41 3 c30 2 42 -1 47 -13 3 -9 0 -18
-7 -20 -13 -5 -226 -55 -233 -55 -2 0 -4 9 -4 19 0 13 9 21 30 26 16 4 33 11
36 17 9 15 -88 419 -102 425 -7 2 -28 -3 -48 -12 -41 -20 -56 -55 -56 -131 0
-40 -4 -54 -14 -54 -8 0 -17 12 -20 28 -14 69 -28 163 -25 167 5 5 380 93 401
94 13 1 22 -16 37 -67z m1596 40 c17 -8 38 -21 47 -29 13 -11 21 -12 38 -3 42
23 46 12 31 -87 -9 -66 -17 -93 -27 -93 -8 0 -14 3 -15 8 -12 113 -73 183
-160 186 -44 1 -74 -22 -84 -65 -10 -40 27 -74 135 -128 110 -53 134 -84 133
-162 -1 -55 -24 -102 -66 -133 -57 -42 -208 -20 -257 39 -12 14 -15 14 -32 -5
-10 -11 -26 -20 -35 -20 -12 0 -14 7 -9 33 4 17 12 65 18 105 8 58 14 72 28
72 13 0 19 -12 23 -51 8 -69 34 -110 87 -137 81 -42 163 -17 176 54 10 52 -14
77 -127 135 -111 57 -139 87 -139 152 0 44 20 96 43 116 48 39 129 45 192 13z
m613 -197 c62 -57 52 -166 -21 -219 -37 -27 -120 -26 -200 3 -43 15 -59 17
-62 8 -26 -70 -45 -134 -45 -149 0 -13 11 -24 30 -31 19 -7 30 -18 30 -30 0
-23 -11 -21 -142 25 -69 24 -88 35 -88 49 0 22 12 24 42 8 15 -8 23 -8 33 3
14 15 135 364 135 390 0 9 -13 21 -30 27 -32 11 -33 12 -24 34 9 24 296 -75
342 -118z m-2857 -42 c210 -252 261 -304 288 -301 20 2 26 -1 26 -16 0 -15
-20 -26 -97 -52 -53 -17 -99 -30 -102 -26 -14 13 -4 30 24 42 17 7 30 15 30
17 0 6 -70 103 -75 103 -17 0 -170 -62 -177 -72 -12 -20 -9 -72 5 -93 11 -13
22 -17 44 -12 25 5 32 2 36 -12 4 -15 -11 -24 -85 -49 -75 -27 -90 -29 -95
-16 -3 8 6 25 21 39 18 17 26 34 26 57 0 60 21 453 25 466 9 27 36 8 106 -75z
m-344 -123 c65 -114 54 -135 -25 -50 -26 27 -56 50 -67 51 -42 3 -64 -2 -80
-17 -14 -15 -8 -32 81 -202 53 -103 98 -189 101 -191 2 -3 20 1 39 8 30 11 38
11 45 0 5 -8 8 -16 8 -19 0 -3 -50 -30 -110 -60 -90 -44 -112 -51 -119 -40
-10 16 5 40 25 40 7 0 18 7 25 15 10 12 -5 47 -80 192 -51 98 -98 184 -105
191 -10 12 -18 11 -43 -2 -45 -23 -56 -67 -37 -140 13 -48 13 -61 3 -67 -9 -6
-25 18 -56 83 -23 50 -39 94 -36 97 15 16 361 189 374 187 8 -1 34 -35 57 -76z
m3538 0 c-1 -30 -5 -150 -9 -266 -9 -211 -9 -212 13 -219 23 -7 25 -13 12 -34
-8 -12 -26 -7 -105 29 -88 39 -111 59 -87 75 5 3 21 0 36 -7 35 -16 45 0 45
68 l0 51 -86 38 -87 39 -34 -38 c-38 -41 -40 -66 -5 -81 24 -11 29 -33 9 -41
-7 -2 -48 12 -91 31 -57 27 -76 41 -74 53 2 13 12 16 40 14 34 -3 43 4 214
172 99 97 186 174 194 173 11 -2 15 -16 15 -57z m-4037 -256 c64 -92 59 -123
-11 -70 -71 54 -150 53 -209 -2 -36 -33 -37 -74 -3 -107 30 -31 51 -31 155 0
46 14 104 25 128 25 39 0 50 -5 87 -43 69 -69 73 -155 11 -219 -41 -42 -89
-66 -150 -74 -42 -6 -46 -9 -46 -35 0 -49 -24 -33 -83 55 -46 70 -54 86 -42
96 11 9 18 7 34 -9 80 -80 172 -86 246 -17 40 38 47 85 19 124 -29 41 -58 45
-148 18 -155 -47 -204 -43 -251 18 -77 101 -16 222 124 249 52 10 61 15 61 33
0 20 8 34 19 34 3 0 30 -34 59 -76z m4496 54 c44 -13 126 -87 126 -113 0 -18
5 -19 31 -4 15 7 24 7 34 -1 11 -9 5 -27 -37 -98 -28 -48 -52 -88 -53 -90 -1
-1 -9 0 -18 4 -14 5 -14 10 -1 46 19 55 18 117 -5 153 -24 41 -89 70 -136 61
-79 -15 -215 -203 -215 -298 0 -76 52 -129 135 -136 46 -4 55 -1 99 32 39 30
50 35 62 25 13 -10 11 -15 -8 -36 -81 -88 -225 -81 -307 13 -63 71 -68 200
-12 298 71 124 188 179 305 144z m-1974 -133 c1520 -134 2782 -1218 3149
-2705 274 -1111 -11 -2305 -758 -3174 -682 -795 -1665 -1246 -2711 -1246
-1849 0 -3386 1402 -3555 3245 -89 963 216 1918 844 2649 756 880 1874 1334
3031 1231z m2340 -118 c19 -18 82 -73 140 -123 58 -50 111 -98 117 -106 10
-11 1 -28 -44 -86 -47 -61 -58 -71 -70 -60 -11 12 -10 20 7 53 36 72 24 115
-55 187 -35 32 -58 35 -76 9 -8 -10 -32 -40 -54 -66 l-39 -47 23 -19 c29 -23
54 -24 91 -3 15 10 35 14 44 11 14 -5 2 -24 -60 -96 -47 -55 -82 -87 -90 -84
-17 6 -17 11 1 43 21 37 18 56 -12 90 l-28 30 -62 -74 c-35 -41 -63 -81 -63
-88 0 -26 126 -118 163 -118 7 0 40 16 72 35 84 51 95 32 25 -42 -30 -31 -60
-63 -67 -70 -6 -7 -15 -13 -18 -13 -4 0 -81 64 -172 142 -147 127 -162 143
-149 157 14 13 18 13 39 -7 13 -12 26 -22 30 -22 8 0 247 273 267 305 13 22
13 26 -9 49 -23 24 -22 46 2 46 7 0 28 -15 47 -33z m-5386 -261 c54 -32 122
-106 147 -159 25 -56 25 -137 -1 -186 -10 -21 -70 -86 -132 -145 -99 -93 -114
-104 -127 -91 -13 13 -12 18 8 39 15 15 20 29 15 38 -15 26 -279 298 -288 298
-5 0 -19 -9 -31 -20 -20 -18 -23 -19 -35 -5 -10 12 3 29 90 112 57 54 112 104
123 112 66 47 159 49 231 7z m6053 -390 l137 -160 -69 -63 c-51 -46 -72 -60
-81 -52 -10 8 -6 20 17 57 16 26 29 60 29 77 0 32 -36 91 -79 129 -26 23 -41
17 -115 -49 l-50 -45 25 -26 c20 -21 30 -25 59 -20 100 17 99 8 -8 -84 -63
-55 -86 -70 -95 -61 -9 9 -9 16 1 29 30 41 33 64 15 95 -10 17 -23 32 -28 33
-6 2 -44 -28 -85 -66 l-75 -69 28 -29 c25 -26 26 -30 12 -42 -18 -15 -12 -21
-113 96 -54 62 -60 73 -47 84 13 11 20 9 40 -10 13 -12 28 -21 33 -19 21 8
307 262 310 276 2 8 -3 23 -12 32 -16 18 -12 55 5 49 4 -2 70 -75 146 -162z
m-6535 -6 c71 -48 72 -48 60 -67 -6 -9 -21 -7 -65 9 -49 18 -61 19 -87 8 -31
-13 -110 -103 -110 -125 0 -11 108 -101 134 -111 8 -3 20 10 30 30 18 37 13
58 -21 97 -11 13 -11 18 0 27 10 8 33 -5 97 -54 47 -36 86 -71 88 -79 5 -22
-16 -27 -48 -10 -36 19 -58 14 -89 -19 l-22 -24 78 -61 c43 -34 84 -60 92 -59
8 2 34 31 58 66 54 80 56 111 8 177 -25 36 -31 52 -24 62 8 9 19 5 47 -21 21
-18 54 -48 75 -67 l38 -34 -137 -173 c-124 -158 -138 -172 -152 -158 -14 14
-14 17 1 34 9 10 17 25 17 34 0 8 -44 49 -97 90 -54 41 -129 99 -167 129 l-68
53 -25 -28 c-21 -25 -26 -27 -38 -15 -12 12 5 38 113 177 70 89 131 161 137
160 5 -2 40 -23 77 -48z m6783 -369 c52 -24 121 -99 134 -147 31 -111 -9 -216
-109 -289 -59 -43 -110 -58 -185 -56 -106 3 -185 61 -220 161 -20 57 -19 99 5
164 29 76 112 150 200 177 47 14 134 9 175 -10z m-7108 -63 c46 -24 83 -49 83
-55 0 -17 -8 -16 -79 3 -73 20 -106 13 -131 -29 -16 -25 -17 -34 -7 -44 6 -7
91 -58 187 -113 l175 -101 27 31 c19 23 30 30 41 23 13 -7 5 -26 -46 -116 -34
-59 -64 -107 -67 -107 -3 0 -11 4 -19 9 -12 8 -12 13 2 35 9 14 17 31 17 38 0
15 5 12 -170 113 -74 42 -149 86 -167 97 -31 19 -32 19 -52 -4 -13 -13 -21
-35 -21 -56 0 -28 9 -44 50 -85 31 -30 49 -56 45 -65 -4 -12 -8 -12 -28 0 -12
8 -50 33 -84 54 -35 21 -63 42 -63 46 0 4 41 78 91 165 117 201 118 203 127
203 4 0 44 -19 89 -42z m7461 -501 c34 -78 65 -156 68 -173 8 -43 -18 -100
-58 -124 -55 -33 -103 -25 -159 27 l-26 24 -7 -28 c-7 -35 -18 -48 -81 -98
-27 -21 -53 -44 -57 -49 -13 -19 5 -28 42 -22 50 8 63 -17 18 -33 -62 -22
-102 -12 -123 30 -32 60 -11 97 88 153 60 35 81 65 73 109 -3 19 -12 42 -19
52 -13 17 -18 15 -100 -23 -89 -42 -98 -53 -76 -94 10 -19 0 -37 -22 -38 -11
0 -100 210 -94 220 10 17 33 11 40 -9 14 -46 26 -43 211 40 98 45 185 87 192
94 10 9 10 18 2 39 -11 30 -6 46 13 46 7 0 40 -64 75 -143z m-7793 64 c3 -5 0
-21 -7 -36 -8 -18 -8 -29 -1 -36 9 -9 254 -124 351 -165 32 -13 34 -13 50 16
17 30 36 38 46 21 6 -9 -74 -195 -90 -211 -5 -5 -15 -5 -23 -1 -12 8 -12 14
-1 41 8 18 9 35 4 40 -13 13 -362 170 -378 170 -7 0 -19 -13 -26 -29 -8 -21
-16 -27 -31 -24 -11 3 -19 9 -17 13 2 4 23 53 48 109 41 93 60 116 75 92z
m-140 -330 c1 -22 8 -38 23 -50 13 -9 107 -45 211 -79 193 -64 226 -79 213
-98 -4 -6 -113 -43 -242 -84 -129 -40 -240 -76 -247 -79 -7 -3 59 -30 146 -60
168 -56 191 -58 206 -11 6 19 45 29 45 12 0 -10 -58 -184 -63 -189 -10 -9 -35
10 -30 23 3 8 2 25 -1 38 -7 28 -42 44 -245 111 -137 45 -145 47 -158 29 -7
-10 -13 -24 -13 -31 0 -7 -9 -13 -20 -13 -25 0 -25 11 0 86 19 55 23 60 63 72
34 11 181 56 365 114 18 5 32 12 29 14 -8 8 -263 94 -279 94 -17 0 -41 -20
-57 -47 -4 -9 -15 -14 -23 -10 -13 5 -11 18 13 92 16 47 31 91 35 96 12 20 29
2 29 -30z m8032 -206 c58 -17 116 -69 139 -123 10 -24 14 -59 12 -101 -3 -58
-1 -64 20 -72 45 -17 24 -37 -73 -69 -88 -29 -115 -32 -115 -10 0 4 23 23 51
41 49 31 88 88 89 128 0 34 -42 100 -74 115 -64 30 -186 13 -295 -42 -63 -31
-91 -70 -91 -125 0 -86 59 -144 152 -150 34 -2 44 -7 46 -23 3 -18 -2 -19 -60
-14 -35 3 -72 11 -83 17 -59 33 -105 118 -105 192 0 94 87 197 195 231 74 23
126 25 192 5z m-8220 -405 c-8 -39 11 -57 71 -65 138 -20 283 -55 312 -75 42
-30 63 -75 61 -134 -3 -144 -60 -226 -160 -226 -23 0 -106 11 -184 25 -167 31
-180 30 -187 -10 -3 -18 -12 -31 -23 -33 -22 -4 -22 23 1 143 13 69 21 91 35
93 14 3 17 -4 17 -36 0 -23 5 -42 13 -45 6 -2 88 -17 180 -33 152 -26 170 -27
194 -14 43 25 64 62 70 127 5 56 3 62 -23 92 -26 29 -41 34 -154 57 -69 14
-150 26 -180 27 -54 2 -55 1 -65 -30 -6 -22 -15 -33 -27 -33 -22 0 -22 3 -2
113 14 75 19 87 36 87 17 0 20 -5 15 -30z m8449 -113 c5 -34 21 -124 34 -199
13 -76 21 -140 17 -144 -6 -6 -152 -44 -169 -44 -5 0 -8 9 -8 19 0 12 9 21 25
25 13 3 40 20 60 37 31 27 35 37 35 78 0 46 -14 118 -24 128 -3 3 -34 0 -68
-6 -128 -24 -118 -19 -107 -49 17 -43 39 -62 76 -62 26 0 33 -4 33 -19 0 -16
-14 -21 -92 -36 -51 -9 -103 -19 -115 -22 -18 -4 -23 -1 -23 16 0 12 6 21 14
21 7 0 25 9 40 21 20 16 26 29 26 60 0 46 0 46 -118 22 -50 -9 -86 -22 -89
-30 -8 -21 17 -127 38 -162 19 -31 67 -51 125 -51 45 0 53 -27 11 -35 -84 -15
-163 -22 -168 -16 -3 3 -20 88 -38 189 -17 101 -34 196 -38 213 -5 24 -2 29
15 29 15 0 22 -9 27 -31 4 -17 12 -32 18 -34 7 -2 102 13 212 33 l200 37 0 35
c0 22 6 37 15 41 21 9 24 5 36 -64z m-8256 -997 c40 -129 77 -243 82 -253 17
-34 1 -29 -82 22 l-82 51 -61 -37 c-34 -20 -73 -44 -86 -52 -24 -15 -24 -15
-17 14 21 85 161 504 167 497 3 -4 39 -113 79 -242z m8175 -23 c42 -131 75
-242 73 -247 -2 -5 -23 3 -48 18 -25 16 -61 38 -81 50 l-35 21 -83 -49 c-45
-28 -84 -50 -86 -50 -2 0 5 26 15 58 10 31 49 152 86 267 50 158 69 205 75
190 4 -11 42 -127 84 -258z m-7937 -724 c43 -155 47 -184 32 -228 -28 -86
-121 -144 -240 -152 -54 -4 -73 0 -110 19 -25 13 -54 37 -66 55 -17 25 -94
268 -94 296 0 4 9 7 19 7 13 0 21 -8 23 -22 2 -14 11 -24 23 -26 11 -1 94 19
185 46 164 48 165 49 166 78 2 42 3 44 17 44 8 0 25 -43 45 -117z m7630 30
c55 -13 72 -21 69 -32 -2 -11 -12 -15 -32 -14 -17 1 -46 -2 -66 -7 -31 -9 -40
-18 -59 -61 -12 -28 -22 -63 -23 -77 -2 -24 4 -27 73 -49 79 -24 90 -21 90 25
0 21 -20 47 -53 67 -10 6 -14 15 -9 22 10 16 202 -36 202 -54 0 -8 -12 -13
-29 -13 -32 0 -76 -31 -84 -59 -4 -16 6 -22 68 -40 103 -30 112 -28 125 17 6
20 13 57 16 82 6 43 4 48 -28 75 -18 17 -44 37 -57 46 -14 8 -21 20 -18 26 11
17 167 -37 167 -57 0 -8 -22 -91 -48 -185 -38 -135 -52 -171 -66 -173 -16 -3
-18 1 -13 26 4 19 1 34 -6 39 -10 8 -335 103 -352 103 -3 0 -11 -13 -16 -30
-11 -31 -23 -38 -35 -19 -9 15 88 359 101 359 5 0 43 -7 83 -17z m-7472 -528
c35 -88 63 -166 64 -173 0 -11 -118 -72 -141 -72 -20 0 -7 25 31 60 29 27 40
45 40 67 0 40 -29 123 -46 130 -13 5 -154 -45 -154 -55 0 -2 9 -17 20 -32 16
-23 30 -30 63 -32 23 -2 41 -7 40 -13 -3 -12 -175 -85 -185 -78 -15 8 -8 25
17 45 26 20 36 80 14 93 -17 11 -169 -55 -169 -74 0 -30 47 -117 76 -140 22
-18 38 -21 82 -19 32 2 56 -1 59 -7 4 -13 -158 -68 -168 -57 -8 8 -139 344
-139 355 0 18 32 5 42 -18 6 -14 16 -25 22 -24 6 0 85 30 176 67 l165 67 -2
38 c-2 30 1 38 13 35 11 -2 39 -60 80 -163z m7434 79 c0 -9 -16 -13 -57 -12
-69 2 -116 -19 -138 -62 -31 -60 -14 -113 50 -159 43 -31 176 -81 215 -81 44
0 89 31 110 75 27 57 15 109 -35 154 -19 17 -35 35 -35 40 0 21 21 21 48 1 44
-35 72 -89 72 -140 -1 -125 -104 -210 -240 -197 -207 18 -315 241 -179 368 26
24 29 32 19 44 -7 8 -10 21 -7 29 4 11 22 8 91 -17 50 -17 86 -35 86 -43z
m-7271 -441 c85 -172 84 -230 -1 -274 -49 -25 -88 -24 -129 4 -28 19 -88 101
-102 141 -6 17 -142 -55 -140 -74 1 -8 5 -25 8 -36 4 -14 2 -23 -8 -27 -10 -4
-28 22 -60 87 -26 51 -47 95 -47 98 0 3 7 9 15 12 10 4 20 -3 27 -19 6 -14 18
-25 25 -25 12 0 317 153 332 166 2 2 -1 16 -8 30 -12 27 -8 44 12 44 7 0 41
-57 76 -127z m7051 62 c38 -20 50 -43 50 -99 0 -51 -1 -50 34 -35 19 9 40 8
95 -6 85 -21 103 -14 66 25 -34 36 -25 59 13 34 58 -38 69 -88 27 -129 -30
-31 -46 -31 -130 1 -57 21 -73 23 -95 14 -25 -10 -71 -75 -60 -82 4 -3 126
-64 152 -76 4 -2 16 10 26 27 13 21 22 27 32 21 21 -13 -66 -190 -93 -190 -14
0 -17 4 -12 18 21 49 16 53 -154 141 l-165 84 -22 -29 c-18 -21 -26 -26 -35
-17 -18 18 116 270 156 294 36 23 76 24 115 4z m-133 -406 c156 -76 201 -256
91 -368 -64 -65 -142 -85 -226 -57 -167 56 -239 226 -152 358 62 93 177 120
287 67z m-6705 -11 c3 -7 -55 -97 -128 -201 -98 -138 -132 -194 -131 -214 1
-14 -2 -27 -8 -29 -14 -5 -107 146 -101 162 8 20 24 17 36 -6 16 -30 34 -24
65 20 l27 39 -23 38 c-54 91 -66 102 -103 93 -52 -12 -59 -18 -52 -55 8 -39
-9 -56 -29 -29 -46 62 -77 126 -67 136 7 7 19 4 39 -10 l28 -21 205 44 c235
49 236 49 242 33z m193 -283 c41 -52 84 -109 95 -127 63 -104 -42 -220 -145
-160 l-35 21 0 -28 c0 -18 -16 -51 -45 -90 -25 -34 -45 -66 -45 -71 0 -13 37
-13 45 0 9 15 35 12 35 -5 0 -8 -13 -21 -30 -30 -55 -28 -99 -14 -120 39 -13
34 7 71 70 129 46 43 51 72 19 123 l-21 34 -26 -19 c-15 -11 -47 -37 -72 -59
l-44 -39 18 -28 c12 -18 15 -30 8 -37 -14 -14 -21 -8 -87 77 -43 57 -55 79
-47 87 9 9 18 6 36 -11 l23 -22 138 108 c76 59 143 116 149 125 8 13 6 22 -7
36 -13 14 -14 21 -5 30 7 7 13 12 15 12 1 0 36 -43 78 -95z m6163 -36 c76 -61
73 -85 -7 -50 -37 16 -56 19 -74 12 -28 -11 -107 -89 -107 -105 0 -14 102
-105 117 -106 31 -1 43 72 17 101 -17 18 -12 39 9 39 7 0 44 -29 82 -64 51
-47 67 -67 59 -75 -8 -9 -18 -8 -38 3 -15 7 -36 12 -46 9 -26 -7 -56 -41 -44
-52 5 -5 36 -32 68 -60 l60 -51 28 27 c21 20 31 24 40 15 12 -12 -2 -34 -86
-127 -34 -38 -47 -47 -56 -39 -9 9 -8 18 6 39 20 31 36 13 -140 164 l-129 111
-23 -21 c-21 -20 -54 -21 -54 -2 0 4 22 31 48 58 26 28 80 89 121 138 40 48
76 87 80 87 3 0 35 -23 69 -51z m-5852 -315 c74 -69 134 -130 134 -134 0 -5
-25 -39 -56 -75 -41 -48 -60 -63 -68 -55 -7 7 -7 17 4 33 53 84 56 121 13 159
-19 17 -24 14 -151 -116 -73 -74 -132 -140 -132 -148 0 -8 9 -23 20 -33 15
-14 17 -21 9 -31 -9 -11 -27 1 -90 59 -43 39 -79 77 -79 84 0 23 22 25 44 4
12 -12 27 -21 32 -21 17 0 266 270 261 283 -2 7 -18 20 -35 30 -28 16 -33 17
-67 3 -20 -9 -48 -25 -62 -36 -18 -14 -30 -17 -37 -10 -7 7 8 29 49 70 33 33
63 60 68 60 6 0 70 -57 143 -126z m5433 -163 c26 -24 31 -37 31 -73 0 -24 -7
-53 -15 -64 -21 -27 -19 -30 18 -30 22 0 53 -14 96 -43 44 -30 66 -40 73 -33
8 8 6 19 -6 38 -25 37 -5 54 23 18 27 -35 27 -81 -1 -111 -34 -36 -71 -30
-126 21 -81 75 -105 81 -153 38 l-31 -28 53 -62 c55 -65 71 -72 101 -45 15 13
21 14 31 4 9 -10 2 -22 -38 -58 -86 -78 -115 -97 -127 -85 -9 9 -6 18 12 37
20 21 21 27 9 42 -11 14 -173 202 -224 261 -9 10 -16 9 -37 -8 -22 -16 -28
-17 -37 -6 -9 11 8 31 91 103 124 107 132 112 184 113 33 0 49 -6 73 -29z
m-5219 -38 c33 -25 60 -52 60 -58 0 -7 -24 -84 -54 -171 -30 -87 -53 -160 -52
-161 1 -1 65 39 141 89 77 50 145 92 151 95 6 2 33 -13 60 -35 27 -21 127 -82
222 -136 94 -54 172 -101 172 -105 0 -4 -16 -37 -36 -74 -33 -63 -63 -84 -56
-41 1 10 5 35 8 55 4 20 1 46 -6 58 -13 25 -96 81 -119 81 -17 0 -94 -127 -86
-140 3 -5 19 -12 36 -15 25 -6 36 -2 60 21 22 21 32 25 40 17 16 -16 -78 -185
-100 -180 -9 2 -14 10 -12 18 13 47 11 58 -13 85 -30 35 -36 31 -90 -68 l-37
-67 41 -26 c92 -58 125 -59 186 -3 67 62 77 38 19 -51 -25 -39 -49 -71 -52
-71 -18 0 -333 187 -333 197 0 18 20 27 33 14 28 -28 46 -9 136 149 51 88 89
165 86 169 -5 9 -93 61 -101 61 -7 0 -234 -290 -234 -300 0 -5 9 -15 20 -22
22 -14 26 -33 10 -43 -8 -5 -106 65 -164 116 -5 5 -4 14 3 23 11 13 15 13 34
-4 11 -11 24 -20 27 -20 4 0 55 61 113 135 59 74 105 135 102 135 -2 0 -75
-47 -162 -103 -192 -126 -176 -117 -191 -108 -8 5 6 60 53 201 35 107 63 196
61 197 -6 6 -179 -221 -190 -249 -8 -22 -7 -31 7 -46 21 -22 22 -42 3 -42 -14
0 -139 95 -144 110 -6 15 17 21 38 10 11 -6 30 -8 41 -5 18 6 185 206 220 264
13 20 12 24 -10 42 -20 16 -24 49 -6 49 3 0 32 -21 65 -47z m4854 -159 c3 -9
-4 -24 -19 -37 l-26 -22 97 -135 c127 -179 126 -177 157 -157 21 14 27 14 37
2 9 -11 -6 -25 -75 -74 -47 -34 -90 -59 -96 -56 -15 10 -10 29 11 43 11 7 20
17 20 23 0 13 -209 309 -219 309 -3 0 -17 -7 -29 -16 -21 -15 -42 -12 -42 6 0
9 158 128 171 129 4 1 10 -6 13 -15z m-187 -355 c152 -120 182 -139 205 -135
36 7 48 -13 18 -33 -45 -31 -135 -80 -147 -81 -20 0 -15 29 7 42 11 7 20 17
20 23 0 11 -64 65 -78 65 -5 0 -40 -17 -77 -37 l-67 -38 5 -39 c7 -51 27 -72
56 -57 22 12 41 7 41 -9 0 -5 -32 -28 -71 -51 -51 -29 -74 -38 -82 -30 -7 7
-6 16 6 29 24 26 22 69 -13 287 -27 179 -28 203 -3 205 1 0 82 -63 180 -141z
m-3810 -43 c6 -6 30 -99 53 -205 22 -107 42 -196 43 -197 5 -5 107 232 107
248 0 9 -12 26 -27 38 -20 15 -24 23 -15 32 8 8 32 2 92 -25 44 -20 162 -59
263 -88 100 -28 185 -54 188 -58 11 -12 -33 -171 -47 -171 -11 0 -14 16 -14
65 0 57 -3 69 -25 91 -15 15 -34 24 -47 22 -19 -3 -28 -24 -69 -168 -58 -200
-59 -209 -19 -216 28 -6 40 -27 22 -38 -4 -2 -52 8 -107 23 -74 21 -101 32
-103 45 -3 16 1 17 36 11 34 -5 41 -3 46 12 32 108 96 339 96 350 0 18 -47 28
-79 17 -16 -6 -38 -29 -56 -61 -16 -29 -36 -52 -42 -53 -17 0 -17 6 11 86 l23
69 -30 2 c-17 1 -39 -4 -48 -13 -9 -8 -52 -94 -95 -190 -57 -127 -83 -174 -94
-172 -11 2 -27 59 -61 220 -26 119 -49 222 -51 228 -5 15 -118 -240 -118 -267
0 -12 11 -30 25 -40 16 -11 22 -23 17 -31 -6 -9 -28 -3 -90 25 -46 20 -81 41
-79 47 2 6 21 13 42 16 l39 5 74 160 74 159 -27 23 c-15 14 -25 30 -21 38 4
12 13 11 53 -6 26 -12 53 -26 60 -33z m3283 -183 c0 -24 -23 -13 -60 27 -27
29 -45 40 -67 40 -40 0 -123 -29 -130 -46 -5 -13 45 -154 55 -154 2 0 17 10
34 21 26 19 29 27 26 60 -2 25 1 40 9 43 15 6 23 -8 56 -95 14 -35 28 -72 32
-81 11 -28 -24 -22 -47 7 -14 18 -29 25 -53 25 -19 0 -36 -4 -40 -10 -10 -17
56 -170 74 -170 26 0 114 45 136 70 16 18 20 34 18 86 -2 46 1 64 10 64 15 0
70 -161 59 -171 -8 -8 -344 -139 -354 -139 -5 0 -8 9 -8 20 0 11 6 20 13 20
42 1 41 15 -18 166 -81 210 -78 206 -121 198 -31 -6 -35 -4 -32 11 2 13 52 37
173 85 l170 67 32 -66 c18 -36 32 -72 33 -78z m-423 -19 c2 -7 -10 -17 -27
-22 -16 -6 -30 -14 -30 -17 0 -13 93 -331 101 -347 7 -13 17 -16 38 -12 20 4
30 1 34 -10 5 -12 -6 -19 -51 -32 -31 -8 -70 -20 -86 -25 -16 -5 -37 -9 -47
-9 -29 0 -23 29 7 36 24 6 26 10 21 43 -2 20 -12 61 -21 92 l-17 57 -95 -28
c-53 -16 -97 -30 -100 -32 -5 -6 37 -150 49 -165 6 -8 16 -9 33 -3 19 8 26 6
31 -6 8 -21 -4 -28 -104 -54 -71 -19 -87 -20 -94 -9 -6 10 0 17 21 27 18 7 30
19 29 30 0 9 -22 91 -47 182 l-48 165 -38 0 -38 1 6 -41 c4 -22 9 -55 12 -72
9 -48 -19 -43 -36 6 -25 75 -84 118 -122 89 -15 -12 -15 -26 7 -198 14 -102
25 -186 25 -187 0 -2 18 -3 40 -3 44 0 58 -26 18 -34 -53 -10 -193 -24 -200
-20 -20 13 -6 34 22 34 18 0 33 6 36 15 6 14 -31 342 -41 373 -6 16 -30 15
-65 -3 -31 -16 -50 -62 -50 -122 0 -21 -5 -33 -14 -33 -10 0 -16 23 -21 86 -8
97 -5 103 55 105 19 0 46 2 60 5 134 21 255 32 258 23 3 -6 8 -6 16 0 6 5 44
19 85 30 40 11 81 23 92 26 14 5 19 1 19 -14 0 -12 -6 -21 -12 -21 -37 -1 -41
-16 -23 -89 9 -39 21 -74 26 -76 6 -4 186 41 196 49 1 1 -8 36 -20 77 -23 73
-23 74 -57 74 -61 0 -45 23 32 45 40 12 78 23 83 25 18 7 48 0 52 -11z m-1637
-144 c100 -51 142 -171 105 -298 -59 -197 -312 -220 -408 -37 -41 79 -19 224
46 293 64 69 171 86 257 42z m548 -107 c3 -76 1 -83 -16 -83 -15 0 -21 10 -26
41 -4 23 -17 51 -31 65 -21 21 -33 24 -95 24 l-70 0 0 -75 c0 -92 -1 -91 30
-87 29 3 60 36 60 63 0 12 7 19 20 19 18 0 19 -7 17 -102 -2 -89 -4 -103 -19
-106 -13 -2 -18 3 -18 18 0 29 -44 70 -75 70 l-26 0 3 -92 3 -93 33 -5 c18 -3
34 -9 35 -15 1 -6 -41 -11 -105 -13 -103 -3 -108 -2 -108 18 0 15 7 20 29 20
l29 0 7 93 c3 50 5 137 3 192 l-3 100 -27 3 c-17 2 -28 9 -28 18 0 13 26 15
188 12 l187 -3 3 -82z"/>
<path d="M6291 8869 c-4 -13 -20 -57 -35 -97 l-26 -73 37 -16 c21 -8 59 -16
86 -17 56 -1 78 18 99 86 10 33 9 45 -3 67 -15 28 -65 57 -117 67 -27 5 -33 3
-41 -17z"/>
<path d="M3566 8724 c-9 -65 -8 -154 2 -154 15 0 132 42 132 47 0 3 -26 36
-57 72 -31 36 -60 70 -63 74 -4 4 -10 -13 -14 -39z"/>
<path d="M6676 8564 c-38 -35 -68 -66 -65 -68 2 -3 33 -18 69 -35 l65 -31 3
50 c2 27 2 72 0 99 l-3 48 -69 -63z"/>
<path d="M4775 8230 c-571 -33 -1148 -225 -1643 -546 -1037 -674 -1635 -1848
-1563 -3072 36 -618 216 -1170 548 -1681 825 -1270 2365 -1848 3829 -1436
1124 317 2036 1227 2358 2356 296 1038 90 2156 -556 3013 -612 810 -1537 1307
-2545 1366 -184 11 -235 11 -428 0z m-571 -720 c11 -77 21 -140 23 -140 2 0
34 23 72 50 38 28 72 50 75 50 4 0 -19 -32 -50 -71 -31 -39 -54 -72 -52 -74 2
-2 60 -11 128 -20 180 -23 184 -29 38 -48 -69 -9 -135 -17 -147 -17 -11 0 -21
-2 -21 -5 0 -3 25 -39 55 -80 31 -41 53 -75 50 -75 -3 0 -37 25 -75 55 -38 30
-71 52 -73 47 -2 -4 -13 -69 -23 -144 -10 -76 -21 -138 -24 -138 -4 0 -12 48
-19 108 -8 59 -16 124 -20 145 l-6 38 -72 -55 c-40 -31 -73 -53 -73 -49 0 5
23 37 50 73 27 36 46 68 42 71 -4 3 -54 12 -112 18 -124 14 -172 22 -167 27 2
3 66 13 142 24 77 11 140 22 142 24 2 1 -20 33 -48 70 -28 37 -49 69 -47 71 1
2 34 -19 71 -47 38 -27 70 -48 73 -46 2 2 11 66 20 141 10 75 20 137 23 137 4
0 15 -63 25 -140z m926 -512 c61 -189 128 -394 148 -455 l36 -112 56 -11 c30
-6 99 -25 152 -42 l98 -30 92 26 c231 66 514 106 753 106 387 0 615 -91 710
-284 85 -170 47 -408 -112 -718 -71 -139 -88 -166 -97 -157 -4 3 8 33 27 65
129 230 198 474 176 629 -38 278 -303 424 -743 411 -192 -6 -534 -62 -672
-110 l-37 -12 65 -32 c151 -76 342 -222 467 -359 560 -612 589 -1536 68 -2185
l-88 -110 104 -322 c57 -176 131 -403 165 -503 33 -101 58 -183 56 -183 -3 0
-71 49 -152 108 -201 148 -689 505 -706 516 -8 6 -42 -2 -94 -23 -184 -71
-374 -104 -587 -104 -220 0 -406 33 -591 104 l-81 31 -124 -91 c-68 -50 -176
-129 -239 -174 -63 -46 -202 -147 -307 -225 -106 -78 -193 -138 -193 -133 0 4
49 161 110 347 60 186 110 344 110 349 0 6 -47 9 -127 7 -361 -10 -653 88
-779 260 -20 27 -48 81 -61 121 -23 65 -25 83 -21 187 4 95 10 131 36 207 81
238 283 549 515 790 l79 82 25 123 c69 348 213 619 463 868 232 233 482 376
776 446 l110 26 32 96 c133 414 264 812 267 812 2 0 54 -154 115 -342z m-2452
-567 c-4 -31 -35 -36 -52 -8 -9 14 -7 21 7 32 27 19 49 8 45 -24z m72 -586
c17 -21 5 -45 -24 -45 -28 0 -37 17 -24 43 11 21 31 22 48 2z m-572 -282 c2
-14 -3 -23 -17 -28 -28 -9 -41 1 -41 31 0 22 4 25 28 22 19 -2 28 -9 30 -25z
m-238 -59 c11 -12 11 -18 -2 -30 -18 -18 -48 -8 -48 16 0 16 11 27 31 29 4 1
12 -6 19 -15z m605 -29 c0 -22 -31 -33 -47 -17 -17 17 -1 44 24 40 15 -2 23
-10 23 -23z m383 -63 c4 -28 -24 -41 -44 -20 -20 20 -7 50 20 46 13 -2 22 -12
24 -26z m-763 -27 c0 -30 -39 -27 -43 3 -3 20 0 23 20 20 15 -2 23 -10 23 -23z
m103 -78 c6 -28 -16 -49 -39 -36 -19 10 -25 39 -12 53 13 13 48 1 51 -17z
m456 -143 c20 -8 21 -38 1 -54 -12 -10 -18 -10 -30 0 -18 15 -20 46 -2 53 6 3
13 6 14 6 1 1 8 -2 17 -5z m38 -371 c8 -16 20 -23 40 -23 15 0 28 -4 28 -10 0
-5 -11 -10 -24 -10 -30 0 -56 -38 -56 -85 0 -19 -4 -35 -10 -35 -5 0 -10 16
-10 35 0 47 -26 85 -56 85 -13 0 -24 5 -24 10 0 6 10 10 23 10 30 0 57 33 57
68 0 42 15 50 18 10 1 -18 8 -43 14 -55z m5219 -100 c8 -13 33 -27 55 -32 l39
-8 -42 -8 c-28 -5 -44 -14 -48 -26 -4 -11 -10 -19 -14 -19 -5 0 -12 -28 -16
-62 l-8 -63 -8 57 c-11 78 -30 105 -82 114 l-42 7 44 11 c53 13 80 55 82 126
l1 45 12 -60 c6 -33 18 -70 27 -82z m-417 41 c20 -8 21 -50 1 -58 -24 -9 -45
4 -45 28 0 34 12 42 44 30z m111 -208 c0 -52 -63 -62 -73 -12 -7 33 6 47 40
44 29 -3 33 -7 33 -32z m453 -117 c6 -49 -58 -65 -73 -18 -9 27 13 51 44 47
20 -2 27 -9 29 -29z m-874 -25 c11 -29 6 -44 -19 -56 -19 -8 -28 -8 -40 2 -15
13 -20 51 -8 63 13 13 61 7 67 -9z m730 -67 c21 -16 18 -45 -6 -61 -38 -23
-78 35 -42 61 10 7 21 13 24 13 3 0 14 -6 24 -13z m-934 -232 c17 -21 5 -45
-24 -45 -27 0 -42 26 -25 46 15 18 33 18 49 -1z m230 0 c15 -18 10 -45 -12
-59 -13 -8 -22 -6 -37 8 -25 23 -26 30 -5 50 19 20 38 20 54 1z m510 -251 c0
-31 -41 -54 -65 -34 -23 19 -19 59 8 69 30 12 57 -4 57 -35z m60 -124 c5 0 12
-9 15 -20 4 -14 15 -20 35 -20 16 0 32 -4 35 -10 4 -6 -5 -10 -20 -10 -43 0
-75 -44 -75 -104 0 -37 -3 -47 -10 -36 -5 8 -10 30 -10 48 0 49 -34 92 -71 92
-18 0 -28 4 -24 10 3 6 18 10 31 10 30 0 63 35 64 66 0 12 3 37 8 55 6 31 7
29 10 -23 2 -32 7 -58 12 -58z m158 31 c8 -4 12 -19 10 -32 -2 -18 -9 -24 -28
-24 -19 0 -26 6 -28 24 -3 20 11 41 28 41 3 0 11 -4 18 -9z m-888 -130 c20
-38 -13 -71 -51 -51 -21 12 -25 40 -7 58 18 18 46 14 58 -7z m-3107 -1507 l47
-16 1 -61 c1 -34 4 -86 7 -116 l7 -54 65 86 c36 48 71 87 79 87 7 0 31 -5 52
-12 42 -12 54 -39 17 -35 -20 2 -27 -10 -64 -115 -41 -118 -41 -118 -20 -132
38 -25 8 -28 -58 -6 -66 22 -89 44 -39 38 25 -3 28 2 59 92 18 52 32 98 31
102 -1 5 -19 -15 -39 -42 -21 -28 -55 -72 -75 -100 -52 -69 -63 -65 -63 19 0
37 -3 97 -7 132 l-6 64 -29 -85 c-33 -98 -34 -118 -11 -136 31 -22 6 -26 -51
-8 -33 10 -56 23 -56 32 0 8 7 11 19 7 10 -3 23 1 30 9 10 12 81 210 81 227 0
4 -9 9 -20 12 -11 3 -20 10 -20 16 0 15 8 14 63 -5z m2017 0 c0 -3 -9 -13 -19
-22 -16 -14 -51 -105 -51 -132 0 -13 132 -103 152 -104 42 -2 27 -23 -29 -41
-83 -28 -83 -28 -83 -11 0 9 7 16 15 16 27 0 16 18 -30 50 -51 35 -57 31 -59
-38 -1 -30 2 -36 17 -34 9 2 17 -3 17 -12 0 -15 -106 -54 -117 -42 -3 3 3 16
14 29 11 12 30 50 41 85 l21 62 -66 50 c-45 34 -72 48 -85 44 -11 -3 -18 0
-18 8 0 16 118 59 127 45 3 -5 -1 -13 -8 -18 -11 -8 -7 -16 21 -39 19 -17 37
-30 40 -30 8 0 28 78 22 85 -3 3 -14 5 -24 5 -30 0 -20 16 20 33 38 15 82 22
82 11z m-430 -125 c0 -6 -9 -13 -20 -16 -25 -7 -25 -11 0 -147 11 -60 20 -111
20 -113 0 -2 10 -3 22 -1 11 2 23 -2 25 -8 3 -9 -97 -34 -136 -34 -20 0 -12
20 12 29 l24 9 -22 118 c-19 108 -23 119 -45 124 -44 10 -32 27 27 38 81 13
93 14 93 1z m-1030 -25 c4 -5 18 -56 29 -113 12 -58 22 -106 24 -107 2 -2 25
43 52 99 28 56 51 104 52 106 1 2 27 0 58 -4 36 -4 55 -11 52 -18 -2 -7 -12
-11 -21 -9 -9 2 -20 -6 -25 -20 -12 -35 -33 -232 -24 -236 19 -6 37 -21 32
-26 -3 -3 -35 -3 -72 1 -47 4 -67 10 -67 19 0 8 10 14 23 14 22 0 24 7 39 108
8 59 14 109 12 111 -2 2 -29 -51 -60 -118 -32 -66 -62 -121 -69 -121 -10 0
-38 103 -62 229 -9 52 -22 17 -29 -84 -7 -84 -6 -88 17 -106 33 -25 22 -30
-49 -23 -42 5 -62 11 -62 20 0 8 9 14 20 14 27 0 36 22 49 119 16 123 15 141
-9 141 -19 0 -26 11 -15 22 8 7 95 -8 105 -18z m710 -28 c0 -7 -9 -16 -19 -19
-24 -6 -92 -107 -83 -122 41 -66 91 -127 110 -131 37 -10 25 -21 -30 -28 -77
-9 -88 -8 -88 9 0 8 7 15 15 15 8 0 15 3 15 6 0 10 -54 84 -62 84 -11 0 -48
-57 -48 -74 0 -9 7 -16 15 -16 8 0 15 -7 15 -15 0 -12 -13 -15 -60 -15 -58 0
-79 12 -42 25 24 8 104 123 96 138 -26 44 -98 127 -110 127 -8 0 -14 5 -14 10
0 6 30 10 70 10 40 0 70 -4 70 -10 0 -5 -7 -10 -15 -10 -20 0 -19 -6 6 -47 25
-40 37 -38 63 6 18 32 18 32 -3 38 -26 7 -27 20 -3 26 41 11 102 7 102 -7z"/>
<path d="M4620 6372 c-36 -10 -65 -21 -64 -27 0 -15 96 -77 104 -68 6 7 40
100 40 110 0 4 -7 3 -80 -15z"/>
<path d="M5337 6384 c-7 -8 28 -104 38 -104 14 1 88 53 92 66 3 9 -122 46
-130 38z"/>
<path d="M5520 6331 c0 -5 17 -19 38 -32 49 -29 163 -121 229 -182 l52 -49 41
32 c22 17 40 35 40 39 0 9 -120 81 -200 119 -91 44 -200 84 -200 73z"/>
<path d="M4390 6296 c-99 -43 -173 -81 -238 -123 l-54 -34 44 -34 43 -34 30
28 c74 70 96 88 189 158 108 80 104 90 -14 39z"/>
<path d="M4475 6258 c-99 -66 -245 -191 -245 -209 0 -5 40 -29 89 -54 100 -50
90 -52 141 40 18 33 58 95 87 138 52 74 54 79 36 93 -43 34 -47 33 -108 -8z"/>
<path d="M5465 6283 c-11 -8 -26 -18 -34 -22 -11 -7 -4 -22 31 -72 25 -35 67
-102 93 -149 27 -47 50 -87 51 -89 2 -2 47 18 100 44 l96 46 -23 26 c-49 53
-220 188 -284 225 -6 4 -19 0 -30 -9z"/>
<path d="M4593 6167 c-68 -100 -133 -210 -133 -224 0 -11 76 -41 84 -32 2 2
25 72 51 154 26 83 50 153 52 158 2 4 1 7 -4 7 -4 0 -27 -28 -50 -63z"/>
<path d="M5393 6205 c21 -88 94 -295 104 -295 21 0 63 23 63 34 0 13 -97 175
-144 241 -16 22 -26 31 -23 20z"/>
<path d="M3995 6064 c-68 -53 -265 -252 -265 -269 0 -12 149 -115 167 -115 6
0 14 9 18 20 15 48 192 294 235 327 8 6 13 13 10 15 -3 2 -24 18 -47 36 -23
17 -45 32 -50 32 -4 0 -35 -21 -68 -46z"/>
<path d="M5910 6072 l-44 -39 51 -59 c53 -62 203 -280 203 -295 0 -13 45 12
118 65 l63 47 -33 42 c-68 86 -277 277 -304 277 -5 0 -29 -17 -54 -38z"/>
<path d="M4128 5941 c-70 -86 -188 -263 -188 -280 0 -19 295 -145 303 -130 1
2 15 42 30 89 16 47 49 131 74 188 25 57 44 104 42 106 -2 2 -48 26 -102 53
l-99 51 -60 -77z"/>
<path d="M5725 5962 c-49 -26 -92 -48 -94 -50 -3 -1 4 -19 14 -40 29 -60 91
-218 111 -282 11 -33 24 -60 31 -60 17 0 155 51 231 85 37 17 62 34 62 43 0
36 -230 353 -255 351 -5 -1 -50 -22 -100 -47z"/>
<path d="M4385 5793 c-44 -100 -108 -274 -102 -278 6 -4 121 -34 123 -32 1 1
27 83 59 182 32 99 59 185 62 191 2 6 -13 16 -34 23 -21 7 -43 14 -49 17 -7 3
-31 -40 -59 -103z"/>
<path d="M5527 5878 c-17 -6 -26 -15 -23 -23 2 -7 30 -92 61 -189 31 -96 59
-177 63 -179 14 -8 111 25 107 37 -26 81 -84 236 -110 294 -36 76 -43 80 -98
60z"/>
<path d="M3688 5742 c-50 -58 -192 -319 -200 -367 -2 -15 17 -29 97 -71 152
-79 136 -83 179 50 20 64 54 153 76 200 l39 85 -52 32 c-29 17 -68 44 -88 60
-34 27 -37 27 -51 11z"/>
<path d="M6254 5707 c-39 -29 -79 -57 -89 -63 -17 -10 -15 -18 27 -120 26 -60
58 -148 73 -196 14 -49 30 -88 35 -88 6 0 62 26 125 57 72 36 115 63 115 73 0
27 -96 215 -154 304 -32 47 -58 86 -59 85 -1 0 -34 -24 -73 -52z"/>
<path d="M3890 5571 c-50 -100 -128 -338 -114 -351 17 -17 337 -120 372 -120
4 0 14 41 21 92 7 50 24 136 37 191 13 54 24 100 24 102 0 2 -30 13 -67 26
-38 12 -106 40 -151 61 -46 21 -88 38 -93 38 -5 0 -18 -18 -29 -39z"/>
<path d="M6045 5584 c-27 -14 -95 -41 -150 -61 -55 -20 -101 -37 -103 -38 -1
-1 8 -47 22 -102 13 -54 30 -141 37 -191 7 -51 18 -92 24 -92 49 0 375 110
375 127 0 47 -129 384 -147 382 -4 0 -30 -11 -58 -25z"/>
<path d="M4257 5418 c-23 -82 -28 -105 -46 -221 -19 -117 -20 -116 34 -120 29
-2 29 -2 87 178 31 99 54 182 50 186 -8 7 -84 29 -100 29 -6 0 -17 -24 -25
-52z"/>
<path d="M5685 5458 c-22 -6 -42 -12 -43 -14 -3 -2 105 -350 114 -365 2 -3 17
-4 34 -1 27 4 30 8 30 41 0 36 -56 326 -66 342 -6 11 -17 10 -69 -3z"/>
<path d="M3441 5243 c-11 -43 -27 -112 -36 -153 -16 -80 -38 -281 -31 -287 5
-5 287 -6 292 -1 2 2 8 58 14 124 6 65 17 152 25 193 8 40 15 74 15 76 0 1
-30 15 -67 31 -38 15 -94 43 -126 61 -33 18 -60 33 -62 33 -1 0 -12 -35 -24
-77z"/>
<path d="M6471 5274 c-47 -24 -104 -51 -128 -60 -35 -14 -42 -20 -38 -38 17
-77 26 -156 32 -256 3 -63 9 -117 14 -120 4 -3 51 -4 106 -3 54 1 119 2 146 2
l47 1 0 53 c-1 108 -63 436 -88 458 -4 4 -45 -13 -91 -37z"/>
<path d="M3755 5171 c-8 -14 -34 -220 -37 -294 l-3 -79 205 0 205 0 6 34 c4
18 9 76 12 129 l6 95 -72 19 c-40 10 -127 37 -195 60 -68 23 -125 39 -127 36z"/>
<path d="M6140 5135 c-52 -18 -134 -44 -182 -56 l-87 -23 6 -126 c3 -69 7
-126 8 -128 5 -5 418 -2 423 3 5 5 -15 205 -30 298 -8 51 -15 67 -27 66 -9 0
-59 -16 -111 -34z"/>
<path d="M4186 5017 c-8 -49 -12 -217 -5 -217 3 0 21 48 39 108 18 59 35 114
38 122 3 8 2 12 -2 8 -4 -3 -21 -2 -36 2 -27 8 -30 6 -34 -23z"/>
<path d="M5772 5028 c3 -7 20 -57 37 -110 18 -54 34 -98 36 -98 4 0 -4 143
-11 188 -4 28 -9 32 -36 32 -20 0 -29 -4 -26 -12z"/>
<path d="M3263 4783 c-342 -389 -505 -729 -464 -973 32 -195 168 -323 406
-381 95 -23 301 -35 435 -25 l95 8 33 105 33 106 -34 36 c-105 109 -227 301
-295 461 -83 193 -121 368 -131 595 l-6 150 -72 -82z"/>
<path d="M3376 4698 c11 -135 26 -228 56 -341 17 -65 34 -116 37 -115 3 2 61
31 128 65 67 33 120 63 118 65 -6 5 -33 219 -41 311 l-6 77 -149 0 -149 0 6
-62z"/>
<path d="M3718 4678 c3 -80 27 -272 37 -288 2 -4 69 15 147 41 79 27 151 49
160 49 26 0 79 171 71 233 l-6 47 -206 0 -206 0 3 -82z"/>
<path d="M5887 4754 c-14 -14 -6 -56 28 -163 l35 -108 73 -22 c39 -11 77 -21
82 -21 6 0 52 42 102 93 l92 92 3 65 3 65 -206 3 c-113 1 -208 -1 -212 -4z"/>
<path d="M6346 4744 c-3 -9 -6 -30 -6 -47 l0 -30 23 20 c36 33 90 63 115 63
32 0 82 -52 82 -85 0 -62 -62 -136 -187 -224 -36 -25 -63 -51 -63 -61 0 -12
37 -36 123 -78 67 -34 125 -58 129 -54 4 4 21 61 37 127 31 125 51 256 51 337
l0 48 -149 0 c-127 0 -150 -2 -155 -16z"/>
<path d="M3915 4392 l-140 -47 2 -38 c3 -45 51 -190 97 -291 l33 -71 77 238
c42 131 76 242 74 247 -2 5 -66 -12 -143 -38z"/>
<path d="M5970 4421 c0 -5 6 -23 13 -40 l13 -31 32 23 c17 12 32 25 32 28 0 5
-68 29 -84 29 -3 0 -6 -4 -6 -9z"/>
<path d="M6135 4300 c-49 -27 -94 -51 -98 -53 -10 -3 73 -277 84 -277 9 0 60
123 94 225 28 86 36 146 20 151 -5 2 -50 -19 -100 -46z"/>
<path d="M3595 4262 c-89 -47 -109 -61 -107 -77 11 -63 189 -375 215 -375 5 0
26 13 46 29 20 15 55 39 78 52 24 13 43 28 43 32 0 4 -9 25 -20 47 -26 52 -85
210 -106 288 -10 34 -22 62 -28 62 -6 0 -60 -26 -121 -58z"/>
<path d="M6285 4288 c-12 -55 -70 -219 -104 -292 -17 -38 -31 -70 -31 -72 0
-1 32 -24 71 -51 39 -26 79 -54 89 -61 15 -11 23 -4 69 65 60 89 149 266 153
303 3 22 -9 30 -112 82 -63 32 -117 58 -121 58 -4 0 -11 -15 -14 -32z"/>
<path d="M3815 3834 c-33 -25 -66 -47 -72 -50 -22 -10 -14 -29 31 -73 l44 -44
32 103 c17 56 30 103 28 105 -2 1 -30 -17 -63 -41z"/>
<path d="M6155 3851 c3 -11 18 -56 33 -102 l28 -82 42 51 42 50 -33 24 c-17
14 -52 37 -75 52 -40 25 -43 26 -37 7z"/>
<path d="M5030 3560 l0 -150 38 0 c20 0 53 -3 73 -6 l36 -6 32 82 c17 46 30
84 29 85 -39 31 -198 145 -202 145 -3 0 -6 -67 -6 -150z"/>
<path d="M4946 3675 c-16 -9 -60 -38 -97 -66 l-68 -50 23 -62 c13 -34 27 -70
31 -80 6 -15 15 -18 38 -13 16 3 49 6 73 6 l44 0 0 140 c0 77 -3 140 -7 140
-5 0 -21 -7 -37 -15z"/>
<path d="M5264 3513 c-4 -15 -16 -48 -27 -72 -21 -48 -19 -53 38 -71 22 -7 58
-22 79 -32 l39 -20 23 29 c23 27 39 62 32 67 -30 21 -121 86 -145 104 l-32 24
-7 -29z"/>
<path d="M4674 3481 c-34 -26 -72 -54 -84 -62 l-23 -15 28 -42 c15 -23 28 -42
29 -42 1 0 24 11 52 24 27 13 66 29 87 35 20 7 37 14 37 17 0 12 -53 134 -59
133 -3 0 -34 -21 -67 -48z"/>
<path d="M4905 3369 c-117 -17 -236 -62 -314 -119 -24 -18 -39 -36 -35 -40 17
-17 264 -60 380 -66 69 -4 163 -2 224 5 122 13 289 46 302 59 11 11 -98 83
-169 111 -123 48 -269 67 -388 50z"/>
<path d="M5460 3342 c-14 -20 -25 -40 -25 -45 0 -4 13 -16 29 -27 l30 -19 43
31 c24 17 43 32 43 33 0 3 -88 65 -92 65 -1 0 -14 -17 -28 -38z"/>
<path d="M4487 3343 c-20 -14 -37 -30 -37 -34 0 -4 16 -17 36 -29 32 -20 38
-21 61 -9 14 8 28 19 30 26 5 13 -33 73 -45 73 -4 0 -24 -12 -45 -27z"/>
<path d="M5577 3262 c-20 -14 -36 -27 -34 -29 6 -5 97 30 97 38 0 18 -29 14
-63 -9z"/>
<path d="M4390 3272 c0 -4 20 -15 45 -24 54 -20 57 -17 11 11 -35 22 -56 27
-56 13z"/>
<path d="M2055 7921 c-39 -24 -88 -77 -84 -89 7 -20 281 -302 293 -302 18 0
93 81 106 114 22 58 -2 111 -91 203 -88 90 -160 114 -224 74z"/>
<path d="M8417 7123 c-88 -47 -162 -114 -177 -159 -24 -73 17 -153 90 -175 51
-16 121 7 213 68 120 80 155 160 106 240 -46 74 -126 83 -232 26z"/>
<path d="M8795 6588 c-38 -18 -72 -33 -74 -35 -7 -5 22 -68 47 -101 32 -44 58
-53 102 -35 50 20 70 42 70 75 0 43 -39 128 -59 127 -9 0 -47 -14 -86 -31z"/>
<path d="M1075 3848 c-55 -16 -130 -38 -167 -49 -76 -22 -78 -26 -52 -102 24
-71 54 -90 134 -84 73 5 151 29 194 60 31 22 60 79 52 105 -3 9 -10 36 -16 60
-13 50 -11 50 -145 10z"/>
<path d="M1428 2994 c-38 -19 -68 -40 -68 -47 0 -25 62 -107 85 -113 29 -7 61
2 98 28 20 15 27 28 27 54 0 45 -35 114 -58 114 -9 -1 -47 -17 -84 -36z"/>
<path d="M8478 3029 c-30 -40 -48 -73 -48 -88 0 -10 139 -86 145 -79 16 18 45
93 45 116 0 36 -36 71 -82 78 -31 6 -38 2 -60 -27z"/>
<path d="M8274 2671 c-70 -30 -96 -127 -51 -189 56 -76 170 -145 239 -146 45
-1 53 2 85 38 32 35 35 42 31 86 -5 54 -22 79 -87 133 -81 66 -169 98 -217 78z"/>
<path d="M1566 2634 c-38 -7 -70 -15 -73 -17 -5 -6 58 -107 67 -107 6 0 56 68
93 127 10 16 4 15 -87 -3z"/>
<path d="M1880 2324 c-30 -24 -56 -48 -58 -53 -5 -15 68 -91 93 -97 53 -13
122 56 104 104 -11 30 -62 92 -74 91 -5 0 -35 -20 -65 -45z"/>
<path d="M7544 1848 c-67 -52 -67 -55 -16 -109 20 -23 41 -47 45 -55 11 -20
21 -18 57 12 38 33 63 79 55 103 -10 33 -56 71 -85 71 -15 0 -40 -10 -56 -22z"/>
<path d="M7018 1288 c7 -46 15 -84 17 -86 3 -3 115 57 115 62 0 4 -137 106
-141 106 -3 0 1 -37 9 -82z"/>
<path d="M4422 938 c-70 -34 -115 -229 -76 -327 37 -93 160 -105 211 -20 48
78 58 257 18 311 -32 44 -102 60 -153 36z"/>
</g>
</svg>
